<svg xmlns="http://www.w3.org/2000/svg" viewBox="0 0 335.91 231.4"><defs><style>.cls-1{isolation:isolate;}.cls-2{opacity:0.1;}.cls-3{fill:#fa3e6a;}.cls-4{fill:#8d8d8d;}.cls-5{fill:#003398;}.cls-6{fill:#a1a7ff;}.cls-7{fill:#a8a8a5;}.cls-14,.cls-8{opacity:0.5;}.cls-19,.cls-9{fill:#3b8bca;}.cls-10{fill:#fff;}.cls-11{fill:#ffb91f;}.cls-12{fill:#f58b32;}.cls-13{opacity:0.3;}.cls-15,.cls-16,.cls-17{fill:none;stroke-miterlimit:10;stroke-width:2px;}.cls-15{stroke:#3a8dcb;}.cls-16{stroke:#fbb01c;}.cls-17{stroke:#ee3f32;}.cls-18{fill:#479fd8;}.cls-19{opacity:0.8;}.cls-20{fill:#fff0d7;}.cls-21{fill:#13364c;}.cls-22{fill:#faab1b;}.cls-23{fill:#f3f4f5;}.cls-24{fill:#e8d5c0;}.cls-25{fill:#0c2533;}.cls-26{fill:#ffdc00;}.cls-27{fill:#f8bc1f;}.cls-28,.cls-29{fill:#ffc111;}.cls-29{mix-blend-mode:overlay;}.cls-30{fill:#efb336;}.cls-31{fill:#e48d5b;}.cls-32{fill:#ba724a;}.cls-33{fill:#f7f8f9;}.cls-34{fill:#f2f2f0;}</style></defs><title>Elastic Path Pioneers in Headless Architecture</title><g class="cls-1"><g id="Layer_1" data-name="Layer 1"><polygon class="cls-2" points="168.98 33.15 168.65 41.95 158.88 52.08 11.23 205.03 2.6 205.03 157.43 45.02 168.94 33.11 168.98 33.15"></polygon><polygon class="cls-3" points="168.98 30.45 168.65 39.25 158.88 49.38 8.63 205.03 0 205.03 157.43 42.32 168.94 30.41 168.98 30.45"></polygon><g id="Monitor"><rect class="cls-4" x="178.93" y="116.05" width="21.21" height="84.86"></rect><rect class="cls-5" x="102.2" y="50.52" width="174.67" height="118.89" rx="20.46"></rect><rect class="cls-6" x="104.09" y="52.17" width="170.9" height="110.41"></rect><path class="cls-7" d="M154,200.9h71a3.84,3.84,0,0,1,3.84,3.84V205a0,0,0,0,1,0,0H150.2a0,0,0,0,1,0,0v-.29A3.84,3.84,0,0,1,154,200.9Z"></path></g><g class="cls-8"><rect class="cls-9" x="127.85" y="60.23" width="0.51" height="46.23"></rect><rect class="cls-9" x="156.14" y="77.66" width="0.51" height="57.1" transform="translate(262.61 -50.19) rotate(90)"></rect><path class="cls-9" d="M121.54,101.71h0l-.27.14,0-.16.34-.18h.18v1.56h-.2Z"></path><path class="cls-9" d="M123.35,102.28c0,.53-.19.82-.54.82s-.51-.29-.52-.8.23-.82.55-.82S123.35,101.78,123.35,102.28Zm-.85,0c0,.41.13.64.32.64s.32-.26.32-.66-.1-.63-.32-.63S122.5,101.87,122.5,102.3Z"></path><path class="cls-9" d="M124.59,102.28c0,.53-.2.82-.55.82s-.51-.29-.51-.8.22-.82.54-.82S124.59,101.78,124.59,102.28Zm-.85,0c0,.41.12.64.32.64s.32-.26.32-.66-.1-.63-.32-.63S123.74,101.87,123.74,102.3Z"></path><path class="cls-9" d="M125.82,102.28c0,.53-.2.82-.54.82s-.52-.29-.52-.8.23-.82.54-.82S125.82,101.78,125.82,102.28Zm-.85,0c0,.41.13.64.32.64s.32-.26.32-.66-.1-.63-.32-.63S125,101.87,125,102.3Z"></path><path class="cls-9" d="M121.08,93v-.13l.16-.16c.4-.38.59-.59.59-.82a.28.28,0,0,0-.31-.31.53.53,0,0,0-.33.13l-.07-.14a.69.69,0,0,1,.44-.16.44.44,0,0,1,.48.45c0,.29-.21.52-.54.84l-.12.12h.7V93Z"></path><path class="cls-9" d="M123.35,92.2c0,.53-.19.82-.54.82s-.51-.28-.52-.8.23-.81.55-.81S123.35,91.7,123.35,92.2Zm-.85,0c0,.41.13.64.32.64s.32-.25.32-.65-.1-.64-.32-.64S122.5,91.8,122.5,92.22Z"></path><path class="cls-9" d="M124.59,92.2c0,.53-.2.82-.55.82s-.51-.28-.51-.8.22-.81.54-.81S124.59,91.7,124.59,92.2Zm-.85,0c0,.41.12.64.32.64s.32-.25.32-.65-.1-.64-.32-.64S123.74,91.8,123.74,92.22Z"></path><path class="cls-9" d="M125.82,92.2c0,.53-.2.82-.54.82s-.52-.28-.52-.8.23-.81.54-.81S125.82,91.7,125.82,92.2Zm-.85,0c0,.41.13.64.32.64s.32-.25.32-.65-.1-.64-.32-.64S125,91.8,125,92.22Z"></path><path class="cls-9" d="M121.13,82.89a.69.69,0,0,0,.35.1c.27,0,.35-.17.35-.3s-.2-.32-.4-.32h-.12v-.16h.12c.15,0,.35-.07.35-.26s-.08-.24-.28-.24a.57.57,0,0,0-.31.11l-.06-.16a.74.74,0,0,1,.41-.12.38.38,0,0,1,.16.75h0a.41.41,0,0,1,.35.4c0,.25-.2.47-.57.47a.72.72,0,0,1-.41-.11Z"></path><path class="cls-9" d="M123.35,82.34c0,.53-.19.82-.54.82s-.51-.29-.52-.8.23-.82.55-.82S123.35,81.84,123.35,82.34Zm-.85,0c0,.41.13.64.32.64s.32-.26.32-.65-.1-.64-.32-.64S122.5,81.93,122.5,82.36Z"></path><path class="cls-9" d="M124.59,82.34c0,.53-.2.82-.55.82s-.51-.29-.51-.8.22-.82.54-.82S124.59,81.84,124.59,82.34Zm-.85,0c0,.41.12.64.32.64s.32-.26.32-.65-.1-.64-.32-.64S123.74,81.93,123.74,82.36Z"></path><path class="cls-9" d="M125.82,82.34c0,.53-.2.82-.54.82s-.52-.29-.52-.8.23-.82.54-.82S125.82,81.84,125.82,82.34Zm-.85,0c0,.41.13.64.32.64s.32-.26.32-.65-.1-.64-.32-.64S125,81.93,125,82.36Z"></path><path class="cls-9" d="M121.73,73.12v-.43H121v-.14l.69-1h.23v1h.22v.16h-.22v.43Zm0-.59V72c0-.09,0-.17,0-.25h0a2.36,2.36,0,0,1-.13.23l-.38.53h.51Z"></path><path class="cls-9" d="M123.35,72.32c0,.53-.19.83-.54.83s-.51-.29-.52-.81.23-.81.55-.81S123.35,71.82,123.35,72.32Zm-.85,0c0,.41.13.64.32.64s.32-.25.32-.65-.1-.64-.32-.64S122.5,71.92,122.5,72.34Z"></path><path class="cls-9" d="M124.59,72.32c0,.53-.2.83-.55.83s-.51-.29-.51-.81.22-.81.54-.81S124.59,71.82,124.59,72.32Zm-.85,0c0,.41.12.64.32.64s.32-.25.32-.65-.1-.64-.32-.64S123.74,71.92,123.74,72.34Z"></path><path class="cls-9" d="M125.82,72.32c0,.53-.2.83-.54.83s-.52-.29-.52-.81.23-.81.54-.81S125.82,71.82,125.82,72.32Zm-.85,0c0,.41.13.64.32.64s.32-.25.32-.65-.1-.64-.32-.64S125,71.92,125,72.34Z"></path><path class="cls-9" d="M122,61.54h-.59l-.06.4h.12a.74.74,0,0,1,.34.08.46.46,0,0,1,.22.41.54.54,0,0,1-.58.53.76.76,0,0,1-.39-.1l.06-.16a.65.65,0,0,0,.33.09.34.34,0,0,0,.37-.34c0-.2-.14-.35-.45-.35l-.22,0,.1-.75H122Z"></path><path class="cls-9" d="M123.35,62.12c0,.54-.19.83-.54.83s-.51-.29-.52-.8.23-.82.55-.82S123.35,61.63,123.35,62.12Zm-.85,0c0,.4.13.64.32.64s.32-.26.32-.66-.1-.63-.32-.63S122.5,61.72,122.5,62.15Z"></path><path class="cls-9" d="M124.59,62.12c0,.54-.2.83-.55.83s-.51-.29-.51-.8.22-.82.54-.82S124.59,61.63,124.59,62.12Zm-.85,0c0,.4.12.64.32.64s.31-.26.31-.66-.09-.63-.31-.63S123.74,61.72,123.74,62.15Z"></path><path class="cls-9" d="M125.82,62.12c0,.54-.2.83-.54.83s-.52-.29-.52-.8.23-.82.54-.82S125.82,61.63,125.82,62.12Zm-.85,0c0,.4.13.64.32.64s.32-.26.32-.66-.1-.63-.32-.63S125,61.72,125,62.15Z"></path><path class="cls-9" d="M138.21,108.87c0,.53-.19.83-.54.83s-.51-.29-.52-.81.23-.81.55-.81S138.21,108.37,138.21,108.87Zm-.85,0c0,.41.13.64.32.64s.32-.25.32-.65-.1-.64-.32-.64S137.36,108.47,137.36,108.89Z"></path><path class="cls-9" d="M138.41,109.67v-.13l.16-.16c.4-.38.58-.58.59-.82a.28.28,0,0,0-.31-.31.56.56,0,0,0-.34.14l-.06-.15a.67.67,0,0,1,.44-.16.44.44,0,0,1,.48.45c0,.29-.21.53-.54.84l-.13.12h.71v.17Z"></path><path class="cls-9" d="M132.72,108.87c0,.53-.19.83-.54.83s-.51-.29-.52-.81.23-.81.55-.81S132.72,108.37,132.72,108.87Zm-.84,0c0,.41.12.64.31.64s.32-.25.32-.65-.1-.64-.32-.64S131.88,108.47,131.88,108.89Z"></path><path class="cls-9" d="M133.38,108.3h0l-.27.15,0-.16.34-.18h.18v1.56h-.2Z"></path><path class="cls-9" d="M143.63,108.87c0,.53-.19.83-.54.83s-.51-.29-.52-.81.23-.81.55-.81S143.63,108.37,143.63,108.87Zm-.85,0c0,.41.13.64.32.64s.32-.25.32-.65-.1-.64-.32-.64S142.78,108.47,142.78,108.89Z"></path><path class="cls-9" d="M143.88,109.43a.69.69,0,0,0,.35.1.31.31,0,0,0,.35-.31c0-.22-.2-.31-.41-.31h-.11v-.16h.11c.16,0,.35-.08.35-.26s-.08-.24-.27-.24a.6.6,0,0,0-.31.1l-.06-.15a.74.74,0,0,1,.41-.12c.31,0,.45.18.45.37a.4.4,0,0,1-.29.37h0a.4.4,0,0,1,.35.4c0,.25-.2.47-.57.47a.81.81,0,0,1-.41-.11Z"></path><path class="cls-9" d="M149.2,108.87c0,.53-.2.83-.55.83s-.51-.29-.52-.81.23-.81.55-.81S149.2,108.37,149.2,108.87Zm-.85,0c0,.41.12.64.32.64s.31-.25.31-.65-.09-.64-.31-.64S148.35,108.47,148.35,108.89Z"></path><path class="cls-9" d="M150.05,109.67v-.43h-.73v-.13l.7-1h.23v1h.21v.16h-.21v.43Zm0-.59v-.77h0a2.32,2.32,0,0,1-.14.23l-.38.53h.52Z"></path><path class="cls-9" d="M154.88,108.87c0,.53-.2.83-.55.83s-.51-.29-.52-.81.23-.81.55-.81S154.88,108.37,154.88,108.87Zm-.85,0c0,.41.12.64.32.64s.31-.25.31-.65-.09-.64-.31-.64S154,108.47,154,108.89Z"></path><path class="cls-9" d="M156,108.28h-.59l-.06.41h.13a.6.6,0,0,1,.33.08.46.46,0,0,1,.23.4.55.55,0,0,1-.59.54.76.76,0,0,1-.39-.1l.06-.16a.65.65,0,0,0,.33.09.34.34,0,0,0,.37-.34c0-.21-.13-.35-.45-.35l-.21,0,.1-.75H156Z"></path><path class="cls-9" d="M160.47,108.87c0,.53-.19.83-.54.83s-.51-.29-.52-.81.23-.81.55-.81S160.47,108.37,160.47,108.87Zm-.85,0c0,.41.13.64.32.64s.32-.25.32-.65-.1-.64-.32-.64S159.62,108.47,159.62,108.89Z"></path><path class="cls-9" d="M161.56,108.25l-.16,0a.61.61,0,0,0-.54.55h0a.48.48,0,0,1,.38-.18.47.47,0,0,1,.48.51.53.53,0,0,1-.53.55c-.33,0-.55-.26-.55-.67a.94.94,0,0,1,.27-.7.87.87,0,0,1,.5-.24h.15Zm-.06.91a.32.32,0,0,0-.32-.36.36.36,0,0,0-.31.19.29.29,0,0,0,0,.09c0,.26.12.45.35.45S161.5,109.38,161.5,109.16Z"></path><path class="cls-9" d="M166,108.87c0,.53-.2.83-.54.83s-.52-.29-.52-.81.23-.81.54-.81S166,108.37,166,108.87Zm-.85,0c0,.41.13.64.32.64s.32-.25.32-.65-.1-.64-.32-.64S165.17,108.47,165.17,108.89Z"></path><path class="cls-9" d="M167.23,108.11v.14l-.68,1.42h-.22l.68-1.38h-.76v-.17Z"></path><path class="cls-9" d="M171.67,108.87c0,.53-.2.83-.55.83s-.51-.29-.51-.81.22-.81.54-.81S171.67,108.37,171.67,108.87Zm-.85,0c0,.41.12.64.32.64s.31-.25.31-.65-.09-.64-.31-.64S170.82,108.47,170.82,108.89Z"></path><path class="cls-9" d="M171.84,109.27a.47.47,0,0,1,.31-.42h0a.4.4,0,0,1-.25-.35.44.44,0,0,1,.49-.42.4.4,0,0,1,.45.38.39.39,0,0,1-.26.37h0a.42.42,0,0,1,.32.4.48.48,0,0,1-.53.46A.47.47,0,0,1,171.84,109.27Zm.84,0c0-.19-.13-.28-.34-.34a.34.34,0,0,0-.28.32.29.29,0,0,0,.31.3A.28.28,0,0,0,172.68,109.26Zm-.58-.78c0,.16.12.24.3.29a.31.31,0,0,0,.24-.28.25.25,0,0,0-.27-.26A.25.25,0,0,0,172.1,108.48Z"></path><path class="cls-9" d="M177.24,108.87c0,.53-.19.83-.54.83s-.51-.29-.52-.81.23-.81.55-.81S177.24,108.37,177.24,108.87Zm-.85,0c0,.41.13.64.32.64s.32-.25.32-.65-.1-.64-.32-.64S176.39,108.47,176.39,108.89Z"></path><path class="cls-9" d="M177.56,109.52a.51.51,0,0,0,.17,0,.53.53,0,0,0,.33-.15.7.7,0,0,0,.21-.41h0a.47.47,0,0,1-.37.16.45.45,0,0,1-.46-.48.53.53,0,0,1,.53-.55c.32,0,.52.26.52.66a1,1,0,0,1-.27.73.78.78,0,0,1-.46.21.64.64,0,0,1-.19,0Zm.08-.9a.3.3,0,0,0,.3.33.37.37,0,0,0,.31-.16.15.15,0,0,0,0-.08c0-.27-.1-.47-.32-.47S177.64,108.4,177.64,108.62Z"></path><path class="cls-9" d="M182.14,108.3h0l-.27.15,0-.16.34-.18h.18v1.56h-.21Z"></path><path class="cls-9" d="M184,108.87c0,.53-.2.83-.54.83s-.52-.29-.52-.81.22-.81.54-.81S184,108.37,184,108.87Zm-.85,0c0,.41.13.64.32.64s.32-.25.32-.65-.1-.64-.32-.64S183.11,108.47,183.11,108.89Z"></path><rect class="cls-9" x="127.14" y="102.15" width="1.21" height="0.54"></rect><rect class="cls-9" x="132" y="106.29" width="1.21" height="0.54" transform="translate(26.04 239.17) rotate(-90)"></rect><rect class="cls-9" x="137.58" y="106.29" width="1.21" height="0.54" transform="translate(31.62 244.75) rotate(-90)"></rect><rect class="cls-9" x="143.16" y="106.29" width="1.21" height="0.54" transform="translate(37.21 250.33) rotate(-90)"></rect><rect class="cls-9" x="148.74" y="106.29" width="1.21" height="0.54" transform="translate(42.79 255.91) rotate(-90)"></rect><rect class="cls-9" x="154.33" y="106.29" width="1.21" height="0.54" transform="translate(48.37 261.49) rotate(-90)"></rect><rect class="cls-9" x="159.91" y="106.29" width="1.21" height="0.54" transform="translate(53.95 267.08) rotate(-90)"></rect><rect class="cls-9" x="165.49" y="106.29" width="1.21" height="0.54" transform="translate(59.53 272.66) rotate(-90)"></rect><rect class="cls-9" x="171.07" y="106.29" width="1.21" height="0.54" transform="translate(65.12 278.24) rotate(-90)"></rect><rect class="cls-9" x="176.65" y="106.29" width="1.21" height="0.54" transform="translate(70.7 283.82) rotate(-90)"></rect><rect class="cls-9" x="182.24" y="106.29" width="1.21" height="0.54" transform="translate(76.28 289.41) rotate(-90)"></rect><rect class="cls-9" x="127.14" y="92.13" width="1.21" height="0.54"></rect><rect class="cls-9" x="127.14" y="82.12" width="1.21" height="0.54"></rect><rect class="cls-9" x="127.14" y="72.11" width="1.21" height="0.54"></rect><rect class="cls-9" x="127.14" y="62.09" width="1.21" height="0.54"></rect><rect class="cls-5" x="130.74" y="85.54" width="3.72" height="20.42"></rect><rect class="cls-10" x="136.33" y="76" width="3.72" height="29.95"></rect><rect class="cls-11" x="141.91" y="69.72" width="3.72" height="36.24"></rect><rect class="cls-12" x="147.49" y="88.01" width="3.72" height="17.95"></rect><rect class="cls-3" x="153.07" y="80.27" width="3.72" height="25.69"></rect><rect class="cls-5" x="158.65" y="77.52" width="3.72" height="28.43"></rect><rect class="cls-10" x="164.24" y="72.86" width="3.72" height="33.09"></rect><rect class="cls-11" x="169.82" y="78.49" width="3.72" height="27.46"></rect><rect class="cls-12" x="175.4" y="68.36" width="3.72" height="37.6"></rect><rect class="cls-3" x="180.98" y="62.92" width="3.72" height="43.03"></rect><g class="cls-13"><rect class="cls-14" x="129.21" y="102.15" width="55.5" height="0.54"></rect><rect class="cls-14" x="129.21" y="92.13" width="55.5" height="0.54"></rect><rect class="cls-14" x="129.21" y="82.12" width="55.5" height="0.54"></rect><rect class="cls-14" x="129.21" y="72.11" width="55.5" height="0.54"></rect><rect class="cls-14" x="129.21" y="62.09" width="55.5" height="0.54"></rect></g></g><g class="cls-8"><polygon class="cls-3" points="259.61 105.83 236.05 105.83 247.83 65.57 259.61 105.83"></polygon><polygon class="cls-11" points="247.83 105.83 224.28 105.83 236.05 74.07 247.83 105.83"></polygon><polygon class="cls-9" points="236.05 105.83 212.5 105.83 224.28 82.68 236.05 105.83"></polygon><circle class="cls-9" cx="206.23" cy="82.68" r="4.6"></circle><circle class="cls-11" cx="217.55" cy="74.07" r="4.6"></circle><circle class="cls-3" cx="229.56" cy="65.57" r="4.6"></circle><line class="cls-15" x1="206.23" y1="82.68" x2="222.15" y2="82.68"></line><line class="cls-16" x1="217.55" y1="74.07" x2="234.18" y2="74.07"></line><line class="cls-17" x1="229.56" y1="65.57" x2="246.19" y2="65.57"></line><path class="cls-10" d="M204.45,83.45v.36c0,.28.12.38.32.38s.31-.1.31-.38V83c0-.28-.12-.38-.31-.38s-.32.1-.32.38v.12h-.58l.11-2.26h1.62v.55h-1.07l-.05.93A.59.59,0,0,1,205,82c.45,0,.68.32.68.89v.87a.86.86,0,0,1-.92,1c-.6,0-.91-.36-.91-1v-.32Z"></path><path class="cls-10" d="M206.1,84.7v-.59h.59v.53l-.27.62h-.25l.17-.56Z"></path><path class="cls-10" d="M208.93,80.81v.53L208,84.7h-.61l.9-3.34H207.1v-.55Z"></path><path class="cls-10" d="M215.09,73c0-.66.3-1,.94-1s.91.36.91,1v.1h-.58v-.14c0-.27-.12-.38-.32-.38s-.33.11-.33.48v.71a.57.57,0,0,1,.56-.34c.45,0,.68.31.68.89V75a.93.93,0,1,1-1.86,0Zm.62,1.33v.7c0,.28.12.38.31.38s.32-.1.32-.38v-.7c0-.28-.12-.39-.32-.39S215.71,74.07,215.71,74.35Z"></path><path class="cls-10" d="M217.34,75.94v-.59h.59v.53l-.27.62h-.25l.16-.56Z"></path><path class="cls-10" d="M219.27,72.56c-.2,0-.32.11-.32.38v.42h-.58V73c0-.62.31-1,.91-1a.86.86,0,0,1,.92,1c0,1.23-1.22,1.68-1.22,2.32v.09h1.16v.55h-1.77v-.47c0-1.15,1.21-1.34,1.21-2.46C219.58,72.65,219.46,72.56,219.27,72.56Z"></path><path class="cls-10" d="M228,67.68a.87.87,0,0,1-1-1v-.3a.86.86,0,0,1,.37-.81.82.82,0,0,1-.37-.79v-.12a1,1,0,1,1,1.91,0v.12a.82.82,0,0,1-.38.79.85.85,0,0,1,.38.81v.3A.88.88,0,0,1,228,67.68Zm-.34-2.76c0,.31.14.41.34.41s.35-.1.35-.41V64.7c0-.35-.15-.44-.35-.44s-.34.09-.34.44Zm.34,2.21c.2,0,.34-.1.35-.44v-.36c0-.31-.13-.44-.35-.44s-.34.13-.34.44v.36C227.68,67,227.83,67.13,228,67.13Z"></path><path class="cls-10" d="M229.35,67.64v-.59h.59v.53l-.27.62h-.25l.16-.56Z"></path><path class="cls-10" d="M232.18,66.67c0,.66-.3,1-.94,1s-.91-.35-.91-1v-.1h.58v.14c0,.28.12.39.32.39s.34-.11.34-.48v-.71a.59.59,0,0,1-.57.34c-.45,0-.68-.32-.68-.89v-.71a.93.93,0,1,1,1.86,0Zm-.61-1.33v-.7c0-.28-.12-.38-.32-.38s-.32.1-.32.38v.7c0,.28.13.39.32.39S231.57,65.62,231.57,65.34Z"></path><rect class="cls-9" x="212.5" y="108.11" width="47.11" height="1.1"></rect></g><g class="cls-8"><path class="cls-9" d="M169.92,125.53l-7.22,7.21a9.09,9.09,0,0,0-6-2.86V119.67A19.27,19.27,0,0,1,169.92,125.53Z"></path><path class="cls-12" d="M175.37,139c0,.45,0,.88,0,1.32H165.08a9.54,9.54,0,0,0,.09-1.32,9.11,9.11,0,0,0-1.66-5.26l7.26-7.26A19.28,19.28,0,0,1,175.37,139Z"></path><path class="cls-3" d="M175.2,141.58a19.34,19.34,0,0,1-18.53,16.74H155.4a19.26,19.26,0,0,1-11.88-4.59c-.33-.28-.64-.56-1-.86a19.3,19.3,0,0,1-5.7-11.29l-.13-1.27c0-.44,0-.87,0-1.32a19.33,19.33,0,0,1,18.7-19.32v10.21a9.13,9.13,0,0,0-8.5,9.11,9.54,9.54,0,0,0,.09,1.32,9,9,0,0,0,.28,1.27,9.11,9.11,0,0,0,2.52,4.08,9.7,9.7,0,0,0,1,.81,9.13,9.13,0,0,0,4.62,1.64l.64,0,.63,0a9.15,9.15,0,0,0,8.13-6.53Z"></path><path class="cls-18" d="M136.87,141.58c-.05-.42-.1-.84-.13-1.27Z"></path><path class="cls-18" d="M136.87,141.58c-.05-.42-.1-.84-.13-1.27Z"></path><path class="cls-10" d="M144.75,146.48v.63L143.69,151H143l1.05-3.91H142.6v-.65Z"></path><path class="cls-10" d="M145.23,151v-.69h.69V151l-.32.72h-.29l.19-.65Z"></path><path class="cls-10" d="M147.08,149.57V150c0,.33.15.45.37.45s.37-.12.37-.45v-1c0-.33-.14-.45-.37-.45s-.37.12-.37.45v.14h-.68l.14-2.65h1.88v.65h-1.24l-.06,1.09a.7.7,0,0,1,.63-.33c.52,0,.79.37.79,1v1c0,.73-.36,1.14-1.07,1.14A1,1,0,0,1,146.4,150v-.38Z"></path><path class="cls-10" d="M159.36,124.94a.48.48,0,0,0,.53-.39h.33v3.09h-.49v-2.36h-.37Z"></path><path class="cls-10" d="M161.52,125c-.16,0-.25.08-.25.3v.33h-.46v-.3c0-.49.24-.78.72-.78a.68.68,0,0,1,.73.78c0,1-1,1.34-1,1.85v.06h.92v.44h-1.4v-.38c0-.91,1-1.06,1-2C161.77,125,161.67,125,161.52,125Z"></path><path class="cls-10" d="M162.56,127.64v-.47H163v.42l-.22.5h-.2l.13-.45Z"></path><path class="cls-10" d="M163.82,126.64v.29c0,.22.09.3.25.3s.25-.08.25-.3v-.68c0-.22-.1-.3-.25-.3s-.25.08-.25.3v.09h-.46l.09-1.79h1.28V125h-.85l0,.74a.46.46,0,0,1,.43-.23c.36,0,.54.26.54.71v.69c0,.5-.25.78-.73.78s-.72-.28-.72-.78v-.26Z"></path><path class="cls-10" d="M167,134.14a.48.48,0,0,0,.53-.38h.33v3.09h-.49v-2.36H167Z"></path><path class="cls-10" d="M169.19,134.16c-.16,0-.25.09-.25.31v.33h-.46v-.3c0-.5.24-.78.72-.78s.73.28.73.78c0,1-1,1.33-1,1.84v.07h.92v.44h-1.4v-.38c0-.91,1-1.06,1-1.95C169.44,134.24,169.34,134.16,169.19,134.16Z"></path><path class="cls-10" d="M170.23,136.85v-.47h.47v.42l-.22.49h-.19l.12-.44Z"></path><path class="cls-10" d="M171.49,135.85v.29c0,.22.09.3.25.3s.25-.08.25-.3v-.68c0-.22-.1-.31-.25-.31s-.25.09-.25.31v.09H171l.09-1.79h1.28v.44h-.85l0,.74a.46.46,0,0,1,.43-.23c.36,0,.54.25.54.71v.69a.73.73,0,1,1-1.45,0v-.26Z"></path></g><g class="cls-8"><rect class="cls-9" x="216.13" y="119.72" width="0.4" height="36.06"></rect><rect class="cls-9" x="238.2" y="133.31" width="0.4" height="44.55" transform="translate(393.98 -82.82) rotate(90)"></rect><path class="cls-19" d="M226,153.13h32.69s1.53-33.41-6-33.41C242.72,119.72,249.22,146.63,226,153.13Z"></path><path class="cls-11" d="M226,153.13s4.92-27.7,10.5-27.7c6.9,0,6.21,23.16,22.19,27.7Z"></path><path class="cls-3" d="M219.08,153.13s-.9-19.79,6-19.79,1.6,19.28,22.88,19.79Z"></path><path class="cls-9" d="M211.21,152.07h0l-.21.11,0-.12.27-.14h.14v1.21h-.16Z"></path><path class="cls-9" d="M212.62,152.51c0,.42-.15.65-.42.65s-.4-.23-.41-.63.18-.63.43-.63S212.62,152.12,212.62,152.51Zm-.66,0c0,.32.1.5.25.5s.25-.2.25-.51-.08-.5-.25-.5S212,152.2,212,152.53Z"></path><path class="cls-9" d="M213.58,152.51c0,.42-.15.65-.42.65s-.4-.23-.4-.63.17-.63.42-.63S213.58,152.12,213.58,152.51Zm-.66,0c0,.32.1.5.25.5s.25-.2.25-.51-.08-.5-.25-.5S212.92,152.2,212.92,152.53Z"></path><path class="cls-9" d="M214.55,152.51c0,.42-.16.65-.43.65s-.4-.23-.4-.63.18-.63.42-.63S214.55,152.12,214.55,152.51Zm-.66,0c0,.32.09.5.24.5s.25-.2.25-.51-.07-.5-.25-.5S213.89,152.2,213.89,152.53Z"></path><path class="cls-9" d="M210.85,145.27v-.1l.13-.12c.31-.3.45-.46.45-.64a.22.22,0,0,0-.24-.24.47.47,0,0,0-.26.1l-.05-.11a.52.52,0,0,1,.34-.12.34.34,0,0,1,.38.35c0,.23-.17.41-.42.65l-.1.09h.55v.13Z"></path><path class="cls-9" d="M212.62,144.65c0,.42-.15.65-.42.65s-.4-.23-.41-.63.18-.63.43-.63S212.62,144.26,212.62,144.65Zm-.66,0c0,.32.1.5.25.5s.25-.2.25-.51-.08-.5-.25-.5S212,144.34,212,144.67Z"></path><path class="cls-9" d="M213.58,144.65c0,.42-.15.65-.42.65s-.4-.23-.4-.63.17-.63.42-.63S213.58,144.26,213.58,144.65Zm-.66,0c0,.32.1.5.25.5s.25-.2.25-.51-.08-.5-.25-.5S212.92,144.34,212.92,144.67Z"></path><path class="cls-9" d="M214.55,144.65c0,.42-.16.65-.43.65s-.4-.23-.4-.63.18-.63.42-.63S214.55,144.26,214.55,144.65Zm-.66,0c0,.32.09.5.24.5s.25-.2.25-.51-.07-.5-.25-.5S213.89,144.34,213.89,144.67Z"></path><path class="cls-9" d="M210.89,137.39a.51.51,0,0,0,.27.08c.21,0,.28-.14.27-.24s-.15-.24-.31-.24H211v-.13h.09c.12,0,.27-.06.27-.2a.18.18,0,0,0-.21-.19.57.57,0,0,0-.25.08l0-.11a.55.55,0,0,1,.32-.1c.24,0,.35.14.35.29a.31.31,0,0,1-.23.29h0a.32.32,0,0,1,.27.32c0,.19-.15.36-.44.36a.62.62,0,0,1-.32-.08Z"></path><path class="cls-9" d="M212.62,137c0,.41-.15.64-.42.64s-.4-.22-.41-.62.18-.64.43-.64S212.62,136.57,212.62,137Zm-.66,0c0,.31.1.49.25.49s.25-.19.25-.5-.08-.5-.25-.5S212,136.65,212,137Z"></path><path class="cls-9" d="M213.58,137c0,.41-.15.64-.42.64s-.4-.22-.4-.62.17-.64.42-.64S213.58,136.57,213.58,137Zm-.66,0c0,.31.1.49.25.49s.25-.19.25-.5-.08-.5-.25-.5S212.92,136.65,212.92,137Z"></path><path class="cls-9" d="M214.55,137c0,.41-.16.64-.43.64s-.4-.22-.4-.62.18-.64.42-.64S214.55,136.57,214.55,137Zm-.66,0c0,.31.09.49.24.49s.25-.19.25-.5-.07-.5-.25-.5S213.89,136.65,213.89,137Z"></path><path class="cls-9" d="M211.36,129.77v-.33h-.57v-.11l.55-.78h.17v.76h.17v.13h-.17v.33Zm0-.46v-.6h0l-.1.18-.3.41h.4Z"></path><path class="cls-9" d="M212.62,129.15c0,.41-.15.64-.42.64s-.4-.22-.41-.63.18-.63.43-.63S212.62,128.76,212.62,129.15Zm-.66,0c0,.32.1.5.25.5s.25-.2.25-.51-.08-.49-.25-.49S212,128.83,212,129.16Z"></path><path class="cls-9" d="M213.58,129.15c0,.41-.15.64-.42.64s-.4-.22-.4-.63.17-.63.42-.63S213.58,128.76,213.58,129.15Zm-.66,0c0,.32.1.5.25.5s.25-.2.25-.51-.08-.49-.25-.49S212.92,128.83,212.92,129.16Z"></path><path class="cls-9" d="M214.55,129.15c0,.41-.16.64-.43.64s-.4-.22-.4-.63.18-.63.42-.63S214.55,128.76,214.55,129.15Zm-.66,0c0,.32.09.5.24.5s.25-.2.25-.51-.07-.49-.25-.49S213.89,128.83,213.89,129.16Z"></path><path class="cls-9" d="M211.58,120.73h-.47l-.05.32h.1a.6.6,0,0,1,.27.06.37.37,0,0,1,.17.32.42.42,0,0,1-.45.41.59.59,0,0,1-.31-.07l0-.13a.55.55,0,0,0,.27.07.26.26,0,0,0,.28-.26c0-.16-.1-.27-.35-.27h-.17l.08-.59h.59Z"></path><path class="cls-9" d="M212.62,121.19c0,.41-.15.64-.42.64s-.4-.22-.41-.62.18-.64.43-.64S212.62,120.8,212.62,121.19Zm-.66,0c0,.32.1.5.25.5s.25-.2.25-.51-.08-.5-.25-.5S212,120.88,212,121.21Z"></path><path class="cls-9" d="M213.58,121.19c0,.41-.15.64-.42.64s-.4-.22-.4-.62.17-.64.42-.64S213.58,120.8,213.58,121.19Zm-.66,0c0,.32.1.5.25.5s.25-.2.25-.51-.08-.5-.25-.5S212.92,120.88,212.92,121.21Z"></path><path class="cls-9" d="M214.55,121.19c0,.41-.16.64-.43.64s-.4-.22-.4-.62.18-.64.42-.64S214.55,120.8,214.55,121.19Zm-.66,0c0,.32.09.5.24.5s.25-.2.25-.51-.07-.5-.25-.5S213.89,120.88,213.89,121.21Z"></path><path class="cls-9" d="M224.21,157.66c0,.41-.15.64-.42.64s-.4-.22-.4-.62.17-.64.42-.64S224.21,157.27,224.21,157.66Zm-.66,0c0,.31.1.49.25.49s.25-.19.25-.5-.08-.5-.25-.5S223.55,157.35,223.55,157.68Z"></path><path class="cls-9" d="M224.37,158.28v-.1l.13-.12c.31-.3.45-.46.45-.64a.22.22,0,0,0-.24-.24.41.41,0,0,0-.26.1l0-.11a.48.48,0,0,1,.34-.13.34.34,0,0,1,.37.35c0,.23-.16.41-.42.66l-.09.09h.54v.14Z"></path><path class="cls-9" d="M219.93,157.66c0,.41-.15.64-.42.64s-.4-.22-.41-.62.18-.64.43-.64S219.93,157.27,219.93,157.66Zm-.66,0c0,.31.1.49.25.49s.25-.19.25-.5-.08-.5-.25-.5S219.27,157.35,219.27,157.68Z"></path><path class="cls-9" d="M220.44,157.22h0l-.21.11,0-.13.26-.14h.14v1.22h-.16Z"></path><path class="cls-9" d="M228.44,157.66c0,.41-.15.64-.42.64s-.4-.22-.41-.62.18-.64.43-.64S228.44,157.27,228.44,157.66Zm-.66,0c0,.31.1.49.25.49s.25-.19.25-.5-.08-.5-.25-.5S227.78,157.35,227.78,157.68Z"></path><path class="cls-9" d="M228.63,158.09a.58.58,0,0,0,.27.08c.22,0,.28-.14.28-.24s-.16-.24-.32-.24h-.09v-.13h.09c.12,0,.28-.06.28-.2a.19.19,0,0,0-.22-.19.52.52,0,0,0-.24.08l-.05-.11a.58.58,0,0,1,.32-.1c.25,0,.35.14.35.29a.29.29,0,0,1-.22.29h0a.32.32,0,0,1,.27.32c0,.19-.15.36-.44.36a.62.62,0,0,1-.32-.08Z"></path><path class="cls-9" d="M232.78,157.66c0,.41-.15.64-.42.64s-.4-.22-.41-.62.18-.64.43-.64S232.78,157.27,232.78,157.66Zm-.66,0c0,.31.1.49.25.49s.25-.19.25-.5-.08-.5-.25-.5S232.12,157.35,232.12,157.68Z"></path><path class="cls-9" d="M233.44,158.28V158h-.56v-.11l.54-.78h.18v.76h.17V158h-.17v.33Zm0-.46v-.41c0-.06,0-.12,0-.19h0a.77.77,0,0,1-.1.18l-.29.42h.39Z"></path><path class="cls-9" d="M237.21,157.66c0,.41-.15.64-.42.64s-.4-.22-.4-.62.17-.64.42-.64S237.21,157.27,237.21,157.66Zm-.66,0c0,.31.1.49.25.49s.25-.19.25-.5-.08-.5-.25-.5S236.55,157.35,236.55,157.68Z"></path><path class="cls-9" d="M238.09,157.2h-.46l0,.31h.1a.53.53,0,0,1,.26.06.35.35,0,0,1,.18.32.43.43,0,0,1-.46.41.69.69,0,0,1-.3-.07l0-.13a.54.54,0,0,0,.26.07.27.27,0,0,0,.29-.27c0-.15-.11-.27-.35-.27l-.17,0,.08-.59h.58Z"></path><path class="cls-9" d="M241.58,157.66c0,.41-.16.64-.42.64s-.4-.22-.41-.62.18-.64.43-.64S241.58,157.27,241.58,157.66Zm-.66,0c0,.31.1.49.24.49s.25-.19.25-.5-.07-.5-.24-.5S240.92,157.35,240.92,157.68Z"></path><path class="cls-9" d="M242.43,157.18h-.13a.49.49,0,0,0-.42.43h0a.36.36,0,0,1,.3-.14.36.36,0,0,1,.37.39.4.4,0,0,1-.41.43c-.26,0-.43-.2-.43-.52a.77.77,0,0,1,.21-.55.65.65,0,0,1,.39-.18h.12Zm-.05.7a.25.25,0,0,0-.25-.28.28.28,0,0,0-.24.15.14.14,0,0,0,0,.07c0,.21.1.35.27.35S242.38,158.06,242.38,157.88Z"></path><path class="cls-9" d="M245.91,157.66c0,.41-.16.64-.43.64s-.4-.22-.4-.62.18-.64.42-.64S245.91,157.27,245.91,157.66Zm-.66,0c0,.31.09.49.24.49s.25-.19.25-.5-.07-.5-.25-.5S245.25,157.35,245.25,157.68Z"></path><path class="cls-9" d="M246.85,157.06v.11l-.53,1.11h-.17l.53-1.08h-.6v-.14Z"></path><path class="cls-9" d="M250.31,157.66c0,.41-.15.64-.42.64s-.4-.22-.41-.62.18-.64.43-.64S250.31,157.27,250.31,157.66Zm-.66,0c0,.31.1.49.25.49s.25-.19.25-.5-.08-.5-.25-.5S249.65,157.35,249.65,157.68Z"></path><path class="cls-9" d="M250.45,158a.36.36,0,0,1,.24-.33h0a.3.3,0,0,1-.2-.27.35.35,0,0,1,.38-.33.31.31,0,0,1,.16.59h0a.34.34,0,0,1,.24.32.37.37,0,0,1-.41.35C250.6,158.3,250.45,158.15,250.45,158Zm.66,0c0-.14-.11-.22-.27-.26a.26.26,0,0,0-.22.25.25.25,0,0,0,.49,0Zm-.46-.61c0,.13.09.19.23.23a.24.24,0,0,0,.19-.22.19.19,0,0,0-.21-.2A.2.2,0,0,0,250.65,157.35Z"></path><path class="cls-9" d="M254.66,157.66c0,.41-.15.64-.42.64s-.4-.22-.41-.62.18-.64.43-.64S254.66,157.27,254.66,157.66Zm-.66,0c0,.31.1.49.25.49s.25-.19.25-.5-.08-.5-.25-.5S254,157.35,254,157.68Z"></path><path class="cls-9" d="M254.91,158.16H255a.42.42,0,0,0,.26-.12.52.52,0,0,0,.16-.32h0a.34.34,0,0,1-.28.13.36.36,0,0,1-.36-.38.41.41,0,0,1,.41-.43c.25,0,.41.2.41.52a.75.75,0,0,1-.22.57.57.57,0,0,1-.35.16h-.15Zm.06-.7a.23.23,0,0,0,.23.26.26.26,0,0,0,.24-.13.08.08,0,0,0,0-.06c0-.2-.08-.36-.25-.36A.26.26,0,0,0,255,157.46Z"></path><path class="cls-9" d="M258.49,157.22h0l-.21.11,0-.13.26-.14h.14v1.22h-.15Z"></path><path class="cls-9" d="M259.9,157.66c0,.41-.15.64-.42.64s-.4-.22-.41-.62.18-.64.43-.64S259.9,157.27,259.9,157.66Zm-.66,0c0,.31.1.49.25.49s.24-.19.24-.5-.07-.5-.24-.5S259.24,157.35,259.24,157.68Z"></path><rect class="cls-9" x="215.58" y="152.41" width="0.95" height="0.42"></rect><rect class="cls-9" x="219.37" y="155.65" width="0.95" height="0.42" transform="translate(63.98 375.7) rotate(-90)"></rect><rect class="cls-9" x="223.72" y="155.65" width="0.95" height="0.42" transform="translate(68.34 380.05) rotate(-90)"></rect><rect class="cls-9" x="228.08" y="155.65" width="0.95" height="0.42" transform="translate(72.69 384.4) rotate(-90)"></rect><rect class="cls-9" x="232.43" y="155.65" width="0.95" height="0.42" transform="translate(77.05 388.76) rotate(-90)"></rect><rect class="cls-9" x="236.78" y="155.65" width="0.95" height="0.42" transform="translate(81.4 393.11) rotate(-90)"></rect><rect class="cls-9" x="241.14" y="155.65" width="0.95" height="0.42" transform="translate(85.76 397.47) rotate(-90)"></rect><rect class="cls-9" x="245.49" y="155.65" width="0.95" height="0.42" transform="translate(90.11 401.82) rotate(-90)"></rect><rect class="cls-9" x="249.85" y="155.65" width="0.95" height="0.42" transform="translate(94.47 406.18) rotate(-90)"></rect><rect class="cls-9" x="254.2" y="155.65" width="0.95" height="0.42" transform="translate(98.82 410.53) rotate(-90)"></rect><rect class="cls-9" x="258.56" y="155.65" width="0.95" height="0.42" transform="translate(103.17 414.89) rotate(-90)"></rect><rect class="cls-9" x="215.58" y="144.6" width="0.95" height="0.42"></rect><rect class="cls-9" x="215.58" y="136.79" width="0.95" height="0.42"></rect><rect class="cls-9" x="215.58" y="128.98" width="0.95" height="0.42"></rect><rect class="cls-9" x="215.58" y="121.16" width="0.95" height="0.42"></rect></g><polygon class="cls-2" points="297.57 16.7 299.7 22.54 320.32 15.01 235.25 99.73 168.98 33.15 168.65 41.95 234.9 108.52 325.88 18.22 321.07 39.03 327.12 40.47 335.91 2.7 297.57 16.7"></polygon><polygon class="cls-3" points="297.57 14 299.7 19.84 320.32 12.31 235.25 97.03 168.98 30.45 168.65 39.25 234.9 105.82 325.88 15.52 321.07 36.33 327.12 37.77 335.91 0 297.57 14"></polygon><polygon class="cls-10" points="215.34 212.33 214.95 226.45 205.5 226.45 205.5 224.94 209.26 222.53 208.8 212.33 215.34 212.33"></polygon><polygon class="cls-10" points="249.8 219.76 249.39 220.1 240.53 223.96 240.06 222.86 241.62 218.9 237.2 210.01 243.58 207.23 249.8 219.76"></polygon><path class="cls-20" d="M198.2,97.44s-.39,8.49,7,13.2a5.46,5.46,0,0,0,2.53-1.64s2.92,2,3.78,4a6.14,6.14,0,0,0,5.8-4.24l-3.28-5.1-5.95-7.82-4.43-1.79Z"></path><path class="cls-5" d="M204.05,96.79s-14.67,6.33-5.64-3.18,11.6-.73,11.6-.73,5.45-.4,4.06,10.79C214.07,103.67,206.68,101.73,204.05,96.79Z"></path><ellipse class="cls-20" cx="207.99" cy="99.99" rx="1.65" ry="2.47"></ellipse><polygon class="cls-20" points="205.5 226.45 214.95 226.45 214.93 227.34 199.03 229.37 205.5 224.94 205.5 226.45"></polygon><path class="cls-20" d="M236.48,192.93l7.1,14.3L237.2,210l-7.38-14.84-10.42-32.7-3.49,29.27-.57,20.59H208.8L208,188.68l2.18-42.15-5.25-21.82-4.26,19.8-17.34,8.6s-6.13,6-9.16,3.83-.46-7.58,6.79-8.31l15-8.37s3.36-20.5,5.47-22.41,9.93-5.26,9.93-5.26l6-3.82s5.22,2,11.22,3.67L246.5,132l1.91,22.68a17.66,17.66,0,0,1,1.31,4.26,15.76,15.76,0,0,0-3.37.54,10.43,10.43,0,0,0-4.62,2.39c-.39-2.6,1.14-7.26,1.14-7.26L240.5,134l-11.8-10.48s.13,20.56,1.58,24.39S236.48,192.93,236.48,192.93Z"></path><path class="cls-20" d="M249.8,160.2a2.8,2.8,0,0,1-.53,1.68c-1.58,1.91-5,3-6.86,1.45a1.07,1.07,0,0,1-.19-.18,8.77,8.77,0,0,1,4.44-2.46A14.36,14.36,0,0,1,249.8,160.2Z"></path><polygon class="cls-20" points="240.53 223.96 249.39 220.1 237.14 230.24 240.06 222.86 240.53 223.96"></polygon><path class="cls-21" d="M208.72,150.75s10.48.93,24.48-3.08l4.25,42.83,11,24.57s-5,3.27-8.88,3.64l-11.45-25.64-8.36-27.68-2.23,28-.69,30.05-8.8-1.38-.26-31.54Z"></path><path class="cls-20" d="M249.8,160.2a14.36,14.36,0,0,0-3.14.49,8.77,8.77,0,0,0-4.44,2.46,2.63,2.63,0,0,1-.49-1.26,10.43,10.43,0,0,1,4.62-2.39,15.76,15.76,0,0,1,3.37-.54A7.59,7.59,0,0,1,249.8,160.2Z"></path><path d="M241.73,161.89a2.63,2.63,0,0,0,.49,1.26,5.87,5.87,0,0,0-1,1.53,5.48,5.48,0,0,0-.45,2.6l-1.22.18a6.59,6.59,0,0,1,.54-3.28A7,7,0,0,1,241.73,161.89Z"></path><path d="M256.19,162.66,255,163a3.6,3.6,0,0,0-1.68-2,6.33,6.33,0,0,0-3.5-.74,7.59,7.59,0,0,0-.08-1.24,7.54,7.54,0,0,1,4.24.94A4.85,4.85,0,0,1,256.19,162.66Z"></path><path class="cls-5" d="M269.55,184.39l-31,8.6a3.4,3.4,0,0,1-4.16-2.36l-4.66-16.81-.4-1.45a3.4,3.4,0,0,1,2.36-4.16l31-8.59a3.39,3.39,0,0,1,4.16,2.35l.43,1.55,4.62,16.71A3.39,3.39,0,0,1,269.55,184.39Z"></path><path class="cls-3" d="M267.28,163.52c-2.94,4-8.84,11-15.9,13.09s-16.63-.84-21.69-2.79l-.4-1.45a3.4,3.4,0,0,1,2.36-4.16l31-8.59a3.39,3.39,0,0,1,4.16,2.35Z"></path><path class="cls-22" d="M251.29,178.83a.86.86,0,0,1-.82-.62l-.68-2.33a.86.86,0,0,1,.58-1.06l1.59-.46a.87.87,0,0,1,.65.08.84.84,0,0,1,.41.51l.67,2.32a.82.82,0,0,1-.07.65.84.84,0,0,1-.51.41l-1.58.46A.67.67,0,0,1,251.29,178.83Zm.91-4-.1,0-1.59.46a.35.35,0,0,0-.24.44l.67,2.33a.37.37,0,0,0,.45.25l1.58-.46a.36.36,0,0,0,.22-.18.32.32,0,0,0,0-.27l-.68-2.33a.32.32,0,0,0-.17-.21A.34.34,0,0,0,252.2,174.82Z"></path><path class="cls-23" d="M211.34,112.59s-1,5.25,7.73-3.18l9,3.18s.25,26.89,4.09,34.26c0,0-11.83,5-23.41,3.9l-2.91-30.16,2.78-5.57Z"></path><path class="cls-10" d="M217.35,108.19s-3.69,5.65-5.17,6l3,2.23,3.84-7Z"></path><polygon class="cls-5" points="212.18 114.14 214.48 115.83 213.56 118.05 211.75 118.05 210.85 116.38 212.18 114.14"></polygon><path class="cls-5" d="M213.56,118.05s1.65,17.87,3.79,22.88l-1.9,4.88-2.78-4.48s.18-18.22-.92-23.28Z"></path><path class="cls-10" d="M212.18,114.14l-1.53,2.61s-.73-1.47.66-4.22A1.37,1.37,0,0,0,212.18,114.14Z"></path><polygon class="cls-10" points="242.55 153.27 242.55 154.66 248.71 154.48 248.71 152.46 242.55 153.27"></polygon><path class="cls-5" d="M219.07,109.41a40.69,40.69,0,0,0-.69,23.93c3.67,13,1,29.47,1,29.47s12.93-.26,17.11-3.41a32.75,32.75,0,0,0-2.7-16c-3.67-7.66-3.6-17.63-3.6-17.63l9.78,9.52,2.38,19,7.14-.32s.38-19-1.74-21.94-15.05-19.3-16.79-20.07S219.07,109.41,219.07,109.41Z"></path><polygon class="cls-10" points="180.92 148.28 183.34 153.54 185 152.79 181.98 147.67 180.92 148.28"></polygon><path class="cls-5" d="M211.34,112.59a29.2,29.2,0,0,0-1,17.54c2.38,10.18,2.14,19,.67,31.87,0,0-5,.32-5.6-1.11,0,0,4.74-4.4,0-31.47,0,0-2.24,14-3.51,15.38s-17.76,9.34-17.76,9.34l-2.94-6.28L195,140.13a1.16,1.16,0,0,0,.57-.78c.68-3.21,4.3-20.26,5.34-21.52S211.34,112.59,211.34,112.59Z"></path><path class="cls-5" d="M241.26,218.87a14.36,14.36,0,0,0,7.23-2.31l1.63,3.06s-8.61,11.12-14.44,11.78c0,0-1.76-.21,0-2.07A28.31,28.31,0,0,0,241.26,218.87Z"></path><path class="cls-5" d="M208.87,222.77s4.42,1.63,6.44,1.21l-.21,5.85a128,128,0,0,0-16.56.37s-2-.27,1.61-2.06A89.29,89.29,0,0,0,208.87,222.77Z"></path><path class="cls-5" d="M156.14,224.15c-2.3.53-4.26,1.15-6.51.88.05,1.21.1,2.42.13,3.62,3.76,1.19,6.48-.65,16.16.9.62-.92.05-2.05-2.06-2.39A17,17,0,0,1,156.14,224.15Z"></path><path class="cls-5" d="M143.5,222.36a16.6,16.6,0,0,1-7.61.12c-.19,1.13-.38,2.26-.59,3.38a21.16,21.16,0,0,0,14.93,3.2c.35-1.1,1.17-.87-1-2.13S145,225.19,143.5,222.36Z"></path><path class="cls-24" d="M156,97.13a14.59,14.59,0,0,1,2.71,14.61,5.42,5.42,0,0,1-3.19.08c-.86,1.69-2.33,2.93-3.21,4.59-2.24.75-4.2-.34-5.91-1.66.5-1.71,1-1.86,1-4s0-6.16-.18-8.67c.77-1.44,1.54-2.76,2.31-4.15Z"></path><path class="cls-24" d="M144.57,214.88c.34-7.76,2.19-8.34,2-17.42s-1.86-21.48,1.56-31.6a197.53,197.53,0,0,1,2,27.76c-.09,8.25,0,13.3.25,21a23.87,23.87,0,0,1,6.42.34c.75-9.19-.63-13.92,1-24s-.2-31-.8-40.73,2.48-14.06,1-22.38c4.54,10.4.16,12.2-2.39,21.28a111.62,111.62,0,0,0,11.91,15.3c3.47,3.6,2.67,7.81,7.78,7.17s0-9.11-3.47-9.91c-3.9-4.81-7.09-8.68-10.08-14.6,0-7.73,3.43-20-.79-25.5s-5.24-3.68-8.29-5.45-3.55-.15-6.31-1.44c-2.81,1.74-5.73,2.93-8.57,4.77-4.36,11.49-3.71,20.62,5,30.18,8.77,3.85,18.36,6,27.87,7.21,2.21.82,6.11,2.58,8.17,1.13s3.27-4.6,1.42-6.66-6.79-.4-9.27,0a110.85,110.85,0,0,1-25.29-6.87c-4.21-5.19-6.54-9.27-3.42-16.57-.24,8.59.3,14.86-4.1,25.61s-1.14,31.24,1.7,44.3c-1,6.47-1.31,10.64-2.26,16.3C140,214.33,142.14,214.05,144.57,214.88Z"></path><path class="cls-25" d="M158.52,153.92c-7.48.41-15.25-.9-22.63-2-3.09,18,1.93,32.58,2,44.31.06,8.93-1.52,17.79-2.46,26.68a25.19,25.19,0,0,0,9.57.55c.57-9,2.95-18.63,2.4-27.66s.53-27.49.53-27.49c.83,9.43.24,18,.51,27.45s0,19.95.18,29.61c2.87-.12,5.83-.89,8.74-.78.3-11.28-.24-20.18,1.07-32S159,166.44,158.52,153.92Z"></path><path class="cls-23" d="M152.53,116c-.3,4.57-5.61.21-7.58-.64a39.88,39.88,0,0,0-6.67,4.09c5.1,11.5,5.31,20-1.21,31.6,7,1.79,14.24,3.41,21.45,2.76.73-10.09-1.19-20-2-30-.74-2-1.41-4-2.21-6C153.75,117.09,152.48,116.83,152.53,116Z"></path><path class="cls-10" d="M146.21,114.34a58.71,58.71,0,0,0,5.63,3.26c-.71.84-1.46,1.66-2.15,2.51a26.48,26.48,0,0,0-4.74-4.78C145.34,115,145.79,114.67,146.21,114.34Z"></path><path class="cls-5" d="M151.84,117.6c-.54.65-1.1,1.28-1.65,1.92.31.6.57,1.22.82,1.85.41-.08.82-.13,1.23-.19.19-.59.38-1.18.58-1.77C152.52,118.8,152.18,118.2,151.84,117.6Z"></path><path class="cls-5" d="M151,121.37c.06,6.76-.43,16.27-.43,22.45,0,1.73,1.18,3.25,1.65,4.91.83-1.5,1.53-3.08,2.24-4.65-1-7.19-2.67-15.71-2.23-22.9C151.83,121.24,151.42,121.29,151,121.37Z"></path><path class="cls-10" d="M151.84,117.6a22.08,22.08,0,0,1,1.12,2.16,7.2,7.2,0,0,0-.4-3.84A2.17,2.17,0,0,1,151.84,117.6Z"></path><path class="cls-10" d="M169.26,150.85,171,151c-.3,2-.48,4.07-.72,6.11-.89-.06-1.79-.15-2.68-.23C168.22,154.87,168.75,152.86,169.26,150.85Z"></path><path class="cls-11" d="M145.09,115.07c4.43,6.07,5.24,13.8,4.34,21.56s-3.06,21-1.23,29.18c-5.21-.28-15.94-1.63-16-2.31-.34-4.53.8-5.93,3.35-15.35.95-3.51,6.08-16.19,5.55-18.92,1,5.18,3.56,12.16,6.54,15.27a115.74,115.74,0,0,0,22.88,6.22c-.35,2.33-.63,4.74-1,7-8.12-.53-20.37-1.79-26.95-6.93s-13-24.85-7.55-30.51S140.19,118.3,145.09,115.07Z"></path><path class="cls-10" d="M172,161.23l-4.29,3.9c-.47-.44-.93-.88-1.37-1.34l4.88-3.5Z"></path><path class="cls-11" d="M152.53,116c1.17,7.53,2.36,9.4,2.09,17.7A250.15,250.15,0,0,0,156,165.42c1.81.62,4.2.59,5.59-.75-2.06-1.51-4.7-30-3.19-31.92-1.21,1.5-4.51,10.15-3.86,15.75s8.65,12.77,12,16.91c1.92-1.59,3.52-3.11,5.3-4.66-3.44-4.05-6.86-8.3-9-13.11-.19-.41-.2-.48-.14-1.27.48-5.93,2.54-20.94-1.38-25.11C155.74,115.33,156.11,118.64,152.53,116Z"></path><path class="cls-5" d="M146.62,108.19s-4.6,0-2.71-6.78c0,0-2.19-4.79,2.71-4.7,0,0-.63-2.4,4.18-2.55,0,0,7.19-.4,7.32,0,1,3.18,0,2.35-1,4.4,0,0-4.32-1.4-6.31-.08s1,3,.17,4.7S151.17,108.16,146.62,108.19Z"></path><path class="cls-24" d="M148.75,106c.64.74,1.86,1.62,2.81.93s.34-2.06-.29-2.82-1.88-1.61-2.81-.88S148.1,105.28,148.75,106Z"></path><path class="cls-5" d="M61.13,156.81H99.54a21.91,21.91,0,0,1,21.91,21.91V182a21.91,21.91,0,0,1-21.91,21.91H61.13a0,0,0,0,1,0,0V156.81a0,0,0,0,1,0,0Z"></path><path class="cls-5" d="M61.4,157.42H99.27a21.4,21.4,0,0,1,21.4,21.4V182a21.4,21.4,0,0,1-21.4,21.4H61.4a0,0,0,0,1,0,0v-46A0,0,0,0,1,61.4,157.42Z"></path><g id="Gold_coins" data-name="Gold coins"><path class="cls-26" d="M80.33,153.65a9.29,9.29,0,0,1-4.9,12.2,9.55,9.55,0,0,1-1.67.54,9,9,0,0,1-2.58.19c-.22,0-.43,0-.64-.06a9.36,9.36,0,0,1-4.77-2.12,9.31,9.31,0,0,1,2.36-15.65A9.26,9.26,0,0,1,76,149l.56.31a9.5,9.5,0,0,1,2,1.64A9.16,9.16,0,0,1,80.33,153.65Z"></path><circle class="cls-27" cx="71.78" cy="157.3" r="7.33"></circle><circle class="cls-28" cx="71.68" cy="157.55" r="7.33"></circle><path class="cls-29" d="M76,149l-.6,1.91-.08.26-4.21,13.4-.08.25-.52,1.67a9.36,9.36,0,0,1-4.77-2.12l.58-1.83.08-.26,3.75-11.94.07-.24.66-2.09A9.3,9.3,0,0,1,76,149Z"></path><path class="cls-29" d="M78.6,151l-.71,2.26-.09.27-3.32,10.61-.08.23-.64,2a9,9,0,0,1-2.58.19l.53-1.7.08-.25,4.11-13.08.08-.26.61-1.95A9.5,9.5,0,0,1,78.6,151Z"></path><path class="cls-30" d="M73.35,163l-.52-1.21a5.67,5.67,0,0,1-2.39.37l-.25-1.65a5,5,0,0,0,2.35-.34c.72-.31,1.1-.81.88-1.31s-.74-.61-1.82-.53c-1.56.13-2.76-.12-3.28-1.35a2.54,2.54,0,0,1,1.18-3.18L69,152.56l1.25-.53.48,1.12a4.89,4.89,0,0,1,2-.37l.23,1.6a4.38,4.38,0,0,0-2,.34c-.82.35-.94.83-.79,1.18s.74.5,2,.44c1.74-.11,2.65.33,3.14,1.48A2.63,2.63,0,0,1,74,161.13l.56,1.3Z"></path></g><g id="Gold_coins-2" data-name="Gold coins"><path class="cls-26" d="M110,158.21a9.31,9.31,0,0,1-4.91,12.21,9.22,9.22,0,0,1-4.25.72l-.64-.06A9.4,9.4,0,0,1,95.43,169a9.3,9.3,0,0,1,10.25-15.38c.19.1.38.2.56.31a9,9,0,0,1,2,1.64A9.4,9.4,0,0,1,110,158.21Z"></path><circle class="cls-27" cx="101.43" cy="161.86" r="7.33"></circle><circle class="cls-28" cx="101.34" cy="162.11" r="7.33"></circle><path class="cls-29" d="M105.68,153.59l-.6,1.92-.08.25-4.21,13.41-.07.24-.53,1.67A9.4,9.4,0,0,1,95.43,169l.57-1.83.08-.26,3.75-11.95.08-.24.65-2.09A9.29,9.29,0,0,1,105.68,153.59Z"></path><path class="cls-29" d="M108.25,155.54l-.71,2.27-.08.26-3.33,10.61-.07.23-.64,2a9.06,9.06,0,0,1-2.59.19l.54-1.7.07-.25,4.11-13.08.08-.26.61-1.95A9,9,0,0,1,108.25,155.54Z"></path><path class="cls-30" d="M103,167.53l-.51-1.21a5.56,5.56,0,0,1-2.4.37l-.25-1.64a5.1,5.1,0,0,0,2.35-.35c.73-.31,1.1-.81.89-1.31s-.75-.61-1.83-.52c-1.55.12-2.75-.13-3.28-1.35a2.55,2.55,0,0,1,1.19-3.19l-.52-1.21,1.25-.53.48,1.12a5.09,5.09,0,0,1,2-.37l.23,1.6a4.38,4.38,0,0,0-2,.34c-.82.35-.93.83-.78,1.19s.73.5,2,.43c1.75-.11,2.65.33,3.14,1.49a2.63,2.63,0,0,1-1.25,3.3l.55,1.31Z"></path></g><g id="Gold_coins-3" data-name="Gold coins"><path class="cls-26" d="M93.93,163.13a9.29,9.29,0,0,1-13.05,1.63,9,9,0,0,1-1.27-1.19,9.43,9.43,0,0,1-1.42-2.17,6.21,6.21,0,0,1-.26-.59A9.3,9.3,0,0,1,92.3,150.08a9.48,9.48,0,0,1,2,2.09,9.25,9.25,0,0,1,1.61,5c0,.22,0,.43,0,.65a9.19,9.19,0,0,1-1.95,5.36Z"></path><circle class="cls-27" cx="86.59" cy="157.42" r="7.33"></circle><circle class="cls-28" cx="86.33" cy="157.46" r="7.33"></circle><path class="cls-29" d="M95.88,157.12l-2,.41-.26.05L79.9,160.41l-.25.05-1.72.35a9.38,9.38,0,0,1-.46-5.19l1.88-.39.26,0,12.27-2.52.24,0,2.15-.44A9.25,9.25,0,0,1,95.88,157.12Z"></path><path class="cls-29" d="M95.43,160.32l-2.33.47-.27.06-10.89,2.24-.24,0-2.09.43a9.43,9.43,0,0,1-1.42-2.17l1.75-.36.25,0,13.43-2.76.26,0,2-.41A9.06,9.06,0,0,1,95.43,160.32Z"></path><path class="cls-30" d="M82.4,161.54l.81-1a5.51,5.51,0,0,1-1.49-1.91l1.31-1a5.06,5.06,0,0,0,1.45,1.89c.62.49,1.24.57,1.57.14s.18-.94-.42-1.85c-.86-1.3-1.23-2.47-.41-3.52a2.54,2.54,0,0,1,3.36-.51l.8-1,1.08.84-.75,1a4.94,4.94,0,0,1,1.3,1.59l-1.29,1a4.45,4.45,0,0,0-1.27-1.6c-.7-.55-1.18-.41-1.41-.11s-.08.89.58,1.95c.94,1.47,1,2.47.22,3.46a2.62,2.62,0,0,1-3.5.51l-.87,1.12Z"></path></g><path class="cls-6" d="M119.58,160v43.38a1.66,1.66,0,0,1-1.65,1.66H59.79v-46.7h58.14A1.66,1.66,0,0,1,119.58,160Z"></path><path class="cls-31" d="M59.79,158.33a4.9,4.9,0,0,1,.48-.82,1.68,1.68,0,0,1,.86-.7h1.42a3.22,3.22,0,0,0-.83.74,3.52,3.52,0,0,0-.32.78Z"></path><path class="cls-5" d="M60.4,159.21v.24h1.21v-.24Zm2.42,0v.24H64v-.24Zm2.42,0v.24h1.21v-.24Zm2.42,0v.24h1.22v-.24Zm2.43,0v.24H71.3v-.24Zm2.42,0v.24h1.21v-.24Zm2.42,0v.24h1.21v-.24Zm2.42,0v.24h1.21v-.24Zm2.42,0v.24H81v-.24Zm2.42,0v.24h1.22v-.24Zm2.43,0v.24h1.21v-.24Zm2.42,0v.24h1.21v-.24Zm2.42,0v.24h1.21v-.24Zm2.42,0v.24h1.21v-.24Zm2.42,0v.24h1.21v-.24Zm2.43,0v.24h1.21v-.24Zm2.42,0v.24h1.21v-.24Zm2.42,0v.24h1.21v-.24Zm2.42,0v.24h1.21v-.24Zm2.42,0v.24h1.21v-.24Zm2.42,0v.24H110v-.24Zm2.43,0v.24h1.21v-.24Zm2.42,0v.24h1.21v-.24Zm3.61,0H116.1v.24h1.18l.06-.24Zm1.49,1.59a3.13,3.13,0,0,0-.33-1l-.21.13a2.69,2.69,0,0,1,.3.85v.24h.24v-.26Zm-.24,1.48v1.21h.24v-1.21Zm0,2.42v1.21h.24V164.7Zm0,2.42v1.21h.24v-1.21Zm0,2.42v1.21h.24v-1.21Zm0,2.42v1.21h.24V172Zm0,2.43v1.21h.24v-1.21Zm0,2.42V178h.24v-1.21Zm0,2.42v1.21h.24v-1.21Zm0,2.42v1.21h.24v-1.21Zm0,2.42v1.21h.24v-1.21Zm0,2.42v1.22h.24v-1.22Zm0,2.43v1.21h.24v-1.21Zm0,2.42v1.21h.24v-1.21Zm0,2.42V195h.24v-1.21Zm0,2.42v1.21h.24v-1.21Zm0,2.42v1.21h.24V198.6Zm0,2.42v1.2l.24,0V201Zm-.39,2.27-.06.07a3.05,3.05,0,0,1-.89.56l.1.23a3.75,3.75,0,0,0,1-.62l.08-.09Zm-58.36.65v.24h.55v-.24Zm1.76,0v.24h1.21v-.24Zm2.42,0v.24h1.22v-.24Zm2.43,0v.24h1.21v-.24Zm2.42,0v.24H70v-.24Zm2.42,0v.24h1.21v-.24Zm2.42,0v.24h1.21v-.24Zm2.42,0v.24h1.21v-.24Zm2.42,0v.24h1.22v-.24Zm2.43,0v.24h1.21v-.24Zm2.42,0v.24h1.21v-.24Zm2.42,0v.24H87v-.24Zm2.42,0v.24H89.4v-.24Zm2.42,0v.24h1.21v-.24Zm2.43,0v.24h1.21v-.24Zm2.42,0v.24h1.21v-.24Zm2.42,0v.24h1.21v-.24Zm2.42,0v.24h1.21v-.24Zm2.42,0v.24h1.21v-.24Zm2.42,0v.24h1.21v-.24Zm2.43,0v.24h1.21v-.24Zm2.42,0v.24h1.21v-.24Zm2.42,0v.24h1.21v-.24Zm2.42,0v.24H116v-.24Z"></path><path class="cls-32" d="M103.11,176.61h18.33a0,0,0,0,1,0,0v8.15a0,0,0,0,1,0,0H103.11A3.79,3.79,0,0,1,99.32,181v-.57A3.79,3.79,0,0,1,103.11,176.61Z"></path><path class="cls-5" d="M103.31,176.41h18.14a0,0,0,0,1,0,0v8.06a0,0,0,0,1,0,0H103.31a3.75,3.75,0,0,1-3.75-3.75v-.56a3.75,3.75,0,0,1,3.75-3.75Z"></path><circle class="cls-33" cx="103.9" cy="180.2" r="1.92"></circle><ellipse class="cls-10" cx="104.71" cy="179.48" rx="0.51" ry="0.96" transform="translate(-86.05 97.1) rotate(-36.38)"></ellipse><path class="cls-6" d="M120.68,183.45h-1.21v-.24h1.21Zm-2.42,0h-1.21v-.24h1.21Zm-2.42,0h-1.21v-.24h1.21Zm-2.42,0h-1.21v-.24h1.21Zm-2.41,0H109.8v-.24H111Zm-2.42,0h-1.21v-.24h1.21Zm-2.42,0H105v-.24h1.21Zm-2.42,0h-1.21v-.24h1.21Zm-2.44-.23c-.51-.25-.78-.58-.78-.93v-.06h.24v.06c0,.32.36.57.65.71Zm-.54-2.21h-.24V179.8h.24Zm0-2.42h-.24v-.15a1.5,1.5,0,0,1,.63-1l.14.2a1.3,1.3,0,0,0-.53.78Zm1.6-1.27,0-.24.35,0h.88v.24h-.88Zm18.19,0h-1.21v-.24h1.21Zm-2.42,0h-1.22v-.24h1.22Zm-2.43,0H114.5v-.24h1.21Zm-2.43,0h-1.21v-.24h1.21Zm-2.42,0h-1.21v-.24h1.21Zm-2.43,0h-1.21v-.24h1.21Zm-2.42,0h-1.22v-.24H106Z"></path><rect class="cls-33" x="99.56" y="195.42" width="10.94" height="1.31"></rect><rect class="cls-34" x="99.56" y="196.46" width="10.94" height="0.27"></rect><g id="Gold_coins-4" data-name="Gold coins"><path class="cls-26" d="M87.58,188.32A16.71,16.71,0,0,1,70.88,205a17.14,17.14,0,0,1-3.14-.29,16.6,16.6,0,0,1-4.4-1.51c-.35-.17-.68-.35-1-.55a16.83,16.83,0,0,1-6.39-6.86,16.55,16.55,0,0,1-1.78-7.5,16.71,16.71,0,0,1,29.56-10.68c.25.29.49.6.71.91a16.48,16.48,0,0,1,3.15,9.77Z"></path><circle class="cls-27" cx="70.88" cy="188.32" r="13.17"></circle><circle class="cls-28" cx="70.54" cy="188.65" r="13.17"></circle><path class="cls-29" d="M83.72,177.64l-2.34,2.74-.31.36-16.4,19.2-.3.35-2,2.39a16.83,16.83,0,0,1-6.39-6.86l2.24-2.62.32-.37,14.61-17.1.3-.34,2.55-3A16.69,16.69,0,0,1,83.72,177.64Z"></path><path class="cls-29" d="M86.61,182.67l-2.78,3.25-.33.38-13,15.18-.29.34-2.5,2.92a16.6,16.6,0,0,1-4.4-1.51l2.08-2.44.3-.35,16-18.73.31-.37,2.38-2.79A16.74,16.74,0,0,1,86.61,182.67Z"></path><path class="cls-30" d="M69.47,198.79v-2.36a10.16,10.16,0,0,1-4.22-1.07l.74-2.9a9,9,0,0,0,4.14,1.09c1.41,0,2.38-.56,2.38-1.55s-.79-1.53-2.64-2.15c-2.66-.9-4.47-2.15-4.47-4.55,0-2.2,1.53-3.91,4.2-4.42v-2.37H72v2.2a8.94,8.94,0,0,1,3.6.81l-.74,2.81a8,8,0,0,0-3.57-.86c-1.6,0-2.12.71-2.12,1.41s.86,1.34,3,2.12c3,1,4.14,2.41,4.14,4.66s-1.55,4.08-4.41,4.58v2.55Z"></path></g></g></g></svg>