<svg xmlns="http://www.w3.org/2000/svg" xmlns:xlink="http://www.w3.org/1999/xlink" id="Layer_1" data-name="Layer 1" viewBox="0 0 959.59 441.24"><defs><style>.cls-1,.cls-47{fill:#fff;}.cls-2{fill:url(#linear-gradient);}.cls-3{fill:url(#linear-gradient-2);}.cls-4{mask:url(#mask);}.cls-10,.cls-11,.cls-12,.cls-15,.cls-16,.cls-17,.cls-18,.cls-19,.cls-20,.cls-21,.cls-22,.cls-23,.cls-24,.cls-27,.cls-28,.cls-29,.cls-30,.cls-31,.cls-32,.cls-33,.cls-34,.cls-35,.cls-36,.cls-37,.cls-38,.cls-43,.cls-46,.cls-47,.cls-48,.cls-49,.cls-5,.cls-50,.cls-6,.cls-7,.cls-8,.cls-9{fill-rule:evenodd;}.cls-5{fill:url(#linear-gradient-3);}.cls-6{fill:#a261fe;}.cls-7{fill:url(#linear-gradient-4);}.cls-8{fill:url(#linear-gradient-5);}.cls-9{fill:url(#linear-gradient-6);}.cls-10{opacity:0.28;fill:url(#linear-gradient-7);}.cls-10,.cls-19,.cls-22,.cls-32,.cls-35,.cls-39{isolation:isolate;}.cls-11{fill:url(#linear-gradient-8);}.cls-12{fill:#a1a7ff;}.cls-13,.cls-26{fill:none;stroke-miterlimit:10;stroke-width:3px;}.cls-13{stroke:#fa3e6a;}.cls-14{fill:url(#linear-gradient-9);}.cls-15{fill:url(#linear-gradient-10);}.cls-16{fill:url(#linear-gradient-11);}.cls-17{fill:url(#linear-gradient-12);}.cls-18{fill:#faa;}.cls-19{fill:#fd9797;opacity:0.19;}.cls-20,.cls-40{fill:#2e3c72;}.cls-21{fill:url(#linear-gradient-13);}.cls-22,.cls-39{fill:#7c8ef8;opacity:0.12;}.cls-23{fill:url(#linear-gradient-14);}.cls-24{fill:url(#linear-gradient-15);}.cls-25,.cls-27{fill:#12348e;}.cls-26{stroke:#fff;}.cls-28{fill:#ffd4d4;}.cls-29{fill:url(#linear-gradient-16);}.cls-30{fill:#fa3e6a;}.cls-31{fill:url(#linear-gradient-17);}.cls-32{fill:#ffb69f;opacity:0.31;}.cls-33{fill:url(#linear-gradient-18);}.cls-34{fill:#edf0ff;}.cls-35{fill:#d6dbf0;opacity:0.72;}.cls-36{fill:#dce2ff;}.cls-37{fill:#dae0ff;}.cls-38{fill:url(#linear-gradient-19);}.cls-41{fill:url(#linear-gradient-20);}.cls-42{fill:url(#linear-gradient-21);}.cls-43{fill:url(#linear-gradient-22);}.cls-44{fill:url(#linear-gradient-23);}.cls-45{fill:url(#linear-gradient-24);}.cls-46{fill:url(#linear-gradient-25);}.cls-48{fill:url(#linear-gradient-26);}.cls-49{fill:url(#linear-gradient-27);}.cls-50{fill:url(#linear-gradient-28);}.cls-51{fill:url(#linear-gradient-29);}.cls-52{fill:url(#linear-gradient-30);}.cls-53{fill:url(#linear-gradient-31);}.cls-54{fill:url(#linear-gradient-32);}.cls-55{fill:url(#linear-gradient-33);}.cls-56{fill:url(#linear-gradient-34);}.cls-57{fill:url(#linear-gradient-35);}.cls-58{fill:url(#linear-gradient-36);}.cls-59{fill:url(#linear-gradient-37);}.cls-60{fill:url(#linear-gradient-38);}</style><linearGradient id="linear-gradient" x1="410.18" y1="712.92" x2="409.75" y2="712.15" gradientTransform="matrix(377, 0, 0, -304, -153970.05, 216856.37)" gradientUnits="userSpaceOnUse"><stop offset="0" stop-color="#eef1ff"></stop><stop offset="1" stop-color="#99a8ff"></stop></linearGradient><linearGradient id="linear-gradient-2" x1="410.47" y1="712.93" x2="407.89" y2="712.34" gradientTransform="matrix(377, 0, 0, -304, -153940.05, 216856.37)" xlink:href="#linear-gradient"></linearGradient><mask id="mask" x="550.57" y="50.53" width="244.32" height="390.72" maskUnits="userSpaceOnUse"><g id="mask-4"><rect id="path-3" class="cls-1" x="550.57" y="50.53" width="244.32" height="196.56" rx="13.6"></rect></g></mask><linearGradient id="linear-gradient-3" x1="395.44" y1="736.74" x2="394.88" y2="736.75" gradientTransform="matrix(38.5, 0, 0, -15.84, -14516.11, 12106.77)" gradientUnits="userSpaceOnUse"><stop offset="0" stop-color="#ffd4d4"></stop><stop offset="1" stop-color="#faa"></stop></linearGradient><linearGradient id="linear-gradient-4" x1="400.08" y1="712.35" x2="400.03" y2="713.53" gradientTransform="matrix(53.88, 0, 0, -288.93, -20861.25, 206393.28)" gradientUnits="userSpaceOnUse"><stop offset="0" stop-color="#b1a6ff"></stop><stop offset="1" stop-color="#fefdff"></stop></linearGradient><linearGradient id="linear-gradient-5" x1="393.46" y1="736.74" x2="392.9" y2="736.75" gradientTransform="matrix(33.22, 0, 0, -15.84, -12410.56, 12106.77)" xlink:href="#linear-gradient-3"></linearGradient><linearGradient id="linear-gradient-6" x1="417.11" y1="713.12" x2="417.11" y2="712.43" gradientTransform="matrix(-124.92, -45.47, 19.86, -54.56, 38684.66, 58049.63)" gradientUnits="userSpaceOnUse"><stop offset="0" stop-color="#fac3c3"></stop><stop offset="1" stop-color="#fd9191"></stop></linearGradient><linearGradient id="linear-gradient-7" x1="395.66" y1="714.29" x2="395.65" y2="714.78" gradientTransform="matrix(39.09, 0, 0, -136.6, -14779.41, 97864.97)" gradientUnits="userSpaceOnUse"><stop offset="0" stop-color="#acbbff"></stop><stop offset="1" stop-color="#99a8ff"></stop></linearGradient><linearGradient id="linear-gradient-8" x1="401.01" y1="712.36" x2="400.95" y2="713.54" gradientTransform="matrix(57.26, 0, 0, -286.8, -22300.27, 204876.76)" xlink:href="#linear-gradient-4"></linearGradient><linearGradient id="linear-gradient-9" x1="438.45" y1="722.96" x2="438.09" y2="723.57" gradientTransform="translate(10758.43 20436.29) rotate(180) scale(23 28)" gradientUnits="userSpaceOnUse"><stop offset="0" stop-color="#bebdff"></stop><stop offset="1" stop-color="#eefbff"></stop></linearGradient><linearGradient id="linear-gradient-10" x1="406.7" y1="717.2" x2="406.7" y2="716.51" gradientTransform="matrix(122.4, 0, 0, -59.62, -49116.83, 42950.01)" xlink:href="#linear-gradient-6"></linearGradient><linearGradient id="linear-gradient-11" x1="380.95" y1="726.3" x2="379.27" y2="727.25" gradientTransform="matrix(19.48, 0, 0, -17.52, -6718.17, 12884.81)" xlink:href="#linear-gradient-4"></linearGradient><linearGradient id="linear-gradient-12" x1="447.38" y1="724.04" x2="446.09" y2="725.22" gradientTransform="translate(8673.18 14985.97) rotate(180) scale(17.94 20.47)" xlink:href="#linear-gradient-4"></linearGradient><linearGradient id="linear-gradient-13" x1="397.31" y1="718.8" x2="397.31" y2="718.11" gradientTransform="matrix(43.28, 0.76, 0.65, -37.5, -16999.46, 26763.01)" xlink:href="#linear-gradient-6"></linearGradient><linearGradient id="linear-gradient-14" x1="490.36" y1="94.82" x2="627.4" y2="94.82" gradientUnits="userSpaceOnUse"><stop offset="0" stop-color="#c2ceff"></stop><stop offset="1" stop-color="#95aaff"></stop></linearGradient><linearGradient id="linear-gradient-15" x1="462.67" y1="25.61" x2="599.72" y2="25.61" xlink:href="#linear-gradient-14"></linearGradient><linearGradient id="linear-gradient-16" x1="419.72" y1="715.92" x2="419.07" y2="715.51" gradientTransform="translate(38986 52488.26) rotate(180) scale(91.02 73.1)" gradientUnits="userSpaceOnUse"><stop offset="0" stop-color="#fff3ef"></stop><stop offset="1" stop-color="#ffe2d9"></stop></linearGradient><linearGradient id="linear-gradient-17" x1="431.13" y1="725.58" x2="430.48" y2="725.26" gradientTransform="matrix(-35.33, 4.34, -3.12, -25.45, 18360.11, 16726.64)" xlink:href="#linear-gradient-16"></linearGradient><linearGradient id="linear-gradient-18" x1="432.3" y1="716.89" x2="431.64" y2="716.41" gradientTransform="matrix(-36.53, -5.13, 4.47, -31.8, 13450.73, 25127.61)" xlink:href="#linear-gradient-16"></linearGradient><linearGradient id="linear-gradient-19" x1="418.81" y1="721.9" x2="418.16" y2="721.86" gradientTransform="translate(45597.91 20835.24) rotate(180) scale(106.87 28.6)" xlink:href="#linear-gradient-16"></linearGradient><linearGradient id="linear-gradient-20" x1="407.24" y1="715.1" x2="408.42" y2="715.1" gradientTransform="matrix(115.47, 0, 0, -115.47, -46933.82, 82939.9)" xlink:href="#linear-gradient-14"></linearGradient><linearGradient id="linear-gradient-21" x1="403.98" y1="717.94" x2="405.16" y2="717.94" gradientTransform="matrix(60.48, 0, 0, -60.48, -24288.59, 43786.14)" xlink:href="#linear-gradient-14"></linearGradient><linearGradient id="linear-gradient-22" x1="407.54" y1="714.81" x2="407.24" y2="715.3" gradientTransform="matrix(115.47, 0, 0, -115.89, -46632.48, 83237.39)" gradientUnits="userSpaceOnUse"><stop offset="0" stop-color="#6681ff"></stop><stop offset="1" stop-color="#99a8ff"></stop></linearGradient><linearGradient id="linear-gradient-23" x1="406.5" y1="715.1" x2="407.69" y2="715.1" gradientTransform="matrix(115.47, 0, 0, -115.47, -46657.82, 82939.9)" xlink:href="#linear-gradient-14"></linearGradient><linearGradient id="linear-gradient-24" x1="407.85" y1="715.1" x2="409.03" y2="715.1" gradientTransform="matrix(115.47, 0, 0, -115.47, -47161.82, 82939.9)" xlink:href="#linear-gradient-14"></linearGradient><linearGradient id="linear-gradient-25" x1="412.84" y1="712.91" x2="412.01" y2="712.59" gradientTransform="translate(284988.14 283236.29) rotate(180) scale(690.48 397.07)" xlink:href="#linear-gradient-14"></linearGradient><linearGradient id="linear-gradient-26" x1="413.59" y1="713.04" x2="413.15" y2="712.06" gradientTransform="translate(120943.98 283236.29) rotate(180) scale(291.61 397.07)" xlink:href="#linear-gradient-14"></linearGradient><linearGradient id="linear-gradient-27" x1="412.93" y1="712.88" x2="414.12" y2="712.88" gradientTransform="translate(97026.89 237362.63) rotate(180) scale(233.52 332.64)" xlink:href="#linear-gradient-14"></linearGradient><linearGradient id="linear-gradient-28" x1="412.93" y1="713.11" x2="414.12" y2="713.11" gradientTransform="translate(97026.89 196210.64) rotate(180) scale(233.52 274.8)" xlink:href="#linear-gradient-14"></linearGradient><linearGradient id="linear-gradient-29" x1="413.92" y1="713.84" x2="413.92" y2="713.15" gradientTransform="translate(98988.8 162081.28) rotate(180) scale(238.14 226.71)" gradientUnits="userSpaceOnUse"><stop offset="0" stop-color="#d48c59"></stop><stop offset="1" stop-color="#d09b72"></stop></linearGradient><linearGradient id="linear-gradient-30" x1="427.55" y1="732.91" x2="425.56" y2="733.15" gradientTransform="translate(14963.96 13276.17) rotate(180) scale(34.29 17.58)" gradientUnits="userSpaceOnUse"><stop offset="0" stop-color="#d18149"></stop><stop offset="1" stop-color="#e5bb9b"></stop></linearGradient><linearGradient id="linear-gradient-31" x1="464.7" y1="732.13" x2="464.12" y2="733.05" gradientTransform="translate(4810.63 13276.17) rotate(180) scale(9.53 17.58)" xlink:href="#linear-gradient-30"></linearGradient><linearGradient id="linear-gradient-32" x1="417.51" y1="713.5" x2="417.38" y2="713.45" gradientTransform="translate(39441.57 162081.28) rotate(180) scale(93.35 226.71)" gradientUnits="userSpaceOnUse"><stop offset="0" stop-color="#d18149"></stop><stop offset="1" stop-color="#d09b72"></stop></linearGradient><linearGradient id="linear-gradient-33" x1="425.92" y1="714.61" x2="425.69" y2="715.32" gradientTransform="translate(16830.41 67066.1) rotate(180) scale(38.44 93.35)" xlink:href="#linear-gradient-30"></linearGradient><linearGradient id="linear-gradient-34" x1="416.07" y1="715.29" x2="416.03" y2="714.53" gradientTransform="translate(54900.49 89302.84) rotate(180) scale(130.69 124.42)" gradientUnits="userSpaceOnUse"><stop offset="0" stop-color="#4374ff"></stop><stop offset="1" stop-color="#ab8dff"></stop></linearGradient><linearGradient id="linear-gradient-35" x1="440.74" y1="750.85" x2="439.73" y2="749.65" gradientTransform="translate(8787.65 7638.59) rotate(180) scale(18.82 9.65)" gradientUnits="userSpaceOnUse"><stop offset="0" stop-color="#a8b5ff"></stop><stop offset="1" stop-color="#6f7eff"></stop></linearGradient><linearGradient id="linear-gradient-36" x1="517.39" y1="751.14" x2="517.09" y2="746.6" gradientTransform="translate(3215.5 7638.59) rotate(180) scale(5.23 9.65)" xlink:href="#linear-gradient-35"></linearGradient><linearGradient id="linear-gradient-37" x1="422.79" y1="715.23" x2="422.98" y2="714.69" gradientTransform="translate(22220.96 89302.84) rotate(180) scale(51.23 124.42)" xlink:href="#linear-gradient-34"></linearGradient><linearGradient id="linear-gradient-38" x1="438.85" y1="719.11" x2="438.85" y2="718.12" gradientTransform="translate(9811.96 37158.51) rotate(180) scale(21.1 51.23)" xlink:href="#linear-gradient-35"></linearGradient></defs><title>Selling Directly To Consumers</title><g id="Group-18"><g id="Group-17"><g id="Group-16"><g id="Group"><rect id="Rectangle-Copy-3" class="cls-2" x="521.5" y="44.3" width="260.93" height="210.41" rx="14.53"></rect><rect id="Rectangle" class="cls-3" x="542.27" y="44.3" width="260.93" height="210.41" rx="14.53"></rect><g id="Group-13"><g id="Rectangle-Copy-4"><rect class="cls-1" x="550.57" y="50.53" width="244.32" height="196.56" rx="13.6"></rect></g><g class="cls-4"><g id="Group-13-Copy-2"><g id="Group-6"><g id="Group-3"><g id="Group-4"><polygon id="Path-10" class="cls-5" points="688.35 430.28 688.43 441.24 715 441.24 702.41 434.75 703.21 430.28 688.35 430.28"></polygon><polygon id="Path-10-Copy-2" class="cls-6" points="688.38 434.68 688.43 441.24 715 441.24 702.41 434.75 688.38 434.68"></polygon></g><polygon id="Path-8" class="cls-7" points="687.07 432.87 705.16 432.87 710.69 241.3 673.4 232.89 687.07 432.87"></polygon><g id="Group-5"><polygon id="Path-10-Copy" class="cls-8" points="641.32 430.28 641.91 441.24 664.32 441.24 656.19 435.76 656.19 430.28 641.32 430.28"></polygon><polygon id="Path-10-Copy-3" class="cls-6" points="641.62 435.88 641.91 441.24 664.32 441.24 656.19 435.76 641.62 435.88"></polygon></g></g><path id="Path-64" class="cls-9" d="M715.33,179.7,721.8,194l44.45,2.92q5.55-5.35,6.86-5.37c.87,0,.46,1.12-1.23,3.38q10.59-1.65,12.54-.93T775,203.32q-61.22,9.94-64.43,6.36t-16.93-34Z"></path><polygon id="Path-8-Copy" class="cls-10" points="699.97 237.3 672.91 237.3 680.32 331.84 699.97 237.3"></polygon><polygon id="Path-7" class="cls-11" points="640.68 433.79 657.13 433.79 680.32 235.28 643.14 237.37 640.68 433.79"></polygon><path id="Path-5" class="cls-12" d="M696.06,146.71q10.59,2.23,13.82,11.57a201.11,201.11,0,0,0,13.21,28.64q-10.64,12-22.63,13.39l-11.9-43.24Z"></path><path id="Path-4" class="cls-12" d="M671.43,140.08c-17.88,0-34.53,6-39,14s-7.3,18.72-11.28,33l20.49,1.66,3.05,22.83-4,44.71q24.79-5,37.91-5t35.18-3q-4.59-14.81-9.33-36.8c-4.74-22-2.46-39-4.53-48.78q-2.07-9.81-.21-15Q689.32,140.07,671.43,140.08Z"></path><g id="Group-11"><path id="Path-65-Copy" class="cls-13" d="M673.1,140.55q10.38,2.34,8.91,15.85a194.21,194.21,0,0,1-6.84,32q-31.24-41.3-19.63-45.86"></path><path id="Path-65" class="cls-13" d="M677.25,137.09q10.39,2.34,8.91,15.84t-7.81,33.94q-33.45-44.82-17.85-49.61"></path><g id="Group-10"><rect class="cls-14" x="669.33" y="177.18" width="15.92" height="19.38" rx="0.75" transform="translate(-8.85 35.7) rotate(-3)"></rect><circle id="Oval" class="cls-1" cx="677.12" cy="183.76" r="3.11"></circle><path id="Path-11" class="cls-13" d="M678.45,189.27l-1.38.08"></path><path id="Path-11-Copy" class="cls-13" d="M680.71,192.62l-4.84.25"></path></g></g><path id="Path-2" class="cls-15" d="M643,188.51l-2.59,10.58L688.76,219c5.79-.42,9.17-.64,10.14-.64,1.45,0-1.76,3.1-1,3.27,3.68.86,8.67-.54,8,1.4-1.76,4.77-8.12,5.17-11.83,5.17s-71.55-12.38-72.79-17.1q-.27-1,2.51-24.17Z"></path></g><g id="Group-12"><path id="Path-3-2" data-name="Path-3" class="cls-16" d="M670.51,147.14q11.31,5.34,12.7,4.05c1.39-1.28,1-7.24-1.56-10.6l-7.56-1.28Z"></path><path id="Path-3-Copy" class="cls-17" d="M671.29,147.88q-9.36,7.44-10.75,6.16c-1.39-1.29-2.81-9.78-.27-13.14l.9-.1,2.91-.33,3.63-.41Z"></path><path id="Path-2-Copy" class="cls-18" d="M677.28,131.56v8.5q-1.31,7.35-5.27,7.82t-9.22-6.77V128.46Z"></path><path id="Path-2-Copy-2" class="cls-19" d="M677.28,131.39v8.67a43.61,43.61,0,0,1-8.52-.79,22.14,22.14,0,0,1-6.15-3.13v-4.75Z"></path><path id="Path-31" class="cls-20" d="M656.82,128.46c-6.38-6.47-11.15-26.35.79-27.54q15.5-13.74,24.83-1.94t-1.71,23q-8.65,9.45-12.21,10.81C663.46,134.74,659.8,131.47,656.82,128.46Z"></path><path id="Path" class="cls-21" d="M669.6,120.59q-4.51,1-12.11-4-5.12.36-5.18,4c0,2.46,1.63,4.17,5,5.15q7,12.8,15.66,11.14c4.36-.83,10.4-9.18,9.18-23.47a12.12,12.12,0,0,0-.4-2.1C681.7,111,674.12,119.62,669.6,120.59Z"></path></g></g></g></g></g><g id="Group-15"><path id="Rectangle-Copy-5" class="cls-22" d="M632.94,83.75H549.88V135h83.06a8.31,8.31,0,0,0,8.3-8.31V92.05A8.31,8.31,0,0,0,632.94,83.75Z"></path><g id="Group-21-Copy"><g id="Group-25-Copy-2"><path class="cls-23" d="M619.09,69.21H498.66a8.31,8.31,0,0,0-8.3,8.31v34.6a8.31,8.31,0,0,0,8.3,8.31H619.09a8.31,8.31,0,0,0,8.31-8.31V77.52A8.31,8.31,0,0,0,619.09,69.21Z"></path><g id="Group-15-Copy"><g id="Group-26"><ellipse class="cls-1" cx="512.78" cy="94.63" rx="12.18" ry="12.26"></ellipse></g><polyline id="Path-44" class="cls-13" points="508.82 94.45 511.89 97.54 516.66 92.75"></polyline></g><path id="Path-41" class="cls-13" d="M542,88.32h67.72"></path><path id="Path-41-Copy" class="cls-13" d="M542,102.16h40"></path><path id="Path-41-Copy-2" class="cls-13" d="M590.72,102.16H605.6"></path></g></g></g><g id="Group-15-Copy-2"><path class="cls-24" d="M591.41,0H471a8.31,8.31,0,0,0-8.31,8.31v34.6A8.31,8.31,0,0,0,471,51.22H591.41a8.31,8.31,0,0,0,8.31-8.31V8.31A8.31,8.31,0,0,0,591.41,0Z"></path><ellipse class="cls-1" cx="485.1" cy="25.41" rx="12.18" ry="12.26"></ellipse><polyline class="cls-13" points="481.13 25.23 484.21 28.33 488.98 23.53"></polyline><path class="cls-13" d="M514.34,19.1h67.73"></path><path class="cls-13" d="M514.34,33h40"></path><path class="cls-13" d="M563,33h14.87"></path></g></g><g id="Group-32-Copy-3"><ellipse class="cls-25" cx="671.09" cy="71.79" rx="12.18" ry="12.26"></ellipse><polyline class="cls-26" points="667.44 71.23 670.51 74.33 675.28 69.53"></polyline></g></g><g id="Group-2-Copy-2"><g id="Group-33-Copy"><g id="Group-31"><g id="Group-13-Copy"><g id="Group-9"><polygon class="cls-27" points="841.73 394.93 827.47 394.93 844.99 217.81 874.46 217.81 841.73 394.93"></polygon><polygon class="cls-27" points="855.54 217.81 874.46 217.81 859.7 297.59 855.54 217.81"></polygon></g><path class="cls-20" d="M880.34,97.34l-1.94-.23a15.18,15.18,0,0,0-16.83,13.16l-2.72,21.44h0l39.48,8.52-3.44-28.39A16.6,16.6,0,0,0,880.34,97.34Z"></path><g id="Group-8"><polygon class="cls-28" points="897.32 394.49 897.87 403.79 876.94 403.79 886.05 399.14 885.7 394.49 897.32 394.49"></polygon><path class="cls-27" d="M898.05,399.14v4.91H876.21l8.29-4.36c.39,1.23,1.36,1.83,2.93,1.79S892.54,400.66,898.05,399.14Z"></path><polygon class="cls-27" points="898.98 394.49 885.15 394.49 865.19 222.52 897.13 219.17 898.98 394.49"></polygon></g><polygon class="cls-28" points="839.51 394.93 838.03 403.68 817.14 404.23 826.93 398.73 828.03 394.93 839.51 394.93"></polygon><path class="cls-27" d="M839.3,400.31l-.72,3.74-21.44.18,7-3.92c.38,1.24,1.36,1.84,2.92,1.8A123,123,0,0,0,839.3,400.31Z"></path><path id="Path-9" class="cls-29" d="M835.72,168.68,829.94,176l-31.54-23.3-2.75-4.52q-2.76-4-3.28-4.06c-.34-.06-.14,1.3.61,4.06a9.44,9.44,0,0,1-3.43-.83c-.7-.44-1.37-.87-2-1.23-1.52-.91.39,6.53,5,9.55s32,39,39.41,39q7.46,0,18.12-18.71Z"></path><g id="Group-7"><path class="cls-30" d="M854.61,136.12q-9.3,2.5-12,10.42-.84,2.43-11.2,24.3a29,29,0,0,0,16.86,7.4l10.37-33.38Z"></path><g id="Group-14"><path class="cls-30" d="M876,135.41c12.2,1.48,27.5,5.26,31.26,12s8,23.68,9.61,33.15l-20.27-.89q-2.31,13.86-1.7,19.86c.93,9.23,5.4,17.37,6.28,25.07L841,221.91q7.93-19.41,6-37.73c-1.93-18.32,3.11-21.21,4.86-29.54a122.1,122.1,0,0,0,2.31-18.41A62.25,62.25,0,0,1,876,135.41Z"></path></g></g><path id="Path-2-Copy-5" class="cls-31" d="M870.34,126.58l-.77,8c-3,.08-5.37.2-7,.37-2.51.26,6.51,8.27,11.92,8.27s15.32-5.38,12.12-6.09a58.33,58.33,0,0,0-6-1V124.69Z"></path><path id="Path-2-Copy-4" class="cls-32" d="M870.56,127.07l-1,6.47A30.82,30.82,0,0,0,876,133a16.91,16.91,0,0,0,4.53-2l.25-4.47Z"></path><path id="Path-Copy" class="cls-33" d="M886.56,114.68c2.83.66,4.09,2,3.81,4.08s-1.92,3.28-4.89,3.65q-6.54,9.48-14.59,7.25c-1.64-.45-4.66-3.3-5.33-8.2q-.57-4.14.72-14.79a14,14,0,0,0,9.14,8.74q6.68,2.2,10.34-3Z"></path></g></g></g><g id="Group-Copy"><path class="cls-34" d="M890.58,181.5H837.42a1.78,1.78,0,0,0-1.77,1.78h0a1.77,1.77,0,0,0,1.77,1.77h53.16a1.78,1.78,0,0,0,1.77-1.77h0A1.78,1.78,0,0,0,890.58,181.5Z"></path><path id="Rectangle-Copy-2" class="cls-35" d="M879.94,181.5H837.42a1.78,1.78,0,0,0-1.77,1.78h0a1.77,1.77,0,0,0,1.77,1.77h42.52a1.78,1.78,0,0,0,1.78-1.77h0A1.78,1.78,0,0,0,879.94,181.5Z"></path><path class="cls-36" d="M854.57,143.41H801.12a1.77,1.77,0,0,0-1.63,2.46l15.41,36.21a4.87,4.87,0,0,0,4.48,3h53.46a1.78,1.78,0,0,0,1.77-1.77,1.86,1.86,0,0,0-.14-.7l-15.41-36.21A4.89,4.89,0,0,0,854.57,143.41Z"></path><path id="Rectangle-Copy" class="cls-37" d="M834.18,160.24H834a3.5,3.5,0,0,0-3.5,3.5,3.39,3.39,0,0,0,.28,1.37,8,8,0,0,0,7.37,4.88h.2a3.5,3.5,0,0,0,3.5-3.5,3.62,3.62,0,0,0-.28-1.38A8,8,0,0,0,834.18,160.24Z"></path></g><path id="Path-45" class="cls-38" d="M913.94,180.24q2.87,13.42,0,17.91t-59.87-8.65q-10.56,1.45-12.66-4.66l56.4-.4-1.1-4.95Z"></path></g><g id="Group-20-Copy-2"><circle id="Oval-Copy-3" class="cls-39" cx="932.96" cy="95.85" r="26.63"></circle><g id="Group-21"><circle class="cls-40" cx="932.68" cy="87.26" r="26.36"></circle><path id="Path-45-Copy-2" class="cls-30" d="M932.06,98.12Q945.43,90,942.54,82.39a6.84,6.84,0,0,0-3.14-3.2,5.23,5.23,0,0,0-5.08.44,14.78,14.78,0,0,0-2.26,2.08c-1.63-1.85-3.21-2.78-4.72-2.78a5.49,5.49,0,0,0-5.25,2.78Q917.68,88.7,932.06,98.12Z"></path></g></g><path id="Path-34-Copy" class="cls-13" d="M158.14,404.2l800.61.65"></path><g id="Group-3-Copy-2"><path id="Oval-Copy-2" class="cls-20" d="M218.12,404.39a40,40,0,1,0,0-79.92H197.37q-19.2,24-19.21,40c0,12.54,4.09,28.9,13.12,36.22C198.15,406.23,208.59,404.39,218.12,404.39Z"></path><circle class="cls-41" cx="200.59" cy="364.43" r="39.96"></circle><circle id="Oval-Copy" class="cls-42" cx="200.99" cy="364.83" r="20.93"></circle></g><g id="Group-3-Copy-3"><path class="cls-43" d="M409.15,404.39a40,40,0,1,0,0-79.92H388.4q-19.22,24-19.21,40c0,12.54,4.09,28.9,13.12,36.22C389.18,406.23,399.62,404.39,409.15,404.39Z"></path><circle class="cls-44" cx="391.62" cy="364.43" r="39.96"></circle></g><g id="Group-3-Copy"><path class="cls-20" d="M60.32,404.39a40,40,0,1,0,0-79.92H39.57q-19.21,24-19.21,40c0,12.54,4.09,28.9,13.12,36.22C40.34,406.23,50.78,404.39,60.32,404.39Z"></path><circle class="cls-45" cx="42.79" cy="364.43" r="39.96"></circle></g><polygon id="Path-87-Copy-2" class="cls-46" points="477.9 92.75 0 92.75 0 367.57 477.9 367.57 477.9 92.75"></polygon><polygon id="Path-87-Copy-4" class="cls-47" points="238.7 171.65 46.84 171.65 46.84 238.92 238.7 238.92 238.7 171.65"></polygon><polygon id="Path-87" class="cls-48" points="477.9 92.75 276.07 92.75 276.07 367.57 477.9 367.57 477.9 92.75"></polygon><polygon id="Path-87-Copy" class="cls-49" points="458.62 114.08 296.99 114.08 296.99 344.31 458.62 344.31 458.62 114.08"></polygon><polygon id="Path-87-Copy-3" class="cls-50" points="458.62 154.12 296.99 154.12 296.99 344.31 458.62 344.31 458.62 154.12"></polygon><g id="Group-28-Copy-2"><rect class="cls-51" x="336.61" y="247.09" width="164.82" height="156.91"></rect><rect id="Rectangle-Copy-14" class="cls-52" x="347.16" y="382.9" width="23.73" height="12.17"></rect><rect id="Rectangle-Copy-15" class="cls-53" x="386.72" y="382.9" width="6.59" height="12.17"></rect><rect id="Rectangle-Copy-10" class="cls-54" x="436.82" y="247.09" width="64.61" height="156.91"></rect><rect id="Rectangle-Copy-13" class="cls-55" x="455.83" y="247.09" width="26.6" height="64.61"></rect></g><g id="Group-28-Copy-6"><rect class="cls-56" x="481.58" y="317.69" width="90.46" height="86.11"></rect><rect class="cls-57" x="487.36" y="392.22" width="13.03" height="6.68"></rect><rect class="cls-58" x="509.07" y="392.22" width="3.62" height="6.68"></rect><rect class="cls-59" x="536.57" y="317.69" width="35.46" height="86.11"></rect><rect class="cls-60" x="547" y="317.69" width="14.6" height="35.46"></rect></g><g id="Group-32-Copy-2"><ellipse class="cls-25" cx="418.47" cy="222.67" rx="12.18" ry="12.26"></ellipse><polyline class="cls-26" points="414.81 222.11 417.89 225.21 422.65 220.41"></polyline></g></g></svg>