<svg xmlns="http://www.w3.org/2000/svg" xmlns:xlink="http://www.w3.org/1999/xlink" id="Layer_1" data-name="Layer 1" viewBox="0 0 1196.75 606.48"><defs><style>.cls-1,.cls-44,.cls-46{fill:#fff;}.cls-2{fill:url(#Gradiente_sem_nome_69);}.cls-3,.cls-4{fill:#a1a7ff;}.cls-11,.cls-12,.cls-13,.cls-14,.cls-15,.cls-37,.cls-38,.cls-39,.cls-4,.cls-41,.cls-42,.cls-44,.cls-45,.cls-46,.cls-57,.cls-58,.cls-59,.cls-60,.cls-61,.cls-62,.cls-63,.cls-64,.cls-65,.cls-66,.cls-67,.cls-68,.cls-69,.cls-70,.cls-71,.cls-72,.cls-81{fill-rule:evenodd;}.cls-5{fill:url(#linear-gradient);}.cls-6{fill:url(#linear-gradient-2);}.cls-7{fill:url(#linear-gradient-3);}.cls-8{fill:url(#linear-gradient-4);}.cls-9{fill:url(#linear-gradient-5);}.cls-10{opacity:0.43;fill:url(#linear-gradient-6);}.cls-10,.cls-12,.cls-19,.cls-25,.cls-29,.cls-31,.cls-39,.cls-46,.cls-57,.cls-67,.cls-79{isolation:isolate;}.cls-11{fill:url(#linear-gradient-7);}.cls-12{fill:#babcc7;opacity:0.43;}.cls-13{fill:url(#linear-gradient-8);}.cls-14{fill:url(#linear-gradient-9);}.cls-15{fill:url(#linear-gradient-10);}.cls-16{fill:url(#linear-gradient-11);}.cls-17{fill:url(#linear-gradient-12);}.cls-18{fill:url(#linear-gradient-13);}.cls-19{fill:#7d8ffa;opacity:0.28;}.cls-20{fill:url(#linear-gradient-14);}.cls-21{fill:url(#linear-gradient-15);}.cls-22{fill:url(#linear-gradient-16);}.cls-23{fill:#f88e76;}.cls-24{fill:url(#linear-gradient-17);}.cls-25{fill:#ffbb8e;opacity:0.41;}.cls-26{fill:url(#linear-gradient-18);}.cls-27{fill:url(#linear-gradient-19);}.cls-28{fill:url(#linear-gradient-20);}.cls-29{fill:#8192f9;opacity:0.45;}.cls-30{fill:url(#linear-gradient-21);}.cls-31{fill:#617ee8;opacity:0.42;}.cls-32{fill:url(#linear-gradient-22);}.cls-33{fill:url(#linear-gradient-23);}.cls-34{fill:none;stroke:#fa3e6a;stroke-miterlimit:10;stroke-width:3px;}.cls-35{fill:url(#linear-gradient-24);}.cls-36,.cls-39{fill:#708dec;}.cls-37{fill:#526dc5;}.cls-38{fill:#8ba3f0;}.cls-39{opacity:0.24;}.cls-40{fill:#6072f7;}.cls-41{fill:#5874d0;}.cls-42{fill:#e5ebff;}.cls-43,.cls-45{fill:#fa3e6a;}.cls-46{opacity:0.13;}.cls-47{fill:url(#linear-gradient-25);}.cls-48{fill:url(#linear-gradient-26);}.cls-49{fill:url(#linear-gradient-27);}.cls-50{fill:url(#linear-gradient-28);}.cls-51{fill:url(#linear-gradient-29);}.cls-52{fill:url(#linear-gradient-30);}.cls-53{fill:url(#linear-gradient-31);}.cls-54{fill:url(#linear-gradient-32);}.cls-55{fill:#fead77;}.cls-56{fill:#ffa590;}.cls-57{fill:#b3beff;opacity:0.38;}.cls-58{fill:#b7b3c9;}.cls-59{fill:url(#linear-gradient-33);}.cls-60{fill:#f3a9a9;}.cls-61{fill:#9c4ca6;}.cls-62{fill:url(#linear-gradient-34);}.cls-63,.cls-80{fill:#12348e;}.cls-64{fill:#ff9fbe;}.cls-65{fill:url(#linear-gradient-35);}.cls-66{fill:url(#linear-gradient-36);}.cls-67{fill:#ffb69f;opacity:0.62;}.cls-68{fill:url(#linear-gradient-37);}.cls-69{fill:#edf0ff;}.cls-70{fill:#d6dbf0;}.cls-71{fill:#eef1ff;}.cls-72{fill:url(#linear-gradient-38);}.cls-73{fill:url(#linear-gradient-39);}.cls-74{fill:url(#linear-gradient-40);}.cls-75{fill:url(#linear-gradient-41);}.cls-76{mask:url(#mask);}.cls-77{mask:url(#mask-2);}.cls-78{fill:url(#linear-gradient-42);}.cls-79{fill:#7c8ef8;opacity:0.12;}.cls-81{fill:#ffb91f;}.cls-82{mask:url(#mask-3);}.cls-83{fill:#ffa92d;}.cls-84{mask:url(#mask-4);}</style><linearGradient id="Gradiente_sem_nome_69" x1="531.07" y1="820.6" x2="530.06" y2="820.6" gradientTransform="matrix(1108.02, 0, 0, -74, -587239.47, 61281.11)" gradientUnits="userSpaceOnUse"><stop offset="0.16" stop-color="#e08197"></stop><stop offset="1" stop-color="#e08197" stop-opacity="0"></stop></linearGradient><linearGradient id="linear-gradient" x1="466.39" y1="846.18" x2="467.02" y2="843.98" gradientTransform="matrix(10, 0, 0, -10, -3924.53, 8502.07)" gradientUnits="userSpaceOnUse"><stop offset="0" stop-color="#f2f4ff"></stop><stop offset="1" stop-color="#99a8ff"></stop></linearGradient><linearGradient id="linear-gradient-2" x1="523.57" y1="820.43" x2="525.33" y2="818.22" gradientTransform="matrix(91, 0, 0, -91, -46989.31, 74808.31)" xlink:href="#linear-gradient"></linearGradient><linearGradient id="linear-gradient-3" x1="505.13" y1="828.83" x2="505.75" y2="826.63" gradientTransform="matrix(25, 0, 0, -25, -11937.75, 20913.89)" xlink:href="#linear-gradient"></linearGradient><linearGradient id="linear-gradient-4" x1="438.72" y1="858.58" x2="439.35" y2="856.38" gradientTransform="matrix(7, 0, 0, -7, -2376.69, 6194.51)" xlink:href="#linear-gradient"></linearGradient><linearGradient id="linear-gradient-5" x1="487.91" y1="836.54" x2="488.54" y2="834.34" gradientTransform="matrix(15, 0, 0, -15, -6615.6, 12738.01)" xlink:href="#linear-gradient"></linearGradient><linearGradient id="linear-gradient-6" x1="523.57" y1="820.43" x2="525.33" y2="818.22" gradientTransform="matrix(91, 0, 0, -91, -47099.31, 74738.31)" xlink:href="#linear-gradient"></linearGradient><linearGradient id="linear-gradient-7" x1="504.89" y1="824.1" x2="505.11" y2="825.17" gradientTransform="matrix(24.76, 0, 0, -36.02, -12279.96, 30280.41)" gradientUnits="userSpaceOnUse"><stop offset="0" stop-color="#dce2ff"></stop><stop offset="1" stop-color="#7c8ef9"></stop></linearGradient><linearGradient id="linear-gradient-8" x1="557.03" y1="824.1" x2="557.25" y2="825.17" gradientTransform="translate(14223.01 30280.41) rotate(180) scale(24.76 36.02)" xlink:href="#linear-gradient-7"></linearGradient><linearGradient id="linear-gradient-9" x1="557.03" y1="824.1" x2="557.25" y2="825.17" gradientTransform="translate(14160.71 30280.41) rotate(180) scale(24.76 36.02)" xlink:href="#linear-gradient-7"></linearGradient><linearGradient id="linear-gradient-10" x1="504.89" y1="824.1" x2="505.11" y2="825.17" gradientTransform="matrix(24.76, 0, 0, -36.02, -12366.06, 30280.41)" xlink:href="#linear-gradient-7"></linearGradient><linearGradient id="linear-gradient-11" x1="529.19" y1="818.93" x2="528.85" y2="815.75" gradientTransform="matrix(307.02, 0, 0, -516.68, -162149.99, 422555.08)" xlink:href="#linear-gradient"></linearGradient><linearGradient id="linear-gradient-12" x1="176.19" y1="301.34" x2="422.23" y2="301.34" gradientUnits="userSpaceOnUse"><stop offset="0" stop-color="#c2ceff"></stop><stop offset="1" stop-color="#95aaff"></stop></linearGradient><linearGradient id="linear-gradient-13" x1="528.15" y1="820.37" x2="524.92" y2="819.65" gradientTransform="matrix(200.35, 0, 0, -79.81, -105430.28, 65571.81)" xlink:href="#linear-gradient"></linearGradient><linearGradient id="linear-gradient-14" x1="528.15" y1="820.37" x2="524.92" y2="819.65" gradientTransform="matrix(200.35, 0, 0, -79.81, -105430.28, 65669.83)" xlink:href="#linear-gradient"></linearGradient><linearGradient id="linear-gradient-15" x1="528.15" y1="820.37" x2="524.92" y2="819.65" gradientTransform="matrix(200.35, 0, 0, -79.81, -105429.99, 65767.84)" xlink:href="#linear-gradient"></linearGradient><linearGradient id="linear-gradient-16" x1="521.73" y1="821.97" x2="520.97" y2="820.22" gradientTransform="matrix(67.79, 0, 0, -58.1, -34967.44, 48046.72)" gradientUnits="userSpaceOnUse"><stop offset="0" stop-color="#ffcaba"></stop><stop offset="1" stop-color="#ff9a84"></stop></linearGradient><linearGradient id="linear-gradient-17" x1="518.75" y1="822.17" x2="518.75" y2="821.17" gradientTransform="matrix(52.21, 0, 0, -58.1, -26697.86, 48046.72)" xlink:href="#linear-gradient-16"></linearGradient><linearGradient id="linear-gradient-18" x1="521.73" y1="821.97" x2="520.97" y2="820.22" gradientTransform="matrix(67.79, 0, 0, -58.1, -34994.71, 48046.72)" xlink:href="#linear-gradient-16"></linearGradient><linearGradient id="linear-gradient-19" x1="518.75" y1="822.17" x2="518.75" y2="821.17" gradientTransform="matrix(52.21, 0, 0, -58.1, -26725.13, 48046.72)" xlink:href="#linear-gradient-16"></linearGradient><linearGradient id="linear-gradient-20" x1="520.17" y1="820.75" x2="521.91" y2="821.87" gradientTransform="matrix(67.79, 0, 0, -58.1, -35025.1, 48046.72)" xlink:href="#linear-gradient-7"></linearGradient><linearGradient id="linear-gradient-21" x1="518.31" y1="821" x2="519.01" y2="822.07" gradientTransform="matrix(52.21, 0, 0, -58.1, -26755.52, 48046.72)" xlink:href="#linear-gradient-7"></linearGradient><linearGradient id="linear-gradient-22" x1="230.87" y1="432.96" x2="431.35" y2="432.96" xlink:href="#linear-gradient-12"></linearGradient><linearGradient id="linear-gradient-23" x1="527.3" y1="822.8" x2="525.63" y2="822.43" gradientTransform="matrix(162.62, 0, 0, -47.61, -85376.32, 39574.34)" xlink:href="#linear-gradient"></linearGradient><linearGradient id="linear-gradient-24" x1="528.03" y1="822.78" x2="526.37" y2="822.54" gradientTransform="matrix(200.48, 0, 0, -47.61, -105499.07, 39672.36)" xlink:href="#linear-gradient"></linearGradient><linearGradient id="linear-gradient-25" x1="521.73" y1="821.97" x2="520.97" y2="820.22" gradientTransform="matrix(67.79, 0, 0, -58.1, -34967.44, 47850.72)" xlink:href="#linear-gradient-16"></linearGradient><linearGradient id="linear-gradient-26" x1="518.75" y1="822.17" x2="518.75" y2="821.17" gradientTransform="matrix(52.21, 0, 0, -58.1, -26697.86, 47850.72)" xlink:href="#linear-gradient-16"></linearGradient><linearGradient id="linear-gradient-27" x1="521.73" y1="821.97" x2="520.97" y2="820.22" gradientTransform="matrix(67.79, 0, 0, -58.1, -34994.71, 47850.72)" xlink:href="#linear-gradient-16"></linearGradient><linearGradient id="linear-gradient-28" x1="518.75" y1="822.17" x2="518.75" y2="821.17" gradientTransform="matrix(52.21, 0, 0, -58.1, -26725.13, 47850.72)" xlink:href="#linear-gradient-16"></linearGradient><linearGradient id="linear-gradient-29" x1="520.17" y1="820.75" x2="521.91" y2="821.87" gradientTransform="matrix(67.79, 0, 0, -58.1, -35025.1, 47850.72)" xlink:href="#linear-gradient-7"></linearGradient><linearGradient id="linear-gradient-30" x1="518.31" y1="821" x2="519.01" y2="822.07" gradientTransform="matrix(52.21, 0, 0, -58.1, -26755.52, 47850.72)" xlink:href="#linear-gradient-7"></linearGradient><linearGradient id="linear-gradient-31" x1="521.73" y1="821.97" x2="520.97" y2="820.22" gradientTransform="matrix(67.79, 0, 0, -58.1, -35064.84, 47850.72)" xlink:href="#linear-gradient-16"></linearGradient><linearGradient id="linear-gradient-32" x1="518.75" y1="822.17" x2="518.75" y2="821.17" gradientTransform="matrix(52.21, 0, 0, -58.1, -26795.26, 47850.72)" xlink:href="#linear-gradient-16"></linearGradient><linearGradient id="linear-gradient-33" x1="530.19" y1="818.28" x2="528.28" y2="818.42" gradientTransform="matrix(298.02, 0, 0, -171.79, -156808.04, 141099.09)" gradientUnits="userSpaceOnUse"><stop offset="0" stop-color="#ffd4d4"></stop><stop offset="1" stop-color="#de6262"></stop></linearGradient><linearGradient id="linear-gradient-34" x1="529.91" y1="818.4" x2="528" y2="818.56" gradientTransform="matrix(263.98, 0, 0, -159.55, -138777.28, 131108.94)" xlink:href="#linear-gradient-33"></linearGradient><linearGradient id="linear-gradient-35" x1="526.29" y1="820.05" x2="524.38" y2="820.31" gradientTransform="matrix(106.55, 0, 0, -82.24, -55155.52, 67807.75)" xlink:href="#linear-gradient-33"></linearGradient><linearGradient id="linear-gradient-36" x1="501.37" y1="823.22" x2="500.36" y2="823.65" gradientTransform="matrix(22.1, 2.71, 3.74, -30.44, -13458.82, 24011.36)" xlink:href="#linear-gradient-33"></linearGradient><linearGradient id="linear-gradient-37" x1="527.23" y1="823.69" x2="525.32" y2="823.74" gradientTransform="matrix(125.91, 0, 0, -41.08, -65527.09, 34235.87)" xlink:href="#linear-gradient-33"></linearGradient><linearGradient id="linear-gradient-38" x1="516.67" y1="825.52" x2="514.76" y2="825.79" gradientTransform="matrix(41.17, 0, 0, -32.26, -20538.29, 26914.7)" xlink:href="#linear-gradient-33"></linearGradient><linearGradient id="linear-gradient-39" x1="528.12" y1="818.25" x2="527.66" y2="817.08" gradientTransform="matrix(198.46, 0, 0, -323, -103804.42, 264343.97)" gradientUnits="userSpaceOnUse"><stop offset="0" stop-color="#eef1ff"></stop><stop offset="1" stop-color="#99a8ff"></stop></linearGradient><linearGradient id="linear-gradient-40" x1="527.97" y1="817.67" x2="527.31" y2="817.14" gradientTransform="matrix(198.46, 0, 0, -323, -103815.96, 264343.97)" xlink:href="#linear-gradient-39"></linearGradient><linearGradient id="linear-gradient-41" x1="499.12" y1="832.24" x2="497.69" y2="830.92" gradientTransform="matrix(19.64, 0, 0, -19.62, -8900.86, 16480.33)" xlink:href="#linear-gradient-39"></linearGradient><mask id="mask" x="872.49" y="156" width="19.64" height="19.62" maskUnits="userSpaceOnUse"><g id="mask-35"><rect id="path-34" class="cls-1" x="872.49" y="156" width="19.64" height="19.62" rx="4"></rect></g></mask><mask id="mask-2" x="872.49" y="156" width="19.64" height="26.89" maskUnits="userSpaceOnUse"><g id="mask-35-2" data-name="mask-35"><rect id="path-34-2" data-name="path-34" class="cls-1" x="872.49" y="156" width="19.64" height="19.62" rx="4"></rect></g></mask><linearGradient id="linear-gradient-42" x1="527.36" y1="819.61" x2="525.92" y2="818.36" gradientTransform="matrix(138.6, 0, 0, -135.05, -72029.85, 110839.34)" xlink:href="#linear-gradient-39"></linearGradient><mask id="mask-3" x="748" y="159" width="34" height="34" maskUnits="userSpaceOnUse"><g id="mask-41"><rect id="path-40" class="cls-1" x="748" y="159" width="34" height="34" rx="4"></rect></g></mask><mask id="mask-4" x="748" y="159" width="34" height="42" maskUnits="userSpaceOnUse"><g id="mask-41-2" data-name="mask-41"><rect id="path-40-2" data-name="path-40" class="cls-1" x="748" y="159" width="34" height="34" rx="4"></rect></g></mask></defs><title>Customer &amp;amp; User Experience</title><g id="Group-23"><g id="Group-19"><rect id="Rectangle-Copy-32" class="cls-2" x="44" y="520" width="1108.02" height="74"></rect><g id="Group-19-Copy-2"><g id="Group-17"><g id="Group-13"><rect id="Rectangle" class="cls-3" x="666" width="130" height="130"></rect><rect id="Rectangle-Copy-3" class="cls-1" x="680" y="14" width="103" height="103"></rect></g><g id="Group-16"><g id="Group-14"><polygon id="Path-74" class="cls-4" points="692 87.51 748.01 87.51 720 51 692 87.51"></polygon><polygon id="Path-74-Copy" class="cls-4" points="731.26 87.51 770.87 87.51 751.4 62 731.26 87.51"></polygon></g><circle id="Oval" class="cls-5" cx="741" cy="46" r="5"></circle><circle id="Oval-Copy" class="cls-3" cx="741" cy="46" r="11"></circle></g></g><g id="Group-17-Copy"><rect class="cls-6" x="651" y="155" width="91" height="91"></rect><rect class="cls-1" x="664" y="168" width="65" height="65"></rect><g id="Group-18"><circle id="Oval-Copy-3" class="cls-7" cx="694.5" cy="207.5" r="12.5"></circle><circle id="Oval-Copy-4" class="cls-8" cx="695.5" cy="188.5" r="3.5"></circle><circle id="Oval-Copy-2" class="cls-9" cx="705.5" cy="198.5" r="7.5"></circle></g></g></g><rect id="Rectangle-Copy-11" class="cls-10" x="541" y="85" width="91" height="91"></rect><g id="Group-14-Copy"><path class="cls-11" d="M218.41,558.2h21l-5.14,10.29-11.67,23.4a4.2,4.2,0,0,1-7.93-2.37l2.54-21.31h0Z"></path><polygon id="Rectangle-Copy-29" class="cls-12" points="218.41 558.2 239.41 558.2 234.27 568.49 217.21 568.21 218.41 558.2"></polygon><g id="Group-13-Copy"><path class="cls-13" d="M433.41,558.2h-21l5.14,10.29,11.67,23.4a4.2,4.2,0,0,0,7.93-2.37l-2.54-21.31h0Z"></path><polygon class="cls-12" points="433.41 558.2 412.41 558.2 417.55 568.49 434.61 568.21 433.41 558.2"></polygon></g><g id="Group-13-Copy-2"><path class="cls-14" d="M371.11,558.2h-21l5.14,10.29,11.67,23.4a4.2,4.2,0,0,0,7.93-2.37l-2.54-21.31h0Z"></path><polygon class="cls-12" points="371.11 558.2 350.11 558.2 355.25 568.49 372.31 568.21 371.11 558.2"></polygon></g><g id="Group-12"><path id="Rectangle-Copy-27" class="cls-15" d="M132.31,558.2h21l-4.74,9.49-12.07,24.2a4.2,4.2,0,0,1-7.93-2.37l2.66-22.31h0Z"></path><polygon id="Rectangle-Copy-28" class="cls-12" points="132.31 558.2 153.31 558.2 148.57 567.69 131.23 567.21 132.31 558.2"></polygon></g><g id="Group-7"><rect id="Rectangle-Copy-4" class="cls-16" x="115.21" y="43" width="307.02" height="516.68"></rect><rect id="Rectangle-Copy-9" class="cls-17" x="176.19" y="43" width="246.04" height="516.68"></rect><rect class="cls-3" x="207.74" y="43" width="246.04" height="516.68"></rect><g id="Group-4"><rect id="Rectangle-Copy-5" class="cls-18" x="230.58" y="61.2" width="200.35" height="79.81"></rect><rect id="Rectangle-Copy-6" class="cls-19" x="351.02" y="61.2" width="79.91" height="79.81"></rect></g><g id="Group-4-Copy"><rect class="cls-20" x="230.58" y="159.22" width="200.35" height="79.81"></rect><rect class="cls-19" x="351.02" y="159.22" width="79.91" height="79.81"></rect></g><g id="Group-4-Copy-2"><rect class="cls-21" x="230.87" y="257.23" width="200.35" height="79.81"></rect><rect class="cls-19" x="351.31" y="257.23" width="79.91" height="79.81"></rect></g><g id="Group-10-Copy"><g id="Group-9"><rect class="cls-22" x="359.62" y="278.9" width="67.79" height="58.1"></rect><rect id="Rectangle-Copy-17" class="cls-23" x="359.62" y="278.9" width="67.79" height="13.94"></rect><rect id="Rectangle-Copy-18" class="cls-23" x="359.62" y="296.72" width="67.79" height="6.97"></rect><rect id="Rectangle-Copy-16" class="cls-24" x="359.62" y="278.9" width="52.21" height="58.1"></rect><rect id="Rectangle-Copy-19" class="cls-25" x="359.62" y="278.9" width="44.42" height="58.1"></rect></g><g id="Group-9-Copy"><rect class="cls-26" x="332.34" y="278.9" width="67.79" height="58.1"></rect><rect class="cls-23" x="332.34" y="278.9" width="67.79" height="13.94"></rect><rect class="cls-23" x="332.34" y="296.72" width="67.79" height="6.97"></rect><rect class="cls-27" x="332.34" y="278.9" width="52.21" height="58.1"></rect><rect id="Rectangle-Copy-20" class="cls-25" x="332.34" y="278.9" width="41.3" height="58.1"></rect></g><g id="Group-9-Copy-2"><rect class="cls-28" x="301.95" y="278.9" width="67.79" height="58.1"></rect><rect class="cls-29" x="301.95" y="278.9" width="67.79" height="13.94"></rect><rect class="cls-29" x="301.95" y="296.72" width="67.79" height="6.97"></rect><rect class="cls-30" x="301.95" y="278.9" width="52.21" height="58.1"></rect><rect id="Rectangle-Copy-21" class="cls-31" x="301.95" y="318" width="35.07" height="19"></rect></g></g><g id="Group-5"><rect id="Rectangle-Copy-8" class="cls-32" x="230.87" y="409.16" width="200.48" height="47.61"></rect><rect class="cls-3" x="230.87" y="381.15" width="200.48" height="47.61"></rect><rect id="Rectangle-Copy-7" class="cls-33" x="268.72" y="381.15" width="162.62" height="47.61"></rect><path id="Path-36" class="cls-34" d="M330.76,395.56H375.5"></path></g><g id="Group-5-Copy"><g id="Group-6"><rect class="cls-35" x="230.87" y="479.17" width="200.48" height="47.61"></rect><path id="Path-36-Copy" class="cls-34" d="M309.38,493.17h44.74"></path></g></g></g><g id="Group-8"><rect class="cls-36" x="307.71" y="199.88" width="123.2" height="39.12"></rect><polygon id="Rectangle-Copy-15" class="cls-37" points="307.71 200.66 430.91 200.66 430.91 213.18 307.71 213.18 307.71 200.66"></polygon><polygon class="cls-38" points="307.71 199.1 430.91 199.1 430.91 211.62 307.71 211.62 307.71 199.1"></polygon><polygon id="Rectangle-Copy-14" class="cls-39" points="324.86 199.1 430.91 199.1 430.91 239 324.86 239 324.86 199.1"></polygon><rect id="Rectangle-Copy-10" class="cls-40" x="337.34" y="199.88" width="93.57" height="39.12"></rect><path id="Rectangle-Copy-13" class="cls-41" d="M337.34,203.79h93.57v9.39H400.13a2.76,2.76,0,0,1-2-.87L395,209.05a2.78,2.78,0,0,0-2-.87h-9.33a2.77,2.77,0,0,0-2,.86l-3.18,3.29a2.8,2.8,0,0,1-2,.85h-39.1Z"></path><path class="cls-42" d="M337.34,199.1h93.57v12.52H400.13a2.8,2.8,0,0,1-2-.87L395,207.48a2.82,2.82,0,0,0-2-.87h-9.33a2.77,2.77,0,0,0-2,.86l-3.18,3.29a2.77,2.77,0,0,1-2,.86h-39.1Z"></path></g><g id="Group-8-Copy"><rect class="cls-43" x="320.1" y="168.23" width="98.56" height="31.29"></rect><polygon class="cls-44" points="320.1 168.85 418.66 168.85 418.66 178.87 320.1 178.87 320.1 168.85"></polygon><polygon class="cls-45" points="320.1 167.6 418.66 167.6 418.66 177.61 320.1 177.61 320.1 167.6"></polygon><polygon class="cls-46" points="333.82 167.6 418.66 167.6 418.66 199.52 333.82 199.52 333.82 167.6"></polygon><rect class="cls-43" x="343.81" y="168.23" width="74.86" height="31.29"></rect><path class="cls-44" d="M343.81,171.36h74.85v7.51H394a2.26,2.26,0,0,1-1.62-.7l-2.48-2.61a2.28,2.28,0,0,0-1.63-.7h-7.46a2.26,2.26,0,0,0-1.62.69l-2.53,2.63a2.26,2.26,0,0,1-1.62.69H343.81Z"></path><path class="cls-45" d="M343.81,167.6h74.85v10H394a2.25,2.25,0,0,1-1.62-.69l-2.48-2.61a2.24,2.24,0,0,0-1.63-.7h-7.46a2.26,2.26,0,0,0-1.62.69l-2.53,2.63a2.25,2.25,0,0,1-1.62.68H343.81Z"></path></g><g id="Group-10"><rect class="cls-47" x="359.62" y="82.9" width="67.79" height="58.1"></rect><rect class="cls-23" x="359.62" y="82.9" width="67.79" height="13.94"></rect><rect class="cls-23" x="359.62" y="100.72" width="67.79" height="6.97"></rect><rect class="cls-48" x="359.62" y="82.9" width="52.21" height="58.1"></rect><rect class="cls-25" x="359.62" y="82.9" width="44.42" height="58.1"></rect><rect class="cls-49" x="332.34" y="82.9" width="67.79" height="58.1"></rect><rect class="cls-23" x="332.34" y="82.9" width="67.79" height="13.94"></rect><rect class="cls-23" x="332.34" y="100.72" width="67.79" height="6.97"></rect><rect class="cls-50" x="332.34" y="82.9" width="52.21" height="58.1"></rect><rect class="cls-25" x="332.34" y="82.9" width="41.3" height="58.1"></rect><rect class="cls-51" x="301.95" y="82.9" width="67.79" height="58.1"></rect><rect class="cls-29" x="301.95" y="82.9" width="67.79" height="13.94"></rect><rect class="cls-29" x="301.95" y="100.72" width="67.79" height="6.97"></rect><rect class="cls-52" x="301.95" y="82.9" width="52.21" height="58.1"></rect><rect class="cls-31" x="301.95" y="82.9" width="35.07" height="58.1"></rect><g id="Group-9-Copy-3"><rect class="cls-53" x="262.21" y="82.9" width="67.79" height="58.1"></rect><rect class="cls-23" x="262.21" y="82.9" width="67.79" height="13.94"></rect><rect class="cls-23" x="262.21" y="100.72" width="67.79" height="6.97"></rect><rect class="cls-54" x="262.21" y="82.9" width="52.21" height="58.1"></rect><rect id="Rectangle-Copy-22" class="cls-55" x="262.21" y="100.72" width="52.21" height="6.97"></rect><rect id="Rectangle-Copy-23" class="cls-56" x="262.21" y="100.72" width="52.21" height="6.97"></rect><rect id="Rectangle-Copy-24" class="cls-56" x="262.21" y="82.9" width="52.21" height="13.94"></rect></g></g><g id="Group-11"><rect class="cls-43" x="256.61" y="318.1" width="64.4" height="18.9"></rect><rect id="Rectangle-Copy-26" class="cls-43" x="270.58" y="318.1" width="50.43" height="18.9"></rect><rect id="Rectangle-Copy-25" class="cls-43" x="277.56" y="318.1" width="43.45" height="18.9"></rect></g></g><path id="Path-34-Copy-3" class="cls-34" d="M0,594l1196.75.94"></path><g id="Group-21"><g id="Group-20"><path class="cls-4" d="M694.4,594.54c112.34,0,203.4-27.25,203.4-138.63s-95-179.61-207.35-179.61S491,344.53,491,455.91,582.07,594.54,694.4,594.54Z"></path><path id="Path-23" class="cls-57" d="M690.71,481.81q38,41.27,65.87,107.85,55.76-8.5,84-29.25L784.29,488.1Z"></path><path id="Path-14" class="cls-58" d="M775.88,504.84q12.81,1.65,27.9-12.91t36.53-42.56H800.8l-28.29,35.51Z"></path><g id="Group-22-Copy"><path id="Path-22" class="cls-59" d="M837.75,450.54q10.17,12.79,139.06,143.18H955.92L813.77,483l-135-20.05,10.84-38.3q19.89-6,66,1.35C805.05,433.82,832.82,444.34,837.75,450.54Z"></path></g><g id="Group-22"><g id="Group-3-Copy"><polygon id="Path-10-Copy" class="cls-60" points="890.06 590.94 903.09 606.06 930.56 606.06 916.19 597.09 910.54 590.94 890.06 590.94"></polygon><path id="Path-10-Copy-3" class="cls-61" d="M897.28,598.86l3.26,7.62h32.29l-13.48-7.09c-.62,2-2.21,3-4.75,2.92S906.28,601.09,897.28,598.86Z"></path><polygon id="Path-10-Copy-2" class="cls-60" points="953.06 590.94 967.89 606.06 995.36 606.06 980.99 597.09 973.54 590.94 953.06 590.94"></polygon><path id="Path-10-Copy-4" class="cls-61" d="M960.28,598.86l3.26,7.62h35l-13.48-7.09a11.16,11.16,0,0,1-7.45,2.92Q973.77,602.21,960.28,598.86Z"></path></g><path class="cls-62" d="M808.23,462.78q10.17,12.8,105,130.94H892.81L784.25,495.21l-135-20,10.84-38.3q19.89-6,66,1.35C775.53,446.06,803.3,456.58,808.23,462.78Z"></path><path id="Path-25" class="cls-63" d="M650.28,449.37Q645,468.93,672.4,485.45t103.48,19.39q4.07-55.47,64.43-55.47-19-22.5-86.4-25-49.15-3.63-64.23,0Q670.21,429.1,650.28,449.37Z"></path></g><g id="Group-5-Copy-2"><path id="Path-99" class="cls-63" d="M650.28,281.69c-6.8,38.76-51.36,38.78-41.92,71,3.54,12.06,17.36,29.8,36.28,24.79q14.75-3.9,56.09-40.62,13-72.76-3.81-87C680.06,235.65,657.08,242.93,650.28,281.69Z"></path><path id="Path-5" class="cls-45" d="M714.21,301.16q17.55,2.07,23.33,14.41c5.78,12.34,13.89,37.38,22.22,37.38q-9.76,11.18-26,14.82l-22.44-52.2Z"></path><path id="Path-12" class="cls-64" d="M634.85,398.52q22-11.19,30.87-21l-24.59,4.67Z"></path><g id="Group-33"><g id="Group-34"><path id="Path-4" class="cls-45" d="M678.76,303.56C659.29,308,633,316.73,628.1,328.26s-1.09,60.57,6.75,70.26q5.56-14.2,18.21-17.59l12.66-3.38q-28.62,49.56-20.64,76.21,33.12-17.82,63.38-13.05t51.3-18.13Q733.95,407.4,734,377.46c0-29.94-8.63-33.75-12.88-46.92a199.14,199.14,0,0,1-6.86-29.38Q698.22,299.11,678.76,303.56Z"></path></g></g><path id="Path-9" class="cls-65" d="M757.05,355.9l9.39,11.87,51.26-37.86,4.47-7.35c3-4.3,4.77-6.5,5.33-6.6s.23,2.11-1,6.6c2.83-.33,4.69-.79,5.57-1.35,3.92-2.5,7.43-4.56,8.07-4.07,1.24.95-5.47,12.68-12.88,17.59s-51.94,63.46-64.06,63.46q-12.12,0-29.45-30.42Z"></path><path id="Path-2-Copy" class="cls-66" d="M691.05,289.7q1.91,8.64,3.15,14.71c1.24,6.07-1.65,14.51-10.72,13.39S673,307,673.64,302.08q.6-4.87,1.13-16.25Z"></path><path id="Path-2-Copy-2" class="cls-67" d="M691.05,289.7l2.33,10.53q-8.05-1.29-11.4-2.1a38,38,0,0,1-7.93-3.14l.4-6.09Z"></path><path id="Path-6" class="cls-68" d="M638.56,390.8q14.51,23.47,22.36,27.34c5.05,2.48,27.86-4.49,77-17.73a23.7,23.7,0,0,1,5.49-.22,20.26,20.26,0,0,0,9.2-1.92l11.87-5.6H672.1l-6.38-15.12A118,118,0,0,0,651.58,381,24.89,24.89,0,0,0,638.56,390.8Z"></path><g id="Group"><path class="cls-69" d="M675.28,387.23h86.4a2.88,2.88,0,0,1,2.88,2.88h0a2.88,2.88,0,0,1-2.88,2.88h-86.4a2.88,2.88,0,0,1-2.88-2.88h0A2.88,2.88,0,0,1,675.28,387.23Z"></path><path id="Rectangle-Copy-2" class="cls-70" d="M692.56,387.23h69.12a2.88,2.88,0,0,1,2.88,2.88h0a2.88,2.88,0,0,1-2.88,2.88H692.56a2.88,2.88,0,0,1-2.88-2.88h0A2.88,2.88,0,0,1,692.56,387.23Z"></path><path class="cls-71" d="M733.79,325.31h86.89a2.88,2.88,0,0,1,2.88,2.88,2.93,2.93,0,0,1-.23,1.13l-25,58.85A7.93,7.93,0,0,1,791,393H704.11a2.88,2.88,0,0,1-2.88-2.88,2.93,2.93,0,0,1,.23-1.13l25-58.85A7.9,7.9,0,0,1,733.79,325.31Z"></path><path id="Rectangle-Copy" class="cls-69" d="M766.94,352.67h.33a5.7,5.7,0,0,1,5.24,7.92,13,13,0,0,1-12,7.92h-.33a5.68,5.68,0,0,1-5.23-7.92A13,13,0,0,1,766.94,352.67Z"></path></g><path id="Path-Copy-2" class="cls-72" d="M666.52,267.77q-7,.63-7,5.7t7,7q8.38,16.76,21.84,15c2.75-.36,8.25-4.27,10.43-12q1.86-6.56,1.86-20.1l-32.33,1Z"></path></g><path id="Path-21" class="cls-4" d="M577.79,392q95-19,111,74.24T547.7,442.32Z"></path></g></g><g id="Group-2"><rect class="cls-73" x="856.54" y="103" width="198.46" height="323" rx="7.2"></rect><rect id="Rectangle-Copy-30" class="cls-74" x="845" y="103" width="198.46" height="323" rx="7.2"></rect><path class="cls-44" d="M860.23,116.84h30.38a8,8,0,0,1,5.24,2l8.09,7a8,8,0,0,0,5.25,2h57.66a8,8,0,0,0,5.71-2.39l6-6.16a8,8,0,0,1,5.71-2.4h37a6,6,0,0,1,6,6v278.7a6,6,0,0,1-6,6H860.23a6,6,0,0,1-6-6V122.84A6,6,0,0,1,860.23,116.84Z"></path></g><g id="Group-15"><path id="Rectangle-Copy-31" class="cls-45" d="M888.89,346.45H989.75a6,6,0,0,1,6,6v14.32a6,6,0,0,1-6,6H888.89a6,6,0,0,1-6-6V352.45A6,6,0,0,1,888.89,346.45Z"></path><path id="Path" class="cls-34" d="M904.9,359.61h70.68"></path><g id="Group-3"><g id="Group-36-Copy"><path id="Path-2" class="cls-34" d="M900.21,161.23l71.61-.61"></path><path class="cls-34" d="M900.21,171.56l30.52-.62"></path><g id="Group-24"><rect class="cls-75" x="872.49" y="156" width="19.64" height="19.62" rx="4"></rect><g class="cls-76"><circle class="cls-34" cx="882.31" cy="163.5" r="2.89"></circle></g><g class="cls-77"><circle id="Oval-Copy-5" class="cls-34" cx="882.31" cy="176.2" r="5.2"></circle></g></g></g><g id="Group-23-Copy-2"><rect class="cls-78" x="870.18" y="190.63" width="138.6" height="135.05" rx="12"></rect><path id="Path-40-3" data-name="Path-40" class="cls-34" d="M926.61,223h.13l5.21,5.43a9.13,9.13,0,0,0,6.95,2.8,8.72,8.72,0,0,0,6.6-3.42l3.67-4.81h.73a7.29,7.29,0,0,1,7.29,7.29v6.26a7.83,7.83,0,0,1-.27,2l-2.27,8.21a28.31,28.31,0,0,0,1.05,18.08L965,287.74a5.76,5.76,0,0,1-5.34,7.92H919.92a5.76,5.76,0,0,1-5.43-7.68l8-22.61a27.91,27.91,0,0,0,0-18.55l-2.81-8.06a7.71,7.71,0,0,1-.43-2.52v-6A7.29,7.29,0,0,1,926.61,223Z"></path><path id="Path-43" class="cls-34" d="M938.9,231.16v13.19"></path><path id="Path-42" class="cls-34" d="M925,256.67h27.87"></path><path id="Path-42-Copy" class="cls-34" d="M925,261.94h28.52"></path></g><g id="Group-32-Copy-2"><g id="Group-26"><ellipse id="Oval-Copy-6" class="cls-79" cx="1001.3" cy="207.43" rx="16.73" ry="16.67"></ellipse><ellipse class="cls-80" cx="998.95" cy="198.07" rx="16.73" ry="16.67"></ellipse></g><polyline id="Path-44" class="cls-34" points="994.92 198.44 998.55 202.17 1004.16 196.4"></polyline></g></g></g><g id="Group-25-Copy-2"><path class="cls-63" d="M567,139H797a12,12,0,0,1,12,12v50a12,12,0,0,1-12,12H567a12,12,0,0,1-12-12V151A12,12,0,0,1,567,139Z"></path><path id="Star" class="cls-81" d="M707.21,184.44l-2.62,1.38a2.46,2.46,0,0,1-3.32-1,2.42,2.42,0,0,1-.24-1.56l.5-2.92a3.84,3.84,0,0,0-1.11-3.4l-2.12-2.07a2.46,2.46,0,0,1,1.36-4.19l2.93-.43a3.86,3.86,0,0,0,2.9-2.1l1.31-2.65a2.46,2.46,0,0,1,4.41,0l1.31,2.65a3.84,3.84,0,0,0,2.89,2.1l2.93.43a2.45,2.45,0,0,1,1.36,4.19l-2.12,2.07a3.83,3.83,0,0,0-1.1,3.4l.5,2.92a2.45,2.45,0,0,1-2,2.83,2.42,2.42,0,0,1-1.56-.24l-2.62-1.38A3.84,3.84,0,0,0,707.21,184.44Z"></path><path id="Star-Copy" class="cls-81" d="M667.21,184.44l-2.62,1.38a2.46,2.46,0,0,1-3.32-1,2.42,2.42,0,0,1-.24-1.56l.5-2.92a3.84,3.84,0,0,0-1.11-3.4l-2.12-2.07a2.46,2.46,0,0,1,1.36-4.19l2.93-.43a3.86,3.86,0,0,0,2.9-2.1l1.31-2.65a2.46,2.46,0,0,1,4.41,0l1.3,2.65a3.88,3.88,0,0,0,2.9,2.1l2.93.43a2.45,2.45,0,0,1,1.36,4.19l-2.12,2.07a3.83,3.83,0,0,0-1.1,3.4l.5,2.92a2.45,2.45,0,0,1-2,2.83,2.42,2.42,0,0,1-1.56-.24l-2.62-1.38A3.84,3.84,0,0,0,667.21,184.44Z"></path><path id="Star-Copy-2" class="cls-81" d="M627.21,184.44l-2.62,1.38a2.46,2.46,0,0,1-3.32-1,2.42,2.42,0,0,1-.24-1.56l.5-2.92a3.84,3.84,0,0,0-1.11-3.4l-2.12-2.07a2.46,2.46,0,0,1,1.36-4.19l2.93-.43a3.86,3.86,0,0,0,2.9-2.1l1.31-2.65a2.46,2.46,0,0,1,4.41,0l1.3,2.65a3.88,3.88,0,0,0,2.9,2.1l2.93.43a2.45,2.45,0,0,1,1.36,4.19l-2.12,2.07a3.83,3.83,0,0,0-1.1,3.4l.5,2.92a2.45,2.45,0,0,1-2,2.83,2.42,2.42,0,0,1-1.56-.24l-2.62-1.38A3.84,3.84,0,0,0,627.21,184.44Z"></path><path id="Star-Copy-3" class="cls-81" d="M589.21,184.44l-2.62,1.38a2.46,2.46,0,0,1-3.32-1,2.42,2.42,0,0,1-.24-1.56l.5-2.92a3.84,3.84,0,0,0-1.11-3.4l-2.12-2.07a2.46,2.46,0,0,1,1.36-4.19l2.93-.43a3.86,3.86,0,0,0,2.9-2.1l1.31-2.65a2.46,2.46,0,0,1,4.41,0l1.3,2.65a3.88,3.88,0,0,0,2.9,2.1l2.93.43a2.45,2.45,0,0,1,1.36,4.19l-2.12,2.07a3.83,3.83,0,0,0-1.1,3.4l.5,2.92a2.45,2.45,0,0,1-2,2.83,2.42,2.42,0,0,1-1.56-.24l-2.62-1.38A3.84,3.84,0,0,0,589.21,184.44Z"></path><g id="Group-24-Copy"><rect class="cls-1" x="748" y="159" width="34" height="34" rx="4"></rect><g class="cls-82"><circle class="cls-83" cx="765" cy="173" r="5"></circle></g><g class="cls-84"><circle class="cls-83" cx="765" cy="192" r="9"></circle></g></g></g></g></g></svg>