<svg xmlns="http://www.w3.org/2000/svg" xmlns:xlink="http://www.w3.org/1999/xlink" id="Layer_1" data-name="Layer 1" viewBox="0 0 660.58 513.61"><defs><style>.cls-1{fill:url(#Gradiente_sem_nome_69);}.cls-2{fill:#eff1f7;}.cls-3{fill:#87a0f9;}.cls-4{fill:#6182f9;}.cls-5{fill:#cfd1d6;}.cls-6{fill:#12348e;}.cls-7{fill:#fa3e6a;}.cls-8{fill:#f3f6ff;}.cls-9{fill:#fa8aa4;}.cls-10{fill:#fa5a7f;}.cls-11{fill:#666;}.cls-12{fill:#faaeb1;}.cls-13{fill:#fac8ca;}.cls-14{fill:#a1a7ff;}.cls-15{fill:#ff85a1;}.cls-16{fill:#bdcaf9;}.cls-17{fill:#9cb0e6;}.cls-18{fill:#ff668a;}.cls-19{fill:#fff;opacity:0.5;}.cls-20{fill:#5579f9;}.cls-21{fill:#b4b6ba;}.cls-22{fill:#ffb91f;}.cls-23{fill:#fff3e4;}</style><linearGradient id="Gradiente_sem_nome_69" x1="44.58" y1="203.37" x2="622.45" y2="203.37" gradientUnits="userSpaceOnUse"><stop offset="0.16" stop-color="#e08197"></stop><stop offset="1" stop-color="#e08197" stop-opacity="0"></stop></linearGradient></defs><title>The Promising World of Artificial Intelligence (AI)</title><path class="cls-1" d="M284.52,346.54A322.72,322.72,0,0,1,98.8,295.88c-19.61-12.62-38.53-28.26-47.75-49.68-9.28-21.59-7.51-46.46-1.38-69.14,8.54-31.56,27.27-62.68,57.46-75.25,34.88-14.52,74.63-1,112.33-3.39,69.59-4.38,124.24-61.35,191-81.5,50.7-15.31,108.73-7.33,151.29,24.19s67.39,86.78,59.12,139.09c-4.5,28.51-18,54.87-24.19,83.05-4.94,22.29-5.42,45.81-14.46,66.77-17,39.25-60.73,60.84-103.18,65.91a210.47,210.47,0,0,1-153.58-43.31Z"></path><path class="cls-2" d="M0,460c-.2,13,15.84,19.08,28.67,21.45,84.23,15.59,169,31.22,254.62,32.15,70.15.76,140-8.36,209.54-17.47l127.56-16.69c17.52-2.3,39.7-9.41,40.19-27.07.27-10-7.61-18.71-16.78-22.61s-19.46-4-29.43-4c-164.14-.57-329.16-6.53-493.1,2.65C99.88,429.55,0,426.14,0,460Z"></path><rect class="cls-3" x="392.28" y="309.41" width="205.33" height="8.03"></rect><rect class="cls-4" x="404.64" y="317.45" width="5.26" height="135.71"></rect><rect class="cls-3" x="404.64" y="439.11" width="5.26" height="14.05"></rect><rect class="cls-4" x="578.72" y="317.45" width="5.26" height="135.71"></rect><rect class="cls-3" x="578.72" y="439.11" width="5.26" height="14.05"></rect><rect class="cls-5" x="429.04" y="192.51" width="143.59" height="93.04" rx="4"></rect><rect class="cls-3" x="463.58" y="169.96" width="74.49" height="131.59" rx="2" transform="translate(736.58 -265.08) rotate(90)"></rect><polygon class="cls-5" points="519.13 304.91 482.53 304.91 486.53 285.55 516.13 285.55 519.13 304.91"></polygon><path class="cls-5" d="M478.4,304.91h44.87a3,3,0,0,1,3,3V309a0,0,0,0,1,0,0H475.4a0,0,0,0,1,0,0v-1.12a3,3,0,0,1,3-3Z"></path><circle class="cls-6" cx="463.57" cy="224.98" r="15.91" transform="translate(-50.68 192.48) rotate(-22.27)"></circle><path class="cls-7" d="M463.57,209.07V225h15.91A15.91,15.91,0,0,0,463.57,209.07Z"></path><path class="cls-8" d="M452.32,236.23A15.91,15.91,0,0,0,479.48,225H463.57Z"></path><path class="cls-9" d="M620.9,415.05c-1.91-4.21-3.29-8.77-3-13.38s2.44-9.27,6.35-11.74,8.78-2.5,12.59-4.95c2.2-1.41,3.88-3.52,6.07-4.94s5.38-2,7.26-.14,1.4,5.35-.32,7.49-4.25,3.44-6.41,5.13a21.36,21.36,0,0,0-7.45,21.3Z"></path><path class="cls-10" d="M627,412.75a.49.49,0,0,1-.45-.29,14.26,14.26,0,0,1,.72-13.21c2.42-4,6.58-6.6,10.25-8.86a.49.49,0,0,1,.69.16.51.51,0,0,1-.17.69c-3.57,2.2-7.61,4.71-9.91,8.53a13.2,13.2,0,0,0-.68,12.26.51.51,0,0,1-.23.67A.59.59,0,0,1,627,412.75Z"></path><path class="cls-9" d="M605.71,414.58a19.39,19.39,0,0,1-8.17-20.89c1.18-4.35,3.94-8.49,3.36-13-.31-2.38-1.54-4.52-2.28-6.81s-.88-5.05.73-6.83,4.55-1.87,6.68-.75a12.08,12.08,0,0,1,4.72,5.34,29.73,29.73,0,0,1,3,18.2c-.62,4-2.07,8-1.73,12s2.48,7.77,4.56,11.3Z"></path><path class="cls-10" d="M608.67,412.6a.5.5,0,0,1-.3-.11,14.7,14.7,0,0,1-4.75-16,28,28,0,0,1,1.37-3.1,32.2,32.2,0,0,0,1.3-2.95c.81-2.32.71-4.47-.28-5.9a.5.5,0,1,1,.82-.57c1.18,1.7,1.32,4.18.4,6.8a27.91,27.91,0,0,1-1.35,3.05,27.51,27.51,0,0,0-1.31,3A13.66,13.66,0,0,0,609,411.7a.5.5,0,0,1,.09.7A.51.51,0,0,1,608.67,412.6Z"></path><path class="cls-10" d="M606.81,410.63c-2.81-1.16-3.81-4.88-2.93-7.8s3.12-5.2,5.29-7.33,4.46-4.35,5.45-7.23c1.94-5.6-1.48-11.91.14-17.61,1.49-5.22,6.74-8.39,11.8-10.37a16.37,16.37,0,0,1,6.43-1.45,6.71,6.71,0,0,1,5.61,3c1.76,3.05-.05,6.93-2.29,9.65s-5.06,5.33-5.54,8.82c-.42,3.09,1.14,6.07,1.92,9.09a19,19,0,0,1-2.21,14.55c-1.7,2.75-4.08,5-6.13,7.52s-3.85,5.43-4,8.66Z"></path><path class="cls-9" d="M615.55,412.72a.49.49,0,0,1-.44-.26c-1.71-3.2-1.47-7.51.68-12.44.47-1.09,1-2.17,1.52-3.22a22.27,22.27,0,0,0,3.29-13.53c0-1,0-2.14,0-3.21.16-3.7,1.21-6.47,3.11-8.23a.5.5,0,0,1,.71,0,.49.49,0,0,1,0,.7c-1.7,1.58-2.64,4.11-2.79,7.54,0,1,0,2.12,0,3.15a31.22,31.22,0,0,1-.23,5.54,30.87,30.87,0,0,1-3.16,8.45c-.51,1-1,2.11-1.51,3.18-1.41,3.24-2.67,7.87-.71,11.57a.49.49,0,0,1-.2.67A.53.53,0,0,1,615.55,412.72Z"></path><polygon class="cls-3" points="639.18 410.22 596.24 410.22 601.24 453.16 632.18 453.16 639.18 410.22"></polygon><path class="cls-11" d="M159.79,450.72S174.19,458.6,181,460s8.75,5.58,2,7.57S163,466,155.47,466s-10.95,1.8-14.33.6-.46-10.63-.46-10.63Z"></path><path class="cls-11" d="M88.58,452.16s5,8,9.36,12,8.36,8-5.77,9-22.7-3.18-24.09-6,1-15,1-15Z"></path><path class="cls-6" d="M126.88,178.73s-4.27,6-6.56-4.43-11.16-17.81-7.65-26.36,10.21-7.19,10.21-7.19.33-9.93,9.2-9.93,15.28,3.67,20.32,2,12.84-5.5,14.82-2-1.37,8.56-3.51,9.32c0,0,6.72-2.73,6.57,2s-9.17,10.23-18.49,11-20.55,1.2-20.55,1.2Z"></path><path class="cls-6" d="M167.81,276.45a49.29,49.29,0,0,1,0,9.64s3.79,7.35,3.79,20-9.38,122.06-11.81,144.64a44.8,44.8,0,0,1-19.11,5.21s-5.9-50.72-5.9-72.6-2.09-47.25-2.09-47.25-9.89,36.48-21.44,65-22.67,51.12-22.67,51.12-8.34,7.3-19.46,0c0,0,10.42-51.12,13.55-69.18s15.77-91.08,23.13-96.61c0,0-.57-6,.86-9.92Z"></path><path class="cls-12" d="M156,147.28s3.75,11.34,2.41,21.78-4.71,18.33-8.92,18.84-20-2-22.71-12.28-4.54-19.69-3-25.41,11.27-8.07,15.48-8.07S156,147.28,156,147.28Z"></path><path class="cls-12" d="M129.07,173.67a5,5,0,0,1-5.83,2.24c-3.9-1.25-8.39-6.51-5.77-10.86s9.23-1.48,9.23-1.48Z"></path><path class="cls-6" d="M150.8,174.79a.49.49,0,0,1-.5-.46.5.5,0,0,1,.46-.53c2.9-.23,5-.94,4.93-1.3-.19-3.05-4.82-10.12-4.87-10.19a.5.5,0,1,1,.83-.55c.2.3,4.83,7.37,5,10.68.11,1.7-4.05,2.21-5.85,2.35Z"></path><path class="cls-6" d="M146.56,180.59a18.37,18.37,0,0,1-4.94-.68.5.5,0,0,1,.27-1,16.08,16.08,0,0,0,10.94-.65.49.49,0,0,1,.67.21.49.49,0,0,1-.2.67A15.49,15.49,0,0,1,146.56,180.59Z"></path><path class="cls-6" d="M142.35,168.66a.49.49,0,0,1-.5-.44l-.59-5.84a.5.5,0,0,1,.45-.55.51.51,0,0,1,.55.45l.58,5.83a.5.5,0,0,1-.44.55Z"></path><path class="cls-6" d="M156.19,167.29a.49.49,0,0,1-.49-.44l-.69-5.63a.5.5,0,0,1,1-.12l.68,5.63a.5.5,0,0,1-.44.56Z"></path><path class="cls-12" d="M145.07,186a44.4,44.4,0,0,0,0,7c.3,3.82,2,12.07-6,12.68s-14.06-6.42-14.21-11.16,0-21.08,0-21.08h7.94Z"></path><path class="cls-6" d="M131.16,151.91s.84,17.42-3.09,17.5-7.15-12.15-7.15-12.15Z"></path><path class="cls-3" d="M145,188a15.68,15.68,0,0,1,5.84,4.7,99.84,99.84,0,0,1,32.61,7.66c16.17,7.09,37.16-17.94,38.86-21.59l9.47,4.46s-.75,49.73-59.65,52c0,0,4,37.68-3.86,43.6s-56,4.19-62.12,0-4.19-17.25-4.19-17.25-12.89,23.25-15,42.91c0,0-4.69,3.6-13.89,0,0,0-4.62-36.28,6.15-70.53s37.56-41.44,37.56-41.44,3.29-7.68,8.15-9.71c0,0,.47,15.36,14.94,19.83C139.78,202.63,145.66,201,145,188Z"></path><path class="cls-7" d="M145.42,205.15a36.36,36.36,0,0,1-1.35,9.74h-8.94s-2.62-5.43-2.62-8.37l3.75-2.74,3.52-1.15Z"></path><path class="cls-7" d="M144.07,214.89s7,45.67,4.66,59.4c0,0-2.5,5.74-9.88,10.25,0,0-8-6.76-11.08-12.5l7.36-57.15Z"></path><path class="cls-12" d="M222.27,178.73a18,18,0,0,1-2.85-9.32c0-5.23,5.31-4.16,5.31-4.16s1.5-8.38,4.15-14,5.48-5.64,5-.83-3.32,10.26-3.32,10.26,12.12,3.36,12,7.5-.59,12.13-10.75,15Z"></path><path class="cls-13" d="M229.5,178h-.05a.5.5,0,0,1-.45-.54c.37-4-4.4-5.84-4.45-5.86a.5.5,0,0,1,.21-1,13.77,13.77,0,0,0,7.15-1.68c.69-.44.9-.77.87-.93-.17-1-4.67-1.95-6.36-2.32a.52.52,0,0,1-.39-.6.5.5,0,0,1,.6-.38c4.44,1,6.89,1.75,7.13,3.12.18,1-.94,1.72-1.31,2a13.18,13.18,0,0,1-5.79,1.79,6.46,6.46,0,0,1,3.34,6A.49.49,0,0,1,229.5,178Z"></path><path class="cls-14" d="M172.09,235.72h0a.49.49,0,0,1-.49-.5c.09-14.39-4-29.2-4-29.35a.5.5,0,1,1,1-.27c0,.15,4.15,15.1,4.06,29.63A.51.51,0,0,1,172.09,235.72Z"></path><path class="cls-14" d="M101.91,262.07a.54.54,0,0,1-.21-.05.51.51,0,0,1-.24-.67c5.32-11.19,13.36-28.11,6.8-44.79a.51.51,0,0,1,.28-.65.5.5,0,0,1,.65.29c6.72,17.07-1.43,34.23-6.82,45.58A.52.52,0,0,1,101.91,262.07Z"></path><path class="cls-6" d="M117.06,287.69a73.66,73.66,0,0,1-8.43-.26.5.5,0,0,1,.19-1c2.06.4,14.72.22,24,.09,3.66-.06,6.82-.1,8.67-.1,6.32,0,20.58-.28,24.27-1.13a.5.5,0,0,1,.23,1c-3.78.87-18.14,1.15-24.5,1.15-1.84,0-5,0-8.66.1C127.61,287.61,121.75,287.69,117.06,287.69Z"></path><path class="cls-6" d="M132.69,336.58a.36.36,0,0,1-.14,0,.5.5,0,0,1-.34-.62C135,326.82,138,319.07,138,319a.47.47,0,0,1,.25-.27,4.92,4.92,0,0,0,2.4-4.54c0-1.14,0-2.32,0-3.59-.07-2.89-.14-6.15,0-10.41.29-6.11,1.4-7.8,1.53-8a.49.49,0,1,1,.8.58s-1.06,1.63-1.33,7.44c-.19,4.22-.12,7.47,0,10.33,0,1.28,0,2.47,0,3.62a6,6,0,0,1-2.79,5.34c-.45,1.18-3.2,8.37-5.71,16.71A.5.5,0,0,1,132.69,336.58Z"></path><path class="cls-6" d="M126.12,322h-.27a.5.5,0,0,1,.12-1s1.26.1,6.64-.85C146,317.74,147,314.23,147,314.2a.49.49,0,0,1,.58-.39.48.48,0,0,1,.4.56c-.07.43-1.07,4.23-15.16,6.72A44.37,44.37,0,0,1,126.12,322Z"></path><path class="cls-6" d="M162.81,388.42c-4.94,0-6.65-2.29-6.72-2.39a.51.51,0,0,1-.08-.4.5.5,0,0,1,.23-.32c1.36-.8,2.67-2.55,3.94-4.24s2.4-3.21,3.56-3.74a.5.5,0,0,1,.67.24.52.52,0,0,1-.25.67c-.93.43-2,1.89-3.18,3.43a20.75,20.75,0,0,1-3.7,4.15c.72.6,2.52,1.71,6,1.59a.52.52,0,0,1,.51.48.5.5,0,0,1-.48.52Z"></path><path class="cls-6" d="M136.85,390.48a.5.5,0,0,1-.29-.09.51.51,0,0,1-.11-.7c.08-.11,2.09-2.75,9.93-5.58,4.73-1.71,7-4,6.85-5.36-.1-.78-1.1-1.31-2.75-1.46-5.6-.51-12.9-8.93-13.21-9.29a.5.5,0,1,1,.76-.65c.07.08,7.34,8.47,12.55,8.94,2.94.27,3.54,1.57,3.64,2.33.28,2.16-2.67,4.68-7.5,6.43-7.49,2.71-9.45,5.21-9.47,5.24A.47.47,0,0,1,136.85,390.48Z"></path><path class="cls-6" d="M99.62,386.54a.43.43,0,0,1-.19,0L98,385.91c-3.34-1.39-4.23-1.76-4.22-2.53s.72-.94,2.45-1.59c.85-.32,1.92-.72,3.19-1.28,1.45-.64,3.09-1.33,4.82-2.05,5.9-2.47,12.59-5.28,15.81-7.79a.52.52,0,0,1,.71.09.5.5,0,0,1-.09.7c-3.33,2.59-10.08,5.42-16,7.92-1.73.72-3.36,1.41-4.81,2.05-1.29.57-2.37,1-3.24,1.3a15.46,15.46,0,0,0-1.67.69A31,31,0,0,0,98.39,385l1.43.59a.5.5,0,0,1,.26.66A.49.49,0,0,1,99.62,386.54Z"></path><path class="cls-6" d="M86.93,374.36a.5.5,0,0,1-.23-.94c.13-.07,13.31-7.15,20.45-9.67,1.42-.5,1.42-.86,1.42-.87-.06-1.22-7.69-3.19-11.79-4.24-2.16-.56-4.21-1.09-5.68-1.56a.51.51,0,0,1-.33-.63.5.5,0,0,1,.63-.32c1.45.46,3.48,1,5.63,1.54,7.75,2,12.46,3.34,12.54,5.17,0,1-1.17,1.53-2.08,1.85-7.07,2.49-20.19,9.54-20.32,9.61A.5.5,0,0,1,86.93,374.36Z"></path><path class="cls-6" d="M100.6,310c-.6,0-.95,0-1,0a.5.5,0,0,1-.44-.55.5.5,0,0,1,.55-.45c.61.07,15.08,1.45,19.21-16.57a.5.5,0,1,1,1,.22C116.22,308.79,104.12,310,100.6,310Z"></path><path class="cls-6" d="M169.67,308.36a.47.47,0,0,1-.28-.09c-.27-.18-6.63-4.59-10.62-17.16a.5.5,0,0,1,.95-.31c3.89,12.25,10.16,16.6,10.23,16.64a.5.5,0,0,1-.28.92Z"></path><path class="cls-14" d="M159.88,242.92a21.45,21.45,0,0,1-8.41-3.06,2.06,2.06,0,0,1-1-1.53c0-1.88-.63-13.28-.63-13.4a.49.49,0,0,1,.13-.36.48.48,0,0,1,.35-.16c4.79-.13,15-.53,15.12-.54a.53.53,0,0,1,.52.45c.42,4,1.33,13.28.66,14.28s-5.44,4-6.47,4.29A1.09,1.09,0,0,1,159.88,242.92Zm-9-17.53c.13,2.28.61,11.24.61,12.94,0,0,0,.27.49.65,1.91,1.61,7.31,3,7.95,2.94.89-.23,5.35-3.07,5.88-3.87.3-.71-.15-7.17-.78-13.16C163,225,155.21,225.27,150.87,225.39Z"></path><path class="cls-14" d="M155,228.56c-.85,0-1.67,0-2.44-.07a.5.5,0,1,1,.06-1,94.32,94.32,0,0,0,13.1-.63.5.5,0,0,1,.12,1A106.53,106.53,0,0,1,155,228.56Z"></path><path class="cls-12" d="M86.87,304.48s4.16,6.3,4,11.51-2.67,3.81-4-1.7-2.94,3.54-2.83,7.17,1.55,8-2.78,8-8-8.1-8-13,.56-13.1.56-13.1Z"></path><path class="cls-6" d="M157.31,152.14a138.05,138.05,0,0,1-26.07,2.19l-8.36,3.11-4.08-8.15,15.44-11.1L153.06,140l5.67,5.92Z"></path><path class="cls-14" d="M126.64,213l-.13,0c-.34-.09-8.31-2.47-10.32-19.17a.5.5,0,1,1,1-.12c1.7,14.18,7.88,17.61,9.3,18.21,1.41-1.65,8.67-9.86,13.3-9.77,3.63.08,8.46,4.56,10,6.13,2.92-6.71.46-13.87.43-13.95a.5.5,0,1,1,.95-.33c.11.33,2.79,8.09-.78,15.36a.51.51,0,0,1-.37.28.51.51,0,0,1-.44-.15c-.06-.07-6-6.25-9.84-6.34h-.07c-4.57,0-12.59,9.59-12.67,9.69A.53.53,0,0,1,126.64,213Z"></path><path class="cls-15" d="M144.07,215.39h-8.95a.51.51,0,0,1-.5-.5.5.5,0,0,1,.5-.5h8.95a.5.5,0,0,1,.5.5A.5.5,0,0,1,144.07,215.39Z"></path><path class="cls-16" d="M507.29,215.74H485.72a2.05,2.05,0,0,1,0-4.1h21.57a2.05,2.05,0,0,1,0,4.1Z"></path><path class="cls-17" d="M539.45,215.74H517.87a2.05,2.05,0,1,1,0-4.1h21.58a2.05,2.05,0,0,1,0,4.1Z"></path><path class="cls-16" d="M497.71,226.69h-12a2.06,2.06,0,0,1,0-4.11h12a2.06,2.06,0,1,1,0,4.11Z"></path><path class="cls-17" d="M546.81,226.69H508.3a2.06,2.06,0,1,1,0-4.11h38.51a2.06,2.06,0,1,1,0,4.11Z"></path><path class="cls-16" d="M517.67,238.32H485.72a2.06,2.06,0,0,1,0-4.11h31.95a2.06,2.06,0,1,1,0,4.11Z"></path><path class="cls-11" d="M499.15,441.32s-3,4.82-7.64,6.6-1.29,9-1.29,9,10.89-2.45,16.22-4.58,9.41-3.28,3.73-12.57Z"></path><path class="cls-11" d="M492.36,443.07s4.66,9.29,1.81,12-9.95,2.66-16.89,4.8-12.6,6-18.48.89c-2.67-2.31,5.86-3.2,11.91-6.58s6.47-5,8.74-9.63Z"></path><path class="cls-6" d="M476.17,378.52s19,46.72,21.23,55.8l1.75,7s2.57,2.84,11-1.53c0,0,1.23-21-1.61-37.2a158.17,158.17,0,0,0-7.66-28.23Z"></path><path class="cls-6" d="M502,346.05a50.51,50.51,0,0,1-13.34,4.42c-7.16,1.2-35.11,1.86-35.11,25.82s25.95,60.23,25.95,68.22c0,0,5,2.94,12.91-1.44,0,0-.43-7-1.53-20.79s-10.5-42.45-10.5-42.45,35.45,4.38,40-7.66,1.53-26.12,1.53-26.12Z"></path><path class="cls-12" d="M502.45,232.33s.11,3.84.44,6.8c0,0-2,6.68-3.4,9.21s4.27,2.08,4.27,2.08,1.87,9.21,4.06,9.21,8-2.74,8-2.74,8.66-13.49-.77-22.15S502.45,232.33,502.45,232.33Z"></path><path class="cls-7" d="M512.74,265.85s-8.53-.09-18.67,9.41-16.74,25.59-16.74,25.59-5.63-12.09-7.89-15.3c0,0-5.15-3.53-11.43,2.91,0,0-.48,21.57,8.37,32.35s18.58,10.26,26.56,3.54l3.06-2.57s2.68,19.47,4.4,22.69,10.89,5.15,17.65,5.15,24.37.79,34.46-4.59c4.31-2.3,13.76-49.53,8-64.47S519.86,264.1,512.74,265.85Z"></path><path class="cls-6" d="M517.58,208.36c-14.24,2-18.75,16.95-16.72,23.86s9.67,7,11.62,10.27.4,12.36-1.35,21.77,1,23.86,25.08,20.9,29.26-10.65,20-25.53-10.45-16.62-7-24.8S551.36,203.66,517.58,208.36Z"></path><path class="cls-6" d="M536.21,286.16a1.07,1.07,0,0,1-.63-.22c-.4-.33-10-8.09-12.84-15.22-2-5-.69-11.77.48-17.72a66.63,66.63,0,0,0,1.2-7.45c.47-6.53-4.83-11.13-4.88-11.18a1,1,0,0,1,1.3-1.52c.25.21,6.12,5.29,5.57,12.85a66.71,66.71,0,0,1-1.23,7.69c-1.11,5.67-2.38,12.1-.58,16.59,2.66,6.64,12.14,14.32,12.24,14.4a1,1,0,0,1,.15,1.4A1,1,0,0,1,536.21,286.16Z"></path><path class="cls-6" d="M554.05,281.56h-.16a1,1,0,0,1-.83-1.15c.3-1.85-2.45-4.42-7-8.67-.95-.9-2-1.86-3.1-2.92-7-6.64-6.61-12.55-5.17-17.94a1,1,0,1,1,1.93.52c-1.24,4.67-1.91,9.75,4.61,16l3.1,2.91c5.21,4.86,8.08,7.55,7.61,10.45A1,1,0,0,1,554.05,281.56Z"></path><path class="cls-18" d="M496,322.28a.46.46,0,0,1-.33-.13.5.5,0,0,1,0-.71c.14-.15,14.06-15.71,15.33-25.09a.5.5,0,0,1,.57-.42.49.49,0,0,1,.42.56c-1.31,9.68-15,25-15.58,25.62A.5.5,0,0,1,496,322.28Z"></path><path class="cls-18" d="M473.78,309.6a.5.5,0,0,1-.5-.5,12.27,12.27,0,0,1,3.72-8.62.5.5,0,0,1,.66.74,11.53,11.53,0,0,0-3.38,7.88A.5.5,0,0,1,473.78,309.6Z"></path><path class="cls-12" d="M467.88,284.88a8.32,8.32,0,0,0,3.93-6.64c.49-4.88.95-5.16,1.32-6.45s-2.58-2.31-3.78.55-.92,5.26-2.3,4.7.73-10.82-2.12-11.77-9.77,1.63-10.51,6.15-1.27,12.35,4.76,15.95Z"></path><path class="cls-6" d="M492.36,443.57a.49.49,0,0,1-.49-.47c0-.07-.46-7.16-1.54-20.78S480,380.28,479.85,380a.5.5,0,0,1,.32-.63.49.49,0,0,1,.63.32c.1.28,9.44,28.88,10.53,42.56s1.53,20.73,1.53,20.8a.5.5,0,0,1-.46.53Z"></path><path class="cls-6" d="M490.22,457.44a.49.49,0,0,1-.48-.36.5.5,0,0,1,.35-.62,8.84,8.84,0,0,0,3.74-1.8c2.11-2-.67-8.87-1.91-11.37a.49.49,0,0,1,.22-.67.5.5,0,0,1,.67.23c.49,1,4.73,9.7,1.71,12.54a9.82,9.82,0,0,1-4.16,2A.34.34,0,0,1,490.22,457.44Z"></path><rect class="cls-3" x="525.58" y="383.05" width="9.76" height="72.31"></rect><path class="cls-3" d="M561.5,460.48a.77.77,0,0,0,.51-1.33c-7.35-6.57-18.75-10.79-31.55-10.79s-24.2,4.22-31.55,10.79a.77.77,0,0,0,.52,1.33Z"></path><path class="cls-6" d="M525.69,281.94c-8.37,5.79-15.55,25.45-15.52,46.2s10.73,40.64-6.44,41.9-29.79-2.21-31.81,4.32S498,390,536.21,386.45s32.65-15.65,30.88-30-1.77-44.68,6.56-58.06,6.81-20.8-15.15-21.26S529.37,279.39,525.69,281.94Z"></path><path class="cls-3" d="M537.92,303.21a81.67,81.67,0,0,1,1.55-9.35s7.61-2.51,22.86-.92a72.16,72.16,0,0,0-1.7,9.25A130.7,130.7,0,0,0,537.92,303.21Z"></path><path class="cls-17" d="M311.54,47.59a.5.5,0,0,1-.49-.39l-7.16-31.61L298.94,32a.51.51,0,0,1-.52.36.5.5,0,0,1-.45-.44l-3.1-23.13-5.33,31.59a.51.51,0,0,1-.46.42.5.5,0,0,1-.51-.35L283.33,24H247.14a.5.5,0,0,1-.5-.5.5.5,0,0,1,.5-.5H283.7a.49.49,0,0,1,.47.35l4.72,14.77,5.54-32.82a.5.5,0,0,1,.5-.42.5.5,0,0,1,.49.43l3.23,24.12,4.83-16a.48.48,0,0,1,.5-.35.51.51,0,0,1,.47.39l7.08,31.27,6.81-30.88a.51.51,0,0,1,.49-.39.5.5,0,0,1,.49.4L321.15,23h30.41a.5.5,0,0,1,.5.5.5.5,0,0,1-.5.5H320.74a.49.49,0,0,1-.49-.4l-1.44-7.19L312,47.2a.49.49,0,0,1-.49.39Z"></path><rect class="cls-3" x="355.9" y="43.15" width="3.79" height="19.56"></rect><path class="cls-7" d="M357.79,47.09h0a6.23,6.23,0,0,1-6.23-6.23V6.23A6.23,6.23,0,0,1,357.79,0h0A6.23,6.23,0,0,1,364,6.23V40.86A6.23,6.23,0,0,1,357.79,47.09Z"></path><rect class="cls-3" x="242.04" y="43.15" width="3.79" height="19.56"></rect><path class="cls-6" d="M201.42,226.69H409.9a0,0,0,0,1,0,0v6.43a18,18,0,0,1-18,18H219.43a18,18,0,0,1-18-18v-6.43A0,0,0,0,1,201.42,226.69Z"></path><path class="cls-6" d="M219.43,59.38H391.89a18,18,0,0,1,18,18v6.43a0,0,0,0,1,0,0H201.42a0,0,0,0,1,0,0V77.39a18,18,0,0,1,18-18Z"></path><rect class="cls-3" x="274.46" y="251.13" width="62.4" height="21.87"></rect><path class="cls-5" d="M243.19,273H368.13a10,10,0,0,1,10,10V431.69a0,0,0,0,1,0,0H233.22a0,0,0,0,1,0,0V283A10,10,0,0,1,243.19,273Z"></path><rect class="cls-3" x="219.42" y="431.69" width="172.48" height="35.31" rx="17.66"></rect><circle class="cls-6" cx="237.7" cy="449.35" r="12.46" transform="translate(-248.11 299.69) rotate(-45)"></circle><circle class="cls-6" cx="271.61" cy="449.35" r="12.46" transform="translate(-228.32 609.82) rotate(-76.64)"></circle><circle class="cls-6" cx="305.52" cy="449.35" r="12.46" transform="translate(-228.25 347.65) rotate(-45)"></circle><circle class="cls-6" cx="339.43" cy="449.35" r="12.46" transform="translate(-218.32 371.62) rotate(-45)"></circle><circle class="cls-6" cx="373.34" cy="449.35" r="12.46" transform="translate(-150.09 708.79) rotate(-76.64)"></circle><path class="cls-14" d="M373.57,454.15a5,5,0,1,1,5-5A5,5,0,0,1,373.57,454.15Zm0-9.07a4,4,0,1,0,4,4A4,4,0,0,0,373.57,445.08Z"></path><path class="cls-14" d="M237.7,454.38a5,5,0,1,1,5-5A5,5,0,0,1,237.7,454.38Zm0-9.07a4,4,0,1,0,4,4A4,4,0,0,0,237.7,445.31Z"></path><rect class="cls-19" x="201.3" y="91.59" width="208.48" height="127.51"></rect><path class="cls-20" d="M409.78,220.09H201.3a1,1,0,0,1-1-1V91.59a1,1,0,0,1,1-1H409.78a1,1,0,0,1,1,1v127.5A1,1,0,0,1,409.78,220.09Zm-207.48-2H408.78V92.59H202.3Z"></path><path class="cls-8" d="M339.41,143.88H271.67a21.08,21.08,0,0,1-21.09-21.08h0a21.09,21.09,0,0,1,21.09-21.09h67.74A21.09,21.09,0,0,1,360.5,122.8h0A21.08,21.08,0,0,1,339.41,143.88Z"></path><path class="cls-20" d="M339.41,144.88H271.67a22.09,22.09,0,1,1,0-44.17h67.74a22.09,22.09,0,1,1,0,44.17Zm-67.74-42.17a20.09,20.09,0,1,0,0,40.17h67.74a20.09,20.09,0,1,0,0-40.17Z"></path><path class="cls-7" d="M243.93,47.09h0a6.23,6.23,0,0,1-6.23-6.23V6.23A6.23,6.23,0,0,1,243.93,0h0a6.22,6.22,0,0,1,6.23,6.23V40.86A6.22,6.22,0,0,1,243.93,47.09Z"></path><circle class="cls-6" cx="277.7" cy="122.8" r="9.23"></circle><circle class="cls-6" cx="333.38" cy="122.8" r="9.23"></circle><path class="cls-20" d="M318.62,131.82H292.46a1,1,0,0,1,0-2h26.16a1,1,0,0,1,0,2Z"></path><rect class="cls-6" x="260.1" y="157.44" width="14.36" height="50.29"></rect><rect class="cls-7" x="279.29" y="171.39" width="14.36" height="36.34"></rect><rect class="cls-3" x="298.48" y="187.96" width="14.36" height="19.77"></rect><path class="cls-17" d="M346.76,185.53H326.12a2,2,0,0,1,0-3.93h20.64a2,2,0,1,1,0,3.93Z"></path><path class="cls-17" d="M377.54,185.53H356.89a2,2,0,0,1,0-3.93h20.65a2,2,0,0,1,0,3.93Z"></path><path class="cls-17" d="M337.6,196H326.12a2,2,0,0,1,0-3.93H337.6a2,2,0,0,1,0,3.93Z"></path><path class="cls-17" d="M393.72,196h-46a2,2,0,1,1,0-3.93h46a2,2,0,1,1,0,3.93Z"></path><path class="cls-17" d="M356.7,207.13H326.12a2,2,0,0,1,0-3.93H356.7a2,2,0,1,1,0,3.93Z"></path><circle class="cls-6" cx="233.28" cy="147.69" r="7.65"></circle><circle class="cls-6" cx="233.28" cy="147.69" r="15.67"></circle><path class="cls-21" d="M361.45,296.42H249.87a2.73,2.73,0,0,1-2.73-2.73h0a2.74,2.74,0,0,1,2.73-2.74H361.45a2.74,2.74,0,0,1,2.74,2.74h0A2.74,2.74,0,0,1,361.45,296.42Z"></path><path class="cls-21" d="M361.45,307.71H249.87a2.73,2.73,0,0,1-2.73-2.73h0a2.74,2.74,0,0,1,2.73-2.74H361.45a2.74,2.74,0,0,1,2.74,2.74h0A2.74,2.74,0,0,1,361.45,307.71Z"></path><path class="cls-21" d="M361.45,319H249.87a2.74,2.74,0,0,1-2.73-2.74h0a2.73,2.73,0,0,1,2.73-2.73H361.45a2.74,2.74,0,0,1,2.74,2.73h0A2.74,2.74,0,0,1,361.45,319Z"></path><rect class="cls-3" x="247.14" y="332.14" width="12.01" height="12.01"></rect><rect class="cls-3" x="265.6" y="332.14" width="12.01" height="12.01"></rect><rect class="cls-3" x="284.07" y="332.14" width="12.01" height="12.01"></rect><rect class="cls-3" x="247.14" y="348.93" width="12.01" height="12.01"></rect><rect class="cls-3" x="265.6" y="348.93" width="12.01" height="12.01"></rect><rect class="cls-3" x="284.07" y="348.93" width="12.01" height="12.01"></rect><rect class="cls-3" x="247.14" y="366.33" width="12.01" height="12.01"></rect><rect class="cls-3" x="265.6" y="366.33" width="12.01" height="12.01"></rect><rect class="cls-22" x="284.07" y="366.33" width="12.01" height="12.01"></rect><circle class="cls-21" cx="256.62" cy="399.57" r="10.1"></circle><circle class="cls-3" cx="285.37" cy="399.57" r="10.1"></circle><rect class="cls-2" x="309.28" y="332.14" width="54.9" height="46.61" rx="5.57"></rect><path class="cls-22" d="M341.23,355.78h-3.15a9.53,9.53,0,0,0-1.16-2.81l2.22-2.23a.28.28,0,0,0,0-.41l-2.69-2.69a.28.28,0,0,0-.41,0l-2.23,2.22A9.53,9.53,0,0,0,331,348.7v-3.15a.29.29,0,0,0-.3-.29h-3.8a.3.3,0,0,0-.3.29v3.15a9.64,9.64,0,0,0-2.81,1.16l-2.23-2.22a.28.28,0,0,0-.41,0l-2.69,2.69a.28.28,0,0,0,0,.41l2.22,2.23a9.81,9.81,0,0,0-1.16,2.81h-3.15a.3.3,0,0,0-.29.3v3.8a.3.3,0,0,0,.29.3h3.15a9.81,9.81,0,0,0,1.16,2.81l-2.22,2.23a.28.28,0,0,0,0,.41l2.69,2.69a.28.28,0,0,0,.41,0l2.23-2.22a9.64,9.64,0,0,0,2.81,1.16v3.15a.3.3,0,0,0,.3.29h3.8a.29.29,0,0,0,.3-.29v-3.15a9.53,9.53,0,0,0,2.81-1.16l2.23,2.22a.28.28,0,0,0,.41,0l2.69-2.69a.28.28,0,0,0,0-.41L336.92,363a9.53,9.53,0,0,0,1.16-2.81h3.15a.3.3,0,0,0,.29-.3v-3.8A.3.3,0,0,0,341.23,355.78Zm-12.43,7.34a5.14,5.14,0,1,1,5.14-5.14A5.14,5.14,0,0,1,328.8,363.12Z"></path><path class="cls-22" d="M357.24,349.79l-2.13-.55a6.71,6.71,0,0,0-.3-2.1L356.7,346a.2.2,0,0,0,.07-.28l-1.35-2.28a.2.2,0,0,0-.28-.07l-1.89,1.12a6.5,6.5,0,0,0-1.69-1.28l.54-2.12a.2.2,0,0,0-.14-.25l-2.57-.66a.2.2,0,0,0-.25.14l-.55,2.13a6.71,6.71,0,0,0-2.1.3l-1.11-1.89a.2.2,0,0,0-.28-.07l-2.29,1.35a.21.21,0,0,0-.07.28l1.12,1.89a6.5,6.5,0,0,0-1.28,1.69l-2.12-.55a.21.21,0,0,0-.25.15l-.66,2.57a.21.21,0,0,0,.15.25l2.12.55a6.71,6.71,0,0,0,.3,2.1l-1.89,1.11a.2.2,0,0,0-.07.28l1.35,2.29a.21.21,0,0,0,.28.07l1.89-1.12a6.5,6.5,0,0,0,1.69,1.28l-.54,2.12a.2.2,0,0,0,.14.25l2.57.66a.21.21,0,0,0,.25-.15l.55-2.12a6.71,6.71,0,0,0,2.1-.3l1.11,1.89a.21.21,0,0,0,.29.07l2.28-1.35a.2.2,0,0,0,.07-.28l-1.12-1.89a6.5,6.5,0,0,0,1.28-1.69l2.12.54a.21.21,0,0,0,.25-.14l.66-2.57A.2.2,0,0,0,357.24,349.79Zm-9.67,2.8a3.59,3.59,0,1,1,4.37-2.58A3.6,3.6,0,0,1,347.57,352.59Z"></path><path class="cls-17" d="M409.9,77.89H348.73a.5.5,0,0,1-.43-.24l-7.18-12.3H268.74l-8.22,12.32a.51.51,0,0,1-.42.22H201.42a.5.5,0,0,1-.5-.5.5.5,0,0,1,.5-.5h58.41l8.22-12.31a.52.52,0,0,1,.42-.23h72.94a.5.5,0,0,1,.43.25L349,76.89H409.9a.5.5,0,0,1,.5.5A.5.5,0,0,1,409.9,77.89Z"></path><path class="cls-17" d="M324.16,74.11H284.31a.5.5,0,0,1,0-1h39.85a.5.5,0,0,1,0,1Z"></path><path class="cls-22" d="M522.5,91.5a42.69,42.69,0,1,0-85.37,0A42.08,42.08,0,0,0,443,112.67a49.35,49.35,0,0,0,6.79,8.84c2.45,2.6,5.74,4.29,8.07,7,2,2.32,2.25,5.12,3.22,7.9a8.49,8.49,0,0,0,8,5.68h21.52a8.47,8.47,0,0,0,8-5.64c.83-2.33,1.4-5.29,2.69-7.38,1.6-2.6,5.19-3.93,7.4-6a44.75,44.75,0,0,0,7.39-9A43.31,43.31,0,0,0,522.5,91.5Z"></path><path class="cls-23" d="M492.66,64.85a3.25,3.25,0,0,1-1.32-.27,30,30,0,0,0-3-1.1,3.35,3.35,0,0,1,2-6.41,38.09,38.09,0,0,1,3.7,1.35,3.35,3.35,0,0,1-1.33,6.43Z"></path><path class="cls-23" d="M512.44,94.85a3.35,3.35,0,0,1-3.35-3.35,29,29,0,0,0-9.16-21.26,3.35,3.35,0,0,1,4.6-4.87A36.14,36.14,0,0,1,515.8,91.5,3.35,3.35,0,0,1,512.44,94.85Z"></path><path class="cls-2" d="M470.21,105.32a7.66,7.66,0,0,1-4.29-1.3l-3.82-2.55a1.81,1.81,0,0,1,2-3l3.83,2.56a4.13,4.13,0,0,0,4.65-.07l2.84-2a7.72,7.72,0,0,1,9,0l2.64,1.91a4.13,4.13,0,0,0,4.68.09l4.15-2.75a1.81,1.81,0,0,1,2,3L493.73,104a7.76,7.76,0,0,1-8.8-.18l-2.64-1.91a4.12,4.12,0,0,0-4.78,0l-2.84,2A7.69,7.69,0,0,1,470.21,105.32Z"></path><path class="cls-2" d="M470.4,145.34a1.81,1.81,0,0,1-1.78-1.51L461,98.16a1.81,1.81,0,0,1,3.57-.6l7.66,45.67a1.81,1.81,0,0,1-1.49,2.08A1.53,1.53,0,0,1,470.4,145.34Z"></path><path class="cls-2" d="M489.32,145.34a1.73,1.73,0,0,1-.32,0,1.81,1.81,0,0,1-1.47-2.09l7.87-45.54a1.81,1.81,0,1,1,3.57.61l-7.87,45.54A1.83,1.83,0,0,1,489.32,145.34Z"></path><rect class="cls-5" x="464.41" y="142.07" width="30.8" height="18.3" rx="2.88"></rect><rect class="cls-5" x="470.31" y="142.07" width="19" height="25.31" rx="8.35"></rect><rect class="cls-2" x="464.41" y="145.85" width="30.8" height="3.62"></rect><rect class="cls-2" x="464.41" y="152.91" width="30.8" height="3.62"></rect><path class="cls-3" d="M480,40.27a2,2,0,0,1-1.95-2v-13a1.95,1.95,0,0,1,3.9,0v13A2,2,0,0,1,480,40.27Z"></path><path class="cls-3" d="M508.4,48.94a2,2,0,0,1-1.47-.28,2,2,0,0,1-.56-2.71l7.1-10.85a2,2,0,1,1,3.27,2.13l-7.1,10.86A2,2,0,0,1,508.4,48.94Z"></path><path class="cls-3" d="M536,62.9l-11.4,6.19a2,2,0,1,1-1.86-3.44l11.4-6.19A2,2,0,0,1,536,62.9Z"></path><path class="cls-3" d="M452.26,48.94a2,2,0,0,0,2-3l-7.1-10.85a2,2,0,1,0-3.27,2.13L451,48.09A2,2,0,0,0,452.26,48.94Z"></path><path class="cls-3" d="M424.7,62.9l11.4,6.19A2,2,0,0,0,438,65.65l-11.4-6.19a2,2,0,1,0-1.86,3.44Z"></path></svg>