<svg xmlns="http://www.w3.org/2000/svg" xmlns:xlink="http://www.w3.org/1999/xlink" id="Layer_1" data-name="Layer 1" viewBox="0 0 796 612"><defs><style>.cls-1,.cls-2{fill:#fff;}.cls-2,.cls-20,.cls-23,.cls-28,.cls-3,.cls-30,.cls-33,.cls-34,.cls-36,.cls-37,.cls-38,.cls-40,.cls-41,.cls-44,.cls-46,.cls-48,.cls-5,.cls-53,.cls-7{fill-rule:evenodd;}.cls-3{fill:url(#Gradiente_sem_nome_69);}.cls-4{fill:url(#Gradiente_sem_nome_69-2);}.cls-14,.cls-5{fill:#a1a7ff;}.cls-6{mask:url(#mask);}.cls-10,.cls-7{fill:#12348e;}.cls-8{mask:url(#mask-2);}.cls-9{fill:none;stroke:#12348e;stroke-miterlimit:10;}.cls-11{fill:#fa3e6a;}.cls-12{mask:url(#mask-6);}.cls-13{mask:url(#mask-7);}.cls-15{fill:#eff2ff;}.cls-16{fill:#455a94;}.cls-17{mask:url(#mask-11);}.cls-18{mask:url(#mask-12);}.cls-19{mask:url(#mask-13);}.cls-20{fill:#ee9a89;}.cls-21{mask:url(#mask-14);}.cls-22{mask:url(#mask-15);}.cls-23{fill:#ffb91f;}.cls-24{mask:url(#mask-16);}.cls-25{mask:url(#mask-17);}.cls-26{mask:url(#mask-18);}.cls-27{mask:url(#mask-19);}.cls-28{fill:#ffca23;}.cls-29{mask:url(#mask-20);}.cls-30{fill:#c17262;}.cls-31{mask:url(#mask-21);}.cls-32{fill:#352324;}.cls-33{fill:#553d3f;}.cls-34{fill:#8f4447;}.cls-35{mask:url(#mask-22);}.cls-36{fill:#0a0c15;}.cls-37{fill:#022329;}.cls-38{fill:#f4bcc1;}.cls-39{mask:url(#mask-23);}.cls-40{fill:#fd9493;}.cls-41{fill:#ffc6cb;}.cls-42{mask:url(#mask-24);}.cls-43{mask:url(#mask-25);}.cls-44{fill:#742e1b;}.cls-45{mask:url(#mask-26);}.cls-46{fill:#ff668a;}.cls-47{mask:url(#mask-29);}.cls-48{fill:#f8faff;}.cls-49{mask:url(#mask-30);}.cls-50{fill:#2e3c72;}.cls-51{mask:url(#mask-32);}.cls-52{mask:url(#mask-33);}.cls-53{fill:#e63e4e;}.cls-54{mask:url(#mask-39);}.cls-55{mask:url(#mask-40);}.cls-56{mask:url(#mask-41);}.cls-57{mask:url(#mask-42);}.cls-58{mask:url(#mask-43);}</style><linearGradient id="Gradiente_sem_nome_69" x1="96" y1="193.5" x2="695" y2="193.5" gradientUnits="userSpaceOnUse"><stop offset="0.16" stop-color="#e08197"></stop><stop offset="1" stop-color="#e08197" stop-opacity="0"></stop></linearGradient><linearGradient id="Gradiente_sem_nome_69-2" x1="0" y1="569" x2="796" y2="569" xlink:href="#Gradiente_sem_nome_69"></linearGradient><mask id="mask" x="215.43" y="53" width="359.69" height="217.51" maskUnits="userSpaceOnUse"><g id="scene-7-b"><rect id="scene-7-a" class="cls-1" x="225" y="53" width="338.95" height="217.51" rx="8.28"></rect></g></mask><mask id="mask-2" x="225" y="53" width="338.95" height="217.51" maskUnits="userSpaceOnUse"><g id="scene-7-b-2" data-name="scene-7-b"><rect id="scene-7-a-2" data-name="scene-7-a" class="cls-1" x="225" y="53" width="338.95" height="217.51" rx="8.28"></rect></g></mask><mask id="mask-6" x="450" y="136" width="140.14" height="159.39" maskUnits="userSpaceOnUse"><g id="scene-7-o"><rect id="scene-7-m" class="cls-1" x="450" y="136" width="140.14" height="159.39" rx="7.7"></rect></g></mask><mask id="mask-7" x="446.92" y="136" width="143.22" height="159.39" maskUnits="userSpaceOnUse"><g id="scene-7-o-2" data-name="scene-7-o"><rect id="scene-7-m-2" data-name="scene-7-m" class="cls-1" x="450" y="136" width="140.14" height="159.39" rx="7.7"></rect></g></mask><mask id="mask-11" x="143.5" y="447" width="56.8" height="39.36" maskUnits="userSpaceOnUse"><g id="scene-7-u"><path id="scene-7-t" class="cls-2" d="M144.05,486.14q-2.93-18.94,9.64-29.63c12.55-10.68,24.92-10.53,33.44-8.28q8.51,2.25,13,8.28-12.79,1.39-18.82,5.31c-6,3.91-6.66,9.24-20,13Q147.95,478.54,144.05,486.14Z"></path></g></mask><mask id="mask-12" x="110.2" y="370.59" width="35.94" height="100.17" maskUnits="userSpaceOnUse"><g id="scene-7-w"><path id="scene-7-v" class="cls-2" d="M136.4,470.73q-11-6.9-9.94-18.47c1-11.59-11.22-18.31-11.22-36.84s1.89-25.1-4.74-44.42q19.56,5.7,27.87,21.47c8.29,15.78,4.33,25.23,7.22,45.17Q148.47,457.58,136.4,470.73Z"></path></g></mask><mask id="mask-13" x="80.41" y="433" width="45.17" height="52.53" maskUnits="userSpaceOnUse"><g id="scene-7-y"><path id="scene-7-x" class="cls-2" d="M123.28,485.41q-10.86,0-15.14-10.39c-4.28-10.35-10.5-10.4-14.63-22.94q-4.14-12.54-13-15.58a21.51,21.51,0,0,1,20.29-1.74c10.49,4.23,11.88,13.24,20,23.38Q128.89,468.28,123.28,485.41Z"></path></g></mask><mask id="mask-14" x="619.24" y="304" width="94.62" height="234.18" maskUnits="userSpaceOnUse"><g id="scene-7-C"><path id="scene-7-B-6" data-name="scene-7-B" class="cls-2" d="M702.87,309.3q15.61,27-.76,102.49c-3,13.65-5.2,24.56-10.74,34.76s-12,22.8-17.1,32.95q-10.34,20.67-30,58.68-10.56,0-17.25-5.67t-7.8-10.71l20.62-43.38q-1.36-12.76-1.65-18.08c-.28-5.56,0-10.55,0-14.31,0-11-13.49-66.57-13.49-95.77q0-29.19,8-40.26Z"></path></g></mask><mask id="mask-15" x="619.24" y="309.3" width="91.25" height="228.88" maskUnits="userSpaceOnUse"><g id="scene-7-C-2" data-name="scene-7-C"><path id="scene-7-B-7" data-name="scene-7-B" class="cls-2" d="M702.87,309.3q15.61,27-.76,102.49c-3,13.65-5.2,24.56-10.74,34.76s-12,22.8-17.1,32.95q-10.34,20.67-30,58.68-10.56,0-17.25-5.67t-7.8-10.71l20.62-43.38q-1.36-12.76-1.65-18.08c-.28-5.56,0-10.55,0-14.31,0-11-13.49-66.57-13.49-95.77q0-29.19,8-40.26Z"></path></g></mask><mask id="mask-16" x="605.05" y="188.78" width="118.91" height="124.31" maskUnits="userSpaceOnUse"><g id="scene-7-E"><path id="scene-7-D" class="cls-2" d="M607.6,221.41c1.44-11.65,3.32-22.77,8.33-24.61s24.83-8,35.81-8,47.51,3.23,60.6,8,13.33,69.06,9.39,74.72-7,4.74-20.42,5a111.39,111.39,0,0,1,1.56,11.94q.33,7,0,20.86-20.58,3.12-33.1,3.24T632.27,310a139.31,139.31,0,0,1-3.83-18.4,111.16,111.16,0,0,1,0-17.29q-18.3,7-21.77-2.79C603.2,261.73,606.15,233.06,607.6,221.41Z"></path></g></mask><mask id="mask-17" x="605.05" y="188.78" width="118.91" height="123.77" maskUnits="userSpaceOnUse"><g id="scene-7-E-2" data-name="scene-7-E"><path id="scene-7-D-2" data-name="scene-7-D" class="cls-2" d="M607.6,221.41c1.44-11.65,3.32-22.77,8.33-24.61s24.83-8,35.81-8,47.51,3.23,60.6,8,13.33,69.06,9.39,74.72-7,4.74-20.42,5a111.39,111.39,0,0,1,1.56,11.94q.33,7,0,20.86-20.58,3.12-33.1,3.24T632.27,310a139.31,139.31,0,0,1-3.83-18.4,111.16,111.16,0,0,1,0-17.29q-18.3,7-21.77-2.79C603.2,261.73,606.15,233.06,607.6,221.41Z"></path></g></mask><mask id="mask-18" x="603.29" y="188.78" width="120.67" height="123.77" maskUnits="userSpaceOnUse"><g id="scene-7-E-3" data-name="scene-7-E"><path id="scene-7-D-3" data-name="scene-7-D" class="cls-2" d="M607.6,221.41c1.44-11.65,3.32-22.77,8.33-24.61s24.83-8,35.81-8,47.51,3.23,60.6,8,13.33,69.06,9.39,74.72-7,4.74-20.42,5a111.39,111.39,0,0,1,1.56,11.94q.33,7,0,20.86-20.58,3.12-33.1,3.24T632.27,310a139.31,139.31,0,0,1-3.83-18.4,111.16,111.16,0,0,1,0-17.29q-18.3,7-21.77-2.79C603.2,261.73,606.15,233.06,607.6,221.41Z"></path></g></mask><mask id="mask-19" x="605.05" y="188.78" width="120.38" height="123.77" maskUnits="userSpaceOnUse"><g id="scene-7-E-4" data-name="scene-7-E"><path id="scene-7-D-4" data-name="scene-7-D" class="cls-2" d="M607.6,221.41c1.44-11.65,3.32-22.77,8.33-24.61s24.83-8,35.81-8,47.51,3.23,60.6,8,13.33,69.06,9.39,74.72-7,4.74-20.42,5a111.39,111.39,0,0,1,1.56,11.94q.33,7,0,20.86-20.58,3.12-33.1,3.24T632.27,310a139.31,139.31,0,0,1-3.83-18.4,111.16,111.16,0,0,1,0-17.29q-18.3,7-21.77-2.79C603.2,261.73,606.15,233.06,607.6,221.41Z"></path></g></mask><mask id="mask-20" x="645.33" y="168.48" width="41.78" height="33.99" maskUnits="userSpaceOnUse"><g id="scene-7-G"><path id="scene-7-F" class="cls-2" d="M654.22,171.38q-.08,10.58-1.43,13.84t-7.46,3.45q6.36,13.8,19.39,13.8t22.39-10.84l-3-.64c-4.25-1-6.69-2.77-7.6-5.77q-1.63-5.41-.77-13.84Z"></path></g></mask><mask id="mask-21" x="643.97" y="171.38" width="45.04" height="32.27" maskUnits="userSpaceOnUse"><g id="scene-7-G-2" data-name="scene-7-G"><path id="scene-7-F-2" data-name="scene-7-F" class="cls-2" d="M654.22,171.38q-.08,10.58-1.43,13.84t-7.46,3.45q6.36,13.8,19.39,13.8t22.39-10.84l-3-.64c-4.25-1-6.69-2.77-7.6-5.77q-1.63-5.41-.77-13.84Z"></path></g></mask><mask id="mask-22" x="658.75" y="164.42" width="13.91" height="6.27" maskUnits="userSpaceOnUse"><g id="scene-7-I"><path id="scene-7-H" class="cls-2" d="M659.87,167.23q5.77,6.92,11.68,0Z"></path></g></mask><mask id="mask-23" x="205.66" y="408.18" width="39.39" height="154.35" maskUnits="userSpaceOnUse"><g id="scene-7-K"><path id="scene-7-J" class="cls-2" d="M205.66,414.94a45.88,45.88,0,0,0,1.49,12.81q-2.1,30,6.84,56.07c8.94,26.05,11.14,36.24,10,45.56A4.29,4.29,0,0,0,225,533q-.78,23.58.64,26.37c1.43,2.79,8.57,5.06,19.45.82l-2.51-7.57q-.14-13.82-2-20.78c-1.87-7,0-8.1-.75-10.42s-3.78-4.34-4.69-10.37-2.59-46.46-2.59-57.39q0-10.94-3.22-44.05H205.66Z"></path></g></mask><mask id="mask-24" x="223.98" y="408.38" width="42.58" height="156.16" maskUnits="userSpaceOnUse"><g id="scene-7-M-6" data-name="scene-7-M"><path id="scene-7-L" class="cls-2" d="M224,410.66a62.06,62.06,0,0,0,5.25,24.2q3,35.06,11.25,52.09c8.21,17,6.54,40.83,6.54,42.28s1.68,2.89,1.68,5.48,0,19.8-2.57,25.51q4.44,6.28,17.91,3.42c2.94-.84,3.27-2.33,1.18-11.16s-2.87-17.35-2.48-20.8,1-4.88-1-7.81-4.45-34.14-4.45-60.71-7.74-36.41-8.62-39.13l2.21-13.37Z"></path></g></mask><mask id="mask-25" x="189.2" y="291.69" width="87.71" height="121.53" maskUnits="userSpaceOnUse"><g id="scene-7-O-6" data-name="scene-7-O"><path id="scene-7-N" class="cls-2" d="M202.73,292.4h52.92q20,35.12,14.42,63.8a371.38,371.38,0,0,0-6.59,57A259.34,259.34,0,0,0,228,409.65q-19.2-.72-29.45,3.57-11.65-38.25-8.83-68.14T202.73,292.4Z"></path></g></mask><mask id="mask-26" x="313.91" y="190" width="44.66" height="36.54" maskUnits="userSpaceOnUse"><g id="scene-7-Q"><path id="scene-7-P" class="cls-2" d="M327.28,219.53c1.89-2.08,13.53-3.71,17.49-4.45,2.49-.46,8.47-4.82,13.49-14.34.64-1.21.27-2-1.09-2.32,1-2.28.83-3.83-.43-4.66,1.45-2.57.77-3.76-.73-3.76s-7.91,9.16-12.3,11.92a15.86,15.86,0,0,1-10.22,2.2c2.16-2.71,5.22-7.22,3.71-7.22s-8,4.59-11.83,7.79q-3.83,3.19-11.46,17.34l9.29,4.51A27.55,27.55,0,0,1,327.28,219.53Z"></path></g></mask><mask id="mask-29" x="141" y="197.96" width="185.77" height="126.63" maskUnits="userSpaceOnUse"><g id="scene-7-S"><path id="scene-7-R" class="cls-2" d="M272.29,323.68q-16.32,1.83-24.89,0t-6.12-28.11H216q2.81,26.69,0,28.11t-27.4,0l10.89-33.92q-2.28-17.42-6.1-50-27.88,21.41-29.4,23.36t25.51,31.15a58,58,0,0,0-7.16,5.17,71.18,71.18,0,0,0-5.12,5.54s-31.56-26.75-36-38.7,44.11-54.71,50.11-58.34q3.57-2.15,23.09-7.18,32.21-.06,32.58,0c14.55,2.65,23.78,8,27.18,15q5.25,10.72,15.34,33l24.25-33a17.93,17.93,0,0,0,5.22,5.79,27.29,27.29,0,0,0,7.72,4Q296,276.24,287.55,276.23t-24.09-26.29l-2.24,36.65Z"></path></g></mask><mask id="mask-30" x="214.48" y="197.96" width="32.84" height="98.94" maskUnits="userSpaceOnUse"><g id="scene-7-U-2" data-name="scene-7-U"><path id="scene-7-T-2" data-name="scene-7-T" class="cls-2" d="M214.48,200.75q4.44,33.28,4.81,46.71C220,272,216.62,289.2,217,296.9h24.31q-1.06-32,0-49.44t6-49.5Z"></path></g></mask><mask id="mask-32" x="211.91" y="197.96" width="35.4" height="99.95" maskUnits="userSpaceOnUse"><g id="scene-7-U-4" data-name="scene-7-U"><path id="scene-7-T-4" data-name="scene-7-T" class="cls-2" d="M214.48,200.75q4.44,33.28,4.81,46.71C220,272,216.62,289.2,217,296.9h24.31q-1.06-32,0-49.44t6-49.5Z"></path></g></mask><mask id="mask-33" x="141" y="200.75" width="185.77" height="123.84" maskUnits="userSpaceOnUse"><g id="scene-7-S-2" data-name="scene-7-S"><path id="scene-7-R-2" data-name="scene-7-R" class="cls-2" d="M272.29,323.68q-16.32,1.83-24.89,0t-6.12-28.11H216q2.81,26.69,0,28.11t-27.4,0l10.89-33.92q-2.28-17.42-6.1-50-27.88,21.41-29.4,23.36t25.51,31.15a58,58,0,0,0-7.16,5.17,71.18,71.18,0,0,0-5.12,5.54s-31.56-26.75-36-38.7,44.11-54.71,50.11-58.34q3.57-2.15,23.09-7.18,32.21-.06,32.58,0c14.55,2.65,23.78,8,27.18,15q5.25,10.72,15.34,33l24.25-33a17.93,17.93,0,0,0,5.22,5.79,27.29,27.29,0,0,0,7.72,4Q296,276.24,287.55,276.23t-24.09-26.29l-2.24,36.65Z"></path></g></mask><mask id="mask-39" x="179.48" y="282.44" width="44.67" height="26.32" maskUnits="userSpaceOnUse"><g id="scene-7-W-2" data-name="scene-7-W"><path id="scene-7-V-2" data-name="scene-7-V" class="cls-2" d="M188.28,295.11l4.68,2.52q6.63-6.66,8.45-7.17t4.14-1.14q3.15-4.56,5.57-5.39a49.6,49.6,0,0,1,9.38-1.49c.48,1.94-.27,3.13-2.27,3.57-3,.65-5.53.77-6.32,1.84q8.91,2.34,12.23,7.81c.08,1.32-.59,2-2,2,.05,1.61-.93,2.12-3,1.51a38.81,38.81,0,0,1-5-2.48,8.68,8.68,0,0,0-4.21-.6l7.77,5.31c-1.08,1.3-2.54,1.55-4.38.77s-3.77-1.69-5.81-2.71c-2.92.42-4.66.64-5.25.64-.87,0-4,8.94-8.61,8.64q-4.66-.28-14.19-6.27a26.51,26.51,0,0,1,3.92-4Q185.08,297.15,188.28,295.11Z"></path></g></mask><mask id="mask-40" x="178.7" y="282.44" width="45.45" height="26.32" maskUnits="userSpaceOnUse"><g id="scene-7-W-3" data-name="scene-7-W"><path id="scene-7-V-3" data-name="scene-7-V" class="cls-2" d="M188.28,295.11l4.68,2.52q6.63-6.66,8.45-7.17t4.14-1.14q3.15-4.56,5.57-5.39a49.6,49.6,0,0,1,9.38-1.49c.48,1.94-.27,3.13-2.27,3.57-3,.65-5.53.77-6.32,1.84q8.91,2.34,12.23,7.81c.08,1.32-.59,2-2,2,.05,1.61-.93,2.12-3,1.51a38.81,38.81,0,0,1-5-2.48,8.68,8.68,0,0,0-4.21-.6l7.77,5.31c-1.08,1.3-2.54,1.55-4.38.77s-3.77-1.69-5.81-2.71c-2.92.42-4.66.64-5.25.64-.87,0-4,8.94-8.61,8.64q-4.66-.28-14.19-6.27a26.51,26.51,0,0,1,3.92-4Q185.08,297.15,188.28,295.11Z"></path></g></mask><mask id="mask-41" x="201.9" y="133" width="58.4" height="71.87" maskUnits="userSpaceOnUse"><g id="scene-7-Y-2" data-name="scene-7-Y"><path id="scene-7-X-2" data-name="scene-7-X" class="cls-2" d="M238.37,197.51c28.88,3.94,24.49-20.58,13.62-44.44q-5.62-19.65-14.81-16.47-2.6-4.15-6.71-3.52c-4.11.63-19.84,3.77-23.16,27.51-9.47,27.54-7,35.23,11.25,36.92Q236.62,199.18,238.37,197.51Z"></path></g></mask><mask id="mask-42" x="214.48" y="182.98" width="32.4" height="26.8" maskUnits="userSpaceOnUse"><g id="scene-7-aa"><path id="scene-7-Z" class="cls-2" d="M223,185.18q.12,8.23-1.07,11.48t-7.41,4.12q6,9,15.67,9t16.73-9q-7.83-1.09-8.58-4.12t-.57-11.48Z"></path></g></mask><mask id="mask-43" x="226" y="177" width="9.71" height="4.47" maskUnits="userSpaceOnUse"><g id="scene-7-ac"><path id="scene-7-ab" class="cls-2" d="M226.78,179q4,4.91,8.15,0Z"></path></g></mask></defs><title>The Power of Analytics</title><path class="cls-3" d="M476.36,7.2C310.09-32.7,122.17,100.33,99.33,230s76.2,166.63,160.81,147.74,110.32-15.4,226.17,4.91S670.82,351.32,691.46,253,642.63,47.11,476.36,7.2"></path><ellipse class="cls-4" cx="398" cy="569" rx="398" ry="43"></ellipse><path class="cls-5" d="M555.67,53A8.28,8.28,0,0,1,564,61.28v201a8.27,8.27,0,0,1-8.28,8.28H233.28a8.28,8.28,0,0,1-8.28-8.28v-201A8.28,8.28,0,0,1,233.28,53"></path><g class="cls-6"><polyline class="cls-7" points="575.12 53 575.12 87.26 215.43 87.26 215.43 53"></polyline></g><g class="cls-8"><ellipse class="cls-1" cx="250.12" cy="70.13" rx="3.59" ry="3.59"></ellipse></g><g class="cls-8"><ellipse class="cls-1" cx="265.28" cy="70.13" rx="3.59" ry="3.59"></ellipse></g><g class="cls-8"><ellipse class="cls-1" cx="280.43" cy="70.13" rx="3.59" ry="3.59"></ellipse></g><g class="cls-8"><path class="cls-9" d="M381.32,59h26.37"></path></g><polygon class="cls-2" points="297.89 153.7 317.3 166.28 315.01 169.8 295.6 157.22 297.89 153.7"></polygon><polygon class="cls-2" points="358.52 139 376.8 144.82 375.48 148.8 357.2 142.99 358.52 139"></polygon><polygon class="cls-2" points="406.08 122.2 409 125.25 388.12 146 385.2 142.95 406.08 122.2"></polygon><polygon class="cls-2" points="345.71 142.5 348.8 145.33 327.38 168.4 324.3 165.57 345.71 142.5"></polygon><path class="cls-10" d="M291.51,179.45A8.51,8.51,0,0,1,300,188v44a8.51,8.51,0,1,1-17,0V188A8.51,8.51,0,0,1,291.51,179.45Z"></path><path class="cls-10" d="M321.73,199.05a8.51,8.51,0,0,1,8.51,8.51v24.38a8.51,8.51,0,1,1-17,0V207.56A8.51,8.51,0,0,1,321.73,199.05Z"></path><path class="cls-10" d="M352,166.38a8.51,8.51,0,0,1,8.51,8.51v57.05a8.51,8.51,0,0,1-17,0V174.89A8.51,8.51,0,0,1,352,166.38Z"></path><path class="cls-10" d="M382.17,176.18a8.51,8.51,0,0,1,8.51,8.52v47.24a8.51,8.51,0,0,1-17,0V184.7A8.51,8.51,0,0,1,382.17,176.18Z"></path><path class="cls-10" d="M412.39,146.78a8.51,8.51,0,0,1,8.51,8.51v76.65a8.51,8.51,0,0,1-17,0V155.29A8.51,8.51,0,0,1,412.39,146.78Z"></path><path class="cls-11" d="M299.8,152.3a8.4,8.4,0,1,1-8.4-8.4A8.4,8.4,0,0,1,299.8,152.3Zm121.1-32.9a8.4,8.4,0,1,1-8.4-8.4A8.4,8.4,0,0,1,420.9,119.4Zm-30.1,29.4a8.4,8.4,0,1,1-8.4-8.4A8.4,8.4,0,0,1,390.8,148.8ZM360.7,139a8.4,8.4,0,1,1-8.4-8.4A8.4,8.4,0,0,1,360.7,139Zm-30.8,32.9a8.4,8.4,0,1,1-8.4-8.4A8.4,8.4,0,0,1,329.9,171.9Z"></path><rect x="450" y="136" width="140.14" height="159.39" rx="7.7"></rect><rect class="cls-1" x="450" y="136" width="140.14" height="159.39" rx="7.7"></rect><g class="cls-12"><path class="cls-5" d="M555,235.39a34.79,34.79,0,1,1-34.79-34.79v34.79L547.68,214A34.61,34.61,0,0,1,555,235.39Z"></path><path class="cls-11" d="M557.45,234.58A34.73,34.73,0,0,1,543,262.77l-20.38-28.19,27.46-21.36A34.67,34.67,0,0,1,557.45,234.58Z"></path><path id="scene-7-r-8" data-name="scene-7-r" d="M555.38,197.9l-27.47,21.28V184.51a34.76,34.76,0,0,1,27.47,13.39Z"></path><path class="cls-11" d="M555.38,197.9l-27.47,21.28V184.51a34.76,34.76,0,0,1,27.47,13.39Z"></path></g><g class="cls-13"><rect class="cls-10" x="446.92" y="136" width="143.22" height="32.34"></rect></g><g class="cls-12"><circle class="cls-1" cx="467.71" cy="152.17" r="2.31"></circle></g><g class="cls-12"><circle class="cls-1" cx="483.11" cy="152.17" r="2.31"></circle></g><g class="cls-12"><circle class="cls-1" cx="498.51" cy="152.17" r="2.31"></circle></g><rect class="cls-14" x="377" y="285" width="162.6" height="67.2" rx="5.4"></rect><path class="cls-9" d="M452,300.9h67.2m-67.2,18h67.2m-67.2,18h67.2"></path><path class="cls-2" d="M433.55,321.75A19,19,0,0,1,406,338.67a19.17,19.17,0,0,1-5.47-4.19,19,19,0,0,1,14.08-31.7v19l15-11.65a18.93,18.93,0,0,1,4,11.65Z"></path><path class="cls-1" d="M433.55,321.75a18.91,18.91,0,0,1-7.86,15.38l-11.11-15.38,15-11.65A18.93,18.93,0,0,1,433.55,321.75Z"></path><path class="cls-15" d="M432.18,304.3l-15,11.61V297a19,19,0,0,1,15,7.3Z"></path><path class="cls-9" d="M133.5,510q8-66.63,0-96m-6,96a161.18,161.18,0,0,0-24-67m36,67q2.1-33.42,22-48"></path><path class="cls-5" d="M110.5,515h45l-5.93,51.66A4.91,4.91,0,0,1,144.7,571H121.3a4.9,4.9,0,0,1-4.87-4.34L110.5,515Z"></path><rect class="cls-16" x="106.5" y="507" width="54" height="13" rx="3.7"></rect><path class="cls-11" d="M144.05,486.14q-2.93-18.94,9.64-29.63c12.55-10.68,24.92-10.53,33.44-8.28q8.51,2.25,13,8.28-12.79,1.39-18.82,5.31c-6,3.91-6.66,9.24-20,13Q147.95,478.54,144.05,486.14Z"></path><g class="cls-17"><path class="cls-9" d="M200.1,456.51q-13.86-5.7-25.51-2c-11.66,3.72-19.15,7.3-30.54,31.62"></path></g><path class="cls-11" d="M136.4,470.73q-11-6.9-9.94-18.47c1-11.59-11.22-18.31-11.22-36.84s1.89-25.1-4.74-44.42q19.56,5.7,27.87,21.47c8.29,15.78,4.33,25.23,7.22,45.17Q148.47,457.58,136.4,470.73Z"></path><g class="cls-18"><path class="cls-9" d="M110.5,371q13.48,9.71,17.82,36.62c4.33,26.92,11.29,21.77,8.08,63.11"></path></g><path class="cls-11" d="M123.28,485.41q-10.86,0-15.14-10.39c-4.28-10.35-10.5-10.4-14.63-22.94q-4.14-12.54-13-15.58a21.51,21.51,0,0,1,20.29-1.74c10.49,4.23,11.88,13.24,20,23.38Q128.89,468.28,123.28,485.41Z"></path><g class="cls-19"><path class="cls-9" d="M80.5,436.5q16.74-3,22.54,9.28c5.79,12.3,15.48,20,20.24,39.63"></path></g><path class="cls-20" d="M637.32,535.88q-4.55,4.95-4.55,6.93t1,10.31L615.67,548,611,536.59a44.81,44.81,0,0,0,10.65-15.12Zm18.2,15.81a31.88,31.88,0,0,1,1.27,15.73l17.1-3.61q.06-13.32-3.36-17.59T655.52,551.69Z"></path><path class="cls-7" d="M657.24,562.82q4-5.88,13.13-4.89l4.93,5.45q1.66,9.86,1.07,13.85v6.07l-2.77.54q-1.56,4.78-7,6c-5.47,1.27-16.21,2.33-17.78-3.53s6-12.4,7-16.06A48.47,48.47,0,0,0,657.24,562.82ZM614,532.9q-2.85,8.24,4.08,13.52,9.13-.79,13.61.26c4.48,1.05,4.13,12.77,5.21,18.77s2.94,10.1,6,13.65,4.31,4.15,4,9.47Q632.4,591.3,626,586.05c-6.45-5.25-10.28-10.32-10.28-14.24q0-3.91-4.29-10.61h-2.85Q601,552.35,601,550.41t3.17-5.06a31,31,0,0,1,4-7.52A22.38,22.38,0,0,1,614,532.9Z"></path><path class="cls-7" d="M670.66,475q1.23,18.76,1.23,32.53t4.69,38.86q-8.42,3.93-12.47,4.83a78,78,0,0,1-12.21,1.31l-5.63-34.86Z"></path><path class="cls-7" d="M702.87,309.3q15.61,27-.76,102.49c-3,13.65-5.2,24.56-10.74,34.76s-12,22.8-17.1,32.95q-10.34,20.67-30,58.68-10.56,0-17.25-5.67t-7.8-10.71l20.62-43.38q-1.36-12.76-1.65-18.08c-.28-5.56,0-10.55,0-14.31,0-11-13.49-66.57-13.49-95.77q0-29.19,8-40.26Z"></path><g class="cls-21"><path class="cls-7" d="M620.24,307.22q17.58,6.36,27.33,8.81c15.42,3.88,33.58,6.62,38.49,10.37Q714.32,348,708.26,400,721,331.13,704.83,304Z"></path></g><g class="cls-22"><path class="cls-7" d="M664.87,411.07q-9.47,16-10.7,26.53-15.3,19.39-15.81,34.22L640,479l2.2-6.55q5.61-20.65,16.17-31.21a13,13,0,0,0,1.2-3.93,18,18,0,0,1,1.55-5.27,31.18,31.18,0,0,0,3-9.79A100.37,100.37,0,0,0,664.87,411.07Z"></path></g><path class="cls-10" d="M664.05,346.36q1.74,69,0,76.82c-1.73,7.8-4.8,10.55-4.8,14.91s-12.47,11-18.31,39.13"></path><path class="cls-23" d="M607.6,221.41c1.44-11.65,3.32-22.77,8.33-24.61s24.83-8,35.81-8,47.51,3.23,60.6,8,13.33,69.06,9.39,74.72-7,4.74-20.42,5a111.39,111.39,0,0,1,1.56,11.94q.33,7,0,20.86-20.58,3.12-33.1,3.24T632.27,310a139.31,139.31,0,0,1-3.83-18.4,111.16,111.16,0,0,1,0-17.29q-18.3,7-21.77-2.79C603.2,261.73,606.15,233.06,607.6,221.41Z"></path><g class="cls-24"><path class="cls-23" d="M696.82,227l-71,46.82,5,38.94q66.88,1.28,76.07-2.78t-5-43.21Z"></path></g><g class="cls-25"><path class="cls-9" d="M696.82,227l1.44,23.92M631.44,217v19.43"></path></g><g class="cls-26"><path class="cls-20" d="M605.05,244.87h19.4v3.95q42.12-4.45,47.64-6.38l2.77,15.28L622.14,277a14.09,14.09,0,0,1-13.5-1.07q-6.48-4-5.11-18.17Z"></path></g><g class="cls-27"><path class="cls-20" d="M646.94,268q42.67,9.72,66.36,8.43,6.91.27,8.62-2.11c2.53-3.51,3.42-11.45,3.5-19.38v-10.2l-26.87,2.08.32,4.83-24.75,6.06Z"></path></g><path class="cls-20" d="M672.09,242.2l2.65,15.5q5.06-3.82,8.74-3t14.78-3q-.25-7.93-4.22-9.52c-4-1.59-4.81.39-10.13-1.14Q678.59,239.55,672.09,242.2Zm-30.55,5.64-18.22,1q-3.36-2.69-9.7-4.1c-6.34-1.41-4-4.37.33-3.58s7.13,1,11.68,3.58a21.48,21.48,0,0,0-6-4.14c-2.77-1.18-9.74-1.78-11.21-2.52s-1.79-2.67.93-3.09,12.34.58,13.92,1.45a22.52,22.52,0,0,0-9.71-2.95c-4.37-.13-5.16-1.93-4.91-3,.17-.71,2.26-1.09,6.25-1.14-.59-1.36-.59-2.32,0-2.87.88-.83,3.54-.78,6.26-.2s6.71,1.41,9,3.95Q632.6,232.77,641.54,247.84Z"></path><path class="cls-9" d="M621.41,235.64c2.16.59,4.51,2.14,7,4.65m-14-10.95q7.05-.17,10.71,1.78a14.83,14.83,0,0,1,5.68,5.1m43.94,21.48q-15.75,6.57-51.19,18.19m18-28.4c-5.45.5-26.11,1-31.4,4.51m36.8,16q20.38,6.08,54.89,8.58M674.74,257.7q14.34-3.07,23.52-6c9.18-2.9,18,3.05,19.37,6m-105-13q7.23,1.68,10.23,4.09"></path><path class="cls-28" d="M614.41,198.15Q605,210,602.62,245l5.39-.07a40.67,40.67,0,0,1-.65-15.61,171.72,171.72,0,0,1,5.39-22.24Zm100,1.19q9.92,16.41,11,45.39l-5.55.22Z"></path><path class="cls-7" d="M647.14,149.79c-5.21-15.74,1.06-28.73,16.09-30.16,5.07-.48,14.64,1.06,19.41,7.6s2.33,21,.42,24.52S669.17,154.64,647.14,149.79Z"></path><path class="cls-20" d="M654.22,171.38q-.08,10.58-1.43,13.84t-7.46,3.45q6.36,13.8,19.39,13.8t22.39-10.84l-3-.64c-4.25-1-6.69-2.77-7.6-5.77q-1.63-5.41-.77-13.84Z"></path><g class="cls-29"><path class="cls-30" d="M654.12,173.65a37.62,37.62,0,0,0,23,12.48q-1.9-17.65-1.91-17.65l-21.4.22Z"></path></g><g class="cls-31"><path class="cls-28" d="M647.66,188.53q15.44,17.75,33.6,1.05l7.75,1.26q-6.21,14.74-29.62,12.51-14.67-7.89-15.42-15.16Z"></path></g><path class="cls-20" d="M682.35,145.72q4-1.54,4.82,0c.77,1.43-.43,3.37-1.47,5.7s-.32,5.3-2.69,4.62Q680.64,155.35,682.35,145.72Z"></path><path class="cls-20" d="M648.4,145.44c-2.77-.68-4.42-.51-5,.52-.77,1.44.77,2.82,1.8,5.16s.32,5,2.58,5Q650.18,156.09,648.4,145.44Z"></path><path class="cls-20" d="M653.25,136.78a5,5,0,0,0-3.16,1.09,4.18,4.18,0,0,0-1.59,2.91c-2.36,29,7.77,36.95,16.94,36.48,7.91.63,19.11-5.88,16.78-36.61a3.74,3.74,0,0,0-1.68-3.11,3.91,3.91,0,0,0-3.32-.76,38.47,38.47,0,0,1-11.78,1.95A42.42,42.42,0,0,1,653.25,136.78Z"></path><path class="cls-30" d="M663.32,159.93c.5,1.4,1.27,2.1,2.32,2.1s1.83-.7,2.32-2.1a3.54,3.54,0,0,1-2.32.8A3.58,3.58,0,0,1,663.32,159.93Z"></path><ellipse class="cls-32" cx="671.22" cy="151.04" rx="1.5" ry="1.46"></ellipse><ellipse class="cls-32" cx="659.25" cy="151.04" rx="1.5" ry="1.46"></ellipse><path class="cls-33" d="M656.6,146.93a18.23,18.23,0,0,1,4.86-.67c1.14,0,1,1.14.16,1a17,17,0,0,0-4.36.16C656.24,147.62,655.86,147.31,656.6,146.93Z"></path><path class="cls-33" d="M674.17,146.93a18.23,18.23,0,0,0-4.86-.67c-1.14,0-1,1.14-.16,1a17,17,0,0,1,4.36.16C674.52,147.62,674.91,147.31,674.17,146.93Z"></path><path class="cls-34" d="M659.87,167.23q5.77,6.92,11.68,0Z"></path><g class="cls-35"><path class="cls-2" d="M658.75,164.42h13.76l.15,2.46a20.94,20.94,0,0,1-6.62,1.6,25.62,25.62,0,0,1-7.14-1.6Z"></path></g><rect class="cls-9" x="666.63" y="148.36" width="10.91" height="6.29"></rect><rect class="cls-9" x="653.15" y="148.36" width="10.91" height="6.29"></rect><path class="cls-9" d="M664.07,151.5h2.56m10.47-1.83,6-4.72"></path><path class="cls-9" d="M653.79,149.4l-6.07-4.75"></path><path class="cls-36" d="M198.58,413.22q20.4,4.54,64.9,0-3.68-5.87-15-6.19t-46.1-2Z"></path><path class="cls-37" d="M260.8,531.3c1.31,3.25,1.93,5.61,1.85,7.06s-.94,3.92-2.61,7.43l-1.51-11Z"></path><path class="cls-37" d="M237.45,528.77l3.62,9.55a18.88,18.88,0,0,1-2,7.35q-1.83,3.71-4.46-10.14Z"></path><path class="cls-37" d="M242.33,560.17q-4.87,3.76-2.49,8.2c2.37,4.44,3.49,5.68,6,6.69s14.45-.57,17.49-5.45q3-4.89-1.5-14Z"></path><path class="cls-37" d="M222.48,541q-3.1,18.43-3.11,22.18c0,3.76,1.82,9.3,14.91,10q13.1.69,3.47-21.61Z"></path><path class="cls-38" d="M209.41,414a45.93,45.93,0,0,0,.82,12.87q-3.66,29.87,3.9,56.35c7.56,26.48,9.22,36.77,7.63,46a4.32,4.32,0,0,0,.75,3.67q-2,23.49-.75,26.36c1.28,2.86,8.29,5.5,19.38,1.84l-2.1-7.69q.59-13.8-.91-20.86c-1.49-7.06.42-8.08-.2-10.45s-3.54-4.53-4.14-10.59-.15-46.53.42-57.45q.57-10.92-.91-44.16l-23.61-1.23Z"></path><g class="cls-39"><path class="cls-40" d="M208.89,410.27q13.85,2,19.83,7.41l-.28-9.5q-10.75.15-14.12.51A13.42,13.42,0,0,0,208.89,410.27Z"></path></g><path class="cls-41" d="M228,409.65a62.13,62.13,0,0,0,4,24.45q1.22,35.16,8.51,52.6c7.3,17.45,4.39,41.12,4.32,42.57s1.52,3,1.39,5.56-1,19.76-3.9,25.34q4.09,6.51,17.7,4.35c3-.68,3.39-2.16,1.77-11.08s-2-17.48-1.39-20.91,1.27-4.81-.56-7.85-2.66-34.32-1.27-60.86-5.82-36.76-6.56-39.53l2.91-13.23Z"></path><g class="cls-42"><path class="cls-40" d="M228,409.65q20.49,6.21,25.8,10.56l2.39-9.23A114.62,114.62,0,0,0,240,408.41,46.69,46.69,0,0,0,228,409.65Z"></path></g><path class="cls-7" d="M202.73,292.4h52.92q20,35.12,14.42,63.8a371.38,371.38,0,0,0-6.59,57A259.34,259.34,0,0,0,228,409.65q-19.2-.72-29.45,3.57-11.65-38.25-8.83-68.14T202.73,292.4Z"></path><g class="cls-43"><path class="cls-7" d="M189.2,352.81q9.24-32.06,41.34-32.06c32.11,0,46.37,11.47,46.37,11.47l-15.28-40.53H190.42Z"></path></g><path class="cls-44" d="M313.83,215.8q8.24.57,12.94,9.77a10.94,10.94,0,0,1-8.86-1.22Q313.37,221.8,313.83,215.8Z"></path><path class="cls-41" d="M327.28,219.53c1.89-2.08,13.53-3.71,17.49-4.45,2.49-.46,8.47-4.82,13.49-14.34.64-1.21.27-2-1.09-2.32,1-2.28.83-3.83-.43-4.66,1.45-2.57.77-3.76-.73-3.76s-7.91,9.16-12.3,11.92a15.86,15.86,0,0,1-10.22,2.2c2.16-2.71,5.22-7.22,3.71-7.22s-8,4.59-11.83,7.79q-3.83,3.19-11.46,17.34l9.29,4.51A27.55,27.55,0,0,1,327.28,219.53Z"></path><g class="cls-45"><path class="cls-9" d="M356.74,193.76l-10.05,10.93m-2-1.88a8,8,0,0,1,3.67,5.46m-13.19-3.58c1.06,2.36.49,4.37-1.69,6.05"></path></g><g class="cls-45"><path class="cls-40" d="M316.61,215.8q5.43,5.41,9.77,4.71l-3.1,6-9.37-7.18Z"></path></g><g class="cls-45"><path class="cls-9" d="M357.17,198.42l-8.8,9.29"></path></g><path class="cls-44" d="M177.26,305q3.3,1.14,12.28-10.71L179.26,299Z"></path><path class="cls-46" d="M272.29,323.68q-16.32,1.83-24.89,0t-6.12-28.11H216q2.81,26.69,0,28.11t-27.4,0l10.89-33.92q-2.28-17.42-6.1-50-27.88,21.41-29.4,23.36t25.51,31.15a58,58,0,0,0-7.16,5.17,71.18,71.18,0,0,0-5.12,5.54s-31.56-26.75-36-38.7,44.11-54.71,50.11-58.34q3.57-2.15,23.09-7.18,32.21-.06,32.58,0c14.55,2.65,23.78,8,27.18,15q5.25,10.72,15.34,33l24.25-33a17.93,17.93,0,0,0,5.22,5.79,27.29,27.29,0,0,0,7.72,4Q296,276.24,287.55,276.23t-24.09-26.29l-2.24,36.65Z"></path><g class="cls-47"><path class="cls-48" d="M214.48,200.75q4.44,33.28,4.81,46.71C220,272,216.62,289.2,217,296.9h24.31q-1.06-32,0-49.44t6-49.5Z"></path><g class="cls-49"><rect class="cls-50" x="215.92" y="287.96" width="27.63" height="3.6"></rect></g><g class="cls-49"><path class="cls-41" d="M228.7,209.82q1.89,11.37,2.78,12.18c.88.82.88-5,1.12-7.58a22,22,0,0,0,0-4.6Z"></path></g><g class="cls-51"><path class="cls-48" d="M214.68,202.63q10.42,61.11,28.87,66.08,2.25,29.21,2.24,29.21h-31.9l-2-95.29Z"></path></g></g><g class="cls-52"><path class="cls-53" d="M264.91,238.77c0,.84,13.69,34.93,23.44,37.45l-4.67.49a122.85,122.85,0,0,1-12.1-12.5,82.29,82.29,0,0,1-8.12-13.69Q264.9,237.94,264.91,238.77Z"></path></g><g class="cls-52"><path class="cls-9" d="M264.84,238.72l-1.38,20.21M192,240.75l6.29-4.69"></path></g><g class="cls-52"><path class="cls-53" d="M154.23,262.67l32.58,33.43,3.57-1.81L164,263.14a24.93,24.93,0,0,0-5.07-1A19.53,19.53,0,0,0,154.23,262.67Z"></path></g><g class="cls-52"><path class="cls-9" d="M164,263.14a17.79,17.79,0,0,0-11.84,0"></path></g><g class="cls-52"><path class="cls-53" d="M193.16,240.19l5.16-4.13q7.6,47.42,19.07,47.41l1,18.14q-26.85,14.7-30.1,23l4.13-16.6,7.19-11.89Z"></path></g><g class="cls-52"><path class="cls-9" d="M289.58,248.85v10.08"></path></g><path class="cls-41" d="M188.28,295.11l4.68,2.52q6.63-6.66,8.45-7.17t4.14-1.14q3.15-4.56,5.57-5.39a49.6,49.6,0,0,1,9.38-1.49c.48,1.94-.27,3.13-2.27,3.57-3,.65-5.53.77-6.32,1.84q8.91,2.34,12.23,7.81c.08,1.32-.59,2-2,2,.05,1.61-.93,2.12-3,1.51a38.81,38.81,0,0,1-5-2.48,8.68,8.68,0,0,0-4.21-.6l7.77,5.31c-1.08,1.3-2.54,1.55-4.38.77s-3.77-1.69-5.81-2.71c-2.92.42-4.66.64-5.25.64-.87,0-4,8.94-8.61,8.64q-4.66-.28-14.19-6.27a26.51,26.51,0,0,1,3.92-4Q185.08,297.15,188.28,295.11Z"></path><g class="cls-54"><path class="cls-9" d="M210.28,296.35l-5.92-.25m17.78,1.57c-3.56-2.8-6-4.37-7.21-4.68a57.6,57.6,0,0,0-7.78-.94m4.76-4.2-1,1.23"></path></g><g class="cls-55"><path class="cls-40" d="M188.28,295.11c-3.62,4.22-5.08,7.56-4.38,10l-5.2-2.66q7.49-6.53,8.53-7.33T188.28,295.11Z"></path></g><path class="cls-7" d="M238.37,197.51c28.88,3.94,24.49-20.58,13.62-44.44q-5.62-19.65-14.81-16.47-2.6-4.15-6.71-3.52c-4.11.63-19.84,3.77-23.16,27.51-9.47,27.54-7,35.23,11.25,36.92Q236.62,199.18,238.37,197.51Z"></path><g class="cls-56"><path class="cls-7" d="M218.56,201.11q-5.87-16.34-3.39-40.79l30.84-2q3.36,42.15-6.24,45.43T218.56,201.11Z"></path></g><path class="cls-41" d="M223,185.18q.12,8.23-1.07,11.48t-7.41,4.12q6,9,15.67,9t16.73-9q-7.83-1.09-8.58-4.12t-.57-11.48Z"></path><g class="cls-57"><path class="cls-40" d="M222.28,186.9a30.07,30.07,0,0,0,16.09,9.42q-.44-13.33-.44-13.34l-15.9.16Z"></path></g><path class="cls-41" d="M215.17,160.32c-1.68,19.25,8.62,27.81,15,27.81s17.49-8.56,15.7-30.21a47.83,47.83,0,0,1-4.28-4.3,40.45,40.45,0,0,1-3.69-5.81,23.23,23.23,0,0,1-11.19,10.11Q223.7,159.23,215.17,160.32Z"></path><path class="cls-40" d="M228.64,173.32A2.63,2.63,0,0,0,231,175.1c1,0,1.64-.59,2-1.78a2.65,2.65,0,0,1-2,.74A4.18,4.18,0,0,1,228.64,173.32Z"></path><circle class="cls-32" cx="235.83" cy="166.65" r="1.25"></circle><circle class="cls-32" cx="224.63" cy="166.65" r="1.25"></circle><path class="cls-9" d="M246.88,158.27q-6.94-2.11-8.7-10.46-6.81,14-23.19,12.57"></path><path class="cls-33" d="M222.38,162.92a16.64,16.64,0,0,1,4.52-.64c1.06,0,1,1.09.15.94a15.12,15.12,0,0,0-4.06.15C222.05,163.58,221.69,163.28,222.38,162.92Z"></path><path class="cls-33" d="M238.72,162.92a16.59,16.59,0,0,0-4.52-.64c-1.06,0-1,1.09-.15.94a15.11,15.11,0,0,1,4.06.15C239.06,163.58,239.41,163.28,238.72,162.92Z"></path><path class="cls-34" d="M226.78,179q4,4.91,8.15,0Z"></path><g class="cls-58"><path class="cls-2" d="M226,177h9.6l.11,1.76a14.33,14.33,0,0,1-4.63,1.15,17.47,17.47,0,0,1-5-1.15Z"></path></g></svg>