<svg xmlns="http://www.w3.org/2000/svg" xmlns:xlink="http://www.w3.org/1999/xlink" viewBox="0 0 1022.97 542.84"><defs><style>.cls-1{isolation:isolate;}.cls-2{fill:url(#Gradiente_sem_nome_69);}.cls-3{fill:url(#linear-gradient);}.cls-4{fill:url(#linear-gradient-2);}.cls-5{fill:#a1a7ff;}.cls-6{fill:url(#linear-gradient-3);}.cls-7{fill:#443669;}.cls-8{fill:#d1fafe;}.cls-24,.cls-32,.cls-50,.cls-51,.cls-52,.cls-53,.cls-9{fill:none;stroke-miterlimit:10;}.cls-9{stroke:#d1fafe;}.cls-50,.cls-51,.cls-52,.cls-53,.cls-9{stroke-width:0.5px;}.cls-10,.cls-49{fill:#006286;}.cls-10{opacity:0.1;}.cls-10,.cls-26{mix-blend-mode:multiply;}.cls-11{fill:url(#linear-gradient-4);}.cls-12{fill:url(#Gradiente_sem_nome_27);}.cls-13{fill:#3655b5;}.cls-14{fill:url(#linear-gradient-5);}.cls-15{fill:url(#linear-gradient-6);}.cls-16{fill:url(#linear-gradient-7);}.cls-17{fill:url(#Gradiente_sem_nome_21);}.cls-18{fill:#383059;}.cls-19{fill:#6a9dd8;}.cls-20{fill:#2a5e9a;}.cls-21{fill:url(#Gradiente_sem_nome_41);}.cls-22{fill:url(#Gradiente_sem_nome_41-2);}.cls-23{fill:#fff;}.cls-24{stroke:#d34875;}.cls-25{fill:url(#Gradiente_sem_nome_44);}.cls-26{fill:#3ca0c4;opacity:0.5;}.cls-27{fill:url(#Gradiente_sem_nome_44-2);}.cls-28{fill:#ffc043;}.cls-29{fill:#ec8f1d;}.cls-30{fill:url(#Gradiente_sem_nome_32);}.cls-31{fill:url(#Gradiente_sem_nome_41-3);}.cls-32{stroke:#006286;stroke-width:0.25px;}.cls-33{fill:url(#Gradiente_sem_nome_41-4);}.cls-34{fill:url(#Gradiente_sem_nome_41-5);}.cls-35{fill:url(#Gradiente_sem_nome_32-2);}.cls-36{fill:url(#Gradiente_sem_nome_32-3);}.cls-37{fill:url(#Gradiente_sem_nome_32-4);}.cls-38{fill:url(#Gradiente_sem_nome_32-5);}.cls-39{fill:url(#Gradiente_sem_nome_32-6);}.cls-40{fill:#e08197;}.cls-41{fill:url(#Gradiente_sem_nome_32-7);}.cls-42{fill:url(#Gradiente_sem_nome_32-8);}.cls-43{fill:url(#Gradiente_sem_nome_32-9);}.cls-44{fill:url(#Gradiente_sem_nome_44-3);}.cls-45{fill:url(#Gradiente_sem_nome_44-4);}.cls-46{fill:url(#Gradiente_sem_nome_32-10);}.cls-47{fill:url(#Gradiente_sem_nome_32-11);}.cls-48{fill:url(#Gradiente_sem_nome_32-12);}.cls-50,.cls-51,.cls-52,.cls-53{stroke:#39383b;}.cls-51{stroke-dasharray:2.99 2.99;}.cls-52{stroke-dasharray:2.98 2.98;}.cls-53{stroke-dasharray:3 3;}</style><linearGradient id="Gradiente_sem_nome_69" x1="511.35" y1="-136.75" x2="511.35" y2="273.1" gradientUnits="userSpaceOnUse"><stop offset="0.16" stop-color="#e08197"></stop><stop offset="1" stop-color="#e08197" stop-opacity="0"></stop></linearGradient><linearGradient id="linear-gradient" x1="132.99" y1="204.67" x2="132.99" y2="418.87" gradientUnits="userSpaceOnUse"><stop offset="0" stop-color="#c2ceff"></stop><stop offset="1" stop-color="#95aaff"></stop></linearGradient><linearGradient id="linear-gradient-2" x1="891.02" y1="204.67" x2="891.02" y2="418.87" xlink:href="#linear-gradient"></linearGradient><linearGradient id="linear-gradient-3" x1="339.07" y1="25.19" x2="272.37" y2="219.07" xlink:href="#linear-gradient"></linearGradient><linearGradient id="linear-gradient-4" x1="184.93" y1="131.57" x2="116.31" y2="277.39" gradientUnits="userSpaceOnUse"><stop offset="0" stop-color="#ee497b"></stop><stop offset="1" stop-color="#de2263"></stop></linearGradient><linearGradient id="Gradiente_sem_nome_27" x1="368.27" y1="236.31" x2="251.05" y2="439.3" gradientUnits="userSpaceOnUse"><stop offset="0" stop-color="#e08197"></stop><stop offset="1" stop-color="#d34875"></stop></linearGradient><linearGradient id="linear-gradient-5" x1="572.84" y1="404.31" x2="456.13" y2="545.82" xlink:href="#linear-gradient-4"></linearGradient><linearGradient id="linear-gradient-6" x1="576.84" y1="94.85" x2="452.51" y2="245.59" xlink:href="#linear-gradient-4"></linearGradient><linearGradient id="linear-gradient-7" x1="411.3" y1="364.13" x2="611.67" y2="364.13" xlink:href="#linear-gradient"></linearGradient><radialGradient id="Gradiente_sem_nome_21" cx="510.2" cy="326.39" r="139.84" gradientTransform="translate(14.56 -71.97) scale(0.97 1.22)" gradientUnits="userSpaceOnUse"><stop offset="0" stop-color="#fafbfd" stop-opacity="0"></stop><stop offset="0.17" stop-color="#fafbfd" stop-opacity="0.01"></stop><stop offset="0.3" stop-color="#f8fbfd" stop-opacity="0.05"></stop><stop offset="0.42" stop-color="#f5fbfd" stop-opacity="0.12"></stop><stop offset="0.53" stop-color="#f2fbfd" stop-opacity="0.21"></stop><stop offset="0.64" stop-color="#edfbfd" stop-opacity="0.33"></stop><stop offset="0.74" stop-color="#e7fbfd" stop-opacity="0.47"></stop><stop offset="0.84" stop-color="#e0fafe" stop-opacity="0.64"></stop><stop offset="0.93" stop-color="#d8fafe" stop-opacity="0.84"></stop><stop offset="1" stop-color="#d1fafe"></stop></radialGradient><linearGradient id="Gradiente_sem_nome_41" x1="505.15" y1="87.9" x2="778.12" y2="111.6" gradientUnits="userSpaceOnUse"><stop offset="0" stop-color="#006286"></stop><stop offset="1" stop-color="#443669"></stop></linearGradient><linearGradient id="Gradiente_sem_nome_41-2" x1="510.03" y1="125.66" x2="642.93" y2="125.66" xlink:href="#Gradiente_sem_nome_41"></linearGradient><linearGradient id="Gradiente_sem_nome_44" x1="470.32" y1="465.82" x2="289.3" y2="372.14" gradientUnits="userSpaceOnUse"><stop offset="0" stop-color="#3ca0c4"></stop><stop offset="1" stop-color="#383059"></stop></linearGradient><linearGradient id="Gradiente_sem_nome_44-2" x1="434.21" y1="517.23" x2="267.28" y2="398.9" xlink:href="#Gradiente_sem_nome_44"></linearGradient><linearGradient id="Gradiente_sem_nome_32" x1="335.91" y1="374.9" x2="314.72" y2="369.5" gradientUnits="userSpaceOnUse"><stop offset="0" stop-color="#f0c4b7"></stop><stop offset="1" stop-color="#e08197"></stop></linearGradient><linearGradient id="Gradiente_sem_nome_41-3" x1="290.96" y1="334.25" x2="368.09" y2="382.15" xlink:href="#Gradiente_sem_nome_41"></linearGradient><linearGradient id="Gradiente_sem_nome_41-4" x1="331.31" y1="325.69" x2="480.59" y2="446.89" xlink:href="#Gradiente_sem_nome_41"></linearGradient><linearGradient id="Gradiente_sem_nome_41-5" x1="272.89" y1="280.59" x2="371.87" y2="356.7" xlink:href="#Gradiente_sem_nome_41"></linearGradient><linearGradient id="Gradiente_sem_nome_32-2" x1="357.52" y1="392.84" x2="322.73" y2="392.34" xlink:href="#Gradiente_sem_nome_32"></linearGradient><linearGradient id="Gradiente_sem_nome_32-3" x1="342.53" y1="393.15" x2="313.04" y2="378.05" xlink:href="#Gradiente_sem_nome_32"></linearGradient><linearGradient id="Gradiente_sem_nome_32-4" x1="334.03" y1="382.31" x2="312.83" y2="376.91" xlink:href="#Gradiente_sem_nome_32"></linearGradient><linearGradient id="Gradiente_sem_nome_32-5" x1="396.25" y1="324.34" x2="371.95" y2="359.56" xlink:href="#Gradiente_sem_nome_32"></linearGradient><linearGradient id="Gradiente_sem_nome_32-6" x1="410.49" y1="284.81" x2="362.92" y2="247" xlink:href="#Gradiente_sem_nome_32"></linearGradient><linearGradient id="Gradiente_sem_nome_32-7" x1="404.82" y1="261.41" x2="369.67" y2="226.27" xlink:href="#Gradiente_sem_nome_32"></linearGradient><linearGradient id="Gradiente_sem_nome_32-8" x1="801.91" y1="191.42" x2="884.27" y2="261.04" xlink:href="#Gradiente_sem_nome_32"></linearGradient><linearGradient id="Gradiente_sem_nome_32-9" x1="797.17" y1="196.93" x2="879.69" y2="266.69" xlink:href="#Gradiente_sem_nome_32"></linearGradient><linearGradient id="Gradiente_sem_nome_44-3" x1="711.56" y1="441.83" x2="875.11" y2="496.14" xlink:href="#Gradiente_sem_nome_44"></linearGradient><linearGradient id="Gradiente_sem_nome_44-4" x1="696.13" y1="415.1" x2="969.68" y2="512.61" xlink:href="#Gradiente_sem_nome_44"></linearGradient><linearGradient id="Gradiente_sem_nome_32-10" x1="781.63" y1="221.93" x2="822.89" y2="232.09" xlink:href="#Gradiente_sem_nome_32"></linearGradient><linearGradient id="Gradiente_sem_nome_32-11" x1="777.29" y1="239.56" x2="818.56" y2="249.71" xlink:href="#Gradiente_sem_nome_32"></linearGradient><linearGradient id="Gradiente_sem_nome_32-12" x1="839.78" y1="260.76" x2="855.21" y2="260.76" xlink:href="#Gradiente_sem_nome_32"></linearGradient></defs><title>Faster Time to Market</title><g class="cls-1"><g id="Layer_1" data-name="Layer 1"><path class="cls-2" d="M80.46,196.7c-25.11-13.76-33.91-49.11-21.34-74.84s42.63-40.43,71.21-38.59c20.27,1.31,39.83,9.83,60.12,9C243,90,279.51,35.56,331.5,27.45c92-14.35,115.64,146.64,190.06,146.64,43.76,0,100.71-69.23,124.65-88.51C751.07,1.13,825.68,24.34,859.4,39.47c46.45,20.84,109.85,86.19,109.85,131,0,41.31-37.08,74.75-78,80.46s-81.68-7.78-122.16-16-86.31-10-119.13,15c-25.31,19.34-39.3,52.27-67.8,66.49-36.11,18-79.07-1.13-113.84-21.63-32.15-19-69.46-41.87-108.45-33.79-23.21,4.81-41.84,21.76-65.3,8.14-36.51-21.2-39.17-69.95-87.92-77.45C165,185.34,120.43,218.6,80.46,196.7Z"></path><path class="cls-3" d="M63.8,302.83c2.16-12.71.71-19.32-2.95-22.92s-9.17-4.77-15.86-6.59a21.34,21.34,0,0,1-9-5.26,22.17,22.17,0,0,1-5.75-8.95C28,252.18,29.37,243.4,37.77,235s18.49-6.2,27.66-.66a94.33,94.33,0,0,1,12.66,9.8c3.72,3.51,7,6.81,9.5,8.95,5.13,4.23,10.77,1.69,18.41-.57s17.22-4.11,29.38,2.64a36.4,36.4,0,0,1,7.88,5.66,35.9,35.9,0,0,1,5.42,6.83A41.56,41.56,0,0,1,154.21,283a124.52,124.52,0,0,1,1.39,15.59,99.73,99.73,0,0,0,1,13.71c3,16,18.13,24.29,38.91,27.12,10.37,1.39,16.06,6.11,19.05,12.23s2.76,14,1.7,21.74c-2.43,15.78-2,23.69,13.53,35.39,4,2.9,6,7.33,6.66,12.24a30.91,30.91,0,0,1-2.39,15.83,46,46,0,0,1-25.71,25.24c-11.93,4.51-27.37,4.68-41.81,1.32s-28.39-10.07-37.92-20.78c-6.63-7.14-9.37-14.68-10.67-22.4-1.08-7.82-.7-15.78-.14-23.83s.81-15.87-.41-23.25a35.5,35.5,0,0,0-3.64-10.28,26.41,26.41,0,0,0-7.5-8.69,107,107,0,0,0-9.71-6.55c-3.21-1.83-6.34-3.36-9.26-4.79l-8.19-4A52.28,52.28,0,0,1,72.15,335a22.66,22.66,0,0,1-5.2-4.76,18.66,18.66,0,0,1-3.32-6.32C62.09,319,62.24,312.22,63.8,302.83Z"></path><path class="cls-4" d="M908.37,271.49c13.12.47,19.26-1.38,23.23-5a19.53,19.53,0,0,0,4.38-6.87c.58-1.35,1.1-2.82,1.68-4.34s1.26-3.06,2-4.69a24.58,24.58,0,0,1,6.75-8.74,21.72,21.72,0,0,1,10.25-4.63C964.1,236,972,239,977.9,248.87a18.68,18.68,0,0,1,2.74,13.76c-.8,4.3-3.26,8-6,11.76a78.94,78.94,0,0,1-9.5,10c-3.1,3.13-6,5.83-7.92,8-3.83,4.28-.79,9.79,2.1,16.53s5.76,14.83,3.05,25.14a25.3,25.3,0,0,1-2.89,6.6,20.12,20.12,0,0,1-4.07,4.94c-3.13,2.76-7.09,4.57-11.09,6.16s-8.44,2.67-12.61,3.82a56.33,56.33,0,0,0-10.93,4.17c-12.37,6.71-11.86,22.9-2.1,38.34,4.86,7.75,5.42,13.24,2.89,17.53-2.37,4.33-7.34,7.65-13.35,10.7-11.57,6.19-16.76,11.73-11.29,26.62a12.06,12.06,0,0,1-1.11,10.6c-2,3.33-5.55,6.41-9.76,9.1-8.58,5.31-21.17,9.14-33.38,7.85s-25.31-7.91-35.56-19.35a64.26,64.26,0,0,1-16-45.61c.84-12,4.65-21.72,10.38-29.43,5.43-7.85,12.79-13.74,19.8-19.15,3.46-2.73,7.18-5.2,10.6-7.74a93.44,93.44,0,0,0,9.57-7.92,46.77,46.77,0,0,0,7.95-9.05,38,38,0,0,0,3-5.41,45.77,45.77,0,0,0,2.37-6.1c1.32-4.36,2.34-8.55,3.18-12.57s1.77-7.68,2.52-11.25,1.43-7,2.29-10.08a67.33,67.33,0,0,1,3-8.62,32.53,32.53,0,0,1,4.27-7.17,23.08,23.08,0,0,1,6.47-5.32C891.73,272.87,898.5,271.09,908.37,271.49Z"></path><rect class="cls-5" x="132.25" y="152.93" width="348.67" height="218.96"></rect><path class="cls-6" d="M126.66,102.54v50.39H480.92V102.54Zm87.18,39.59a14.4,14.4,0,1,1,14.4-14.39A14.39,14.39,0,0,1,213.84,142.13Zm179.9,0a14.4,14.4,0,1,1,14.4-14.39A14.4,14.4,0,0,1,393.74,142.13Z"></path><path class="cls-7" d="M393.74,132.74c-11.56,0-20.28-16.54-20.28-38.47s8.72-38.48,20.28-38.48S414,72.33,414,94.27a5,5,0,0,1-10,0c0-17.12-6.18-28.47-10.27-28.47s-10.27,11.35-10.27,28.47,6.18,28.46,10.27,28.46a5,5,0,0,1,0,10Z"></path><path class="cls-7" d="M215.24,132.74c-11.56,0-20.27-16.54-20.27-38.47s8.71-38.48,20.27-38.48,20.28,16.54,20.28,38.48a5,5,0,0,1-10,0c0-17.12-6.18-28.47-10.27-28.47S205,77.15,205,94.27s6.18,28.46,10.27,28.46a5,5,0,1,1,0,10Z"></path><polygon class="cls-8" points="381.22 376.29 126.66 376.29 126.66 152.93 129.16 152.93 129.16 373.79 381.22 373.79 381.22 376.29"></polygon><line class="cls-9" x1="129.16" y1="201.93" x2="373.46" y2="201.93"></line><line class="cls-9" x1="129.16" y1="260.55" x2="393.74" y2="260.55"></line><line class="cls-9" x1="129.16" y1="319.18" x2="392.84" y2="319.18"></line><rect class="cls-10" x="138.09" y="179.26" width="90" height="62.32"></rect><rect class="cls-10" x="260.95" y="301.19" width="90" height="62.32"></rect><rect class="cls-11" x="113.04" y="162.61" width="86.4" height="59.83"></rect><rect class="cls-12" x="267.32" y="306.39" width="86.4" height="59.83"></rect><rect class="cls-10" x="175" y="206.84" width="106.47" height="73.72"></rect><rect class="cls-13" x="183.09" y="213.5" width="106.47" height="73.72"></rect><path class="cls-14" d="M620.9,504H402.08a25.32,25.32,0,0,1-25.32-25.31h0a25.32,25.32,0,0,1,25.32-25.31H620.9a25.31,25.31,0,0,1,25.31,25.31h0A25.31,25.31,0,0,1,620.9,504Z"></path><rect class="cls-15" x="376.76" y="148.77" width="269.45" height="50.62" rx="10.12"></rect><path class="cls-16" d="M545.85,409.35c-6.38-2.76-12.27-5.31-17.44-7.75a26.21,26.21,0,0,1-14.75-24.77v-.16c.32-7.69-.25-15.39-.44-23.08l-.65-23.09-.42-11a20.19,20.19,0,0,1,6.15-15.29c5.83-5.64,13.53-11.35,22.42-17.69a3.45,3.45,0,0,0-.76-6c-6.45-2.35-17.37-5.59-28.48-5.59s-22,3.24-28.49,5.59a3.45,3.45,0,0,0-.75,6c8.88,6.34,16.59,12,22.42,17.69a20.2,20.2,0,0,1,6.14,15.29l-.41,11-.66,23.09c-.19,7.69-.75,15.39-.43,23.08v.16a26.21,26.21,0,0,1-14.75,24.77c-5.17,2.44-11.05,5-17.44,7.75-26.67,11.54-59.17,25.59-65.82,44H611.67C605,434.94,572.52,420.89,545.85,409.35Z"></path><path class="cls-17" d="M623.8,453.39c0-67.48-106.37-101.34-106.37-127s106.37-59.51,106.37-127H399.17c0,67.48,106.37,101.34,106.37,127s-106.37,59.52-106.37,127Z"></path><path class="cls-8" d="M623.75,453.39a66.18,66.18,0,0,0-3.78-21,82.33,82.33,0,0,0-9.83-18.94c-8.11-11.78-18.57-21.73-29.54-30.86s-22.71-17.44-34.36-25.76c-5.8-4.21-11.63-8.38-17.1-13a60.28,60.28,0,0,1-7.64-7.6,23.29,23.29,0,0,1-3-4.53,11,11,0,0,1,0-10.56,23.51,23.51,0,0,1,2.94-4.56,60.52,60.52,0,0,1,7.59-7.68c5.43-4.71,11.23-8.95,17.05-13.13,11.64-8.35,23.4-16.54,34.46-25.6s21.48-19,29.63-30.77a82,82,0,0,0,9.83-19,66.21,66.21,0,0,0,3.76-21h.1a64.64,64.64,0,0,1-3.4,21.17,81.44,81.44,0,0,1-9.7,19.19c-8.07,11.94-18.5,22.05-29.56,31.16s-22.9,17.3-34.58,25.58c-5.82,4.16-11.65,8.32-17.09,12.94a59.11,59.11,0,0,0-7.58,7.51,22.9,22.9,0,0,0-2.91,4.41,11.77,11.77,0,0,0-1.32,5,11.63,11.63,0,0,0,1.28,5.05,22.94,22.94,0,0,0,2.88,4.46,60.58,60.58,0,0,0,7.52,7.59c5.42,4.68,11.21,8.9,17.05,13,11.67,8.3,23.56,16.34,34.68,25.41s21.55,19.15,29.65,31.07a81.13,81.13,0,0,1,9.7,19.2,65,65,0,0,1,3.38,21.18Z"></path><path class="cls-8" d="M399.12,453.39a65,65,0,0,1,3.39-21.18A81.1,81.1,0,0,1,412.2,413c8.11-11.92,18.57-22,29.65-31.07s23-17.11,34.68-25.41c5.84-4.14,11.64-8.36,17.05-13a59.9,59.9,0,0,0,7.52-7.59,23.47,23.47,0,0,0,2.89-4.46,11.76,11.76,0,0,0,1.27-5.05,11.62,11.62,0,0,0-1.32-5A22.9,22.9,0,0,0,501,317a59.68,59.68,0,0,0-7.57-7.51c-5.45-4.62-11.28-8.78-17.1-12.94-11.68-8.28-23.5-16.42-34.57-25.58s-21.5-19.22-29.57-31.16a81.82,81.82,0,0,1-9.7-19.19,64.91,64.91,0,0,1-3.4-21.17h.1a66.22,66.22,0,0,0,3.77,21,81.22,81.22,0,0,0,9.83,19c8.14,11.76,18.62,21.68,29.62,30.77s22.82,17.25,34.47,25.6c5.81,4.18,11.61,8.42,17,13.13a60.44,60.44,0,0,1,7.58,7.68,24,24,0,0,1,2.95,4.56,12.42,12.42,0,0,1,1.32,5.29,12.13,12.13,0,0,1-1.37,5.27,22.84,22.84,0,0,1-3,4.53,60.86,60.86,0,0,1-7.63,7.6c-5.47,4.65-11.31,8.82-17.11,13-11.65,8.32-23.35,16.62-34.35,25.76S421,401.66,412.83,413.44A83.12,83.12,0,0,0,403,432.38a66.18,66.18,0,0,0-3.78,21Z"></path><path class="cls-18" d="M392.94,525.52a5.46,5.46,0,0,1-.56,0,4.48,4.48,0,0,1-3.89-5l49-388.6a4.48,4.48,0,0,1,8.89,1.12l-49,388.6A4.48,4.48,0,0,1,392.94,525.52Z"></path><path class="cls-18" d="M451,525.52a5.46,5.46,0,0,1-.57,0,4.48,4.48,0,0,1-3.88-5l49-388.6a4.48,4.48,0,0,1,8.89,1.12l-49,388.6A4.49,4.49,0,0,1,451,525.52Z"></path><path class="cls-18" d="M495.36,171.5H437.27a2.24,2.24,0,0,1,0-4.48h58.09a2.24,2.24,0,1,1,0,4.48Z"></path><path class="cls-18" d="M491.52,201.93H433.44a2.24,2.24,0,0,1,0-4.48h58.08a2.24,2.24,0,0,1,0,4.48Z"></path><path class="cls-18" d="M487.69,232.36H429.6a2.24,2.24,0,0,1,0-4.48h58.09a2.24,2.24,0,0,1,0,4.48Z"></path><path class="cls-18" d="M483.85,262.79H425.77a2.24,2.24,0,0,1,0-4.48h58.08a2.24,2.24,0,0,1,0,4.48Z"></path><path class="cls-18" d="M480,293.23H421.93a2.24,2.24,0,0,1,0-4.48H480a2.24,2.24,0,0,1,0,4.48Z"></path><path class="cls-18" d="M476.18,323.66H418.1a2.24,2.24,0,0,1,0-4.48h58.08a2.24,2.24,0,0,1,0,4.48Z"></path><path class="cls-18" d="M472.35,354.09H414.26a2.24,2.24,0,0,1,0-4.48h58.09a2.24,2.24,0,0,1,0,4.48Z"></path><path class="cls-18" d="M468.51,384.52H410.42a2.24,2.24,0,0,1,0-4.48h58.09a2.24,2.24,0,1,1,0,4.48Z"></path><path class="cls-18" d="M464.67,415H406.59a2.24,2.24,0,0,1,0-4.48h58.08a2.24,2.24,0,0,1,0,4.48Z"></path><path class="cls-18" d="M460.84,445.39H402.75a2.24,2.24,0,1,1,0-4.48h58.09a2.24,2.24,0,1,1,0,4.48Z"></path><path class="cls-18" d="M457,475.82H398.92a2.24,2.24,0,0,1,0-4.48H457a2.24,2.24,0,0,1,0,4.48Z"></path><path class="cls-18" d="M453.17,506.25H395.08a2.24,2.24,0,1,1,0-4.48h58.09a2.24,2.24,0,1,1,0,4.48Z"></path><path class="cls-19" d="M698.22,385.26a112.35,112.35,0,0,1,12.68,44.91,122.68,122.68,0,0,1-.57,21.24c-.4,3.36-.84,6.57-1.42,9.67s-1.39,6.11-2.15,8.94a109.08,109.08,0,0,1-5.24,15.14q-1.38,3.3-2.7,6.08c-1,1.87-1.88,3.56-2.73,5.07a99.67,99.67,0,0,1-5.77,9.24s-3.06-2.83-7.7-7.59l-3.75-3.9-4.47-4.48c-3.12-3.16-6.38-6.67-10.08-10.36l-11.13-11.68c-3.64-4.11-7.73-8.24-11.28-12.64a144.45,144.45,0,0,1-32.77-60.34c-1.76-5.37-3-11.05-4.46-16.34-1.29-5.44-2.55-10.72-3.74-15.7s-2.24-9.75-3.2-14.09c-.46-2.19-.9-4.26-1.32-6.19s-.85-3.66-1.23-5.27c-1.46-6.49-2.17-10.59-2.17-10.59a98.88,98.88,0,0,1,10.89.19c1.73.11,3.65.26,5.73.47s4.23.62,6.58,1a107.44,107.44,0,0,1,15.55,3.85q4.18,1.35,8.67,3.06c2.91,1.2,5.85,2.58,8.88,4.08a122.4,122.4,0,0,1,18.13,11.08A112.39,112.39,0,0,1,698.22,385.26Z"></path><path class="cls-5" d="M673.68,355.26l-1.87-1.61c-.56,3.45-1.21,8-1.76,13.12s-1.29,11.18-1.58,17.4a187.78,187.78,0,0,0-.4,19.69c0,3.41.25,6.83.64,10.23s.72,6.91,1.42,10.32a249.15,249.15,0,0,0-18.77-34.93,58.19,58.19,0,0,1-3.82-7,60.81,60.81,0,0,1-3.08-7.11,112.12,112.12,0,0,1-4-14.57c-.88-4.92-1.64-9.64-2.1-14.19s-.63-8.94-.85-12.7l-2.08-.75a202.29,202.29,0,0,0,1.91,20.91c.65,3.74,1.21,7.77,2.21,11.63.47,2,1,3.87,1.65,5.8s1.2,3.92,1.93,5.85a254.37,254.37,0,0,0-48.63-51l-1.48.05h0s.1.54.27,1.49a252.92,252.92,0,0,1,48.26,50.63q-2.37-1.94-4.85-3.59a59,59,0,0,0-5.21-2.85,55.66,55.66,0,0,0-10.52-4,67.36,67.36,0,0,0-19.26-2.27c.15.6.3,1.22.45,1.83a61.8,61.8,0,0,1,11.54.85A56,56,0,0,1,626.62,372a49.24,49.24,0,0,1,12.64,7.16,55.29,55.29,0,0,1,5.68,5.1,50.07,50.07,0,0,1,4.77,6.28,248.19,248.19,0,0,1,18.63,34.68,56.51,56.51,0,0,0-6.84-7.59,78.91,78.91,0,0,0-7.73-6.13,76,76,0,0,0-16.37-8.21,89.91,89.91,0,0,0-15.27-3.74,93.27,93.27,0,0,0-11.78-.83l.58,1.78A77.67,77.67,0,0,1,625.22,402a74.42,74.42,0,0,1,18.17,5.87,65.89,65.89,0,0,1,18.1,12.42,70.9,70.9,0,0,1,7.45,9.06,58.61,58.61,0,0,1,5.55,10.92c1.85,4.94,3.43,10,5.07,15l2.12,7.63c.74,2.54,1.42,5.09,2,7.68-7.81-15.59-21.76-25.62-33.66-30.9a91.24,91.24,0,0,0-15.91-5.24,67.47,67.47,0,0,0-8.54-1.38l1.22,1.87a76.35,76.35,0,0,1,12.2,2.66,79.43,79.43,0,0,1,8.87,3.16,90.65,90.65,0,0,1,9.61,4.93,65.81,65.81,0,0,1,9.61,7c1.56,1.34,3.11,2.77,4.62,4.28s2.8,3.17,4.13,4.88,2.6,3.51,3.81,5.39a55.09,55.09,0,0,1,3.11,6,68.77,68.77,0,0,1,2.54,6.43,59.16,59.16,0,0,1,1.57,6.9c1.15,6,1.69,12,2.41,18.07l1.1,1,.84-1.22c-.72-6.08-1.26-12.19-2.42-18.21-.41-2.38-.65-4.75-.83-7.1s-.41-4.66-.44-7,.07-4.63.16-6.91.2-4.54.43-6.8.53-4.5.9-6.73.62-4.38,1-6.55c.76-4.32,1.88-8.62,2.76-12.64s2-7.94,3.15-11.61,2-7,3.06-10.06c2-6.1,3.85-10.9,4.78-13.43l-1.2-2.85c-.5,1.17-1.66,4.37-3.33,9.13s-3.66,10.94-5.6,17.94c-4,14.16-8,31.21-8.06,48.56-.53-2.61-1.22-5.18-2-7.74l-2.13-7.69c-1.66-5.06-3.25-10.14-5.12-15.12a100.81,100.81,0,0,1-5.46-23.78,158,158,0,0,1-.86-23.28c.34-7.59.8-14.7,1.54-21.12S673,359.47,673.68,355.26Z"></path><path class="cls-19" d="M734.78,472.17a57.51,57.51,0,0,1-9.57,12.47,105.15,105.15,0,0,1-10.92,9.57c-3.51,2.7-6.74,4.9-9.06,6.43s-3.82,2.36-3.82,2.36-.65-1.54-1.48-4.26a64.28,64.28,0,0,1-2.33-11.26,61.74,61.74,0,0,1,.15-15.8A47.14,47.14,0,0,1,715,440.89a61.92,61.92,0,0,1,13.37-8.41,63.82,63.82,0,0,1,10.82-3.92c2.74-.72,4.39-1,4.39-1s.08,1.71,0,4.49-.27,6.69-.72,11.1a105.54,105.54,0,0,1-2.43,14.31A57.49,57.49,0,0,1,734.78,472.17Z"></path><path class="cls-5" d="M739.67,460.16l.24-.81a44.49,44.49,0,0,0-11.4,2.8,33.28,33.28,0,0,0-13.16,9.09c2.47-4.86,5.14-9.62,7.95-14.3,4.62-7.7,13.43-10.66,19.24-11.52l.1-.81c-4.64.66-11.16,2.57-16.17,7.2a240,240,0,0,1,17.08-23.6l0-.63h0l-.6.11a241.16,241.16,0,0,0-17.14,23.68c2.05-6.48,1.72-13.36,1.14-18.22l-.78.39c.73,6.19,1,15.36-3.55,23-2.82,4.69-5.49,9.47-8,14.35,2.7-11.16.06-23.11-1.31-28.56l-.7.65a75.48,75.48,0,0,1,2.32,14.85c.27,6.11-.32,12.82-3.32,19.12-1.89,4-3.69,8-5.36,12.06,1.13-7.1.12-14.23-1.22-20a73.79,73.79,0,0,0-3.4-10.91l-.48,1.08a76.19,76.19,0,0,1,4,14.2c1.14,6.69,1.49,14.45-1.33,21.9-.93,2.36-1.75,4.76-2.6,7.14l.23.58.54-.31c.85-2.38,1.66-4.77,2.58-7.12,2.84-7.48,8.92-12.49,14.67-15.43a44.09,44.09,0,0,1,13.28-4.26l.57-.85a43.89,43.89,0,0,0-10.49,2.72c-5.2,2.06-11.34,5.7-15.55,11.55,1.67-4.06,3.46-8.06,5.34-12,3-6.31,8.34-10.55,13.63-13.14A42.84,42.84,0,0,1,739.67,460.16Z"></path><path class="cls-19" d="M959.76,447.09a153.11,153.11,0,0,1-28.25,18.65c-4.79,2.78-10,5.13-14.77,7.64-2.43,1.22-4.92,2.36-7.33,3.49s-4.67,2.32-7,3.4c-4.7,2.12-8.9,4.25-12.87,6.11L883.9,489l-4.8,2.34c-5.92,2.85-9.72,4.45-9.72,4.45a96,96,0,0,1-2.24-10.54c-.28-1.7-.56-3.58-.82-5.65s-.32-4.22-.42-6.58a103,103,0,0,1,.36-15.89q.4-4.35,1.11-9.06c.54-3.09,1.26-6.24,2.07-9.5a119.16,119.16,0,0,1,7-19.95,103.87,103.87,0,0,1,69.28-58.46,118.08,118.08,0,0,1,20.85-3.53c3.35-.25,6.57-.43,9.71-.45s6.22.21,9.12.43a102.63,102.63,0,0,1,15.72,2.32c2.32.5,4.45,1,6.42,1.53s3.81,1.19,5.43,1.75a95.68,95.68,0,0,1,10,4s-2.22,3.47-6,8.83l-3.12,4.34-3.53,5.15c-2.5,3.6-5.31,7.39-8.18,11.66-1.46,2.09-3,4.2-4.53,6.3s-3.06,4.44-4.68,6.63c-3.27,4.28-6.46,9-10,13.27A152.81,152.81,0,0,1,959.76,447.09Z"></path><path class="cls-5" d="M979.13,427.14l1.16-1.42a92.26,92.26,0,0,0-11.06-3.59A87.84,87.84,0,0,0,953.87,420a68.28,68.28,0,0,0-8.76.24,59.81,59.81,0,0,0-9.24,1.38,78,78,0,0,0-9.31,2.87,55.27,55.27,0,0,0-9,4.55,232.19,232.19,0,0,1,29.63-25.23,49.07,49.07,0,0,1,6.66-4,54.76,54.76,0,0,1,7.1-2.6,47.64,47.64,0,0,1,14.21-1.91,54.26,54.26,0,0,1,13.12,1.59,59.28,59.28,0,0,1,10.85,3.55l1.09-1.51a65.48,65.48,0,0,0-18.43-5.13,53.92,53.92,0,0,0-11.11-.24,56.07,56.07,0,0,0-5.83.69c-1.91.4-3.84.91-5.77,1.52a235,235,0,0,1,63.1-28.26l.81-1.26h0l-1.33-.61A236.47,236.47,0,0,0,958,394.08c1.39-1.5,2.69-3.06,3.93-4.67s2.51-3.1,3.66-4.71C968,381.53,970,378,972,374.84c3.93-6.45,7-13.13,9.61-18.47l-2.19-.09c-1.63,3.36-3.43,7.33-5.56,11.33s-4.58,8.05-7.21,12.25a115.53,115.53,0,0,1-9.06,11.91A88.66,88.66,0,0,1,946,402.22a234.33,234.33,0,0,0-29.86,25.43c1.87-2.89,3.39-6,5-9s3-6.08,4.27-9.2,2.58-6.11,3.68-9.21,2.11-6.17,3.1-9.1c2-5.83,3.59-11.55,4.93-16.61s2.48-9.34,3.24-12.73l-2.32.8c-.9,4.14-2.36,9.37-4,15.62s-3.86,12.9-6.31,20a161,161,0,0,1-9.19,21.17,80.47,80.47,0,0,1-6.05,10.28,79.34,79.34,0,0,1-7.44,9.75c-3.48,3.95-6.74,8.1-10,12.2L890.41,458c-1.57,2.11-3.11,4.25-4.49,6.49,6-16.09,8.26-33.28,9.61-47.82.71-7.17,1.13-13.58,1.27-18.61s.27-8.38.23-9.64l-2.14,2.21c-.07,2.67,0,7.8-.43,14.14-.16,3.2-.5,6.63-.79,10.41s-.67,7.78-1.22,11.87-1.09,8.41-1.91,12.68c-.4,2.15-.85,4.29-1.37,6.42s-.93,4.39-1.51,6.56-1.23,4.32-2,6.45-1.39,4.34-2.24,6.47-1.76,4.24-2.81,6.32-2,4.24-3.2,6.31c-3.14,5.19-5.71,10.69-8.44,16.1.24.91.38,1.42.38,1.42l1.37-.59c2.71-5.37,5.25-10.82,8.37-16a57.92,57.92,0,0,1,3.81-5.87,65.32,65.32,0,0,1,4.57-5.07,52.67,52.67,0,0,1,4.93-4.45c1.77-1.32,3.58-2.54,5.4-3.66s3.67-2.15,5.51-3.08,3.85-1.64,5.77-2.32a62.82,62.82,0,0,1,11.3-3A89.74,89.74,0,0,1,931,450.62a76.48,76.48,0,0,1,9.28.26,73.43,73.43,0,0,1,12.16,1.95l1.77-1.27a65.58,65.58,0,0,0-8.33-1.82,88.26,88.26,0,0,0-16.48-.89,73.52,73.52,0,0,0-21,4.18,56.48,56.48,0,0,0-10.82,5.07,54.19,54.19,0,0,0-10.05,7.48c1.37-2.22,2.89-4.35,4.45-6.44l4.62-6.33c3.28-4.07,6.5-8.19,9.95-12.1a57.89,57.89,0,0,1,9-8.12,68.84,68.84,0,0,1,10.1-5.7,63.84,63.84,0,0,1,21.1-4.91,71.88,71.88,0,0,1,18.8,1.23A75.13,75.13,0,0,1,979.13,427.14Z"></path><path class="cls-19" d="M118.61,381.43a110.34,110.34,0,0,1,27.93,37.19,117.4,117.4,0,0,1,7,19.95c.81,3.26,1.53,6.41,2.08,9.5s.83,6.16,1.11,9.06a104.26,104.26,0,0,1,.36,15.89c-.11,2.36-.24,4.56-.43,6.58s-.53,3.95-.81,5.65a96,96,0,0,1-2.24,10.54s-3.8-1.6-9.72-4.45l-4.8-2.34-5.67-2.62c-4-1.86-8.18-4-12.88-6.11-2.3-1.08-4.63-2.21-7-3.4s-4.9-2.27-7.34-3.49c-4.76-2.51-10-4.86-14.76-7.64a144.23,144.23,0,0,1-51.39-43.37c-3.55-4.24-6.74-9-10-13.27-1.61-2.19-3.15-4.45-4.68-6.63s-3.07-4.21-4.52-6.3c-2.88-4.27-5.69-8.06-8.19-11.66l-3.53-5.15C8,377.79,7,376.34,6,375c-3.8-5.36-6-8.83-6-8.83a95.4,95.4,0,0,1,10-4c1.62-.56,3.43-1.15,5.42-1.75s4.11-1,6.42-1.53a102.63,102.63,0,0,1,15.72-2.32c2.91-.22,6-.37,9.13-.43s6.35.2,9.7.45a117.93,117.93,0,0,1,20.85,3.53A110.14,110.14,0,0,1,118.61,381.43Z"></path><path class="cls-5" d="M84.9,362.58l-2.32-.8c.77,3.39,1.84,7.78,3.25,12.73s2.92,10.78,4.92,16.61c1,2.93,2,6.06,3.1,9.1s2.44,6,3.68,9.21,2.69,6.21,4.27,9.21,3.14,6.12,5,9a233.64,233.64,0,0,0-29.86-25.43,57.51,57.51,0,0,1-6.06-5.05,59,59,0,0,1-5.44-5.4,115.53,115.53,0,0,1-9.06-11.91c-2.63-4.2-5.08-8.24-7.21-12.25s-3.93-8-5.57-11.33l-2.19.09c2.58,5.34,5.68,12,9.61,18.47,2,3.18,4,6.69,6.34,9.86,1.16,1.61,2.39,3.16,3.66,4.71s2.55,3.17,3.93,4.67a236.78,236.78,0,0,0-63.62-28.5L0,366.19H0l.82,1.26a235,235,0,0,1,63.09,28.26c-1.93-.61-3.86-1.12-5.77-1.52a56.21,56.21,0,0,0-5.82-.69,53.91,53.91,0,0,0-11.11.24,65.56,65.56,0,0,0-18.44,5.13l1.09,1.5a59.29,59.29,0,0,1,10.85-3.54,53.77,53.77,0,0,1,13.12-1.59A47.67,47.67,0,0,1,62,397.14a56.35,56.35,0,0,1,7.1,2.61,48.77,48.77,0,0,1,6.67,4A232.1,232.1,0,0,1,105.43,429a55.27,55.27,0,0,0-9-4.55,77.89,77.89,0,0,0-9.3-2.87,60,60,0,0,0-9.24-1.38A68.48,68.48,0,0,0,69.1,420a87.72,87.72,0,0,0-15.35,2.15,91.9,91.9,0,0,0-11.07,3.59l1.17,1.42a75,75,0,0,1,13.59-3.93A72.29,72.29,0,0,1,76.24,422a64.34,64.34,0,0,1,21.1,4.91,70.72,70.72,0,0,1,10.1,5.7,58.48,58.48,0,0,1,9,8.13c3.45,3.91,6.68,8,10,12.1l4.62,6.33c1.56,2.09,3.08,4.22,4.46,6.44a54.25,54.25,0,0,0-10.06-7.48A56.4,56.4,0,0,0,114.58,453a73.65,73.65,0,0,0-21-4.18,88.16,88.16,0,0,0-16.48.89,66.35,66.35,0,0,0-8.34,1.82l1.78,1.27a73.26,73.26,0,0,1,12.15-1.95,78.45,78.45,0,0,1,9.28-.27,87.63,87.63,0,0,1,10.58,1.13,61.84,61.84,0,0,1,11.31,3c1.91.69,3.84,1.46,5.77,2.33s3.68,1.95,5.51,3.07,3.63,2.34,5.4,3.67a54,54,0,0,1,4.93,4.44,65.48,65.48,0,0,1,4.57,5.08,59.76,59.76,0,0,1,3.82,5.87c3.11,5.15,5.65,10.6,8.36,16l1.38.59s.13-.51.37-1.42c-2.73-5.41-5.29-10.91-8.43-16.1-1.2-2.07-2.23-4.19-3.2-6.31s-2-4.18-2.82-6.31-1.53-4.33-2.24-6.48-1.39-4.27-2-6.44-1.08-4.36-1.51-6.56-1-4.28-1.37-6.42c-.82-4.27-1.3-8.65-1.91-12.68s-.94-8.08-1.23-11.88-.62-7.21-.78-10.41c-.38-6.34-.37-11.47-.44-14.14l-2.14-2.21c0,1.26.06,4.64.23,9.64s.56,11.43,1.27,18.61c1.36,14.53,3.66,31.73,9.62,47.82-1.39-2.23-2.92-4.38-4.5-6.49l-4.65-6.38c-3.3-4.1-6.56-8.25-10-12.2a100.52,100.52,0,0,1-13.49-20,162.18,162.18,0,0,1-9.19-21.17c-2.45-7.14-4.63-13.85-6.31-20S85.8,366.72,84.9,362.58Z"></path><path class="cls-19" d="M268,386a112.46,112.46,0,0,1,12,40.27,130.3,130.3,0,0,1,.51,19.32c-.16,3.08-.37,6.06-.68,8.95s-.79,5.7-1.25,8.37a126.65,126.65,0,0,1-3.36,14.51,109.73,109.73,0,0,1-3.7,11c-2.37,6.08-4.12,9.47-4.12,9.47s-3.26-2.18-8.31-6.06l-8.87-7c-3.33-2.68-6.9-5.72-10.77-9-1.91-1.64-3.85-3.36-5.78-5.15s-4-3.59-6-5.49c-3.91-3.83-8.06-7.8-11.84-12.09a127.76,127.76,0,0,1-32.69-61.52c-1.43-5.54-2.39-11.2-3.38-16.58-.46-2.71-.84-5.41-1.2-8s-.73-5.17-1-7.67c-.54-5-1.07-9.7-1.42-14s-.59-8.06-.82-11.25c-.39-6.36-.37-10.27-.37-10.27s3.8.44,10.16,1.88a113.68,113.68,0,0,1,11.21,3.11,128.57,128.57,0,0,1,13.91,5.35c2.47,1.11,5,2.32,7.63,3.65s5.16,2.85,7.8,4.45a130.28,130.28,0,0,1,15.72,11.24A112.22,112.22,0,0,1,268,386Z"></path><path class="cls-5" d="M246.76,358.38l-1.61-1.53c-.81,3.13-1.76,7.24-2.63,12s-1.83,10.26-2.39,16.06c-1.29,11.72-1.46,24.8,1.2,37.8-5.29-11.37-11.21-22.45-17.56-33.27a54.53,54.53,0,0,1-3.35-6.77,55.8,55.8,0,0,1-2.5-6.89,84.2,84.2,0,0,1-2.72-14,122.27,122.27,0,0,1-.6-13.42c.05-4.27.37-8.32.67-11.84l-1.82-.88c-1,11.24-1.57,27.06,3.09,41.91A412.7,412.7,0,0,0,176.33,324l-1.4-.2h0s0,.51,0,1.43a412.19,412.19,0,0,1,40,53.31c-11.45-10.64-26.42-14.79-37-16,.08.61.16,1.22.25,1.84a71.2,71.2,0,0,1,11,2.23,62.36,62.36,0,0,1,12,4.64A53.16,53.16,0,0,1,212.76,379a54.49,54.49,0,0,1,5.12,5.18,48.88,48.88,0,0,1,4.29,6.16c6.32,10.77,12.21,21.8,17.48,33.12-8.19-10.39-19.34-17.18-29.57-21.37a99.79,99.79,0,0,0-14.57-4.51,104.66,104.66,0,0,0-11.33-1.8l.51,1.82a90.93,90.93,0,0,1,31.08,9.1c12,6,24,16.09,30.22,30.83,2,4.61,3.81,9.29,5.68,14,1.7,4.72,3.58,9.39,5.12,14.17-8.83-14-22.51-22.89-34.17-27.9a92.72,92.72,0,0,0-23.7-6.68l1.22,1.93A86.27,86.27,0,0,1,212,435.82a89.72,89.72,0,0,1,18,7.64c12.81,7.14,26.19,19.35,31.48,36.91,1.75,5.51,3.17,11.12,4.69,16.69l1.18.82.62-1.28c-1.53-5.6-3-11.23-4.71-16.77-5.26-17.45-3.56-35.15-.35-50.49a202.27,202.27,0,0,1,5.44-20.22c1.84-5.64,3.61-10,4.55-12.37l-1.07-2.55a189.25,189.25,0,0,0-8.42,25.05c-3.5,13.18-6.51,29.43-4.9,45.83-1.55-4.8-3.44-9.48-5.15-14.23-1.87-4.69-3.71-9.39-5.7-14-6.24-14.7-7.19-30.08-6.39-44.17A198.18,198.18,0,0,1,246.76,358.38Z"></path><path class="cls-20" d="M630.14,96.47c-.58.53-19.71-10.89-26.3-10.89S578.11,97,577.53,96.47Z"></path><rect class="cls-21" x="568.15" y="90.4" width="71.38" height="12.14" rx="2.07"></rect><path class="cls-22" d="M633,102.54l-6.05,41.13a6,6,0,0,1-5.92,5.1H586.66a6,6,0,0,1-5.92-5.1l-6-41.13Z"></path><path class="cls-18" d="M574.69,102.54l.63,4.26h26.76c6.41,0,15.78,8.1,7.85,42H621a6,6,0,0,0,5.92-5.1L633,102.54Z"></path><circle class="cls-13" cx="761.26" cy="239.95" r="174.14" transform="translate(53.3 608.57) rotate(-45)"></circle><circle class="cls-13" cx="761.26" cy="239.95" r="140.13"></circle><circle class="cls-23" cx="761.26" cy="239.95" r="127.69" transform="translate(53.3 608.57) rotate(-45)"></circle><path class="cls-7" d="M761.26,140.63a3.75,3.75,0,0,1-3.75-3.75V120.49a3.75,3.75,0,0,1,7.5,0v16.39A3.75,3.75,0,0,1,761.26,140.63Z"></path><path class="cls-7" d="M709.73,154.44a3.75,3.75,0,0,1-3.26-1.88l-8.19-14.19a3.75,3.75,0,1,1,6.5-3.75L713,148.81a3.74,3.74,0,0,1-1.37,5.12A3.66,3.66,0,0,1,709.73,154.44Z"></path><path class="cls-7" d="M672,192.17a3.77,3.77,0,0,1-1.88-.51l-14.19-8.19a3.75,3.75,0,0,1,3.75-6.5l14.2,8.19a3.76,3.76,0,0,1-1.88,7Z"></path><path class="cls-7" d="M658.19,243.7H641.8a3.76,3.76,0,0,1,0-7.51h16.39a3.76,3.76,0,0,1,0,7.51Z"></path><path class="cls-7" d="M657.81,303.43a3.76,3.76,0,0,1-1.88-7l14.19-8.19a3.75,3.75,0,0,1,3.76,6.5l-14.2,8.19A3.73,3.73,0,0,1,657.81,303.43Z"></path><path class="cls-7" d="M701.53,347.15a3.75,3.75,0,0,1-3.25-5.63l8.19-14.19a3.75,3.75,0,0,1,6.5,3.75l-8.19,14.19A3.74,3.74,0,0,1,701.53,347.15Z"></path><path class="cls-7" d="M761.26,363.15a3.75,3.75,0,0,1-3.75-3.75V343a3.75,3.75,0,0,1,7.5,0V359.4A3.75,3.75,0,0,1,761.26,363.15Z"></path><path class="cls-7" d="M821,347.15a3.73,3.73,0,0,1-3.25-1.88l-8.2-14.19a3.75,3.75,0,0,1,6.5-3.75l8.2,14.19a3.76,3.76,0,0,1-1.38,5.13A3.72,3.72,0,0,1,821,347.15Z"></path><path class="cls-7" d="M864.71,303.43a3.73,3.73,0,0,1-1.87-.51l-14.2-8.19a3.75,3.75,0,1,1,3.76-6.5l14.19,8.19a3.76,3.76,0,0,1-1.88,7Z"></path><path class="cls-7" d="M880.72,243.7H864.33a3.76,3.76,0,0,1,0-7.51h16.39a3.76,3.76,0,0,1,0,7.51Z"></path><path class="cls-7" d="M850.52,192.17a3.76,3.76,0,0,1-1.88-7l14.2-8.19a3.75,3.75,0,0,1,3.75,6.5l-14.19,8.19A3.77,3.77,0,0,1,850.52,192.17Z"></path><path class="cls-7" d="M812.79,154.44a3.63,3.63,0,0,1-1.87-.51,3.75,3.75,0,0,1-1.38-5.12l8.2-14.19a3.75,3.75,0,1,1,6.5,3.75L816,152.56A3.73,3.73,0,0,1,812.79,154.44Z"></path><polygon class="cls-13" points="761.26 148.78 773.24 176.46 761.26 239.95 749.28 176.46 761.26 148.78"></polygon><polygon class="cls-13" points="854.6 165.4 833.73 197.4 761.26 239.95 818.77 178.67 854.6 165.4"></polygon><line class="cls-24" x1="761.26" y1="239.95" x2="674.42" y2="327.34"></line><path class="cls-13" d="M768.56,240a7.3,7.3,0,1,1-7.3-7.31A7.3,7.3,0,0,1,768.56,240Z"></path><path class="cls-13" d="M397.06,487.92c0,4-3.07,6.21-3.67,11.9a1.81,1.81,0,0,0,1.81,2h38.61a1.8,1.8,0,0,0,1.77-2.23,3.46,3.46,0,0,0-2.31-2.75c-2.74-.68-15.88-6.65-20.56-8.89Z"></path><path class="cls-25" d="M379.2,358.64c3.23,3.23,36.58,52,38.72,59.67s-5.82,56.12-5.21,69.61c0,0-5.84,5.21-15.65,0,0,0-.3-16.87-1.22-27s-5.55-16.71,1.23-31.88c0,0-18.71-25.14-43.34-34.65l4.4-36.9Z"></path><path class="cls-26" d="M367.07,389.47l-13.23,4-.11,1c24.63,9.51,43.34,34.65,43.34,34.65-6.78,15.17-2.15,21.77-1.23,31.88s1.22,27,1.22,27l.52.25c.19-5.88.58-23.23-.9-36.89-1-9.61,1.28-15.82,3.44-19.37a9.39,9.39,0,0,0-.19-10.18C394.51,413.78,382.94,401.76,367.07,389.47Z"></path><path class="cls-13" d="M291.56,528.19c-3.54,3-5.11,8.54-4.95,12.36a2.37,2.37,0,0,0,2.37,2.29h37.87a2.37,2.37,0,0,0,1-4.54l-.1,0c-11.71-4.39-12.75-7.32-19.43-10.07Z"></path><path class="cls-27" d="M325,358.64c.55,3.4-5.72,16.25-6.41,46.22s-3,37.75-6.41,44.62-11.9,12.13-14.18,41.87-6.41,36.84-6.41,36.84,6.44,6.18,16.72,0c0,0,16.46-58.57,19.66-65.21s18.93-35.24,25.79-47.82,13.11-20.89,13.34-25.69,0-32,0-32Z"></path><path class="cls-28" d="M392.27,337.22c.94-4.38-2-21.54-2-21.54l18.88-27.52c5.35,9.29-1.53,44.12-3.31,50.47Z"></path><path class="cls-28" d="M386.1,350.21a19.42,19.42,0,0,0,3.36-.17c.79-.13,14.41-3.32,16.4-11.41.75-3-3.47-7.51-8.7-6s-12.44,10-12.44,10Z"></path><path class="cls-28" d="M326.38,280.25c12.61-12.34,28.79-18.14,47.1-16.34,19.19,1.89,34.78,20.36,35.69,24.25S396.13,314.48,387,325s-7.78,33.64-7.78,33.64-10.53,10.75-54.23,0C325,358.64,312.07,294.27,326.38,280.25Z"></path><path class="cls-29" d="M373.48,263.91c-18.31-1.8-34.49,4-47.1,16.34a16.44,16.44,0,0,0-3.49,5.57l3.27,2.93,20.49-9.67c28.42-12.75,56.24.56,62.52,9.08C408.26,284.27,392.67,265.8,373.48,263.91Z"></path><path class="cls-29" d="M322.4,287.14c-7.45,21.43,2.57,71.5,2.57,71.5,5.52,1.36,10.51,2.37,15,3.11-7.61-22.55-8.67-39.52.45-70.76Z"></path><path class="cls-30" d="M317.48,367.73c1.49,5.09,2.72,9,3.29,10.4L332,377s.59-5.17-3.13-8.21a6.58,6.58,0,0,1-1.43-3.18A26.11,26.11,0,0,0,317.48,367.73Z"></path><path class="cls-28" d="M349.28,291.48c.63-13.92-8.4-22.91-19.09-14.67-15.7,12.09-21.92,41.73-22.74,47.72-.6,4.43,5.79,28.69,10,43.2a26.11,26.11,0,0,1,9.91-2.08c-2.36-9.3-2.43-34.87-1.11-39.85C327.83,320,348.59,306.58,349.28,291.48Z"></path><path class="cls-31" d="M354.14,362.33c-10.89-5.65-17.49-15-16.13-22.16L326.4,374.82a9.38,9.38,0,0,0,2.7,10.06,48.42,48.42,0,0,0,21,10.91,9.41,9.41,0,0,0,9.79-3.59l21.65-29.45C376.5,368,365,368,354.14,362.33Z"></path><path class="cls-18" d="M354.14,362.33c-10.89-5.65-17.49-15-16.13-22.16L332.4,356.9c7,9.5,18.55,15.69,24.81,19.11,4.06,2.21-.72,11.53-6.2,19.93a9.39,9.39,0,0,0,8.89-3.74l21.65-29.45C376.5,368,365,368,354.14,362.33Z"></path><path class="cls-32" d="M383.12,360.61c-3.78,7.29-16.76,8.07-29,1.72s-19.07-17.39-15.29-24.69,16.76-8.06,29-1.72S386.91,353.32,383.12,360.61Z"></path><path class="cls-33" d="M386.11,362.81c-4.34,8.4-19,9.86-33.45,2.37s-21.61-20.42-17.27-28.81,19-9.86,33.45-2.37S390.44,354.41,386.11,362.81Z"></path><path class="cls-34" d="M381.76,359.6c-3.51,6.77-15.55,6.52-26.89.64s-17.69-15.18-14.18-21.95,15.55-7.48,26.89-1.59S385.27,352.84,381.76,359.6Z"></path><path class="cls-20" d="M369.55,343.55c-5.8-4.27-10.27-3.52-14.53-3.56-5.28-.06-13.41-3.61-14.44.58-1.22,6.41,5.55,14,15.34,19.07,11,5.7,21.79,5.85,25.19-.7C385,352.73,374.81,347.42,369.55,343.55Z"></path><path class="cls-35" d="M338.93,391.64c-1.32-.68-2.56-1.42-3.73-2.17l-2.57,1c2,1.77,4.8,3.53,5.3,4s5.92.88,6.87,1.19,1.85-.85,1.85-.85h0A48.81,48.81,0,0,1,338.93,391.64Z"></path><path class="cls-36" d="M325.59,381.68s1.89,5.73,3.08,7.56,8.76,1.07,10.39,1.13-.31-2.58-2.2-2.64-6.34-1.65-6.34-1.65-3.14-2.32-3.79-4.4Z"></path><path class="cls-37" d="M320.77,378.13c.79,1.66,1.23,2.29,3.18,2.73s4.85,4,6.74,3,.94-4.41-5.54-6.68Z"></path><path class="cls-38" d="M387.4,349.87s-3.6,1.17-5.55-.38a2.4,2.4,0,0,1-1.91.1c-.67-.21-5.61-3.25-6.12-4.39s.06-5,1.22-6.37c.73-.84,6.38-4.19,7.79-3.74s1.29,3,2.19,2.81,2.52,0,2.58,1.31a3,3,0,0,0,1.74,2.58,2.07,2.07,0,0,1,.58,2.83c-.71,1,1.58,1.62,1.34,3.07S387.4,349.87,387.4,349.87Z"></path><path class="cls-39" d="M398.73,263.26s-9.66,19.11-12.43,21.12-10.94,1.84-15.29-7.84c-4-8.83-1.1-12.38-1.1-12.38l2.24-2.87,8.9-15s14.72.76,14.72,1S398.73,263.26,398.73,263.26Z"></path><path class="cls-40" d="M395.77,247.39c0-.29-14.72-1-14.72-1l-8.9,15-2.25,2.87s-2.19,2.89,0,9.66c5.87-9.21,12.6-17.54,13.88-13.27,2.46,8.24,3.95,12.5,8.9,14,3.09-5.53,6-11.3,6-11.3S395.77,247.67,395.77,247.39Z"></path><path class="cls-18" d="M400.19,244.63a3.79,3.79,0,1,0,2.75-6.41,3.93,3.93,0,0,1-1.94-.16,2.15,2.15,0,0,1-.91-1.54,7.24,7.24,0,0,0-.39-1.79,2.33,2.33,0,0,0-3.86-.57,8.92,8.92,0,0,1-2.69-1.75,9.32,9.32,0,0,0-10.94-1.22c-1.64,1-3,2.79-2.67,4.66a3.73,3.73,0,0,0-1.57-2.22,1.06,1.06,0,0,0-1-.2.79.79,0,0,0-.32.92,1.92,1.92,0,0,0,.61.86,3.51,3.51,0,0,1,.71.78,3.63,3.63,0,0,0-3.29-.4,2.15,2.15,0,0,0-1,.72,1.23,1.23,0,0,0-.13,1.21,1.31,1.31,0,0,0,1.25.6,3.86,3.86,0,0,0,1.39-.46,11.62,11.62,0,0,0-5.37,7.43c-1,4.39.75,8.87,2.42,13-.42.67-.76,1.27-1.18,1.95a1.4,1.4,0,0,0-.22.48.92.92,0,0,0,.68.93,2.73,2.73,0,0,0,1.24,0c3.06-.56,7.25-7.87,8.61-12.91a1.82,1.82,0,0,1,1.77.07,10.88,10.88,0,0,1,1.35,1.28,7.76,7.76,0,0,0,11-.15A19.44,19.44,0,0,0,400.19,244.63Z"></path><path class="cls-41" d="M400.7,241.66a32.7,32.7,0,0,1,1.4,21.07,4.09,4.09,0,0,1-1.8,2.83,4.34,4.34,0,0,1-3.12-.16,28.41,28.41,0,0,1-5.32-2,9.85,9.85,0,0,1-4.12-3.81,11.84,11.84,0,0,1-1.21-6.45,1.57,1.57,0,0,1-1.92.49,3.25,3.25,0,0,1-1.51-1.49,7.5,7.5,0,0,1-.72-5.64,2.81,2.81,0,0,1,1.51-2,2.32,2.32,0,0,1,2.58,1.05,6.83,6.83,0,0,1,.87,2.85,2.61,2.61,0,0,0,2.17,1.73,2.17,2.17,0,0,0,2.13-1.2c.47-1,.18-2.45,1.09-3.1s2.62.16,3.48-.71c.67-.67.27-1.82.53-2.74a2,2,0,0,1,1.39-1.35C398.79,240.84,400.43,241,400.7,241.66Z"></path><path class="cls-42" d="M812.1,209.65c-.62-.1-3.11,0-3.11,0s-2.49-1.6-3.65-1,1.83,2.36,2.45,3.2,1.91.45,3.15.45,5.29,0,6.62.44,8.13-1.47,7.6-4.44-2.27-5.33-2.58-6.27.93-8.31-.09-8.75-1.82,6.75-2.35,6.84-3.12-6.6-4.22-6.48c-1.33.14-.63,1.92.18,4.71.51,1.78.71,2.88.71,2.88s-4.29-6-4.8-6.31c-1.38-.78-2.1.41-1.47,1.69s3.11,5.47,2.85,5.82-4.47-5.41-5.55-5.32-1.25,1.06-.85,1.81a21.56,21.56,0,0,0,3.22,3.85,13.17,13.17,0,0,1,3.18,3.53C814.11,208,812.91,209.78,812.1,209.65Z"></path><path class="cls-43" d="M824.22,207.72l-6.66,5,8.5,20.68,10.09-4.39C829.91,216.93,824.22,207.72,824.22,207.72Z"></path><path class="cls-28" d="M868.47,291.74c-3.91-7.52-20.86-40.42-32.32-62.69l-10.09,4.39,34.52,83.94C870.06,306.07,874.5,303.36,868.47,291.74Z"></path><path class="cls-28" d="M824.18,292.46c5.42-7.4,12.49-13.86,18.89-13.52,10.65.55,27,17.7,28.06,25.89S849.47,335.3,847.5,346.3s17.74,32.26,13.13,56.32c-.68,3.55-1.56,7.06-2.52,10.5-34.54,2.57-56.87-10.64-65-17,16-27.1,22.17-56.9,21.93-67.49-.26-11-1.12-15.5,1.19-21.9A61.21,61.21,0,0,1,824.18,292.46Z"></path><path class="cls-29" d="M844.94,314.43c5.21,8.61.67,18.65,5.65,24.51,6.68-11.64,21.36-27.48,20.54-34.11-1-7.74-15.65-23.46-26.25-25.64l-.55,1c3.81,3.13,6.69,9.24,4.31,13.2S839.05,304.68,844.94,314.43Z"></path><path class="cls-13" d="M762,527c-.11,5,4.07,11.61,4.07,11.61a8.38,8.38,0,0,1,1.39,3.26.77.77,0,0,1-.75.91H748.19a1.65,1.65,0,0,1-1.61-1.25,10.21,10.21,0,0,1,.38-6.64c1.72-3.65,4.11-7.89,4.11-7.89Z"></path><path class="cls-44" d="M791.26,399.29c-17.41,27.9-18.18,45.57-23.3,55s-6.4,15.61-9.47,40.19S751.07,527,751.07,527c4.61,4.35,11,0,11,0s7-25.6,13.86-39.17,8.7-29.95,8.7-29.95c3.61-6.78,32.47-36.72,42.29-46.82-17-3.68-28.43-10.79-33.75-15C792.52,397.19,791.91,398.25,791.26,399.29Z"></path><path class="cls-26" d="M793.14,396.13c-.62,1.06-1.23,2.12-1.88,3.16,9.36,10.15,27.64,20.07,27.64,20.07h0c3.2-3.33,6-6.21,8-8.27C809.9,407.41,798.46,400.3,793.14,396.13Z"></path><path class="cls-13" d="M843,527c.11,5-4.81,11.61-4.81,11.61a8.38,8.38,0,0,0-1.39,3.26.77.77,0,0,0,.75.91h18.55a1.66,1.66,0,0,0,1.62-1.25,10.16,10.16,0,0,0-.39-6.64c-1.71-3.65-4.1-7.89-4.1-7.89Z"></path><path class="cls-45" d="M826.89,411.09c-3.09,34.78,1.6,46.61,4.81,54.76,3.33,8.44,2.31,19.45,6.4,29.95S843,527,843,527c4.88,2.81,10.23,0,10.23,0,7.68-48.38-4.1-60.42-7.17-69.12-2.62-7.42,6.47-24.9,12.07-44.8A132.89,132.89,0,0,1,826.89,411.09Z"></path><path class="cls-26" d="M826.89,411.09c-3.09,34.78,1.6,46.61,4.81,54.76,3.33,8.44,2.31,19.45,6.4,29.95S843,527,843,527a9.72,9.72,0,0,0,1.6.7q0-4.8-.13-11.11c-.3-17.41-3.6-19.21-5.7-33.32s-2.4-9.61-6.6-27,.29-33,3.29-32.43c2.33.47,11.5.57,19.43-.38,1.13-3.35,2.24-6.82,3.24-10.36A132.89,132.89,0,0,1,826.89,411.09Z"></path><path class="cls-46" d="M782.77,232.59c-.48-3.75-.61-5.74.76-7.28s7.67-5.75,8.39-7.23a9.85,9.85,0,0,1,2-3.1c.42-.33.9-.59,1.17-.12s-.3,2.38-.69,3.16-2.14,3.64-2.14,3.64l2.92-2.31a25.07,25.07,0,0,1,2.16-3.72c.47-.34,1.48-.49,1.78,0a14,14,0,0,1,.6,4.33,24.32,24.32,0,0,1-1.94,4.6c-.42.5-9.21,6.67-9.21,6.67S783,234.34,782.77,232.59Z"></path><path class="cls-47" d="M789.55,229.12l-6.78,3.47s.39,11.48,1.38,22.11c3.54-1.31,7.64-2.82,11.55-4.24Z"></path><path class="cls-28" d="M847.5,280c-4.14-1.73-10.11-3.77-21.08-6.72-15.48-4.16-23.81-8.29-27.48-11.57l-3.24-11.2c-3.91,1.42-8,2.93-11.55,4.24.74,7.88,1.81,15.28,3.31,17.18,7.25,9.19,34.86,13.78,32.81,26.54C818.2,311.38,852.93,282.23,847.5,280Z"></path><path class="cls-48" d="M850.65,248.29c-8.18,6.24-12.73,17.42-10.13,21.84s11.3,3.5,14,1S850.65,248.29,850.65,248.29Z"></path><path class="cls-40" d="M842,258.87c2,3.56,2.89,5.75.65,9.12a26.22,26.22,0,0,0-1.69,2.79c2.06,2.48,6.36,2.85,9.74,2.1l1.74-.77V255.23l-3-5.95A31,31,0,0,0,842,258.87Z"></path><path class="cls-18" d="M855.16,243.59a9.68,9.68,0,0,0-12.36,9.28c0,2.51.94,4.91,1.56,7.35s.83,5.18-.51,7.31c-.72,1.14-1.83,2-2.49,3.18-1.46,2.6-.26,6,1.71,8.23s4.62,3.79,6.74,5.9,3.76,5.17,2.86,8c-.76,2.41-3.06,3.94-4.74,5.84a11.61,11.61,0,0,0-3,9,9.18,9.18,0,0,0,5.65,7.39,7.59,7.59,0,0,0,8.69-2.62A40.88,40.88,0,0,0,856,320.3a12.41,12.41,0,0,0,.06,7.92,7.5,7.5,0,0,0,5.95,4.84,8.26,8.26,0,0,0,5.5-1.76,24.27,24.27,0,0,0,4.14-4.21c.68,3.38,4.38,5.69,7.79,5.22a8.9,8.9,0,0,0,7.06-6.7,12.07,12.07,0,0,0-2.14-9.78c-1.94-2.71-4.8-4.77-6.2-7.78-1.64-3.52-.95-7.77.86-11.2s4.61-6.21,7.37-8.93c4.16-4.11,4.15-11.13-1.41-16.35-3-2.8-6.4-5.73-7.27-9.73-1.19-5.49-1.55-12.09-5.94-15.59S860.35,241.46,855.16,243.59Z"></path><path class="cls-49" d="M208.69,408c-1.63,3-2.32,8.61-3,15.55a158,158,0,0,1-3.78,23.57c-2.62,10.46-5.71,19.94-7.47,28.5S192,491.51,193,495.79c-1-4.25-4.81-10.61-7.4-19.79a66.8,66.8,0,0,1-2.57-15.44,63.37,63.37,0,0,1,1.79-17.78,54.76,54.76,0,0,1,12.81-22.87C202.54,414.44,207.07,411,208.69,408Z"></path><path class="cls-49" d="M138.57,428.34c2.46,2.12,7.72,3.69,14.11,6.42s14,6.65,20.63,13.58A67.51,67.51,0,0,1,189,475.8c2.64,8.82,2.78,16,4,20-1.24-4.08-5.59-9.73-11.59-15.55s-13.52-12-20.86-19.77C148.48,448,143.43,432.63,138.57,428.34Z"></path><path class="cls-49" d="M145.65,391c1.74,2.06,6.18,3.83,11.29,7A43.42,43.42,0,0,1,172,412.72a60.65,60.65,0,0,1,7.57,25.2c.73,7.58.34,13.61,1.39,17-1.05-3.39-4.87-8.1-9.52-13.66s-10.12-12-14.6-19.64c-3.69-6.26-5.48-12.71-6.93-18.31S147.4,393.09,145.65,391Z"></path><path class="cls-50" d="M103.87,300.4l-1.35-.66"></path><path class="cls-51" d="M99.86,298.38C58.2,276.51,28.69,232.77,24.32,185.87c-.76-8.21-.77-16.71,2.08-24.45s9-14.67,17-16.58c11.74-2.79,23.64,5.4,35.64,4.13C91.65,147.63,101,136,104.62,123.89s3-25.06,4-37.67,4.39-26,13.86-34.36c13.54-12,37.8-8,46.73,7.78,2.66,4.7,3,12.27-2.11,14-4.42,1.47-8.81-3.62-8.42-8.26s3.81-8.41,7.26-11.54a101.63,101.63,0,0,1,85.35-24.25c29.31,5.42,57.62,27.48,70,60.53"></path><path class="cls-50" d="M321.86,91.49c.17.47.34.94.5,1.41"></path><path class="cls-50" d="M492.62,117.47c.48.14,1,.26,1.46.37"></path><path class="cls-52" d="M497,118.31c13.15,1.37,27.26-7,30.94-19.82,4.86-16.92-3.58-37.61-17.9-35.88C497.77,65.1,498,82.84,508,93.55c8,8.61,21.58,10.32,32.75,6.61S561,88.23,568.64,79.29,582.87,60.49,591,52a80.12,80.12,0,0,1,54.46-24.3c13.26-.51,34.3,10.54,42.62,28"></path><path class="cls-50" d="M688.7,57c.2.46.39.92.57,1.39l1.06-1.06"></path><path class="cls-53" d="M692.47,55.26c36-34.87,77.93-53.51,125.2-54.94C840.12-.35,863,3.56,882.83,14.19S919,42.58,925.58,64.06c9,29.57-.88,63.1,11.31,91.5,7.93,18.5,24,31.95,38.93,45.49s29.76,29.11,33.67,48.85c3.72,18.75-7.12,41.41-25.42,44.77"></path><path class="cls-50" d="M982.59,294.9c-.5.06-1,.11-1.5.14"></path></g></g></svg>