<svg xmlns="http://www.w3.org/2000/svg" xmlns:xlink="http://www.w3.org/1999/xlink" id="Layer_1" data-name="Layer 1" viewBox="0 0 685.69 524.31"><defs><style>.cls-1{fill:#ececec;}.cls-1,.cls-2,.cls-3,.cls-4{fill-rule:evenodd;}.cls-2{fill:url(#Gradiente_sem_nome_69);}.cls-3{fill:url(#Gradiente_sem_nome_69-2);}.cls-4{fill:url(#Gradiente_sem_nome_69-3);}.cls-5{fill:#3655b5;}.cls-6{fill:#1a2e35;}.cls-7{fill:url(#linear-gradient);}.cls-8{fill:#fff;}.cls-9{fill:#6a9dd8;}.cls-10{fill:#e1e1e1;}.cls-11{fill:url(#linear-gradient-2);}.cls-12{fill:#ffc043;}.cls-13{fill:url(#linear-gradient-3);}.cls-14{fill:url(#linear-gradient-4);}.cls-15{fill:#fafafa;}.cls-16{fill:url(#linear-gradient-5);}.cls-17{fill:url(#linear-gradient-6);}.cls-18{fill:url(#linear-gradient-7);}.cls-19{fill:url(#linear-gradient-8);}</style><linearGradient id="Gradiente_sem_nome_69" x1="13.09" y1="247.36" x2="123.85" y2="247.36" gradientUnits="userSpaceOnUse"><stop offset="0.16" stop-color="#e08197"></stop><stop offset="1" stop-color="#e08197" stop-opacity="0"></stop></linearGradient><linearGradient id="Gradiente_sem_nome_69-2" x1="4.31" y1="143.16" x2="65.59" y2="143.16" xlink:href="#Gradiente_sem_nome_69"></linearGradient><linearGradient id="Gradiente_sem_nome_69-3" x1="76.22" y1="106.44" x2="232.13" y2="106.44" xlink:href="#Gradiente_sem_nome_69"></linearGradient><linearGradient id="linear-gradient" x1="523.69" y1="207.63" x2="643.36" y2="207.63" gradientUnits="userSpaceOnUse"><stop offset="0" stop-color="#c2ceff"></stop><stop offset="1" stop-color="#95aaff"></stop></linearGradient><linearGradient id="linear-gradient-2" x1="194.46" y1="107.19" x2="502.12" y2="107.19" gradientTransform="translate(455.48 -241.1) rotate(90)" xlink:href="#linear-gradient"></linearGradient><linearGradient id="linear-gradient-3" x1="68.47" y1="378.26" x2="498.53" y2="378.26" xlink:href="#linear-gradient"></linearGradient><linearGradient id="linear-gradient-4" x1="50.48" y1="511.87" x2="516.43" y2="511.87" xlink:href="#linear-gradient"></linearGradient><linearGradient id="linear-gradient-5" x1="130.53" y1="355.32" x2="199.74" y2="355.32" gradientUnits="userSpaceOnUse"><stop offset="0" stop-color="#ee497b"></stop><stop offset="1" stop-color="#de2263"></stop></linearGradient><linearGradient id="linear-gradient-6" x1="167.83" y1="327" x2="179.62" y2="327" xlink:href="#linear-gradient-5"></linearGradient><linearGradient id="linear-gradient-7" x1="234.16" y1="455.11" x2="283.15" y2="455.11" xlink:href="#linear-gradient-5"></linearGradient><linearGradient id="linear-gradient-8" x1="260.56" y1="435.07" x2="268.91" y2="435.07" xlink:href="#linear-gradient-5"></linearGradient></defs><title>Omnichannel</title><path class="cls-1" d="M670.41,168.48a25.4,25.4,0,0,1,4.85,4.75l6.19-1.13,4.09,9.57-5.1,3.69a25.29,25.29,0,0,1,.07,6.79l5.18,3.58-3.88,9.66-6.21-1a25.69,25.69,0,0,1-4.75,4.85l1.13,6.19-9.58,4.09-3.69-5.1a25.63,25.63,0,0,1-6.78.07l-3.58,5.18-9.66-3.89,1-6.21a24.82,24.82,0,0,1-4.85-4.75L628.65,206l-4.09-9.57,5.1-3.69a25.7,25.7,0,0,1-.07-6.79l-5.18-3.57,3.88-9.66,6.21,1a26,26,0,0,1,4.75-4.85l-1.13-6.19,9.58-4.08,3.69,5.1a25.21,25.21,0,0,1,6.78-.08l3.58-5.17,9.66,3.88-1,6.21Zm-10.76,10.36a11.17,11.17,0,1,0,6.2,14.53A11.16,11.16,0,0,0,659.65,178.84Z"></path><path class="cls-2" d="M96.24,210.23a46,46,0,0,1,8.76,8.58l11.19-2,7.39,17.31-9.22,6.66A46.2,46.2,0,0,1,114.5,253l9.35,6.46-7,17.47-11.22-1.81A46.37,46.37,0,0,1,97,283.9l2,11.19-17.3,7.38-6.67-9.21a46.2,46.2,0,0,1-12.27.13l-6.46,9.35-17.46-7,1.8-11.23a46,46,0,0,1-8.76-8.58l-11.19,2-7.39-17.31L22.58,254a46.12,46.12,0,0,1-.14-12.26l-9.35-6.47,7-17.46,11.22,1.8a46,46,0,0,1,8.59-8.76l-2.05-11.19,17.31-7.39,6.67,9.22a46.13,46.13,0,0,1,12.26-.13L80.58,192,98,199l-1.8,11.23ZM76.79,229A20.19,20.19,0,1,0,88,255.21,20.18,20.18,0,0,0,76.79,229Z"></path><path class="cls-3" d="M50.31,122.61a25.4,25.4,0,0,1,4.85,4.75l6.19-1.13,4.09,9.58-5.1,3.68a25.71,25.71,0,0,1,.08,6.79l5.17,3.58-3.88,9.66-6.21-1a25.69,25.69,0,0,1-4.75,4.85l1.13,6.19-9.58,4.09-3.69-5.1a25.63,25.63,0,0,1-6.78.07l-3.58,5.18-9.66-3.88,1-6.21A25.69,25.69,0,0,1,14.74,159l-6.19,1.13-4.09-9.58,5.1-3.69A25.63,25.63,0,0,1,9.49,140l-5.18-3.58,3.88-9.66,6.21,1A25.4,25.4,0,0,1,19.15,123L18,116.76l9.58-4.09,3.69,5.1a25.62,25.62,0,0,1,6.78-.08l3.58-5.17,9.66,3.88-1,6.21ZM39.55,133a11.17,11.17,0,1,0,6.2,14.53A11.16,11.16,0,0,0,39.55,133Z"></path><path class="cls-4" d="M176.28,46.44a63.26,63.26,0,0,1,15,7.9l14-7.1,16.57,20-9.56,12.43a63.74,63.74,0,0,1,5,16.16l14.9,4.87-2.4,25.84-15.55,2a63.63,63.63,0,0,1-7.9,15l7.1,14-20,16.57L181,164.49a63.49,63.49,0,0,1-16.16,5l-4.87,14.9L134.11,182l-2-15.55a63.63,63.63,0,0,1-15-7.9l-14,7.1-16.56-20,9.56-12.44a63.62,63.62,0,0,1-5-16.16L76.22,112.2l2.41-25.83,15.55-2a63.26,63.26,0,0,1,7.9-15l-7.1-14,20-16.56,12.44,9.56a63.55,63.55,0,0,1,16.15-5l4.87-14.91,25.84,2.41,2,15.55ZM157.94,78.83a27.84,27.84,0,1,0,25.13,30.3A27.83,27.83,0,0,0,157.94,78.83Z"></path><path class="cls-5" d="M67.83,474C85,462.78,89.3,441.32,89.11,421.94c0-3.24.41-6.64-1.08-9.52s-5.07-4.9-8-3.6c-2.46,1.07-3.59,3.84-5,6.12A19.06,19.06,0,0,1,67.12,422c-2.11,1-4.71,1.61-6.74.44-2.79-1.6-3-5.46-2.93-8.68q.28-9,.56-18c.1-3.21.19-6.5-.75-9.57s-3.11-6-6.19-6.9-7,.74-7.69,3.88a31.25,31.25,0,0,0-.19,4c-.12,1.33-.79,2.79-2.08,3.14s-2.59-.6-3.54-1.57c-3.29-3.32-5.46-7.56-7.5-11.77s-4-8.52-7-12.14S16,358.32,11.34,358s-9.71,2.35-11,6.85,1.28,9.16,4.1,12.9a72.41,72.41,0,0,0,14.8,14.61,6,6,0,0,1,2.47,2.75c.65,2.16-1.46,4.24-3.62,4.9-2.45.74-5.08.42-7.63.66s-5.32,1.27-6.34,3.62c-1.42,3.26,1.28,6.77,4,9.09a62.16,62.16,0,0,0,18.18,10.94c2.38.93,4.88,1.75,6.77,3.46s3,4.62,1.77,6.86-4.24,2.89-6.74,2.37S23.35,435,21,434.1c-4.43-1.78-10.22-1.61-13.19,2.14-1.94,2.46-2.19,6-1.31,9a23.48,23.48,0,0,0,4.74,8.07,62.59,62.59,0,0,0,26.3,19.19c10.3,3.8,19.9,5,30.31,1.52"></path><path class="cls-6" d="M5.16,360.5a2.28,2.28,0,0,0,.31.31l1,.88c.83.76,2.06,1.89,3.61,3.38a122.14,122.14,0,0,1,12.12,13.56c2.35,3,4.79,6.47,7.33,10.21s5.24,7.75,7.91,12.07a146.35,146.35,0,0,1,7.7,13.94c1.19,2.49,2.25,5.09,3.33,7.74l3.26,8.05a291.77,291.77,0,0,1,10.85,31.23,142.14,142.14,0,0,1,4.79,26.51,104.35,104.35,0,0,1-.14,18.17c-.23,2.14-.43,3.8-.61,4.91-.08.54-.14,1-.19,1.28a3.61,3.61,0,0,0,0,.44,1.84,1.84,0,0,0,.1-.43c.06-.31.14-.73.25-1.27.22-1.11.46-2.76.72-4.9a99.73,99.73,0,0,0,.33-18.23,140,140,0,0,0-4.67-26.63,285.81,285.81,0,0,0-10.83-31.3q-1.66-4.08-3.27-8.06c-1.08-2.64-2.15-5.26-3.35-7.76a142.78,142.78,0,0,0-7.77-14c-2.68-4.32-5.39-8.33-8-12.07s-5-7.15-7.41-10.18A115.57,115.57,0,0,0,10.19,364.9c-1.57-1.47-2.83-2.57-3.69-3.3l-1-.84A2.24,2.24,0,0,0,5.16,360.5Z"></path><path class="cls-6" d="M45.45,414.57a6.63,6.63,0,0,0,.35-1.37c.19-.88.43-2.17.7-3.76.54-3.2,1.13-7.63,1.76-12.52s1.29-9.3,1.88-12.47c.29-1.59.53-2.87.72-3.76a6.58,6.58,0,0,0,.21-1.39,6.83,6.83,0,0,0-.44,1.34c-.25.87-.56,2.14-.91,3.73-.69,3.16-1.42,7.58-2,12.48S46.5,406,46.08,409.37c-.2,1.51-.37,2.78-.51,3.79A6.17,6.17,0,0,0,45.45,414.57Z"></path><path class="cls-6" d="M3.74,405.84a10.07,10.07,0,0,0,1.67.24c1.07.12,2.63.28,4.54.55,3.82.5,9.09,1.37,14.85,2.59s10.93,2.55,14.64,3.62c1.86.52,3.35,1,4.38,1.29a8.75,8.75,0,0,0,1.63.44,9.42,9.42,0,0,0-1.55-.66c-1-.38-2.49-.9-4.34-1.48-3.69-1.17-8.86-2.57-14.64-3.8A147.81,147.81,0,0,0,10,406.21c-1.93-.21-3.49-.31-4.57-.36A8.84,8.84,0,0,0,3.74,405.84Z"></path><path class="cls-6" d="M62.57,461a2,2,0,0,0,.3-.5l.75-1.48c.65-1.28,1.54-3.17,2.6-5.52,2.14-4.68,4.89-11.25,7.82-18.54s5.61-13.87,7.65-18.6l2.42-5.59c.26-.61.48-1.11.65-1.52a1.75,1.75,0,0,0,.19-.55,2.27,2.27,0,0,0-.29.5c-.21.39-.46.88-.76,1.47-.65,1.29-1.53,3.18-2.6,5.52-2.14,4.69-4.88,11.26-7.82,18.55s-5.61,13.87-7.64,18.59l-2.43,5.59-.65,1.53A2.17,2.17,0,0,0,62.57,461Z"></path><path class="cls-6" d="M7.34,441.91a2.19,2.19,0,0,0,.54.24l1.61.57,5.91,2c5,1.73,11.86,4.2,19.45,6.94s14.49,5.15,19.52,6.78c2.51.82,4.56,1.45,6,1.87l1.63.46a2.5,2.5,0,0,0,.59.13,2.43,2.43,0,0,0-.55-.24l-1.6-.57-5.92-2.05c-5-1.73-11.86-4.2-19.45-6.94S20.57,446,15.53,444.37c-2.51-.82-4.55-1.45-6-1.87L7.92,442A2.61,2.61,0,0,0,7.34,441.91Z"></path><path class="cls-7" d="M624.38,329.22l-82.75-.38a18,18,0,0,1-17.94-18l.88-206.86A18,18,0,0,1,542.68,86l82.74.38a18,18,0,0,1,17.94,18l-.87,206.87A18,18,0,0,1,624.38,329.22Z"></path><path class="cls-8" d="M625.3,93.55l-16-.07a4,4,0,0,0-3.91,4v2.9a4,4,0,0,1-3.92,4l-31.27-.15a4,4,0,0,1-3.88-4.08l0-2.9a4,4,0,0,0-3.88-4.08l-5.64,0-14-.06A12.61,12.61,0,0,0,530,105.71l-.85,201.91a12.6,12.6,0,0,0,12.56,12.64l82.58.38A12.61,12.61,0,0,0,637,308.11l.86-201.92A12.61,12.61,0,0,0,625.3,93.55Z"></path><rect class="cls-9" x="542.24" y="230.94" width="81.71" height="5.47"></rect><path class="cls-9" d="M621,252.46c0,.2-17.44.36-38.95.36s-39-.16-39-.36,17.44-.36,39-.36S621,252.26,621,252.46Z"></path><path class="cls-9" d="M621,122.81c0,.2-17.44.35-38.95.35s-39-.15-39-.35,17.44-.36,39-.36S621,122.61,621,122.81Z"></path><path class="cls-9" d="M621,262.41c0,.2-17.44.36-38.95.36s-39-.16-39-.36,17.44-.36,39-.36S621,262.21,621,262.41Z"></path><path class="cls-9" d="M621,272.36c0,.2-17.44.36-38.95.36s-39-.16-39-.36,17.44-.36,39-.36S621,272.16,621,272.36Z"></path><path class="cls-9" d="M621,282.31c0,.2-17.44.36-38.95.36s-39-.16-39-.36,17.44-.36,39-.36S621,282.11,621,282.31Z"></path><path class="cls-9" d="M621,292.26c0,.2-17.44.36-38.95.36s-39-.16-39-.36,17.44-.36,39-.36S621,292.06,621,292.26Z"></path><path class="cls-9" d="M622.15,303.54c0,.2-17.44.36-38.95.36s-39-.16-39-.36,17.44-.36,39-.36S622.15,303.34,622.15,303.54Z"></path><rect class="cls-10" x="543.13" y="134.15" width="81.92" height="79.25"></rect><polygon class="cls-5" points="549.48 206.62 572.14 165.84 590.68 191.91 601.94 178.06 618.7 206.62 549.48 206.62"></polygon><path class="cls-5" d="M598.58,157.91a5.9,5.9,0,1,1-5.9-5.9A5.9,5.9,0,0,1,598.58,157.91Z"></path><path class="cls-9" d="M618.7,206.84a2,2,0,0,1,0-.32c0-.24,0-.54,0-.92,0-.85,0-2,0-3.57,0-3.14,0-7.69-.08-13.46,0-11.58-.11-28.06-.18-47.85l.34.33-69.21.06c-.09.08.73-.74.38-.38v17.79c0,5.82,0,11.53,0,17.08,0,11.1,0,21.59,0,31.24l-.34-.34,50,.18,14.11.09,3.75,0h1l.34,0a.92.92,0,0,1-.3,0l-.94,0-3.68,0-14,.09-50.27.17h-.34v-.35c0-9.65,0-20.14,0-31.24,0-5.55,0-11.26,0-17.08,0-2.91,0-5.86,0-8.83v-9l.4-.4,69.21,0H619v.34c-.07,19.88-.13,36.43-.17,48.06,0,5.74-.06,10.26-.09,13.39,0,1.5,0,2.67,0,3.5,0,.37,0,.66,0,.89A1.32,1.32,0,0,1,618.7,206.84Z"></path><rect class="cls-11" x="241.1" y="-46.64" width="214.39" height="307.66" rx="11.55" transform="translate(241.1 455.48) rotate(-90)"></rect><rect class="cls-8" x="243.54" y="-21.27" width="200.87" height="256.94" transform="translate(236.78 451.17) rotate(-90)"></rect><path class="cls-8" d="M486.66,99a8.23,8.23,0,1,1-8.23,8.22A8.23,8.23,0,0,1,486.66,99Z"></path><rect class="cls-5" x="172.73" y="105.49" width="64.57" height="3.4" rx="1.22" transform="translate(97.82 312.21) rotate(-90)"></rect><rect class="cls-9" x="332.69" y="21.85" width="81.71" height="5.47"></rect><rect class="cls-9" x="226.26" y="115.83" width="81.71" height="5.47"></rect><path class="cls-9" d="M434.31,42.21c0,.2-22.75.36-50.8.36s-50.82-.16-50.82-.36,22.75-.36,50.82-.36S434.31,42,434.31,42.21Z"></path><path class="cls-9" d="M434.31,54.15c0,.19-22.75.35-50.8.35s-50.82-.16-50.82-.35,22.75-.36,50.82-.36S434.31,54,434.31,54.15Z"></path><path class="cls-9" d="M434.31,66.08c0,.2-22.75.36-50.8.36s-50.82-.16-50.82-.36,22.75-.35,50.82-.35S434.31,65.88,434.31,66.08Z"></path><path class="cls-9" d="M434.31,78c0,.2-22.75.36-50.8.36s-50.82-.16-50.82-.36,22.75-.36,50.82-.36S434.31,77.82,434.31,78Z"></path><path class="cls-9" d="M434.31,90c0,.2-22.75.36-50.8.36s-50.82-.16-50.82-.36,22.75-.35,50.82-.35S434.31,89.76,434.31,90Z"></path><path class="cls-9" d="M412,101.89c0,.2-17.76.36-39.67.36s-39.67-.16-39.67-.36,17.76-.36,39.67-.36S412,101.69,412,101.89Z"></path><path class="cls-9" d="M360.46,137.35c0,.2-29.85.36-66.65.36s-66.66-.16-66.66-.36S257,137,293.81,137,360.46,137.16,360.46,137.35Z"></path><path class="cls-9" d="M360.46,147.3c0,.2-29.85.36-66.65.36s-66.66-.16-66.66-.36S257,147,293.81,147,360.46,147.1,360.46,147.3Z"></path><path class="cls-9" d="M360.46,157.25c0,.2-29.85.36-66.65.36s-66.66-.16-66.66-.36,29.84-.36,66.66-.36S360.46,157.05,360.46,157.25Z"></path><path class="cls-9" d="M360.46,167.2c0,.2-29.85.36-66.65.36s-66.66-.16-66.66-.36,29.84-.36,66.66-.36S360.46,167,360.46,167.2Z"></path><path class="cls-9" d="M360.46,177.15c0,.2-29.85.36-66.65.36s-66.66-.16-66.66-.36,29.84-.35,66.66-.35S360.46,177,360.46,177.15Z"></path><rect class="cls-5" x="227.15" y="19.05" width="81.92" height="79.25"></rect><polygon class="cls-8" points="233.5 91.52 256.17 50.73 274.7 76.8 285.96 62.96 302.72 91.52 233.5 91.52"></polygon><path class="cls-12" d="M282.6,42.8a5.9,5.9,0,1,1-5.9-5.89A5.9,5.9,0,0,1,282.6,42.8Z"></path><path class="cls-9" d="M302.72,91.74a2.4,2.4,0,0,1,0-.33c0-.24,0-.54,0-.92,0-.85,0-2,0-3.57,0-3.14-.05-7.69-.08-13.46-.05-11.57-.1-28.06-.18-47.85l.34.33L233.51,26c-.09.08.73-.73.38-.38V43.41q0,8.75,0,17.08c0,11.1,0,21.59,0,31.25l-.33-.34,50,.17,14.11.09,3.75,0,1,0a1.37,1.37,0,0,1,.34,0l-.3,0-.94,0-3.68,0-14,.09-50.26.18h-.35v-.34c0-9.66,0-20.15,0-31.25q0-8.33,0-17.08V34.59c0-1.49,0-3,0-4.48V25.62l.4-.4,69.21.05h.34v.34c-.07,19.88-.13,36.44-.17,48.06,0,5.74-.06,10.26-.08,13.39,0,1.51,0,2.67,0,3.5,0,.37,0,.66,0,.89A1.51,1.51,0,0,1,302.72,91.74Z"></path><rect class="cls-5" x="378.84" y="126.35" width="57.98" height="56.09"></rect><polygon class="cls-8" points="383.34 177.63 399.38 148.77 412.5 167.22 420.47 157.42 432.32 177.63 383.34 177.63"></polygon><path class="cls-12" d="M418.08,143.16a4.17,4.17,0,1,1-4.17-4.17A4.17,4.17,0,0,1,418.08,143.16Z"></path><path class="cls-9" d="M432.32,177.79s0-.08,0-.23,0-.38,0-.65c0-.6,0-1.44,0-2.53,0-2.22,0-5.44-.06-9.52,0-8.19-.07-19.86-.12-33.87l.23.24-49,0c-.06.06.52-.52.28-.27h0v3.17c0,1.06,0,2.11,0,3.17v18.33c0,7.85,0,15.28,0,22.11l-.24-.24,35.42.12,10,.07,2.65,0,.68,0h.24s-.06,0-.21,0l-.66,0-2.6,0-9.94.06-35.57.12h-.24v-.24c0-6.83,0-14.26,0-22.11V143.59c0-2.06,0-4.14,0-6.24V131h0l.28-.28,49,0h.24V131c-.05,14.07-.09,25.79-.12,34,0,4.06-.05,7.26-.06,9.47,0,1.07,0,1.89,0,2.48,0,.26,0,.47,0,.63S432.33,177.8,432.32,177.79Z"></path><rect class="cls-13" x="68.47" y="236.06" width="430.06" height="284.4" rx="14.57"></rect><path class="cls-14" d="M50.48,499.43H516.43a0,0,0,0,1,0,0v7.09a17.8,17.8,0,0,1-17.8,17.8H68.28a17.8,17.8,0,0,1-17.8-17.8v-7.09A0,0,0,0,1,50.48,499.43Z"></path><rect class="cls-10" x="80.01" y="247.36" width="405.77" height="240.17"></rect><polygon class="cls-5" points="241.11 499.43 246.89 508.62 328.25 508.62 333.62 499.43 241.11 499.43"></polygon><rect class="cls-15" x="93.55" y="263.36" width="373.59" height="224.08"></rect><path class="cls-9" d="M109.49,274.41a3.14,3.14,0,1,1-3.13-3.14A3.13,3.13,0,0,1,109.49,274.41Z"></path><path class="cls-9" d="M122.28,274.41a3.13,3.13,0,1,1-3.13-3.14A3.13,3.13,0,0,1,122.28,274.41Z"></path><path class="cls-9" d="M135.08,274.41a3.14,3.14,0,1,1-3.14-3.14A3.14,3.14,0,0,1,135.08,274.41Z"></path><path class="cls-9" d="M467.14,288.12c0,.2-83.64.36-186.79.36s-186.8-.16-186.8-.36,83.62-.36,186.8-.36S467.14,287.92,467.14,288.12Z"></path><rect class="cls-9" x="68.47" y="499.62" width="430.06" height="1.37"></rect><rect class="cls-9" x="124.18" y="396.99" width="81.71" height="5.47"></rect><rect class="cls-9" x="229.72" y="321.1" width="81.71" height="5.47"></rect><path class="cls-9" d="M433,341.46c0,.2-45.5.36-101.62.36s-101.62-.16-101.62-.36,45.49-.36,101.62-.36S433,341.26,433,341.46Z"></path><path class="cls-9" d="M433,353.39c0,.2-45.5.36-101.62.36s-101.62-.16-101.62-.36,45.49-.35,101.62-.35S433,353.2,433,353.39Z"></path><path class="cls-9" d="M433,365.33c0,.2-45.5.36-101.62.36s-101.62-.16-101.62-.36,45.49-.36,101.62-.36S433,365.13,433,365.33Z"></path><path class="cls-9" d="M433,377.27c0,.19-45.5.35-101.62.35s-101.62-.16-101.62-.35,45.49-.36,101.62-.36S433,377.07,433,377.27Z"></path><path class="cls-9" d="M433,389.2c0,.2-45.5.36-101.62.36s-101.62-.16-101.62-.36,45.49-.36,101.62-.36S433,389,433,389.2Z"></path><path class="cls-9" d="M309.05,401.14c0,.19-17.76.36-39.66.36s-39.67-.17-39.67-.36,17.75-.36,39.67-.36S309.05,400.94,309.05,401.14Z"></path><path class="cls-9" d="M431.47,424.3c0,.2-29.91.36-66.79.36s-66.79-.16-66.79-.36,29.9-.36,66.79-.36S431.47,424.11,431.47,424.3Z"></path><path class="cls-9" d="M431.47,437c0,.2-29.91.36-66.79.36s-66.79-.16-66.79-.36,29.9-.35,66.79-.35S431.47,436.77,431.47,437Z"></path><path class="cls-9" d="M431.47,449.64c0,.2-29.91.36-66.79.36s-66.79-.16-66.79-.36,29.9-.35,66.79-.35S431.47,449.44,431.47,449.64Z"></path><path class="cls-9" d="M431.47,462.31c0,.2-29.91.36-66.79.36s-66.79-.16-66.79-.36,29.9-.36,66.79-.36S431.47,462.11,431.47,462.31Z"></path><path class="cls-9" d="M206.09,423.09c0,.2-17.82.36-39.81.36s-39.82-.16-39.82-.36,17.83-.36,39.82-.36S206.09,422.89,206.09,423.09Z"></path><path class="cls-9" d="M206.09,433c0,.2-17.82.36-39.81.36s-39.82-.16-39.82-.36,17.83-.36,39.82-.36S206.09,432.84,206.09,433Z"></path><path class="cls-9" d="M206.09,443c0,.2-17.82.36-39.81.36s-39.82-.16-39.82-.36,17.83-.36,39.82-.36S206.09,442.79,206.09,443Z"></path><path class="cls-9" d="M206.09,452.94c0,.2-17.82.36-39.81.36s-39.82-.16-39.82-.36,17.83-.36,39.82-.36S206.09,452.74,206.09,452.94Z"></path><path class="cls-9" d="M206.09,462.89c0,.2-17.82.36-39.81.36s-39.82-.16-39.82-.36,17.83-.36,39.82-.36S206.09,462.69,206.09,462.89Z"></path><rect class="cls-10" x="124.18" y="303.24" width="81.92" height="79.25"></rect><polygon class="cls-16" points="130.53 375.71 153.19 334.93 171.72 361 182.99 347.15 199.74 375.71 130.53 375.71"></polygon><path class="cls-17" d="M179.62,327a5.9,5.9,0,1,1-5.9-5.9A5.9,5.9,0,0,1,179.62,327Z"></path><path class="cls-9" d="M199.74,375.93s0-.11,0-.32,0-.54,0-.93c0-.84,0-2,0-3.56,0-3.14,0-7.69-.09-13.46,0-11.58-.1-28.06-.17-47.85l.33.33-69.2.06c-.1.08.73-.74.38-.38h0v17.78q0,8.73,0,17.08c0,11.1,0,21.59,0,31.24l-.34-.34,50,.18,14.12.08,3.74,0,1,0,.34,0a.87.87,0,0,1-.3,0l-.93,0-3.68,0-14,.09-50.26.17h-.34v-.34c0-9.65,0-20.14,0-31.24q0-8.34,0-17.08V309.83h0c-.35.34.47-.49.4-.4l69.2.05h.34v.34c-.07,19.88-.13,36.43-.17,48.06,0,5.74-.07,10.26-.09,13.39,0,1.5,0,2.67,0,3.5,0,.37,0,.66,0,.89A.79.79,0,0,1,199.74,375.93Z"></path><rect class="cls-10" x="229.67" y="418.26" width="57.97" height="56.09"></rect><polygon class="cls-18" points="234.16 469.55 250.2 440.68 263.32 459.13 271.29 449.33 283.15 469.55 234.16 469.55"></polygon><path class="cls-19" d="M268.91,435.07a4.18,4.18,0,1,1-4.18-4.17A4.18,4.18,0,0,1,268.91,435.07Z"></path><path class="cls-9" d="M283.15,469.7a1,1,0,0,1,0-.23c0-.17,0-.38,0-.65,0-.6,0-1.44,0-2.53,0-2.22,0-5.44-.06-9.52,0-8.19-.07-19.86-.12-33.87l.24.24-49,0,.27-.27h0V435.5c0,4.12,0,8.16,0,12.09,0,7.85,0,15.28,0,22.11l-.24-.24,35.42.12,10,.07,2.65,0,.69,0h0l-.66,0-2.6,0-9.94.06-35.57.12h-.24v-.24c0-6.83,0-14.26,0-22.11,0-3.93,0-8,0-12.09V422.92h0c-.25.24.33-.35.28-.28l49,0h.23v.23c-.05,14.07-.09,25.79-.12,34,0,4.06,0,7.26-.06,9.47,0,1.07,0,1.89,0,2.48,0,.26,0,.47,0,.63A1.23,1.23,0,0,1,283.15,469.7Z"></path></svg>