<svg xmlns="http://www.w3.org/2000/svg" xmlns:xlink="http://www.w3.org/1999/xlink" viewBox="0 0 725.96 466.66"><defs><style>.cls-1{isolation:isolate;}.cls-11,.cls-19,.cls-2,.cls-24,.cls-27,.cls-3,.cls-45,.cls-52,.cls-61,.cls-66,.cls-69,.cls-9{fill:none;}.cls-2,.cls-3{stroke:#a9c6ea;}.cls-11,.cls-19,.cls-2,.cls-24,.cls-27,.cls-3,.cls-32,.cls-52,.cls-61,.cls-66,.cls-69,.cls-9{stroke-miterlimit:10;}.cls-3{stroke-dasharray:4.99 3.49;}.cls-4{fill:url(#Gradiente_sem_nome_69);}.cls-5{fill:url(#Gradiente_sem_nome_69-2);}.cls-6{fill:url(#Gradiente_sem_nome_69-3);}.cls-7{fill:url(#Gradiente_sem_nome_69-4);}.cls-33,.cls-8{fill:#d7e3f4;}.cls-9{stroke:#0b1f6e;stroke-width:2px;}.cls-10{fill:#b2cded;}.cls-11,.cls-32{stroke:#648acc;}.cls-12{fill:url(#Gradiente_sem_nome_32);}.cls-13{fill:url(#Gradiente_sem_nome_32-2);}.cls-14{fill:#bf2c4c;}.cls-15{fill:url(#Gradiente_sem_nome_32-3);}.cls-16{fill:#28364c;}.cls-17{fill:url(#Gradiente_sem_nome_32-4);}.cls-18{fill:#101d54;}.cls-19{stroke:#273b7a;}.cls-19,.cls-24,.cls-45,.cls-52,.cls-61,.cls-66,.cls-69{stroke-width:0.75px;}.cls-20{fill:url(#Gradiente_sem_nome_32-5);}.cls-21{fill:url(#linear-gradient);}.cls-22{fill:url(#Gradiente_sem_nome_32-6);}.cls-23,.cls-25,.cls-29,.cls-30{fill-rule:evenodd;}.cls-23{fill:url(#linear-gradient-2);}.cls-24{stroke:#a31d4a;}.cls-25{fill:url(#Gradiente_sem_nome_32-7);}.cls-26{fill:#0b0b3a;}.cls-27{stroke:#0b0b3a;stroke-width:0.5px;}.cls-27,.cls-38,.cls-45{stroke-linecap:round;}.cls-28{fill:#a1a7ff;}.cls-29{fill:url(#Gradiente_sem_nome_32-8);}.cls-30{fill:url(#Gradiente_sem_nome_32-9);}.cls-31{fill:url(#Gradiente_sem_nome_32-10);}.cls-32{fill:#d9e4f4;}.cls-33{opacity:0.45;}.cls-34{fill:#ffc043;}.cls-35{fill:#fe9;}.cls-36{opacity:0.55;mix-blend-mode:multiply;}.cls-37{fill:#475577;}.cls-38{fill:#ffcd5c;stroke:#ffc043;stroke-width:3px;}.cls-38,.cls-45{stroke-linejoin:round;}.cls-39{fill:#648acc;}.cls-40{fill:#f46072;}.cls-41{fill:#0c3656;}.cls-42{fill:url(#Gradiente_sem_nome_32-11);}.cls-43{fill:url(#Gradiente_sem_nome_32-12);}.cls-44{fill:#00276f;}.cls-45{stroke:#00276f;}.cls-46{fill:#212237;}.cls-47{fill:url(#Gradiente_sem_nome_32-13);}.cls-48{fill:url(#Gradiente_sem_nome_32-14);}.cls-49{fill:#4868ef;}.cls-50{fill:url(#Gradiente_sem_nome_32-15);}.cls-51{fill:#3655b5;}.cls-52{stroke:#474b51;}.cls-53{fill:url(#Gradiente_sem_nome_32-16);}.cls-54{fill:url(#linear-gradient-3);}.cls-55{fill:url(#linear-gradient-4);}.cls-56{fill:url(#Gradiente_sem_nome_32-17);}.cls-57{fill:url(#Gradiente_sem_nome_32-18);}.cls-58{fill:url(#Gradiente_sem_nome_32-19);}.cls-59{fill:url(#Gradiente_sem_nome_32-20);}.cls-60{fill:url(#Gradiente_sem_nome_32-21);}.cls-61{stroke:#28364c;}.cls-62{fill:#103bb2;}.cls-63{fill:#22252d;}.cls-64{fill:#f2b18f;}.cls-65{fill:#6a9dd8;}.cls-66{stroke:#0b2e6b;}.cls-67{fill:url(#Gradiente_sem_nome_32-22);}.cls-68{fill:url(#Gradiente_sem_nome_32-23);}.cls-69{stroke:#846a6a;}.cls-70{fill:url(#Gradiente_sem_nome_32-24);}</style><linearGradient id="Gradiente_sem_nome_69" x1="415.67" y1="217.94" x2="516.24" y2="217.94" gradientUnits="userSpaceOnUse"><stop offset="0.16" stop-color="#e08197"></stop><stop offset="1" stop-color="#e08197" stop-opacity="0"></stop></linearGradient><linearGradient id="Gradiente_sem_nome_69-2" x1="470.92" y1="141.48" x2="520.45" y2="141.48" xlink:href="#Gradiente_sem_nome_69"></linearGradient><linearGradient id="Gradiente_sem_nome_69-3" x1="184.18" y1="106.88" x2="259.98" y2="106.88" xlink:href="#Gradiente_sem_nome_69"></linearGradient><linearGradient id="Gradiente_sem_nome_69-4" x1="134.19" y1="149.77" x2="191.17" y2="149.77" xlink:href="#Gradiente_sem_nome_69"></linearGradient><linearGradient id="Gradiente_sem_nome_32" x1="279.44" y1="152.62" x2="301.18" y2="152.62" gradientUnits="userSpaceOnUse"><stop offset="0" stop-color="#f0c4b7"></stop><stop offset="1" stop-color="#e08197"></stop></linearGradient><linearGradient id="Gradiente_sem_nome_32-2" x1="236.36" y1="178.33" x2="295.28" y2="178.33" xlink:href="#Gradiente_sem_nome_32"></linearGradient><linearGradient id="Gradiente_sem_nome_32-3" x1="224.72" y1="396.35" x2="259.5" y2="396.35" xlink:href="#Gradiente_sem_nome_32"></linearGradient><linearGradient id="Gradiente_sem_nome_32-4" x1="186" y1="396.17" x2="233.56" y2="396.17" xlink:href="#Gradiente_sem_nome_32"></linearGradient><linearGradient id="Gradiente_sem_nome_32-5" x1="301.13" y1="250.19" x2="327.11" y2="250.19" xlink:href="#Gradiente_sem_nome_32"></linearGradient><linearGradient id="linear-gradient" x1="200.96" y1="236.47" x2="257.52" y2="236.47" gradientUnits="userSpaceOnUse"><stop offset="0" stop-color="#ee497b"></stop><stop offset="1" stop-color="#de2263"></stop></linearGradient><linearGradient id="Gradiente_sem_nome_32-6" x1="243.5" y1="234.39" x2="312.03" y2="234.39" xlink:href="#Gradiente_sem_nome_32"></linearGradient><linearGradient id="linear-gradient-2" x1="230.66" y1="215.43" x2="258.31" y2="215.43" xlink:href="#linear-gradient"></linearGradient><linearGradient id="Gradiente_sem_nome_32-7" x1="220.98" y1="179.99" x2="243.65" y2="179.99" xlink:href="#Gradiente_sem_nome_32"></linearGradient><linearGradient id="Gradiente_sem_nome_32-8" x1="223.21" y1="191.65" x2="238.61" y2="191.65" xlink:href="#Gradiente_sem_nome_32"></linearGradient><linearGradient id="Gradiente_sem_nome_32-9" x1="239.33" y1="177.73" x2="243.62" y2="177.73" xlink:href="#Gradiente_sem_nome_32"></linearGradient><linearGradient id="Gradiente_sem_nome_32-10" x1="227.76" y1="183.28" x2="233.56" y2="183.28" xlink:href="#Gradiente_sem_nome_32"></linearGradient><linearGradient id="Gradiente_sem_nome_32-11" x1="111.08" y1="287.15" x2="131.46" y2="287.15" xlink:href="#Gradiente_sem_nome_32"></linearGradient><linearGradient id="Gradiente_sem_nome_32-12" x1="118.61" y1="276.61" x2="144.32" y2="276.61" xlink:href="#Gradiente_sem_nome_32"></linearGradient><linearGradient id="Gradiente_sem_nome_32-13" x1="138.71" y1="281.99" x2="142.7" y2="281.99" xlink:href="#Gradiente_sem_nome_32"></linearGradient><linearGradient id="Gradiente_sem_nome_32-14" x1="140.49" y1="444.73" x2="172.63" y2="444.73" xlink:href="#Gradiente_sem_nome_32"></linearGradient><linearGradient id="Gradiente_sem_nome_32-15" x1="15.64" y1="448.43" x2="51.15" y2="448.43" xlink:href="#Gradiente_sem_nome_32"></linearGradient><linearGradient id="Gradiente_sem_nome_32-16" x1="176.95" y1="342.73" x2="203.27" y2="342.73" xlink:href="#Gradiente_sem_nome_32"></linearGradient><linearGradient id="linear-gradient-3" x1="62.29" y1="330.56" x2="134.32" y2="330.56" gradientUnits="userSpaceOnUse"><stop offset="0" stop-color="#c2ceff"></stop><stop offset="1" stop-color="#95aaff"></stop></linearGradient><linearGradient id="linear-gradient-4" x1="104.81" y1="326.39" x2="183.2" y2="326.39" xlink:href="#linear-gradient-3"></linearGradient><linearGradient id="Gradiente_sem_nome_32-17" x1="642.81" y1="306.05" x2="659.65" y2="306.05" xlink:href="#Gradiente_sem_nome_32"></linearGradient><linearGradient id="Gradiente_sem_nome_32-18" x1="640.14" y1="267.44" x2="670.88" y2="267.44" xlink:href="#Gradiente_sem_nome_32"></linearGradient><linearGradient id="Gradiente_sem_nome_32-19" x1="609.02" y1="193.49" x2="626.33" y2="193.49" xlink:href="#Gradiente_sem_nome_32"></linearGradient><linearGradient id="Gradiente_sem_nome_32-20" x1="605.01" y1="180.07" x2="625.3" y2="180.07" xlink:href="#Gradiente_sem_nome_32"></linearGradient><linearGradient id="Gradiente_sem_nome_32-21" x1="611.33" y1="180.97" x2="616.83" y2="180.97" xlink:href="#Gradiente_sem_nome_32"></linearGradient><linearGradient id="Gradiente_sem_nome_32-22" x1="529.7" y1="211.79" x2="558.43" y2="211.79" xlink:href="#Gradiente_sem_nome_32"></linearGradient><linearGradient id="Gradiente_sem_nome_32-23" x1="534.71" y1="235.64" x2="595.14" y2="235.64" xlink:href="#Gradiente_sem_nome_32"></linearGradient><linearGradient id="Gradiente_sem_nome_32-24" x1="605.01" y1="179.2" x2="608.1" y2="179.2" xlink:href="#Gradiente_sem_nome_32"></linearGradient></defs><title>Customization, Personalization &amp;amp; Flexibility</title><g class="cls-1"><g id="Layer_1" data-name="Layer 1"><path class="cls-2" d="M70.91,399.25c-.8-.19-1.61-.4-2.42-.62"></path><path class="cls-3" d="M65.14,397.66C48.32,392.52,32,382.93,20.76,369.57c-39.13-46.5,6.73-106.09,52.36-124.86,22.25-9.15,42.31-20.08,48.85-45.46,6.26-24.27-10.88-49.64-15.3-72.8-8.9-46.63,33-82.7,77.27-82.7,40.78,0,59.13,15.53,99.59,42.64,30.59,20.49,88,32.51,132.14,28.17,52.54-5.15,72.36-28.17,114.24-46.91,28.82-12.89,69-15.65,96,3.46,28.8,20.42,17.86,60.4,21.14,90.25a55.36,55.36,0,0,0,6.52,21.44c23.6,41.65,71.93,43.79,71.93,105.45,0,44.65-71.52,62.24-109.74,68"></path><path class="cls-2" d="M614,356.47c-.84.13-1.67.24-2.47.35"></path><line class="cls-2" x1="59.89" y1="166.85" x2="75.62" y2="166.85"></line><line class="cls-2" x1="75.62" y1="175.59" x2="91.35" y2="175.59"></line><line class="cls-2" x1="539.89" y1="98.13" x2="555.62" y2="98.13"></line><line class="cls-2" x1="529.91" y1="106.88" x2="545.64" y2="106.88"></line><line class="cls-2" x1="553.88" y1="102.71" x2="575.25" y2="102.71"></line><line class="cls-2" x1="691.05" y1="284.58" x2="702.37" y2="284.58"></line><line class="cls-2" x1="680.79" y1="275.94" x2="696.52" y2="275.94"></line><line class="cls-2" x1="170.98" y1="55.67" x2="186.71" y2="55.67"></line><line class="cls-2" x1="145.36" y1="245.22" x2="171.22" y2="245.22"></line><line class="cls-2" x1="176.68" y1="245.22" x2="190.11" y2="245.22"></line><path class="cls-2" d="M478.85,212.23a5.08,5.08,0,1,1-5.08-5.07A5.07,5.07,0,0,1,478.85,212.23Z"></path><path class="cls-2" d="M678.38,177.1A5.08,5.08,0,1,1,673.3,172,5.08,5.08,0,0,1,678.38,177.1Z"></path><path class="cls-2" d="M489.9,67.65a5.08,5.08,0,1,1-5.07-5.07A5.07,5.07,0,0,1,489.9,67.65Z"></path><path class="cls-2" d="M589.1,75.26a2.53,2.53,0,1,1-2.53-2.53A2.52,2.52,0,0,1,589.1,75.26Z"></path><path class="cls-2" d="M434.68,265a2.53,2.53,0,1,1-2.52-2.52A2.52,2.52,0,0,1,434.68,265Z"></path><path class="cls-2" d="M141.21,83.86a2.53,2.53,0,1,1-2.53-2.52A2.53,2.53,0,0,1,141.21,83.86Z"></path><path class="cls-2" d="M27.06,241.69a2.53,2.53,0,1,1-2.53-2.53A2.52,2.52,0,0,1,27.06,241.69Z"></path><path class="cls-2" d="M151.47,190a2.53,2.53,0,1,1-2.53-2.53A2.53,2.53,0,0,1,151.47,190Z"></path><line class="cls-2" x1="73.53" y1="111.58" x2="73.53" y2="117.55"></line><line class="cls-2" x1="76.52" y1="114.56" x2="70.54" y2="114.56"></line><line class="cls-2" x1="423.21" y1="31.84" x2="423.21" y2="37.81"></line><line class="cls-2" x1="426.2" y1="34.82" x2="420.22" y2="34.82"></line><line class="cls-2" x1="611.33" y1="124.28" x2="611.33" y2="130.25"></line><line class="cls-2" x1="614.32" y1="127.26" x2="608.35" y2="127.26"></line><line class="cls-2" x1="709.06" y1="204.17" x2="709.06" y2="210.15"></line><line class="cls-2" x1="712.05" y1="207.16" x2="706.07" y2="207.16"></line><line class="cls-2" x1="680.79" y1="309.09" x2="680.79" y2="315.07"></line><line class="cls-2" x1="683.78" y1="312.08" x2="677.8" y2="312.08"></line><path class="cls-4" d="M509.7,242.85a50.21,50.21,0,0,0,6.54-22.5l-10.62-1.47a39.65,39.65,0,0,0-1.17-10.51l10.06-3.76a50.57,50.57,0,0,0-11.29-20.52l-8.56,6.47a39.34,39.34,0,0,0-8.25-6.61l4.45-9.76a50.22,50.22,0,0,0-22.49-6.54l-1.47,10.62a40,40,0,0,0-10.51,1.17l-3.76-10.06a50.67,50.67,0,0,0-20.53,11.29l6.48,8.56a39.39,39.39,0,0,0-6.62,8.25L422.2,193a50.37,50.37,0,0,0-6.53,22.49L426.29,217a39.16,39.16,0,0,0,1.17,10.51l-10.06,3.76a50.55,50.55,0,0,0,11.29,20.53l8.56-6.48a39.33,39.33,0,0,0,8.24,6.62L441,261.69a50.37,50.37,0,0,0,22.5,6.53L465,257.6a39.25,39.25,0,0,0,10.51-1.17l3.76,10.06a50.65,50.65,0,0,0,20.53-11.28l-6.48-8.57A39.65,39.65,0,0,0,500,238.4Zm-50.84-.51A25.41,25.41,0,1,1,490.35,225,25.41,25.41,0,0,1,458.86,242.34Zm1.87-6.41a18.73,18.73,0,1,1,23.21-12.76A18.73,18.73,0,0,1,460.73,235.93Z"></path><path class="cls-5" d="M520.45,139.33a24.58,24.58,0,0,0-3.65-11l-4.73,2.38a19.64,19.64,0,0,0-3.42-4l3-4.34a25,25,0,0,0-10.34-5.18l-1.66,5a19.25,19.25,0,0,0-5.21-.37l-.93-5.22a24.91,24.91,0,0,0-11,3.65l2.38,4.73a19.35,19.35,0,0,0-3.94,3.43l-4.35-3a25,25,0,0,0-5.18,10.34l5,1.67a19.66,19.66,0,0,0-.37,5.21l-5.22.92a25.13,25.13,0,0,0,1.18,5.71,24.73,24.73,0,0,0,2.48,5.27l4.73-2.38a19,19,0,0,0,3.42,3.94l-3,4.35A25.11,25.11,0,0,0,490,165.69l1.66-5a19.26,19.26,0,0,0,5.21.38l.92,5.21a24.49,24.49,0,0,0,5.71-1.18,24.23,24.23,0,0,0,5.27-2.47l-2.38-4.73a19.31,19.31,0,0,0,3.94-3.42l4.35,3a25,25,0,0,0,5.18-10.34l-5-1.66a19.28,19.28,0,0,0,.38-5.21ZM499,151.49a10.55,10.55,0,1,1,6.69-13.35A10.56,10.56,0,0,1,499,151.49Z"></path><path class="cls-6" d="M260,103.6a37.9,37.9,0,0,0-5.59-16.8l-7.24,3.65a29.75,29.75,0,0,0-5.23-6l4.64-6.65a38.09,38.09,0,0,0-15.83-7.93l-2.55,7.7a29.83,29.83,0,0,0-8-.57l-1.42-8A37.92,37.92,0,0,0,202,74.57l3.64,7.24a30,30,0,0,0-6,5.23L193,82.4A38.19,38.19,0,0,0,185,98.23l7.7,2.54a29.9,29.9,0,0,0-.58,8l-8,1.41a38.06,38.06,0,0,0,5.58,16.8l7.24-3.64a30.33,30.33,0,0,0,5.24,6L197.6,136a38.19,38.19,0,0,0,15.83,7.92l2.54-7.7a29.86,29.86,0,0,0,8,.57l1.42,8a37.9,37.9,0,0,0,16.8-5.59L238.51,132a30.11,30.11,0,0,0,6-5.24l6.65,4.64a38.33,38.33,0,0,0,7.93-15.83L251.42,113a29.45,29.45,0,0,0,.58-8Zm-32.8,18.61a16.16,16.16,0,1,1,10.23-20.43A16.15,16.15,0,0,1,227.18,122.21Z"></path><path class="cls-7" d="M187.46,163.88a28.58,28.58,0,0,0,2.61-6.15,29.1,29.1,0,0,0,1.1-6.59l-6-.83a22.39,22.39,0,0,0-.66-6l5.69-2.12a28.65,28.65,0,0,0-6.39-11.63l-4.85,3.67a22.1,22.1,0,0,0-4.67-3.75l2.52-5.53a28.54,28.54,0,0,0-12.74-3.7l-.84,6a22.32,22.32,0,0,0-6,.67l-2.13-5.7a28.65,28.65,0,0,0-11.63,6.39l3.67,4.85a22.75,22.75,0,0,0-3.75,4.67l-5.52-2.52a28.38,28.38,0,0,0-3.71,12.74l6,.84a22.27,22.27,0,0,0,.66,5.95l-5.69,2.13A28.65,28.65,0,0,0,141.57,169l4.85-3.67a22.42,22.42,0,0,0,4.67,3.75l-2.52,5.53a28.54,28.54,0,0,0,12.74,3.7l.83-6a22.39,22.39,0,0,0,6-.66l2.13,5.7a28.68,28.68,0,0,0,11.63-6.4L178.19,166a22.48,22.48,0,0,0,3.75-4.67Zm-28.8-.29a14.39,14.39,0,1,1,17.84-9.8A14.38,14.38,0,0,1,158.66,163.59Zm1.06-3.63a10.61,10.61,0,1,1,13.15-7.23A10.6,10.6,0,0,1,159.72,160Z"></path><path class="cls-8" d="M326.23,466.28c3.36-6.94,20.87-37.26,39.33-47.28a19.8,19.8,0,0,1,7.47-2.71A8,8,0,0,1,380.2,419c1.47,1.94,1.63,4.59,1.21,7-3.36,19-25,26.24-35.52,40.27"></path><path class="cls-8" d="M326.23,466.16s17.37-34.29,34.33-54.71c8-9.67,13.54-27.58,5.1-32.95-12.22-7.76-24.22,9.53-29.72,18.12-8.31,13-14.43,27.36-19.15,42-.68,2.12-6.91,27.54-7,27.54h16.48Z"></path><path class="cls-9" d="M359.45,388.32c-16,20.25-29.31,50.23-38.14,77.84"></path><path class="cls-10" d="M289.8,466.16s-2-52.76-25.36-77.15c-6.3-6.59-16.64-13.44-25.13-15.31-11-2.44-10.7,10.5-8.71,18.88,2.58,10.86,11.46,17.63,17.86,25.72,11.77,14.88,18.8,24.7,27.4,47.86"></path><path class="cls-8" d="M296.82,466.16c6.3-11.53,4.09-60.83.93-76.28a78.94,78.94,0,0,0-12.87-29.78c-5.59-7.76-22.28-24.88-32.1-17.93-5.68,4,2.92,18.52,5.19,22.87a247.92,247.92,0,0,1,17.76,44.71c5.28,17.95,9.27,36.82,10.7,55.69,0,.24,0,.48.05.72"></path><path class="cls-10" d="M298,466.16c-2.07-27.61-.74-70,11.7-93.91,14.12-27.14,32.51-39.67,35.18-29.09,7.75,30.68-23.33,113.18-32.08,123"></path><path class="cls-9" d="M236.23,382.51c25.12,17.51,42.45,50.67,45.68,83.65"></path><path class="cls-9" d="M261.93,351c12.34,11,18.62,28.26,22.41,44.95,5.23,23,7.74,46.55,8.56,70.23"></path><path class="cls-9" d="M336.93,354.77c-15.2,34.91-28,72.62-30.16,111.39"></path><path class="cls-9" d="M372.77,422.91s-22.2,14.75-37.7,43.25"></path><path class="cls-10" d="M600,466.07c3.3-43.6-.38-86.37,16.23-127.69,4.72-11.73,15.46-30.22,30.32-30.86,22.94-1,8.89,45.13,4.74,62.38a258.07,258.07,0,0,1-10.8,32.74c-7.35,18.81-18.39,45.11-26.73,63.43"></path><path class="cls-8" d="M588.08,466.07c-7.23-18.48-14.3-37-21.44-55.54-6.34-16.42-13.72-32.48-18.84-49.35-3.9-12.84-14-42.27.78-51.32,26.26-16.1,47.25,46.23,50,68.36,3.65,29.18,2.86,58.52,3.3,87.85"></path><path class="cls-10" d="M567.21,466.07s-15.35-19.6-22.27-28.8c-15.47-20.53-34.53-42.84-31.68-65.93.65-5.31,2.6-11.22,7.94-14.37a18.58,18.58,0,0,1,11-2.1c12.57,1.2,23.82,19.45,29.48,28.8,11.07,18.32,28.21,82.4,28.21,82.4"></path><path class="cls-9" d="M555.47,322.79c18.73,37.88,37,108,37.46,143.28"></path><path class="cls-9" d="M526.34,366.3c16.49,31.66,50,99.77,50,99.77"></path><path class="cls-9" d="M645.58,317.55c-13.45,30-31.88,95-39.3,148.61"></path><path class="cls-8" d="M614.4,466.07s7.67-34.17,13-53.57c5.78-21.09,24.67-53.38,44.52-62.55,4.57-2.11,10.08-3.56,14.5-1.15a12.6,12.6,0,0,1,5.54,7.12c3.37,9.87-13.16,41-18.84,49.77C662,422.82,646,450,633.37,466.07"></path><path class="cls-9" d="M682.7,356.82c-23.47,20.38-54.87,85.36-63.65,109.25"></path><path class="cls-10" d="M105.06,444.81c-3-15.93-7.94-47.53-11.68-66.93-1.81-9.38-7-20.84-10.37-29.74-6.06-16.25-20.72-44.48-38.9-43-22.55,1.87-4.32,42.41,1.42,57.72a222,222,0,0,0,13.75,28.69c9,16.35,22.37,39.11,32.31,54.89"></path><path class="cls-10" d="M118.08,427.61c-5.51-14.39-4-32.69-4-47.93,0-27.42,9.55-66,27.41-83.95,7.35-7.42,19.53-15.66,27.44-4.33,7.49,10.74-1.17,39.92-3.9,52.46-5.34,24.55-30.93,70-38.33,93.8"></path><path class="cls-9" d="M155.82,303.94c-12.68,32.9-29.74,92.94-34.09,127.93"></path><path class="cls-9" d="M46,314.24C62.1,340.1,85.66,395.49,98.13,443.7"></path><path class="cls-8" d="M105.7,410c6.76-11.07,14.79-47,16.62-59.84,2.57-18.06,2.85-37.14-1.62-54.93-3-12-16.82-47.9-34.15-31.71-8.13,7.6-6.83,49-5.86,60.13,1.89,21.73,13.15,60.63,17,82.09"></path><path class="cls-9" d="M96.15,272.75c11.89,31,8.88,108,5.16,134.88"></path><line class="cls-11" y1="466.16" x2="692.38" y2="466.16"></line><path class="cls-12" d="M279.44,154.42c3.39-3.34,11.6-14.62,12.53-14.34s-1.9,4.28-1.09,4.37,5.59-5.79,6.45-5.26c1.16.71-4.06,6.46-4.06,6.46s6-6,6.86-5.1c.59.65-3.8,5.45-5.25,7.49,1.85-2,5.24-4.93,5.83-4.25s-2.33,4-4.43,6.69c1.47-1.55,4.29-4.22,4.87-3.61s-6.49,11.36-13,19.21"></path><path class="cls-13" d="M236.36,195.63a486.6,486.6,0,0,0,48.11-47.09l10.81,7.22s-18.15,28.14-41.9,52.35"></path><path class="cls-14" d="M227.76,203.86c6-7.47,15.77-14.69,15.77-14.69L261,203.27l-15.31,17.95"></path><path class="cls-15" d="M257.8,331.77l-9.23,121.59,10.93,6.95s-30,1.56-31,.58,1.23-7.72,1.23-7.72l-5-121.69Z"></path><path class="cls-16" d="M233.28,460.81l-4.47-4.4.63-2.31,6.87,6.72h3.31l11.65-5.75L263.92,463a1.71,1.71,0,0,1-.91,3.16l-17-.06-5.42-3.77H239l0,3.75L228,466l0-5.24Z"></path><path class="cls-17" d="M233.56,331.13,206.33,453.36l10.92,6.95s-30,1.56-31,.58,1.23-7.72,1.23-7.72l8-122Z"></path><path class="cls-16" d="M191,460.81l-4.47-4.4.63-2.31,6.88,6.72h3.3L209,455.08,221.68,463a1.71,1.71,0,0,1-.92,3.16l-17-.06-5.43-3.77h-1.54v3.75l-11.08,0,0-5.24Z"></path><path class="cls-18" d="M204.93,268.07c-15,26.37-15,75.42-15,75.42h69.45s-1-43.08-8.71-67.36Z"></path><line class="cls-19" x1="228.13" y1="270.44" x2="229.86" y2="343.49"></line><path class="cls-19" d="M243.5,273.51s-3.51,8.9-15.37,12"></path><path class="cls-20" d="M304.9,242.44c4.57,1.33,18.42,3,18.63,4s-4.67.42-4.35,1.17,7.78,2.06,7.74,3.07c-.06,1.36-7.62-.4-7.62-.4s8.18,2.34,7.79,3.51c-.27.83-6.61-.67-9.1-.94,2.67.63,6.86,2.17,6.55,3s-4.63-.08-8-.62c2.07.53,5.77,1.7,5.52,2.5s-10.93-.73-20.94-2.56"></path><path class="cls-21" d="M223.21,196.81s1.14,2.94,7.37,2.94c4.36,0,6-2.28,6-2.28s1.6,1.43,18.76,23.95c3.63,4.77,2.85,15.05-3.22,24a148.81,148.81,0,0,0-1.41,30.76H201.05s-.86-35.67,2.57-55.13A33,33,0,0,1,223.21,196.81Z"></path><path class="cls-22" d="M256,212.23c33.08,26,56,31.6,56,31.6l-2.69,12.72s-39.74-5-65.84-27"></path><path class="cls-23" d="M236.79,198.32c8.49,1.43,21.52,13.93,21.52,13.93l-13.83,20.29s-5.87-4.06-13.82-10.9"></path><path class="cls-24" d="M244.48,231.78c-10.35-6.31-15-10.93-15-10.93"></path><path class="cls-25" d="M240.5,174.82c3.45,5.71,4.88,11.41,0,14.34s-12.61,4.38-17.56-3.74c-3.46-5.7-2.33-12.71,2.51-15.63S237.05,169.12,240.5,174.82Z"></path><path class="cls-26" d="M236.48,176.28c.16.58.62,1.26,1.19,1.24a.34.34,0,0,0,.33-.25C238.34,176.28,236.15,175.07,236.48,176.28Z"></path><path class="cls-27" d="M234.19,175.79a4.47,4.47,0,0,1,3.28-1.91"></path><path class="cls-28" d="M241.81,181.33l-3.2,1.6s1.13,2.76,2.86,2.24C242.92,184.74,241.81,181.33,241.81,181.33Z"></path><path class="cls-29" d="M236.79,198.32a13.64,13.64,0,0,1-6.21,1.43c-5-.13-7.37-2.12-7.37-2.12l3.29-14.08,12.11.88Z"></path><path class="cls-30" d="M239.33,175.08s4.14,2.77,4.28,3.51-1.6,1.8-1.6,1.8"></path><path class="cls-26" d="M227.76,165.86c-.45.23-2-.19-2.55-.19a13.24,13.24,0,0,0-2.35.2c-4.61.84-8.05,4.66-10.23,8.58-1.42,2.58-2.62,5.45-5.22,7.08-5.7,3.6-13.19,2.31-19.58,4.46s-11.48,8.79-9.74,15.83c.57,2.31,1.78,4.41,2.5,6.67,1.52,4.84.81,10.46,3.71,14.62a13,13,0,0,0,2.87,2.87,19.89,19.89,0,0,0,30.5-8.43c2.58-6.44,1.77-14.1,5.54-19.92,1.75-2.72,4.38-4.8,6.13-7.52,1.59-2.5,2.43-7.19,2.62-10.19,0-.69-1.19-6.45-.82-6.45a14.17,14.17,0,0,0,8.58-3.62A8.76,8.76,0,0,0,227.76,165.86Z"></path><path class="cls-31" d="M231,180.68a2,2,0,0,0-2.87.5c-1.47,2.2,2.07,5,3.78,5.11s1.67-1.73,1.67-1.73"></path><rect class="cls-32" x="494.81" y="145.72" width="107.98" height="144.2"></rect><rect class="cls-28" x="510.94" y="145.72" width="107.98" height="144.2"></rect><path class="cls-33" d="M529.32,156.94h72.09a3.59,3.59,0,0,1,3.59,3.59V172.2a3.59,3.59,0,0,1-3.59,3.59H529.32a3.6,3.6,0,0,1-3.6-3.6V160.54A3.6,3.6,0,0,1,529.32,156.94Z"></path><path class="cls-33" d="M529.32,225h38.44a3.59,3.59,0,0,1,3.59,3.59v45.8a3.6,3.6,0,0,1-3.6,3.6H529.32a3.6,3.6,0,0,1-3.6-3.6v-45.8A3.6,3.6,0,0,1,529.32,225Z"></path><path class="cls-10" d="M531.64,194.55h-2.41c-1.93,0-3.51-2.06-3.51-4.6s1.58-4.6,3.51-4.6h2.41Z"></path><path class="cls-8" d="M535.15,190c0,2.54-1.57,4.6-3.51,4.6s-3.51-2.06-3.51-4.6,1.57-4.6,3.51-4.6S535.15,187.4,535.15,190Z"></path><path class="cls-10" d="M554.92,194.55h-2.4c-1.94,0-3.51-2.06-3.51-4.6s1.57-4.6,3.51-4.6h2.4Z"></path><path class="cls-8" d="M558.43,190c0,2.54-1.57,4.6-3.51,4.6s-3.5-2.06-3.5-4.6,1.57-4.6,3.5-4.6S558.43,187.4,558.43,190Z"></path><path class="cls-10" d="M578.21,194.55h-2.4c-1.94,0-3.51-2.06-3.51-4.6s1.57-4.6,3.51-4.6h2.4Z"></path><path class="cls-8" d="M581.72,190c0,2.54-1.57,4.6-3.51,4.6s-3.51-2.06-3.51-4.6,1.57-4.6,3.51-4.6S581.72,187.4,581.72,190Z"></path><path class="cls-10" d="M601.5,194.55h-2.41c-1.94,0-3.51-2.06-3.51-4.6s1.57-4.6,3.51-4.6h2.41Z"></path><path class="cls-8" d="M605,190c0,2.54-1.57,4.6-3.51,4.6S598,192.49,598,190s1.57-4.6,3.51-4.6S605,187.4,605,190Z"></path><path class="cls-10" d="M531.64,216.84h-2.41c-1.93,0-3.51-2.06-3.51-4.61s1.58-4.6,3.51-4.6h2.41Z"></path><path class="cls-8" d="M535.15,212.23c0,2.55-1.57,4.61-3.51,4.61s-3.51-2.06-3.51-4.61,1.57-4.6,3.51-4.6S535.15,209.69,535.15,212.23Z"></path><path class="cls-10" d="M554.92,216.84h-2.4c-1.94,0-3.51-2.06-3.51-4.61s1.57-4.6,3.51-4.6h2.4Z"></path><path class="cls-8" d="M558.43,212.23c0,2.55-1.57,4.61-3.51,4.61s-3.5-2.06-3.5-4.61,1.57-4.6,3.5-4.6S558.43,209.69,558.43,212.23Z"></path><path class="cls-10" d="M578.21,216.84h-2.4c-1.94,0-3.51-2.06-3.51-4.61s1.57-4.6,3.51-4.6h2.4Z"></path><path class="cls-8" d="M581.72,212.23c0,2.55-1.57,4.61-3.51,4.61s-3.51-2.06-3.51-4.61,1.57-4.6,3.51-4.6S581.72,209.69,581.72,212.23Z"></path><path class="cls-10" d="M601.5,216.84h-2.41c-1.94,0-3.51-2.06-3.51-4.61s1.57-4.6,3.51-4.6h2.41Z"></path><path class="cls-8" d="M605,212.23c0,2.55-1.57,4.61-3.51,4.61s-3.51-2.06-3.51-4.61,1.57-4.6,3.51-4.6S605,209.69,605,212.23Z"></path><polygon class="cls-28" points="84.79 466.16 268.03 466.16 268.03 325.75 130.9 325.75 84.79 379.67 84.79 466.16"></polygon><polygon class="cls-32" points="216.01 466.16 283.53 466.16 283.53 325.75 261.19 325.75 216.01 379.67 216.01 466.16"></polygon><rect class="cls-32" x="84.79" y="379.67" width="131.23" height="86.49" transform="translate(300.8 845.83) rotate(180)"></rect><path class="cls-10" d="M227.75,341.49c1.26,1.15,3.83.38,5.74-1.73s2.45-4.74,1.2-5.89l-2.61-2.38-6.93,7.62Z"></path><path class="cls-8" d="M225.32,339.26c1.25,1.15,3.82.38,5.74-1.73s2.44-4.74,1.19-5.89-3.83-.38-5.74,1.73S224.06,338.11,225.32,339.26Z"></path><path class="cls-10" d="M207.33,341.49c1.25,1.15,3.82.38,5.74-1.73s2.44-4.74,1.19-5.89l-2.6-2.38-6.94,7.62Z"></path><path class="cls-8" d="M204.89,339.26c1.25,1.15,3.82.38,5.74-1.73s2.45-4.74,1.19-5.89-3.83-.38-5.74,1.73S203.63,338.11,204.89,339.26Z"></path><path class="cls-10" d="M165.28,341.49c1.26,1.15,3.83.38,5.74-1.73s2.45-4.74,1.19-5.89l-2.6-2.38-6.93,7.62Z"></path><path class="cls-8" d="M162.84,339.26c1.26,1.15,3.83.38,5.74-1.73s2.45-4.74,1.19-5.89-3.82-.38-5.74,1.73S161.59,338.11,162.84,339.26Z"></path><path class="cls-10" d="M143.62,341.49c1.26,1.15,3.83.38,5.74-1.73s2.45-4.74,1.19-5.89l-2.6-2.38L141,339.11Z"></path><path class="cls-8" d="M141.18,339.26c1.26,1.15,3.83.38,5.74-1.73s2.45-4.74,1.2-5.89-3.83-.38-5.74,1.73S139.93,338.11,141.18,339.26Z"></path><polygon class="cls-33" points="214.45 369.84 221.73 360.41 110.85 360.41 102.52 369.84 214.45 369.84"></polygon><path class="cls-11" d="M337.07,304.24V421.51a10.27,10.27,0,0,1-10.27,10.27H261.57a10.27,10.27,0,0,1-10.27-10.27v-3.36"></path><path class="cls-11" d="M353.24,309.63v134a10.48,10.48,0,0,1-10.47,10.48H239.05a10.27,10.27,0,0,1-10.27-10.27V418.15"></path><path class="cls-11" d="M382.59,307.38v77.73a10.27,10.27,0,0,0,10.27,10.27h81a10.27,10.27,0,0,0,10.27-10.27V252a10.27,10.27,0,0,1,10.27-10.27h33.41"></path><path class="cls-11" d="M369.57,309.63V418.56a10.26,10.26,0,0,0,10.27,10.27H528.57a10.26,10.26,0,0,0,10.27-10.27V267.11"></path><path class="cls-34" d="M263.44,139.16a96.64,96.64,0,1,1,174.74,56.9h0c-13.8,20.79-49.64,44.25-49.64,58.31v16.07a5.8,5.8,0,0,1-5.8,5.8H337.41a5.81,5.81,0,0,1-5.81-5.8V254.37c0-14.06-35.84-37.52-49.63-58.31h0A96.18,96.18,0,0,1,263.44,139.16Z"></path><path class="cls-28" d="M371.05,274.64c-.12-2.42-1.85-41.21,1.26-75.21a108.82,108.82,0,0,1-24.47,0c3.1,34,1.37,72.79,1.26,75.21l-1.71-.08c0-.6,1.82-40.72-1.35-75.36-28.66-4-41.49-20.22-43.8-35.55-1.34-9,1.72-17.87,7.28-21.19a14.58,14.58,0,0,1,11.79-1.18c6.82,1.95,13.31,7.84,17.35,15.73,4.66,9.11,7.42,24.25,9,40.68a105.68,105.68,0,0,0,24.8,0c1.59-16.43,4.35-31.57,9-40.68,4-7.89,10.52-13.78,17.35-15.73a14.58,14.58,0,0,1,11.79,1.18c5.56,3.32,8.62,12.24,7.27,21.19-2.3,15.33-15.13,31.56-43.8,35.55-3.17,34.64-1.38,74.76-1.35,75.36Zm32.57-132.36a15.48,15.48,0,0,0-4.31.64c-6.38,1.83-12.48,7.39-16.31,14.87-4.48,8.76-7.16,23.53-8.73,39.66,27.46-4,39.75-19.44,41.94-34,1.23-8.17-1.55-16.54-6.46-19.48A11.82,11.82,0,0,0,403.62,142.28Zm-87.1,0a11.82,11.82,0,0,0-6.13,1.64c-4.91,2.94-7.69,11.31-6.46,19.48,2.2,14.61,14.49,30.09,41.94,34-1.56-16.13-4.24-30.9-8.73-39.66-3.83-7.48-9.93-13-16.31-14.87A15.42,15.42,0,0,0,316.52,142.28Z"></path><path class="cls-35" d="M440.62,144.7a5.55,5.55,0,0,1-5.55-5.54,74.88,74.88,0,0,0-56.53-72.71,5.54,5.54,0,0,1,2.72-10.75,86,86,0,0,1,64.9,83.46A5.54,5.54,0,0,1,440.62,144.7Z"></path><path class="cls-35" d="M358.21,58.46a5.55,5.55,0,1,0,5.54-5.54A5.54,5.54,0,0,0,358.21,58.46Z"></path><g class="cls-36"><path class="cls-34" d="M456.52,144.87c-5.33,39.63-37.32,80.65-96.45,80.65s-89.92-42.94-96.45-80.65A96.15,96.15,0,0,0,282,196.06h0c13.79,20.79,49.63,44.25,49.63,58.31v16.07a5.81,5.81,0,0,0,5.81,5.8h45.33a5.8,5.8,0,0,0,5.8-5.8V254.37c0-14.06,35.84-37.52,49.64-58.31h0A96.06,96.06,0,0,0,456.52,144.87Z"></path></g><path class="cls-16" d="M390.83,261.23H329.32v29.32a25.25,25.25,0,0,0,3.92,13.51h0a26.44,26.44,0,0,0,22.32,12.27h9a26.44,26.44,0,0,0,22.32-12.27h0a25.26,25.26,0,0,0,3.93-13.51Z"></path><path class="cls-37" d="M329.31,281a3.09,3.09,0,0,0,.53,0l61.51-6.37a3.7,3.7,0,0,0,3.28-4.22A4,4,0,0,0,390.3,267l-61.51,6.37a3.68,3.68,0,0,0-3.27,4.22A4,4,0,0,0,329.31,281Z"></path><path class="cls-37" d="M329.31,294.42a4.61,4.61,0,0,0,.53,0L391.35,288a3.68,3.68,0,0,0,3.28-4.21,4,4,0,0,0-4.33-3.43l-61.51,6.38a3.67,3.67,0,0,0-3.27,4.21A4,4,0,0,0,329.31,294.42Z"></path><path class="cls-37" d="M331.77,307.7a4.78,4.78,0,0,0,.53,0l58.3-6a3.7,3.7,0,0,0,3.28-4.22,4,4,0,0,0-4.33-3.43L331.25,300a3.69,3.69,0,0,0-3.28,4.21A4,4,0,0,0,331.77,307.7Z"></path><line class="cls-38" x1="360.07" y1="1.5" x2="360.07" y2="31.87"></line><line class="cls-38" x1="414.83" y1="13.6" x2="402.57" y2="41.38"></line><line class="cls-38" x1="460.99" y1="47.19" x2="438.55" y2="67.65"></line><line class="cls-38" x1="305.31" y1="13.6" x2="317.57" y2="41.38"></line><line class="cls-38" x1="259.15" y1="47.19" x2="281.59" y2="67.65"></line><circle class="cls-39" cx="228.78" cy="418.31" r="2.09"></circle><circle class="cls-39" cx="251.3" cy="418.31" r="2.09"></circle><circle class="cls-39" cx="538.84" cy="267.11" r="2.09"></circle><circle class="cls-39" cx="550.63" cy="267.11" r="2.09"></circle><path class="cls-39" d="M564.51,267.11a2.09,2.09,0,1,1-2.09-2.09A2.09,2.09,0,0,1,564.51,267.11Z"></path><circle class="cls-39" cx="527.82" cy="241.69" r="2.09"></circle><circle class="cls-40" cx="463.38" cy="364.15" r="43.16" transform="translate(-104.61 206.93) rotate(-22.69)"></circle><circle class="cls-28" cx="463.38" cy="364.15" r="31.22" transform="translate(-69.17 111.73) rotate(-12.8)"></circle><path class="cls-40" d="M441.93,364.15a21.45,21.45,0,1,0,21.45-21.44A21.45,21.45,0,0,0,441.93,364.15Z"></path><path class="cls-28" d="M452.15,364.15a11.23,11.23,0,1,0,11.23-11.23A11.23,11.23,0,0,0,452.15,364.15Z"></path><polygon class="cls-41" points="461.64 365.89 468.7 365.89 461.64 358.84 461.64 365.89"></polygon><polygon class="cls-41" points="507.39 320.15 515.46 320.15 515.46 318.11 509.42 318.11 509.42 312.08 507.39 312.08 507.39 320.15"></polygon><polygon class="cls-41" points="511.08 316.45 519.15 316.45 519.15 314.42 513.12 314.42 513.12 308.38 511.08 308.38 511.08 316.45"></polygon><rect class="cls-41" x="453.51" y="338.49" width="69.03" height="2.03" transform="translate(-97.13 444.52) rotate(-45)"></rect><path class="cls-42" d="M131.46,287.15l-5.32,10.11a21.59,21.59,0,0,1-8.64-2.47c-5-2.46-6.42-5.84-6.42-5.84l9-11.91"></path><path class="cls-43" d="M142.78,268.06c4.95,2.91-3.22,21.39-7.69,22.56s-13.34-7.56-16-15S125,264.22,130,262.72,142.78,268.06,142.78,268.06Z"></path><path class="cls-44" d="M139.13,277c-.16.3-.32.6-.46.91s.34.64.51.3.3-.67.42-1-.33-.45-.47-.2Z"></path><path class="cls-45" d="M141.85,275.21s-1.08-1.63-3.94-1.06"></path><path class="cls-28" d="M134.76,284.2l3.15,2.25s-1.23,2.38-2.36,1.45S134.76,284.2,134.76,284.2Z"></path><path class="cls-46" d="M147.23,272.1a46.59,46.59,0,0,1-6.42-3c-2.28.48-4.64,2.61-4.7,5,0,.54-.07,1.28-.61,1.36-.37,0-.68-.32-.79-.68a10.23,10.23,0,0,0-.23-1.1,1.6,1.6,0,0,0-1.95-.73,2.77,2.77,0,0,0-1.53,1.6c-.75,1.8-1.42,4,.29,5.48a3,3,0,0,1,.75.75c.38.67-.06,1.49-.5,2.13a8.53,8.53,0,0,1-7.44,4.16c-2.83,0-7.53-3.73-7.84-5.59,0-.17-2.73-11.59,2.29-18.85,2.7-3.9,7.44-6.74,12.39-6.32a14.3,14.3,0,0,1,7.22,3.22C146.41,261.12,148.18,269.63,147.23,272.1Z"></path><path class="cls-47" d="M142.46,278.85s.73,5.53-.36,6.14-3.39-1-3.39-1"></path><path class="cls-48" d="M144.74,428.8l-4,26.07-.21,7.85,30.78-.15a1.38,1.38,0,0,0,1.36-1.37h0a1.39,1.39,0,0,0-.88-1.27l-13.28-6.1,5.25-27.09"></path><path class="cls-49" d="M174,462.24a4.17,4.17,0,0,0-1.47-2.35l-14.08-6.06c-7.76,3.14-17.8.74-17.8.74l-1.79,10.6a.63.63,0,0,0,.63.63l34.28-.17C174.43,465.62,174,462.27,174,462.24Z"></path><path class="cls-19" d="M161.47,454.44a16.49,16.49,0,0,0-2,3.33"></path><path class="cls-19" d="M163.24,455.5a14.46,14.46,0,0,0-1.63,2.83"></path><path class="cls-19" d="M164.74,456.27a19.91,19.91,0,0,0-1.53,2.6"></path><line class="cls-19" x1="139.01" y1="463.51" x2="174.12" y2="463.33"></line><path class="cls-19" d="M140,458.33s8.25.17,9,5.14"></path><path class="cls-19" d="M169.61,458.65a26.8,26.8,0,0,0-2.72,4.72"></path><path class="cls-50" d="M49.18,435.63l-25.69-3.06-7.85-.21.15,30.79a1.37,1.37,0,0,0,1.37,1.35h0a1.35,1.35,0,0,0,1.27-.88l6.1-13.28,26.62,3"></path><path class="cls-49" d="M16.13,465.85a4.18,4.18,0,0,0,2.34-1.48l6.06-14.07c-3.14-7.76-.74-17.81-.74-17.81l-10.6-1.79a.64.64,0,0,0-.63.64l.18,34.27C12.74,466.3,16.09,465.86,16.13,465.85Z"></path><path class="cls-19" d="M23.93,453.34a16.52,16.52,0,0,0-3.34-2"></path><path class="cls-19" d="M22.87,455.11A15,15,0,0,0,20,453.48"></path><path class="cls-19" d="M22.09,456.61a20.38,20.38,0,0,0-2.6-1.53"></path><line class="cls-19" x1="14.85" y1="430.88" x2="15.03" y2="465.99"></line><path class="cls-19" d="M20,431.86s-.16,8.24-5.13,8.95"></path><path class="cls-19" d="M19.71,461.49A26.17,26.17,0,0,0,15,458.77"></path><path class="cls-51" d="M64.45,364.06c-5.52,14.76,3.49,36.18,3.49,36.18l4.75,34.51-45-2,.45,30s48.31,3.44,60,3.44,16.21-2.61,19.64-9.46c5.11-10.2-2.24-66.6-2.24-67.53l-8-36.23"></path><line class="cls-52" x1="33.06" y1="433.01" x2="33.4" y2="463.09"></line><path class="cls-51" d="M80.08,372S75,398.17,100.92,403.78c11.6,2.51,41.09,3.34,41.09,3.34l-5,40.36h29.45s6.1-30.41,7.94-50.76c1.22-13.53-4.6-19.58-15.54-20.94-9.27-1.15-37.12-3-37.12-3L117,366.94"></path><path class="cls-52" d="M106.74,404.72s-21.85.06-27.07-24.41"></path><path class="cls-52" d="M91.2,378a59.36,59.36,0,0,0,13.61.62"></path><path class="cls-52" d="M62.67,374.54s5.82,1.66,9.61,1.63"></path><line class="cls-52" x1="138.92" y1="442.23" x2="167.52" y2="442.23"></line><rect class="cls-39" x="197.73" y="330.8" width="2.34" height="25.62"></rect><circle class="cls-39" cx="198.9" cy="328.21" r="4.32"></circle><path class="cls-53" d="M177.21,335.57l8.7.64s6.68-2.26,9.34-2.31a3.48,3.48,0,0,1,2.48.82v2.63c0,1.75,2.34,2.52,2.34,1.33v-1.44c0,.09,4.82,2.37,2,4.53,1.32.28,2,2.13-.48,3.39a1.83,1.83,0,0,1-.12,3.25c.81,1.24-.84,2.6-2.16,2.88-2.48.54-22.37.12-22.37.12"></path><path class="cls-54" d="M126.47,296.31c14.29,19.76,6.62,26.16-3.65,76.56a304.51,304.51,0,0,1-60.53-5.93,386.44,386.44,0,0,1,23.3-55.88c7.22-14,19.22-21,26-22.81"></path><path class="cls-55" d="M104.81,318.52s22.07,34.57,32.55,36.1c16.66,2.44,44.2,1.75,44.2,1.75l1.64-24.31s-35.4-1.79-36.86-2.62c-4.74-2.7-19.87-33.13-19.87-33.13"></path><path class="cls-19" d="M128.31,348.32a97.66,97.66,0,0,1-21.57-27.44"></path><line class="cls-19" x1="178.1" y1="331.79" x2="176.01" y2="356.46"></line><path class="cls-56" d="M646.46,293.63c-.54,4.72-4.33,18.15-3.54,18.71s2.19-4.14,2.76-3.56-1.09,8-.15,8.32c1.28.47,2.58-7.18,2.58-7.18s-1,8.46.22,8.54c.88.07,1.93-6.35,2.65-8.75-.44,2.7-.64,7.16.27,7.21s1.71-4.31,2.51-7.61c-.31,2.1-.66,6,.17,6.05s3.55-10.37,5.72-20.31"></path><path class="cls-57" d="M661.83,228.83s7.65,13.58,8.75,21.91c2.72,20.53-14.31,55.31-14.31,55.31s-12.38-3.38-12.38-4.93,8.62-38.1,8.62-38.1l-12.37-28.56"></path><path class="cls-58" d="M624.66,184.24l1.67,15.31s-9.18,7.78-17.31-.94l1-10.07Z"></path><path class="cls-59" d="M611.86,168.9s-9.94,13.69-5.88,18.82c3,3.78,10.85,4.21,13.28,2.72.52-2.8,7-12.06,5.93-14.12C621.24,168.44,611.86,168.9,611.86,168.9Z"></path><path class="cls-46" d="M627.33,171.27c-.33-5.17-5.43-6.69-15.22-6.1-1.31.07-3.64-.82-4.25.35-.79,1.53-.94,4.63.6,6a5.71,5.71,0,0,0,3.07,1.45c1.77.42,3.58,2.1,2.63,4-.24.49-.83,1.31-.46,1.72a5.6,5.6,0,0,0,1.06.55c.71.38.66,1.45.23,2.12s-.25,1.41-.69,2.07c-1,1.58.2,4.49,1.82,5.45,1.45.86,6.17,2.28,9.63.49,3-1.56,4.8-5.79,4.83-13.4C630.58,173,628.41,171.07,627.33,171.27Z"></path><path class="cls-60" d="M612.94,179.09c1.61-2.05,2.92-1.73,3.63-.6.95,1.5-1,4.61-1.84,5.14-1.8,1.08-3.26,1-3.4-.5"></path><path class="cls-16" d="M609,176c-.46.39-.89,1.08-.64,1.6a.37.37,0,0,0,.37.2C609.73,177.64,609.92,175.15,609,176Z"></path><path class="cls-61" d="M609.09,174.06a3.82,3.82,0,0,1,2.08,1.63"></path><path class="cls-28" d="M609.07,183.25,606.8,182s-1.49,2.78-.43,3.37S609.07,183.25,609.07,183.25Z"></path><rect class="cls-62" x="574.84" y="464.54" width="35.85" height="1.61" transform="translate(1185.89 930.23) rotate(179.96)"></rect><path class="cls-63" d="M605.59,451.29l3.1.74a69.65,69.65,0,0,1,1.64,6.87,32.65,32.65,0,0,1,.36,5.63l-35.85,0s.94-3.11,9.49-8.12a18.89,18.89,0,0,0,5.09-4.23Z"></path><path class="cls-64" d="M609.28,438.4,608.69,452s-1.51,1.82-7.59,1.82a46.39,46.39,0,0,1-11.68-1.64l-1.21-18.39"></path><rect class="cls-62" x="625.9" y="464.54" width="35.85" height="1.61" transform="translate(1288.01 930.2) rotate(179.96)"></rect><path class="cls-63" d="M656.65,451.29l3.1.74a69.65,69.65,0,0,1,1.64,6.87,32.65,32.65,0,0,1,.36,5.63l-35.85,0s.94-3.11,9.49-8.12a18.89,18.89,0,0,0,5.09-4.23Z"></path><path class="cls-64" d="M658.54,437.84,659.75,452s-1.51,1.82-7.59,1.82a46.39,46.39,0,0,1-11.68-1.64l-2.77-18.39"></path><path class="cls-65" d="M652.76,296.8s5.59,11.64,1.1,33.92c2.28,49.74,8.23,116.61,8.23,116.61l-34.15-.12s-7-71.88-11.11-107.7c-4.61-39.9-7.49-88.77-7.49-88.77"></path><path class="cls-66" d="M633.45,447.21s-7-71.88-11.1-107.7"></path><path class="cls-65" d="M587.54,299s-3.63,52.44-3.63,77.61-1.62,70.7-1.62,70.7h34.53l12.84-119c10.52-12.6,9.75-39.94,7.22-50.59l-34.23-9.35Z"></path><path class="cls-66" d="M622.61,393.66l7-65.36a36.58,36.58,0,0,0,8.83-22.25"></path><line class="cls-66" x1="594.74" y1="293.76" x2="586.57" y2="447.33"></line><line class="cls-66" x1="617.42" y1="307.6" x2="634.19" y2="307.93"></line><line class="cls-66" x1="646.14" y1="307.07" x2="652.51" y2="306.93"></line><path class="cls-67" d="M558.43,219.15c-4.68-5.3-17.24-25.44-18.65-25.12s2.39,6.55,1.18,6.59-7.71-9.14-9-8.45c-1.8.94,5.36,10,5.36,10s-2.8-3.85-4.12-2.58c-.94.9-.45,2.78,1.5,6-1.31-1.63-2.54-1.92-3.49-1s0,2.68,1.16,4.44c-.92-1.15-2.26-1.73-2.61-.53-.45,1.57,3.35,9.69,12.34,22.95"></path><path class="cls-51" d="M626.16,198s19.78.83,25.71,23.34c2.67,10.15,4.4,79.76,4.4,79.76L584,300.61s1-62.93,2.58-76.56c3-24.89,22.56-26.45,22.56-26.45s.9,2.21,8.56,2.21S626.16,198,626.16,198Z"></path><path class="cls-51" d="M626.16,198c23.47,0,37.93,32.25,37.93,32.25l-14.76,7.42"></path><path class="cls-68" d="M595.14,243.75s-12.53,18-22.64,19c-13.6,1.31-37.79-43.95-37.79-43.95L550,208.5l20.9,26.29L578,224.13"></path><path class="cls-51" d="M609.12,197.6c-20.21,1.11-35,31.23-35,31.23l23.67,17,13.44-17.53"></path><line class="cls-69" x1="596.95" y1="245.22" x2="608.4" y2="230.33"></line><path class="cls-69" d="M653.86,235.38a84.79,84.79,0,0,0-4.53-17.56"></path><path class="cls-70" d="M608.1,177.1s-3.25,1.57-3.09,2.16a11.48,11.48,0,0,0,1.14,2"></path><line class="cls-66" x1="582.29" y1="439.85" x2="617.42" y2="439.85"></line><line class="cls-66" x1="627.22" y1="440.14" x2="661.38" y2="440.14"></line></g></g></svg>