<svg xmlns="http://www.w3.org/2000/svg" xmlns:xlink="http://www.w3.org/1999/xlink" id="Layer_1" data-name="Layer 1" viewBox="0 0 671.69 408.26"><defs><style>.cls-1{fill:#6a9dd8;}.cls-2{fill:url(#Gradiente_sem_nome_69);}.cls-3{fill:url(#Gradiente_sem_nome_69-2);}.cls-4{fill:url(#Gradiente_sem_nome_69-3);}.cls-25,.cls-5{fill:#3655b5;}.cls-6{fill:#002f54;}.cls-7{fill:url(#linear-gradient);}.cls-8{fill:url(#linear-gradient-2);}.cls-9{fill:#002c38;}.cls-10,.cls-30{fill:#12348e;}.cls-11{fill:#d69c6b;}.cls-12{fill:#be8c60;}.cls-13{fill:#e6ae7f;}.cls-14{fill:url(#linear-gradient-3);}.cls-15{fill:url(#linear-gradient-4);}.cls-16,.cls-34{fill:#ffc043;}.cls-17{fill:url(#linear-gradient-5);}.cls-18{fill:#fff;}.cls-19{fill:#a1a7ff;}.cls-20{clip-path:url(#clip-path);}.cls-21{fill:url(#linear-gradient-6);}.cls-22{fill:#f5ead4;}.cls-23{fill:url(#linear-gradient-7);}.cls-24{fill:url(#linear-gradient-8);}.cls-25,.cls-30,.cls-34{fill-rule:evenodd;}.cls-26{fill:#fec22e;}.cls-27{fill:#feb447;}.cls-28{fill:url(#Gradiente_sem_nome_69-4);}.cls-29{fill:#8ecbce;}.cls-31{fill:url(#linear-gradient-9);}.cls-32{fill:url(#linear-gradient-10);}.cls-33{fill:url(#linear-gradient-11);}.cls-35{fill:#24a8ac;}.cls-36{fill:#f2b70a;}.cls-37{fill:#f8c20f;}.cls-38{fill:url(#Gradiente_sem_nome_69-5);}.cls-39{fill:#ffd22c;}.cls-40{fill:#efa905;}.cls-41{fill:url(#linear-gradient-12);}.cls-42{fill:#4bcfd4;}.cls-43{fill:#e8b588;}.cls-44{fill:#9bddde;}.cls-45{fill:#5bb2b3;}.cls-46{fill:#acf5f6;}.cls-47{fill:#2c93c9;}.cls-48{fill:url(#linear-gradient-13);}.cls-49{fill:url(#linear-gradient-14);}.cls-50{fill:#dea676;}.cls-51{fill:#001a24;}.cls-52{fill:#092944;}.cls-53{fill:#ba8559;}.cls-54{fill:url(#linear-gradient-15);}.cls-55{fill:#008188;}</style><linearGradient id="Gradiente_sem_nome_69" x1="305.51" y1="389.4" x2="549.39" y2="389.4" gradientUnits="userSpaceOnUse"><stop offset="0.16" stop-color="#e08197"></stop><stop offset="1" stop-color="#e08197" stop-opacity="0"></stop></linearGradient><linearGradient id="Gradiente_sem_nome_69-2" x1="0" y1="366.72" x2="515.99" y2="366.72" xlink:href="#Gradiente_sem_nome_69"></linearGradient><linearGradient id="Gradiente_sem_nome_69-3" x1="422.85" y1="360.16" x2="671.69" y2="360.16" xlink:href="#Gradiente_sem_nome_69"></linearGradient><linearGradient id="linear-gradient" x1="324.52" y1="220.34" x2="504.49" y2="220.34" gradientUnits="userSpaceOnUse"><stop offset="0" stop-color="#c2ceff"></stop><stop offset="1" stop-color="#95aaff"></stop></linearGradient><linearGradient id="linear-gradient-2" x1="186.83" y1="222.4" x2="324.65" y2="222.4" xlink:href="#linear-gradient"></linearGradient><linearGradient id="linear-gradient-3" x1="27.86" y1="89.3" x2="73.74" y2="89.3" gradientUnits="userSpaceOnUse"><stop offset="0" stop-color="#ee497b"></stop><stop offset="1" stop-color="#de2263"></stop></linearGradient><linearGradient id="linear-gradient-4" x1="103.64" y1="108.9" x2="145.64" y2="108.9" xlink:href="#linear-gradient"></linearGradient><linearGradient id="linear-gradient-5" x1="479.52" y1="107.64" x2="523.21" y2="107.64" xlink:href="#linear-gradient-3"></linearGradient><clipPath id="clip-path"><circle class="cls-1" cx="71.59" cy="286.99" r="57.77" transform="translate(-223.86 300.91) rotate(-78.69)"></circle></clipPath><linearGradient id="linear-gradient-6" x1="589.48" y1="298.76" x2="638.12" y2="298.76" xlink:href="#linear-gradient"></linearGradient><linearGradient id="linear-gradient-7" x1="595.44" y1="219.19" x2="626.68" y2="219.19" xlink:href="#linear-gradient"></linearGradient><linearGradient id="linear-gradient-8" x1="626.68" y1="219.19" x2="657.92" y2="219.19" xlink:href="#linear-gradient"></linearGradient><linearGradient id="Gradiente_sem_nome_69-4" x1="417.94" y1="53.2" x2="424.39" y2="53.2" xlink:href="#Gradiente_sem_nome_69"></linearGradient><linearGradient id="linear-gradient-9" x1="558.3" y1="110.35" x2="635.75" y2="110.35" xlink:href="#linear-gradient"></linearGradient><linearGradient id="linear-gradient-10" x1="597.18" y1="136.14" x2="622.73" y2="136.14" xlink:href="#linear-gradient"></linearGradient><linearGradient id="linear-gradient-11" x1="164.47" y1="42.65" x2="206.63" y2="42.65" xlink:href="#linear-gradient-3"></linearGradient><linearGradient id="Gradiente_sem_nome_69-5" x1="414.13" y1="370.11" x2="427.28" y2="370.11" xlink:href="#Gradiente_sem_nome_69"></linearGradient><linearGradient id="linear-gradient-12" x1="438.7" y1="363.27" x2="507.49" y2="363.27" xlink:href="#linear-gradient"></linearGradient><linearGradient id="linear-gradient-13" x1="397.57" y1="321.84" x2="440.87" y2="321.84" xlink:href="#linear-gradient-3"></linearGradient><linearGradient id="linear-gradient-14" x1="426.04" y1="323.76" x2="433.55" y2="323.76" xlink:href="#linear-gradient-3"></linearGradient><linearGradient id="linear-gradient-15" x1="138.91" y1="230.94" x2="188.38" y2="230.94" xlink:href="#linear-gradient-3"></linearGradient></defs><title>An Eye on 5G</title><path class="cls-2" d="M311.79,374.13c.62-.24,1.26-.44,1.89-.64,9.21-2.8,18.36-2.17,27.84-2.09l20.8.17c12.35.09,24.72.18,37.07-.14q39.63-1,79.26-.86c7.4,0,14.79,0,22.18,0,9.79,0,19.55.1,29.33.23,2.91,0,5.07,0,8,0,1.38,0,2.55,0,3.93,0,1.94.07,3.88,0,5.35,1a4.33,4.33,0,0,1,1.92,4.08c-.46,2.41-3.12,3.86-5.51,5-3.7,1.75-12.52,2.34-16.23,4.09-4.79,2.26-10.5,6.4-15.68,7.76-16.46,4.32-23.63,3.79-38.4,2.35-3.31-.33-6.61-.71-9.91-1.1-6.65-.79-13.18-2.09-20-2.25a124.29,124.29,0,0,0-32,3.49c-10.87,2.65-21.34,6.44-32.15,9.26-15.16,4-31.9,5.88-46.38.23a76.8,76.8,0,0,1-15.34-8.67c-4.47-3.07-9.62-5.62-11.63-11a7.7,7.7,0,0,1,2.53-9.28A13.51,13.51,0,0,1,311.79,374.13Z"></path><path class="cls-3" d="M360.64,345.18c23.57-.26,47.16,0,70.73-.38s47.7.16,70.23,7.88c5.64,1.93,11.68,4.86,13.73,10.45,2.25,6.1-1.49,13.13-7,16.68s-12.18,4.41-18.66,5c-39.23,3.53-78.62.18-117.7-3.56-14.51-1.39-29.17-.38-43.61,1.29-10.84,1.25-20.72,6-30.75,10s-21,5.63-31.85,6.76a224.43,224.43,0,0,1-112.9-17.67c-11.18-4.91-22.24-13.21-34.11-16.22-6.32-1.6-14.94.54-21.38,1.08-7.24.59-14.49,1.18-21.75,1.26-15,.15-30.45-2-43.18-9.86-6.58-4.07-12.53-9.67-20.08-11.33C9.78,346,7,345.9,4.53,344.89s-4.76-3.35-4.51-6c.36-4,8.18-3.86,11.15-4q17.66-.81,35.33-.95,14.13-.12,28.25.18c8.5.18,16.77-1.18,25.27-1.14,12.36.06,24.32,3.67,36.53,5.79q20,3.47,40.22,5.35c32.54,3,64.85,1.29,97.36,1.29h55C339.64,345.4,350.14,345.3,360.64,345.18Z"></path><path class="cls-4" d="M667.31,348.24a12.37,12.37,0,0,1-2.82,1c-3.65.68-7.54.21-11,1.63-4.4,1.83-7,6.33-10.79,9.25-5.55,4.31-13.14,4.83-20.15,4.23s-14-2.13-21-1.26c-7.84,1-15,4.9-22.18,8.11a131.77,131.77,0,0,1-62.58,10.92c-7.58-.54-14-2.89-21.37-4.43a10,10,0,0,1-3.74-1.32c-2.93-2-4.11-6.53-6.58-9.19a37.15,37.15,0,0,0-13.12-9,71.74,71.74,0,0,0-13.27-3.84c-3.78-.76-7.81-2.08-11.62-2.22-6.77-.26-15.72,1.35-21.39-3.36-2.92-2.41-4.19-7.55-1.12-9.78,1.65-1.2,3.89-1.08,5.93-.9,22.85,2,46.2.84,69.2.84H648.67c4.69,0,9.46.42,14.23.42,2.47,0,8.4.73,8.76,3.77C671.94,345.34,669.6,347.17,667.31,348.24Z"></path><polygon class="cls-5" points="430.47 307.97 427.11 308.24 423.21 308.29 418.15 307.9 413.72 307.12 409.81 306.06 407.46 305.23 405.17 304.27 401.66 302.48 398.44 300.45 395.45 298.14 393.48 296.35 391.35 294.1 389.19 291.48 387.29 288.7 385.6 285.71 384.53 283.46 383.46 280.78 382.21 276.71 380.88 270.52 380.11 265.28 379.46 258.89 378.39 219.89 379.54 180.98 380.83 170.24 382.24 163.54 382.81 161.5 383.55 159.3 385.05 155.72 386.79 152.41 388.64 149.56 389.89 147.9 391.48 146.04 394.15 143.28 397 140.84 400.13 138.62 402.51 137.21 405.38 135.75 409.09 134.24 412.93 133.08 416.95 132.26 419.93 131.89 423.39 131.69 429.31 131.91 434.83 132.66 425.17 131.18 419.54 130.41 413.51 130.19 409.99 130.39 406.95 130.78 402.85 131.62 398.94 132.8 395.16 134.34 392.23 135.83 389.81 137.28 386.62 139.54 383.72 142.04 381 144.86 379.38 146.76 378.11 148.45 376.23 151.36 374.45 154.74 372.93 158.4 372.17 160.65 371.59 162.73 370.16 169.57 368.84 180.54 367.67 220.26 368.77 260.09 369.43 266.61 370.22 271.96 371.57 278.29 372.85 282.43 373.94 285.17 375.03 287.47 376.75 290.53 378.69 293.36 380.89 296.04 383.06 298.34 385.06 300.17 388.11 302.52 391.38 304.6 394.97 306.43 397.3 307.41 399.69 308.26 403.68 309.35 408.19 310.14 413.34 310.55 417.32 310.5 420.74 310.23 425.36 309.49 435 307.25 430.47 307.97"></polygon><polygon class="cls-5" points="511.25 204.66 408.24 204.6 418.21 204.54 519.26 204.6 511.25 204.66"></polygon><polygon class="cls-5" points="467.32 97.67 474.1 102.36 480.35 107.75 486.89 114.63 492.71 122.02 497.79 129.94 502.13 138.36 505.72 147.27 508.55 156.67 512.16 174.36 520.16 174.95 516.62 157.64 513.84 148.44 510.33 139.71 506.07 131.47 501.09 123.72 495.38 116.48 488.96 109.75 482.83 104.47 476.19 99.88 469.06 95.98 461.47 92.77 453.41 90.26 444.1 87.86 452.31 90.42 460.05 93.69 467.32 97.67"></polygon><polygon class="cls-5" points="510.76 250.44 510.48 263.22 509.51 275.15 507.74 286.13 505.55 294.72 502.94 302.04 499.7 308.99 495.85 315.56 491.4 321.74 486.35 327.52 480.06 333.53 473.51 338.81 466.69 343.36 459.61 347.2 452.32 350.29 461.45 347.18 468.6 344.15 475.55 340.39 482.24 335.92 488.66 330.75 494.84 324.87 499.79 319.21 504.16 313.15 507.93 306.72 511.11 299.92 513.67 292.75 515.82 284.34 517.55 273.6 518.51 261.92 518.77 249.41 519.26 204.6 511.25 204.66 510.76 250.44"></polygon><polygon class="cls-5" points="462.21 174.68 512.16 174.36 520.16 174.95 471.17 175.26 462.21 174.68"></polygon><polygon class="cls-5" points="206.31 187.86 211.21 184.43 224.91 219.7 206.31 187.86"></polygon><polygon class="cls-5" points="408.24 204.6 411.92 210.04 411.88 243.27 408.18 248.49 408.24 204.6"></polygon><polygon class="cls-6" points="408.18 248.49 411.88 243.27 465.53 243.79 461.55 249.07 408.18 248.49"></polygon><polygon class="cls-6" points="461.55 249.07 461.53 258.09 461.22 265.97 460.4 272.3 459.69 275.79 458.8 279.11 457.44 282.99 455.77 286.64 453.75 290.16 452.1 292.55 450.03 295.15 446.92 298.38 443.91 300.97 440.67 303.27 437.61 305.07 433.97 306.81 429.75 308.35 425.36 309.49 420.74 310.23 417.32 310.5 413.34 310.55 408.19 310.14 403.68 309.35 399.69 308.26 397.3 307.41 394.97 306.43 391.38 304.6 388.11 302.52 385.06 300.17 383.06 298.34 380.89 296.04 378.69 293.36 376.75 290.53 375.03 287.47 373.94 285.17 372.85 282.43 371.57 278.29 370.22 271.96 369.43 266.61 368.77 260.09 367.67 220.26 368.84 180.54 370.16 169.57 371.59 162.73 372.17 160.65 372.93 158.4 374.45 154.74 376.23 151.36 378.11 148.45 379.38 146.76 381 144.86 383.72 142.04 386.62 139.54 389.81 137.28 392.23 135.83 395.16 134.34 398.94 132.8 402.85 131.62 406.95 130.78 409.99 130.39 413.51 130.19 419.54 130.41 425.17 131.18 429.72 132.28 434 133.79 437.39 135.39 440.63 137.31 442.62 138.72 444.52 140.26 447.76 143.35 450.67 146.77 453.3 150.56 455.63 154.72 457.97 160 459.69 165.01 462.21 174.68 464.95 169.06 463.42 163.22 461.55 157.76 458.99 152 456.39 147.37 453.46 143.14 450.19 139.31 446.58 135.86 444.37 134.08 442.07 132.45 438.43 130.3 434.57 128.48 429.79 126.8 424.72 125.58 418.56 124.75 412.03 124.52 408.09 124.75 404.69 125.18 400.15 126.12 395.78 127.45 391.57 129.17 388.29 130.84 385.53 132.5 381.97 135.03 378.69 137.87 375.68 141 373.84 143.16 372.35 145.14 370.23 148.43 368.22 152.26 366.52 156.34 365.66 158.91 364.99 161.31 363.47 168.59 362.09 180.08 360.91 220.3 362.03 260.56 362.72 267.43 363.55 273.1 365 279.86 366.42 284.47 367.65 287.58 368.9 290.23 370.85 293.68 373.05 296.92 375.53 299.94 377.96 302.52 380.28 304.64 383.7 307.3 387.4 309.64 391.38 311.68 394.02 312.8 396.74 313.77 401.15 314.98 406.14 315.87 411.78 316.31 416.17 316.27 419.97 315.97 425.03 315.17 429.9 313.91 434.6 312.2 438.66 310.27 442.12 308.24 445.75 305.67 449.14 302.76 452.61 299.16 454.96 296.21 456.84 293.48 459.1 289.55 461 285.42 462.52 281.09 463.51 277.39 464.3 273.52 465.18 266.71 465.5 258.44 465.53 243.79 461.55 249.07"></polygon><polygon class="cls-5" points="511.25 204.66 504.49 210.21 411.92 210.04 408.24 204.6 511.25 204.66"></polygon><polygon class="cls-6" points="504.06 250.46 503.8 263.07 502.85 274.64 501.16 285.18 499.09 293.29 496.65 300.15 493.63 306.66 490.03 312.81 485.86 318.6 481.13 324.03 475.16 329.74 468.95 334.75 462.51 339.07 455.84 342.7 448.94 345.63 443.98 347.3 439.67 348.5 430.86 350.27 421.81 351.21 411.74 351.29 405.62 350.88 399.67 350.12 391.06 348.33 383.48 346 376.22 343.03 371.14 340.48 366.86 337.99 360.43 333.62 353.82 328.18 347.63 322.06 342.56 315.98 338.69 310.44 335.35 304.71 332.54 298.77 330.26 292.63 328.49 286.29 327.25 279.74 324.82 252.96 324.52 220.14 324.85 187.29 327.31 160.48 328.55 153.92 330.04 148.47 332.26 142.3 335.01 136.34 338.28 130.59 342.67 124.26 347.76 118.19 351.83 114.06 356.08 110.22 362.8 105.06 369.32 100.93 376.19 97.38 380.75 95.45 385.46 93.78 393.16 91.68 402 90.16 412.07 89.39 422.86 89.77 431.61 90.8 441.24 92.81 449 95.25 456.29 98.33 463.1 102.07 469.44 106.47 475.29 111.53 481.5 118.06 487.01 125.08 491.82 132.58 495.92 140.56 499.32 149.02 502.01 157.97 504.22 168.76 512.16 174.36 508.55 156.67 505.72 147.27 502.13 138.36 497.79 129.94 492.71 122.02 486.89 114.63 480.35 107.75 474.1 102.36 467.32 97.67 460.05 93.69 452.31 90.42 444.1 87.86 434.03 85.77 424.87 84.7 413.63 84.32 403.06 85.13 393.79 86.75 385.69 88.95 380.67 90.74 375.81 92.81 368.59 96.55 361.7 100.92 354.65 106.35 350.15 110.41 345.84 114.8 340.48 121.2 335.82 127.91 332.33 134.06 329.39 140.43 327.03 147.01 325.43 152.87 324.1 159.88 321.61 187.07 321.28 220.06 321.58 253.02 324.05 280.18 325.38 287.2 327.26 293.98 329.7 300.54 332.7 306.88 336.26 313 340.37 318.89 345.74 325.33 352.26 331.79 359.21 337.52 365.98 342.13 370.54 344.78 375.91 347.49 383.55 350.62 391.55 353.08 400.56 354.96 406.83 355.77 413.27 356.21 423.75 356.14 433.25 355.17 442.45 353.33 447.06 352.05 452.32 350.29 459.61 347.2 466.69 343.36 473.51 338.81 480.06 333.53 486.35 327.52 491.4 321.74 495.85 315.56 499.7 308.99 502.94 302.04 505.55 294.72 507.74 286.13 509.51 275.15 510.48 263.22 510.76 250.44 511.25 204.66 504.49 210.21 504.06 250.46"></polygon><polygon class="cls-5" points="462.21 174.68 464.95 169.06 504.22 168.76 512.16 174.36 462.21 174.68"></polygon><polygon class="cls-5" points="284.82 256.77 284.24 249.58 283.21 242.99 281.92 237.67 280.28 232.79 278.58 228.91 277.56 227.06 276.43 225.37 275.18 223.84 273.8 222.47 272.29 221.23 270.63 220.13 268.84 219.18 266.29 218.15 263.51 217.36 259.74 216.71 255.65 216.44 240.84 216.15 244.87 216.42 248.58 217.05 251.32 217.82 253.82 218.83 255.59 219.77 257.22 220.85 258.71 222.06 260.06 223.41 261.3 224.9 262.41 226.56 263.41 228.37 265.09 232.17 266.7 236.95 267.97 242.17 268.99 248.62 269.56 255.66 269.66 263.37 269.42 274.17 268.84 280.61 267.92 286.85 267.11 290.49 266.19 293.47 265.04 296.3 263.69 298.98 262.08 301.56 261.25 302.72 260.15 304.1 258.49 305.8 256.68 307.35 254.69 308.74 253.2 309.61 251.39 310.51 248.79 311.53 246.07 312.3 242.93 312.86 239.63 313.13 235.28 313.04 231.83 312.61 246.47 314.9 249.99 315.34 254.4 315.43 257.75 315.15 260.95 314.57 263.71 313.79 266.35 312.75 268.19 311.83 269.7 310.94 271.72 309.52 273.57 307.94 275.25 306.21 276.37 304.79 277.21 303.61 278.85 300.97 280.22 298.24 281.39 295.35 282.33 292.3 283.15 288.59 284.08 282.22 284.68 275.65 284.93 264.63 284.82 256.77"></polygon><polygon class="cls-5" points="226.55 130.56 322.25 132.59 306.4 133.98 212.2 132.03 226.55 130.56"></polygon><polygon class="cls-5" points="246.06 174.48 238.21 174.83 231.31 175.82 226.57 176.96 221.64 178.59 216.65 180.79 212.44 183.17 208.93 185.64 206.31 187.86 220.56 187.57 223.22 185.29 226.78 182.77 231.06 180.34 236.14 178.1 241.14 176.43 245.97 175.28 252.97 174.26 260.96 173.91 246.06 174.48"></polygon><polygon class="cls-5" points="222.54 355.03 217.16 352.73 212.19 350.13 207.19 346.91 203.04 343.62 199.65 340.37 195.75 335.85 192.31 331.11 189.33 326.13 186.81 320.91 184.78 315.47 182.37 306.73 180.65 297.65 178.95 281.17 165.41 279.53 167.09 295.67 168.78 304.56 171.15 313.12 173.15 318.45 175.62 323.56 178.56 328.44 181.94 333.09 185.78 337.52 189.11 340.71 193.19 343.93 198.11 347.09 203 349.64 208.29 351.9 214.54 353.94 228.89 357.11 222.54 355.03"></polygon><polygon class="cls-5" points="223.93 280.13 178.95 281.17 165.41 279.53 209.65 278.53 223.93 280.13"></polygon><polygon class="cls-5" points="184.89 84.66 185.04 240.53 171.4 239.73 171.23 87.09 184.89 84.66"></polygon><polygon class="cls-7" points="411.92 210.04 411.88 243.27 465.53 243.79 465.5 258.44 465.18 266.71 464.3 273.52 463.51 277.39 462.52 281.09 461 285.42 459.1 289.55 456.84 293.48 454.96 296.21 452.61 299.16 449.14 302.76 445.75 305.67 442.12 308.24 438.66 310.27 434.6 312.2 429.9 313.91 425.03 315.17 419.97 315.97 416.17 316.27 411.78 316.31 406.14 315.87 401.15 314.98 396.74 313.77 394.02 312.8 391.38 311.68 387.4 309.64 383.7 307.3 380.28 304.64 377.96 302.52 375.53 299.94 373.05 296.92 370.85 293.68 368.9 290.23 367.65 287.58 366.42 284.47 365 279.86 363.55 273.1 362.72 267.43 362.03 260.56 360.91 220.3 362.09 180.08 363.47 168.59 364.99 161.31 365.66 158.91 366.52 156.34 368.22 152.26 370.23 148.43 372.35 145.14 373.84 143.16 375.68 141 378.69 137.87 381.97 135.03 385.53 132.5 388.29 130.84 391.57 129.17 395.78 127.45 400.15 126.12 404.69 125.18 408.09 124.75 412.03 124.52 418.56 124.75 424.72 125.58 429.79 126.8 434.57 128.48 438.43 130.3 442.07 132.45 444.37 134.08 446.58 135.86 450.19 139.31 453.46 143.14 456.39 147.37 458.99 152 461.55 157.76 463.42 163.22 464.95 169.06 504.22 168.76 502.01 157.97 499.32 149.02 495.92 140.56 491.82 132.58 487.01 125.08 481.5 118.06 475.29 111.53 469.44 106.47 463.1 102.07 456.29 98.33 449 95.25 441.24 92.81 431.61 90.8 422.86 89.77 412.07 89.39 402 90.16 393.16 91.68 385.46 93.78 380.75 95.45 376.19 97.38 369.32 100.93 362.8 105.06 356.08 110.22 351.83 114.06 347.76 118.19 342.67 124.26 338.28 130.59 335.01 136.34 332.26 142.3 330.04 148.47 328.55 153.92 327.31 160.48 324.85 187.29 324.52 220.14 324.82 252.96 327.25 279.74 328.49 286.29 330.26 292.63 332.54 298.77 335.35 304.71 338.69 310.44 342.56 315.98 347.63 322.06 353.82 328.18 360.43 333.62 366.86 337.99 371.14 340.48 376.22 343.03 383.48 346 391.06 348.33 399.67 350.12 405.62 350.88 411.74 351.29 421.81 351.21 430.86 350.27 439.67 348.5 443.98 347.3 448.94 345.63 455.84 342.7 462.51 339.07 468.95 334.75 475.16 329.74 481.13 324.03 485.86 318.6 490.03 312.81 493.63 306.66 496.65 300.15 499.09 293.29 501.16 285.18 502.85 274.64 503.8 263.07 504.06 250.46 504.49 210.21 411.92 210.04"></polygon><polygon class="cls-6" points="322.25 132.59 319.9 126.89 319.91 94.25 322.27 89.38 322.25 132.59"></polygon><polygon class="cls-6" points="292.04 256.57 291.44 248.95 290.33 241.89 288.93 236.08 287.13 230.71 285.23 226.37 283.97 224.08 282.56 221.97 280.99 220.05 279.25 218.31 277.36 216.76 275.31 215.39 273.09 214.2 270.08 212.98 266.83 212.05 262.58 211.31 257.96 211 253.5 211.26 249.35 211.84 245.51 212.76 242.4 213.83 239.53 215.15 237.26 216.48 235.17 218 232.64 220.24 230.67 222.33 228.91 224.55 227.37 226.9 226.05 229.37 224.95 231.97 224.07 234.7 225.47 240.07 227.45 233.91 228.34 231.8 229.41 229.78 230.67 227.87 232.12 226.03 233.77 224.29 235.93 222.38 237.62 221.15 239.46 220.06 241.88 218.94 244.53 218.03 247.94 217.21 251.68 216.68 255.65 216.44 259.74 216.71 263.51 217.36 266.29 218.15 268.84 219.18 270.63 220.13 272.29 221.23 273.8 222.47 275.18 223.84 276.43 225.37 277.56 227.06 278.58 228.91 280.28 232.79 281.92 237.67 283.21 242.99 284.24 249.58 284.82 256.77 284.93 264.63 284.68 275.65 284.08 282.22 283.15 288.59 282.33 292.3 281.39 295.35 280.22 298.24 278.85 300.97 277.21 303.61 276.37 304.79 275.25 306.21 273.57 307.94 271.72 309.52 269.7 310.94 268.19 311.83 266.35 312.75 263.71 313.79 260.95 314.57 257.75 315.15 254.4 315.43 249.99 315.34 246.47 314.9 243.74 314.29 241.24 313.45 238.94 312.39 237.22 311.37 235.59 310.17 234.75 309.44 233.62 308.32 231.99 306.38 230.51 304.25 229.19 301.9 227.8 298.81 226.63 295.4 225.53 291 225 288.1 223.93 280.13 221.73 286.01 222.19 289.42 222.78 292.67 224 297.52 225.34 301.41 226.94 304.97 228.51 307.76 230.28 310.31 232.23 312.62 233.64 314.02 234.76 314.99 236.75 316.45 238.88 317.71 241.64 318.98 244.61 319.97 247.79 320.68 251.76 321.17 256.66 321.26 260.48 320.94 264.12 320.27 267.32 319.35 270.38 318.14 272.56 317.05 274.41 315.96 276.79 314.27 279.01 312.37 281.06 310.25 282.43 308.51 283.46 307.06 285.32 304.05 286.93 300.87 288.27 297.51 289.36 293.99 290.28 289.82 291.27 283.06 291.9 276.1 292.15 264.76 292.04 256.57"></polygon><polygon class="cls-5" points="226.55 130.56 223.67 124.69 319.9 126.89 322.25 132.59 226.55 130.56"></polygon><polygon class="cls-5" points="185.04 240.53 192.32 235.01 224.07 234.7 225.47 240.07 185.04 240.53"></polygon><polygon class="cls-6" points="326.96 252.1 325.99 240.3 325.02 233.63 323.74 227 322.2 221.07 320.16 215.25 317.64 209.59 314.25 203.46 310.72 198.16 306.17 192.38 302.88 189.01 299.33 185.99 295.49 183.28 291.38 180.9 286.97 178.83 281.81 176.96 275.81 175.43 268.91 174.37 260.96 173.91 252.97 174.26 245.97 175.28 241.14 176.43 236.14 178.1 231.06 180.34 226.78 182.77 223.22 185.29 220.56 187.57 223.71 194.14 226.07 191.73 228.38 189.75 231.56 187.49 235.42 185.29 240.07 183.22 244.69 181.68 249.12 180.61 255.71 179.65 263.26 179.3 270.78 179.72 277.28 180.71 282.86 182.13 287.63 183.85 291.68 185.75 295.45 187.92 298.94 190.38 302.16 193.12 305.11 196.13 309.38 201.54 312.69 206.5 315.86 212.24 318.2 217.5 320.09 222.89 321.54 228.44 322.76 234.78 323.69 241.15 324.63 252.58 324.65 264.14 324.42 279.07 323.19 292.27 321.59 301.24 320.38 305.9 318.85 310.46 316.69 315.55 313.75 321.14 310.25 326.57 305.72 332.43 303.48 334.91 301.07 337.28 296.93 340.77 291.92 344.25 285.91 347.64 282.42 349.25 279.27 350.48 273.12 352.33 265.87 353.79 256.66 354.74 247.44 354.63 239.43 353.74 232.5 352.24 226.56 350.29 221.53 348.13 216.91 345.69 212.28 342.7 208.5 339.7 205.44 336.76 201.84 332.57 198.66 328.19 195.93 323.61 193.64 318.83 191.78 313.85 189.5 305.57 187.87 296.96 186.83 286.88 178.95 281.17 180.65 297.65 182.37 306.73 184.78 315.47 186.81 320.91 189.33 326.13 192.31 331.11 195.75 335.85 199.65 340.37 203.04 343.62 207.19 346.91 212.19 350.13 217.16 352.73 222.54 355.03 228.89 357.11 236.26 358.69 244.71 359.62 254.4 359.72 264.05 358.71 271.72 357.16 278.23 355.18 281.68 353.84 285.47 352.08 291.83 348.49 297.21 344.75 301.67 340.98 304.33 338.36 306.81 335.61 311.59 329.42 315.34 323.6 318.5 317.6 320.83 312.09 322.49 307.14 323.8 302.07 325.48 292.67 326.75 279.05 326.98 263.9 326.96 252.1"></polygon><polygon class="cls-5" points="225.53 184.06 223.71 194.14 223.67 124.69 226.55 130.56 225.53 184.06"></polygon><polygon class="cls-5" points="223.93 280.13 221.73 286.01 186.83 286.88 178.95 281.17 223.93 280.13"></polygon><polygon class="cls-6" points="184.89 84.66 192.19 90.06 192.32 235.01 185.04 240.53 184.89 84.66"></polygon><polygon class="cls-5" points="322.27 89.38 319.91 94.25 192.19 90.06 184.89 84.66 322.27 89.38"></polygon><polygon class="cls-8" points="324.63 252.58 323.69 241.15 322.76 234.78 321.54 228.44 320.09 222.89 318.2 217.5 315.86 212.24 312.69 206.5 309.38 201.54 305.11 196.13 302.16 193.12 298.94 190.38 295.45 187.92 291.68 185.75 287.63 183.85 282.86 182.13 277.28 180.71 270.78 179.72 263.26 179.3 255.71 179.65 249.12 180.61 244.69 181.68 240.07 183.22 235.42 185.29 231.56 187.49 228.38 189.75 226.07 191.73 223.71 194.14 223.67 124.69 319.9 126.89 319.91 94.25 192.19 90.06 192.32 235.01 224.07 234.7 224.95 231.97 226.05 229.37 227.37 226.9 228.91 224.55 230.67 222.33 232.64 220.24 235.17 218 237.26 216.48 239.53 215.15 242.4 213.83 245.51 212.76 249.35 211.84 253.5 211.26 257.96 211 262.58 211.31 266.83 212.05 270.08 212.98 273.09 214.2 275.31 215.39 277.36 216.76 279.25 218.31 280.99 220.05 282.56 221.97 283.97 224.08 285.23 226.37 287.13 230.71 288.93 236.08 290.33 241.89 291.44 248.95 292.04 256.57 292.15 264.76 291.9 276.1 291.27 283.06 290.28 289.82 289.36 293.99 288.27 297.51 286.93 300.87 285.32 304.05 283.46 307.06 282.43 308.51 281.06 310.25 279.01 312.37 276.79 314.27 274.41 315.96 272.56 317.05 270.38 318.14 267.32 319.35 264.12 320.27 260.48 320.94 256.66 321.26 251.76 321.17 247.79 320.68 244.61 319.97 241.64 318.98 238.88 317.71 236.75 316.45 234.76 314.99 233.64 314.02 232.23 312.62 230.28 310.31 228.51 307.76 226.94 304.97 225.34 301.41 224 297.52 222.78 292.67 222.19 289.42 221.73 286.01 186.83 286.88 187.87 296.96 189.5 305.57 191.78 313.85 193.64 318.83 195.93 323.61 198.66 328.19 201.84 332.57 205.44 336.76 208.5 339.7 212.28 342.7 216.91 345.69 221.53 348.13 226.56 350.29 232.5 352.24 239.43 353.74 247.44 354.63 256.66 354.74 265.87 353.79 273.12 352.33 279.27 350.48 282.42 349.25 285.91 347.64 291.92 344.25 296.93 340.77 301.07 337.28 303.48 334.91 305.72 332.43 310.25 326.57 313.75 321.14 316.69 315.55 318.85 310.46 320.38 305.9 321.59 301.24 323.19 292.27 324.42 279.07 324.65 264.14 324.63 252.58"></polygon><path class="cls-5" d="M555,347.13a10.49,10.49,0,0,0,2,4.08,5.2,5.2,0,0,0,2.76,1.62c.55.16.84.15,1.24.55a1.64,1.64,0,0,1,.46,1,1.74,1.74,0,0,1-.24,1.2c-.27.29-.66.18-1,.23-1.33.15-2.67.26-4,.32a32.3,32.3,0,0,1-3.41,0,7.07,7.07,0,0,1-1.66-.23,5.86,5.86,0,0,1-.89-.39c-1.14-.59-2.29-1.28-3.43-1.87a3,3,0,0,1-.79-.51c-.34-.35-.67-.54-.71-1-.18-2.34.08-2.18.39-4.94a6.38,6.38,0,0,1,.29-1,.31.31,0,0,1,.25-.07c1.69,0,3.39,0,5.07.09.86,0,1.71.1,2.56.16.32,0,.66,0,.89.21S554.88,346.81,555,347.13Z"></path><path class="cls-9" d="M545.23,352.12a.13.13,0,0,1,0-.06S545.19,352.06,545.23,352.12Z"></path><path class="cls-9" d="M561.28,355.45v0h0a10.76,10.76,0,0,0-2.47.08c-1.46.18-3.37.44-5.15.53a8.55,8.55,0,0,1-3.46-.59,3.58,3.58,0,0,1-1.21-1.07,3.14,3.14,0,0,0-1.15-1,10.22,10.22,0,0,1-2.59-1.25.18.18,0,0,1,0-.06v0h0a8.72,8.72,0,0,0-.11,1.61,3.49,3.49,0,0,0,0,.74.86.86,0,0,0,.4.35,6.62,6.62,0,0,0,3.86.59c1.47,1.47,3.9,1.58,4.75,1.6s2.47,0,3,0a11.46,11.46,0,0,0,2.63-.36c.25-.07,1.42-.3,1.48-1.1A.17.17,0,0,0,561.28,355.45Z"></path><path class="cls-9" d="M545.24,352.09h0Z"></path><path class="cls-5" d="M570.33,330.75c1,1.15.69,3.19.49,4.76a7,7,0,0,1-.66,2.25c-.68.21-.64.14-1.3.34.51,2.07,1.35,4.35,1.77,6.44a9.67,9.67,0,0,1-.54,5.64,7.12,7.12,0,0,1-4.59,4.56,2.67,2.67,0,0,1-2.8-.59c-.59-.66-.61-2.2-.48-3.42.36-3.39.46-7-.8-10.22a11.28,11.28,0,0,0-1.69-2.8c-1.39-1.57.14-1,.38-1.53.93-1.87,1.22-3.3,2.61-4.88a14.76,14.76,0,0,1,2.35-2.11c.34-.25.93-1.18,1.33-1s1.08.48,1.48.66A7.64,7.64,0,0,1,570.33,330.75Z"></path><path class="cls-9" d="M569,338.38c0-.25.72-.29,1.18-.57.7-.52,1.59-4.45,1.37-5.53a4.11,4.11,0,0,0-1.56-1.87c.55,2-.51,5.43-1.17,7.5A3.08,3.08,0,0,0,569,339a42,42,0,0,1,1.53,6.23,7.93,7.93,0,0,1-2.17,7.07,5.34,5.34,0,0,1-5.81,1.73c.73,1,2.11,1,3.17.74a6.85,6.85,0,0,0,4.56-4.4,10,10,0,0,0,.34-5.76C570.23,342.5,569.65,340.5,569,338.38Z"></path><path class="cls-10" d="M564.21,252.27c-6.49,1.06-12.72,2.24-19.3,2.19-2.89,0-5.77-.15-8.65-.39-1.87-.16-5.33-2-7.13-1.12a51.84,51.84,0,0,0-1.44,11,88.57,88.57,0,0,1-1.16,9.21c-1.08,12.78.68,28.89,1.32,28.81l12.49-1.54a70.74,70.74,0,0,0,2.4-10c.9-5.24,2.56-13.93,3.75-15.88q.53,3.14.84,6.3c.52,5.28.07,14.1-.32,19.39-.37,5.07-1.37,10-1.73,15.12,0,.11,0,.22,0,.32.45.27.9.54,1.34.82a87.5,87.5,0,0,1,7.34,5.19c1.24,1,2.4,2,3.57,3.1.66-4.62,1.44-8.76,2.37-13.43,1.22-6.12,2-12.29,2.8-18.47.72-5.51,1.67-10.12,2.15-15.59C565.6,268.47,566.72,261.24,564.21,252.27Z"></path><path class="cls-6" d="M545.08,318.4c.1,8.79-1.8,18.57.4,29.75,3,.06,4.41-1.36,9.51-1,.16-4.07-.45-10.73,2.64-23.21A66.25,66.25,0,0,0,545.08,318.4Z"></path><path class="cls-6" d="M549.27,298.64c.2-2.23.2-4.47.48-6.69.26-2.07.48-4.15.79-6.22.35-2.37-.3-12.21,4.05-15.55-1.84.68-3.92,2.46-5,3.09a23,23,0,0,1-3.07,1.25c.33,2,.64,4.3.84,6.3.52,5.28.07,14.1-.32,19.39-.32,4.36-1.1,8.63-1.54,13a59.07,59.07,0,0,1,7.47,5.12c1.72,1.35,3.28,2.87,4.88,4.35.29-1.87.36-2.36.7-4.19a76.17,76.17,0,0,1-5-7.6c-1.26-2-4-4.82-4.31-6.47A33.41,33.41,0,0,1,549.27,298.64Z"></path><path class="cls-10" d="M546.49,274.52c1.6-3,3-6,7.85-5.37.41-2.89-2.85-14.64-9.43-14.69-2.89,0-5.77-.15-8.65-.39-1.87-.16-5.33-2-7.13-1.12a51.84,51.84,0,0,0-1.44,11,88.57,88.57,0,0,1-1.16,9.21c-.29,3.33-.48,6.78-.48,10.21,0,3,.89,15.21,1,18,.09,3.22,2,5.43,4.21,7.53,0,0,7,6.55,10.35,9.65,3.93,3.61,8.25,8.07,11.34,11.44a109.81,109.81,0,0,1,7.53,8.83,11.52,11.52,0,0,0,5.95-10.59c-1.58-1.57-2.72-1.95-3.76-3.26-3.38-4.25-7-7.5-11.81-15a36.55,36.55,0,0,0-9.51-9.87c.47-2.34,1.56-7.7,1.9-9.65C544.12,285.13,545.47,280.65,546.49,274.52Z"></path><path class="cls-11" d="M575.37,230.46a34.07,34.07,0,0,1-10.45,1.09,1.68,1.68,0,0,1-1-.3,1.57,1.57,0,0,1-.41-1.07c-.08-.59-.15-1.18-.22-1.77a18.53,18.53,0,0,1-.12-2.34,14.57,14.57,0,0,1,2.63.06c2.94-.18,7,.35,7.39.72.22.34,1,1.67,1.25,2C574.8,229.38,575,229.86,575.37,230.46Z"></path><path class="cls-5" d="M532.42,196.09a120.93,120.93,0,0,0-11.56,8.47c-.92.74-4.77,4.42-4.79,6.77-.06,8.06,0,14.39,0,23.47a19.83,19.83,0,0,1,10.42-4l.36-2.28a83.8,83.8,0,0,1,2.48,15.09c.38,5-.63,10.12-1.4,15.05,3.18-1.1,12.66-.94,16-.61s14.33,1,21.56-1.51c-1.08-16.9-3-17-3.26-29.63,4.12-.69,6.87-1.14,10.91-.07-3.63-7.86-4.6-11.57-6.53-19.68-.79-3.31-1.69-4.08-3.11-5.32-1.25-1.09-3.18-1.6-5.19-2.31-1.07-.38-10.9-2.26-12.41-3.62-1.72-1.54-5.26,3.09-7.59,3.28A13.36,13.36,0,0,1,532.42,196.09Z"></path><path class="cls-1" d="M561.78,226.37c1.06,1,2.94.11,3.64,0-3.06-6.55-3.14-7-5.61-18.46a43.68,43.68,0,0,0-.66,8.58A32.37,32.37,0,0,0,561.78,226.37Z"></path><path class="cls-1" d="M526.84,228.53a8.56,8.56,0,0,1-.36,2.28c-.84,2-4.28,1.33-5.55,3.16a18.2,18.2,0,0,0,3.53-9.73c.09-1.82-.41-8.11-.69-10.8C524.52,216.88,525.33,222,526.84,228.53Z"></path><path class="cls-11" d="M532.74,197.39a2.06,2.06,0,0,0,.23,1.51,2.15,2.15,0,0,0,1.33.59,105.34,105.34,0,0,0,13.29,1.2,26,26,0,0,0-1.26-3.11c-.84-2.28-.53-4.78-.21-7.18-2.6-1-5.5-.81-8.25-1.28a25.54,25.54,0,0,1-2.87-.7c-.6-.17-1.91-.95-2-.06a24.11,24.11,0,0,0,.08,2.94c0,1,0,1.93-.07,2.89S532.86,196.33,532.74,197.39Z"></path><path class="cls-1" d="M535,204.6h.08a1.84,1.84,0,0,0,1.24-.62c.41-.32.79-.7,1.19-1a23.32,23.32,0,0,1,2.62-1.94,8.83,8.83,0,0,1,1.05-.56c.8.31,1.64.52,2.46.77.53.17,1.06.34,1.59.53l.75.29c.26.11.48.27.73.37a2.39,2.39,0,0,0,.7.17.66.66,0,0,0,.44-.07.57.57,0,0,0,.22-.46c.15-1.89-.78-3.85-1.58-5.54-.23-.47-.47-.93-.7-1.39-.62,1.48-2.58,4.4-4.65,4.82-1.91-.35-8.57-2.92-8.14-6.67-.51,1.09-.85,1.79-1.43,3.35a3.32,3.32,0,0,0,0,1.09,11.11,11.11,0,0,0,.12,1.16,10,10,0,0,0,.87,2.6,15.69,15.69,0,0,0,1.07,1.86C534,203.87,534.31,204.53,535,204.6Z"></path><path class="cls-1" d="M539.31,202.39c.44,2.45.8,4.92,1.14,7.39.17,1.27.34,2.54.5,3.82.07.62.15,1.25.23,1.88a4.64,4.64,0,0,0,.29,1.7.49.49,0,0,0,.16.19.77.77,0,0,0,.47.14l.18,0c.45-.05.89-.12,1.34-.19l.78-.13a1.59,1.59,0,0,0,.75-.25.42.42,0,0,0,.11-.16.56.56,0,0,0,0-.34c0-.29,0-.57-.08-.86l-.15-1c-.1-.67-.19-1.33-.28-2-.17-1.34-.34-2.67-.5-4s-.34-2.67-.52-4c-.09-.67-.18-1.34-.28-2l-.15-1c0-.17-.05-.33-.08-.5a4.28,4.28,0,0,1-.07-.48c0-.42,0-.42-.14-.5a.77.77,0,0,0-.45-.08,16.3,16.3,0,0,0-3.61.59C539.1,201.2,539.2,201.74,539.31,202.39Z"></path><path class="cls-10" d="M541.68,206.81a2,2,0,0,1,1.93-1.6l19.57-.77a1.21,1.21,0,0,1,1,.42,1.1,1.1,0,0,1,.25,1L559,229.76l-22.06.7Z"></path><path class="cls-12" d="M567.92,227.4l.5-.1a8.24,8.24,0,0,1,3.79.21,4.85,4.85,0,0,1,2.62,2,4.79,4.79,0,0,0-3.66-.3,40,40,0,0,1-7.64.68c-.07,0-.09-.48-.11-.55-.08-.45-.17-.91-.26-1.36-.11-.62-.53-.19-.64-.81-.06-.33.67-.26.8-.3a6,6,0,0,1,1.89-.39c.31,0,.26.36.5.61a1.63,1.63,0,0,0,.91.44A3.84,3.84,0,0,0,567.92,227.4Z"></path><path class="cls-11" d="M543.32,224.25a1.06,1.06,0,0,0,.15-.78c-.05-.22-.42-.53-.6-.68a2.26,2.26,0,0,0-1.41-.67,14,14,0,0,0-2.68-.12c-.4.06-.88.14-1.54.21.18-.34.88-.6,1.55-.9.08-.35.3-1.42.42-2.12-.69.28-.57.22-1.23.51s-3,1.11-4.14,2.68c-.94,1.3-1.2,4.17-3.11,5.93a18.07,18.07,0,0,1-2.73,2c-.81.52-.51.57-1.59,1.1,0-.3,0-.3.07-.63a26.64,26.64,0,0,0-4.2.74c-2.7.68-5.9,2.72-6.22,3.25a8.16,8.16,0,0,0,0,1.29v7.28c.39,1,2.14,3.91,4,4.06a4.79,4.79,0,0,0,2.79-.29,18.78,18.78,0,0,0,4.48-3.08c1.72-1.56,3.56-5.22,4.7-7.47.76-1.48.68-1.79,1.48-2.63.53-.55,1.73-.66,2.25-1.21.82-.88.89-2.44,1.95-3a3.13,3.13,0,0,1,1.52-.51c.6,0,.84.15,1.39-.09s.78-.73.47-1.19c-.12-.17-.78-.17-1.13-.24a7.69,7.69,0,0,0-3.17,0,2.49,2.49,0,0,1,.91-.88,4.77,4.77,0,0,1,1.94-.21c.71,0,1.24.41,1.95.39a.87.87,0,0,0,.43-1.39,6.11,6.11,0,0,0-1.33-.81,7.61,7.61,0,0,0-2.38-.2c-.7,0-1.84.52-1.81.26a3.55,3.55,0,0,1,1.8-.86,12.45,12.45,0,0,1,3.17,0C541.75,224.13,542.78,224.88,543.32,224.25Z"></path><path class="cls-12" d="M522.28,231.55c-.64.89-2.56,2.12-3.41,4.69-.46,1.42-.48,2-.73,2.93.68-1.38,2.91-5.15,5.52-6.42a24.81,24.81,0,0,0,2.75-1.31c0-.27.07-.36.07-.63A12.45,12.45,0,0,0,522.28,231.55Z"></path><path class="cls-11" d="M560,224.75a.79.79,0,0,1-.7.3,10.67,10.67,0,0,1-2.93-1.08c-.56-.34-1-.73-1.6-1.08a21.66,21.66,0,0,0-3.63-1.84.77.77,0,0,0-1,.36c-.33.73.94,1.42,1.35,1.69.65.44,1.28.91,1.92,1.37l.94.66a2.71,2.71,0,0,1,.35.24s.09.13,0,.14a3.52,3.52,0,0,1-1.32-.47c-.5-.24-1-.44-1.55-.67-1.18-.53-2-1.07-3.08-1.5a2.1,2.1,0,0,0-1-.17.74.74,0,0,0-.49.92c.09.34.48.6.76.81.86.65,3.19,2,3.76,2.3.22.13.43.28.64.43l.41.28c.1.07.27.19.08.27a.88.88,0,0,1-.62,0,6,6,0,0,1-.69-.2,36.68,36.68,0,0,1-3.7-2,2.6,2.6,0,0,0-.76-.29c-.8-.1-1.06.83-.6,1.4a10.18,10.18,0,0,0,1.59,1.14c.55.32,1,.67,1.56.94l1.1.57c.21.1.46.25.74.41s-.46.37-1,.38l-1.11,0c-.13,0-1,0-1.23,0a5.14,5.14,0,0,0,.8.55,4.52,4.52,0,0,0,.8.38,7.19,7.19,0,0,0,1.57.44,13.8,13.8,0,0,1,2.56.41c.34.12,1.67.85,2.12,1a9.49,9.49,0,0,0,2.34.61c2.47.17,4.19,2.37,5.36,3.12,1.4.9,5,3.39,8,3.23,1.18-.07,3.68-2.51,3.89-5.4.18-2.42.07-5.42-3-6.09-1.63-.36-3.48.84-5.68,1.15a12.7,12.7,0,0,1-3.14,0c-.78-.2-.47-1.81-.63-3.09a14.53,14.53,0,0,0-.72-2.85c-.46-2.86-.32-3.45-1.22-3.67-.21.9-.52,2.33-.73,3.23A3.34,3.34,0,0,1,560,224.75Z"></path><path class="cls-13" d="M535.44,176.1a6.08,6.08,0,0,0-2.17.87,2.47,2.47,0,0,0-1.12,1.93c0,.76.85,2.45.06,2.42-.37,0-.79-.24-1,.26-.71,0-.89.95-.91,1.66A6.37,6.37,0,0,0,532,188a1.12,1.12,0,0,0,1,.15,17.63,17.63,0,0,0,1.56,3,20.8,20.8,0,0,0,3.09,4.1,5.51,5.51,0,0,0,2.71,1.75,4,4,0,0,0,3.75-1,11.72,11.72,0,0,0,1.86-3.24,26.36,26.36,0,0,0,2.27-10.84,25.77,25.77,0,0,0-.17-2.78c-.07-.62,0-1.88-.51-2.33a6.51,6.51,0,0,0-2.42-.68,26.43,26.43,0,0,0-2.94-.46A20.64,20.64,0,0,0,535.44,176.1Z"></path><path class="cls-10" d="M548.22,173.18c-1.92-2.58-5.08-3.47-8.36-3.56a11.13,11.13,0,0,0-6.18,1.56c-2.32,1.71-3,4.09-2.73,6.89.08.72,0,1.87.22,3.51a2.26,2.26,0,0,1,1.69,2.27c0,.38,0,.75.09,1.13,0,.17,0,.87.3.77a.25.25,0,0,0,.17-.22,1.51,1.51,0,0,0,0-.47c0-.47,0-.94,0-1.41,0-.63.27-.9.83-1.32a2.63,2.63,0,0,0,.65-.59,1.42,1.42,0,0,0,.3-1c-.15-.92-.57-2.37.09-3a1.63,1.63,0,0,1,1.26-.62c1.73-.3,2.45,1.15,5.51,1.15,2.47,0,2.32-.51,3.23-.84a2.08,2.08,0,0,1,2.1.17c.89.71.55,2,.47,3.12a6.39,6.39,0,0,0,.38,2.7,19.42,19.42,0,0,0,1-5.28C549.05,176.52,549.17,174.46,548.22,173.18Z"></path><path class="cls-14" d="M71.08,75.85a18.13,18.13,0,0,0-7.47-7.28,23,23,0,0,0-11-2.56,26.29,26.29,0,0,0-12.76,3.07,21.79,21.79,0,0,0-8.82,8.85,26.8,26.8,0,0,0-3.19,13.19q0,10.14,5.88,15.81t16.39,5.67a37.55,37.55,0,0,0,5.88-.46l.08,0h0l5-1.22a3.13,3.13,0,0,0,2-2.8v-.39a1.47,1.47,0,0,0-2-1.49l-.25.07a41.79,41.79,0,0,1-4.53,1.15,33.22,33.22,0,0,1-6.28.61q-8.24,0-12.64-4.43T33,91a23.54,23.54,0,0,1,2.35-10.78A16.66,16.66,0,0,1,42.17,73a21.18,21.18,0,0,1,10.52-2.5,17.31,17.31,0,0,1,8.41,2,13.76,13.76,0,0,1,5.65,5.66,17.66,17.66,0,0,1,2,8.54,17.85,17.85,0,0,1-1.32,7.38C66.54,96,65.35,97,63.85,97q-3,0-3-4.54v-.68l.62-13.21a27.11,27.11,0,0,0-4.67-1.07,34.2,34.2,0,0,0-4.79-.38,12.53,12.53,0,0,0-9.45,3.65,13.1,13.1,0,0,0-3.53,9.5,11.7,11.7,0,0,0,2.66,8.07,9.29,9.29,0,0,0,7.29,3,9.51,9.51,0,0,0,4.6-1.11,9.22,9.22,0,0,0,3.43-3.32h.35a5.75,5.75,0,0,0,2.21,3.24,6.5,6.5,0,0,0,3.89,1.19,8.29,8.29,0,0,0,5.36-1.88,12,12,0,0,0,3.59-5.24,20.79,20.79,0,0,0,1.28-7.42A22,22,0,0,0,71.08,75.85ZM55.73,88.68q-.51,8.32-6,8.32c-3.47,0-5.2-2.2-5.2-6.62a9.84,9.84,0,0,1,2-6.56,7,7,0,0,1,5.67-2.41,14.72,14.72,0,0,1,3.83.48Z"></path><path class="cls-15" d="M145.5,99.5c-1.07-5.13-3.5-10-10.9-10.9-1.29,0-8.89.21-9.95,6.62,0,.12,0,.12,0,0-1.07-6.41-8.67-6.62-9.95-6.62-7.4.9-9.83,5.77-10.9,10.9-2.14,13.68,20.94,29.71,20.94,29.71h0S147.63,113.18,145.5,99.5Z"></path><polygon class="cls-16" points="98.98 63.7 103.02 52.27 92.46 43.46 105.31 43.46 109.48 32.15 113.38 43.45 125.08 43.45 115.94 52.27 120.31 64.11 109.55 57.52 98.98 63.7"></polygon><rect class="cls-17" x="479.52" y="89.21" width="43.69" height="36.85" rx="8.44"></rect><polygon class="cls-18" points="494.02 117.68 494.02 98.48 512.55 108.08 494.02 117.68"></polygon><path class="cls-10" d="M292.94,59.11l9.45,9.46a26.76,26.76,0,0,1,37.91,0l9.45-9.46a40.11,40.11,0,0,0-56.81,0ZM277.4,41.87l9.45,9.45a49,49,0,0,1,69.31,0l9.44-9.45a62.29,62.29,0,0,0-88.2,0ZM321.36,0a87,87,0,0,0-61.64,25.56L269.17,35a73.72,73.72,0,0,1,104.35,0L383,25.56A87,87,0,0,0,321.36,0Zm0,70.39a13.38,13.38,0,1,0,13.36,13.38A13.39,13.39,0,0,0,321.36,70.39Z"></path><rect class="cls-5" x="50.56" y="136.58" width="46.28" height="32.38" rx="16.19" transform="translate(147.4 305.53) rotate(-180)"></rect><polygon class="cls-5" points="61.96 182.69 75.32 168.53 63.32 168.53 61.96 182.69"></polygon><path class="cls-19" d="M87.83,149.21h-28a1.09,1.09,0,0,1,0-2.17h28a1.09,1.09,0,0,1,0,2.17Z"></path><path class="cls-19" d="M87.83,154.51h-28a1.09,1.09,0,0,1,0-2.17h28a1.09,1.09,0,0,1,0,2.17Z"></path><path class="cls-19" d="M87.83,159.81h-28a1.09,1.09,0,0,1,0-2.17h28a1.09,1.09,0,0,1,0,2.17Z"></path><rect class="cls-16" x="89.52" y="160.91" width="45.06" height="29.32" rx="14.66"></rect><path class="cls-19" d="M126.08,171.72h-28a1.08,1.08,0,1,1,0-2.16h28a1.08,1.08,0,1,1,0,2.16Z"></path><path class="cls-19" d="M126.08,177h-28a1.08,1.08,0,1,1,0-2.16h28a1.08,1.08,0,1,1,0,2.16Z"></path><path class="cls-19" d="M126.08,182.32h-28a1.08,1.08,0,0,1,0-2.16h28a1.08,1.08,0,0,1,0,2.16Z"></path><polygon class="cls-16" points="114.12 203.09 100.65 189.44 112.41 189.44 114.12 203.09"></polygon><circle class="cls-1" cx="71.59" cy="286.99" r="57.77" transform="translate(-223.86 300.91) rotate(-78.69)"></circle><g class="cls-20"><path class="cls-5" d="M35.06,239.7s5.88,0,6.11,2.72,0,2.94,1.58,2.94A17.57,17.57,0,0,0,50,242.53c1.59-1.25-2,2.37,0,2.83s5.21-2.27,3.85,0S43,251.88,43.21,254.61s.78,2.72,1.41,3.63,1.3-3.16,3.34-2.48,3.39-6,5-4.82,2,5.28,2.94,5.05,3.84-2.28,4.29,2.25,3.4,8.38,0,8.61-2.26-4.53-4.52-3.85-3.39-2.26-2.26.68,2,3.85,0,4.3-5.21-1.13-8.15,1.81-5.43,12-7.24,12.67-3.84-2.72-5.43-2.72-8.59.68-7,4.53,5.43-2,5.88,0-1.35,2.26-.22,4.07,2.71,1.78,2.71,2.81-2.26,1.72-.9,2.39,5.2.46,4.07,1.36-6.11,3.62-8.37,0,.45-4.52-5.66-6.33-8.37,3.17-9.5-6.56S24,242,35.06,239.7Z"></path><path class="cls-5" d="M48.41,294.45c-2.94-1.81-5.2-4.49-6.33-2.58a25.2,25.2,0,0,1-4.44,5.75c-2.13,2-6.88,3.16-3.26,6.78s9.51,3.4,10.64,10.86,5.65,14.94,8.82,19.23,5.66,3.4,5.66,1.81.45-3.16,0-5.65-.51-4,.2-5.16,2.57-.27,2.09-1.86-1.55-2.71,0-4.52,4-5.88,4.49-8.82,3.85-6.11,0-7.24-7.69-4.72-10.4-6.32S48.41,294.45,48.41,294.45Z"></path><path class="cls-5" d="M56.33,233.82s-8.6.68-8.6,2.26,1.81,1.36,6.11,2.26,4.75,3.17,6.33,0,10.42-9.72,7.93-9.72S56.33,233.82,56.33,233.82Z"></path><path class="cls-5" d="M60.85,241.51A3.36,3.36,0,0,0,59,244.23c0,1.81-3.62,4.07-2.26,5.2S64.25,247.62,60.85,241.51Z"></path><path class="cls-5" d="M74.43,228.62s-9.73,4.75-9.28,6.78S67,239.12,67,240s-4.1,1.54-1.82,4.26.24,4.61.24,6.71S64,259.82,67,258.24s.91-2.9,7.47-8.57,11.31-16.53,11.08-17.89S82.25,228.31,74.43,228.62Z"></path><path class="cls-5" d="M111.76,243.53s-2,5.22-4.53,4.77.68-3.88-3.84-4.77-10.64,1.2-12,4.8-1.14,7.21,1.13,7.66,5.2,2.23,5.43-1.38.9-6.09,1.81-6.31,1.39,4.52,1.39,4.52,1.32,0,1.09,1.79-1.81,5.68-4.07,5.68-3.39-3.62-4.52-1.81-4.07,5.88-5.66,5.88-2,3.64-1.58,3.86-.9,1.34-.9,1.34-2.72-1.81-3.17,0,.22,4.75,1.58,4.75,2.71.68,4.75-1.13,5.88-4.52,7.24-2.94-1,4.32,1.06,4.2,3.69-1,3.46-2.84-1.58-2.7-.45-3.38,2,4.74,2.72,4.74S105,270.7,105,270.7s.68,3.65,2.49,3.74,4.3,0,4.3,0v4.4s-5.89.68-7.24,0a3.38,3.38,0,0,0-2.94.3s-4.76,2.34-5.66,0S94.79,274.54,93,275s-7.92.46-8.82,2-1.81,3.39-3,4.3a8,8,0,0,0-3.39,5c-.68,2.94.91,9.54,4.53,10.42s8.59,0,10.63,0,2.49,1.79,2.71,4.28,2,3.17,2.27,5.43-.46,2.94-.23,7-.91,9.73,2.26,11.09,3.17,2.94,8.15-3.62,6.1-9.73,7-13.57a17.21,17.21,0,0,1,6.11-9.28c2.49-1.81,3.39-4.3,2.71-4.3s-7,1.33-8.82-2.62-4.75-8.46-3.39-8.69,4.52,9,6.78,8.69,7.24-1.22,7.92-2.58,3.39-3.31,1.36-4-6.79-1.63-6.56-3,7.3-.45,7.3-.45S136.19,260.48,111.76,243.53Z"></path><path class="cls-5" d="M81.89,249.67s-4.52,1.12-5.43,2.93-.45,5.65,2.72,4.07S81.89,249.67,81.89,249.67Z"></path></g><polygon class="cls-10" points="52.66 197.09 15.48 208.12 26.92 214.73 49.72 199.64 29.6 215.84 27.66 221.62 33.03 217.53 41.28 221.58 52.66 197.09"></polygon><path class="cls-10" d="M25.84,228a1.18,1.18,0,0,1-1.12-1.61c.31-.81.64-1.63,1-2.43a1.19,1.19,0,0,1,2.18,1c-.34.76-.66,1.54-.94,2.3A1.2,1.2,0,0,1,25.84,228Z"></path><path class="cls-10" d="M105,305.56a1.19,1.19,0,0,1,0-2.38c1.68,0,3.39-.14,5-.28a1.19,1.19,0,1,1,.21,2.38c-1.72.15-3.47.24-5.21.28Zm-5.14,0h0c-1.72-.06-3.47-.18-5.2-.35a1.18,1.18,0,0,1-1.07-1.3,1.19,1.19,0,0,1,1.3-1.07c1.68.16,3.38.27,5.06.33a1.2,1.2,0,0,1,0,2.39Zm15.38-.84a1.19,1.19,0,0,1-.17-2.37c1.66-.25,3.34-.55,5-.9a1.19,1.19,0,0,1,1.42.92,1.2,1.2,0,0,1-.92,1.42c-1.69.36-3.42.67-5.13.92Zm-25.6-.14h-.18c-1.7-.27-3.42-.58-5.11-1a1.19,1.19,0,1,1,.5-2.33c1.64.35,3.32.66,5,.92a1.19,1.19,0,0,1-.19,2.37Zm-10-2.15a1.22,1.22,0,0,1-.32,0c-1.66-.45-3.34-1-5-1.52a1.19,1.19,0,1,1,.76-2.26c1.6.54,3.23,1,4.86,1.48a1.19,1.19,0,0,1,.83,1.47A1.18,1.18,0,0,1,79.61,302.4Zm-9.75-3.26a1.19,1.19,0,0,1-.44-.09c-1.6-.64-3.21-1.33-4.78-2.06a1.2,1.2,0,0,1,1-2.17c1.52.71,3.09,1.39,4.66,2a1.2,1.2,0,0,1-.45,2.31Zm-9.32-4.34a1.14,1.14,0,0,1-.56-.14c-1.53-.82-3-1.69-4.52-2.59a1.2,1.2,0,0,1,1.25-2c1.43.88,2.91,1.73,4.4,2.52a1.2,1.2,0,0,1-.57,2.25Zm-8.76-5.37a1.21,1.21,0,0,1-.68-.21c-1.43-1-2.84-2-4.19-3.11a1.18,1.18,0,0,1-.2-1.67,1.19,1.19,0,0,1,1.68-.2c1.31,1,2.68,2.05,4.07,3a1.19,1.19,0,0,1,.3,1.66A1.17,1.17,0,0,1,51.78,289.43Zm-8.06-6.37a1.17,1.17,0,0,1-.8-.31c-1.3-1.16-2.57-2.38-3.77-3.61a1.2,1.2,0,0,1,1.71-1.67c1.16,1.2,2.39,2.37,3.66,3.51a1.19,1.19,0,0,1-.8,2.08Zm-7.17-7.36a1.2,1.2,0,0,1-.91-.43c-1.14-1.34-2.22-2.73-3.22-4.12a1.19,1.19,0,1,1,1.93-1.4c1,1.34,2,2.68,3.11,4a1.2,1.2,0,0,1-.91,2Zm-6-8.34a1.17,1.17,0,0,1-1-.58c-.92-1.51-1.76-3.06-2.51-4.6a1.19,1.19,0,1,1,2.14-1.05c.73,1.48,1.54,3,2.41,4.42a1.2,1.2,0,0,1-.4,1.64A1.19,1.19,0,0,1,30.55,267.36Zm-4.48-9.23a1.19,1.19,0,0,1-1.12-.78,50.14,50.14,0,0,1-1.58-5,1.2,1.2,0,0,1,.87-1.45,1.18,1.18,0,0,1,1.45.86,45.43,45.43,0,0,0,1.5,4.78,1.2,1.2,0,0,1-.71,1.53A1.24,1.24,0,0,1,26.07,258.13Zm-2.52-9.94a1.21,1.21,0,0,1-1.19-1,44.47,44.47,0,0,1-.39-5.26,1.2,1.2,0,0,1,1.18-1.21h0a1.2,1.2,0,0,1,1.19,1.18,41.7,41.7,0,0,0,.37,5,1.2,1.2,0,0,1-1,1.35Zm-.13-10.25h-.14a1.19,1.19,0,0,1-1.05-1.32,42.46,42.46,0,0,1,.93-5.21,1.18,1.18,0,0,1,1.44-.87,1.2,1.2,0,0,1,.88,1.44,39.16,39.16,0,0,0-.88,4.91A1.18,1.18,0,0,1,23.42,237.94Z"></path><path class="cls-10" d="M125.34,302.54a1.19,1.19,0,0,1-.32-2.34l2.42-.72a1.19,1.19,0,0,1,1.5.78,1.21,1.21,0,0,1-.78,1.5c-.84.26-1.68.51-2.5.74A1.12,1.12,0,0,1,125.34,302.54Z"></path><rect class="cls-21" x="589.48" y="253.16" width="48.64" height="91.2"></rect><path class="cls-5" d="M637.41,298H590.19c-2.58,0-4.67-1.73-4.67-3.87v-8.78c0-2.13,2.09-3.87,4.67-3.87h47.22c2.57,0,4.67,1.74,4.67,3.87v8.78C642.08,296.23,640,298,637.41,298Z"></path><path class="cls-5" d="M637.41,318.47H590.19c-2.58,0-4.67-1.74-4.67-3.87v-8.78c0-2.14,2.09-3.87,4.67-3.87h47.22c2.57,0,4.67,1.73,4.67,3.87v8.78C642.08,316.73,640,318.47,637.41,318.47Z"></path><path class="cls-5" d="M637.41,339H590.19c-2.58,0-4.67-1.73-4.67-3.87v-8.78c0-2.14,2.09-3.87,4.67-3.87h47.22c2.57,0,4.67,1.73,4.67,3.87v8.78C642.08,337.24,640,339,637.41,339Z"></path><path class="cls-22" d="M628.75,288.13a2,2,0,1,1-2-2.05A2,2,0,0,1,628.75,288.13Z"></path><path class="cls-16" d="M634.79,288.13a2,2,0,1,1-2-2.05A2.05,2.05,0,0,1,634.79,288.13Z"></path><path class="cls-5" d="M637.41,275.94H590.19c-2.58,0-4.67-1.73-4.67-3.87v-8.78c0-2.13,2.09-3.87,4.67-3.87h47.22c2.57,0,4.67,1.74,4.67,3.87v8.78C642.08,274.21,640,275.94,637.41,275.94Z"></path><path class="cls-22" d="M628.75,266.11a2,2,0,1,1-2-2A2,2,0,0,1,628.75,266.11Z"></path><path class="cls-16" d="M634.79,266.11a2.05,2.05,0,1,1-2-2A2,2,0,0,1,634.79,266.11Z"></path><path class="cls-22" d="M628.75,307.23a2,2,0,1,1-2-2.05A2,2,0,0,1,628.75,307.23Z"></path><path class="cls-16" d="M634.79,307.23a2,2,0,1,1-2-2.05A2.05,2.05,0,0,1,634.79,307.23Z"></path><path class="cls-22" d="M628.75,326.33a2,2,0,1,1-2-2.05A2,2,0,0,1,628.75,326.33Z"></path><path class="cls-16" d="M634.79,326.33a2,2,0,1,1-2-2.05A2.05,2.05,0,0,1,634.79,326.33Z"></path><path class="cls-23" d="M607.47,232.39a55.93,55.93,0,0,1-7.29-30,87.73,87.73,0,0,0,14.53-5.63,52.21,52.21,0,0,0,12-9v-5.51s-6.63,6.87-14.07,10.62a103.05,103.05,0,0,1-17.07,6.61,65.69,65.69,0,0,0,8.57,35.28c9.81,17.31,22.57,21.49,22.57,21.49v-5.52S615.82,247.12,607.47,232.39Z"></path><path class="cls-24" d="M657.82,199.42a103.42,103.42,0,0,1-17.07-6.61c-7.44-3.75-14.07-10.62-14.07-10.62v5.51a52.12,52.12,0,0,0,12,9,87.45,87.45,0,0,0,14.52,5.63,55.93,55.93,0,0,1-7.29,30c-8.35,14.73-19.21,18.28-19.21,18.28v5.52s12.76-4.18,22.58-21.49A65.73,65.73,0,0,0,657.82,199.42Z"></path><path class="cls-18" d="M645.89,232.39a55.93,55.93,0,0,0,7.29-30,87.45,87.45,0,0,1-14.52-5.63,52.12,52.12,0,0,1-12-9v63S637.54,247.12,645.89,232.39Z"></path><path class="cls-18" d="M614.71,196.74a87.73,87.73,0,0,1-14.53,5.63,55.93,55.93,0,0,0,7.29,30c8.35,14.73,19.21,18.28,19.21,18.28v-63A52.21,52.21,0,0,1,614.71,196.74Z"></path><path class="cls-25" d="M625.68,229.57a1,1,0,0,1-1.4,0l-.31-.31h0l-.33-.33-1.45-1.46s0,0,0,0l-6.68-6.72a1,1,0,0,1,0-1.4l2.1-2.1a1,1,0,0,1,1.4,0l6,6,12.6-12.59a1,1,0,0,1,1.4,0l2.1,2.1a1,1,0,0,1,0,1.4Z"></path><rect class="cls-5" x="450.77" y="17.03" width="6.45" height="45.08"></rect><rect class="cls-26" x="442.57" y="31.2" width="6.45" height="30.91"></rect><rect class="cls-10" x="434.36" y="29.65" width="6.45" height="32.45"></rect><rect class="cls-27" x="426.15" y="39.57" width="6.45" height="22.54"></rect><rect class="cls-28" x="417.94" y="44.29" width="6.45" height="17.81"></rect><rect class="cls-29" x="413.37" y="15.03" width="1.28" height="53.38"></rect><rect class="cls-29" x="410.76" y="64.8" width="52.13" height="1.28"></rect><path class="cls-25" d="M556.25,55.58l-2.68,2.68A9.49,9.49,0,1,0,567,71.67L569.66,69a9.89,9.89,0,0,0,2.5-10.33L567.81,63a5.64,5.64,0,0,1-1.5,2.62l-2.69,2.68a4.76,4.76,0,1,1-6.7-6.71l2.68-2.68a5.59,5.59,0,0,1,2.62-1.5l4.35-4.35A9.85,9.85,0,0,0,556.25,55.58Z"></path><path class="cls-30" d="M577.81,50.78a2.37,2.37,0,0,0-3.35-3.36l-12.29,12.3a2.37,2.37,0,0,0,3.35,3.34Z"></path><path class="cls-25" d="M586.75,38.49a9.62,9.62,0,0,0-13.74.33l-2.68,2.68a9.89,9.89,0,0,0-2.51,10.33l4.36-4.35a5.62,5.62,0,0,1,1.5-2.63l2.68-2.68a4.76,4.76,0,1,1,6.7,6.71l-2.68,2.68a5.59,5.59,0,0,1-2.62,1.5l-4.35,4.36a9.87,9.87,0,0,0,10.32-2.51l2.69-2.68A9.62,9.62,0,0,0,586.75,38.49Z"></path><path class="cls-31" d="M623.88,106.55A15.11,15.11,0,0,0,624,105a14.35,14.35,0,0,0-21.5-12.44,19.8,19.8,0,0,0-33.64,11.11,15.53,15.53,0,0,0,4.81,30.22H622a13.76,13.76,0,0,0,1.89-27.39Z"></path><path class="cls-19" d="M598.07,124.25a16.81,16.81,0,1,1,0,23.77A16.82,16.82,0,0,1,598.07,124.25Z"></path><path class="cls-32" d="M600.92,127.1a12.78,12.78,0,1,1,0,18.07A12.78,12.78,0,0,1,600.92,127.1Z"></path><path class="cls-5" d="M572.19,165.24,588.4,149l1.92,1.92-.06.05,2.41,2.42,2.42,2.41,0-.06,1.92,1.92-16.21,16.22a3.51,3.51,0,0,1-5,0L574,172.05l-1.85-1.86A3.49,3.49,0,0,1,572.19,165.24Z"></path><path class="cls-16" d="M590.32,151l-.06.05,2.41,2.42,2.42,2.41,0-.06,3.23-3.22a20.09,20.09,0,1,0-4.83-4.83Zm9-4.17a15.05,15.05,0,1,1,21.29,0A15.05,15.05,0,0,1,599.31,146.78Z"></path><path class="cls-16" d="M524.91,28.62,503.68,33.7V54.38a7.56,7.56,0,0,0-2.81-.53c-3.5,0-6.34,2.27-6.34,5.08S497.37,64,500.87,64s6.28-2.23,6.34-5h0v-20l14.16-3.39V48.08a7.47,7.47,0,0,0-2.8-.53c-3.5,0-6.34,2.27-6.34,5.08s2.84,5.09,6.34,5.09,6.28-2.24,6.34-5h0V28.62Z"></path><polygon class="cls-10" points="185.38 13.99 185.38 13.97 185.38 13.98 185.37 13.97 185.37 13.99 174.7 23.03 174.7 16.57 168.7 16.57 168.7 28.12 159.77 35.7 159.77 38.94 162.93 38.95 185.38 19.45 207.82 38.95 210.98 38.94 210.98 35.7 185.38 13.99"></polygon><path class="cls-33" d="M206.55,40.49l-21-18.44-21,18.15V63.11l15.5.06v0H191l15.59,0Zm-30,.75h8.3v8.39h-8.3Zm0,17.95V51h8.3v8.2Zm17.95,0h-8.29V51h8.29Zm0-9.56h-8.29V41.24h8.29Z"></path><rect class="cls-19" x="211.17" y="33.76" width="8.33" height="10.74"></rect><path class="cls-34" d="M224.64,28.66h-.71c0-.32,0-.64,0-1a8.94,8.94,0,1,0-17.86,0c0,.33,0,.65,0,1h-.71a1.74,1.74,0,0,0-1.74,1.74v18a1.74,1.74,0,0,0,1.74,1.73h19.18a1.73,1.73,0,0,0,1.73-1.73v-18A1.73,1.73,0,0,0,224.64,28.66Zm-16.45-1a6.87,6.87,0,1,1,13.72,0,7.63,7.63,0,0,1-.07,1H208.26A7.63,7.63,0,0,1,208.19,27.69ZM216.28,40v3.54h-2.46V40a2.78,2.78,0,1,1,2.46,0Z"></path><polygon class="cls-10" points="454.71 368.09 454.75 359.71 456.35 360.29 456.31 368.81 454.71 368.09"></polygon><polygon class="cls-35" points="483.65 368.93 483.73 360.39 484.07 359.81 483.99 368.22 483.65 368.93"></polygon><polygon class="cls-35" points="445.17 369.14 445.2 360.56 448.8 361.06 448.76 369.76 445.17 369.14"></polygon><polygon class="cls-10" points="492.8 369.96 492.89 361.21 495.43 360.72 495.34 369.35 492.8 369.96"></polygon><polygon class="cls-35" points="439.54 370.75 439.56 361.85 444.77 362.18 444.74 371.17 439.54 370.75"></polygon><polygon class="cls-10" points="499.12 371.38 499.23 362.36 503.78 362.05 503.68 371 499.12 371.38"></polygon><polygon class="cls-35" points="456.34 371.8 456.38 362.69 456.47 362.53 456.42 371.59 456.34 371.8"></polygon><polygon class="cls-10" points="438.68 372.03 438.7 362.88 438.89 363.15 438.87 372.37 438.68 372.03"></polygon><polygon class="cls-5" points="432.62 372.5 432.63 363.26 434.23 362.79 434.22 371.92 432.62 372.5"></polygon><polygon class="cls-10" points="488.82 363.1 488.63 362.93 488.29 362.76 487.83 362.6 487.25 362.44 486.55 362.28 485.73 362.13 484.8 361.99 483.77 361.85 482.63 361.72 481.39 361.6 480.06 361.5 478.66 361.4 477.72 361.35 476.29 361.28 474.85 361.23 473.41 361.19 471.97 361.16 470.54 361.15 469.14 361.16 467.76 361.17 466.42 361.21 465.12 361.25 463.87 361.31 462.69 361.38 461.57 361.47 460.53 361.57 459.57 361.69 458.71 361.82 457.98 361.96 457.56 362.06 457.06 362.21 456.69 362.36 456.47 362.53 456.42 371.59 456.65 371.39 457.01 371.2 457.52 371.01 457.93 370.89 458.67 370.71 459.53 370.55 460.48 370.41 461.52 370.28 462 370.24 461.99 371.93 462.07 372.07 462.08 370.23 462.64 370.17 463.82 370.08 465.07 370.01 466.36 369.95 467.7 369.91 469.08 369.89 470.48 369.88 471.91 369.9 473.34 369.93 474.78 369.98 476.22 370.04 477.65 370.13 478.59 370.19 479.98 370.31 481.31 370.44 482.55 370.59 483.69 370.75 484.72 370.92 485.65 371.1 486.46 371.29 487.16 371.48 487.75 371.68 488.2 371.89 488.54 372.1 488.73 372.31 488.79 372.52 488.88 363.27 488.82 363.1"></polygon><polygon class="cls-10" points="438.87 372.37 438.89 363.15 439.27 363.44 439.25 372.72 438.87 372.37"></polygon><polygon class="cls-1" points="439.25 372.72 439.27 363.44 445.38 363.52 445.35 372.83 439.25 372.72"></polygon><polygon class="cls-1" points="501.37 373.03 501.47 363.68 507.49 363.63 507.38 372.96 501.37 373.03"></polygon><polygon class="cls-36" points="402.89 372.62 402.86 363.35 405.42 363.74 405.45 373.1 402.89 372.62"></polygon><polygon class="cls-10" points="445.35 372.83 445.38 363.52 446.1 363.79 446.07 373.16 445.35 372.83"></polygon><polygon class="cls-10" points="446.07 373.16 446.1 363.79 447.03 364.06 446.99 373.5 446.07 373.16"></polygon><polygon class="cls-5" points="483.05 363.21 482.91 363.32 482.68 363.43 482.34 363.53 481.9 363.63 481.37 363.72 480.97 363.78 480.32 363.86 479.59 363.92 478.81 363.98 477.97 364.03 477.08 364.07 476.16 364.1 475.21 364.11 474.23 364.12 473.23 364.12 472.22 364.1 471.21 364.07 470.21 364.04 469.22 363.99 468.25 363.93 467.3 363.86 466.41 363.78 465.86 363.73 465.1 363.64 464.42 363.54 463.83 363.44 463.31 363.34 462.89 363.23 462.54 363.13 462.29 363.02 462.12 362.91 462.07 372.07 462.24 372.2 462.49 372.34 462.83 372.47 463.26 372.61 463.77 372.73 464.37 372.86 465.04 372.98 465.8 373.09 466.35 373.16 467.24 373.25 468.18 373.34 469.15 373.41 470.14 373.47 471.15 373.52 472.15 373.55 473.16 373.57 474.15 373.57 475.13 373.57 476.09 373.55 477.01 373.51 477.89 373.46 478.73 373.4 479.51 373.33 480.24 373.25 480.89 373.15 481.29 373.08 481.82 372.96 482.26 372.84 482.6 372.71 482.83 372.58 482.96 372.44 483.01 372.31 483.09 363.1 483.05 363.21"></polygon><polygon class="cls-35" points="501.36 363.92 501.08 364.16 500.97 373.63 501.25 373.33 501.37 373.03 501.47 363.68 501.36 363.92"></polygon><polygon class="cls-5" points="438.56 374.06 438.58 364.51 442.56 364.26 442.54 373.75 438.56 374.06"></polygon><polygon class="cls-5" points="430.3 364.71 430.17 364.6 429.95 364.49 429.65 364.39 429.29 364.29 428.84 364.2 428.34 364.11 427.77 364.03 427.14 363.96 426.47 363.89 425.8 363.84 425.1 363.79 424.26 363.75 423.49 363.71 422.69 363.69 421.86 363.68 421.01 363.67 420.09 363.67 419.48 363.68 418.6 363.7 417.74 363.73 416.92 363.76 416.13 363.81 415.38 363.86 414.67 363.93 414.01 364 413.41 364.07 412.86 364.15 412.37 364.24 411.95 364.34 411.6 364.44 411.33 364.54 411.13 364.65 411.03 364.76 411.01 364.88 411.03 374.52 411.05 374.37 411.15 374.23 411.35 374.1 411.62 373.97 411.97 373.84 412.39 373.73 412.88 373.62 413.42 373.51 414.03 373.42 414.08 373.41 414.08 374.48 414.14 374.58 414.14 373.4 414.69 373.33 415.39 373.26 416.14 373.19 416.93 373.13 417.75 373.08 418.61 373.05 419.49 373.03 420.09 373.02 421.01 373.01 421.86 373.02 422.69 373.04 423.49 373.07 424.26 373.11 425.1 373.17 425.8 373.23 426.46 373.29 427.14 373.38 427.76 373.47 428.33 373.56 428.84 373.67 429.28 373.79 429.65 373.91 429.94 374.04 430.16 374.17 430.29 374.31 430.33 374.45 430.34 364.82 430.3 364.71"></polygon><polygon class="cls-10" points="505.99 374.6 506.11 364.95 506.77 364.67 506.65 374.26 505.99 374.6"></polygon><polygon class="cls-1" points="445.1 374.75 445.13 365.07 451.07 364.84 451.04 374.47 445.1 374.75"></polygon><polygon class="cls-10" points="443.72 364.81 442.48 364.54 442.45 374.1 443.69 374.43 445.1 374.75 445.13 365.07 443.72 364.81"></polygon><polygon class="cls-37" points="398.29 374.79 398.26 365.09 402.58 365.19 402.61 374.9 398.29 374.79"></polygon><polygon class="cls-10" points="505.11 374.94 505.23 365.22 506.11 364.95 505.99 374.6 505.11 374.94"></polygon><polygon class="cls-1" points="498.61 374.62 498.72 364.96 505.23 365.22 505.11 374.94 498.61 374.62"></polygon><polygon class="cls-10" points="452.79 365.08 451.07 364.84 451.04 374.47 452.75 374.77 454.66 375.05 454.7 365.31 452.79 365.08"></polygon><polygon class="cls-10" points="497.61 365.17 496.35 365.38 496.24 375.14 497.51 374.89 498.61 374.62 498.72 364.96 497.61 365.17"></polygon><polygon class="cls-38" points="427.24 364.89 427.18 364.94 427.04 365.02 426.84 365.09 426.58 365.16 426.28 365.22 425.93 365.28 425.53 365.34 425.09 365.39 424.62 365.44 424.1 365.48 423.55 365.52 422.98 365.55 422.37 365.57 421.75 365.59 421.1 365.6 420.44 365.6 419.91 365.6 419.4 365.59 418.82 365.57 418.26 365.55 417.66 365.52 417.09 365.48 416.56 365.43 416.09 365.38 415.66 365.33 415.28 365.27 414.94 365.21 414.66 365.14 414.43 365.07 414.25 365 414.13 364.93 414.14 374.58 414.26 374.67 414.44 374.76 414.67 374.85 414.96 374.93 415.29 375.01 415.67 375.08 416.1 375.14 416.57 375.21 417.1 375.26 417.67 375.31 418.27 375.35 418.83 375.38 419.41 375.4 419.92 375.41 420.44 375.42 421.1 375.41 421.75 375.4 422.37 375.38 422.98 375.35 423.55 375.31 424.1 375.27 424.61 375.21 425.09 375.16 425.53 375.09 425.93 375.02 426.28 374.94 426.58 374.86 426.83 374.78 427.03 374.69 427.17 374.6 427.23 374.53 427.28 374.44 427.28 364.81 427.24 364.89"></polygon><polygon class="cls-5" points="404.12 365.84 403.63 365.7 403.26 365.57 402.84 365.38 402.58 365.19 402.61 374.9 402.87 375.14 403.3 375.38 403.66 375.54 404.15 375.71 404.12 365.84"></polygon><polygon class="cls-39" points="441.1 376.06 441.12 366.12 443 365.43 442.98 375.2 441.1 376.06"></polygon><polygon class="cls-37" points="436.43 375.89 436.45 365.98 441.12 366.12 441.1 376.06 436.43 375.89"></polygon><polygon class="cls-1" points="463.76 366.03 461.31 365.88 461.25 375.76 463.7 375.95 466.2 376.1 466.27 366.15 463.76 366.03"></polygon><polygon class="cls-10" points="488.92 366.07 486.78 366.18 486.69 376.14 488.82 376 490.84 375.83 490.94 365.94 488.92 366.07"></polygon><polygon class="cls-1" points="476.75 366.38 474.16 366.37 474.08 376.37 476.68 376.39 479.23 376.38 479.31 366.38 476.75 366.38"></polygon><polygon class="cls-10" points="456.78 376.43 456.83 366.41 461.31 365.88 461.25 375.76 456.78 376.43"></polygon><polygon class="cls-1" points="454.56 366.23 452.41 366.02 452.36 375.94 454.51 376.19 456.78 376.43 456.83 366.41 454.56 366.23"></polygon><polygon class="cls-10" points="498.54 366.32 496.64 366.5 496.53 376.53 498.43 376.31 500.18 376.05 500.29 366.11 498.54 366.32"></polygon><polygon class="cls-1" points="490.84 375.83 490.94 365.94 496.64 366.5 496.53 376.53 490.84 375.83"></polygon><polygon class="cls-39" points="435.86 366.1 435.23 366.21 434.16 366.36 432.99 366.51 432.97 376.54 434.15 376.36 435.21 376.17 435.85 376.03 436.43 375.89 436.45 365.98 435.86 366.1"></polygon><polygon class="cls-36" points="400.88 376.22 400.85 366.25 404.34 366.85 404.37 376.96 400.88 376.22"></polygon><polygon class="cls-40" points="404.37 376.96 404.34 366.85 408.51 366.55 408.53 376.6 404.37 376.96"></polygon><polygon class="cls-36" points="413.38 366.92 411.8 366.83 410.4 366.73 409.02 366.6 408.51 366.55 408.53 376.6 409.04 376.66 410.43 376.82 411.82 376.94 413.4 377.06 413.38 366.92"></polygon><polygon class="cls-10" points="466.2 376.1 466.27 366.15 466.92 366.98 466.85 377.13 466.2 376.1"></polygon><polygon class="cls-37" points="425.4 367.02 424.29 367.05 422.57 367.08 420.81 367.1 420.82 377.27 422.57 377.26 424.28 377.22 425.39 377.18 426.48 377.13 426.48 366.98 425.4 367.02"></polygon><polygon class="cls-10" points="472.19 377.32 472.26 367.13 474.16 366.37 474.08 376.37 472.19 377.32"></polygon><polygon class="cls-1" points="469.59 367.07 466.92 366.98 466.85 377.13 469.52 377.24 472.19 377.32 472.26 367.13 469.59 367.07"></polygon><polygon class="cls-1" points="485.47 367.1 482.9 367.15 482.81 377.34 485.38 377.27 487.88 377.18 487.98 367.02 485.47 367.1"></polygon><polygon class="cls-10" points="479.23 376.38 479.31 366.38 482.9 367.15 482.81 377.34 479.23 376.38"></polygon><polygon class="cls-36" points="429.4 377.73 429.41 367.46 434.8 367.08 434.78 377.26 429.4 377.73"></polygon><polygon class="cls-39" points="426.48 377.13 426.48 366.98 429.41 367.46 429.4 377.73 426.48 377.13"></polygon><polygon class="cls-39" points="419.11 378 419.1 367.68 420.81 367.1 420.82 377.27 419.11 378"></polygon><polygon class="cls-37" points="413.01 377.8 412.99 367.52 419.1 367.68 419.11 378 413.01 377.8"></polygon><polygon class="cls-39" points="482.9 362.88 482.67 362.77 482.36 362.67 481.97 362.56 481.5 362.46 480.95 362.36 480.33 362.27 479.64 362.18 478.88 362.1 478.34 362.05 477.47 361.98 476.56 361.91 475.63 361.86 474.68 361.82 473.74 361.79 472.79 361.76 471.84 361.75 470.9 361.75 469.98 361.75 469.08 361.77 468.21 361.79 467.37 361.83 466.56 361.87 465.8 361.92 465.09 361.98 464.43 362.05 464.03 362.1 463.48 362.19 463.01 362.28 462.63 362.38 462.35 362.48 462.15 362.58 462.05 362.69 462.04 362.8 462.12 362.91 462.29 363.02 462.54 363.13 462.89 363.23 463.31 363.34 463.83 363.44 464.42 363.54 465.1 363.64 465.86 363.73 466.41 363.78 467.3 363.86 468.25 363.93 469.22 363.99 470.21 364.04 471.21 364.07 472.22 364.1 473.23 364.12 474.23 364.12 475.21 364.11 476.16 364.1 477.08 364.07 477.97 364.03 478.81 363.98 479.59 363.92 480.32 363.86 480.97 363.78 481.37 363.72 481.9 363.63 482.34 363.53 482.68 363.43 482.91 363.32 483.05 363.21 483.09 363.1 483.04 362.99 482.9 362.88"></polygon><path class="cls-41" d="M501.36,363.92l.11-.24,6-.05-.26-.3-.45-.29-6.24-.23-.59-.23-.72-.22,4.55-.31-1.23-.27-1.38-.26-5.71.06-1.24-.19-1.33-.18,2.54-.49-1.92-.2-2-.19-4.4.29-1.65-.12-1.7-.11.34-.58-2.31-.11-2.32-.1-2.59.46L475,360l-1.85,0-1.79-.57h-4.68l-.52.56-1.83,0-1.8,0-3.65-.49-2.09.08-2,.1,1.6.58-1.58.11-1.5.12-5.06-.32-1.56.17-1.45.19,3.6.5-1.08.19-.92.19-5.83-.08-.79.24-.62.25,5.21.33-.27.25-.09.26-5.71.19.2.27.37.28,6.11.09.72.27.93.27-4.55.48,1.24.27,1.41.26,5.94-.23,1.72.24,1.91.23-2.29.71,2.15.21,2.27.18,4.48-.53,2.45.15,2.51.12.65.83,2.67.09,2.68.06,1.89-.76,2.59,0h2.56l3.59.77,2.57-.06L488,367l-1.19-.84,2.14-.11,2-.13,5.7.56,1.9-.18,1.75-.21-3.94-.73,1.26-.21,1.11-.21,6.51.26.87-.27.67-.28-5.69-.51Zm-13.19-.14-.35.1-.66.16-.81.15-.94.13-1.05.12-1.16.1-1.25.09-1.33.07-1.41.05-1.46,0-1.52,0h-3.12l-1.58,0-1.58,0-1.57-.06-1.54-.09-1-.06-1.47-.11-1.39-.13-1.25-.13-1.13-.15-1-.15-.87-.16-.73-.16-.6-.16-.46-.17-.32-.17-.19-.17-.05-.17.09-.16.22-.17.37-.15.5-.15.42-.1.73-.14.86-.13,1-.12,1-.1,1.12-.09,1.18-.07,1.25-.06,1.3,0,1.34,0H472l1.44,0,1.44,0,1.44,0,1.43.07.94,0,1.4.1,1.33.1,1.24.12,1.14.13,1,.14.93.14.82.15.7.16.58.16.46.16.33.17.2.17.06.17-.09.17-.23.17Z"></path><polygon class="cls-42" points="427.18 364.66 427.03 364.59 426.83 364.51 426.59 364.45 426.29 364.38 425.94 364.32 425.56 364.27 425.13 364.22 424.66 364.17 424.14 364.13 423.58 364.09 423 364.06 422.46 364.04 421.9 364.03 421.41 364.02 420.9 364.02 420.27 364.02 419.65 364.03 419.04 364.04 418.46 364.06 417.9 364.09 417.37 364.13 416.86 364.17 416.39 364.21 415.95 364.26 415.55 364.31 415.19 364.37 414.87 364.44 414.6 364.5 414.39 364.57 414.22 364.64 414.14 364.69 414.08 364.77 414.07 364.85 414.13 364.93 414.25 365 414.43 365.07 414.66 365.14 414.94 365.21 415.28 365.27 415.66 365.33 416.09 365.38 416.56 365.43 417.09 365.48 417.66 365.52 418.26 365.55 418.82 365.57 419.4 365.59 419.91 365.6 420.44 365.6 421.1 365.6 421.75 365.59 422.37 365.57 422.98 365.55 423.55 365.52 424.1 365.48 424.62 365.44 425.09 365.39 425.53 365.34 425.93 365.28 426.28 365.22 426.58 365.16 426.84 365.09 427.04 365.02 427.18 364.94 427.24 364.89 427.28 364.81 427.26 364.74 427.18 364.66"></polygon><path class="cls-39" d="M438.85,365l0-.15-.09-.17-.2-.17,4-.25-2.1-.64-4.48.1-.89-.15-1.06-.15-.65-.08-.75-.08,1.6-.47-4.78-.32-2.78.38-1.45-.05-1.49,0-1,0h-1l-1.22-.46-5.43.09-.12.49-1.47.07L412,363l-.91.07-.87.07-3.43-.27-3.95.48,2.56.39-.82.16-.7.18-.4.13-.34.12-4.3.07-.6.69,4.32.1.26.19.43.2.36.12.49.14-3.27.41,3.49.59,4.17-.29.51.05,1.39.13,1.39.1,1.58.09-.39.6,6.11.16,1.71-.58,1.76,0,1.71,0,1.12,0,1.08,0,2.93.48,5.39-.38-1.81-.57,1.17-.15,1.06-.15.64-.11.59-.12,4.67.14,1.88-.69-4.25-.29Zm-8.71.05-.22.11-.31.1-.39.1-.47.09-.53.09-.6.08-.66.08-.72.07-.78.06-.82.05-.86,0-.9,0-.94,0h-2.52l-.87,0-.85,0-.81,0-.88,0-.73-.06-.68-.05-.68-.08-.63-.08-.55-.08-.49-.1-.41-.09-.33-.1-.26-.11-.16-.11-.08-.11,0-.12.1-.11.2-.11.27-.1.35-.1.42-.1.49-.09.55-.08.6-.08.66-.06.71-.07.75-.05.79-.05.82,0,.86,0,.88,0h3.2l.81,0,.77,0,.84,0,.7,0,.67.05.67.07.63.07.57.08.5.09.44.09.38.1.29.1.22.11.13.11,0,.11,0,.12Z"></path><path class="cls-11" d="M367.15,371.28A102.53,102.53,0,0,0,355,373.46a7.37,7.37,0,0,0-2.37.88c-.34.22-.65.5-1,.74-.63.42-.21.1-.92.35-2.37.85-5.37,2.62-9.26,2.37,1.66.62,4,3.1,5.62,3.86,2.23,1.06,4.79,1,7.26,1.09a2.1,2.1,0,0,1,1.87,1c1.84-2.55,3.57-3,5.65-4s4.25-1.88,6.33-2.91a1.21,1.21,0,0,0,.67-.58,1.24,1.24,0,0,0-.13-.88,32.54,32.54,0,0,0-2.11-4.06l-.45,0Z"></path><path class="cls-6" d="M367.44,377.18c2.37-1,11.15-5.34,13.76-6.42-.31-.91-1.14-1.31-1.94-1.83a10.45,10.45,0,0,0-2.65-1.1,33.26,33.26,0,0,0-4.73-1,5.6,5.6,0,0,0-3.42.27,4.14,4.14,0,0,0-1.69,1.89,7.66,7.66,0,0,0-.67,2.08c-.09.65.42,1,.76,1.54A6.91,6.91,0,0,1,367.44,377.18Z"></path><path class="cls-43" d="M369.92,363.84a7.87,7.87,0,0,0-3.27-.62c-1.19.08-.85-.11-2,.32a38.56,38.56,0,0,1-6.39,1.51,54.09,54.09,0,0,1-11.37.39,44.44,44.44,0,0,1-5.22-1c-.61-.14-1.23-.26-1.84-.39-.34-.07-1.64-.44-1.95-.46a.65.65,0,0,0-.45.13.66.66,0,0,0-.21.38,5.06,5.06,0,0,0,.18,2,15.17,15.17,0,0,0,.51,2,8.39,8.39,0,0,0,2.69,4c2,1.53,4.27,1.42,6.57,2.44.75.33,1.92,1.27,2.73,1.37,1,.13,2-.73,3-1.07,2.27-.8,6.72-1.22,9.11-1.45s5.88-.26,8.32-.58,3.61-1.18,5.45-2.82a2.4,2.4,0,0,0,.92-1.47c.08-1-.92-1.76-1.8-2.27A29.37,29.37,0,0,0,369.92,363.84Z"></path><path class="cls-6" d="M367.75,362.11c12.3-2,27.18-9.19,40-10.82,0-2.86,7.93-6,9.14-9.3.7-1.9-3.19-.52-3.22-2.16,0-.53-3.05.19-3.23.27-1.3.6-4.34-.47-9.93,1.36-1.31.43-3,.49-4.17,1.14a9.62,9.62,0,0,0-1.43.91,13,13,0,0,1-1.8,1L391,345.6l-1.22.64c-2.14,1.13-4.27,2.29-6.29,3.62s-3.75,3-5.69,4.41C375.16,356.21,370.25,360,367.75,362.11Z"></path><path class="cls-10" d="M376.79,358.64c1.08-.46,2.14-.94,3.17-1.48a7.88,7.88,0,0,0,1.72-1.19c.46-.43.76-1,1.24-1.39a9.38,9.38,0,0,1,3.89-1.7,7.56,7.56,0,0,0,2.32-.6c.66-.37,11.14-4.18,13.26-4.5,4.31-.65,7.87-1,12.18-1.7a25.55,25.55,0,0,0,7.08-1.77c1.71-.79,3.24-1.94,5-2.66,3.36-1.4,7.88.29,9.85,3.36a8,8,0,0,1,1,3.42,14.27,14.27,0,0,1,0,4.88,49.43,49.43,0,0,1-1.37,5.08,13.88,13.88,0,0,1-1.84,3.72,9.71,9.71,0,0,1-7.35,3.83,62.89,62.89,0,0,1-7.64.3c-2.68-.06-5.54-.66-8.2-.95-1.46-.15-2.92-.11-4.36-.39a10.62,10.62,0,0,0-3.12-.32,14.41,14.41,0,0,0-2.52.5,12.4,12.4,0,0,1-5.49.28,6.07,6.07,0,0,0-2.72.7c-.89.36-1.71.84-2.58,1.22a73.71,73.71,0,0,1-8.63,3.66,39.22,39.22,0,0,1-4.77,1.1c-.4.06-5.86,1-8.1,1,.62-1,1.71-6.48-1.31-8.59a4,4,0,0,0-2.73-1c2.47-1.42,5.52-2.26,8.15-3.31C374.15,359.71,375.48,359.2,376.79,358.64Z"></path><path class="cls-44" d="M374.09,348.66l27.32,2.57a1.63,1.63,0,0,0,.79-.12,2,2,0,0,0,.41-.37l16.16-1.82v-.81l-17.47-1.65-5.92-16.58-.32-.91s-.5-1.56-.89-1.81a2.77,2.77,0,0,0-1.38-.46c-.79-.07-1.92-.1-1.92-.1l-24.07-.46a4.24,4.24,0,0,0-.61,0,.91.91,0,0,0-.72.45,1.57,1.57,0,0,0,0,1.08,8.7,8.7,0,0,0,.48,1.32Z"></path><polygon class="cls-45" points="402.42 349.58 412.49 348.69 401.86 348.2 402.42 349.58"></polygon><polygon class="cls-46" points="402.42 349.58 418.77 348.11 418.77 348.92 402.82 350.72 402.42 349.58"></polygon><path class="cls-47" d="M398.75,306.89a37.32,37.32,0,0,0,.31,12.78,60,60,0,0,1,7.91-1c.24-5.63-.63-11.24-1.49-16.81a2,2,0,0,0-.41-1.09c-.61-.61-1.57-.17-2.3-.15-.4,0,0-.22-.34-.07a5.28,5.28,0,0,0-1.73,1.11A13.63,13.63,0,0,0,398.75,306.89Z"></path><path class="cls-11" d="M400,330.34a5.1,5.1,0,0,1-.08,1.46,7.53,7.53,0,0,1-.7,1.53,19.14,19.14,0,0,0-1.39,4.11,3.57,3.57,0,0,0,.19,2.81l1.58,4.08a15.35,15.35,0,0,0,4.43-4.25,8.77,8.77,0,0,0,1.45-4,58.93,58.93,0,0,0,.36-10.62c0-.47-.79-.45-1-.85a2.69,2.69,0,0,0-2.29-.94c-.42,0-.83,0-1.24,0s-1-1.09-1.26-1c-.53.13-.82-.22-.79.2C399.34,324.71,399.9,328.49,400,330.34Z"></path><path class="cls-48" d="M440.86,324.34c-.05,5-3,.31-2.89,1.58.25,2.93-1.19,12.31-.75,21-1-1.13-5.26-2.94-9.54-3.35-1.77-.18-2.05,0-4.63-.13-.95-.06-3.05-.48-7.43-1a55.42,55.42,0,0,1-10.24-1.93c-.16-.87-.29-1.33-.42-2.08-.6-3.36-.78-3.8-1.2-6.27a18.56,18.56,0,0,0-1-4.67c-1.17-2.5-1.83-1.7-3.54-3.81-2.12-2.61-1.81-6.39-1.38-8.2s.83-3.41,1.28-5.22c.53-2.16-.45-1.3-.09-3.48a25,25,0,0,1,1.1-4.09,4.18,4.18,0,0,1,.65-1.17,11.8,11.8,0,0,1,3.09-1.94c.91-.3,5.37-2.38,6.3-2.58,3.43-.77,3.33.76,6.81.33a54.87,54.87,0,0,1,12.68-.12,15.72,15.72,0,0,1,2.36.4,3.32,3.32,0,0,1,1.93,1c.21.29.32.64.5.94a18.69,18.69,0,0,1,4.08,7.74A77.83,77.83,0,0,1,440.86,324.34Z"></path><path class="cls-49" d="M433.55,332.29l-1.37-7.05a102.75,102.75,0,0,1-1.32-12.72c0-.54.41,9-4.82,12.76a8.59,8.59,0,0,1,4.56,3.44,11.2,11.2,0,0,1,.92,3.08,10.06,10.06,0,0,1-.26,3C432,336,433.55,332.29,433.55,332.29Z"></path><path class="cls-50" d="M409.81,301.48a2.8,2.8,0,0,0,2.86,1.33,7.06,7.06,0,0,0,3.27-1.38,20.41,20.41,0,0,0,6.19-7c-.77-.1-1.37.28-1.83-.35-1.81-2.5-2-5.78-2.68-8.79a3,3,0,0,0-1-1.82,3,3,0,0,0-1.83-.35,51.38,51.38,0,0,0-5.94.52,1.9,1.9,0,0,0-1.28.55,1.83,1.83,0,0,0-.28.87,19.82,19.82,0,0,0,.5,7.15c.27,1.17.61,2.32,1,3.46a17.83,17.83,0,0,1,.77,2.45C409.74,299.25,409.34,300.42,409.81,301.48Z"></path><path class="cls-43" d="M401.85,278c-1.26.29-2.54,2.44-3,3.65a3.66,3.66,0,0,0-.2,1.35,3.49,3.49,0,0,0,0,.65,4.06,4.06,0,0,0,.19.59c.35,1,0,2,.35,2.84.21.47.7.6.88,1.08a6.44,6.44,0,0,1,.31,2.23,4.4,4.4,0,0,0,1,2.79,8.68,8.68,0,0,0,1.23,1,8,8,0,0,1,1.19,1.13,10.39,10.39,0,0,1,1.57,2.46c.41.82.73,1.51,1.69,1.75a4,4,0,0,0,2.86-.69l1-.62a14.34,14.34,0,0,0,4.64-5,4.62,4.62,0,0,0,.56-1.41,5.47,5.47,0,0,0,0-1.34,12.39,12.39,0,0,1,0-2.11c0-.34.08-.68.14-1s0-.53.08-.79a8.11,8.11,0,0,0,.1-3.53,4.08,4.08,0,0,0-2-2.21,10,10,0,0,0-2.9-.9c-1.7-.33-3.61-1.18-5.34-1.28C404.75,278.5,403.34,277.6,401.85,278Z"></path><path class="cls-10" d="M399.12,281.51a2.72,2.72,0,0,0-.25,1.48c.05.77.17,1.59.19,2.36-.24-.37-.4-.82-.62-1.2a6.28,6.28,0,0,1-.55-1.1,8.19,8.19,0,0,1-.46-2.25,8.89,8.89,0,0,1,.92-4.47,2.39,2.39,0,0,1,.12-.22,13.57,13.57,0,0,1,5.09-5,13.32,13.32,0,0,1,4.83-1.89,8.38,8.38,0,0,1,6.63,1.66l.13.11a14.79,14.79,0,0,1,2.6,3.37c.87,1.4,1.79,2.76,2.52,4.24a36.86,36.86,0,0,1,3.17,9.35,30.65,30.65,0,0,0,1.41,4.32,5.43,5.43,0,0,0,1.53,1.8c1.36,1,3.17,1,4.71,1.68a6.06,6.06,0,0,1,2.2,1.61,3.51,3.51,0,0,1,1.2,2.21,8.06,8.06,0,0,0-4.94-2.47,24.11,24.11,0,0,0-5.63,0c-2,.17-4.22.28-5.77-1a6.17,6.17,0,0,1-1.85-3.52c-.28-1.32-.37-2.68-.75-4A10.74,10.74,0,0,0,411,282.9a16,16,0,0,0-5.15-2.08c-.61-.14-1.23-.21-1.85-.3s-1.61-.22-1.9-1a1.56,1.56,0,0,1,.08-1.2,9.66,9.66,0,0,0-.72,1.19,1.56,1.56,0,0,1-.77.83,3.52,3.52,0,0,0-1.17.64A1.81,1.81,0,0,0,399.12,281.51Z"></path><path class="cls-43" d="M401.75,342.72s-.31-.34-.35-.39a1.41,1.41,0,0,1-.2-.68.61.61,0,0,1,.44-.62,1.09,1.09,0,0,1,.47.09,12.07,12.07,0,0,0,3.57.68,15.25,15.25,0,0,1,1.66.07c.63.1,1.27.12,1.9.22.79.14,1.46.51,2.23.72a5.44,5.44,0,0,0,2,.13,13,13,0,0,0,2.86-.75,43.49,43.49,0,0,0,7.5-3.28c.71-.41,1.4-.85,2.06-1.32s1.44-.89,2.15-1.34c1.05-.67,2.08-1.36,3.11-2.05.43-.3.83-.61,1.24-.92a4.42,4.42,0,0,0,.91-.79,5.7,5.7,0,0,0-.05-1.12c0-.43-1.07-4.88-1.08-6.13a18.06,18.06,0,0,0,8.68-.9c.1,1.06,0,4.42,0,5.18a52.26,52.26,0,0,1-.25,6.26,3.94,3.94,0,0,1-.42,1.64,3.73,3.73,0,0,1-1.65,1.3c-.79.39-1.6.74-2.39,1.13s-1.74.89-2.42,1.28a43.2,43.2,0,0,1-4.94,2.39,52.16,52.16,0,0,1-6,2.13,22.64,22.64,0,0,0-4.61,1.52,8,8,0,0,1-1.6.73c-.76,0-.93-.07-1.55-.14a3.1,3.1,0,0,1-1.73-.11,13.46,13.46,0,0,0-1.57-.67,2.76,2.76,0,0,0-1.53.11,7.41,7.41,0,0,0-1.39.67,3.77,3.77,0,0,1-.76.36,1.19,1.19,0,0,1-.83,0,.71.71,0,0,1-.41-.68c0-.4.46-.63.76-.84a12.37,12.37,0,0,1,1.24-.79,6.91,6.91,0,0,1-1.63.38,5,5,0,0,0-1.12.31c-.42.1-.86.15-1.28.27a3.75,3.75,0,0,1-1.37.22,1.2,1.2,0,0,0-.82.09,1.87,1.87,0,0,1-.9.34c-.15-.47-.39-.93-.56-1.4a.39.39,0,0,1,0-.26.35.35,0,0,1,.19-.15l3.17-1.46a6.45,6.45,0,0,0-1.9.3,7.6,7.6,0,0,0-.94.36c-.09,0-.85.4-.83.47a8.11,8.11,0,0,0-.64-1.85Z"></path><path class="cls-5" d="M365.47,326.6a.91.91,0,0,1,.72-.45,4.24,4.24,0,0,1,.61,0l24.07.46s1.13,0,1.92.1a2.77,2.77,0,0,1,1.38.46c.39.25.89,1.81.89,1.81l.32.91,5.92,16.58h0l1.52,4.26s-.47.32-.62.39a1.63,1.63,0,0,1-.79.12l-27.32-2.57L365.94,329a8.7,8.7,0,0,1-.48-1.32A1.57,1.57,0,0,1,365.47,326.6Z"></path><path class="cls-5" d="M337,358.76a36.07,36.07,0,0,1,4.58,3.71c2.41,2.2,5.77,2.61,6.65,2.88A2.17,2.17,0,0,1,349.9,367a5.24,5.24,0,0,1-.47,3.17,6.66,6.66,0,0,0,1.34,6.39c-4.89.9-10.46-.22-14-3.75a15.51,15.51,0,0,1-3.47-6.78,34,34,0,0,1-.38-5.81c0-.76-.11-1.35.22-1.46a3.53,3.53,0,0,1,1.53-.44A4.89,4.89,0,0,1,337,358.76Z"></path><path class="cls-9" d="M337.27,371c-1.88-2.75-3.08-8.94-2.57-12.75a3.5,3.5,0,0,0-1,.1,1.05,1.05,0,0,0-.84.62,5,5,0,0,0-.16,1.33c0,.52,0,1,0,1.56.06,1,.15,2.08.31,3.11a6.48,6.48,0,0,0,.18,1c.72,2.47,1.72,5.2,3.53,7a12.17,12.17,0,0,0,3.21,2.07C338.52,373.43,338.52,372.87,337.27,371Z"></path><path class="cls-5" d="M344,373.88c-2-1.22-2.75-2.1-4.93-3a4.69,4.69,0,0,0-3.8,0,4.49,4.49,0,0,0-2,2.22c-.73,3.26,2.7,6.94,3.65,7.91a116.58,116.58,0,0,0,12.3,11.13,4.69,4.69,0,0,0,4.27,1,7.54,7.54,0,0,0,1.58-2.84c.42-1.35.7-5.14,1.29-6.65-.08.09-1.55-.78-3.39-3.4-.74-1-2.1-3.81-2.33-4.22A20.28,20.28,0,0,1,344,373.88Z"></path><path class="cls-9" d="M351.79,387.09a39.82,39.82,0,0,1-5.63-5.76c-2.9-3.66-4.69-8.42-9.16-10.42a2.46,2.46,0,0,0-1.78-.11,4.49,4.49,0,0,0-2,2.22c-.73,3.26,2.31,6.68,3.26,7.65a122.59,122.59,0,0,0,12.69,11.39,4.69,4.69,0,0,0,4.27,1,6.33,6.33,0,0,0,1.32-2.14A10.5,10.5,0,0,0,351.79,387.09Z"></path><path class="cls-51" d="M352.77,390.89a21.94,21.94,0,0,0-3.24-3.22,42.7,42.7,0,0,1-4.15-4.3c-1.48-1.88-2-3-3.37-5-1.06-1.53-5.31-6.9-7.78-6.56-.62.09-.83.83-1,1.22a8.87,8.87,0,0,0,1,5.74,14.47,14.47,0,0,0,4.48,5c5.55,4.51,5.94,5.11,10.47,8.4a5.67,5.67,0,0,0,3.08,1.11c1.12,0,1.29-.47,1.3-.61A2.84,2.84,0,0,0,352.77,390.89Z"></path><path class="cls-11" d="M156.23,344.9c2,0,3.42-.2,5.39-.36a.91.91,0,0,0,.62-.22c.16-.2,0-.51.07-.74a5.74,5.74,0,0,0,.14-2.78,53,53,0,0,1,.56-11.61c-1.49-.18-2.75-.1-4.24-.28-.55-.06-1.8-1.91-1.83-1.29-.34,7.08-1.12,9.4-1.14,12.33A24.9,24.9,0,0,0,156.23,344.9Z"></path><path class="cls-5" d="M156.82,342.49a7.14,7.14,0,0,0,1.2-.26,4.71,4.71,0,0,1,2.89.29,2.87,2.87,0,0,0,1,.18c.32,0,.77-.32.67-.62a1.65,1.65,0,0,1,.22,1.18,13.47,13.47,0,0,0,.76,4.75c.35,1,.81,1.94,1.16,2.93a6.69,6.69,0,0,1,.24,3.11,3.41,3.41,0,0,1-1.63,2.57,5.15,5.15,0,0,1-1.91.46,35,35,0,0,1-4.46-.05,3.34,3.34,0,0,1-1.37-.25,2.39,2.39,0,0,1-1.14-1.5,6.45,6.45,0,0,1,.12-3.74,19,19,0,0,0,.93-3.82c.07-1,0-2.05-.06-3.09a5,5,0,0,1,.45-2.78A1,1,0,0,0,156.82,342.49Z"></path><path class="cls-9" d="M164.42,354.25c-.9,1-2.24,1.12-3.64,1.14-.86,0-2.26,0-3.11,0a6.08,6.08,0,0,1-2-.28c-1.14-.46-1.21-1.22-1.39-2.21a5.53,5.53,0,0,0,.16,2.42,2.39,2.39,0,0,0,1.14,1.5,3.7,3.7,0,0,0,1.44.29,28,28,0,0,0,4.39,0,5.15,5.15,0,0,0,1.91-.46,3.41,3.41,0,0,0,1.63-2.57,7.8,7.8,0,0,0,.06-1.6A3.13,3.13,0,0,1,164.42,354.25Z"></path><path class="cls-6" d="M156.6,314c0,.12,0,.24,0,.35l-.87,11.89c-.05.68-.14,1.78-.14,1.78.77,1.06,2.64,1.61,4.35,1.78,3.5.33,4.69-.1,4.82-.6.45-1.75,1.32-6.77,2.06-11.3C163.38,316.7,160,315.39,156.6,314Z"></path><path class="cls-10" d="M152.23,303.6c.54,2.59,3.09,4.26,3.83,6.82a14.12,14.12,0,0,1,.51,2.62l.85.41a52.71,52.71,0,0,1,6.21,3.74,28.78,28.78,0,0,1,2.92,2.31c.39-2.36.76-4.7,1-6.52.7-4.48,1.16-9,2.17-13.39,2.83-12.31,7.81-24.49,7.14-37.34a23.23,23.23,0,0,0-1.38-7.24,8.64,8.64,0,0,0-1.51-2.88c-.75-.75-2.15-.25-3.22-.17-2.55.21-5.11.32-7.66.34-1.28,0-15.23-.41-15.19-1a182.83,182.83,0,0,0,0,22,187.33,187.33,0,0,0,2.41,20.59C150.93,297.1,151.55,300.39,152.23,303.6Z"></path><path class="cls-52" d="M167.31,258.85c1.41.14,5.76,0,7-.58s1.49-1.34,1.35-2.75c0,.36-10.14,1-11.07,1.06l-1.58,0c-.32,0-1.1-.13-1.32.12C163.72,258.41,164.79,258.59,167.31,258.85Z"></path><path class="cls-6" d="M166.25,266c-.65.78-1,2.23-3.29,3.89-.47.33-1.54,1.34-1.85,4-.52,7.28-1.46,26.7-1.46,28.38.81.84,2.19,1.67,3.51,2.74,2.27,1.83,4,6.39,4.29,9.29.36,3.62-.65,7.18-2,8.54-1.91-2.52-6.24-2.29-7.83-5-.73-1.25-.65-2.77-.73-4.21-.21-3.52-1.46-6.89-2.46-10.27-3.45-11.7.91-22.12,3.58-34C160,269.12,162.54,268.22,166.25,266Z"></path><path class="cls-5" d="M173.68,329.63c1.71.6,2.94,1,3.54,1.71a5.77,5.77,0,0,1,.9,4.68c-.28,1.65-1,3-1.37,4.61a20.45,20.45,0,0,0-.13,4.84,45.46,45.46,0,0,1-.27,4.88,8.73,8.73,0,0,1-1.73,4.65,4.26,4.26,0,0,1-4.68,1.42,3.88,3.88,0,0,1-2-1.89c-1.24-2.36-1.27-5.42-1.07-8.09s.84-3.54.75-7.92c0-1.86-.34-1.68.69-5.52a5.88,5.88,0,0,1,2.16-3.61c.52-.34.75-.82,1.36-.6S172.89,329.36,173.68,329.63Z"></path><path class="cls-9" d="M177.14,337.88a16.34,16.34,0,0,0-.63,3.26c-.11,1.3-.06,2.6,0,3.9a19.15,19.15,0,0,1-.48,5.4,7.39,7.39,0,0,1-3.14,4.47,4,4,0,0,1-5-.61,3.82,3.82,0,0,0,2.25,2.2,4.6,4.6,0,0,0,4.64-1.38,8,8,0,0,0,2.06-4.64,34.51,34.51,0,0,0,0-5.66,14.84,14.84,0,0,1,.4-4.6c.37-1.54,1.25-2.79,1.41-4.36a7.74,7.74,0,0,0-.22-3.28A2.63,2.63,0,0,0,176.9,331c.43.35.67,1.45.74,2.84A18.57,18.57,0,0,1,177.14,337.88Z"></path><path class="cls-11" d="M166.27,322.45c.81-.37,1.46-3.51,1.76-4.35.93,2.49,2,7.81,3.67,10.49.46.74,1.32,1.58,1.77,2.34a6,6,0,0,1,.44,4.22c-.21,1-1.07,2-1.93,2-1-.05-2-.74-4.06,0a2.78,2.78,0,0,0,.07-1.74,56.28,56.28,0,0,0-2.63-5.06c-.59-1.1-1.22-2.18-1.9-3.23-.34-.52-.72-1-1.05-1.55s.06-.73.66-.9C164.49,324.26,164.93,323.07,166.27,322.45Z"></path><path class="cls-10" d="M170,321.24c-.64-1.67-4.07-11.65-6.34-14.12-2.43-2.63-4.14-3.11-5.22-4-.5-1.79-.1-7.55-.12-9.75,0-2.41-.07-4.81-.1-7.22q-.1-8-.2-16-.06-4-.1-8c0-2.6-.25-5.26-.11-7.85,0,0-7.83-.63-8.54-.72-1.42-.16-2.84-.35-4.26-.55-.79-.12-2.59-.82-3.17-.07a5.66,5.66,0,0,0-.49,1.94c-.15.67-.29,1.34-.41,2-.25,1.38-.45,2.76-.61,4.15a69.85,69.85,0,0,0-.39,8.31,82.11,82.11,0,0,0,1.6,13.24c.79,4.57,1.66,9.13,2.73,13.64a41.66,41.66,0,0,0,4.46,12.2c3.27,5.39,9.53,10.64,12.14,17.52.89.48,2.74.22,3.71-.07a9,9,0,0,0,4.84-3.37C170.16,321.4,170,321.24,170,321.24Z"></path><path class="cls-10" d="M137.22,226.42a.58.58,0,0,1,.15.6.61.61,0,0,1-.47.42l-4.25.7a.61.61,0,0,1-.51-.16l-11.46-10.9a.61.61,0,0,1-.16-.6.6.6,0,0,1,.46-.42l4.25-.87a.62.62,0,0,1,.54.15Z"></path><path class="cls-11" d="M147.14,228.49a27.57,27.57,0,0,1-3-.21c-1.7-.14-3.32-.54-5-.67a10.57,10.57,0,0,1,0,2.45c0,.19-.25,1.71,0,1.83-1.38-.83-3.37-2-4.15-3.49a4.94,4.94,0,0,0-.3-.49v0a7.38,7.38,0,0,0-1-1.28,1.26,1.26,0,0,1-.21-.49,1.1,1.1,0,0,1,.05-.47,6,6,0,0,1,.49-1,7.77,7.77,0,0,0,.63-1.17c.1-.28.4-.9,0-1.16s-.71,0-.94.27l-.18.22c-.25.36-.65.91-1,1.33a8.44,8.44,0,0,0-1,1.37,1.26,1.26,0,0,0,.1-.33,2.89,2.89,0,0,1,.08-.5,4.81,4.81,0,0,1,.32-.82,5.39,5.39,0,0,1,.73-1.1,11.34,11.34,0,0,0,1-1.31.88.88,0,0,0,.09-.67.71.71,0,0,0-1-.18,17,17,0,0,0-2.29,2.11,12,12,0,0,0-1.16,1.74s0,0,0,0a0,0,0,0,1,0,0,1.19,1.19,0,0,1,.23-.77,9.68,9.68,0,0,1,1.37-2.15c.31-.34.77-.68,1.06-1.05a1.45,1.45,0,0,0,.48-1.11.62.62,0,0,0-.5-.5c-.4-.06-1.11.44-1.74,1a13.31,13.31,0,0,0-2.44,2.25,10.46,10.46,0,0,1,1.18-2.79,2.92,2.92,0,0,0,.3-.86.56.56,0,0,0-.2-.6c-.51-.31-.84.19-.93.32-.44.65-.81,1.3-1.24,1.93a3.12,3.12,0,0,0-.79,1.54,10.45,10.45,0,0,0-.09,2.55c.12.35.48.54.62.87s.13.54.24.8a3.94,3.94,0,0,0,1,1.31,17.66,17.66,0,0,1,1.57,1.55,9.66,9.66,0,0,1,1.63,2.38,3.14,3.14,0,0,1,.18.37c.79,1.68,1,2.14,1.75,3.64,2.46,4.7,4.8,6.11,5.39,6.43a7.72,7.72,0,0,0,2.9.78c1.06,0,4.16-2.29,4.68-3.07s.29-1,.3-1.87.27-1.89.36-2.81C146.81,232.56,146.84,230.51,147.14,228.49Z"></path><path class="cls-53" d="M147.73,230.55a.25.25,0,0,0-.21-.06l-1.91,0c-.21,0-1.21-.16-1.18,0,.72,3.77,1.14,9.27.29,9.89.09-.09,1.15-.81,1.22-.89.54-.61.27-.8.53-1.57a28,28,0,0,0,1.29-7.27A.23.23,0,0,0,147.73,230.55Z"></path><path class="cls-54" d="M154.8,204.48c-2.52.25-9.54.5-11.56,3.33a15.67,15.67,0,0,0-2.3,5.42,131.09,131.09,0,0,0-2,15.16c.64.86,3.25,2,7,2.36.49,6.64-.31,7.23-1.53,13a25.16,25.16,0,0,1-2.27,6.24,10.15,10.15,0,0,0-.86,3.08c0,.33,1.27,1.36,1.9,1.62a33,33,0,0,0,5,1.54,60.66,60.66,0,0,0,16.08,1.19,67.62,67.62,0,0,0,7.37-.74c.83-.14,1.66-.29,2.48-.47s2.65-.84,2.66-1.32a11.72,11.72,0,0,0-1.13-5.22,15.28,15.28,0,0,1-1.09-2.49,27,27,0,0,1-1-5.86,29.5,29.5,0,0,1,0-4.41c.05-.69.09-1.44.21-2.12s.61-2.86.82-3.49a46.76,46.76,0,0,0,1.85-6.84,44.21,44.21,0,0,0,1.17,4.73c.52,1.88,1.09,3.74,1.69,5.59,5.15.69,9-2.65,9.08-3.14a111.57,111.57,0,0,0-3.81-15.78,13.51,13.51,0,0,0-2.29-5c-1.79-2.13-7-4-9.66-4.76-3.35-.87-4.36-.59-7.76-1.21A48.43,48.43,0,0,0,154.8,204.48Z"></path><path class="cls-55" d="M147.14,216.56c-1.12,4.17-3.21,7.1-2.71,14,.43.06,1.22.18,1.51.18C144.78,221.41,147.15,218.78,147.14,216.56Z"></path><path class="cls-11" d="M189.94,240c-.09-.62-.64-3.17-.49-2.57.05.22-.7-2.9-.92-3.79-.07-.26-.09-.48-.32-1.73-1.19,1.4-4.17,2.48-4.7,2.62a11.94,11.94,0,0,1-3.88.33c.55,1.79,1,2.91,1.22,3.63a4.54,4.54,0,0,1,.38,1.64s-2.33,1.74-3.21,2.42c-1.26,1-4,3.37-6.09,4.93A33,33,0,0,0,168,251c-1.43,1.55-1.82,4.17-2.15,5.23a12.08,12.08,0,0,0-.52,2.31,8.2,8.2,0,0,0-.08,1.21.68.68,0,0,0,.62.56h.17a1.22,1.22,0,0,0,.84-.54,6.31,6.31,0,0,0,.49-1.23l-.09.28a16.53,16.53,0,0,0,7-.59,1.93,1.93,0,0,0,.38-.74,6.91,6.91,0,0,0,.22-1.1c.29-1.52.42-2.32.62-3.85a2.52,2.52,0,0,1,.25-.94c.43-.74,5.18-3,6.18-3.56a25.73,25.73,0,0,0,6.28-4.66C189.23,242.39,190.14,241.23,189.94,240Z"></path><path class="cls-11" d="M161.76,213c1.73.16,5.8-1,8.13-6.38.28-.65-.2-1.61-.44-2.19-1-2.58-2.88-4.79-3.7-7.46a7,7,0,0,1-.2-.79c-.15-.78-7.77,2.27-8.36,3.07a4.16,4.16,0,0,0-.53,3.42c.42,1-.16.38-.27,1.48C155.55,212.36,161.13,212.89,161.76,213Z"></path><path class="cls-10" d="M155.65,177.36c1.37-.42,4-2,8.19-.39,3.18,1.25,7.09,4.23,8.48,12.22.35,2,.39,4.06.7,6.07.64,4.11,2.38,7.93,3.93,11.75a36.94,36.94,0,0,1,2.17,7c.47,2.48,1.21,4.91,1.65,7.4a1.27,1.27,0,0,1-.13,1c-.31.36-.9.25-1.33,0-.87-.43-1.57-1.84-2.58-1.31-.28.15-.52.36-.79.52a2.44,2.44,0,0,1-2.06.15c-1.3-.5-1.66-2.09-2.19-3.24-.12-.26-.27-.54-.55-.6-.78-.16-1.41.56-2-.43a2.44,2.44,0,0,1-.32-1.24,29.31,29.31,0,0,1,.51-4.45,8.52,8.52,0,0,0-1.4-5.72c-.67-1-2-2.07-2.37-3.2s.26-4.88-1.71-7.14a19.26,19.26,0,0,1-2.68-4.77c-.73-1.6-1.36-3.43-2.8-4.52a7.12,7.12,0,0,0-4.44-1.63,3.67,3.67,0,0,0-3.33,1.51c-.21.27-1.15.16-1.21.49a2.61,2.61,0,0,0,.1,1.11,19.55,19.55,0,0,0,2.36,5.57,17.33,17.33,0,0,0,1.73,2.26,6.79,6.79,0,0,1,1.13,2.58,9.28,9.28,0,0,0,1.75,3.51,9.13,9.13,0,0,1,2.19,2.8,3.57,3.57,0,0,1-.88,3.68,5.72,5.72,0,0,0-2.31,3.28,9.34,9.34,0,0,1-.37,1.88c-.3.71-1.28-.05-1.5.22a7.89,7.89,0,0,0,.57,2.6c.49.79-1.71.93-2.62.41a5.43,5.43,0,0,0-.85-.39c-.66-.23-.65.37-.67.58,0,.77-2.56-.22-3.72-2.57-.83-1.68-1.29-3.37-.54-5.13s3-2.19,4.57-3a1.37,1.37,0,0,0,.7-.66c.16-.48-.22-.95-.57-1.31-4.11-4.3-4.15-7.66-3.86-14a14.76,14.76,0,0,1,1.54-7.54C149.53,180.19,152.83,177.06,155.65,177.36Z"></path><path class="cls-13" d="M151.21,185.39a1.91,1.91,0,0,0-1,0c-1.19.51-1.13,2.29-1.14,3,0,.9,0,1.55,0,2.45a6.29,6.29,0,0,0,.37,2.31,10.08,10.08,0,0,0,.7,1,6.5,6.5,0,0,1,.74,2.87,2.91,2.91,0,0,0,.36,1.16,4.44,4.44,0,0,0,.87,1.06,11.37,11.37,0,0,1,2,1.89c.52.69,1,1.43,1.5,2.12.22.29,1.78,2.65,5.59-.16a29.61,29.61,0,0,0,3.08-2.84,5,5,0,0,0,.94-1.16c0-3.51-2.28-5.3-3.35-7.74-.55-1.27-.7-1.95-1.15-2.9C159.09,185.2,152.83,182.47,151.21,185.39Z"></path></svg>