<svg xmlns="http://www.w3.org/2000/svg" xmlns:xlink="http://www.w3.org/1999/xlink" id="Layer_1" data-name="Layer 1" viewBox="0 0 688.28 425"><defs><style>.cls-1,.cls-12,.cls-13,.cls-14,.cls-15,.cls-16,.cls-17,.cls-18,.cls-19,.cls-2,.cls-22,.cls-23,.cls-25,.cls-26,.cls-28,.cls-3,.cls-35,.cls-36,.cls-38,.cls-39,.cls-4,.cls-40,.cls-41,.cls-42,.cls-5,.cls-6,.cls-7,.cls-8,.cls-9{fill-rule:evenodd;}.cls-1{fill:url(#Gradiente_sem_nome_69);}.cls-2{fill:#0e2d34;}.cls-3{fill:url(#Gradiente_sem_nome_69-2);}.cls-20,.cls-4{fill:#3655b5;}.cls-21,.cls-32,.cls-34,.cls-5{fill:#a1a7ff;}.cls-6{fill:url(#Gradiente_sem_nome_69-3);}.cls-7{fill:url(#Gradiente_sem_nome_69-4);}.cls-8{fill:url(#linear-gradient);}.cls-9{fill:url(#Gradiente_sem_nome_69-5);}.cls-10{fill:#f8b243;}.cls-11{fill:#c48137;}.cls-12{fill:url(#linear-gradient-2);}.cls-13,.cls-27{fill:#b83470;}.cls-14{fill:#00000f;}.cls-15{fill:#f18a00;}.cls-16{fill:#ffc043;}.cls-17{fill:#101537;}.cls-18,.cls-33{fill:#e94d90;}.cls-19{fill:url(#linear-gradient-3);}.cls-22{fill:#9fb2d9;}.cls-23,.cls-31{fill:#c0cdea;}.cls-24{fill:#fff;}.cls-25{fill:url(#linear-gradient-4);}.cls-26{fill:url(#linear-gradient-5);}.cls-28{fill:#f9d2cf;}.cls-29{fill:#1874ba;}.cls-30{fill:#e4e1e8;}.cls-32{font-size:17.25px;}.cls-32,.cls-34{font-family:OpenSans-Extrabold, Open Sans;font-weight:800;}.cls-34{font-size:10.43px;}.cls-35{fill:url(#linear-gradient-6);}.cls-36,.cls-37{fill:#3b405f;}.cls-38{fill:#f08e70;}.cls-39{fill:#f5ac83;}.cls-40{fill:#ee9073;}.cls-41{fill:#545664;}.cls-42{fill:#f8b000;}</style><linearGradient id="Gradiente_sem_nome_69" x1="18.67" y1="223.41" x2="688.28" y2="223.41" gradientUnits="userSpaceOnUse"><stop offset="0.16" stop-color="#e08197"></stop><stop offset="1" stop-color="#e08197" stop-opacity="0"></stop></linearGradient><linearGradient id="Gradiente_sem_nome_69-2" x1="228.2" y1="113.77" x2="341.84" y2="113.77" xlink:href="#Gradiente_sem_nome_69"></linearGradient><linearGradient id="Gradiente_sem_nome_69-3" x1="221.59" y1="75.1" x2="268.36" y2="75.1" xlink:href="#Gradiente_sem_nome_69"></linearGradient><linearGradient id="Gradiente_sem_nome_69-4" x1="210.14" y1="382.76" x2="371.14" y2="382.76" xlink:href="#Gradiente_sem_nome_69"></linearGradient><linearGradient id="linear-gradient" x1="215.86" y1="359.23" x2="357.67" y2="359.23" gradientUnits="userSpaceOnUse"><stop offset="0" stop-color="#c2ceff"></stop><stop offset="1" stop-color="#95aaff"></stop></linearGradient><linearGradient id="Gradiente_sem_nome_69-5" x1="228.72" y1="351.06" x2="351.6" y2="351.06" xlink:href="#Gradiente_sem_nome_69"></linearGradient><linearGradient id="linear-gradient-2" x1="530.13" y1="293.5" x2="580.66" y2="293.5" gradientUnits="userSpaceOnUse"><stop offset="0" stop-color="#ee497b"></stop><stop offset="1" stop-color="#de2263"></stop></linearGradient><linearGradient id="linear-gradient-3" x1="469.54" y1="79.18" x2="547.84" y2="79.18" xlink:href="#linear-gradient-2"></linearGradient><linearGradient id="linear-gradient-4" x1="134.18" y1="171.3" x2="164.91" y2="171.3" xlink:href="#linear-gradient-2"></linearGradient><linearGradient id="linear-gradient-5" x1="92.56" y1="281.9" x2="183.03" y2="281.9" xlink:href="#linear-gradient-2"></linearGradient><linearGradient id="linear-gradient-6" x1="26.64" y1="316.41" x2="65.91" y2="316.41" xlink:href="#linear-gradient"></linearGradient></defs><title>Social Commerce</title><path class="cls-1" d="M570.87,309.29H630a58,58,0,0,1,57.86,57.85h0A58,58,0,0,1,630,425H112.36c-51.53,0-93.69-42.16-93.69-93.69h0c0-51.53,42.16-93.69,93.69-93.69h0A39.72,39.72,0,0,0,152,198h0a39.72,39.72,0,0,0-39.61-39.61H64.68A41.31,41.31,0,0,1,23.5,117.21h0A41.3,41.3,0,0,1,64.68,76H176.14a16.08,16.08,0,0,0,16-16h0a16.07,16.07,0,0,0-16-16H165.51a11.1,11.1,0,0,1-11.06-11.07h0a11.1,11.1,0,0,1,11.06-11.06h42.78c14.69,0,16.33,17.35,53.42,17.35H406.28a14.49,14.49,0,0,1,14.44,14.44h0a14.49,14.49,0,0,1-14.44,14.44H392.41A21,21,0,0,0,371.49,89h0a21,21,0,0,0,20.92,20.92h20.87c56.36,0,64.31,14.73,74.19,44s61.12,31.65,61.12,31.65H580.3a31.62,31.62,0,0,1,31.53,31.53h0a31.62,31.62,0,0,1-31.53,31.53h-9.43A30.42,30.42,0,0,0,540.54,279h0a30.42,30.42,0,0,0,30.33,30.33Zm85.88-60.66a31.53,31.53,0,1,0-31.53-31.53,31.53,31.53,0,0,0,31.53,31.53ZM134.46,44a11.07,11.07,0,1,0-11.07-11.07A11.06,11.06,0,0,0,134.46,44Z"></path><path class="cls-2" d="M270.67,146.8a133.39,133.39,0,0,0,57.17-19.12c30-18.58-30.75-15.5-80.88-2.18l17.88,18.08Z"></path><path class="cls-3" d="M322.78,110.94c-10.29,8.63-36.84,25.47-62.7,43.55l-27.64,8.83-4.24-16.84c20.8-29.18,48-58.7,71-73.17C339.53,47.91,358.91,80.62,322.78,110.94Z"></path><path class="cls-2" d="M232.23,162.49c34.16-47.62,95.33-84.05,95.55-84.19a.85.85,0,0,1,1.21.36,1,1,0,0,1-.37,1.3c-.22.13-60.41,36-94.38,82.79l-1.8.57Z"></path><path class="cls-4" d="M265.62,43.81c-5.5,12.94-14.3,43.57-24.51,75.21a59.91,59.91,0,0,0,21.65,33c21.11-29.25,40-63.16,47.59-90.2C325.13,8.9,286.56-5.45,265.62,43.81Z"></path><path class="cls-5" d="M251.71,141C281.8,91.37,297.37,30.23,297.44,30a1.07,1.07,0,0,0-.69-1.31,1,1,0,0,0-1.23.75c-.06.25-15.46,60.68-45.1,109.82Q251.05,140.13,251.71,141Z"></path><path class="cls-6" d="M268.15,44.41c-.92,13.4-7.23,44.2-12.16,75.37l-12.83,26-15.07-8.64c-6.57-35.23-9-75.29-3.41-101.89C234.41-11.39,271.41-2.63,268.15,44.41Z"></path><path class="cls-2" d="M242.41,145.38c-10.57-57.64,5.66-127,5.72-127.22a.86.86,0,0,1,1.1-.63,1,1,0,0,1,.68,1.18c-.06.25-16,68.46-5.92,125.4l-.83,1.7Z"></path><path class="cls-7" d="M338.86,400C328.42,405.76,307.28,414.62,283,425H210.32l-.18-3c33.53-31.95,75.23-62.77,108-75.53C375.5,324.06,392.11,370.3,338.86,400Z"></path><path class="cls-2" d="M232.88,425c53.46-41.05,120-65.14,120.29-65.24a1.09,1.09,0,0,1,1.45.74,1.3,1.3,0,0,1-.79,1.57c-.27.1-64.51,23.35-117.13,62.93Z"></path><path class="cls-2" d="M364.4,425c-7-9.49-38.08-13.42-83,0h83Z"></path><path class="cls-8" d="M286.47,411.34c11.93-10,24.19-23,32.4-38.54,21.18-40.14,27.77-52.79,38.1-56.18,8.91-2.93-68.2-36.14-141.11,41.83,2.54,17.87,12.35,37.06,37.09,52.89Z"></path><path class="cls-9" d="M346.77,310.3c-41.93,15.35-83.8,47.41-118,79.13.59.81,1.22,1.61,1.86,2.4,35.1-32.54,78.21-65.4,121-79.93C350.21,311.36,348.59,310.81,346.77,310.3Z"></path><path class="cls-4" d="M273.22,244.3c-12.32,12.35-34.42,40.06-59.71,70.94,0,0-25.72,41.25-4.67,79.63,46-29.22,91.51-66.05,117.33-99.69C377.12,228.79,330.79,186.59,273.22,244.3Z"></path><path class="cls-5" d="M201.19,371.55C270.57,318.63,325.8,243.15,326,242.84a1.64,1.64,0,0,0-.23-2.25,1.52,1.52,0,0,0-2.16.36c-.23.32-54.57,74.57-122.83,127.06C200.91,369.19,201,370.37,201.19,371.55Z"></path><path class="cls-4" d="M235,422.76c8.76-10.45,20.24-22.13,33.95-31.64,33.29-23.1,66.38-10.14,69.53,2.36,1.29,5.11.15,17.14-5.72,31.52H238.38C237.23,424.26,236.1,423.51,235,422.76Z"></path><path class="cls-5" d="M259.49,425c3-7.41,8.3-20.11,12.65-27,.37-.59,1-.8,1.34-.48a1.35,1.35,0,0,1,0,1.65c-4.1,6.49-9.17,18.48-12.11,25.83Zm4.09,0h7.64q3.72-2.22,7.61-4.36c1.08.88,2.85,2.35,5,4.36h3.6c-2.53-2.47-4.72-4.38-6.24-5.65a219.63,219.63,0,0,1,28.58-12.82A38.77,38.77,0,0,1,322,417.3c.29.42.88.34,1.31-.19a1.55,1.55,0,0,0,.25-1.71,39.38,39.38,0,0,0-10.64-10,190.1,190.1,0,0,1,20-5.74,3.25,3.25,0,0,0,2.1-2.83c.12-1.32-.62-2.21-1.66-2a204.12,204.12,0,0,0-39.78,13.65,160.27,160.27,0,0,1,14.16-24.05,1.49,1.49,0,0,0,.16-1.7c-.32-.39-.92-.25-1.33.29a169.34,169.34,0,0,0-15.45,26.6A248,248,0,0,0,263.58,425Z"></path><rect class="cls-10" x="544.19" y="369.97" width="53.21" height="55.03"></rect><rect class="cls-11" x="513.39" y="369.97" width="39.91" height="55.03"></rect><rect class="cls-10" x="529.21" y="369.97" width="8.26" height="19.18"></rect><rect class="cls-10" x="529.21" y="395.63" width="8.26" height="8.33"></rect><rect class="cls-10" x="531.15" y="338.21" width="30.71" height="31.76"></rect><rect class="cls-11" x="556.61" y="338.21" width="23.03" height="31.76"></rect><rect class="cls-10" x="565.74" y="338.21" width="4.77" height="11.07"></rect><rect class="cls-10" x="565.74" y="353.02" width="4.77" height="4.81"></rect><path class="cls-12" d="M555.39,257.21A25.27,25.27,0,0,1,577,295.58l-20.38,33.53a1.44,1.44,0,0,1-2.45,0l-20.38-33.53a25.27,25.27,0,0,1,21.6-38.37Zm0,14.23a9.64,9.64,0,1,0,9.64,9.64A9.64,9.64,0,0,0,555.39,271.44Z"></path><path class="cls-13" d="M565,281.08a9.63,9.63,0,0,1-9.64,9.63v39.08a1.4,1.4,0,0,0,1.23-.68L577,295.58a25.27,25.27,0,0,0-21.61-38.37v14.23A9.64,9.64,0,0,1,565,281.08Z"></path><path class="cls-14" d="M359.83,336.49a1.24,1.24,0,0,1-2.47-.12c1-19.19,5.4-30.18,10.65-34.75a9.63,9.63,0,0,1,7.38-2.61,11.44,11.44,0,0,1,7,3.74c5.28,5.48,9,16.84,7.91,31.67a1.24,1.24,0,0,1-2.47-.19c1.06-14.07-2.37-24.73-7.23-29.76a9,9,0,0,0-5.44-3,7.23,7.23,0,0,0-5.51,2C364.84,307.67,360.78,318.07,359.83,336.49Z"></path><path class="cls-15" d="M342.09,332.72s-1.62.11-2,2.45-5.79,85.26-5.79,85.26-1.17,4.57,6.24,4.57h66.76c7.41,0,6.24-4.57,6.24-4.57s-5.4-82.92-5.79-85.26-2-2.45-2-2.45Z"></path><path class="cls-16" d="M351.1,332.72s-1.62.11-2,2.45-5.79,85.26-5.79,85.26-1.17,4.57,6.24,4.57H416.3c7.41,0,6.24-4.57,6.24-4.57s-5.4-82.92-5.79-85.26-2-2.45-2-2.45Z"></path><path class="cls-15" d="M381.38,425H416.3c7.41,0,6.24-4.57,6.24-4.57s-2-30.68-3.65-55.24H382.43s-1.05.07-1.3,1.59S377.37,422,377.37,422,376.62,425,381.38,425Z"></path><path class="cls-17" d="M402.69,338.39a1.22,1.22,0,0,1-1.21,1.26,1.24,1.24,0,0,1-1.26-1.21c-.41-18.57-3.91-29.06-8.36-33.35a6.56,6.56,0,0,0-5.34-2.13,9.39,9.39,0,0,0-5.58,3.17c-5.28,5.51-9.32,17.31-8.63,32.55a1.24,1.24,0,0,1-2.47.11c-.72-16,3.63-28.44,9.31-34.37a11.82,11.82,0,0,1,7.12-3.92,9,9,0,0,1,7.31,2.8C398.44,308,402.26,319.09,402.69,338.39Z"></path><path class="cls-14" d="M424.54,368.15a.88.88,0,0,0,.93.83.87.87,0,0,0,.83-.92c-.7-13.67-3.84-21.5-7.58-24.75a6.86,6.86,0,0,0-5.26-1.86,8.08,8.08,0,0,0-5,2.67c-3.77,3.9-6.44,12-5.64,22.55a.88.88,0,0,0,1.76-.13c-.76-10,1.69-17.62,5.15-21.2a6.39,6.39,0,0,1,3.87-2.14,5.18,5.18,0,0,1,3.93,1.44C421,347.62,423.87,355,424.54,368.15Z"></path><path class="cls-13" d="M434.21,366.5s1,.07,1.27,1.55,3.68,54.05,3.68,54.05.74,2.9-4,2.9H392.87c-4.69,0-3.95-2.9-3.95-2.9s3.42-52.57,3.67-54.05,1.27-1.55,1.27-1.55Z"></path><path class="cls-18" d="M428.5,366.5s1,.07,1.27,1.55,3.68,54.05,3.68,54.05.74,2.9-4,2.9H387.16c-4.7,0-4-2.9-4-2.9s3.43-52.57,3.68-54.05,1.27-1.55,1.27-1.55Z"></path><path class="cls-17" d="M394,369.5a.89.89,0,0,0,.87.9.88.88,0,0,0,.89-.86c.3-13.23,2.79-20.7,6-23.76a4.7,4.7,0,0,1,3.8-1.52,6.71,6.71,0,0,1,4,2.26c3.76,3.93,6.64,12.33,6.15,23.19a.87.87,0,0,0,.84.91.88.88,0,0,0,.92-.84c.51-11.36-2.59-20.26-6.64-24.48a8.36,8.36,0,0,0-5.07-2.79,6.35,6.35,0,0,0-5.2,2C397.05,347.85,394.32,355.75,394,369.5Z"></path><path class="cls-19" d="M539.66,45.78H477.72A8.2,8.2,0,0,0,469.54,54v57.7a.91.91,0,0,0,1.56.65L485,98.37h54.62a8.2,8.2,0,0,0,8.18-8.18V54A8.2,8.2,0,0,0,539.66,45.78Z"></path><path class="cls-5" d="M495.36,60.78h28.76a.53.53,0,0,1,0,.16l0,.12h0l-.23.61v0l-.75,2h-6.24a1,1,0,1,0,0,2h5.49L521.1,69H507.31a1,1,0,1,0,0,2h13.05l-.65,1.74h0v0a2,2,0,0,1-.69.83,1.65,1.65,0,0,1-.9.35H501.36a1.65,1.65,0,0,1-.9-.35,2,2,0,0,1-.7-.86L499.11,71h4.78a1,1,0,0,0,0-2h-5.52l-1.2-3.23h12.2a1,1,0,0,0,0-2H496.42l-1-2.78a1,1,0,0,1-.05-.16Zm17.1,2.94a1,1,0,1,0,0,2h1.32a1,1,0,1,0,0-2ZM498.35,82.1a5.29,5.29,0,0,0,8.51,6,5.22,5.22,0,0,0,1.56-3.74,5.3,5.3,0,0,0-.52-2.28h5.7a5.3,5.3,0,1,0,8.52-1.45l0,0a5.51,5.51,0,0,0-1.71-1.14l2.12-5.7v0l1.35-3.63,0,0,2.72-7.32v0l.23-.62h0l0-.12a1.59,1.59,0,0,0,.07-.2l2.33-6.25h4.84a1.51,1.51,0,0,0,0-3h-5.88a1.5,1.5,0,0,0-1.41,1L525.2,58a3.2,3.2,0,0,0-1.09-.18H495.36a3.19,3.19,0,0,0-1.16.21,2.78,2.78,0,0,0-1.39,1.08,3,3,0,0,0-.48,1.65,3.84,3.84,0,0,0,.24,1.28L497,73.75A5,5,0,0,0,498.69,76a4.63,4.63,0,0,0,2.67.94h16.78l-.81,2.17H497.75a1.51,1.51,0,1,0,0,3Zm3.16.67a2.29,2.29,0,0,1,1.59-.67h.06a2.28,2.28,0,0,1,1.58.66h0a2.27,2.27,0,0,1,0,3.22h0a2.29,2.29,0,0,1-3.29-3.17l.06-.06Zm15.25,0a2.28,2.28,0,0,1,1.58-.67h0a2.32,2.32,0,0,1,1.62.66h0A2.29,2.29,0,0,1,520,86h0a2.27,2.27,0,0,1-1.62.66,2.23,2.23,0,0,1-1.61-.67,2.27,2.27,0,0,1-.06-3.16Z"></path><path class="cls-5" d="M413.61,248.32H386a4.87,4.87,0,0,0-3.45,1.43h0a4.9,4.9,0,0,0-1.43,3.45v28.28c0,.82.08,1.27,1,1.6,1.48.64,1.51.11,2-.79l.05-.1a17.88,17.88,0,0,1,4.53-5.25,7.87,7.87,0,0,1,4.65-1.7h2.15v1.82a4,4,0,0,0,4,4h15.11a5.54,5.54,0,0,1,3.22,1.18A12.87,12.87,0,0,1,421,286l.07.14c.47.92.84,1.29,2,.78.94-.4,1-.79.95-1.54.2-6.84,0-14.18,0-21a4.06,4.06,0,0,0-4-4H418.5v-7.07a4.9,4.9,0,0,0-4.89-4.89Zm-23.78,17.54h-1.66a.94.94,0,0,1,0-1.88h1.66a.94.94,0,0,1,0,1.88ZM393.4,264h15.29a.94.94,0,0,1,0,1.88H393.4a.94.94,0,1,1,0-1.88Zm16.32-7.27h1.66a.94.94,0,0,1,0,1.88h-1.66a.94.94,0,1,1,0-1.88Zm-3.56,1.88h-18a.94.94,0,0,1,0-1.88h18a.94.94,0,0,1,0,1.88Zm-7.6,16.66h15.05a4.88,4.88,0,0,0,4.89-4.89v-6.94H420a.87.87,0,0,1,.63.26.89.89,0,0,1,.27.64v16.53a12.44,12.44,0,0,0-1.28-1.09,8.52,8.52,0,0,0-5.07-1.8H399.46a.9.9,0,0,1-.63-.26.91.91,0,0,1-.27-.63v-1.82ZM386,251.46h27.66a1.76,1.76,0,0,1,1.76,1.75v17.15a1.76,1.76,0,0,1-1.76,1.75H393.28a11,11,0,0,0-6.5,2.31,17.46,17.46,0,0,0-2.59,2.37V253.21a1.75,1.75,0,0,1,.52-1.24A1.71,1.71,0,0,1,386,251.46Z"></path><rect class="cls-20" x="530.81" y="132.81" width="98.68" height="26.1" rx="2.21"></rect><rect class="cls-21" x="535.36" y="137.04" width="16.8" height="17.65" rx="1.16"></rect><path class="cls-5" d="M559.52,138.31h61.4a1,1,0,0,1,1,1h0a1,1,0,0,1-1,1h-61.4a1,1,0,0,1-1-1h0A1,1,0,0,1,559.52,138.31Z"></path><path class="cls-5" d="M559.52,144.89h61.4a1,1,0,0,1,1,1h0a1,1,0,0,1-1,1h-61.4a1,1,0,0,1-1-1h0A1,1,0,0,1,559.52,144.89Z"></path><path class="cls-5" d="M559.52,151.47H586.9a1,1,0,0,1,1,1h0a1,1,0,0,1-1,1H559.52a1,1,0,0,1-1-1h0A1,1,0,0,1,559.52,151.47Z"></path><path class="cls-22" d="M637.23,335.63A32,32,0,1,0,659.89,345a32,32,0,0,0-22.66-9.38Zm-20.84,11.21a29.48,29.48,0,1,1-8.63,20.84A29.38,29.38,0,0,1,616.39,346.84Z"></path><path class="cls-22" d="M610.3,367.2a.48.48,0,1,0,0,1h2.39a.48.48,0,0,0,0-1ZM655.22,385a.48.48,0,0,0-.68.68l1.09,1.09a.48.48,0,1,0,.68-.68L655.22,385ZM618.83,348.6a.49.49,0,0,0-.69,0,.48.48,0,0,0,0,.68l1.09,1.09a.49.49,0,1,0,.69-.69l-1.09-1.08Zm18.88,43.62a.49.49,0,1,0-1,0v2.39a.49.49,0,0,0,1,0v-2.39Zm0-51.47a.49.49,0,1,0-1,0v2.39a.49.49,0,1,0,1,0v-2.39Zm16.83,8.93a.49.49,0,0,0,0,.69.48.48,0,0,0,.68,0l1.09-1.09a.48.48,0,1,0-.68-.68l-1.09,1.08Zm-36.4,36.4a.48.48,0,0,0,0,.68.49.49,0,0,0,.69,0l1.09-1.09a.48.48,0,0,0,0-.68.49.49,0,0,0-.69,0l-1.09,1.09Zm43.62-18.88a.48.48,0,0,0,0,1h2.4a.48.48,0,0,0,0-1Z"></path><path class="cls-22" d="M636.26,367.68a1,1,0,0,0,1.94,0V345.85a1,1,0,0,0-1.94,0Z"></path><path class="cls-22" d="M638.06,368.16a1,1,0,0,0-.35-1.32,1,1,0,0,0-1.32.36l-8.9,15.42a1,1,0,0,0,1.67,1Z"></path><path class="cls-22" d="M637.23,370.3a2.62,2.62,0,1,0-2.63-2.62A2.63,2.63,0,0,0,637.23,370.3Z"></path><path class="cls-23" d="M610.25,57.1a15.69,15.69,0,0,0-5-3.36,15.54,15.54,0,0,0-11.83,0A15.49,15.49,0,0,0,585,62.13,15.54,15.54,0,0,0,585,74a15.49,15.49,0,0,0,8.39,8.39,15.54,15.54,0,0,0,11.83,0A15.46,15.46,0,0,0,614.78,68a15.44,15.44,0,0,0-4.53-10.94Zm-5.57-2a14.11,14.11,0,0,1,4.55,3,14,14,0,0,1,3,15.31,13.8,13.8,0,0,1-3,4.55A14,14,0,0,1,604.68,81a14,14,0,1,1,0-26Zm1.71-11.39a24.18,24.18,0,0,1,2.85,1A25,25,0,0,1,612,46.06a27.43,27.43,0,0,1,2.58,1.71,25.27,25.27,0,0,1,2.36,2,1.62,1.62,0,0,0,.92.44,1.69,1.69,0,0,0,1-.2c2.28-1.32,4.67-2.62,6.89-4a1,1,0,0,1,.34-.11,1.25,1.25,0,0,1,.38,0,1.09,1.09,0,0,1,.34.17.88.88,0,0,1,.25.29c1.66,2.51,3.32,5.74,4.86,8.4a1,1,0,0,1,.12.36.86.86,0,0,1,0,.39.88.88,0,0,1-.17.35.84.84,0,0,1-.28.25c-2,1.35-4.68,2.71-6.85,4a1.56,1.56,0,0,0-.68.76,1.46,1.46,0,0,0-.1.34l-.15.05.16.64c.13.5.23,1,.33,1.5s.16,1,.23,1.53.11,1,.14,1.54,0,1,0,1.55,0,1.06,0,1.56-.08,1-.14,1.54-.15,1-.23,1.53-.2,1-.33,1.5a1.69,1.69,0,0,0,.1,1.07,1.65,1.65,0,0,0,.74.76l6.06,3.5h0l.72.42a.84.84,0,0,1,.28.25.88.88,0,0,1,.17.35.86.86,0,0,1,0,.39.91.91,0,0,1-.12.35L627.42,89h0l-.37.63a1,1,0,0,1-.25.29,1.06,1.06,0,0,1-.34.16.87.87,0,0,1-.39,0,.85.85,0,0,1-.36-.12c-2.17-1.36-4.62-2.66-6.86-4a1.65,1.65,0,0,0-1.93.23h0a26.88,26.88,0,0,1-2.36,2,25.42,25.42,0,0,1-5.34,3.09,24.83,24.83,0,0,1-2.9,1,1.57,1.57,0,0,0-.85.59,1.6,1.6,0,0,0-.33,1v7.92a1,1,0,0,1-.08.37,1,1,0,0,1-.21.32,1,1,0,0,1-.32.21.91.91,0,0,1-.37.08h-9.71a.91.91,0,0,1-.37-.08,1,1,0,0,1-.32-.21,1.31,1.31,0,0,1-.22-.32,1.16,1.16,0,0,1-.07-.37V94a1.62,1.62,0,0,0-.35-1,1.7,1.7,0,0,0-.9-.58A24.75,24.75,0,0,1,586.63,90a26.19,26.19,0,0,1-2.58-1.71,26.88,26.88,0,0,1-2.36-2,1.56,1.56,0,0,0-1-.45,1.69,1.69,0,0,0-1.05.26L572.9,90a.77.77,0,0,1-.36.12.86.86,0,0,1-.39,0,1.11,1.11,0,0,1-.35-.16,1.16,1.16,0,0,1-.25-.29c-1.61-2.81-3.24-5.6-4.85-8.41a.77.77,0,0,1-.12-.35.86.86,0,0,1,0-.39,1,1,0,0,1,.16-.35,1,1,0,0,1,.28-.25l6.86-4a1.56,1.56,0,0,0,.68-.76,1.43,1.43,0,0,0,.09-.27l.17,0-.17-.73q-.2-.75-.33-1.5c-.09-.49-.17-1-.23-1.53s-.11-1-.14-1.54-.05-1-.05-1.56,0-1.06.05-1.55.08-1,.14-1.54.14-1.05.23-1.53.2-1,.33-1.5a1.64,1.64,0,0,0-.84-1.83l-6.78-3.92a1,1,0,0,1-.29-.25,1,1,0,0,1-.16-.35.86.86,0,0,1,0-.39.85.85,0,0,1,.12-.36c1.65-2.46,3.31-5.75,4.85-8.4a1,1,0,0,1,.25-.29,1.42,1.42,0,0,1,.35-.17,1.29,1.29,0,0,1,.39,0,1,1,0,0,1,.36.13L579.76,50a1.56,1.56,0,0,0,1,.21,1.65,1.65,0,0,0,.93-.46,26.14,26.14,0,0,1,2.35-2,25.55,25.55,0,0,1,5.33-3.08,26.85,26.85,0,0,1,2.9-1,1.65,1.65,0,0,0,.85-.58,1.61,1.61,0,0,0,.33-1V34.18a1.11,1.11,0,0,1,.07-.37,1,1,0,0,1,.22-.32,1,1,0,0,1,.32-.21.91.91,0,0,1,.37-.08h9.71a.91.91,0,0,1,.37.08,1,1,0,0,1,.32.21,1,1,0,0,1,.29.69v7.91a1.63,1.63,0,0,0,.35,1,1.6,1.6,0,0,0,.9.57Zm3.41-.3a28,28,0,0,1,2.9,1.45,27.68,27.68,0,0,1,5.21,3.93.16.16,0,0,0,.11,0,.17.17,0,0,0,.12,0l6.91-4a2.67,2.67,0,0,1,.87-.27,2.55,2.55,0,0,1,.91.07,2.29,2.29,0,0,1,.84.42,2.21,2.21,0,0,1,.62.7c1.67,2.71,3.26,5.64,4.86,8.41a2.41,2.41,0,0,1,.3.89,2.47,2.47,0,0,1-.06.94,2.81,2.81,0,0,1-.42.85,2.5,2.5,0,0,1-.71.62c-2.2,1.36-4.59,2.65-6.85,4a.34.34,0,0,0-.08.09.26.26,0,0,0,0,.12l.16.64h0c.07.31.13.62.19.94.1.55.19,1.09.25,1.62s.11,1.07.15,1.62.05,1.11.05,1.64,0,1.08-.05,1.64-.09,1.1-.15,1.63-.15,1.07-.25,1.61-.21,1.08-.34,1.59a.19.19,0,0,0,0,.13.2.2,0,0,0,.09.09c2.52,1.34,5.07,2.93,7.56,4.36l-.09.12.08.09a2.7,2.7,0,0,1,.42.85,2.47,2.47,0,0,1,.06.94,2.41,2.41,0,0,1-.3.89l-5.22,9-.1-.06-.16.13a2.29,2.29,0,0,1-.84.42,2.47,2.47,0,0,1-.94.06,2.3,2.3,0,0,1-.87-.29c-2.28-1.21-4.63-2.67-6.89-4a.14.14,0,0,0-.11,0,.16.16,0,0,0-.11,0,26.31,26.31,0,0,1-2.49,2.12,27.92,27.92,0,0,1-2.72,1.81,28.32,28.32,0,0,1-2.92,1.45,25.43,25.43,0,0,1-3.07,1.09.18.18,0,0,0-.1.07.15.15,0,0,0,0,.11v7.92a2.39,2.39,0,0,1-.18.92,2.63,2.63,0,0,1-.53.78,2.46,2.46,0,0,1-1.7.71h-9.71a2.37,2.37,0,0,1-.92-.19,2.58,2.58,0,0,1-.79-.52,2.42,2.42,0,0,1-.52-.78,2.39,2.39,0,0,1-.18-.92V94a.25.25,0,0,0,0-.12.24.24,0,0,0-.11-.06h0a26.82,26.82,0,0,1-3.05-1.09,25.24,25.24,0,0,1-2.9-1.44,26.76,26.76,0,0,1-2.72-1.81,25.11,25.11,0,0,1-2.49-2.12.24.24,0,0,0-.11-.06.2.2,0,0,0-.13,0l-6.85,4a2.41,2.41,0,0,1-.89.3,2.47,2.47,0,0,1-.94-.06,2.41,2.41,0,0,1-.85-.42,2.47,2.47,0,0,1-.6-.68c-1.8-2.9-3.5-6.07-5.22-9l.09-.06a1.7,1.7,0,0,1,0-.22,2.47,2.47,0,0,1,.06-.94,2.26,2.26,0,0,1,.42-.85,2.32,2.32,0,0,1,.7-.62l6.86-4a.16.16,0,0,0,.07-.09.13.13,0,0,0,0-.12l-.17-.72h0c-.06-.28-.12-.56-.17-.85-.11-.55-.19-1.09-.25-1.62s-.12-1.07-.15-1.63,0-1.1,0-1.64,0-1.08,0-1.63.08-1.1.15-1.63.14-1.07.25-1.62.21-1.07.34-1.58a.19.19,0,0,0,0-.13.18.18,0,0,0-.08-.09l-6.85-4a2.48,2.48,0,0,1-.7-.62,2.41,2.41,0,0,1-.42-.85,2.47,2.47,0,0,1-.06-.94,2.35,2.35,0,0,1,.29-.87c1.63-3,3.5-6.07,5.23-9.06l.09.06.16-.13a2.41,2.41,0,0,1,.85-.42,2.47,2.47,0,0,1,.94-.06,2.39,2.39,0,0,1,.89.29l.51.3h0l6.35,3.67a.17.17,0,0,0,.12,0,.16.16,0,0,0,.11,0l0,0a27.88,27.88,0,0,1,2.48-2.11,26,26,0,0,1,5.63-3.25,24.84,24.84,0,0,1,3.07-1.09.23.23,0,0,0,.1-.07.25.25,0,0,0,0-.12V34.18a2.39,2.39,0,0,1,.18-.92,2.21,2.21,0,0,1,.53-.78,2.63,2.63,0,0,1,.78-.53,2.36,2.36,0,0,1,.92-.18h9.71a2.39,2.39,0,0,1,.92.18,2.63,2.63,0,0,1,.78.53,2.38,2.38,0,0,1,.71,1.7v7.91a.21.21,0,0,0,0,.12.16.16,0,0,0,.11.07h0A27.49,27.49,0,0,1,609.8,43.37Z"></path><path class="cls-23" d="M449.9,27.37Zm-3.41-13A6.58,6.58,0,1,0,448.41,19a6.54,6.54,0,0,0-1.92-4.65Zm-1.42-6.51A11.07,11.07,0,0,1,447.64,9a11.44,11.44,0,0,1,2.26,1.7.39.39,0,0,0,.48.06L453.44,9h0a.76.76,0,0,1,1,.28v0L456.63,13a.79.79,0,0,1,.07.58.76.76,0,0,1-.35.46h0l-3,1.75a.4.4,0,0,0-.19.44h0a12.63,12.63,0,0,1,.26,1.39,13.22,13.22,0,0,1,.08,1.42,13,13,0,0,1-.08,1.41,12.2,12.2,0,0,1-.26,1.39.42.42,0,0,0,.21.46l3,1.75h0a.73.73,0,0,1,.35.46.77.77,0,0,1-.07.57l-2.16,3.74h0a.73.73,0,0,1-.46.35.75.75,0,0,1-.57-.07h0l-3-1.75a.41.41,0,0,0-.48.05,11.5,11.5,0,0,1-4.85,2.81.4.4,0,0,0-.29.39v3.52a.77.77,0,0,1-.22.53.76.76,0,0,1-.54.22h-4.32a.75.75,0,0,1-.75-.75V30.56a.43.43,0,0,0-.31-.4A11.56,11.56,0,0,1,436,29.07a11.78,11.78,0,0,1-2.26-1.71.41.41,0,0,0-.5,0l-3,1.75a.77.77,0,0,1-.57.07.73.73,0,0,1-.46-.35l0,0-2.15-3.72h0a.73.73,0,0,1-.08-.57.73.73,0,0,1,.35-.46l3.05-1.76a.42.42,0,0,0,.19-.45h0a12.2,12.2,0,0,1-.25-1.39,10.89,10.89,0,0,1-.09-1.41,11,11,0,0,1,.09-1.42,12.61,12.61,0,0,1,.25-1.39.39.39,0,0,0-.21-.45l-3-1.75a.73.73,0,0,1-.35-.46.72.72,0,0,1,.08-.57v0l2.15-3.72h0a.73.73,0,0,1,.46-.35.73.73,0,0,1,.57.08h0l3.05,1.76a.41.41,0,0,0,.49-.07A11.62,11.62,0,0,1,436,9a11.4,11.4,0,0,1,2.59-1.1.41.41,0,0,0,.3-.39V3.94a.76.76,0,0,1,.22-.54.77.77,0,0,1,.53-.22H444a.75.75,0,0,1,.76.76V7.46A.4.4,0,0,0,445.07,7.85Z"></path><path class="cls-22" d="M677.63,289a5.47,5.47,0,0,1,3.89,1.61h0a5.5,5.5,0,0,1-7.78,7.78h0a5.5,5.5,0,0,1,3.89-9.39Zm2.62,2.89a3.7,3.7,0,0,0-2.62-1.09,3.7,3.7,0,0,0-2.62,6.31h0a3.7,3.7,0,0,0,5.23-5.23Z"></path><path class="cls-22" d="M540.81,0a5.49,5.49,0,0,1,3.88,1.61h0a5.5,5.5,0,0,1-7.78,7.78h0A5.51,5.51,0,0,1,540.81,0Zm2.61,2.89a3.7,3.7,0,0,0-5.23,5.23h0a3.7,3.7,0,0,0,5.23-5.23Z"></path><path class="cls-22" d="M398.24,91.85a5.48,5.48,0,0,1,3.89,1.62h0a5.5,5.5,0,0,1-7.78,7.78h0a5.51,5.51,0,0,1,3.89-9.39Zm2.62,2.89a3.71,3.71,0,0,0-5.23,0,3.71,3.71,0,0,0,0,5.23h0a3.7,3.7,0,0,0,6.31-2.61A3.74,3.74,0,0,0,400.86,94.74Z"></path><path class="cls-22" d="M354.23,215.28a5.51,5.51,0,0,1,3.89,1.61h0a5.5,5.5,0,0,1,0,7.78,5.5,5.5,0,0,1-7.78,0h0a5.51,5.51,0,0,1,3.9-9.39Zm2.61,2.89a3.7,3.7,0,0,0-5.23,5.23h0a3.69,3.69,0,0,0,5.22-5.23Z"></path><path class="cls-22" d="M530.28,207.63a5.51,5.51,0,0,1,3.89,1.61h0a5.5,5.5,0,1,1-7.78,7.78h0a5.5,5.5,0,0,1,3.89-9.39Zm2.62,2.89a3.7,3.7,0,0,0-5.23,5.23h0a3.7,3.7,0,0,0,5.23-5.23Z"></path><path class="cls-22" d="M506.36,342.54a5.51,5.51,0,0,1,3.89,1.61h0a5.5,5.5,0,1,1-7.78,7.78h0a5.5,5.5,0,0,1,3.89-9.39Zm2.62,2.89a3.7,3.7,0,0,0-5.24,5.23h0a3.65,3.65,0,0,0,2.61,1.08,3.7,3.7,0,0,0,2.62-6.31Z"></path><path class="cls-22" d="M23.17,189.45a5.51,5.51,0,0,1,3.89,1.61h0a5.5,5.5,0,1,1-7.78,7.78h0a5.5,5.5,0,0,1,3.89-9.39Zm2.62,2.89a3.7,3.7,0,0,0-5.23,5.23h0a3.67,3.67,0,0,0,2.61,1.08,3.7,3.7,0,0,0,2.62-6.31Z"></path><path class="cls-23" d="M642.77,26.93a1.13,1.13,0,0,1,2.26,0v2.65h2.65a1.13,1.13,0,0,1,0,2.26H645v2.65a1.13,1.13,0,0,1-2.26,0V31.84h-2.65a1.13,1.13,0,0,1,0-2.26h2.65Z"></path><path class="cls-23" d="M507.86,119.74a1.13,1.13,0,0,1,2.26,0v2.65h2.65a1.13,1.13,0,0,1,0,2.26h-2.65v2.65a1.13,1.13,0,0,1-2.26,0v-2.65h-2.65a1.13,1.13,0,0,1,0-2.26h2.65Z"></path><path class="cls-23" d="M344.25,8.75a1.13,1.13,0,0,1,2.25,0V11.4h2.65a1.13,1.13,0,0,1,0,2.26H346.5v2.65a1.13,1.13,0,0,1-2.25,0V13.66H341.6a1.13,1.13,0,1,1,0-2.26h2.65Z"></path><path class="cls-23" d="M20.85,63.29a1.13,1.13,0,0,1,2.25,0v2.65h2.65a1.13,1.13,0,1,1,0,2.25H23.1v2.65a1.13,1.13,0,1,1-2.25,0V68.19H18.2a1.13,1.13,0,1,1,0-2.25h2.65Z"></path><path class="cls-23" d="M11.28,381.91a1.13,1.13,0,1,1,2.25,0v2.65h2.65a1.13,1.13,0,1,1,0,2.25H13.53v2.65a1.13,1.13,0,1,1-2.25,0v-2.65H8.63a1.13,1.13,0,1,1,0-2.25h2.65Z"></path><path class="cls-23" d="M436.1,306.32a1.13,1.13,0,0,1,2.26,0V309H441a1.13,1.13,0,0,1,0,2.25h-2.65v2.65a1.13,1.13,0,0,1-2.26,0v-2.65h-2.65a1.13,1.13,0,0,1,0-2.25h2.65Z"></path><path class="cls-23" d="M350,100.61a1.13,1.13,0,1,1,2.25,0v2.65h2.65a1.13,1.13,0,1,1,0,2.25h-2.65v2.65a1.13,1.13,0,1,1-2.25,0v-2.65h-2.65a1.13,1.13,0,1,1,0-2.25H350Z"></path><rect class="cls-21" x="43.14" y="29.77" width="219.32" height="395.23" rx="27.41"></rect><rect class="cls-21" x="52.16" y="29.77" width="219.32" height="395.23" rx="27.41"></rect><rect class="cls-20" x="56.51" y="34.12" width="210.6" height="386.52" rx="23.06"></rect><rect class="cls-24" x="65.23" y="42.84" width="193.17" height="369.09" rx="14.34"></rect><path class="cls-22" d="M85.69,387.44H97.22a2,2,0,0,1,1.44.6h0a2,2,0,0,1,.6,1.44v11.79c0,.34,0,.52-.41.66-.62.27-.63.05-.83-.33l0,0a7.46,7.46,0,0,0-1.89-2.19,3.33,3.33,0,0,0-1.94-.71h-.89v.76a1.69,1.69,0,0,1-1.68,1.68h-6.3a2.29,2.29,0,0,0-1.34.49,5.25,5.25,0,0,0-1.33,1.53l0,.06c-.2.39-.35.54-.85.33s-.42-.33-.4-.64c-.08-2.85,0-5.91,0-8.76A1.67,1.67,0,0,1,83,392.43h.63v-2.95a2,2,0,0,1,2-2Zm9.91,7.31h.69a.39.39,0,0,0,0-.78H95.6a.39.39,0,1,0,0,.78ZM94.11,394H87.74a.39.39,0,1,0,0,.78h6.37a.39.39,0,1,0,0-.78Zm-6.8-3h-.69a.39.39,0,0,0-.39.39.38.38,0,0,0,.39.39h.69a.38.38,0,0,0,.39-.39.39.39,0,0,0-.39-.39Zm1.49.78h7.49a.38.38,0,0,0,.39-.39.39.39,0,0,0-.39-.39H88.8a.4.4,0,0,0-.4.39.39.39,0,0,0,.4.39ZM92,398.66H85.69a2,2,0,0,1-2-2v-2.89H83a.36.36,0,0,0-.26.1.4.4,0,0,0-.12.27V401a6,6,0,0,1,.54-.46,3.53,3.53,0,0,1,2.11-.75h6.3a.36.36,0,0,0,.26-.11.35.35,0,0,0,.11-.26v-.76Zm5.26-9.91H85.69a.72.72,0,0,0-.73.73v7.15a.72.72,0,0,0,.21.51.77.77,0,0,0,.52.22h8.47a4.57,4.57,0,0,1,2.71,1,7.34,7.34,0,0,1,1.08,1v-9.82a.73.73,0,0,0-.22-.52A.72.72,0,0,0,97.22,388.75Z"></path><path class="cls-22" d="M138.81,381.65a4.74,4.74,0,0,1,3.36,8.1l0,0a4.77,4.77,0,0,1-3.32,1.35,4.72,4.72,0,0,1-3.35-1.39h0a4.75,4.75,0,0,1,3.36-8.1Zm5.28,17v-.46a5.27,5.27,0,0,0-1.52-3.7l0,0a5.28,5.28,0,0,0-9,3.73V402a.32.32,0,0,0,.07.19h0a.26.26,0,0,0,.19.08h10a.27.27,0,0,0,.27-.27v-3.37Zm1.31,0V402a1.6,1.6,0,0,1-.46,1.11h0a1.55,1.55,0,0,1-1.11.47h-10a1.59,1.59,0,0,1-1.12-.47h0a1.6,1.6,0,0,1-.46-1.11v-3.4h0v-.42a6.59,6.59,0,0,1,11.25-4.66l0,0a6.61,6.61,0,0,1,1.9,4.62v.44ZM141.24,384a3.44,3.44,0,0,0-4.87,4.87h0a3.45,3.45,0,0,0,4.83,0l0,0a3.47,3.47,0,0,0,1-2.44A3.43,3.43,0,0,0,141.24,384Z"></path><path class="cls-22" d="M189.57,388.11a7.57,7.57,0,0,1,1.19.54,6.75,6.75,0,0,1,1.07.77l1.34-.78.06,0a1,1,0,0,1,.7-.07,1,1,0,0,1,.61.46l1.23,2.13a1,1,0,0,1-.37,1.37l-1.34.78c0,.13.05.26.06.4a7,7,0,0,1,.07.9,7.11,7.11,0,0,1-.07.91c0,.13,0,.27-.06.4l1.34.77a1,1,0,0,1,.47.61,1,1,0,0,1-.1.76l-1.23,2.13a1,1,0,0,1-.61.47,1.07,1.07,0,0,1-.76-.1l-1.34-.78a6.69,6.69,0,0,1-1.07.76,6.1,6.1,0,0,1-1.19.54v1.55a1,1,0,0,1-1,1h-2.46a1,1,0,0,1-.71-.3l-.05-.06a1,1,0,0,1-.24-.65v-1.55a6.39,6.39,0,0,1-1.19-.54,6.19,6.19,0,0,1-1.06-.76l-1.35.78-.06,0a1,1,0,0,1-.7.07,1,1,0,0,1-.61-.47L178.91,398a1,1,0,0,1,.37-1.37l1.34-.77-.06-.4a7.07,7.07,0,0,1-.06-.91,6.92,6.92,0,0,1,.06-.9l.06-.4-1.34-.78a1,1,0,0,1-.47-.6,1,1,0,0,1,.1-.77l1.23-2.12a1,1,0,0,1,1.37-.37l1.35.78a6.24,6.24,0,0,1,1.06-.77,8,8,0,0,1,1.19-.54v-1.55a1,1,0,0,1,.29-.71,1,1,0,0,1,.71-.29h2.46a1,1,0,0,1,.71.29l.06.06a1.07,1.07,0,0,1,.23.65v1.55Zm.54,1.67a5.56,5.56,0,0,0-1.31-.54.65.65,0,0,1-.53-.64v-1.74h-1.86v1.74a.66.66,0,0,1-.48.63,5.39,5.39,0,0,0-1.36.55,5.89,5.89,0,0,0-1.15.89.66.66,0,0,1-.8.12l-1.5-.87-.93,1.61,1.47.84a.67.67,0,0,1,.34.76,4.74,4.74,0,0,0-.15.71,5.87,5.87,0,0,0,0,.74,5.74,5.74,0,0,0,0,.74,5.14,5.14,0,0,0,.15.72h0a.66.66,0,0,1-.31.73l-1.5.87.93,1.61,1.5-.87a.65.65,0,0,1,.79.1,5.92,5.92,0,0,0,1.16.9,5.49,5.49,0,0,0,1.32.55.65.65,0,0,1,.52.64v1.73h1.86v-1.73a.65.65,0,0,1,.49-.63,5.92,5.92,0,0,0,1.35-.56,5.48,5.48,0,0,0,1.15-.88.64.64,0,0,1,.8-.12l1.5.87.93-1.61L193,396.8a.66.66,0,0,1-.36-.76,5.14,5.14,0,0,0,.15-.72,5.74,5.74,0,0,0,0-.74,5.58,5.58,0,0,0,0-.73,4.61,4.61,0,0,0-.15-.72h0a.65.65,0,0,1,.3-.74l1.5-.86-.93-1.61-1.5.87a.66.66,0,0,1-.79-.11,5.64,5.64,0,0,0-1.16-.9Zm-2.77,1.31a3.49,3.49,0,0,0-2.43,1l0,0a3.5,3.5,0,0,0,0,4.94h0a3.49,3.49,0,1,0,2.47-6Zm1.55,2a2.18,2.18,0,0,0-1.55-.64,2.15,2.15,0,0,0-1.51.61l0,0a2.14,2.14,0,0,0-.64,1.54,2.2,2.2,0,0,0,.63,1.55h0a2.19,2.19,0,0,0,1.54.64,2.19,2.19,0,0,0,2.19-2.19A2.19,2.19,0,0,0,188.89,393Z"></path><path class="cls-22" d="M240.64,392.38a5.79,5.79,0,0,1,0,8.18l0,0a5.77,5.77,0,0,1-7.65.4l-2.42,2.41a.65.65,0,1,1-.93-.92l2.42-2.42a5.79,5.79,0,0,1,8.62-7.69Zm-7.27,7.24v0h0a4.47,4.47,0,0,0,6.28,0l0,0a4.48,4.48,0,1,0-6.34,0Z"></path><rect class="cls-21" x="74.4" y="130.69" width="126.79" height="240.86" rx="3.44"></rect><path class="cls-13" d="M137.79,145.54s9.44.78,16.59-3.95l2.91,1.4-18.51,46.14-1,1.46-1-1.46L118.3,143l2.91-1.4C128.36,146.32,137.79,145.54,137.79,145.54Z"></path><path class="cls-25" d="M154.38,141.59l10.53,2.24S158.39,159.72,164,173c0,0-4.47,24.18-4.55,24.74s0,2.13-.08,2.55-.82.76-.82.76h-20.8l-3.61-23.59Z"></path><path class="cls-18" d="M121.21,141.59l-10.53,2.24s6.52,15.89.87,29.13c0,0,4.47,24.18,4.55,24.74s0,2.13.08,2.55.82.76.82.76h34.6Z"></path><path class="cls-26" d="M117.1,204.6S92.87,347.41,92.56,351.32s22.91,9.34,45.23,9.34,45.55-5.44,45.24-9.34S158.49,204.6,158.49,204.6l-20.7-1.45Z"></path><rect class="cls-27" x="116.39" y="201.01" width="42.8" height="3.59" rx="0.63"></rect><rect class="cls-20" x="209.12" y="130.69" width="42.89" height="33.3" rx="3.44"></rect><rect class="cls-21" x="74.4" y="115.67" width="177.61" height="7.08" rx="2.2"></rect><rect class="cls-21" x="74.4" y="101.89" width="177.61" height="7.08" rx="2.2"></rect><rect class="cls-21" x="74.4" y="88.11" width="177.61" height="7.08" rx="2.2"></rect><path class="cls-13" d="M246.17,68.25V85.57A18.46,18.46,0,0,0,264.58,104h0A18.47,18.47,0,0,0,283,85.57V68.25L266.4,65.13Z"></path><polygon class="cls-18" points="282.99 68.25 246.17 68.25 213.66 42.84 250.48 42.84 282.99 68.25"></polygon><path class="cls-28" d="M209.35,68.25V85.57A18.46,18.46,0,0,0,227.76,104h0a18.47,18.47,0,0,0,18.41-18.41V68.25l-22.95-5.09Z"></path><polygon class="cls-5" points="246.17 68.25 209.35 68.25 176.84 42.84 213.66 42.84 246.17 68.25"></polygon><path class="cls-13" d="M172.53,68.25V85.57A18.46,18.46,0,0,0,190.94,104h0a18.47,18.47,0,0,0,18.41-18.41V68.25L190.21,63Z"></path><polygon class="cls-18" points="209.35 68.25 172.53 68.25 140.02 42.84 176.84 42.84 209.35 68.25"></polygon><path class="cls-28" d="M135.71,68.26V85.57A18.46,18.46,0,0,0,154.12,104h0a18.47,18.47,0,0,0,18.41-18.41V68.26l-18.11-5.75Z"></path><polygon class="cls-5" points="172.53 68.25 135.71 68.25 103.2 42.84 140.02 42.84 172.53 68.25"></polygon><path class="cls-13" d="M98.89,68.25V85.57A18.46,18.46,0,0,0,117.3,104h0a18.47,18.47,0,0,0,18.41-18.41V68.25l-21.85-3.44Z"></path><path class="cls-18" d="M135.71,68.25H98.89L70.53,46.08a14.29,14.29,0,0,1,9-3.24H103.2Z"></path><rect class="cls-29" x="209.12" y="264.66" width="42.89" height="33.3" rx="3.44"></rect><rect class="cls-30" x="209.12" y="168.97" width="42.89" height="5.36" rx="0.55"></rect><rect class="cls-30" x="209.12" y="180.64" width="42.89" height="5.36" rx="0.55"></rect><rect class="cls-30" x="209.12" y="192.31" width="42.89" height="5.36" rx="0.55"></rect><rect class="cls-30" x="209.12" y="203.99" width="42.89" height="5.35" rx="0.55"></rect><rect class="cls-30" x="209.12" y="215.66" width="42.89" height="5.35" rx="0.55"></rect><rect class="cls-30" x="209.12" y="227.33" width="42.89" height="5.36" rx="0.55"></rect><rect class="cls-30" x="209.12" y="239" width="42.89" height="5.35" rx="0.55"></rect><rect class="cls-30" x="209.12" y="250.68" width="42.89" height="5.36" rx="0.55"></rect><rect class="cls-31" x="209.12" y="307.83" width="42.89" height="5.35" rx="0.55"></rect><rect class="cls-31" x="209.12" y="319.51" width="42.89" height="5.35" rx="0.55"></rect><rect class="cls-31" x="209.12" y="331.18" width="42.89" height="5.35" rx="0.55"></rect><rect class="cls-31" x="209.12" y="342.85" width="42.89" height="5.36" rx="0.55"></rect><rect class="cls-31" x="209.12" y="354.53" width="42.89" height="5.35" rx="0.55"></rect><rect class="cls-31" x="209.12" y="366.2" width="42.89" height="5.35" rx="0.55"></rect><text class="cls-32" transform="translate(216.08 287.06)">$50</text><text class="cls-32" transform="translate(216.08 153.73)">$70</text><circle class="cls-33" cx="382.13" cy="249.14" r="8.24"></circle><text class="cls-34" transform="translate(378.42 252.52)">1</text><path class="cls-4" d="M81.33,307.63c14.33-7.62,18,9,12.39,22.68S59.56,390.19,58.07,408.5c-.58,7.09-1.9,6.32-3,1.34C49.39,385,61.6,318.12,81.33,307.63Z"></path><path class="cls-35" d="M51,244.75c-16.43-14.79-26.71,5.92-23.87,25.9s25.41,90.42,21.35,115.11c-1.57,9.57.43,9,3.57,2.78C67.68,357.6,73.6,265.12,51,244.75Z"></path><path class="cls-5" d="M48.12,392.62c.35.92,1.13.47,2.18-1.06C67.42,334.51,40.74,249.27,40.66,249a.89.89,0,1,0-1.7.52C39,249.8,66.09,336.2,48.12,392.62Z"></path><path class="cls-4" d="M15.09,292.15C-.83,285.22-3.33,303.21,3.76,317.38s41.43,61,44.55,80.44c1.21,7.52,2.55,6.58,3.35,1.18C55.61,372.05,37,301.69,15.09,292.15Z"></path><path class="cls-5" d="M49.76,403c.49.6,1,.07,1.36-1.33C49.68,354.92,8.59,298.07,8.46,297.88a.7.7,0,0,0-1.14.82C7.45,298.88,49.1,356.51,49.76,403Z"></path><polygon class="cls-36" points="37.51 392.66 68.1 392.66 76.09 399.87 69.56 425 52.8 425 36.05 425 29.52 399.87 37.51 392.66"></polygon><rect class="cls-37" x="26.99" y="383.31" width="51.63" height="16.56" rx="2.53"></rect><polygon class="cls-17" points="76.09 399.87 74.75 405.03 30.86 405.03 29.52 399.87 76.09 399.87"></polygon><path class="cls-38" d="M403.28,226c5.07,2.49,12.43,3.26,15,.86s1.15-5.55-.1-5.64S397.34,220.36,403.28,226Z"></path><path class="cls-4" d="M475.44,409.81c-1.19,1.32-4.18,2.5-8.09,3.33s-8.31,2.1-10.68,2.76c-2.74.77-3.26,2.62-2.79,5.09.2,1-.69,2.66.54,3.59l36.46-.57c1.34,0,1.76-2.57,1.76-4.09V410.3c0-3.05-1.79-3.39-3.81-3.39H479C477.83,406.91,477.33,408,475.44,409.81Z"></path><path class="cls-5" d="M472.51,411.62l-1.28.48,1.77,3.36a.68.68,0,0,0,1.2-.63l-1.69-3.21Zm-2.84.95,1.51,2.88a.67.67,0,0,1-1.19.63l-1.67-3.16,1.35-.35Zm-3,.71-1.37.31L467,416.7a.68.68,0,0,0,1.2-.63l-1.47-2.79Zm-3,.7-1.35.35,1.58,3a.67.67,0,0,0,.91.28.68.68,0,0,0,.29-.91Z"></path><path class="cls-38" d="M408.54,145.08c5.07-2.49,12.44-3.25,15-.86s1.15,5.55-.1,5.64S402.61,150.72,408.54,145.08Z"></path><path class="cls-5" d="M492,182.21c-7.34-3.23-30.85-2.45-36.93-5.44-2-1-29.25-31.53-30.3-32s-5.62,6.25-6.35,7.94c0,0,19.71,41.42,30.79,45.33s28.34,5.29,30.57,4C489.45,196.42,499.37,185.43,492,182.21Z"></path><path class="cls-5" d="M484.54,246.4s15.2,4.84,14,18.34c-2.26,25.61-5.61,64.46-6.12,74.55-.77,15.41-1.46,67.85-1.89,69.87a2.07,2.07,0,0,1-1.19,1.4c-1,.38-10.7,1.38-11.3-1.6-2-9.73-7.67-58.3-8.56-65.87s-9.5-72.17-9.5-72.17-.82-14.7,2.07-19.14C467,244.25,477.57,245.39,484.54,246.4Z"></path><path class="cls-36" d="M482.33,254a1.15,1.15,0,0,1,1.18-1.13,1.14,1.14,0,0,1,1.14,1.17c0,.24-1.49,83.4-1.78,88.73s2.4,67.33,2.41,67.51a1.16,1.16,0,0,1-2.32.11c0-.18-2.71-62.37-2.42-67.75S482.33,254.26,482.33,254Z"></path><path class="cls-38" d="M476.3,145.5h0A8.42,8.42,0,0,0,471,156.14l5.47,16.2a8.42,8.42,0,0,0,10.65,5.27h0A8.42,8.42,0,0,0,492.42,167L487,150.77A8.42,8.42,0,0,0,476.3,145.5Z"></path><path class="cls-5" d="M471.6,167.16s13.52-3.1,16.33-3.55a26.59,26.59,0,0,1,7.18,0c.56.14.66.9.71,1.32s-1.25,4.56-1.27,5,9.25,15.34,8.14,28.67c-.37,4.36-6.65,16.69-6.21,26.75.93,20.7,8.57,39.45,8.39,40.57-2.48,15.1-37.49,8.28-46.15.9,0,0-2.53-8.21-2-10.56.24-1.11-1.26-16,.23-32.43a96.35,96.35,0,0,1,4.58-23c3.46-9.83,6.07-17.09,6.45-17.79,1.24-2.27,4.24-6.29,4.3-6.92s-3-4.63-3.3-5.16S470.84,167.61,471.6,167.16Z"></path><path class="cls-4" d="M422.18,225.28l-1.25-4.54a2.85,2.85,0,0,0-1.59-.83c-1.13-.23-2.79-.34-3.49.81s-2.75,7.71-2.16,8.73a4.84,4.84,0,0,0,5,2.11C421.1,231,422.18,225.28,422.18,225.28Z"></path><path class="cls-5" d="M481.91,187.17c-8.22.22-26.61,34.39-28.86,35.55s-33-1.46-34.3-1.48-2.7,9-2.62,11.08c0,0,26,11.44,39.09,10.1s35.29-32.93,36.93-35.3C499.24,196.86,491.64,186.91,481.91,187.17Z"></path><path class="cls-39" d="M480.89,152.46c-1,10.38-10,6.28-10,10.69l-.13,0c-7.75.84-8.63-2.72-8.72-3.54s-.38-5-.58-5.29-2-.07-2.14-1.12a82.94,82.94,0,0,1,1.89-15c1.54-7.81,8.62-11.76,8.62-11.76,13.33,1,8.65,18.49,11.24,17.28s4.92.66,4.08,3.94C484,152.26,489,156.65,480.89,152.46Z"></path><path class="cls-17" d="M476,143.83s-5-1.59-2.85-9.33c0,0-7.59,1.42-10.77.17s-4.8-12.06-1.45-15.84,2.53,1.81,2.53,1.81,14.29-5.39,20.05-5.13,9.81,10,9.77,13.69c0,0,1.17-2.65,3.05-2.51s-.95,3.86-.95,3.86,3.12,1.87,3.55,4.4-7.94,13.48-10.67,19l-.09.19c-.59,1.37-2.17,2.52-3.32,1.5a6.18,6.18,0,0,1-2.11-5.37s2.73-5.15.14-6.44c0,0-1.72-1.6-3.64,2a12.27,12.27,0,0,0-.33,3.62,22.56,22.56,0,0,1-1.08,11.82c-2.2,5.92-8.53,5-10.75,5.2s-4.88-.46-5.13-2.73-.8-7.37-.88-8.15.2-1.27.41-1.29c0,0,3.69-.2,6.35-.21s4.58.15,6-1.38,2.56-2.77,2.65-5.66A9.3,9.3,0,0,0,476,143.83Z"></path><path class="cls-40" d="M425.15,174.07s-.61.62-.46,1.16,1.45,1.28,2.59,1.76,2.55,1,2.55,1a11.51,11.51,0,0,0,2.37,3c1,.61,1.49,1.08,1.56.89s-.59-5.54-1.37-6.17S425.15,174.07,425.15,174.07Z"></path><path class="cls-39" d="M426.45,180.42s2.82,3.09,3.47,3.68,1.76.83,3.54,1.41,5.23,1.64,5.87,2.16a33,33,0,0,1,2.57,3l4.18-4.5a51.62,51.62,0,0,1-4.74-4c-.72-.95-5.2-6.77-6.15-7.65s-9.79-3.33-10.25-3.32-.46,1.35.94,2.12a45.21,45.21,0,0,0,4.68,1.94s1.67,3.79,2.07,4.37c0,0-1.19,1-1.55,1.2s-2.33-1.09-2.81-1.21S426.48,179.91,426.45,180.42Z"></path><path class="cls-18" d="M450.62,188.84l-2.32-2.79a8,8,0,0,0-1.57-1.52,16,16,0,0,0-2.42-1.37,3,3,0,0,0-2.76,1.31c-1.15,1.41-3.33,3.83-3.21,5.29s3.56,3.93,3.85,4.25S450.62,188.84,450.62,188.84Z"></path><path class="cls-39" d="M426.45,180.42s2.82,3.09,3.47,3.68a7,7,0,0,0,2.49,1.08l-.49-5a9.45,9.45,0,0,1-.84.63c-.35.23-2.33-1.09-2.81-1.22S426.48,179.91,426.45,180.42Z"></path><rect class="cls-10" x="413.94" y="180.65" width="42.17" height="43.61"></rect><rect class="cls-11" x="389.53" y="180.65" width="31.62" height="43.61"></rect><rect class="cls-10" x="402.07" y="180.65" width="6.55" height="15.2"></rect><rect class="cls-10" x="402.07" y="200.98" width="6.55" height="6.6"></rect><rect class="cls-10" x="398.73" y="145.49" width="33.99" height="35.15"></rect><rect class="cls-11" x="426.91" y="145.49" width="25.49" height="35.15"></rect><rect class="cls-10" x="437.01" y="145.49" width="5.28" height="12.25"></rect><rect class="cls-10" x="437.01" y="161.89" width="5.28" height="5.32"></rect><path class="cls-38" d="M257.24,149.75c-1.41-.34-3.44,1.59-3.16,3.74.34,2.45,3.8,4.26,4.39,3.12C258.66,156.24,258.6,150.08,257.24,149.75Z"></path><path class="cls-39" d="M252.06,141.11a65.47,65.47,0,0,0,8.95,8.22l6.24,12.59-6.35,2.92-.62-4.16s-3.61-1.27-4.55-1.79a11.58,11.58,0,0,1-2.79-3c-1.18-2,.53-2.61,1-2.21a24,24,0,0,0,2.86,1.72,4.31,4.31,0,0,0,1-3.27C257.43,150.36,248.78,142.62,252.06,141.11Z"></path><path class="cls-41" d="M257.07,255.85l26.51,5a1.72,1.72,0,0,1,1.37,2h0a1.72,1.72,0,0,1-2,1.37l-26.51-5a1.75,1.75,0,0,1-1.38-2h0A1.73,1.73,0,0,1,257.07,255.85Z"></path><path class="cls-39" d="M283.5,259.8c-1.65,0-4.4-2.05-5.89-3,0,0-4.59.79-3.83,1.7s3.35,1.45,3.35,1.45-.38,2.36-4,2.18-5.93.14-5.31,1.23,2.54,1.22,2.54,1.22a6.83,6.83,0,0,0,2.68,2.18l1.58.53s.67,1.1,3.68,1.2,9.66-2.67,9.71-3.77S283.5,259.8,283.5,259.8Z"></path><path class="cls-15" d="M323.93,197.09c-10.76-2.05-24.63,0-34.35-5.59-6.75-3.85-20.9-27.37-22.65-33.34-.15-.5-8.52,4-7.63,5.94,3.51,7.74,12,29.78,23.79,39.33C298.21,215.67,322.64,214.88,323,215c1.82.71-6.51-8.9-5.6-10.21S326.61,198.89,323.93,197.09Z"></path><path class="cls-40" d="M313.23,407.35l-6.86,1.42s.48,3.19-.56,4.75,5.62,4.13,5.62,4.13l3.16-4,.19-3.17Z"></path><path class="cls-4" d="M300.42,269.35l-5.2,9.43s5.11,57.05,6.26,63.62,6.19,47.35,4.38,66.37c-.14,1.42-.37,1.94.64,2.26l7.94.24c1.18,0,.81-.76.8-2.44,0-8.42,3.08-41.34,3.31-46.14.24-5.19-1-10.16-1.17-11.69s8.09-69.53,7.18-80S300.42,269.35,300.42,269.35Z"></path><path class="cls-16" d="M311.11,411.17l1,0c.56-9.59,1.32-23.16,1.63-31.46.37-9.82-.14-20.29-.45-26.56-.13-2.6-.22-4.48-.2-5.27.07-2.72,2.2-68.23,2.21-68.41a.49.49,0,1,0-1,0c0,.18-2.14,65.62-2.21,68.41,0,.84.07,2.73.2,5.35.31,6.26.83,16.72.46,26.48C312.42,388,311.67,401.57,311.11,411.17Z"></path><path class="cls-40" d="M309.93,176l-2.24,6.15a5.06,5.06,0,0,1,3,5.42c-.45,4.13,3.07,4.75,3.07,4.75s7-7.37,6.93-8.13S321.71,176,309.93,176Z"></path><path class="cls-39" d="M307.29,182c-8.79-3.39-.9-18.25,2-23.05,3.66-6.07,10.79-7.25,10.79-7.25,3.83,1.73,8.75,4,9.26,6.6C331.12,167.55,324,188.46,307.29,182Z"></path><path class="cls-15" d="M296,203.46c-2.62,9.29,4.81,24.49,3.27,36.86-3,24.2-13.93,51.21-13.79,53.14.2,2.64,32.16,6,47.62.88a1.67,1.67,0,0,0,1-2.28c-.72-1.65-10.19-40.37-7.49-67,1.27-12.48,5.78-20.82,6.41-25.34.7-5.13-.28-6.82-1.71-8.87-4.38-6.33-12.94-12.77-17-4.88C309,196.13,297,199.92,296,203.46Z"></path><path class="cls-15" d="M313.11,195.46c-6.13,19.13-5.74,46.69-5.74,46.69l-23.73,18.37,2.29,7.65s33.49-13,36.17-26,5.55-42.1,5.55-42.1Z"></path><path class="cls-15" d="M288.84,423.32h25.32a1.63,1.63,0,0,0,1.5-1.77v-5.86c0-1.09-1.36-2-1.36-2s-3.68,2.05-10,0a4.87,4.87,0,0,0-2.76.12c-1.84.48-14.74,5.46-14.74,5.46a2.69,2.69,0,0,0-1.48,2.09C285.33,422.66,286,423.26,288.84,423.32Z"></path><rect class="cls-21" x="285.31" y="422.92" width="30.65" height="2.08" rx="0.54"></rect><path class="cls-17" d="M320.41,157.92c-2,2-5.72,2.94-10.79.48l-.35.55c-1,1.67-1.9,3.27-2.68,4.71,0,0-5.9-7.53-4.82-14.35s16.28-8,19.28-7.49,3,4,3,4,6.59-1.4,11.73,2.14,6.07,14.16,5,19.41-11.22,13.44-5.53,27.17-2.63,23.9-15.45,21.52-19.08-20.18-4.7-36.25c0,0,6.56-6.08,5.61-10S317.36,164.21,320.41,157.92Z"></path><path class="cls-38" d="M262.46,157.68a8.19,8.19,0,0,1-4.06,1.65,8.75,8.75,0,0,1-1.62,0l1.62.63,1.88.68.19,1.24a16.49,16.49,0,0,1,2-1.53,26.85,26.85,0,0,1,3.14-1.81l-1.85-3.73a5.5,5.5,0,0,1-.25,1.47A3.11,3.11,0,0,1,262.46,157.68Z"></path><path class="cls-42" d="M314.15,258.19c7.56-4,10.49-7.48,11.81-15.26.1-.57.19-1.17.27-1.79h0a116.34,116.34,0,0,1,.36-16.08,67.05,67.05,0,0,1,1.24-7.66c.13-.57.26-1.14.39-1.69a14.27,14.27,0,0,1-2.34.54c0,.31-.07.62-.11.93-1,8.68-2.38,18.7-3.67,25a8.33,8.33,0,0,1-.41,1.41c-1,2.69-3.21,5.36-6.08,7.89-6,5.32-14.9,10-21.38,13.1-.47,1.75-1,3.47-1.44,5.14,4.06-2.28,9.32-5.2,14.64-8,1.95-1,3.91-2.06,5.82-3Z"></path></svg>