<svg xmlns="http://www.w3.org/2000/svg" xmlns:xlink="http://www.w3.org/1999/xlink" viewBox="0 0 327.17 315.38"><defs><style>.cls-1{isolation:isolate;}.cls-2{fill:url(#Gradiente_sem_nome_69);}.cls-3{fill:#9fa5fd;}.cls-4{fill:#f73e6a;}.cls-5{fill:#e21c47;}.cls-6{fill:#b9112e;}.cls-7{fill:#13348c;}.cls-8{fill:#fdb71f;}.cls-9{fill:#fff9ff;}.cls-10{mix-blend-mode:multiply;}.cls-11{fill:#2a3554;}.cls-12{fill:#f9a38f;}.cls-13{fill:#021019;}.cls-14{fill:#524e82;}.cls-15{fill:#5320b1;}.cls-16{fill:#f9856b;}.cls-17{fill:#d25c48;}</style><linearGradient id="Gradiente_sem_nome_69" x1="20" y1="188.37" x2="320.97" y2="188.37" gradientUnits="userSpaceOnUse"><stop offset="0.16" stop-color="#e08197"></stop><stop offset="1" stop-color="#e08197" stop-opacity="0"></stop></linearGradient></defs><title>Stay Business Focused</title><g class="cls-1"><g id="Layer_1" data-name="Layer 1"><path class="cls-2" d="M147,116C134.39,70.33,77.68,55.62,45.18,89.74l-1.4,1.49c-46.59,50.65-25.86,177.18,72.24,206,101.8,29.93,198.79-25.06,204.47-76.7s-39.18-67.86-108.79-53.42C172.36,175.28,154.8,144.39,147,116Z"></path><path class="cls-3" d="M16.39,216.66a21.42,21.42,0,0,0-.27-17c-2.34-5.27-6.21-11-11.59-9-9.46,3.48-2.28,27.55,4.93,30.73C12.72,222.84,14.94,220.09,16.39,216.66Z"></path><path class="cls-3" d="M142.69,75.39a15.38,15.38,0,0,0-8.41-8.86c-3.8-1.65-8.61-2.78-10.49.89-3.31,6.44,12.19,15.67,17.54,13.85C143.76,80.44,143.59,77.91,142.69,75.39Z"></path><path class="cls-3" d="M239.93,74.72a.64.64,0,0,0,.3,0c1.07-.26,1.69-.37,1.7-.37a.56.56,0,0,0,.48-.65.6.6,0,0,0-.69-.45s-.67.11-1.79.39a.56.56,0,0,0-.43.68A.58.58,0,0,0,239.93,74.72Z"></path><path class="cls-3" d="M205.24,100.42c-.56,1-1.09,1.94-1.59,2.93a.61.61,0,0,1-.69.3l-.11,0a.55.55,0,0,1-.28-.75c.51-1,1.06-2,1.63-3a.62.62,0,0,1,.81-.22A.54.54,0,0,1,205.24,100.42Z"></path><path class="cls-3" d="M202.25,106.37c-.43,1-.84,2-1.22,3.09a.6.6,0,0,1-.71.36h0a.55.55,0,0,1-.37-.71c.38-1.07.8-2.13,1.24-3.15a.61.61,0,0,1,.78-.31A.55.55,0,0,1,202.25,106.37Z"></path><path class="cls-3" d="M197.18,122.79a.56.56,0,0,1-.44-.61c.15-1.12.33-2.23.53-3.32a.6.6,0,0,1,.69-.46.56.56,0,0,1,.49.65c-.2,1.07-.38,2.17-.53,3.27a.59.59,0,0,1-.67.48Z"></path><path class="cls-3" d="M199.58,111.92a.56.56,0,0,1,.41.69c-.15.49-.29,1-.42,1.48s-.3,1.14-.44,1.72a.6.6,0,0,1-.71.42h0a.56.56,0,0,1-.44-.67c.14-.58.29-1.17.45-1.75s.28-1,.43-1.51a.6.6,0,0,1,.72-.39Z"></path><path class="cls-3" d="M207,97.58a.62.62,0,0,1-.82.17A.54.54,0,0,1,206,97c.64-.95,1.31-1.88,2-2.78a.62.62,0,0,1,.83-.12.54.54,0,0,1,.13.78C208.31,95.74,207.65,96.65,207,97.58Z"></path><path class="cls-3" d="M236.88,75.68c-1.09.35-2.2.74-3.29,1.16a.63.63,0,0,1-.37,0,.59.59,0,0,1-.41-.33.55.55,0,0,1,.32-.73c1.11-.43,2.24-.83,3.36-1.19a.61.61,0,0,1,.76.35A.55.55,0,0,1,236.88,75.68Z"></path><path class="cls-3" d="M227.27,79.71a.63.63,0,0,1-.44.05.59.59,0,0,1-.37-.27.54.54,0,0,1,.23-.76c1-.54,2.11-1.07,3.18-1.55a.62.62,0,0,1,.8.26.55.55,0,0,1-.28.75C229.34,78.66,228.29,79.18,227.27,79.71Z"></path><path class="cls-3" d="M215.94,87.45a.62.62,0,0,1-.56.13.6.6,0,0,1-.29-.16.54.54,0,0,1,0-.79c.87-.76,1.77-1.51,2.69-2.22a.62.62,0,0,1,.84.08.54.54,0,0,1-.08.79C217.68,86,216.79,86.71,215.94,87.45Z"></path><path class="cls-3" d="M221.35,83.26a.63.63,0,0,1-.5.09.6.6,0,0,1-.34-.21.54.54,0,0,1,.13-.78c1-.65,2-1.29,3-1.9a.62.62,0,0,1,.82.17.54.54,0,0,1-.18.77C223.27,82,222.29,82.62,221.35,83.26Z"></path><path class="cls-3" d="M211.14,92.25a.62.62,0,0,1-.61.19.61.61,0,0,1-.23-.11.54.54,0,0,1-.08-.79c.76-.86,1.56-1.71,2.37-2.52a.63.63,0,0,1,.84,0,.54.54,0,0,1,0,.79C212.66,90.58,211.88,91.41,211.14,92.25Z"></path><polygon class="cls-4" points="240.53 70.93 239.32 61.58 270.98 66.12 240.53 70.93"></polygon><polygon class="cls-5" points="270.98 66.12 241.73 73.31 241.66 73.33 240.19 75.01 240.53 70.93 270.98 66.12"></polygon><polygon class="cls-6" points="240.19 75.01 242.81 74.98 241.66 73.33 240.19 75.01"></polygon><polygon class="cls-4" points="245.34 72.42 241.66 73.33 247.64 81.85 270.98 66.12 245.34 72.42"></polygon><path class="cls-4" d="M264.19,136.83a4.07,4.07,0,1,1,4.07,4.07A4.07,4.07,0,0,1,264.19,136.83Zm1.28,0a2.79,2.79,0,1,0,2.79-2.79A2.8,2.8,0,0,0,265.47,136.83Z"></path><path class="cls-7" d="M268,113.32a4.07,4.07,0,1,1,4.07,4.07A4.07,4.07,0,0,1,268,113.32Zm1.28,0a2.79,2.79,0,1,0,2.79-2.79A2.8,2.8,0,0,0,269.3,113.32Z"></path><path class="cls-8" d="M253.3,119.62a.64.64,0,0,0,.64-.64v-2.81a.64.64,0,1,0-1.28,0V119A.64.64,0,0,0,253.3,119.62Z"></path><path class="cls-8" d="M253.3,124.54a.64.64,0,0,0,.64-.64v-2.81a.64.64,0,1,0-1.28,0v2.81A.64.64,0,0,0,253.3,124.54Z"></path><path class="cls-8" d="M249.35,120.67h2.53a.64.64,0,1,0,0-1.28h-2.53a.64.64,0,1,0,0,1.28Z"></path><path class="cls-8" d="M254.72,120.67h2.53a.64.64,0,1,0,0-1.28h-2.53a.64.64,0,1,0,0,1.28Z"></path><path class="cls-4" d="M259.76,97.66a.64.64,0,0,0,.64-.64V94.21a.64.64,0,1,0-1.28,0V97A.64.64,0,0,0,259.76,97.66Z"></path><path class="cls-4" d="M259.76,102.58a.64.64,0,0,0,.64-.64V99.13a.64.64,0,0,0-1.28,0v2.81A.64.64,0,0,0,259.76,102.58Z"></path><path class="cls-4" d="M255.81,98.72h2.53a.64.64,0,1,0,0-1.28h-2.53a.64.64,0,1,0,0,1.28Z"></path><path class="cls-4" d="M261.19,98.72h2.53a.64.64,0,0,0,0-1.28h-2.53a.64.64,0,0,0,0,1.28Z"></path><path class="cls-4" d="M9.41,171.14a4.07,4.07,0,1,1,4.07-4.07A4.07,4.07,0,0,1,9.41,171.14Zm0-6.86a2.79,2.79,0,1,0,2.79,2.79A2.8,2.8,0,0,0,9.41,164.28Z"></path><path class="cls-7" d="M6.61,148.81a4.07,4.07,0,1,1,4.07-4.07A4.07,4.07,0,0,1,6.61,148.81Zm0-6.86a2.79,2.79,0,1,0,2.79,2.79A2.8,2.8,0,0,0,6.61,142Z"></path><path class="cls-8" d="M25.65,149.67A.64.64,0,0,1,25,149v-2.81a.64.64,0,0,1,1.28,0V149A.64.64,0,0,1,25.65,149.67Z"></path><path class="cls-8" d="M25.65,154.6A.64.64,0,0,1,25,154v-2.81a.64.64,0,1,1,1.28,0V154A.64.64,0,0,1,25.65,154.6Z"></path><path class="cls-8" d="M29.6,150.73H27.07a.64.64,0,1,1,0-1.28H29.6a.64.64,0,0,1,0,1.28Z"></path><path class="cls-8" d="M24.23,150.73H21.7a.64.64,0,1,1,0-1.28h2.53a.64.64,0,1,1,0,1.28Z"></path><path class="cls-4" d="M23,127.59a.64.64,0,0,1-.64-.64v-2.81a.64.64,0,0,1,1.28,0V127A.64.64,0,0,1,23,127.59Z"></path><path class="cls-4" d="M23,132.51a.64.64,0,0,1-.64-.64v-2.81a.64.64,0,0,1,1.28,0v2.81A.64.64,0,0,1,23,132.51Z"></path><path class="cls-4" d="M26.91,128.65H24.38a.64.64,0,1,1,0-1.28h2.53a.64.64,0,1,1,0,1.28Z"></path><path class="cls-4" d="M21.54,128.65H19a.64.64,0,0,1,0-1.28h2.53a.64.64,0,0,1,0,1.28Z"></path><rect class="cls-4" x="98.11" y="41.15" width="21.83" height="17.41" rx="4.73" ry="4.73"></rect><path class="cls-9" d="M109,43.88a6,6,0,1,0,6,6A6,6,0,0,0,109,43.88Zm.24,8.18V50H112a7.9,7.9,0,0,1-.32,2.09ZM111,54.44a6.66,6.66,0,0,0,1-1.9h1.82a5.47,5.47,0,0,1-3.58,2.67A6.08,6.08,0,0,0,111,54.44Zm.53-1.9a6.14,6.14,0,0,1-.89,1.59,5,5,0,0,1-1.33,1.21v-2.8Zm-2.22-5.63V44.37h.21a7.46,7.46,0,0,1,1.87,2.53Zm2.61,0a7.84,7.84,0,0,0-.8-1.47,8.07,8.07,0,0,0-.76-.93,5.52,5.52,0,0,1,3.35,2.4Zm-2.61,2.57V47.39h2.28a6.86,6.86,0,0,1,.41,2.09Zm3.18,0a7.36,7.36,0,0,0-.39-2.09h1.88a5.43,5.43,0,0,1,.57,2.09Zm2.07.48a5.44,5.44,0,0,1-.46,2.09h-1.91a8.45,8.45,0,0,0,.3-2.09ZM106,52.06h-2a5.44,5.44,0,0,1-.46-2.09h2.13A8.46,8.46,0,0,0,106,52.06Zm.79-5.15a7.36,7.36,0,0,1,.67-1.18,7.1,7.1,0,0,1,1.21-1.36h.15v2.55Zm2,.48v2.09h-2.64a6.9,6.9,0,0,1,.41-2.09Zm-4.4-.48a5.51,5.51,0,0,1,3.42-2.42,8.08,8.08,0,0,0-.77.95,7.84,7.84,0,0,0-.8,1.47Zm4.4,3.05v2.09h-2.33a7.88,7.88,0,0,1-.32-2.09Zm-5.24-.48a5.43,5.43,0,0,1,.57-2.09H106a7.36,7.36,0,0,0-.39,2.09Zm2.57,3.05a6.66,6.66,0,0,0,1,1.9,6.05,6.05,0,0,0,.74.78,5.54,5.54,0,0,1-3.65-2.69Zm2.67,0v2.77a5.65,5.65,0,0,1-2.16-2.77Z"></path><rect class="cls-4" x="300.7" y="142.2" width="21.83" height="17.41" rx="4.73" ry="4.73"></rect><path class="cls-9" d="M310.19,151.91a4.06,4.06,0,1,1,5.74-.23A4.06,4.06,0,0,1,310.19,151.91Zm4.6-5a2.72,2.72,0,1,0,.15,3.84A2.72,2.72,0,0,0,314.79,146.92Z"></path><path class="cls-9" d="M305.71,156.76a.67.67,0,0,1,0-.95l4.48-4.86a.67.67,0,1,1,1,.91l-4.48,4.86A.67.67,0,0,1,305.71,156.76Z"></path><path class="cls-4" d="M14.57,93.16v11.58a2.77,2.77,0,0,0,2.77,2.77h21l6.35,2.28a.81.81,0,0,0,1-1.05l-2.4-6.2V93.16a2.77,2.77,0,0,0-2.77-2.77H17.34A2.77,2.77,0,0,0,14.57,93.16Z"></path><g class="cls-10"><circle class="cls-5" cx="34.85" cy="99.28" r="2.01"></circle><circle class="cls-5" cx="28.5" cy="99.28" r="2.01"></circle><circle class="cls-5" cx="22.14" cy="99.28" r="2.01"></circle></g><path class="cls-11" d="M122.25,312.34a2.51,2.51,0,0,1-2.29-3.53l18.8-41.95a2.51,2.51,0,0,1,4.57,2l-18.8,41.95A2.51,2.51,0,0,1,122.25,312.34Z"></path><path class="cls-11" d="M211.61,312.34a2.51,2.51,0,0,0,2.29-3.53l-18.8-41.95a2.51,2.51,0,0,0-4.57,2l18.8,41.95A2.51,2.51,0,0,0,211.61,312.34Z"></path><circle class="cls-7" cx="177.16" cy="191.59" r="89.38" transform="translate(-45.15 54.95) rotate(-15.66)"></circle><circle class="cls-3" cx="166.93" cy="191.59" r="89.38" transform="translate(-45.53 52.18) rotate(-15.66)"></circle><path class="cls-9" d="M186,259.61a70.64,70.64,0,1,1,48.95-87.09A70.72,70.72,0,0,1,186,259.61Z"></path><path class="cls-3" d="M180.95,241.57a51.91,51.91,0,1,1,36-64A52,52,0,0,1,180.95,241.57Z"></path><path class="cls-9" d="M175.89,223.53a33.17,33.17,0,1,1,23-40.9A33.21,33.21,0,0,1,175.89,223.53Z"></path><path class="cls-3" d="M170.83,205.49a14.44,14.44,0,1,1,10-17.8A14.45,14.45,0,0,1,170.83,205.49Z"></path><path class="cls-11" d="M169.24,190l-86-96a2.38,2.38,0,1,0-3.54,3.17l86.13,96.19A4.9,4.9,0,0,0,169.24,190Z"></path><polygon class="cls-7" points="120.57 142.76 93.47 141.16 79.08 125.09 86.36 124.48 73.44 118.8 53.17 96.16 80.17 97.65 120.57 142.76"></polygon><polygon class="cls-7" points="124.11 139.59 125.5 112.48 111.11 96.41 109.7 103.58 105.47 90.11 85.2 67.48 83.71 94.47 124.11 139.59"></polygon><path class="cls-3" d="M177.36,33.44S184.58,49,193.29,52.87l-4.56,6.58s-8.57-3.14-11.67-10.23C175.31,44.24,176.14,38.86,177.36,33.44Z"></path><path class="cls-12" d="M219.2,95.17l4,10.75a9.68,9.68,0,0,1-6.53-1.79L213.52,97Z"></path><path class="cls-7" d="M220.74,105.38s2.41-1.87,3.45-1.48,6.5,9.45,8.64,11.51c2.41,2.31,0,6.06-1.06,5.43-8.14-4.94-18.87-10.58-18.87-10.58s1-4.63,2.31-6.41S218.41,105.21,220.74,105.38Z"></path><path class="cls-9" d="M224.64,110.59a.41.41,0,0,1-.29-.7,6.29,6.29,0,0,1,2.66-1.54,2.82,2.82,0,0,1,2.74.94.41.41,0,1,1-.65.49,2,2,0,0,0-1.94-.63,5.56,5.56,0,0,0-2.24,1.32A.41.41,0,0,1,224.64,110.59Z"></path><path class="cls-9" d="M223.79,109.14a.41.41,0,0,1-.29-.7,6.29,6.29,0,0,1,2.66-1.54,2.81,2.81,0,0,1,2.74.94.41.41,0,1,1-.65.49,2,2,0,0,0-1.94-.63,5.53,5.53,0,0,0-2.24,1.32A.41.41,0,0,1,223.79,109.14Z"></path><path class="cls-9" d="M226,111.94a.41.41,0,0,1-.29-.7,6.29,6.29,0,0,1,2.66-1.54,2.81,2.81,0,0,1,2.74.94.41.41,0,0,1-.65.49,2,2,0,0,0-1.94-.63,5.53,5.53,0,0,0-2.24,1.32A.41.41,0,0,1,226,111.94Z"></path><path class="cls-7" d="M221.35,98.18l-2.75.59-1.93.39-2.65.43c-3.78-3-15.26-14.57-17.25-19.88,0,0-13.13,30.54-31.29,30.54-1.18,0,1.94-15.2,4.9-18.36,0,0,16.74-31.19,27.59-27.88C202.82,65.49,208.81,75,221.35,98.18Z"></path><path class="cls-13" d="M218,98.9l-.55.69c-11.14-8.43-18.13-18.32-20.51-22.89a.35.35,0,0,0-.31-.21.18.18,0,0,0-.17.14c-5.33,12.56-11.73,20.09-16.17,24.2a32,32,0,0,1-8.51,6l-.2-.5-.2-.5a31.61,31.61,0,0,0,8.24-5.86c4.34-4,10.61-11.44,15.86-23.79a1.25,1.25,0,0,1,1.12-.79,1.42,1.42,0,0,1,1.3.79C200.29,80.81,206.79,89.52,218,98.9Z"></path><path class="cls-14" d="M212.19,99.17a13.9,13.9,0,0,0,2.64,3.21s5.85-.74,9-2.31l-1.4-3.26A48.07,48.07,0,0,1,212.19,99.17Z"></path><path class="cls-3" d="M146.54,79.27l1.92,14.52C174,108,181.38,84.3,179.36,77.62c-4-17.71-1.93-22.41-2-44.18l-6.88-.95-.55-.08-1.57-.22-9.62-1.32-1.62.55-2,.69-.49.17-9.11,3.08.14,28.4v4.91h0Q145.84,74,146.54,79.27Z"></path><path class="cls-15" d="M153.58,87.86h0c7.2-2,12.46-7,15.6-10.8a41,41,0,0,0,5.14-7.88.36.36,0,0,0-.65-.3,40.23,40.23,0,0,1-5.05,7.74c-3.07,3.73-8.21,8.59-15.22,10.55a.36.36,0,0,0,.19.69Z"></path><path class="cls-15" d="M161.77,88.24c6.26-1.72,11.52-7,11.76-7.24a.36.36,0,0,0-.51-.51c-.06.06-6.25,6.27-13,7.39a.36.36,0,0,0,.12.71A15.74,15.74,0,0,0,161.77,88.24Z"></path><path class="cls-15" d="M157.34,41.94c6.25-1.73,11.5-7,11.74-7.27a.36.36,0,0,0-.51-.5c-.06.06-6.24,6.29-12.93,7.42a.36.36,0,0,0,.12.71A15.78,15.78,0,0,0,157.34,41.94Z"></path><polygon class="cls-12" points="212.22 153.78 214.74 159.39 209.58 161.61 206.57 155.82 212.22 153.78"></polygon><path class="cls-7" d="M213.61,159.27s.53-2.27,1.57-2.63,11.55,2.44,14.45,1.79,3.24,1.54,3.18,2.76-21.5,8.91-21.5,8.91-3.27-6-3.42-8.15S211.72,160.63,213.61,159.27Z"></path><path class="cls-9" d="M219.81,161.72a.41.41,0,0,1-.67-.36,6.29,6.29,0,0,1,1.06-2.88,2.82,2.82,0,0,1,2.7-1,.41.41,0,1,1-.19.8,2,2,0,0,0-1.89.76,5.56,5.56,0,0,0-.88,2.45A.41.41,0,0,1,219.81,161.72Z"></path><path class="cls-9" d="M218.24,161.15a.41.41,0,0,1-.67-.36,6.29,6.29,0,0,1,1.06-2.88,2.81,2.81,0,0,1,2.7-1,.41.41,0,1,1-.18.8,2,2,0,0,0-1.89.76,5.53,5.53,0,0,0-.88,2.45A.41.41,0,0,1,218.24,161.15Z"></path><path class="cls-9" d="M221.7,161.92a.41.41,0,0,1-.67-.36,6.29,6.29,0,0,1,1.06-2.88,2.81,2.81,0,0,1,2.7-1,.41.41,0,1,1-.19.8,2,2,0,0,0-1.89.76,5.53,5.53,0,0,0-.88,2.45A.41.41,0,0,1,221.7,161.92Z"></path><path class="cls-7" d="M213.52,154.87a14.72,14.72,0,0,1-4,2.34l-1,.43c-.58.24-1.17.46-1.71.65,0,0-12.25-22.58-17-39,0,0-41.47-5.12-42.91-19.65a7.86,7.86,0,0,1,0-1.49,10.65,10.65,0,0,1,1.5-4.39c.95-1.63,15.14,0,22.81,2.11,0,0,20.79,8.1,28.48,16.44C203.63,116.56,213.52,154.87,213.52,154.87Z"></path><path class="cls-13" d="M209.53,157.2l-1,.43c-6.2-10.26-14.8-34.21-16.72-40a1.14,1.14,0,0,0-.87-.76c-20.15-3.79-31.76-9.07-38-12.84a40.28,40.28,0,0,1-6-4.4,7.86,7.86,0,0,1,0-1.49,36.82,36.82,0,0,0,6.72,5c6.11,3.7,17.57,8.89,37.47,12.63a2.21,2.21,0,0,1,1.69,1.47C194.76,123.08,203.4,147.15,209.53,157.2Z"></path><path class="cls-14" d="M204.62,155.91l2,3.13a16.94,16.94,0,0,0,8.17-4.17l-1.22-2.79A88,88,0,0,1,204.62,155.91Z"></path><circle class="cls-11" cx="164.31" cy="13.8" r="10.5" transform="translate(122.12 173.21) rotate(-79.98)"></circle><path class="cls-11" d="M174.81,13.75s3.07-.29,3.19-3.2c.1-2.48-3-1.41-2.43-3.26s1.44-3.47-.92-4.37c-2.07-.79-2.36.67-4.79-2-2.87-3.1-6.45,2.27-9.44,1.92-4.41-.51-5.4,1.86-6.18,3.76a3.75,3.75,0,0,0,.66,3.58Z"></path><path class="cls-16" d="M172.4,18.22s2-1.89,2.92.13-1.77,7-4.52,5.22Z"></path><path class="cls-17" d="M171.75,22a.26.26,0,0,0,.27-.14A4,4,0,0,1,174.62,20a.26.26,0,0,0-.1-.5,4.41,4.41,0,0,0-3,2.21.26.26,0,0,0,.12.34Z"></path><path class="cls-17" d="M173.62,21.5a.26.26,0,0,0,.28-.35,2.33,2.33,0,0,0-.81-.93.26.26,0,1,0-.29.42,1.85,1.85,0,0,1,.63.7A.26.26,0,0,0,173.62,21.5Z"></path><path class="cls-12" d="M158.76,26.1l-.94,5.3s1.77,2.72,3.87,3.28,3.85-1.74,3.85-1.74l.9-5.1Z"></path><path class="cls-16" d="M158.76,26.1l-.42,2.35c1.15,1.85,3.63,2.69,7.5,2.8l.6-3.41Z"></path><path class="cls-12" d="M155.58,11.49a52.42,52.42,0,0,0-.5,6.82c0,.53,0,1,.08,1.49.43,4.1,2,11.3,10.34,9.89,3.67-.62,5.95-4.18,7.35-8a38.39,38.39,0,0,0,1.8-7.16,5.62,5.62,0,0,0-2-5.21C168.53,5.92,163.49,6,160.07,6.7A5.6,5.6,0,0,0,155.58,11.49Z"></path><ellipse class="cls-11" cx="169" cy="18.33" rx="1.04" ry="0.66" transform="translate(121.54 181.56) rotate(-79.98)"></ellipse><ellipse class="cls-11" cx="161.37" cy="16.98" rx="1.04" ry="0.66" transform="translate(116.57 172.94) rotate(-79.98)"></ellipse><path class="cls-11" d="M171.68,15.56s-2.52-1.55-4.77-1v1a8.94,8.94,0,0,1,4.42,1.11C171.55,16.23,171.77,16,171.68,15.56Z"></path><path class="cls-11" d="M159.27,13.36s2.9-.59,4.83.68l-.35.94a8.94,8.94,0,0,0-4.53-.47C159.16,14,159,13.79,159.27,13.36Z"></path><path class="cls-16" d="M164,21.61a2.73,2.73,0,0,1-.88-.35.26.26,0,0,1,.27-.43c.21.13.73.37,1,.27a.28.28,0,0,0,.17-.21,38.68,38.68,0,0,0,.53-3.88.26.26,0,0,1,.51,0,37.92,37.92,0,0,1-.55,4,.78.78,0,0,1-.48.55A1.08,1.08,0,0,1,164,21.61Z"></path><path class="cls-9" d="M166.93,23.71a3.29,3.29,0,0,1-3.72,2.38c-2.31-.41-2.65-2.26-2.66-3.5Z"></path><path class="cls-16" d="M163,27.41a2.67,2.67,0,0,1-1.17-.56.26.26,0,0,1,.34-.38,2.18,2.18,0,0,0,.92.44,2.08,2.08,0,0,0,1-.11.26.26,0,0,1,.19.48A2.56,2.56,0,0,1,163,27.41Z"></path><path class="cls-11" d="M172.36,19.94a10.7,10.7,0,0,0,.78-3c0-1.26-.91-2.15-.37-3.27s-.47-2.6-1.35-3-3.09-.3-5-1.66S161,7.78,160.19,9c-1,1.44-.05,1.75-2.23,3.1-.87.54-.29,2.44-.36,3.59a7.71,7.71,0,0,1-.19,1.34l-.06.28-2.24-.4c.06-1.8.26-3.77.47-5.4a5.6,5.6,0,0,1,4.49-4.79c3.42-.67,8.46-.78,12.61,2.65a5.62,5.62,0,0,1,2,5.21,40.8,40.8,0,0,1-1.26,5.56Z"></path><path class="cls-12" d="M155.93,18a9.54,9.54,0,0,0,.17-1.78,2.14,2.14,0,0,0-.85-2,1.4,1.4,0,0,0-1.92.14c-1.54,1.59-1.17,7.45,2,6.67Z"></path><path class="cls-16" d="M155.08,19.29a.26.26,0,0,1-.16-.26,4,4,0,0,0-1.21-3,.26.26,0,0,1,.34-.38,4.41,4.41,0,0,1,1.38,3.43.26.26,0,0,1-.28.23Z"></path><path class="cls-16" d="M153.75,17.87a.26.26,0,0,1-.06-.45,2.33,2.33,0,0,1,1.18-.37.26.26,0,1,1,0,.51,1.85,1.85,0,0,0-.9.28A.26.26,0,0,1,153.75,17.87Z"></path><rect class="cls-7" x="120.28" y="73.77" width="125.26" height="15.61" transform="translate(11.74 185.56) rotate(-55.31)"></rect><rect class="cls-3" x="124.07" y="83.67" width="125.26" height="1.04" transform="translate(11.22 189.8) rotate(-55.31)"></rect><rect class="cls-3" x="120.28" y="81.06" width="125.26" height="1.04" transform="translate(11.74 185.56) rotate(-55.31)"></rect><rect class="cls-3" x="116.5" y="78.44" width="125.26" height="1.04" transform="translate(12.26 181.32) rotate(-55.31)"></rect><rect class="cls-11" x="145.86" y="122.58" width="6.55" height="15.61" transform="translate(-42.95 178.82) rotate(-55.31)"></rect><path class="cls-7" d="M153.69,137.52l-1.06,1.53a7.81,7.81,0,0,1-10.86,2h0a7.81,7.81,0,0,1-2-10.86l1.06-1.53Z"></path><polygon class="cls-12" points="212.13 25.64 224.97 34.52 227.13 23.26 227.57 20.92 228.84 14.3 223.14 18.17 220.92 19.68 212.13 25.64"></polygon><path class="cls-4" d="M223.14,18.17A8.12,8.12,0,0,0,225,19.88a5.63,5.63,0,0,0,2.6,1l1.26-6.62Z"></path><path class="cls-12" d="M177.37,83.59h1.23A2.69,2.69,0,0,0,181,82a16,16,0,0,1,.72-1.5,6.8,6.8,0,0,1,2.74-2.1c.59,0,.48,1.06.06,1.54a9.88,9.88,0,0,0-1.42,1.77c-.35.68,2.88,2.05,4.19,2.37s3.62-.38,3.84.7-1.5,1.25-1.5,1.25.51,1-.93,1.79a1.32,1.32,0,0,1-.67,1.47,1.48,1.48,0,0,1-1,1.54c-1.08.32-4.44,1.29-11-2.7Z"></path><path class="cls-3" d="M154.76,55.61c2.49,9.4,4.93,13.56,4.93,13.56a34.77,34.77,0,0,0,8.53,8.3,111.92,111.92,0,0,0,10.39,6.12c-1.1,1.44-1.88,4.28-1.46,5.12-13.31,0-25-12.61-25-12.61-9.31-16.21-9.92-29.41-9.77-34.22a9.18,9.18,0,0,1,1.48-4.77,4.77,4.77,0,0,1,1.79-1.74,9.7,9.7,0,0,1,5.38,6.17C152.46,46.24,154.76,55.61,154.76,55.61Z"></path><path class="cls-12" d="M210.26,56s-2.77-1-4-.45S208.47,58,208.47,58s-4.28-2.28-5-1.36,3.35,3.25,3.35,3.25-3.13-1.1-3.77-.45,2.28,2.47,2.28,2.47-2.57-.62-3.11-.18S204,64,205.41,64.48s1.68-1.55,1.68-1.55,1.36-1.2,1.18-2c0,0,1.41-1,1.51-1.92C209.78,59,211.77,57.22,210.26,56Z"></path><path class="cls-12" d="M93.73,164.57a90.86,90.86,0,0,0,7.52,11.74,30.85,30.85,0,0,0,3.69,4c2,1.77,4,2.69,5.54,1.91,5.89-2.91,20.59-27.06,20.59-27.06l-3.15-3.65S120.43,159,116.15,163c-3.94,3.65-7,6.38-7,6.38-.55-.81-1.13-1.71-1.73-2.65s-1.31-2.06-2-3.15C100.54,155.66,94.61,147,94.61,147Z"></path><path class="cls-16" d="M101.26,176.31a30.85,30.85,0,0,0,3.69,4l2.5-13.62c-.64-1-1.31-2.06-2-3.15Z"></path><path class="cls-8" d="M94.43,146.39l12.45,18-4,16-9.77-15.59S91.32,154.33,94.43,146.39Z"></path><path class="cls-12" d="M127.16,150.1a4.2,4.2,0,0,0-.4,3l3.47,3.38a9.12,9.12,0,0,0,2.19-.46Z"></path><path class="cls-12" d="M129.58,144.06s-1.94,2.83-1.73,4.43,3.43-1.81,3.43-1.81-3.86,4.14-3,5.25,4.67-2.8,4.67-2.8-2.19,3.2-1.65,4.11,3.48-1.83,3.48-1.83-1.48,2.71-1.14,3.45,3.08-1.28,4.07-2.77-1.24-2.36-1.24-2.36-.94-1.9-1.93-1.94c0,0-.65-1.88-1.72-2.29C132.77,145.5,131.39,142.72,129.58,144.06Z"></path><polygon class="cls-12" points="88.04 300.05 88.04 305.72 82.75 305.63 82.4 299.63 88.04 300.05"></polygon><path class="cls-7" d="M74.6,217.21c0,.67.22,3.91.5,8.42.75,12.39,2.14,34.42,3,39.36s.46,21.72.19,30.44a5.21,5.21,0,0,0,1.5,3.82,5.59,5.59,0,0,0,1.23.94,5.48,5.48,0,0,0,2.66.69h4a5.33,5.33,0,0,0,5.39-5.44c-.23-7.37-.5-20.81,0-31.19.5-9.88-.23-27.36-.79-38.26h0c-.23-4.35-.42-7.65-.5-9Z"></path><path class="cls-7" d="M91.78,217l-17.17.22c0,.67.22,3.91.5,8.42a74,74,0,0,0,17.18.35C92.05,221.63,91.86,218.34,91.78,217Z"></path><path class="cls-13" d="M79.81,279.89c-.15,5.57-.31,11.33-.2,16,0,1.3.08,2.42.14,3.37a5.23,5.23,0,0,0,1.23.94c-.1-1.11-.18-2.53-.22-4.34-.1-4.62.06-10.36.21-15.92.18-6.79.36-13.21,0-15.94-.82-6-2.67-38.38-3.15-47l-1.16.05c.48,8.65,2.33,41.12,3.16,47.14C80.17,266.77,80,273.15,79.81,279.89Z"></path><path class="cls-7" d="M86.68,305.5s1.1-1.51,2-1.47,7.94,5.28,10.32,5.68,2,2.11,1.54,3-18.91.08-18.91.08-.63-5.38-.06-7S84.84,305.93,86.68,305.5Z"></path><path class="cls-9" d="M90.59,309.18a.34.34,0,0,1-.26,0,.32.32,0,0,1-.13-.44,5,5,0,0,1,1.69-1.8,2.33,2.33,0,0,1,2.35.06.32.32,0,0,1,.08.45.34.34,0,0,1-.46.08,1.66,1.66,0,0,0-1.66,0A4.46,4.46,0,0,0,90.78,309,.33.33,0,0,1,90.59,309.18Z"></path><path class="cls-9" d="M89.58,308.29a.34.34,0,0,1-.26,0,.32.32,0,0,1-.13-.44,5,5,0,0,1,1.69-1.8,2.33,2.33,0,0,1,2.35.06.32.32,0,0,1,.08.45.34.34,0,0,1-.46.08,1.66,1.66,0,0,0-1.66,0,4.43,4.43,0,0,0-1.42,1.54A.33.33,0,0,1,89.58,308.29Z"></path><path class="cls-9" d="M91.95,309.9a.34.34,0,0,1-.26,0,.32.32,0,0,1-.13-.44,5,5,0,0,1,1.69-1.8,2.33,2.33,0,0,1,2.35.06.32.32,0,0,1,.08.45.34.34,0,0,1-.46.08,1.66,1.66,0,0,0-1.66,0,4.43,4.43,0,0,0-1.42,1.54A.33.33,0,0,1,91.95,309.9Z"></path><polygon class="cls-12" points="62.26 300.05 61.69 305.71 56.97 305.63 56.63 299.63 62.26 300.05"></polygon><path class="cls-7" d="M52.54,264.24c.53,10.38.25,23.82,0,31.19a5.33,5.33,0,0,0,5.39,5.44h4a5.51,5.51,0,0,0,2.48-.59,5.35,5.35,0,0,0,2.91-4.85c-.27-8.71-.65-25.36.19-30.44s2.27-27.73,3-40c.24-4.1.41-7,.45-7.75l-17.2.22c-.05.87-.13,2.22-.23,3.92C53,231.21,52,252.81,52.54,264.24Z"></path><path class="cls-13" d="M53.59,221.4a169.91,169.91,0,0,0,17,3.6c.24-4.1.41-7,.45-7.75l-17.2.22C53.76,218.35,53.68,219.7,53.59,221.4Z"></path><path class="cls-7" d="M64.68,295.84c0,1.87-.12,3.31-.22,4.44a5.28,5.28,0,0,0,1.22-.85c.07-1,.12-2.17.15-3.56.1-4.64-.06-10.41-.21-16-.18-6.75-.35-13.12,0-15.76.83-6,2.68-38.51,3.16-47.14l-1.15-.05c-.48,8.64-2.33,41.06-3.15,47-.38,2.73-.2,9.15,0,15.94C64.62,285.48,64.78,291.23,64.68,295.84Z"></path><path class="cls-7" d="M59.85,304.84a22.28,22.28,0,0,0-3.07-.62c-.67,0-5.13,4.9-6.63,5.19-2.72.52-2.73,4.69-1.07,4.9,4.79.6,13-1.39,13-1.39s.76-5.35.43-7S61.19,305.33,59.85,304.84Z"></path><path class="cls-9" d="M55.88,309.4a.34.34,0,0,0,.26,0,.32.32,0,0,0,.09-.45,5.07,5.07,0,0,0-1.86-1.64,2.33,2.33,0,0,0-2.34.28.32.32,0,0,0,0,.46.34.34,0,0,0,.47,0,1.66,1.66,0,0,1,1.65-.17,4.48,4.48,0,0,1,1.56,1.4A.33.33,0,0,0,55.88,309.4Z"></path><path class="cls-9" d="M56.8,308.42a.34.34,0,0,0,.26,0,.32.32,0,0,0,.09-.45,5.07,5.07,0,0,0-1.86-1.64,2.32,2.32,0,0,0-2.34.28.32.32,0,0,0,0,.46.34.34,0,0,0,.47,0,1.66,1.66,0,0,1,1.65-.17,4.46,4.46,0,0,1,1.56,1.4A.33.33,0,0,0,56.8,308.42Z"></path><path class="cls-9" d="M54.6,310.24a.34.34,0,0,0,.26,0,.32.32,0,0,0,.09-.45,5.07,5.07,0,0,0-1.86-1.64,2.32,2.32,0,0,0-2.34.28.32.32,0,0,0,0,.46.34.34,0,0,0,.47,0,1.66,1.66,0,0,1,1.65-.17,4.46,4.46,0,0,1,1.56,1.4A.33.33,0,0,0,54.6,310.24Z"></path><path class="cls-8" d="M49.91,219a95.61,95.61,0,0,0,46.56,0c.08-5.67.16-28.37-.28-47q0-.55,0-1.09c0-.18,0-.36,0-.54v0c0-.23,0-.46,0-.69-.33-12.28-.91-22.31-1.9-23.65h0c-2.31-3.11-13.94-8.09-17.16-10.31-.27.42-1.85,2.77-3.92,2.95-2.28.2-4.3-2.43-4.3-2.43v-.5c-3.23,2.22-13.76,6.82-16.07,9.93C50.24,149,49.8,209.28,49.91,219Z"></path><path class="cls-15" d="M91.45,163.22a56.69,56.69,0,0,1,4.16,7.62l.29.63.16.34a.34.34,0,0,0,.13.15q0-.55,0-1.09c0-.18,0-.36,0-.54v0L95.51,169A45.68,45.68,0,0,0,92,162.8a.37.37,0,0,0-.5-.07A.35.35,0,0,0,91.45,163.22Z"></path><path class="cls-15" d="M61.7,149.51h0a25.27,25.27,0,0,0,13.85-4.79,24.23,24.23,0,0,0,4.89-4.52.35.35,0,0,0-.07-.49.36.36,0,0,0-.5.07c-.07.09-6.73,8.66-18.18,9a.35.35,0,1,0,0,.7Z"></path><path class="cls-15" d="M82.49,207.11a.35.35,0,0,0,0-.7,26.24,26.24,0,0,1-19.46-9.78,27.07,27.07,0,0,1-4.77-8.88.36.36,0,0,0-.44-.25.35.35,0,0,0-.26.43A27.24,27.24,0,0,0,62.48,197a27,27,0,0,0,20,10.08Z"></path><path class="cls-15" d="M77.06,200.81a.36.36,0,0,0,.35-.26.35.35,0,0,0-.25-.43c-8.8-2.33-10.5-9.53-10.52-9.61a.36.36,0,0,0-.43-.27.35.35,0,0,0-.28.42,12.46,12.46,0,0,0,2,4.16,15.75,15.75,0,0,0,9,6Z"></path><path class="cls-12" d="M38.51,218.33c.22,3.09,2.11,5.38,2.12,7.41s2.4.7,1.3-3.31.54-7.9,1.41-7.86-.28,4.52.64,6,1.62-1.64,2.43-3.57.37-6.18-.39-9.11,3-21.55,2.48-26.79l1.35-6.8.79-4,.15-4.14-7.2-2.79c-.27,1.33-.55,2.71-.82,4.1-.12.61-.24,1.22-.36,1.84-1,5-1.83,9.85-2.18,13-1,8.67.62,26.34.62,26.34S38.3,215.43,38.51,218.33Z"></path><path class="cls-16" d="M42.41,169.32a16,16,0,0,0,7.44,5l.79-4,.15-4.14-7.2-2.79c-.27,1.33-.55,2.71-.82,4.1C42.64,168.1,42.52,168.71,42.41,169.32Z"></path><path class="cls-8" d="M40.41,165.4a15.2,15.2,0,0,0,2.36,2.09,13.7,13.7,0,0,0,7.86,2.84c.4-11.48,1-21.19,1.84-24C50.95,148.13,43.65,157.18,40.41,165.4Z"></path><path class="cls-15" d="M55.57,162.07a56.73,56.73,0,0,0-4.16,7.62l-.29.63-.16.34a.36.36,0,0,1-.33.21h0c0-.18,0-.36,0-.54h-.31l.33-.72c.21-.45.5-1.07.85-1.77a45.62,45.62,0,0,1,3.49-6.2.36.36,0,0,1,.5-.07A.35.35,0,0,1,55.57,162.07Z"></path><path class="cls-11" d="M62.07,117.21c0,6.22,3.91,10.51,10.26,10.51A10.42,10.42,0,0,0,83.1,116.89C83.1,110.67,79.34,106,73,106,65.38,106,62.07,111,62.07,117.21Z"></path><path class="cls-11" d="M62.45,116.38s-1.32-.16-1.76-4.28,2.71-3.06,4-5.24,2.82-5.24,6.21-4.24,6.26,1.87,9.32.44,6.55,2.62,5.86,5.36-4.37,3.74-4.37,3.74Z"></path><path class="cls-16" d="M63.5,119.89s-1.76-2.3-3.08-.4.54,7.53,3.75,6.16Z"></path><path class="cls-17" d="M63.48,123.91a.27.27,0,0,1-.26-.19,4.16,4.16,0,0,0-2.35-2.45.26.26,0,0,1-.16-.34.27.27,0,0,1,.35-.15,4.63,4.63,0,0,1,2.68,2.8.27.27,0,0,1-.19.33Z"></path><path class="cls-17" d="M61.62,123a.27.27,0,0,1-.15,0,.26.26,0,0,1-.08-.37,2.46,2.46,0,0,1,1-.8.27.27,0,0,1,.36.13.26.26,0,0,1-.14.35,2,2,0,0,0-.78.61A.27.27,0,0,1,61.62,123Z"></path><path class="cls-16" d="M81.68,119.89s1.76-2.3,3.08-.4S84.21,127,81,125.65Z"></path><path class="cls-17" d="M81.7,123.91a.27.27,0,0,0,.26-.19,4.16,4.16,0,0,1,2.35-2.45.26.26,0,0,0,.16-.34.27.27,0,0,0-.35-.15,4.63,4.63,0,0,0-2.68,2.8.27.27,0,0,0,.19.33Z"></path><path class="cls-17" d="M83.55,123a.27.27,0,0,0,.15,0,.26.26,0,0,0,.08-.37,2.46,2.46,0,0,0-1-.8.27.27,0,0,0-.36.13.26.26,0,0,0,.14.35,2,2,0,0,1,.78.61A.27.27,0,0,0,83.55,123Z"></path><path class="cls-12" d="M76.93,130.42V136s-1.7,2.85-4,3-4.35-2.45-4.35-2.45v-5.79Z"></path><path class="cls-16" d="M76.93,130.42v2.48c-1.55,1.68-4.29,2.1-8.35,1.51v-3.6Z"></path><path class="cls-12" d="M62.56,119.71a33,33,0,0,0,.46,3.68c.77,4.13,2.49,8.18,6.21,9.48,8.42,2.94,11.42-4.13,12.63-8.25.13-.46.25-1,.36-1.51.19-1,.34-2.08.46-3.18.14-1.34.23-2.69.29-3.88a5.82,5.82,0,0,0-3.81-5.72c-3.45-1.3-8.69-2.33-13.66.43a5.82,5.82,0,0,0-3,5C62.43,116.86,62.45,118.23,62.56,119.71Z"></path><path class="cls-11" d="M62.56,119.71a33,33,0,0,0,.46,3.68c.77,4.13,2.49,8.18,6.21,9.48,8.42,2.94,11.42-4.13,12.63-8.25.13-.46.25-1,.36-1.51.19-1,.34-2.08.46-3.18H81.44c-.26.77-1.63,5.45-2.07,6.11-1-2.25-5.81-.76-5.81-.76h0a3,3,0,0,1-1.83,0s-4.8-1.56-5.8.59c-.44-.67-2-5.44-2.3-5.94Zm10.05,6.6c5.49-.73,4.63,2.17,4.63,2.17a9.18,9.18,0,0,1-1.54,1.15,6.45,6.45,0,0,1-3.24.86c-.84,0-1.07.13-3.21-1a5.34,5.34,0,0,1-1.13-.84h0C68,128.09,67.1,125.38,72.61,126.31Z"></path><ellipse class="cls-11" cx="68.28" cy="120.62" rx="0.7" ry="1.08"></ellipse><ellipse class="cls-11" cx="76.55" cy="120.59" rx="0.7" ry="1.08"></ellipse><path class="cls-11" d="M65.49,117.56s2.69-1,4.76-.16L70,118.53a13.53,13.53,0,0,0-4.57.36A1.92,1.92,0,0,1,65.49,117.56Z"></path><path class="cls-11" d="M78.87,117.56s-2.69-1-4.76-.16l.21,1.13a13.53,13.53,0,0,1,4.57.36A1.92,1.92,0,0,0,78.87,117.56Z"></path><path class="cls-16" d="M72.68,124.8a2.94,2.94,0,0,0,1-.2.26.26,0,0,0,.15-.35.27.27,0,0,0-.35-.15,1.66,1.66,0,0,1-1.09.1.29.29,0,0,1-.13-.25,39.44,39.44,0,0,1,.16-4.07.27.27,0,0,0-.54,0A38.59,38.59,0,0,0,71.7,124a.81.81,0,0,0,.39.65A1.16,1.16,0,0,0,72.68,124.8Z"></path><path class="cls-9" d="M69,126.75a3.46,3.46,0,0,0,3.44,3.1,3.33,3.33,0,0,0,3.43-3.1Z"></path><path class="cls-11" d="M82.67,119.93H81.44c.14-1.21.33-3.34-.68-3.65-3.2-1,.95-3.18-.5-4.29s-5-.63-7.55-.71a54.81,54.81,0,0,0-7.55.18c-1,.22-.44,1.82-.08,3.06s-1.21,2.61-1.47,3.89a5.54,5.54,0,0,0,0,1.51h-1c-.12-1.56-.14-3-.12-4.2a5.83,5.83,0,0,1,3-5c5-2.76,10.21-1.73,13.66-.43A5.82,5.82,0,0,1,83,116C82.89,117.24,82.8,118.59,82.67,119.93Z"></path><path class="cls-9" d="M71.46,119.88a1.15,1.15,0,0,0-.11-.48,1.18,1.18,0,0,0-1.07-.68H66.1a1.18,1.18,0,0,0-.84.35,1.21,1.21,0,0,0-.35.84v.53a3.32,3.32,0,0,0,1,2.37,3,3,0,0,0,2.1.93h.11a3.38,3.38,0,0,0,3.37-3.38v-.45A.19.19,0,0,0,71.46,119.88Zm-.49.48a2.88,2.88,0,0,1-2.88,2.89H68a2.57,2.57,0,0,1-1.76-.79,2.82,2.82,0,0,1-.83-2v-.53a.69.69,0,0,1,.69-.69h4.17a.69.69,0,0,1,.69.69Z"></path><path class="cls-9" d="M79.78,119.59a1.16,1.16,0,0,0-.23-.44,1.19,1.19,0,0,0-.91-.43H74.46a1.18,1.18,0,0,0-1.09.71,1.14,1.14,0,0,0-.1.45.11.11,0,0,0,0,0v.53a3.32,3.32,0,0,0,1,2.37,3,3,0,0,0,2.09.93h.11a3.38,3.38,0,0,0,3.37-3.38v-.45A1.08,1.08,0,0,0,79.78,119.59Zm-.45.77a2.89,2.89,0,0,1-2.88,2.89h-.1a2.57,2.57,0,0,1-1.76-.79,2.83,2.83,0,0,1-.83-2v-.53a.69.69,0,0,1,.69-.69h4.18a.69.69,0,0,1,.69.69Z"></path><path class="cls-9" d="M62.51,119a5.88,5.88,0,0,1,2,.48c.13.06.45.25.46.26l.23-.42s-.31-.2-.42-.26a5,5,0,0,0-3.42-.3A2.5,2.5,0,0,1,62.51,119Z"></path><path class="cls-9" d="M82.76,119a7.14,7.14,0,0,0-2.52.53c-.13.06-.45.25-.46.26l-.23-.42s.31-.2.42-.26a5.59,5.59,0,0,1,3.62-.34A1.44,1.44,0,0,0,82.76,119Z"></path><path class="cls-9" d="M71.13,119.93l-.16-.47a5,5,0,0,1,1.48-.25,3.32,3.32,0,0,1,1.35.26l-.21.44a2.89,2.89,0,0,0-1.14-.21A4.61,4.61,0,0,0,71.13,119.93Z"></path><path class="cls-4" d="M310.66,260.86H249.79c1-6.11,5.85-10.54,11.5-10.53l18.94.06,18.94-.06C304.81,250.32,309.65,254.75,310.66,260.86Z"></path><rect class="cls-4" x="254.57" y="259.99" width="3.32" height="51.41"></rect><rect class="cls-4" x="302.56" y="259.99" width="3.32" height="51.41"></rect><rect class="cls-5" x="257.89" y="275.89" width="44.66" height="3.2"></rect><path class="cls-4" d="M290.43,211.08l7.05,26.24a46.56,46.56,0,0,1-15.75,3.45q-1.36.08-2.8.09t-2.7,0a59.11,59.11,0,0,1-16.13-2.64l7.49-27.12L260.54,189l14.08-5.48h7.74l15.33,5.62Z"></path><path class="cls-9" d="M278.45,190.57c-5.61,0-6-6.44-6-6.5a.37.37,0,0,1,.75,0c0,.24.34,5.79,5.23,5.79s5.44-5.4,5.46-5.63a.37.37,0,1,1,.75.05C284.65,184.31,284.14,190.57,278.45,190.57Z"></path><path class="cls-15" d="M269.66,197.54h0a23.29,23.29,0,0,0,12.76-4.41,22.33,22.33,0,0,0,4.51-4.16.32.32,0,0,0-.07-.45.34.34,0,0,0-.46.07c-.06.08-6.2,8-16.76,8.31a.32.32,0,1,0,0,.65Z"></path><path class="cls-4" d="M260.54,189s-7.13,9.88-6.44,21.85C254.72,221.76,263,229,263,229l3.23-5.27s-3.65-6.37-3.83-12.91,1.77-10.35,1.77-10.35Z"></path><path class="cls-4" d="M297.7,189.14s6.46,9.66,7.13,20.57S297,229,297,229l-3.23-5.27a30.79,30.79,0,0,0,3.36-12.34,17.13,17.13,0,0,0-3.63-10.91Z"></path><path class="cls-9" d="M281.73,240.76q-1.36.08-2.8.09t-2.7,0l2.62-17.87Z"></path><path class="cls-13" d="M259.4,244.82s8.51,8.72,20.12,8.72c14.1,0,20.11-7.09,20.11-7.09l-2.15-9.13-37.78.8Z"></path><polygon class="cls-12" points="286.29 301.2 286.54 306.5 291.64 305.43 291.64 301.02 286.29 301.2"></polygon><path class="cls-7" d="M280.27,249.5a13.56,13.56,0,0,1,.3-3.79c.79-4.45,3.36-13.52,11-12.49,10.14,1.36,7.05,20.63,7.05,20.63L292.1,301l-6.48.24S282.85,273.74,280.27,249.5Z"></path><path class="cls-11" d="M293.24,298.52l-8.28.62.12,3.29s5.48-.3,7.6-.54Z"></path><path class="cls-7" d="M249.75,233.33s9.23,13.79,19.77,19.25c11.26,5.83,16.56-4.86,16.56-4.86S261,230.11,249.75,233.33Z"></path><path class="cls-7" d="M299.36,230.79H258.59l-3.77-22a3.12,3.12,0,0,1,3.08-3.65H300a3.12,3.12,0,0,1,3.08,3.65Z"></path><path class="cls-3" d="M258.59,230.79H299.4a0,0,0,0,1,0,0v1.54a3.25,3.25,0,0,1-3.25,3.25H261.83a3.25,3.25,0,0,1-3.25-3.25v-1.54A0,0,0,0,1,258.59,230.79Z"></path><circle class="cls-3" cx="279.39" cy="218.85" r="3.54"></circle><polygon class="cls-12" points="305.6 250.64 310.79 251.78 311.62 247.3 306.82 245.43 305.6 250.64"></polygon><path class="cls-7" d="M307.91,246A16,16,0,0,1,306,251S263.75,241,256.71,238.14a19.81,19.81,0,0,1-7.19-5.07,15,15,0,0,1-1.18-1.5c-2.17-3.18-2.54-6.71.89-9.11,6.41-4.49,14,0,14,0s8.74,1.15,24.59,11.24C294.81,238.18,307.91,246,307.91,246Z"></path><path class="cls-13" d="M305,249.12l-.19.72c-.3-.08-30.42-7.85-41.76-11.45a87.5,87.5,0,0,1-13.49-5.33,15,15,0,0,1-1.18-1.5,77.81,77.81,0,0,0,14.89,6.12C274.56,241.27,304.66,249,305,249.12Z"></path><path class="cls-14" d="M305.58,243.73,303.76,251l2.83.52s1.49-4.6,1.87-6.47Z"></path><path class="cls-11" d="M269.24,170.85s-4-6.91-.63-12.24,10.64-4.83,12.52-4.41,12.67,5.48,6.14,17.75Z"></path><path class="cls-16" d="M269.92,168.89s-1.64-2.18-2.85-.38.5,7.13,3.48,5.83Z"></path><path class="cls-17" d="M269.89,172.7a.25.25,0,0,1-.24-.18,3.89,3.89,0,0,0-2.18-2.32.25.25,0,0,1,.18-.47,4.33,4.33,0,0,1,2.49,2.65.25.25,0,0,1-.17.31Z"></path><path class="cls-17" d="M268.18,171.87a.25.25,0,0,1-.21-.39,2.3,2.3,0,0,1,.94-.76.25.25,0,1,1,.21.46,1.82,1.82,0,0,0-.73.57A.25.25,0,0,1,268.18,171.87Z"></path><path class="cls-16" d="M286.77,168.89s1.64-2.18,2.85-.38-.5,7.13-3.48,5.83Z"></path><path class="cls-17" d="M286.79,172.7a.25.25,0,0,0,.24-.18,3.89,3.89,0,0,1,2.18-2.32.25.25,0,0,0-.18-.47,4.33,4.33,0,0,0-2.49,2.65.25.25,0,0,0,.17.31Z"></path><path class="cls-17" d="M288.51,171.87a.25.25,0,0,0,.21-.39,2.29,2.29,0,0,0-.94-.76.25.25,0,0,0-.21.46,1.82,1.82,0,0,1,.73.57A.25.25,0,0,0,288.51,171.87Z"></path><path class="cls-12" d="M282.37,178.86v5.3s-1.58,2.7-3.71,2.88-4-2.32-4-2.32v-5.48Z"></path><path class="cls-16" d="M282.37,178.86v2.35c-1.43,1.59-4,2-7.74,1.43v-3.41Z"></path><path class="cls-12" d="M287.95,165.26a51.51,51.51,0,0,1-.69,6.69c-.1.51-.21,1-.33,1.43-1.11,3.9-3.9,10.59-11.71,7.81-3.45-1.23-5-5.07-5.76-9a37.75,37.75,0,0,1-.52-7.25,5.53,5.53,0,0,1,2.81-4.7c4.61-2.61,9.47-1.64,12.67-.41A5.51,5.51,0,0,1,287.95,165.26Z"></path><path class="cls-11" d="M276.24,157.72s10.3,16.52,11.72,10.46C290,159.6,283.82,154.28,276.24,157.72Z"></path><path class="cls-11" d="M275.81,157.72c-6.85.05-10.26,7.84-7.08,8.76,4.42,1.28,8.26-5,9.44-7.15C277.37,158.81,276.58,158.29,275.81,157.72Z"></path><circle class="cls-11" cx="281.52" cy="154.02" r="6.78"></circle><path class="cls-11" d="M270.15,165.74a5.16,5.16,0,0,1,0,3.46c-.73,1.39-.14,3.78.19,6.46a6.89,6.89,0,0,1-1.61-4.26c-.07-2.62.36-4.8,0-5.85Z"></path><path class="cls-11" d="M286.33,165.74a5.74,5.74,0,0,0,.19,3.46c.73,1.39-.05,3.82-.38,6.5a7.07,7.07,0,0,0,1.61-4.29c.07-2.62-.36-4.8,0-5.85Z"></path><ellipse class="cls-11" cx="274.25" cy="169.52" rx="0.65" ry="1.02"></ellipse><ellipse class="cls-11" cx="282.29" cy="169.52" rx="0.65" ry="1.02"></ellipse><path class="cls-11" d="M273,166.16a10.86,10.86,0,0,1,2.78-.42.48.48,0,0,1,.48.57h0a.48.48,0,0,1-.5.4,12.22,12.22,0,0,0-3.81.47.73.73,0,0,1,.22-.52A1.68,1.68,0,0,1,273,166.16Z"></path><path class="cls-11" d="M283.48,166.18a10.86,10.86,0,0,0-2.78-.42.48.48,0,0,0-.48.57h0a.48.48,0,0,0,.5.4,12.22,12.22,0,0,1,3.81.47.73.73,0,0,0-.22-.52A1.68,1.68,0,0,0,283.48,166.18Z"></path><path class="cls-16" d="M278.43,173.87a1.06,1.06,0,0,1-.55-.13.77.77,0,0,1-.37-.61,37.26,37.26,0,0,1,.15-3.95.25.25,0,0,1,.5,0,38,38,0,0,0-.15,3.85.27.27,0,0,0,.12.23,1.51,1.51,0,0,0,1-.1.25.25,0,0,1,.19.47A2.68,2.68,0,0,1,278.43,173.87Z"></path><path class="cls-9" d="M275.31,175.46a3,3,0,0,0,3,2.72,2.89,2.89,0,0,0,2.94-2.72Z"></path><path class="cls-16" d="M278.24,179.65a2.52,2.52,0,0,1-1.18-.35.25.25,0,0,1,.26-.43h0a2,2,0,0,0,.92.27,2.14,2.14,0,0,0,1-.27.25.25,0,0,1,.26.43A2.63,2.63,0,0,1,278.24,179.65Z"></path><path class="cls-9" d="M277.2,168.62a1.21,1.21,0,0,0-.12-.5,1.24,1.24,0,0,0-1.12-.71h-4.37a1.24,1.24,0,0,0-.88.36,1.26,1.26,0,0,0-.36.88v.56a3.48,3.48,0,0,0,1,2.49,3.19,3.19,0,0,0,2.2,1h.12a3.54,3.54,0,0,0,3.53-3.54v-.47A.21.21,0,0,0,277.2,168.62Zm-.51.51a3,3,0,0,1-3,3h-.11a2.69,2.69,0,0,1-1.85-.83,3,3,0,0,1-.87-2.12v-.56a.73.73,0,0,1,.73-.73H276a.73.73,0,0,1,.73.73Z"></path><path class="cls-9" d="M286.32,168.32a1.22,1.22,0,0,0-.24-.46,1.25,1.25,0,0,0-1-.45h-4.38a1.24,1.24,0,0,0-1.14.74,1.2,1.2,0,0,0-.1.48.11.11,0,0,0,0,0v.56a3.48,3.48,0,0,0,1,2.49,3.19,3.19,0,0,0,2.2,1h.12a3.54,3.54,0,0,0,3.53-3.54v-.47A1.13,1.13,0,0,0,286.32,168.32Zm-.47.81a3,3,0,0,1-3,3h-.11a2.69,2.69,0,0,1-1.85-.83,3,3,0,0,1-.87-2.12v-.56a.73.73,0,0,1,.73-.73h4.38a.73.73,0,0,1,.73.73Z"></path><path class="cls-9" d="M276.95,168.67l-.17-.49a5.27,5.27,0,0,1,1.55-.26,3.47,3.47,0,0,1,1.42.27l-.23.46a3,3,0,0,0-1.19-.22A4.82,4.82,0,0,0,276.95,168.67Z"></path><path class="cls-7" d="M288.43,305.13a24.83,24.83,0,0,1,3.39-.85c.74,0,6,5.19,7.65,5.43,3.06.44,3.28,5.08,1.45,5.4-5.31.92-14.55-.86-14.55-.86s-1.12-5.92-.84-7.8S287,305.75,288.43,305.13Z"></path><path class="cls-9" d="M293.09,310a.38.38,0,0,1-.29,0,.36.36,0,0,1-.12-.5,5.65,5.65,0,0,1,2-1.92,2.59,2.59,0,0,1,2.62.19.36.36,0,0,1,.06.51.38.38,0,0,1-.52.06,1.85,1.85,0,0,0-1.84-.1,5,5,0,0,0-1.66,1.64A.37.37,0,0,1,293.09,310Z"></path><path class="cls-9" d="M292,309a.38.38,0,0,1-.29,0,.36.36,0,0,1-.12-.5,5.66,5.66,0,0,1,2-1.92,2.59,2.59,0,0,1,2.62.19.36.36,0,0,1,.06.51.37.37,0,0,1-.52.06,1.85,1.85,0,0,0-1.84-.1,5,5,0,0,0-1.66,1.64A.37.37,0,0,1,292,309Z"></path><path class="cls-9" d="M294.56,310.88a.38.38,0,0,1-.29,0,.36.36,0,0,1-.12-.5,5.66,5.66,0,0,1,2-1.92,2.59,2.59,0,0,1,2.62.19.36.36,0,0,1,.06.51.38.38,0,0,1-.52.06,1.85,1.85,0,0,0-1.84-.1,5,5,0,0,0-1.66,1.64A.37.37,0,0,1,294.56,310.88Z"></path><path class="cls-7" d="M310.16,249.69a23.9,23.9,0,0,1,1.82-3c.53-.54,8.36-.6,9.78-1.63,2.57-1.87,6.31,1.24,5.21,2.77-3.17,4.43-11.29,9.76-11.29,9.76s-5.38-3.37-6.63-4.89S309.56,251.18,310.16,249.69Z"></path><path class="cls-9" d="M317.32,249.81a.38.38,0,0,1-.24.18.39.39,0,0,1-.47-.26,5.37,5.37,0,0,1,0-2.76,2.66,2.66,0,0,1,2.05-1.73.39.39,0,0,1,.44.31.37.37,0,0,1-.33.41,1.89,1.89,0,0,0-1.42,1.24,4.74,4.74,0,0,0,0,2.34A.35.35,0,0,1,317.32,249.81Z"></path><path class="cls-9" d="M315.72,249.84a.38.38,0,0,1-.24.18.39.39,0,0,1-.47-.26,5.37,5.37,0,0,1,0-2.76,2.65,2.65,0,0,1,2.05-1.73.39.39,0,0,1,.44.31.37.37,0,0,1-.33.41,1.89,1.89,0,0,0-1.42,1.24,4.72,4.72,0,0,0,0,2.34A.35.35,0,0,1,315.72,249.84Z"></path><path class="cls-9" d="M319.06,249.37a.38.38,0,0,1-.24.18.39.39,0,0,1-.47-.26,5.37,5.37,0,0,1,0-2.76,2.65,2.65,0,0,1,2.05-1.73.39.39,0,0,1,.44.31.37.37,0,0,1-.33.41,1.89,1.89,0,0,0-1.42,1.24,4.72,4.72,0,0,0,0,2.34A.35.35,0,0,1,319.06,249.37Z"></path></g></g></svg>