<svg xmlns="http://www.w3.org/2000/svg" xmlns:xlink="http://www.w3.org/1999/xlink" id="Layer_1" data-name="Layer 1" viewBox="0 0 455.77 313.2"><defs><style>.cls-1{fill:none;clip-rule:evenodd;}.cls-2,.cls-24{fill:#f73e6a;}.cls-3{fill:#d00054;}.cls-4{fill:#fae1e2;}.cls-12,.cls-13,.cls-14,.cls-17,.cls-18,.cls-19,.cls-20,.cls-21,.cls-22,.cls-23,.cls-24,.cls-25,.cls-26,.cls-4,.cls-5,.cls-6,.cls-7,.cls-8,.cls-9{fill-rule:evenodd;}.cls-5{fill:#fdb71f;}.cls-11,.cls-6{fill:#13348c;}.cls-7{fill:#fff;}.cls-16,.cls-8{fill:#9fa5fd;}.cls-9{fill:#f18e00;}.cls-10{fill:#630;}.cls-12{fill:#f4b1b1;}.cls-13{fill:#ed8082;}.cls-14{fill:#c8c8c9;}.cls-15{clip-path:url(#clip-path);}.cls-17{fill:#0065ac;}.cls-18{fill:#102b6e;}.cls-20{fill:#f7cccf;}.cls-21{fill:#092978;}.cls-22{fill:#ed8d8f;}.cls-23{fill:#e8f5fc;}.cls-25{fill:#231916;}.cls-26{fill:#e50013;}</style><clipPath id="clip-path"><path class="cls-1" d="M67.52,252.4c4.94,0,14.44-1,18.53,1.26,1.75,1,3.63,2.58,3.73,5,.19,4.51-1.94,6.06-.89,8.55.89,2.11,4.44,6.6,3.21,9-.85,1.68-2.95,3.11-3.15,5.45-.15,1.8.06,1.75.94,4a8.85,8.85,0,0,1,.43,5.45c-1.13,3.42-4.47,5.48-5.36,8.08s1.32,4.27,1,5.79-.51,4.82-4.16,5.87a12.8,12.8,0,0,1-5.52.66l-9.3.19a9.43,9.43,0,0,1-1.23.08h-32a9.51,9.51,0,0,1-9.48-9.48v-40.4c0-6.72,9.85-14.29,15-17.17,11.65-6.53,13.83-11,15.23-13.75s.47-9.25,2-11.34,5.67-1.71,5.67-1.71,7.07,2.06,8.7,13.64-4.74,16-4.93,18.26a2.66,2.66,0,0,0,1.52,2.6m-56,3.42h0a9.43,9.43,0,0,1,9.4,9.4V302a9.43,9.43,0,0,1-9.4,9.4h0a9.32,9.32,0,0,1-4.26-1c-.91-2.25-1.77-4.32-3-7.75L2.1,296.74V265.22A9.43,9.43,0,0,1,11.5,255.81Z"></path></clipPath></defs><title>Scale to Demand</title><rect class="cls-2" x="177.82" y="223.8" width="33.28" height="85.82"></rect><rect class="cls-3" x="211.11" y="223.8" width="16.28" height="85.82"></rect><path class="cls-4" d="M202.61,221.58c13.69,0,24.78,1,24.78,2.22S216.29,226,202.61,226s-24.78-1-24.78-2.22,11.1-2.22,24.78-2.22"></path><rect class="cls-2" x="245.54" y="194.95" width="33.29" height="114.67"></rect><rect class="cls-2" x="313.26" y="172.29" width="33.29" height="137.33"></rect><rect class="cls-3" x="278.83" y="194.95" width="16.28" height="114.67"></rect><rect class="cls-3" x="346.54" y="172.29" width="16.28" height="137.33"></rect><rect class="cls-2" x="381.84" y="148.1" width="33.28" height="161.52"></rect><rect class="cls-3" x="415.12" y="148.1" width="16.28" height="161.52"></rect><path class="cls-4" d="M338,170.07c13.69,0,24.78,1,24.78,2.22s-11.1,2.22-24.78,2.22-24.78-1-24.78-2.22,11.1-2.22,24.78-2.22"></path><path class="cls-4" d="M406.62,145.87c13.69,0,24.78,1,24.78,2.22s-11.1,2.22-24.78,2.22-24.78-1-24.78-2.22,11.1-2.22,24.78-2.22"></path><path class="cls-4" d="M270.32,192.73c13.69,0,24.78,1,24.78,2.22s-11.1,2.22-24.78,2.22-24.78-1-24.78-2.22,11.1-2.22,24.78-2.22"></path><polygon class="cls-5" points="201.81 167.4 209.21 182.87 226.2 185.12 213.78 196.93 216.89 213.79 201.81 205.62 186.74 213.79 189.85 196.93 177.42 185.12 194.42 182.87 201.81 167.4"></polygon><polygon class="cls-5" points="269.57 137.1 277.07 152.8 294.33 155.08 281.71 167.07 284.87 184.18 269.57 175.89 254.27 184.18 257.43 167.07 244.82 155.08 262.07 152.8 269.57 137.1"></polygon><polygon class="cls-5" points="407.18 62.62 415.67 80.4 435.2 82.98 420.92 96.56 424.5 115.93 407.18 106.55 389.85 115.93 393.43 96.56 379.14 82.98 398.68 80.4 407.18 62.62"></polygon><path class="cls-6" d="M269.13,52.78h-123a25.87,25.87,0,0,0-25.88,25.87V95.89a25.87,25.87,0,0,0,25.88,25.87h123A25.87,25.87,0,0,0,295,95.89V78.66a25.87,25.87,0,0,0-25.87-25.87"></path><path class="cls-7" d="M153.69,65a22.12,22.12,0,1,1-22.12,22.12A22.12,22.12,0,0,1,153.69,65"></path><path class="cls-8" d="M153.64,74a6.42,6.42,0,1,1-6.41,6.44A6.42,6.42,0,0,1,153.64,74"></path><path class="cls-8" d="M146.32,89.29l14.72,0a5.48,5.48,0,0,1,0,11l-14.72,0a5.48,5.48,0,0,1,0-11"></path><polygon class="cls-9" points="190.58 64.33 192.78 68.94 197.86 69.62 194.15 73.14 195.08 78.18 190.58 75.74 186.08 78.18 187.01 73.14 183.29 69.62 188.37 68.94 190.58 64.33"></polygon><polygon class="cls-9" points="208.95 64.33 211.16 68.94 216.24 69.62 212.52 73.14 213.45 78.18 208.95 75.74 204.45 78.18 205.38 73.14 201.67 69.62 206.75 68.94 208.95 64.33"></polygon><polygon class="cls-9" points="227.33 64.33 229.54 68.94 234.61 69.62 230.9 73.14 231.83 78.18 227.33 75.74 222.83 78.18 223.76 73.14 220.05 69.62 225.12 68.94 227.33 64.33"></polygon><polygon class="cls-9" points="245.71 64.33 247.91 68.94 252.99 69.62 249.28 73.14 250.21 78.18 245.71 75.74 241.21 78.18 242.13 73.14 238.42 69.62 243.5 68.94 245.71 64.33"></polygon><polygon class="cls-9" points="264.08 64.33 266.29 68.94 271.36 69.62 267.65 73.14 268.58 78.18 264.08 75.74 259.58 78.18 260.51 73.14 256.8 69.62 261.88 68.94 264.08 64.33"></polygon><path class="cls-7" d="M187.56,85.88h24.88a1.3,1.3,0,0,1,1.29,1.29h0a1.3,1.3,0,0,1-1.29,1.29H187.56a1.3,1.3,0,0,1-1.29-1.29h0a1.3,1.3,0,0,1,1.29-1.29"></path><path class="cls-7" d="M187.56,94.44h82.69a1.3,1.3,0,0,1,1.29,1.29h0A1.3,1.3,0,0,1,270.25,97H187.56a1.3,1.3,0,0,1-1.29-1.29h0a1.3,1.3,0,0,1,1.29-1.29"></path><path class="cls-7" d="M187.56,102.47h82.69a1.3,1.3,0,0,1,1.29,1.29h0a1.3,1.3,0,0,1-1.29,1.29H187.56a1.3,1.3,0,0,1-1.29-1.29h0a1.3,1.3,0,0,1,1.29-1.29"></path><path class="cls-6" d="M346.06,80.55c2.08,4.61,4.7,9.43,10.65,10.32,4.82.73,20.81-5.4,21.46-9.74s-2.31-5-2.31-5-15.74,5.68-17,5.25c-1-.32-5.29-7.14-8.19-9.79-.62-.56-5.47,7-4.57,9"></path><path class="cls-10" d="M357.58,171.86H342.82a1.37,1.37,0,0,1-1.35-1.18,1.38,1.38,0,0,1,0-.29l.6-7.75a8.66,8.66,0,0,1,1.47-.49,1.49,1.49,0,0,0,1.09-1l0-.11c.34-1.49,2.49-2,2.89-.51q.08.28.13.55l0,.13c.06.31.11.6.14.85v0a8.28,8.28,0,0,1,.07,1.05l.57.73.27.36.57.73.26.32c.21.26.41.5.61.72l.28.3a4.24,4.24,0,0,0,2.44,1.47c1.6.22,4.21.4,5.48,2.74a.85.85,0,0,1,.06.15.91.91,0,0,1-.87,1.18"></path><path class="cls-11" d="M357.58,171.86H342.82a1.37,1.37,0,0,1-1.35-1.18h17a.91.91,0,0,1-.87,1.18"></path><path class="cls-6" d="M344.93,69.35H333.65c-2.73,0-6.66,1.37-8.31,3.3-2.37,2.77-1.44,33.78-.72,38.1l.83.59c0,17.27-2,38.5-1.11,55l5.92-1.48,9.59-43.18,2.93-10.79,7.79,0,1.92-.26-1.87-39.13a8.83,8.83,0,0,0-5.7-2.2"></path><path class="cls-6" d="M332.23,79.52c1.12-2.32.26-6.87-2.11-7.9a3.61,3.61,0,0,0-3.14-.24c-6.53,3.66-18.59,37-.73,37.93,2.53-.88,3.76-25.18,6-29.8"></path><path class="cls-7" d="M343.82,69.35c.75,5.6-1.94,22-2.58,28.17-.2-.48-5.44-23.85-6-28.17a42.56,42.56,0,0,1,8.54,0"></path><path class="cls-12" d="M346.81,63.78c.4,2.63-2.62,4.63-4.67,4.46v1.2l.11.15c.72,1.86-1.3,3.06-2,3.7-.61-.47-3.88-1.36-4-3.94h.13V64.83a2,2,0,0,1-.45-.2,1.58,1.58,0,0,1-.51-1.64c.12-.69,1.08-.22,1.08-.22h0c-.84-2.06-1.91-3.83.25-5s6.5-1.06,6.5-1.06l2.61-.27c-.7,1.12.62,5.57.88,7.31"></path><path class="cls-13" d="M338.28,66.23c.92,2.45,1.79,3.36,3.85,3.65V68.2a7.22,7.22,0,0,1-3.85-2"></path><polygon class="cls-6" points="351.55 110.81 337.36 109.19 341.98 163.63 349.04 163.86 351.55 110.81"></polygon><path class="cls-10" d="M333.13,171c-.12,2.15-7.75,1.41-9,.76a1.47,1.47,0,0,1-.71-1.31,9.18,9.18,0,0,1,.59-3c.49-1.52.42-1.49.76-2.52,0,0-.09-1.69,2.41-2.33s3.42,3.55,3.84,4.36,1.91,1.75,2.07,3.57a3.73,3.73,0,0,1,0,.52"></path><path class="cls-11" d="M333,171.71c-.15,1.4-7.66,1.26-8.88.61-.47-.25-.67-1.18-.71-1.76a9.92,9.92,0,0,0,4.33.94,11.73,11.73,0,0,0,5.35-.91c0,.17-.08.94-.09,1.12"></path><path class="cls-6" d="M338.27,59.29c-.79.74-.79,1.7-.21,3.62.17.57.43,1-.43.47-.4-.24-1.06-.59-1.31-.43a1.09,1.09,0,0,0,0,1.62c.17.15.51.38.51.38a2.57,2.57,0,0,1-2.11-.53c-1-.82-4-3.42-3.42-7,.89-5.41,4.25-6.25,9.78-6.66.87-.07.69-1.52,1.61-1.47,3.58.2,5.82,3.25,5.07,6.26-1,4.13-7.41,1.78-9.45,3.69"></path><polygon class="cls-5" points="336.57 74.99 341.58 85.48 353.11 87 344.68 95.01 346.79 106.45 336.57 100.91 326.35 106.45 328.46 95.01 320.03 87 331.56 85.48 336.57 74.99"></polygon><path class="cls-12" d="M324.41,103.54a.87.87,0,0,1,.67,0l.9.87,1.65-2.13a.68.68,0,0,1,.34.87,15.18,15.18,0,0,0-.48,1.94l1.36-2a.49.49,0,0,1,.36.56c-.08.43-.51,1.88-.51,1.88l1.53-1.64a4.41,4.41,0,0,1-.39,1.41,5.46,5.46,0,0,0-.41.9l1.54-1.16s-.9,1.65-.94,1.7c-1.31,1.51-2.82,1.73-4.15.58-.41-.36-1.75-3.68-1.46-3.8"></path><path class="cls-6" d="M148.85,147.37h-123A25.87,25.87,0,0,0,0,173.24v17.23a25.87,25.87,0,0,0,25.88,25.87h123a25.87,25.87,0,0,0,25.87-25.87V173.24a25.87,25.87,0,0,0-25.87-25.87"></path><path class="cls-7" d="M30.25,154A22.12,22.12,0,1,1,8.12,176.15,22.12,22.12,0,0,1,30.25,154"></path><path class="cls-8" d="M30.2,163a6.42,6.42,0,1,1-6.41,6.44A6.42,6.42,0,0,1,30.2,163"></path><path class="cls-8" d="M22.87,178.31l14.72,0a5.48,5.48,0,0,1,0,11l-14.72,0a5.48,5.48,0,1,1,0-11"></path><polygon class="cls-9" points="67.13 153.35 69.34 157.97 74.41 158.64 70.7 162.17 71.63 167.2 67.13 164.76 62.63 167.2 63.56 162.17 59.85 158.64 64.92 157.97 67.13 153.35"></polygon><polygon class="cls-9" points="85.51 153.35 87.71 157.97 92.79 158.64 89.08 162.17 90.01 167.2 85.51 164.76 81.01 167.2 81.94 162.17 78.22 158.64 83.3 157.97 85.51 153.35"></polygon><polygon class="cls-8" points="103.88 153.35 106.09 157.97 111.17 158.64 107.45 162.17 108.38 167.2 103.88 164.76 99.38 167.2 100.31 162.17 96.6 158.64 101.68 157.97 103.88 153.35"></polygon><polygon class="cls-8" points="122.26 153.35 124.47 157.97 129.54 158.64 125.83 162.17 126.76 167.2 122.26 164.76 117.76 167.2 118.69 162.17 114.98 158.64 120.05 157.97 122.26 153.35"></polygon><polygon class="cls-8" points="140.64 153.35 142.84 157.97 147.92 158.64 144.21 162.17 145.14 167.2 140.64 164.76 136.14 167.2 137.06 162.17 133.35 158.64 138.43 157.97 140.64 153.35"></polygon><path class="cls-7" d="M64.11,174.9H89a1.3,1.3,0,0,1,1.29,1.29h0A1.3,1.3,0,0,1,89,177.49H64.11a1.3,1.3,0,0,1-1.29-1.29h0a1.3,1.3,0,0,1,1.29-1.29"></path><path class="cls-7" d="M64.11,183.46H146.8a1.3,1.3,0,0,1,1.29,1.29h0a1.3,1.3,0,0,1-1.29,1.29H64.11a1.3,1.3,0,0,1-1.29-1.29h0a1.3,1.3,0,0,1,1.29-1.29"></path><path class="cls-7" d="M64.11,191.49H146.8a1.3,1.3,0,0,1,1.29,1.29h0a1.3,1.3,0,0,1-1.29,1.29H64.11a1.3,1.3,0,0,1-1.29-1.29h0a1.3,1.3,0,0,1,1.29-1.29"></path><path class="cls-7" d="M376,76.6c-.66,1.28.28,3.95,1.09,5.11.25-.23,2.65-1.73,2.65-1.73a5.42,5.42,0,0,0-1.24-4.11Z"></path><path class="cls-12" d="M379.44,75.42c.32-.63,1.64-3.09,2.23-3.41.3-.16.33,0,.4.13a1.29,1.29,0,0,1-.05.74,11,11,0,0,1-.5,1.15c1.63-.39,3.49-1.83,4.87-2.79.56-.39,1.31.29.65,1.09-.18.21-2.54,1.89-2.64,2.16-.44,1.26,3,4.48-5.5,5.55a5.32,5.32,0,0,1-.75-3.49Z"></path><path class="cls-14" d="M405.43,116.5h0a1.38,1.38,0,0,1,1.38,1.38v9.57a1.38,1.38,0,0,1-2.76,0v-9.57a1.38,1.38,0,0,1,1.38-1.38"></path><path class="cls-14" d="M405.43,132.39h0a1.38,1.38,0,0,1,1.38,1.38v1a1.38,1.38,0,0,1-2.76,0v-1a1.38,1.38,0,0,1,1.38-1.38"></path><path class="cls-14" d="M413,116.5h0a1.38,1.38,0,0,1,1.38,1.38v13.34a1.38,1.38,0,0,1-2.76,0V117.88A1.38,1.38,0,0,1,413,116.5"></path><path class="cls-14" d="M413,137.25h0a1.38,1.38,0,0,1,1.38,1.38v2.11a1.38,1.38,0,1,1-2.76,0v-2.11a1.38,1.38,0,0,1,1.38-1.38"></path><path class="cls-14" d="M397.77,116.5h0a1.38,1.38,0,0,1,1.38,1.38v13.34a1.38,1.38,0,0,1-2.76,0V117.88a1.38,1.38,0,0,1,1.38-1.38"></path><path class="cls-14" d="M397.77,137.25h0a1.38,1.38,0,0,1,1.38,1.38v2.11a1.38,1.38,0,1,1-2.76,0v-2.11a1.38,1.38,0,0,1,1.38-1.38"></path><g class="cls-15"><rect class="cls-16" x="2.1" y="217.51" width="91.22" height="94.36"></rect></g><path class="cls-17" d="M29.53,252.21v50.56c0,2.1,2.3,4.35,5,4.21,1.92-.1,33.1,0,51.07,0a5.2,5.2,0,0,1-3.75,3.84,12.8,12.8,0,0,1-5.52.66l-9.3.19a9.43,9.43,0,0,1-1.23.08h-32a9.51,9.51,0,0,1-9.48-9.48v-40.4c0-3.23,2.28-6.65,5.21-9.66"></path><path class="cls-17" d="M19.23,307.39a9.41,9.41,0,0,1-7.72,4.06h0c-6.14,0-9.41-3.6-9.41-7.81V265.22a9.41,9.41,0,0,1,4.12-7.77v46.09s1.18,4.31,7.17,4c2.55-.15,4.47-.15,5.83-.12"></path><path class="cls-18" d="M131.52,295.39c1.87,0,3.38,1.9,3.38,4.23s-1.51,4.23-3.38,4.23-3.38-1.89-3.38-4.23,1.51-4.23,3.38-4.23"></path><path class="cls-19" d="M132.75,248.09c1.37,10-5.34,13.06,1.23,22.29,0,0,4-4.43,5.74-4.74s2-5.73,2-6-1.53-11.07-1.53-11.07Z"></path><path class="cls-8" d="M136,262.06h15.65c2,0,6.76,3.7,7.61,8.52h0c1.59,7.76.88,24.82-4.61,30.91l-6.23-.08-19.08-4.73V264.48a10.39,10.39,0,0,1,6.66-2.41"></path><path class="cls-8" d="M151.69,262.11c7.73.76,8.45,10.47,8.35,16.53h-8.34Z"></path><path class="cls-7" d="M139,261.86c-1.77,3,.16,5.18,1.91,6.15,2.46-1.6,4.67-3.15,4.67-6.15,0,0,2.42-.87,3,.48-5.11,13.25-3.63,30-3.63,30-3.55-.11-13-1.69-13.08-1.41-.38-3.23-.33-24.18,5.8-29.05Z"></path><path class="cls-20" d="M152.45,278.7l7.59-.06c0,4.58-7.46,15.16-16.31,15.16h-11s2.35-3,5.44-3.26,3.22.18,3.22.18c1.71.06,9.58-4.52,11.11-12"></path><path class="cls-21" d="M116.91,293.8H150a5.92,5.92,0,0,1,1.1.1h0c8.91,0,9.08,5.53,9.74,11.77h-43.9a5.94,5.94,0,1,1,0-11.88"></path><path class="cls-21" d="M115.43,294.39a12.2,12.2,0,0,1,4.37-.57c4.9.64,34,9.45,34,9.45l-5.14,6c-6-.38-30.09,1.75-34.68-1.4-4.78-3.28-5.88-11.79,1.41-13.45"></path><path class="cls-20" d="M134.75,254.84c-.63,2.31,2.25,6.21,4.27,6.1v.93h0c-1.76,3,.17,5.17,1.91,6.14h0c2.45-1.59,4.65-3.14,4.67-6.13v-3.49c.17-.05.18.25.53,0a3.89,3.89,0,0,0,1-2.58c-.14-.81-1.17-1.27-1.17-1.27,1-2.39,1.74-2.77-.76-4.1s-7.55-1.23-7.55-1.23l-2.29.77a15.39,15.39,0,0,1-.57,4.8"></path><path class="cls-22" d="M138.51,261a4.23,4.23,0,0,0,.51,0,11.85,11.85,0,0,0,4.19-.86,4.41,4.41,0,0,1-2.29,2.45,8.69,8.69,0,0,1-2.5.77,5.26,5.26,0,0,1,.59-1.42h0v-.93Z"></path><path class="cls-8" d="M129.54,264.34c-4.25,3.79-6.72,9-8.23,14.52,2.78-.18,5.7-.17,8.46-.26Z"></path><path class="cls-23" d="M137.2,274.78H113.27c-.92,0-1.88.78-1.68,1.68l3.58,15.81c.2.9.75,1.68,1.68,1.68h23.93c.92,0,1.88-.78,1.68-1.68l-3.58-15.81c-.2-.9-.76-1.68-1.68-1.68"></path><path class="cls-24" d="M136.12,274.78H112.2c-.92,0-1.88.78-1.68,1.68l3.58,15.81c.2.9.76,1.68,1.68,1.68H139.7c.92,0,1.88-.78,1.68-1.68l-3.58-15.81c-.2-.9-.76-1.68-1.68-1.68"></path><path class="cls-7" d="M125.44,282.79a1.68,1.68,0,1,0,1.81,1.15,1.53,1.53,0,0,0-1.81-1.15"></path><path class="cls-23" d="M153.8,292.38H141.65v1.57h12.93v-.78a.78.78,0,0,0-.78-.78"></path><path class="cls-21" d="M154,294.15c-4.93.24-30.36,9.88-30.36,9.88l2.69,9.17c3.75-.46,30.34-4,32.36-5.13,8.55-4.9,2.47-14.56-4.68-13.91"></path><path class="cls-19" d="M142,250.89a20.21,20.21,0,0,1-7.73.2c-4.22-1-2.54-5.71.14-7.61,4-2.85,11.16-1.7,13.46,3.13,3,6.23,3.16,8.85,9.5,12.37,2.57,1.43,4.92,3,5.23,7.32,0,.51-.94,0-2.55-.42,1.87,2.4.19,6.69-.21,7.19-.63-11-11.91-10.73-14.27-11-.11-1.33-.62-2.21-.63-3a2.81,2.81,0,0,0,1.2-2.24c-.08-1.37-.26-1-.42-.94a10.62,10.62,0,0,0-1.05.55c-.32-1.77-.24-5.31-2.66-5.5"></path><path class="cls-8" d="M367.35,17.2h21a5.41,5.41,0,0,1,5.4,5.4v21a5.42,5.42,0,0,1-5.4,5.4h-21a5.41,5.41,0,0,1-5.4-5.4v-21a5.41,5.41,0,0,1,5.4-5.4"></path><path class="cls-7" d="M378.87,26.91c1.42-.88,3.91-2,5.8-.51,4.67,3.67-2.41,10.26-5.68,13.65a1.21,1.21,0,0,1-1.92,0c-3.31-3-10.6-9.53-6.26-13.51,1.75-1.6,4.24-.57,5.71.31,1,.59,1.34.68,2.34.05"></path><path class="cls-5" d="M308.75,0a23.38,23.38,0,1,1-23.38,23.38A23.38,23.38,0,0,1,308.75,0"></path><path class="cls-25" d="M299.19,11.82a3.92,3.92,0,1,1-3.92,3.92,3.92,3.92,0,0,1,3.92-3.92"></path><path class="cls-25" d="M318.31,11.82a3.92,3.92,0,1,1-3.92,3.92,3.92,3.92,0,0,1,3.92-3.92"></path><path class="cls-25" d="M324.52,28.18c-2.42,7.19-8.57,12.3-15.77,12.3S295.39,35.37,293,28.18Z"></path><path class="cls-26" d="M317.11,38a15.2,15.2,0,0,1-16.72,0c1.62-3.34,4.76-4.69,8.36-4.69s6.74,1.35,8.36,4.69"></path><path class="cls-5" d="M87,88.56a19.21,19.21,0,1,1-19.21,19.21A19.21,19.21,0,0,1,87,88.56"></path><path class="cls-25" d="M79.17,98.28a3.22,3.22,0,1,1-3.22,3.22,3.22,3.22,0,0,1,3.22-3.22"></path><path class="cls-25" d="M94.87,98.28a3.22,3.22,0,1,1-3.22,3.22,3.22,3.22,0,0,1,3.22-3.22"></path><path class="cls-25" d="M99.56,118c-.46.3-1.38.7-1.86,1-2.23-3.89-6-5.49-10.37-5.49s-8.09,1.58-10.32,5.41c-.43-.24-1.42-.66-1.84-.93,2.26-4.67,7.22-6.4,12.25-6.4s9.87,1.77,12.13,6.44"></path><path class="cls-8" d="M443.81,17.82c2.38,0,7-.5,8.92.61a3.06,3.06,0,0,1,1.8,2.39c.09,2.17-.93,2.92-.43,4.11.43,1,2.14,3.18,1.54,4.35-.41.81-1.42,1.5-1.52,2.62-.07.86,0,.84.45,1.93a4.26,4.26,0,0,1,.21,2.63c-.54,1.65-2.15,2.64-2.58,3.89s.64,2.06.51,2.79a3,3,0,0,1-2,2.82,6.16,6.16,0,0,1-2.66.32l-4.48.09a4.59,4.59,0,0,1-.59,0H427.58A4.58,4.58,0,0,1,423,41.84V22.39c0-3.24,4.74-6.88,7.22-8.27,5.61-3.14,6.66-5.31,7.33-6.62s.22-4.45,1-5.46,2.73-.82,2.73-.82,3.4,1,4.19,6.56-2.28,7.71-2.38,8.79a1.28,1.28,0,0,0,.73,1.25M416,19.47h0A4.54,4.54,0,0,1,420.49,24V41.73A4.51,4.51,0,0,1,419.12,45l0,0,0,0,0,0h0l0,0h0l-.09.08h0l0,0-.05,0,0,0,0,0,0,0-.05,0h0l0,0h0l-.06,0,0,0,0,0,0,0h0l-.06,0,0,0,0,0-.07,0,0,0,0,0h0l-.06,0,0,0-.05,0h0l-.06,0h0l-.08,0h0l-.07,0h0l-.08,0h0l-.09,0h0l-.08,0h0l-.08,0h0l-.07,0h0l-.08,0h0l-.09,0h0l-.1,0h-.89c-2.91,0-4.46-1.75-4.45-3.76V23.65h0v-.1h0v-.09h0V23.3l0-.1v0l0-.08h0l0-.08v0l0-.09h0l0-.09v0h0l0-.07v0h0l0-.08h0l0-.09v0l0-.09h0l0-.08v0h0l0-.06h0l0,0,0,0,0-.05,0-.06,0,0,0-.07h0l0-.08v0l0-.08v0l0-.06v0l0-.06h0l0,0h0l0-.05,0,0,0,0,0,0,0-.05h0l0,0h0l0-.05h0l0-.05h0l0,0h0l0,0h0l0,0,0,0,0,0,0,0h0l0,0,.06-.06h0l.06-.05,0,0h0l.05,0h0l0,0,0,0,.06-.05h0l.08-.06h0l.06,0,0,0h0l.06,0A4.5,4.5,0,0,1,416,19.47Z"></path></svg>