<svg xmlns="http://www.w3.org/2000/svg" xmlns:xlink="http://www.w3.org/1999/xlink" id="Layer_1" data-name="Layer 1" viewBox="0 0 298.89 172.32"><defs><style>.cls-1{fill:none;}.cls-2{fill:#13348c;}.cls-3{fill:#fec230;}.cls-4{fill:#2e5b9a;}.cls-5{fill:#f09959;}.cls-6{fill:#e38540;}.cls-7{fill:#a86b48;}.cls-8{fill:#3e6bab;}.cls-9{fill:#f0ceb4;}.cls-10{fill:#f7a96f;}.cls-11{fill:#a8ceff;}.cls-12{fill:#6695d6;}.cls-13{fill:#303c60;}.cls-14{fill:#f73e6a;}.cls-15{fill:url(#Gradiente_sem_nome_69);}.cls-16{fill:#9fa5fd;}.cls-17{fill:#fff;}.cls-18{opacity:0.5;}.cls-19{clip-path:url(#clip-path);}.cls-20{fill:#e7f3fe;}</style><linearGradient id="Gradiente_sem_nome_69" x1="142.05" y1="137.8" x2="142.05" y2="180.11" gradientUnits="userSpaceOnUse"><stop offset="0.16" stop-color="#e08197"></stop><stop offset="1" stop-color="#e08197" stop-opacity="0"></stop></linearGradient><clipPath id="clip-path"><path class="cls-1" d="M15.5,47.34A12.23,12.23,0,1,0,27.73,59.57,12.23,12.23,0,0,0,15.5,47.34ZM15.5,66A6.48,6.48,0,1,1,22,59.57,6.48,6.48,0,0,1,15.5,66Z"></path></clipPath></defs><title>Cnetric is Your Engineering Services Partner for Success</title><path class="cls-2" d="M204.2,88.58c-4.27,8.67-9.62,32.35-11.08,33.64s-9.89,6.33-11.35,8.76-.81,1.62-.16,1.78,37.3.32,37.3.32-4.22-25.14-4.7-25.3S204.2,88.58,204.2,88.58Z"></path><path class="cls-2" d="M198.13,133l17.75.1-5.35-32c-2.86-5.54-6.32-12.47-6.32-12.47-.54,1.09-1.09,2.42-1.66,3.92-.56,24.05,2.91,30.79.31,35.08A16.85,16.85,0,0,1,198.13,133Z"></path><path class="cls-2" d="M226.68,78.12c6.09,5.62,19.64,10.95,19.64,10.95s2.06,19,.65,29.8-.62,13-.62,13l-29.26.25s-2.43-5.45-9.29-21.64c-4.37-10.3-3.59-21.86-3.59-21.86l17-7.65Z"></path><path class="cls-2" d="M218.41,131.83h27.94s-.78-2.19.62-13c1.16-8.87,0-23.33-.49-28.17l-2.54-1.09c-6.38,1.84-10.06,11.35-11.14,20.65-.72,6.22-11,12.35-17.78,15.72A55.2,55.2,0,0,0,218.41,131.83Z"></path><path class="cls-2" d="M222,84.88s.26,8,1.63,7.95,9.33-10.19,9.33-10.19L231.59,82Z"></path><path class="cls-2" d="M219.91,84.42s-1.73,7.39-2.59,7.22-2-7.69-2-7.69Z"></path><path class="cls-3" d="M219.59,83.5l2.38.26.92,2.84S220.8,89,220.75,90s.46,4.69.49,8-1.2,16.7-.65,24.88l.56,8.18-4.79.19s-.26-9,0-18.63,3-22.66,3-22.66l-1.08-3.31Z"></path><path class="cls-4" d="M211.55,58.6a16.68,16.68,0,0,0,.55,14.16c-.12-.29,5.1-12.67,5.1-12.67Z"></path><path class="cls-5" d="M224.32,64.15l4.27,15.61a1.41,1.41,0,0,1-.27,1.26c-1,1.23-2.43,3.77-5.31,4.59a7.13,7.13,0,0,1-1.81.2,1.22,1.22,0,0,1-1.2-1L217.14,70Z"></path><path class="cls-6" d="M223.5,65.45l-1.56.64L217.14,70,219,79.41l.73,3.74C224.09,80.42,225.69,76,223.5,65.45Z"></path><path class="cls-5" d="M223.24,71.23c0,5.22-3.15,9.34-7,9.19s-6.27-3.09-7-9.72c-.61-5.21.9-11.26,4.78-11.12S223.23,66,223.24,71.23Z"></path><path class="cls-2" d="M246.32,89.07c5.65,1.28,6.7,12.76,8.54,24.87.21,1.39,1.3,13.19,1.3,13.19a3.61,3.61,0,0,1-2.05,3.24c-1.85.92-2.6,1.62-13.3,1.73-10.28.1-23.54-.32-23.54-.32s-.12-3.83.94-5.7c1.59-2.81,17.84-6.85,19.36-7.06.22-3-1.49-14,.87-21.41,1.62-5.11,3.37-7.79,5.55-8.49A4.39,4.39,0,0,1,246.32,89.07Z"></path><path class="cls-2" d="M223.08,132c5.07.08,12,.15,17.72.09,10.71-.11,11.45-.81,13.3-1.73a3.8,3.8,0,0,0,2.27-2.92s-1.09-12.55-1.3-13.95c-1.19-8.11-2.47-17.39-5.47-21.87a61.15,61.15,0,0,1,3.31,18.17,18.1,18.1,0,0,1-.55,5,2.78,2.78,0,0,1-3.68,2.05c-3.89-1.08-8.76,1.19-8.76,1.19a12.19,12.19,0,0,1,7.14-.11c3.46,1.19,10.6,9.08,2.81,12C247.51,130.84,233.24,131.57,223.08,132Z"></path><path class="cls-2" d="M219.07,126.45a5.36,5.36,0,0,1,4.4-2.45c3,0,2.74,4.83,2.31,6.42a2.4,2.4,0,0,1-2.16,1.66l-6-.15Z"></path><path class="cls-2" d="M160.54,132.15h49.67a2.49,2.49,0,0,0-2.49-2.49H160.54Z"></path><path class="cls-5" d="M218,126.06c-6-2.75-7.68-2.05-9-2.58-3.36-1.3-4.3-.51-7,5.4-.55,1.18.75,1.37,2,1.48s3.09-2.27,3.62-2.51a7.05,7.05,0,0,1,1.9-.27s-.43,0-1.19,1.2-1.59,1.67-.58,1.76,1.29-1.55,3.13-1,1.46,2.27,6.14,2.12c4.44-.14,7.76.3,7.93-2.51s.56-4-1.92-4.65C221.07,123.94,218,126.06,218,126.06Z"></path><path class="cls-7" d="M218.07,126.07c4.17-.11,2.52,4.93,2.05,5.32s2.29.35,2.29.35a5,5,0,0,0,.58-4.42,4,4,0,0,0-3-2.75l-1.92.85Z"></path><ellipse class="cls-4" cx="219.89" cy="125.17" rx="2.34" ry="1.16" transform="translate(-6.19 11.56) rotate(-2.97)"></ellipse><ellipse class="cls-8" cx="219.77" cy="124.89" rx="2.09" ry="1.04" transform="translate(-6.18 11.56) rotate(-2.97)"></ellipse><ellipse class="cls-9" cx="219.6" cy="124.69" rx="1.51" ry="0.75" transform="translate(-6.17 11.55) rotate(-2.97)"></ellipse><path class="cls-5" d="M185.56,126.45c3.08-1.71,6.84-1.14,8.21.57s1.6,2.85-1.48,2.85S183,130.1,182,130,185.56,126.45,185.56,126.45Z"></path><path class="cls-5" d="M189.56,125.85c3.31-.8,5.57,1.13,8.32,3,2.39,1.6,2.88,3.15.23,1.82a20,20,0,0,0-6.16-2.17Z"></path><path class="cls-5" d="M185.87,127.35c-1.67,0-3.13-.53-4.31-.43s-4.91,3.93-4.32,4.22l.14.06a2,2,0,0,0,2.39-.84c.53-.85,1.39-1.83,2.39-1.48a10.62,10.62,0,0,0,3.42.53Z"></path><path class="cls-10" d="M186.13,130.55c-1.71-.68,1-6.38,1.94-6.38s4.33,2.74,4.33,2.74-.8.45-3.53-.46c-.68-.23-1.25,3.65-2.05,4.1S186.13,130.55,186.13,130.55Z"></path><polygon class="cls-2" points="219.11 80.09 219.91 84.36 217.57 89.44 215.03 84.06 219.11 80.09"></polygon><path class="cls-4" d="M209.7,73.65c1,6.2,3.28,6.86,4.91,7.42s7.71-2,8.36-3.69c1.66-4.35-1-7.62-.48-7.66s1.31,1.39,3.06,3.1c.16.16,1.29,1.21,1.26.8-.38-5.65,2.18-7.9.47-13.36-1.27-4-3.82-3.22-3.82-3.22s-2.32-3.14-7.51-1.77c-3.47.91-6.36,2.86-9.81,4.47s6,8.37,10.14,4.49,3.05,3.17,3.89,3.55.37,0,1.34,3.33-2.93,6.33-4.11,6.85c-3.77,1.66-4.55,1.13-5.69-.2A17.22,17.22,0,0,1,209.7,73.65Z"></path><path class="cls-5" d="M225.67,68.72c-.16,1.64-1.08,2.85-2.05,2.7s-1.23-1.41-1.46-3.24c-.2-1.65,1.08-2.85,2.05-2.7S225.83,67.08,225.67,68.72Z"></path><path class="cls-2" d="M228.24,78.47l4.25,4s-8.17,7.7-8.88,7.61-1.91-6.53-1.91-6.53Z"></path><path class="cls-2" d="M221.82,83.41c-.78.37-.53,1.49-.86,1.88s-.53.49-.8,0-.22-1.77-.43-1.83-1.78,4.87-1.78,4.87,1.16-3.15,1.42-2.81.05.66,1,.72a7.08,7.08,0,0,0,2.18-.35Z"></path><path class="cls-11" d="M160.48,132.15H187l-11.27-24.79a2,2,0,0,0-1.84-1.19h-24a.79.79,0,0,0-.72,1.12Z"></path><path class="cls-2" d="M147.33,106.18h24.48a2,2,0,0,1,1.84,1.19l11.27,24.79h-27l-11.3-24.85A.79.79,0,0,1,147.33,106.18Z"></path><ellipse class="cls-12" cx="161.77" cy="119.79" rx="1.87" ry="3.87" transform="translate(-35.99 82.21) rotate(-25.76)"></ellipse><path class="cls-13" d="M65.3,87.88c-.41,0-.82,0-1.22,0l-1,0a.21.21,0,0,1,0-.42l1,0c2.49.13,5.07.26,7.58-4.57a22.36,22.36,0,0,0,2-10.75,18.08,18.08,0,0,0-6.4-13.22.21.21,0,0,1,.27-.32,18.49,18.49,0,0,1,6.55,13.52,22.81,22.81,0,0,1-2.08,11C69.84,87.3,67.48,87.88,65.3,87.88Z"></path><path class="cls-13" d="M64.52,86.89h-.29a.21.21,0,1,1,0-.42h.27c2.6,0,5-1.84,6.62-5.09,2.67-5.35,2.92-14.12-1.85-19.85a.21.21,0,1,1,.32-.27c4.89,5.86,4.63,14.84,1.9,20.3C69.82,85,67.28,86.89,64.52,86.89Z"></path><path class="cls-13" d="M55.2,60.17c7.52-5.84,14.59-2.74,17.12,5.16,2.36,7.38-.67,23.24-11.89,20.48-11.61-2.86-12.58-6.41-12.49-11.58A18.33,18.33,0,0,1,55.2,60.17Z"></path><path class="cls-2" d="M51.29,83.57l-10.75,4s3,21.84,3.27,30.18a32.71,32.71,0,0,1-4,15.58H68s3.87-22.71,3.1-30.71S65,86.35,64.7,86.15,58,84.49,58,84.49Z"></path><path class="cls-14" d="M70.2,110.46s1.08,10.15,1.53,10.66,17,8.6,17,8.6l-24,1.64Z"></path><path class="cls-14" d="M64.7,86.15c2.67.06,3.39,4.42,4,7.65S64.7,86.15,64.7,86.15Z"></path><path class="cls-14" d="M60.14,103.41c-1.46-5.24-9.32-19.85-9.32-19.85l-10.29,4s2.36,17.12,3.08,26.83l3.91,18.93H60.14S61.6,108.65,60.14,103.41Z"></path><polygon class="cls-14" points="45.62 124.13 57.22 121.46 56.27 131.35 45.62 124.13"></polygon><path class="cls-14" d="M51.42,126.88c-1.89-2.56-3.74-5.38-1.94-11.26s2-8,1.35-13.33-3.5-13.84-9.08-14.1c0,0-.18,1.86-.48,4.84.91,7,2.37,19,2.55,24.74a32.71,32.71,0,0,1-4,15.58l22.87.5S53.31,129.44,51.42,126.88Z"></path><path class="cls-14" d="M71.06,102.63c-.77-8-6.1-16.28-6.36-16.48S62,85.42,60.11,85c.56,1.32,6.47,15.4,6.22,21.2-.26,6.09,0,27.17,0,27.17H68S71.83,110.63,71.06,102.63Z"></path><path class="cls-15" d="M128,151.41c-.29-.14-.54-.25-.78-.38a1.81,1.81,0,0,1-.58-.52c-.16-.22-.3-.45-.47-.7a2.58,2.58,0,0,1-1.88,1.57l.42.17a2.13,2.13,0,0,1,1.22,2.61,2.11,2.11,0,0,1-2.36,1.48,2.14,2.14,0,0,1-.49-4.1l.36-.14c-.28-.12-.53-.22-.76-.34a1.82,1.82,0,0,1-.6-.49c-.17-.21-.31-.44-.47-.68-.11.05-.13.18-.19.27s-.14.22-.22.32a2.25,2.25,0,0,1-.24.25,2.49,2.49,0,0,1-.28.22,2.21,2.21,0,0,1-.3.18l-.36.14-.38.12.37.12a2.12,2.12,0,1,1-1.31,0l.36-.1a3.32,3.32,0,0,1-1.27-.6,2.57,2.57,0,0,1-.74-1.11c-.15,0-.14.14-.18.21a2.38,2.38,0,0,1-1.65,1.37,2.25,2.25,0,0,1-2-.45,2.29,2.29,0,0,1-.71-.92c0-.08,0-.19-.16-.22a2.34,2.34,0,0,1-4.53-.34c-.11.05-.11.16-.13.25a2.28,2.28,0,0,1-4.26.35c-.08-.18-.14-.36-.21-.55-.13,0-.12.16-.15.25a2.2,2.2,0,0,1-.51.87,2.23,2.23,0,0,1-3.85-1.35A2.16,2.16,0,0,1,99.81,147l.27-.16s0,0,0-.06-.24-.13-.35-.2-.25-.14-.36-.23a2.19,2.19,0,0,1-.29-.25,3.23,3.23,0,0,1-.28-.33c-.08-.11-.16-.24-.25-.38,0,0-.09.06-.11.1a2.55,2.55,0,0,1-1.53,1.2l-.09.05c.08.12.21.13.32.18a2.18,2.18,0,0,1,1.05.95,2.2,2.2,0,0,1-2.61,3.16,2.19,2.19,0,0,1-1.5-2A2.16,2.16,0,0,1,95.43,147l.36-.17a4,4,0,0,1-1.12-.6,3.31,3.31,0,0,1-.69-1c-.11,0-.11.07-.15.11a1.12,1.12,0,0,0-.07.14,2.39,2.39,0,0,1-3.95.35,3.56,3.56,0,0,1-.31-.49l-.12-.23c-.11,0-.1.08-.13.13s0,.09-.07.14a2.24,2.24,0,0,1-.93,1,2.32,2.32,0,0,1-3.37-1.41c0-.11-.05-.23-.08-.34s-.1.14-.12.22a2.25,2.25,0,0,1-3.57,1.3,2.13,2.13,0,0,1-.84-2.14,2.16,2.16,0,0,1,1.19-1.64l.24-.13,0,0a3.1,3.1,0,0,1-1.58-1.41c-.13.09-.17.25-.27.36s-.2.24-.32.34a2.45,2.45,0,0,1-.37.28,2.91,2.91,0,0,1-.42.21c-.14.06-.28.1-.5.17l.42.16a2.19,2.19,0,0,1,.88,3.5,2.19,2.19,0,0,1-2.35.61,2.18,2.18,0,0,1-.19-4l.52-.2c-.07-.11-.17-.09-.25-.12l-.26-.09-.25-.11-.23-.14-.24-.19-.19-.19-.17-.21a2.48,2.48,0,0,1-.14-.23l-.12-.24-.13-.27c-.13.18-.16.37-.26.52a3.92,3.92,0,0,1-.33.44,2.32,2.32,0,0,1-.41.35,2.22,2.22,0,0,1-.49.24,2.33,2.33,0,0,1-.53.11,2.73,2.73,0,0,1-.54,0,2.2,2.2,0,0,1-1.31-.63,2.72,2.72,0,0,1-.7-1.29l-.13.37a2.23,2.23,0,1,1-3.11-2.72l.28-.14s0,0,0-.06-.29-.13-.43-.22a3.29,3.29,0,0,1-.39-.26,2.72,2.72,0,0,1-.36-.36,2.48,2.48,0,0,1-.26-.39c-.08-.15-.14-.3-.22-.47a.9.9,0,0,0-.2.34,2.37,2.37,0,0,1-1.33,1.19,2.29,2.29,0,0,1-2.58-.79,2.25,2.25,0,0,1-.24-2.43l.08-.14.09-.11a11.8,11.8,0,0,1,1.27,0H66l.36.64.31-.62.24,0H70.5c.21,0,.21,0,.42.15a.49.49,0,0,1,.41-.15H204.09a.49.49,0,0,1,.41.15c.21-.14.21-.15.38-.15h3.79l.14,0,.27.43.29-.44h3.84a2.12,2.12,0,0,1,.41,1c.1,0,.1,0,.1-.09a2.22,2.22,0,0,1,.36-.87,4.89,4.89,0,0,1,.93,0h2.71a2.18,2.18,0,0,1,.16,2.41,2.26,2.26,0,0,1-2.17,1.11,2.32,2.32,0,0,1-2-1.93c-.11,0-.09.11-.11.18a2.26,2.26,0,0,1-.76,1.29,2.17,2.17,0,0,1-.7.41l-.53.18.44.16a2,2,0,0,1,1,.79,2.08,2.08,0,0,1,.11,2.32,2,2,0,0,1-2,1.1,2.07,2.07,0,0,1-1.89-1.36,2.15,2.15,0,0,1,1.26-2.84l.42-.15a2.81,2.81,0,0,1-1.88-1.49,3.05,3.05,0,0,1-1.58,1.52l.23.14a2.21,2.21,0,0,1,1.25,1.81,2.25,2.25,0,0,1-4.36,1c0-.13-.09-.27-.15-.45a2.35,2.35,0,0,0-.1.24,2.41,2.41,0,0,1-.57,1.05,2.33,2.33,0,0,1-3.75-.48l-.21-.41a3.43,3.43,0,0,1-.72,1.1,2.88,2.88,0,0,1-1.11.59c0,.09,0,.11.09.12a2.6,2.6,0,0,1,.69.35,2.2,2.2,0,0,1-1.27,4,2.2,2.2,0,0,1-.9-4.23l.32-.13c0-.08,0-.1-.08-.11a2.68,2.68,0,0,1-.78-.36,2.44,2.44,0,0,1-.65-.67l-.17-.23a3.41,3.41,0,0,1-.68.83c-.27.2-.56.36-.84.54a2.39,2.39,0,0,1,1.4,2.67,2.33,2.33,0,0,1-1.95,1.73,2.27,2.27,0,0,1-2-.83,2.33,2.33,0,0,1-.46-1c-.16,0-.13.16-.16.24a2.34,2.34,0,0,1-4.31.42l-.15-.3c-.18.27-.33.54-.51.79a1.75,1.75,0,0,1-.7.56c-.28.13-.58.21-.89.33,0,.07.12.05.18.07a2.25,2.25,0,0,1,1.39.94,2.15,2.15,0,1,1-3.73,2.15,2.14,2.14,0,0,1,.83-2.82,6.63,6.63,0,0,1,.84-.35.74.74,0,0,0-.15-.06,2.42,2.42,0,0,1-1.78-1.33,1,1,0,0,0-.11-.14,3.85,3.85,0,0,1-.7,1,3.22,3.22,0,0,1-1,.57c0,.13.15.14.24.18a2,2,0,0,1,.76.54,2.11,2.11,0,0,1,.41,2.32,2.2,2.2,0,0,1-4,.14,2.19,2.19,0,0,1,1-3l.34-.17a1.48,1.48,0,0,0-.39-.19c-.11-.06-.24-.11-.34-.18a2.75,2.75,0,0,1-.34-.26,2.57,2.57,0,0,1-.27-.28c-.09-.11-.17-.23-.27-.36-.15.11-.2.28-.31.4a4.87,4.87,0,0,1-.35.36,2.83,2.83,0,0,1-.38.27c-.14.09-.29.16-.42.23s.07.13.12.16a2.21,2.21,0,0,1,1.25,1.85,2.09,2.09,0,0,1-.51,1.59,2.25,2.25,0,0,1-3.95-1A2.23,2.23,0,0,1,173.4,147c.1-.06.23-.07.29-.22-.18-.1-.37-.18-.54-.29a3,3,0,0,1-.45-.36c-.15-.14-.27-.31-.41-.48a8.17,8.17,0,0,1-.63.68,7.71,7.71,0,0,1-.76.52l.2.16a2.25,2.25,0,0,1,1,1.31,2.17,2.17,0,0,1-.68,2.34,2.27,2.27,0,0,1-3.63-.84l-.17-.45a.84.84,0,0,0-.17.37,2.26,2.26,0,0,1-1.95,1.53,2.31,2.31,0,0,1-2.28-1.2l-.21-.42c-.05.09-.09.15-.12.21a2.37,2.37,0,0,1-1.86,1.44,2.38,2.38,0,0,1-2.48-1.38l-.13-.28a1.34,1.34,0,0,0-.11.17,2.43,2.43,0,0,1-1.66,1.47l-.26.09.35.12a2.13,2.13,0,1,1-1.3,0l.32-.09c-.29-.11-.55-.2-.81-.31a1.82,1.82,0,0,1-.64-.5c-.18-.22-.33-.46-.5-.69a2.86,2.86,0,0,1-1.79,1.51l.4.18a2.15,2.15,0,1,1-1.81,0l.4-.18a2.86,2.86,0,0,1-1.81-1.54,2.84,2.84,0,0,1-1.75,1.55l.32.16a2.12,2.12,0,0,1,1.17,1.34,2.16,2.16,0,1,1-3.12-1.26l.49-.24c-.18-.11-.35-.15-.5-.23a3.83,3.83,0,0,1-.49-.32,2.63,2.63,0,0,1-.38-.39c-.11-.14-.2-.3-.3-.43s-.11,0-.14.07a2.58,2.58,0,0,1-1.42,1.21l-.18.08.33.17a2.11,2.11,0,0,1,1,1,2.17,2.17,0,1,1-2.95-1,1,1,0,0,0,.38-.22,3.52,3.52,0,0,1-1-.58,4.55,4.55,0,0,1-.69-.92,3.58,3.58,0,0,1-.68.93,3.21,3.21,0,0,1-1,.55c0,.16.18.15.28.19a2.12,2.12,0,0,1,1.08,1.13,2.17,2.17,0,1,1-4.16.9,2.07,2.07,0,0,1,1.16-2l.42-.2a6.71,6.71,0,0,1-.71-.36,2.83,2.83,0,0,1-.56-.48,6.75,6.75,0,0,1-.46-.66c-.13.09-.15.25-.24.37s-.18.25-.29.37a2.51,2.51,0,0,1-.35.31,3.12,3.12,0,0,1-.4.24l-.46.2.34.17a2.11,2.11,0,0,1,1.23,1.73,2.16,2.16,0,1,1-4.31.35,2.06,2.06,0,0,1,1.1-2c.13-.08.28-.14.42-.21,0-.11-.11-.1-.17-.13s-.17-.07-.25-.11l-.21-.11-.19-.13-.21-.18-.16-.17-.15-.18-.15-.23-.14-.21c-.14.1-.18.25-.28.37a3.19,3.19,0,0,1-.27.33,2.84,2.84,0,0,1-.36.3,2.62,2.62,0,0,1-.37.21l-.43.18c0,.12.13.11.21.14a2.11,2.11,0,0,1,1.09,1,2.07,2.07,0,0,1-.05,2.19,2,2,0,0,1-1.94,1,2.13,2.13,0,0,1-2-2.58,2.08,2.08,0,0,1,1.15-1.49Zm75.19-13.84a2.89,2.89,0,0,1,1.31,1.79c.06-.17.11-.33.18-.48a2.37,2.37,0,0,1,.54-.8,3.43,3.43,0,0,1,.37-.29c.13-.1.31-.12.42-.25a3.82,3.82,0,0,1-1.48-1.27c-.12.17-.22.35-.35.51a3.28,3.28,0,0,1-.44.44C203.54,137.34,203.35,137.44,203.16,137.57Zm-133.81,0a2.72,2.72,0,0,1,1.06.68,2.94,2.94,0,0,1,.56,1.1l0,0,0-.15a2.28,2.28,0,0,1,1.15-1.45.45.45,0,0,0,.09-.1,7.46,7.46,0,0,1-.76-.56,7.78,7.78,0,0,1-.61-.73A3.14,3.14,0,0,1,69.34,137.54Zm15.4,6.57a2.77,2.77,0,0,1,1.3-1.89,7.77,7.77,0,0,1-.75-.54,7.37,7.37,0,0,1-.59-.68,7,7,0,0,1-.66.68,7.61,7.61,0,0,1-.83.51,5.67,5.67,0,0,1,.54.32,2.39,2.39,0,0,1,.45.42,2.74,2.74,0,0,1,.34.57A5.35,5.35,0,0,1,84.75,144.11Zm18.4,1.58c-.12.14-.21.26-.32.38a2.61,2.61,0,0,1-.31.29c-.12.09-.26.17-.39.25s-.29.1-.41.24l.26.15a5.44,5.44,0,0,1,.53.39,2.06,2.06,0,0,1,.55.88c0,.1,0,.24.16.29a.76.76,0,0,0,0-.11,2.34,2.34,0,0,1,1.16-1.49s.06-.07.09-.11a7.51,7.51,0,0,1-.72-.49A8.72,8.72,0,0,1,103.15,145.69Zm87.47-1.76a2.65,2.65,0,0,1,1.48-1.75,7,7,0,0,1-.76-.47,8.11,8.11,0,0,1-.67-.67c-.12.16-.23.32-.36.45a4,4,0,0,1-.46.42c-.15.12-.32.21-.48.32A2.8,2.8,0,0,1,190.62,143.92Zm-81.58,3a8.42,8.42,0,0,1-.71-.5,8.18,8.18,0,0,1-.57-.6,7.91,7.91,0,0,1-.59.59c-.22.18-.47.31-.72.48a.83.83,0,0,0,.12.1,2.28,2.28,0,0,1,1.15,1.5.68.68,0,0,0,.1.16c.07-.2.11-.38.19-.54a2.34,2.34,0,0,1,.24-.44,2.79,2.79,0,0,1,.36-.4C108.72,147.12,108.87,147,109,146.89Zm58.58-1.06a.69.69,0,0,0-.11.1,3,3,0,0,1-1,.88s-.06.07-.08.11a2.56,2.56,0,0,1,1.14,1.55l.08.15a3,3,0,0,1,.46-1,3.6,3.6,0,0,1,.83-.72,4.29,4.29,0,0,1-1.29-1Zm-92.07-6.77a3.14,3.14,0,0,1,1.06-1.43c-.15-.11-.3-.21-.43-.32s-.24-.23-.37-.35-.19-.3-.35-.41l-.12.13a2.76,2.76,0,0,1-.95.79c-.05,0-.13,0-.11.13A2.77,2.77,0,0,1,75.55,139.06Zm36.79,9.24c.06-.06.1-.09.11-.12a2.47,2.47,0,0,1,.92-1.17.44.44,0,0,0,.08-.11c-.21-.15-.41-.27-.59-.42s-.35-.34-.5-.48l-.37.32-.4.31-.38.25c.24.22.47.4.67.61A2.26,2.26,0,0,1,112.34,148.3Zm-23-7c-.13.13-.24.25-.36.36s-.24.19-.36.29a3.36,3.36,0,0,0-.43.28c.15.11.28.19.39.28a2.45,2.45,0,0,1,.31.29,3.1,3.1,0,0,1,.27.38c.08.13.14.26.23.42a7.33,7.33,0,0,1,.47-.75,7.1,7.1,0,0,1,.61-.61c-.19-.14-.4-.27-.58-.43S89.49,141.48,89.3,141.3Zm111.77-3.73a3.06,3.06,0,0,1-1.14-1c-.13.15-.23.29-.34.41a4,4,0,0,1-.34.32c-.13.11-.26.2-.39.3a7.47,7.47,0,0,1,.56.61,7.12,7.12,0,0,1,.41.7A3.09,3.09,0,0,1,201.07,137.56ZM163,146c-.18.18-.34.35-.52.5s-.37.27-.56.41a7.53,7.53,0,0,1,.61.63,6.64,6.64,0,0,1,.43.7,7,7,0,0,1,.49-.76,6.67,6.67,0,0,1,.65-.6c-.21-.14-.41-.26-.6-.4S163.2,146.17,163,146Zm22-3.74c.15.14.3.25.42.38a3.66,3.66,0,0,1,.35.46c.1.14.17.3.26.49.08-.16.14-.29.21-.41a2.91,2.91,0,0,1,.27-.38c.09-.11.21-.19.31-.3s.27-.13.34-.28,0-.06-.07-.07a3,3,0,0,1-.91-.71.52.52,0,0,0-.13-.08A3.59,3.59,0,0,1,185,142.27Zm-68,6c.1-.21.17-.37.26-.53a3.48,3.48,0,0,1,.35-.47c.12-.13.26-.25.4-.38-.2-.14-.38-.26-.55-.41s-.33-.32-.5-.48c-.18.17-.33.33-.5.46s-.37.27-.56.4A3.21,3.21,0,0,1,117,148.31Zm42.49-1.39c-.2-.14-.38-.26-.55-.39s-.33-.31-.51-.47c-.17.17-.32.34-.49.48s-.34.26-.52.39a7.1,7.1,0,0,1,.58.61,7.77,7.77,0,0,1,.44.74c.1-.19.17-.37.27-.53a2.77,2.77,0,0,1,.33-.43C159.16,147.18,159.31,147.06,159.47,146.92ZM92.9,142.25a7.06,7.06,0,0,1,.57.54,8.08,8.08,0,0,1,.47.68c.13-.22.24-.42.37-.61s.32-.37.5-.56c-.16-.13-.33-.25-.48-.39s-.29-.29-.45-.44c-.17.15-.31.29-.47.42S93.07,142.13,92.9,142.25Zm88.57-.72-.89.78c.12.12.24.23.34.34s.19.25.28.37.11.29.28.41a2.9,2.9,0,0,1,.92-1.15ZM125.21,147a2.81,2.81,0,0,1,.94,1.19c.14-.23.25-.44.39-.62s.32-.36.5-.56c-.16-.13-.31-.25-.47-.36s-.27-.31-.46-.4c-.15.14-.28.26-.42.38Zm-3.64-.79c-.18.16-.32.29-.47.41s-.3.23-.44.33c.18.19.35.35.49.53s.28.4.43.63c.13-.21.25-.41.39-.59s.33-.36.52-.55c-.16-.12-.32-.23-.47-.35S121.73,146.32,121.57,146.17Zm32.25,0-.89.75c.16.17.33.33.47.51s.26.39.4.61c.12-.13.17-.31.27-.43l.3-.36c.1-.13.27-.19.35-.35Zm-4.64,1.92.41-.65c.13-.2.36-.32.49-.55l-.45-.34-.43-.38-.41.39c-.13.13-.33.2-.46.38A3,3,0,0,1,149.19,148.13ZM135.37,148c.13-.2.23-.39.36-.56s.31-.34.48-.53l-.44-.34-.41-.37-.41.37-.44.35c.16.18.32.33.45.5S135.24,147.84,135.37,148Zm5.48-1.09-.87-.71c-.15.14-.29.25-.42.38s-.32.17-.41.34c.16.18.32.33.46.5s.24.36.38.57c.13-.2.24-.39.37-.56S140.68,147.15,140.86,147Zm-9.26,0-.82-.67-.83.68c.12.12.22.21.31.31s.18.22.27.33.12.25.26.35A3.69,3.69,0,0,1,131.6,147Zm-52.38-9.32c.12.11.24.2.35.31s.19.21.29.32.14.27.27.36l.74-.94c-.12-.11-.25-.23-.39-.34s-.23-.32-.41-.37ZM144.59,148l.38-.56c.12-.18.32-.29.44-.49l-.42-.31c-.15-.1-.23-.28-.4-.33l-.8.66A3.58,3.58,0,0,1,144.59,148Zm50.69-9.39a3.1,3.1,0,0,1,.8-.95l-.41-.32c-.13-.09-.22-.25-.39-.32-.22.27-.5.45-.71.69Zm-96.73,4.63.68-.89-.72-.63-.73.59Zm78.34-1.48-.67.58.63.81.34-.44c.12-.15.29-.24.38-.42Zm-92.19-3.32.47-.63a3.6,3.6,0,0,0-.62-.53c-.16.17-.37.25-.48.44Zm88.12,3.92a2.25,2.25,0,0,0-.53-.43c-.1.09-.19.16-.27.24s-.21.11-.22.26l.35.46a1.09,1.09,0,0,0,.14.12Zm17.93-5.07a3,3,0,0,0-.52.52l.22.29.21.29L191,138c.09-.12.23-.2.31-.36Zm-88.15,5.07.55.64a5.5,5.5,0,0,0,.47-.6,2.28,2.28,0,0,0-.56-.43Zm5.2-.34a1.8,1.8,0,0,0-.47.43c.15.14.24.32.42.47a3.19,3.19,0,0,0,.42-.57Zm59.79.85a1.68,1.68,0,0,0,.41-.47,1.56,1.56,0,0,0-.43-.35,1,1,0,0,0-.38.33Zm-55.26-.13a1.57,1.57,0,0,0,.37-.46l-.16-.1-.17-.1-.33.3Zm4.33-.4a.69.69,0,0,0,.3.3,1.32,1.32,0,0,0,.31-.38L117,142A1,1,0,0,0,116.67,142.32Zm-27.3-4.82-.35.3.27.3a.85.85,0,0,0,.34-.41ZM163,142l-.23.2s0,0,0,.1.16.23.3.31a.6.6,0,0,0,.27-.34Zm-4.3.27a.57.57,0,0,0-.29-.28.43.43,0,0,0-.28.26l.27.31C158.55,142.56,158.6,142.43,158.69,142.32Zm27.65-4.53-.3-.26a.24.24,0,0,0-.23.21c.09.09.14.23.29.3Zm-92.64,0,.18.19.29-.35-.15-.13A.54.54,0,0,0,93.7,137.75ZM126.23,142c-.16.11-.28.14-.29.3l.19.17a.39.39,0,0,0,.24-.32Zm-4.69.5c.13-.07.22-.14.24-.28l-.21-.17-.23.22Zm27.89-.27-.23-.21c-.1.05-.2.09-.19.25l.21.19Zm4.58.06c-.21-.26-.23-.26-.4,0l.22.23Zm27.46-4.38c.18-.2.18-.25,0-.37s-.13-.07-.27.11ZM135.39,142c-.12,0-.2.09-.2.24l.19.17.2-.22Zm4.4.19.19.2c.21-.15.24-.2.17-.28S140,142,139.79,142.22Zm-9-.18c-.06.08-.13.13-.14.19s.06.1.11.13.17-.06.16-.12S130.85,142.13,130.78,142Zm13.86.32a.52.52,0,0,0,.1-.15c0-.06-.1-.15-.16-.12a.24.24,0,0,0-.11.13C144.45,142.29,144.54,142.37,144.64,142.36Zm-46-4.86h-.05c-.06,0-.1.07-.08.14l0,0c.08,0,.11,0,.12-.11S98.63,137.53,98.62,137.49Zm-32.37,2.22a2.15,2.15,0,1,0-2.16,2.15A2.15,2.15,0,0,0,66.24,139.71ZM93.8,149a2.14,2.14,0,1,0-2.16,2.11A2.14,2.14,0,0,0,93.8,149Zm108.29-6.8a2.13,2.13,0,0,0,0,4.25,2.13,2.13,0,1,0,0-4.25Zm-128.81,0a2.11,2.11,0,1,0,2.1,2.11A2.1,2.1,0,0,0,73.29,142.23Zm87.43,9.2a2.11,2.11,0,1,0,2.1,2.11A2.11,2.11,0,0,0,160.71,151.42Zm27.58-4.55a2.11,2.11,0,1,0,2.08,2.13A2.09,2.09,0,0,0,188.3,146.87Zm-75.72,6.68a2.1,2.1,0,1,0,2.09-2.12A2.08,2.08,0,0,0,112.57,153.55Zm-25.45-6.66A2.09,2.09,0,1,0,89.2,149,2.06,2.06,0,0,0,87.13,146.88Zm126.71-7.18a2.08,2.08,0,1,0,2.09-2.09A2.06,2.06,0,0,0,213.84,139.7Zm-46.51,13.84a2.07,2.07,0,1,0-2.07,2.05A2.06,2.06,0,0,0,167.33,153.55Zm-55.14,0a2.06,2.06,0,1,0-2.08,2A2.06,2.06,0,0,0,112.19,153.56Zm-52.75-15.9a2.05,2.05,0,1,0,2.07,2A2,2,0,0,0,59.44,137.65Zm147.3,4.64a2,2,0,1,0,2,2.07A2,2,0,0,0,206.75,142.29ZM58,136.81a2.22,2.22,0,0,0,3,0,2.18,2.18,0,0,0,.29-2.89c-.3,0-3.06-.05-3.59,0A2.19,2.19,0,0,0,58,136.81Zm114,16.74a2,2,0,0,0-2-2.06,2,2,0,0,0,0,4.08A2,2,0,0,0,171.94,153.55Zm21-6.62a2,2,0,1,0,2,2.05A2,2,0,0,0,192.94,146.94Zm-87.44,8.63a2,2,0,1,0,0-4.07,2,2,0,0,0,0,4.07ZM70.76,144.34a2,2,0,0,0-4.07,0,2,2,0,0,0,4.07,0ZM82.47,151a2,2,0,1,0-2-2A2,2,0,0,0,82.47,151Zm92,.53a2,2,0,0,0-2,2,2,2,0,1,0,4,0A2,2,0,0,0,174.51,151.53Zm-73.56,0a2,2,0,0,0-2,2,2,2,0,0,0,4,0A2,2,0,0,0,101,151.54Zm121.52-11.76a2,2,0,0,0-1.94-2.07,2,2,0,0,0-.12,4A2,2,0,0,0,222.48,139.78ZM219,136.71a2.14,2.14,0,0,0,2.91,0,2.12,2.12,0,0,0,.28-2.86c-.32,0-3.1,0-3.43,0A2.09,2.09,0,0,0,219,136.71ZM197.47,147a2,2,0,1,0,2,2A2,2,0,0,0,197.47,147Zm-144-10.3a2.13,2.13,0,0,0,3,0,2.07,2.07,0,0,0,.16-2.8H53.24A2.09,2.09,0,0,0,53.44,136.7Zm159.83,7.62a2,2,0,0,0-3.95,0,2,2,0,1,0,3.95,0ZM54.91,137.74a2,2,0,0,0-2,2,2,2,0,1,0,3.93,0A2,2,0,0,0,54.91,137.74Zm23,9.27a2,2,0,1,0,2,2A2,2,0,0,0,77.92,147Zm101.17,4.57a2,2,0,0,0-2,1.92,2,2,0,0,0,1.93,2,2,2,0,0,0,2-1.94A1.93,1.93,0,0,0,179.09,151.58Zm-82.8,3.9a1.95,1.95,0,1,0-1.94-2A1.94,1.94,0,0,0,96.29,155.48ZM66,144.35a2,2,0,1,0-2,1.94A1.95,1.95,0,0,0,66,144.35Zm157.24-8.27a2,2,0,0,0,1.86,1.12,2.05,2.05,0,0,0,1.75-3.09.47.47,0,0,0-.47-.26h-2.9A2,2,0,0,0,223.28,136.08Zm-39.58,15.55a1.9,1.9,0,1,0,1.92,1.89A1.89,1.89,0,0,0,183.71,151.62Zm18.4-4.55A1.9,1.9,0,1,0,204,149,1.9,1.9,0,0,0,202.11,147.07Zm21.11-7.38a1.89,1.89,0,1,0,3.78,0,1.89,1.89,0,0,0-3.78,0ZM48.84,136.59a2,2,0,0,0,3-2.72H48.72A2,2,0,0,0,48.84,136.59ZM89.77,153.5a1.89,1.89,0,1,0,1.9-1.86A1.89,1.89,0,0,0,89.77,153.5Zm-16.48-6.42a1.89,1.89,0,1,0,1.87,1.9A1.87,1.87,0,0,0,73.29,147.09Zm144.51-2.74a1.89,1.89,0,1,0-1.89,1.88A1.88,1.88,0,0,0,217.81,144.34Zm-73.6,13.83a1.88,1.88,0,1,0-3.76,0,1.88,1.88,0,0,0,3.76,0Zm-4.64,0a1.88,1.88,0,1,0-3.77,0,1.88,1.88,0,0,0,3.77,0Zm9.19,0a1.88,1.88,0,0,0-3.76,0,1.88,1.88,0,1,0,3.76,0Zm-13.83,0a1.89,1.89,0,0,0-1.89-1.88,1.87,1.87,0,0,0-1.86,1.86A1.84,1.84,0,0,0,133,160,1.86,1.86,0,0,0,134.94,158.16ZM50.3,137.83a1.87,1.87,0,1,0,1.83,1.89A1.87,1.87,0,0,0,50.3,137.83Zm78.21,18.45a1.88,1.88,0,0,0-1.88,1.88,1.86,1.86,0,0,0,1.9,1.86,1.84,1.84,0,0,0,1.84-1.87A1.87,1.87,0,0,0,128.51,156.29Zm-69-13.82a1.87,1.87,0,1,0,1.84,1.88A1.86,1.86,0,0,0,59.48,142.47Zm92,13.82a1.87,1.87,0,1,0,1.86,1.86A1.87,1.87,0,0,0,151.52,156.29Zm-25.79,1.89a1.86,1.86,0,1,0-1.87,1.84A1.85,1.85,0,0,0,125.72,158.18Zm62.53-6.5a1.86,1.86,0,1,0,1.87,1.85A1.87,1.87,0,0,0,188.26,151.67Zm-32.16,4.64a1.85,1.85,0,1,0,1.82,1.86A1.86,1.86,0,0,0,156.09,156.31Zm-67.15-2.77a1.81,1.81,0,0,0-1.82-1.86,1.84,1.84,0,1,0,0,3.68A1.81,1.81,0,0,0,88.94,153.54Zm30.38,2.78a1.84,1.84,0,1,0,1.83,1.84A1.85,1.85,0,0,0,119.32,156.32ZM227.8,135.71a1.85,1.85,0,0,0,1.56,1.35,1.83,1.83,0,0,0,1.94-.87,1.9,1.9,0,0,0,0-2.1.45.45,0,0,0-.44-.25H228.2A1.9,1.9,0,0,0,227.8,135.71Zm-67.06,20.62a1.84,1.84,0,0,0-1.86,1.81,1.82,1.82,0,1,0,3.64,0A1.84,1.84,0,0,0,160.74,156.34ZM43.82,135.52a1.93,1.93,0,1,0,3.52-1.41.48.48,0,0,0-.47-.26c-.78,0-1.56,0-2.34,0h-.26A1.92,1.92,0,0,0,43.82,135.52Zm162.92,11.63a1.82,1.82,0,1,0,1.82,1.8A1.82,1.82,0,0,0,206.74,147.15Zm-93.88,11a1.81,1.81,0,1,0,1.82-1.8A1.8,1.8,0,0,0,112.86,158.15Zm-44.13-11a1.8,1.8,0,1,0,1.8,1.81A1.79,1.79,0,0,0,68.73,147.17Zm94.73,11a1.79,1.79,0,1,0,1.81-1.78A1.8,1.8,0,0,0,163.46,158.14Zm-51.55,0a1.79,1.79,0,1,0-1.77,1.8A1.79,1.79,0,0,0,111.91,158.15Zm117.74-20.23a1.79,1.79,0,1,0,1.8,1.77A1.79,1.79,0,0,0,229.65,137.92Zm-9.19,4.63a1.79,1.79,0,1,0,1.8,1.78A1.79,1.79,0,0,0,220.47,142.55Zm-27.56,9.19a1.79,1.79,0,0,0,0,3.58,1.79,1.79,0,0,0,0-3.58Zm-110.42,0a1.75,1.75,0,0,0-1.79,1.78,1.77,1.77,0,1,0,3.55,0A1.76,1.76,0,0,0,82.49,151.76Zm-35-12a1.77,1.77,0,0,0-3.53-.07,1.77,1.77,0,1,0,3.53.07Zm7.45,2.85a1.77,1.77,0,1,0,1.74,1.78A1.77,1.77,0,0,0,54.92,142.57Zm113.21,15.58a1.76,1.76,0,1,0,1.78-1.75A1.77,1.77,0,0,0,168.14,158.16Zm-60.9,0a1.75,1.75,0,1,0-1.76,1.72A1.75,1.75,0,0,0,107.23,158.19Zm128.34-24.33h-2.42a.34.34,0,0,0-.29.16,1.84,1.84,0,0,0,1.42,3,1.81,1.81,0,0,0,1.7-1.09,1.79,1.79,0,0,0-.38-2ZM211.3,147.24A1.74,1.74,0,1,0,213,149,1.73,1.73,0,0,0,211.3,147.24ZM40.56,136.88a1.81,1.81,0,0,0,2-2.8.5.5,0,0,0-.45-.24c-.69,0-1.38,0-2.06,0l-.23,0A1.81,1.81,0,0,0,40.56,136.88Zm158.63,16.65a1.72,1.72,0,1,0-1.72,1.71A1.73,1.73,0,0,0,199.18,153.54Zm-24.64,2.92a1.71,1.71,0,1,0,0,3.42,1.71,1.71,0,0,0,0-3.42ZM65.8,149a1.71,1.71,0,1,0-1.72,1.69A1.7,1.7,0,0,0,65.8,149Zm12.09,2.83a1.7,1.7,0,1,0,1.71,1.69A1.7,1.7,0,0,0,77.9,151.83Zm24.74,6.33a1.7,1.7,0,1,0-1.71,1.71A1.71,1.71,0,0,0,102.63,158.16Zm120.8-13.87a1.69,1.69,0,1,0,1.72-1.65A1.69,1.69,0,0,0,223.43,144.29ZM236,139.72A1.67,1.67,0,0,0,234.3,138a1.67,1.67,0,0,0,0,3.35A1.67,1.67,0,0,0,236,139.72Zm-58.55,18.44a1.66,1.66,0,1,0,1.67-1.66A1.67,1.67,0,0,0,177.42,158.16Zm-79.47,0a1.65,1.65,0,0,0-1.63-1.65,1.68,1.68,0,0,0-1.68,1.64,1.65,1.65,0,0,0,1.65,1.67A1.63,1.63,0,0,0,97.95,158.16Zm-46-13.84a1.65,1.65,0,0,0-3.31,0,1.65,1.65,0,1,0,3.31,0Zm187-10.46h-1a.38.38,0,0,0-.31.13,1.65,1.65,0,0,0-.39,1.59,1.67,1.67,0,0,0,1.82,1.27,1.6,1.6,0,0,0,1.43-1,1.66,1.66,0,0,0-.3-1.79.44.44,0,0,0-.38-.16H239Zm-23,13.48a1.64,1.64,0,1,0,0,3.29,1.64,1.64,0,0,0,0-3.29Zm-15.46,6.17a1.64,1.64,0,1,0,1.66-1.61A1.64,1.64,0,0,0,200.46,153.5ZM41.09,141.35a1.65,1.65,0,0,0,1.63-1.66,1.63,1.63,0,0,0-1.65-1.62,1.61,1.61,0,0,0-1.62,1.65A1.63,1.63,0,0,0,41.09,141.35Zm-3-5.49A1.64,1.64,0,0,0,37.8,134a.47.47,0,0,0-.4-.19c-.57,0-1.14,0-1.71,0a.55.55,0,0,0-.49.25,1.69,1.69,0,1,0,2.86,1.77Zm33.6,17.65a1.63,1.63,0,1,0,1.62-1.61A1.63,1.63,0,0,0,71.65,153.52Zm-12.17-6.16a1.62,1.62,0,1,0-.07,3.24,1.62,1.62,0,1,0,.07-3.24Zm125.84,10.81a1.62,1.62,0,0,0-1.59-1.61,1.61,1.61,0,1,0,1.59,1.61Zm-93.69,1.6a1.6,1.6,0,1,0-1.58-1.6A1.6,1.6,0,0,0,91.64,159.76Zm139.59-15.44a1.57,1.57,0,1,0-1.58,1.58A1.56,1.56,0,0,0,231.24,144.33Zm-95.11,18.38a1.56,1.56,0,0,0,3.12,0,1.56,1.56,0,0,0-3.12,0Zm-3.06,1.56a1.55,1.55,0,1,0,0-3.1,1.55,1.55,0,1,0,0,3.1Zm72.12-10.73a1.55,1.55,0,1,0,1.55-1.57A1.55,1.55,0,0,0,205.19,153.54Zm-15.36,4.65a1.55,1.55,0,1,0-1.56,1.52A1.56,1.56,0,0,0,189.83,158.19ZM245,135.75a1.6,1.6,0,0,0-.38-1.76.47.47,0,0,0-.35-.14h-1.48a.5.5,0,0,0-.38.16,1.59,1.59,0,1,0,2.58,1.74Zm-99.63,26.94a1.55,1.55,0,1,0,1.55-1.51A1.54,1.54,0,0,0,145.33,162.69Zm-4.56,0a1.55,1.55,0,1,0,1.54-1.57A1.54,1.54,0,0,0,140.78,162.74ZM47.26,144.35a1.55,1.55,0,1,0-1.55,1.53A1.55,1.55,0,0,0,47.26,144.35Zm193.23-4.62a1.55,1.55,0,1,0-1.56,1.52A1.53,1.53,0,0,0,240.48,139.73ZM127,162.71a1.54,1.54,0,1,0,3.09,0,1.54,1.54,0,0,0-3.09,0Zm24.57-1.53a1.54,1.54,0,1,0,1.52,1.55A1.53,1.53,0,0,0,151.53,161.18ZM68.77,152a1.5,1.5,0,0,0-1.58,1.46,1.53,1.53,0,0,0,1.46,1.61,1.56,1.56,0,0,0,1.6-1.48A1.53,1.53,0,0,0,68.77,152Zm55.07,9.19a1.52,1.52,0,0,0-1.51,1.53,1.5,1.5,0,0,0,1.54,1.53,1.52,1.52,0,0,0,1.53-1.54A1.54,1.54,0,0,0,123.84,161.19ZM222,149a1.54,1.54,0,1,0-1.56,1.5A1.52,1.52,0,0,0,222,149ZM88.64,158.17a1.53,1.53,0,0,0-3.06,0,1.53,1.53,0,1,0,3.06,0ZM32.94,134a.48.48,0,0,0-.35-.15h-1.4a.49.49,0,0,0-.35.14,1.54,1.54,0,0,0-.5.91,1.56,1.56,0,0,0,1.38,1.79,1.54,1.54,0,0,0,1.72-1.44A1.61,1.61,0,0,0,32.94,134Zm123.15,27.2a1.51,1.51,0,0,0,0,3,1.51,1.51,0,1,0,0-3ZM54.88,147.46A1.51,1.51,0,1,0,56.41,149,1.52,1.52,0,0,0,54.88,147.46ZM38,139.71a1.51,1.51,0,0,0-1.51-1.52,1.51,1.51,0,0,0,0,3A1.52,1.52,0,0,0,38,139.71Zm81.28,24.51a1.48,1.48,0,0,0,1.5-1.48,1.5,1.5,0,1,0-3,0A1.47,1.47,0,0,0,119.32,164.21Zm41.39-3a1.48,1.48,0,1,0,1.49,1.48A1.47,1.47,0,0,0,160.7,161.24Zm33.68-3.09a1.47,1.47,0,1,0-1.47,1.49A1.46,1.46,0,0,0,194.38,158.15Zm-81.18,4.56a1.47,1.47,0,0,0,2.94,0,1.47,1.47,0,0,0-2.94,0ZM211.3,155a1.46,1.46,0,1,0-1.47-1.45A1.47,1.47,0,0,0,211.3,155ZM81,158.17a1.47,1.47,0,1,0,1.46-1.46A1.47,1.47,0,0,0,81,158.17Zm85.7,4.57a1.45,1.45,0,1,0-1.46,1.42A1.44,1.44,0,0,0,166.71,162.75Zm-55.14,0a1.45,1.45,0,1,0-2.89,0,1.45,1.45,0,0,0,2.89,0Zm122.75-19.82a1.45,1.45,0,1,0,1.43,1.44A1.45,1.45,0,0,0,234.31,142.89Zm-170.24,9.2a1.43,1.43,0,1,0,1.46,1.42A1.43,1.43,0,0,0,64.07,152.09Zm161-4.54a1.42,1.42,0,1,0,1.42,1.41A1.43,1.43,0,0,0,225.12,147.55Zm22.61-13.7a.65.65,0,0,0-.5.18,1.4,1.4,0,0,0-.48,1.51A1.44,1.44,0,1,0,249,134a.68.68,0,0,0-.5-.18c-.14,0-.29,0-.43,0ZM42.49,144.35a1.41,1.41,0,1,0-2.82,0,1.41,1.41,0,1,0,2.82,0Zm126,18.36a1.41,1.41,0,1,0,1.41-1.41A1.4,1.4,0,0,0,168.49,162.72Zm75-24.41a1.4,1.4,0,0,0-1.4,1.41,1.4,1.4,0,0,0,2.8,0A1.39,1.39,0,0,0,243.49,138.3Zm-139.4,24.44a1.4,1.4,0,1,0,1.4-1.41A1.37,1.37,0,0,0,104.09,162.74Zm94.77-4.56a1.39,1.39,0,1,0-2.79,0,1.39,1.39,0,0,0,2.79,0ZM50.28,147.58A1.39,1.39,0,1,0,51.66,149,1.38,1.38,0,0,0,50.28,147.58ZM27,133.85a.86.86,0,0,0-.73.3,1.42,1.42,0,0,0-.29,1.58,1.34,1.34,0,0,0,1.3.81,1.3,1.3,0,0,0,1.25-.83,1.36,1.36,0,0,0-.25-1.52.87.87,0,0,0-.78-.34h-.23A2.13,2.13,0,0,1,27,133.85Zm51,22.94a1.38,1.38,0,1,0,1.34,1.39A1.37,1.37,0,0,0,78,156.79Zm98,5.94a1.37,1.37,0,1,0-1.37,1.36A1.38,1.38,0,0,0,175.91,162.73Zm-145.39-23a1.37,1.37,0,1,0,2.74,0,1.37,1.37,0,0,0-2.74,0Zm70.4,24.38a1.36,1.36,0,1,0-1.34-1.39A1.36,1.36,0,0,0,100.91,164.08Zm116.37-10.57a1.36,1.36,0,1,0-1.34,1.38A1.33,1.33,0,0,0,217.28,153.51Zm-159.16,0a1.33,1.33,0,0,0,2.66,0,1.33,1.33,0,1,0-2.66,0Zm144,3.32a1.31,1.31,0,1,0,1.28,1.35A1.31,1.31,0,0,0,202.13,156.86Zm-21.74,5.86a1.3,1.3,0,1,0-1.31,1.31A1.28,1.28,0,0,0,180.39,162.71Zm57.25-18.39a1.3,1.3,0,1,0,2.61,0,1.3,1.3,0,0,0-2.61,0Zm-140,18.4a1.31,1.31,0,0,0-1.32-1.3,1.3,1.3,0,1,0,0,2.59A1.31,1.31,0,0,0,97.6,162.72ZM231,149a1.29,1.29,0,0,0-1.3-1.32A1.29,1.29,0,1,0,231,149Zm21.72-15.14a1.29,1.29,0,1,0,0,2.58,1.29,1.29,0,1,0,0-2.58Zm-179.4,23a1.28,1.28,0,0,0-1.3,1.27,1.29,1.29,0,1,0,1.3-1.27Zm-27.58-6.64A1.27,1.27,0,1,0,44.44,149,1.26,1.26,0,0,0,45.72,150.24Zm-9.2-7.17a1.27,1.27,0,0,0,0,2.53,1.27,1.27,0,1,0,0-2.53Zm210.37-3.38a1.24,1.24,0,1,0,1.24-1.24A1.23,1.23,0,0,0,246.89,139.7Zm-61.93,23a1.24,1.24,0,1,0-1.24,1.23A1.23,1.23,0,0,0,185,162.72ZM22.69,133.91a1.24,1.24,0,1,0,1.25,1.22A1.23,1.23,0,0,0,22.69,133.91Zm197.8,18.39a1.22,1.22,0,0,0-1.24,1.24,1.23,1.23,0,1,0,1.24-1.24Zm-130,10.42a1.22,1.22,0,0,0,2.44,0,1.22,1.22,0,1,0-2.44,0Zm-36.75-9.18a1.22,1.22,0,0,0,1.2,1.19,1.2,1.2,0,0,0,1.21-1.18,1.21,1.21,0,1,0-2.41,0Zm151.84,4.6a1.2,1.2,0,1,0,2.4,0,1.2,1.2,0,0,0-2.4,0ZM28.45,139.73a1.2,1.2,0,1,0-1.21,1.17A1.2,1.2,0,0,0,28.45,139.73ZM68.76,157a1.18,1.18,0,1,0,1.14,1.2A1.17,1.17,0,0,0,68.76,157Zm118.35,5.71a1.17,1.17,0,1,0,1.18-1.14A1.15,1.15,0,0,0,187.11,162.69Zm57.53-18.36a1.14,1.14,0,1,0-1.13,1.16A1.15,1.15,0,0,0,244.64,144.33ZM88.26,162.73a1.15,1.15,0,1,0-1.15,1.12A1.14,1.14,0,0,0,88.26,162.73Zm146.06-14.9a1.14,1.14,0,1,0,1.13,1.15A1.13,1.13,0,0,0,234.32,147.83ZM133.06,166.22a1.14,1.14,0,1,0,1.12,1.15A1.14,1.14,0,0,0,133.06,166.22Zm10.4,1.12a1.13,1.13,0,1,0-1.12,1.16A1.14,1.14,0,0,0,143.46,167.33Zm-5.77-1.12a1.14,1.14,0,0,0,0,2.27,1.14,1.14,0,1,0,0-2.27Zm9.21,0a1.12,1.12,0,1,0,0,2.25,1.14,1.14,0,0,0,1.13-1.11A1.12,1.12,0,0,0,146.9,166.23Zm-19.52,1.08a1.13,1.13,0,1,0,1.16-1.08A1.13,1.13,0,0,0,127.38,167.31ZM41.09,150.09A1.11,1.11,0,1,0,40,149,1.12,1.12,0,0,0,41.09,150.09Zm109.32,17.24a1.1,1.1,0,0,0,1,1.14,1.11,1.11,0,1,0,.1-2.22A1.09,1.09,0,0,0,150.41,167.32Zm105.81-32.18a1.1,1.1,0,1,0,2.2,0,1.1,1.1,0,0,0-2.2,0ZM123.86,166.26a1.1,1.1,0,1,0,1.11,1.11A1.1,1.1,0,0,0,123.86,166.26Zm-91.92-23a1.1,1.1,0,1,0,1,1.14A1.11,1.11,0,0,0,31.94,143.24ZM224,153.54a1.1,1.1,0,1,0,1.11-1.11A1.1,1.1,0,0,0,224,153.54Zm-11.64,4.62a1.08,1.08,0,1,0-1.09,1.09A1.07,1.07,0,0,0,212.37,158.16Zm-19.47,3.48a1.08,1.08,0,1,0,1.09,1.08A1.07,1.07,0,0,0,192.9,161.64Zm-74.66,5.69a1.07,1.07,0,1,0,2.14,0,1.06,1.06,0,0,0-1.05-1.08A1.07,1.07,0,0,0,118.24,167.33Zm37.84-1a1.07,1.07,0,0,0-1.08,1.09,1.07,1.07,0,1,0,2.14,0A1.06,1.06,0,0,0,156.08,166.28Zm97.67-26.54a1.07,1.07,0,0,0-2.13-.08,1.07,1.07,0,0,0,2.13.08ZM64.1,157.1a1.06,1.06,0,1,0,1.05,1.07A1.05,1.05,0,0,0,64.1,157.1Zm-14.89-3.58a1.06,1.06,0,1,0,2.11,0,1.06,1.06,0,1,0-2.11,0Zm33.27,8.13a1.06,1.06,0,1,0,0,2.12,1.06,1.06,0,0,0,0-2.12ZM18.11,134.1a1.05,1.05,0,1,0-.06,2.1,1.05,1.05,0,0,0,.06-2.1Zm141.54,33.29a1.07,1.07,0,0,0,1.07,1,1.05,1.05,0,0,0,1-1.09,1.05,1.05,0,1,0-2.11.07Zm-45,1a1,1,0,1,0-1-1.06A1.05,1.05,0,0,0,114.66,168.39ZM23.72,139.71a1,1,0,1,0-1,1A1,1,0,0,0,23.72,139.71Zm141.53,26.63a1,1,0,0,0,0,2,1,1,0,1,0,0-2Zm33.21-3.62a1,1,0,0,0-1-1,1,1,0,0,0-1,1,1,1,0,0,0,1,1A1,1,0,0,0,198.45,162.72Zm-87.35,4.61a1,1,0,0,0-1-1,1,1,0,0,0-1,1,1,1,0,0,0,1,1A1,1,0,0,0,111.1,167.33Zm59.76,0a1,1,0,0,0-.94-1,1,1,0,0,0-1,1,1,1,0,0,0,1,1A1,1,0,0,0,170.86,167.37ZM239,148a1,1,0,1,0,0,1.95,1,1,0,0,0,0-1.95ZM77,162.73a1,1,0,0,0,1.92,0,1,1,0,0,0-1-1A1,1,0,0,0,77,162.73Zm139-3.61a1,1,0,1,0-1-1A1,1,0,0,0,215.94,159.13ZM36.54,148a.95.95,0,1,0,0,1.9.95.95,0,0,0,0-1.9Zm192.18,5.51a.94.94,0,0,0,1,.93.94.94,0,1,0-1-.93Zm20.35-9.2a.95.95,0,1,0-.93.95A1,1,0,0,0,249.08,144.34Zm-221.83-.93a.93.93,0,1,0,.93.91A.92.92,0,0,0,27.25,143.41Zm78.25,23a.93.93,0,1,0,.92.92A.92.92,0,0,0,105.5,166.43Zm69,0a.93.93,0,1,0,.92.91A.93.93,0,0,0,174.53,166.43ZM60.37,158.17a.91.91,0,1,0-.91.91A.91.91,0,0,0,60.37,158.17ZM203,162.73a.9.9,0,0,0-.91-.91.9.9,0,0,0,0,1.8A.9.9,0,0,0,203,162.73Zm-158.18-9.2a.86.86,0,0,0,.89.89.88.88,0,0,0,.91-.92.91.91,0,0,0-.91-.88A.89.89,0,0,0,44.82,153.53ZM261.9,134.27a.88.88,0,1,0,0,1.75.88.88,0,0,0,0-1.75Zm-161,32.23a.86.86,0,0,0-.83.87.87.87,0,0,0,.85.85.86.86,0,0,0,.86-.87A.85.85,0,0,0,100.9,166.5Zm119.58-9.17a.84.84,0,0,0-.84.84.85.85,0,0,0,.84.84.84.84,0,0,0,0-1.68Zm36.84-18.46a.83.83,0,0,0-.84.84.84.84,0,1,0,.84-.84ZM74.11,162.73a.83.83,0,0,0-.85-.83.82.82,0,0,0,0,1.65A.83.83,0,0,0,74.11,162.73ZM179.9,167a.86.86,0,0,0-.42-.45.9.9,0,0,0-1.09.24.82.82,0,0,0,0,1.09,14.62,14.62,0,0,0,1.49-.25A.76.76,0,0,0,179.9,167Zm54.4-14.26a.78.78,0,1,0,.78.77A.78.78,0,0,0,234.3,152.75Zm-138,13.82a.77.77,0,1,0,.76.78A.78.78,0,0,0,96.31,166.58Zm148-17.6a.77.77,0,1,0-.77.77A.76.76,0,0,0,244.27,149ZM54.93,157.41a.74.74,0,0,0-.79.74.76.76,0,0,0,.72.77.75.75,0,0,0,.78-.75A.73.73,0,0,0,54.93,157.41ZM41.8,153.52a.72.72,0,0,0-.72-.71.73.73,0,0,0-.74.74.75.75,0,0,0,.74.7A.72.72,0,0,0,41.8,153.52Zm210.91-9.91a.72.72,0,1,0,0,1.44.72.72,0,0,0,0-1.44Zm-220.59,6a.22.22,0,0,0,.28,0,.77.77,0,0,0,.25-.81.75.75,0,0,0-.62-.58.73.73,0,0,0-.76.28,2.35,2.35,0,0,0-.2.4A8.82,8.82,0,0,0,32.11,149.62Zm37.29,13.1a.68.68,0,1,0-.69.68A.67.67,0,0,0,69.41,162.72Zm22.27,4a.68.68,0,1,0,.66.68A.68.68,0,0,0,91.68,166.67Zm114.65-3.82a6.5,6.5,0,0,1,1-.23c.08,0,.15-.08.22-.13a.83.83,0,0,0-1-.58.81.81,0,0,0-.48.37.62.62,0,0,0-.08.55A.6.6,0,0,0,206.33,162.85ZM50.85,158.14a.57.57,0,0,0-.59-.55.57.57,0,0,0-.57.6.57.57,0,0,0,.58.56A.58.58,0,0,0,50.85,158.14Zm215.7-23.57a.57.57,0,0,0-.61.56.57.57,0,0,0,.54.6.6.6,0,0,0,.62-.57A.59.59,0,0,0,266.55,134.57Zm-4.65,4.56a.58.58,0,0,0-.6.57.57.57,0,0,0,.6.58.56.56,0,0,0,.56-.57A.57.57,0,0,0,261.9,139.13ZM87.14,166.78a.57.57,0,1,0-.08,1.15.57.57,0,1,0,.08-1.15Zm-23-4.6a.54.54,0,0,0,0,1.07.54.54,0,1,0,0-1.07ZM129,172a.38.38,0,0,0,0-.11.57.57,0,0,0-.6-.58.58.58,0,0,0-.53.61c0,.17.1.26.27.27H129C129,172.13,129,172.09,129,172Zm-5.16.28H124a.34.34,0,0,0,.35-.29.5.5,0,0,0-.18-.52.52.52,0,0,0-.55,0,.47.47,0,0,0-.26.45c0,.26.14.44.4.41h.12Zm9.48-.9a.57.57,0,0,0-.68,0,.79.79,0,0,0-.18.29.34.34,0,0,0,.07.38,5.16,5.16,0,0,0,1,0C133.65,171.76,133.59,171.56,133.37,171.42Zm-50.88-4.55a.48.48,0,0,0-.5.48.47.47,0,0,0,.46.48.47.47,0,0,0,.5-.48A.48.48,0,0,0,82.49,166.87Zm100.62.32.19,0,.23,0,.77-.09a.12.12,0,0,0,.07-.21.83.83,0,0,0-1.42.25.32.32,0,0,0,0,.12Zm-44.84,4.73a.48.48,0,0,0-.17-.45.55.55,0,0,0-.42-.16.57.57,0,0,0-.42.17.47.47,0,0,0-.14.45A3.12,3.12,0,0,0,138.27,171.92Zm-19,.3h.23a.24.24,0,0,0,.26-.23.47.47,0,0,0-.23-.49.43.43,0,0,0-.47,0,.47.47,0,0,0-.25.48c0,.17.09.24.27.26h.19Zm-4.41-.68a.41.41,0,0,0-.5.05.55.55,0,0,0-.13.23.26.26,0,0,0,.08.29,1.93,1.93,0,0,0,.7,0C115.12,171.8,115.08,171.67,114.9,171.55Zm110.66-13.82s0,0,0-.09a.71.71,0,0,0-1.17.41A4.2,4.2,0,0,0,225.56,157.72Zm-82.69,14a.56.56,0,0,0-.57-.4.63.63,0,0,0-.38.16c-.07.07-.16.13-.13.26A2.82,2.82,0,0,0,142.87,171.68ZM77.94,167a.35.35,0,1,0,0,.7.35.35,0,0,0,.37-.35A.34.34,0,0,0,77.94,167Zm170.32-18.62a.59.59,0,0,0-.45.07.44.44,0,0,0-.2.59,6.57,6.57,0,0,0,.92-.45A.29.29,0,0,0,248.26,148.39ZM59.79,162.62a.34.34,0,0,0-.59-.15.11.11,0,0,0,0,.19c.18.05.34.2.57.13A.6.6,0,0,0,59.79,162.62Zm50.69,9.25a.25.25,0,0,0-.13-.28.46.46,0,0,0-.25-.08.48.48,0,0,0-.24.11.2.2,0,0,0-.08.25A2.1,2.1,0,0,0,110.48,171.87Zm36-.38a2.85,2.85,0,0,1,.32-.07c.11,0,.23,0,.44,0C146.88,171.2,146.7,171.22,146.46,171.49Zm92.15-18.4c.09,0,.18,0,.23-.14C238.65,153,238.65,153,238.61,153.09ZM105.52,171.61l0,0-.05,0,0,0Z"></path><rect class="cls-4" x="3.86" y="131.98" width="273.52" height="2.72" rx="1.36" ry="1.36"></rect><rect class="cls-16" x="145.53" y="0.41" width="32.1" height="13.23" rx="6.61" ry="6.61"></rect><path class="cls-16" d="M149.41,11.64v7.3l8.41-8.41S149.58,11.64,149.41,11.64Z"></path><rect class="cls-17" x="147.19" y="1.72" width="28.78" height="10.6" rx="5.3" ry="5.3"></rect><path class="cls-16" d="M162.87,4.34h-13a.57.57,0,0,1,0-1.14h13a.57.57,0,0,1,0,1.14Z"></path><rect class="cls-16" x="149.3" y="5.88" width="24.74" height="0.64" rx="0.32" ry="0.32"></rect><rect class="cls-16" x="149.3" y="7.12" width="24.74" height="0.64" rx="0.32" ry="0.32"></rect><rect class="cls-16" x="167.65" y="10.61" width="1.39" height="1.25" rx="0.63" ry="0.63"></rect><rect class="cls-16" x="170.18" y="10.61" width="1.39" height="1.25" rx="0.63" ry="0.63"></rect><rect class="cls-16" x="172.71" y="10.61" width="1.39" height="1.25" rx="0.63" ry="0.63"></rect><path class="cls-11" d="M108.64,132.15H59A3.19,3.19,0,0,1,62.16,129h46.48Z"></path><path class="cls-11" d="M108.7,132.15H82.17l11.27-24.79a2,2,0,0,1,1.84-1.19h24a.79.79,0,0,1,.72,1.12Z"></path><path class="cls-2" d="M119.28,106.18H97.37a2,2,0,0,0-1.84,1.19L84.26,132.15H108.7L120,107.29A.79.79,0,0,0,119.28,106.18Z"></path><ellipse class="cls-12" cx="105.03" cy="119.16" rx="3.87" ry="1.87" transform="translate(-47.94 161.97) rotate(-64.24)"></ellipse><path class="cls-5" d="M56,70.05s-2.25,11.51-4.75,13.52S57,95.31,59.87,92.82s.2-7.94.2-7.94-1.54-.95,1.07-7-4.42-10.56-4.42-10.56Z"></path><path class="cls-6" d="M56.72,67.32,56,70.05s-.31,1.6-.84,3.71a20.57,20.57,0,0,0,4.42,9.38,15.87,15.87,0,0,1,1.51-5.26C63.74,71.83,56.72,67.32,56.72,67.32Z"></path><path class="cls-5" d="M70.29,74.43c-1.51,4.18-5.22,7.53-7.57,6.76-3.84-1.26-6.63-4.26-6-10.9.78-7.81,6.79-8.71,10.32-7.71S72,69.81,70.29,74.43Z"></path><path class="cls-14" d="M50.82,83.56,47.19,85l5.72,7.34-1.63,2.92a23.11,23.11,0,0,1,7.69,13,76.71,76.71,0,0,1,1.6,15.88s.44-17.39-.43-20.72C58.46,97,50.82,83.56,50.82,83.56Z"></path><path class="cls-14" d="M60.11,85s4.53,11.63,5.25,14.91.86,19.27.86,19.27,2.08-14,1.48-18.08-1.46-7.86-1.46-7.86l-2.75-2s-.52-5.53-.81-5.6Z"></path><path class="cls-5" d="M57.46,127.64c8.81-2.67,7.75-4,11-2.49s7.22,2.54,5.34,3S69,127.1,69,127.1s.45,2.4-1.16,3.12-8.72,1-12.68-.14S57.46,127.64,57.46,127.64Z"></path><path class="cls-2" d="M57.22,127.22H59l-.88,5s-3.46-.51-3.2-.86S57.22,127.22,57.22,127.22Z"></path><path class="cls-14" d="M40.54,87.59c-3.44,6-4.53,9.3-7.33,20.56s-3.93,16.39-.83,17.87c2.56,1.22,21.21,6.82,23.47,6.13,1,.06,2.62-5.27,2.62-5.27l-17-7.57s4.91-11.73,5.76-19.43-2.92-12.3-4.81-12.3Z"></path><path class="cls-5" d="M58.36,70.81c-.83,2.61-.47,3.14-1.62,3.38s-2.2-.9-2.54-2.5.32-3.1,1.47-3.34S58.86,69.25,58.36,70.81Z"></path><path class="cls-13" d="M71.87,66.06c-4.5,8-13.44,6.82-18.87,4.07-4.43-2.24,12.63-10.74,12.63-10.74Z"></path><path class="cls-13" d="M57.22,59.39c-1.67-5-8.5-3.84-11.6,2.85s1.64,11.17,4.51,9.53S57.22,59.39,57.22,59.39Z"></path><path class="cls-16" d="M153.5,50.63a39.84,39.84,0,0,0,1.2-6.12l-6.32-2.84q0-.9,0-1.81a33.74,33.74,0,0,0-.37-5l6-3.43a39.7,39.7,0,0,0-1.77-6l-6.91.42A33.45,33.45,0,0,0,142,20.08l3.74-5.83a40.26,40.26,0,0,0-4.35-4.47l-5.93,3.58a33.49,33.49,0,0,0-5.74-3.58l.6-6.9A39.71,39.71,0,0,0,124.36,1l-3.58,5.93a33.69,33.69,0,0,0-5.83-.51H114L111.35,0a39.91,39.91,0,0,0-6.15,1l-.42,6.91a33.29,33.29,0,0,0-6.21,2.7L93.24,6.23a40.17,40.17,0,0,0-5,3.79l2.84,6.32a33.63,33.63,0,0,0-4.24,5.27L80.1,20.17a39.82,39.82,0,0,0-2.64,5.65l5.45,4.27a33.33,33.33,0,0,0-1.3,6.64l-6.66,1.88c0,.41,0,.82,0,1.23a40.41,40.41,0,0,0,.31,5l6.81,1.25A33.22,33.22,0,0,0,84,52.59l-5,4.77a40,40,0,0,0,3.16,5.37l6.61-2.06a33.68,33.68,0,0,0,4.72,4.85l-2.23,6.56a40,40,0,0,0,5.29,3.3l4.9-4.9a33.22,33.22,0,0,0,6.44,2.1l1.07,6.84a40.33,40.33,0,0,0,6,.45h.17l2.06-6.61a33.39,33.39,0,0,0,6.67-1.12L128,77.7a39.79,39.79,0,0,0,5.72-2.49l-1.25-6.81a33.61,33.61,0,0,0,5.38-4.11l6.24,3A40.2,40.2,0,0,0,148,62.45L143.71,57a33.32,33.32,0,0,0,2.86-6.13Zm-38.55,5.7a16.47,16.47,0,1,1,16.47-16.47A16.47,16.47,0,0,1,114.95,56.32Z"></path><path class="cls-17" d="M91.63,57.8a.43.43,0,0,1-.35-.17,29.92,29.92,0,0,1-2.5-4,.43.43,0,1,1,.76-.4A29.06,29.06,0,0,0,92,57.11a.43.43,0,0,1-.34.69Z"></path><path class="cls-17" d="M111.37,69.42h-.06A29.75,29.75,0,0,1,97.1,63.53a.43.43,0,0,1,.52-.68,28.89,28.89,0,0,0,13.8,5.71.43.43,0,0,1-.06.86Z"></path><rect class="cls-16" x="115.5" y="19.97" width="78.17" height="43.37"></rect><rect class="cls-17" x="116.36" y="20.92" width="75.07" height="39.5"></rect><g class="cls-18"><path class="cls-16" d="M188.75,57.32h-71.2a.17.17,0,0,1-.17-.17V21.48a.17.17,0,0,1,.17-.17h71.2a.17.17,0,0,1,.17.17V57.14A.17.17,0,0,1,188.75,57.32Zm-71-.34h70.85V21.65H117.72Z"></path><path class="cls-16" d="M188.75,51.37h-71.2a.17.17,0,1,1,0-.34h71.2a.17.17,0,0,1,0,.34Z"></path><path class="cls-16" d="M188.75,45.43h-71.2a.17.17,0,1,1,0-.34h71.2a.17.17,0,0,1,0,.34Z"></path><path class="cls-16" d="M188.75,39.48h-71.2a.17.17,0,1,1,0-.34h71.2a.17.17,0,0,1,0,.34Z"></path><path class="cls-16" d="M188.75,33.54h-71.2a.17.17,0,1,1,0-.34h71.2a.17.17,0,0,1,0,.34Z"></path><path class="cls-16" d="M188.75,27.59h-71.2a.17.17,0,1,1,0-.34h71.2a.17.17,0,0,1,0,.34Z"></path><path class="cls-16" d="M176.88,57.32a.17.17,0,0,1-.17-.17V21.48a.17.17,0,0,1,.34,0V57.14A.17.17,0,0,1,176.88,57.32Z"></path><path class="cls-16" d="M165,57.32a.17.17,0,0,1-.17-.17V21.48a.17.17,0,0,1,.34,0V57.14A.17.17,0,0,1,165,57.32Z"></path><path class="cls-16" d="M153.15,57.32a.17.17,0,0,1-.17-.17V21.48a.17.17,0,1,1,.34,0V57.14A.17.17,0,0,1,153.15,57.32Z"></path><path class="cls-16" d="M141.28,57.32a.17.17,0,0,1-.17-.17V21.48a.17.17,0,1,1,.34,0V57.14A.17.17,0,0,1,141.28,57.32Z"></path><path class="cls-16" d="M129.42,57.32a.17.17,0,0,1-.17-.17V21.48a.17.17,0,1,1,.34,0V57.14A.17.17,0,0,1,129.42,57.32Z"></path></g><path class="cls-14" d="M117.55,57.49a.34.34,0,0,1-.15-.65l11.82-5.92,6.1-5.87L141,33.22a.34.34,0,0,1,.08-.11l6.43-5.73a.34.34,0,0,1,.54.11l5.43,11.67,6.45,11.45L164.75,45a.34.34,0,0,1,.25-.12.34.34,0,0,1,.26.1l5.52,5.55,5.77-17.3a.34.34,0,0,1,.08-.13L188.5,21.23a.34.34,0,0,1,.49.49L177.18,33.55l-5.92,17.76a.34.34,0,0,1-.57.13L165,45.76l-4.93,5.67a.34.34,0,0,1-.56-.06l-6.69-11.89v0L147.6,28.2l-6,5.38L135.9,45.4a.34.34,0,0,1-.07.1l-6.18,5.94-.08.06L117.7,57.45A.34.34,0,0,1,117.55,57.49Z"></path><path class="cls-16" d="M117.55,57.49a.34.34,0,0,1-.25-.58l17.4-17.83a.34.34,0,0,1,.48,0l6.09,5.72L152.9,33.12a.34.34,0,0,1,.48,0l5.93,5.71,5.45-5.7A.34.34,0,0,1,165,33a.35.35,0,0,1,.25.1l11.53,11.55,11.65-23.35a.34.34,0,1,1,.62.31L177.19,45.41a.34.34,0,0,1-.55.09L165,33.86l-5.45,5.69a.34.34,0,0,1-.49,0l-5.93-5.71L141.52,45.5a.34.34,0,0,1-.48,0L135,39.79,117.8,57.38A.34.34,0,0,1,117.55,57.49Z"></path><path class="cls-16" d="M106.75,2.77h7.11a9.87,9.87,0,0,1,9.87,9.87v2.52A26.85,26.85,0,0,1,96.88,42h0a0,0,0,0,1,0,0V12.64A9.87,9.87,0,0,1,106.75,2.77Z"></path><path class="cls-17" d="M106.56,3.44h6.9a9.37,9.37,0,0,1,9.37,9.37v2.47A25.64,25.64,0,0,1,97.18,40.92h0a0,0,0,0,1,0,0V12.81A9.37,9.37,0,0,1,106.56,3.44Z"></path><path class="cls-16" d="M112.27,33.23v-.68a.91.91,0,0,0-.83-1H85.72a.91.91,0,0,0-.83,1v.68c0,4.79,3.36,8.68,7.5,8.68h26.27C114.52,41.9,112.22,38.46,112.27,33.23Z"></path><path class="cls-17" d="M111.64,33.9v-.55a.78.78,0,0,0-.78-.78H86.78a.78.78,0,0,0-.78.78v.55a7,7,0,0,0,7,7h25.64C114.78,40.92,111.64,39,111.64,33.9Z"></path><path class="cls-16" d="M120.13,19.07H101.82A1.05,1.05,0,0,1,100.77,18v-10A1.05,1.05,0,0,1,101.82,7h18.32a1.05,1.05,0,0,1,1.05,1.05V18A1.05,1.05,0,0,1,120.13,19.07ZM101.82,7.36a.71.71,0,0,0-.71.71V18a.71.71,0,0,0,.71.71h18.32a.71.71,0,0,0,.71-.71v-10a.71.71,0,0,0-.71-.71Z"></path><path class="cls-16" d="M114,23.9H93.91a.52.52,0,1,1,0-1H114a.52.52,0,0,1,0,1Z"></path><path class="cls-16" d="M114,25.8H93.91a.52.52,0,1,1,0-1H114a.52.52,0,0,1,0,1Z"></path><path class="cls-16" d="M114,27.63H93.91a.52.52,0,1,1,0-1H114a.52.52,0,0,1,0,1Z"></path><rect class="cls-16" x="114.2" y="8.6" width="1.19" height="1.07" rx="0.53" ry="0.53"></rect><rect class="cls-16" x="116.36" y="8.6" width="1.19" height="1.07" rx="0.53" ry="0.53"></rect><rect class="cls-16" x="118.52" y="8.6" width="1.19" height="1.07" rx="0.53" ry="0.53"></rect><rect class="cls-16" x="102.77" y="13.05" width="2.71" height="4.48"></rect><rect class="cls-16" x="110.24" y="13.42" width="2.71" height="4.1"></rect><rect class="cls-16" x="114.56" y="11.59" width="2.71" height="5.93"></rect><rect class="cls-16" x="106.43" y="14.81" width="2.71" height="2.71"></rect><path class="cls-16" d="M264.86,47.2h9.65a9.65,9.65,0,1,1-9.65-9.65Z"></path><path class="cls-14" d="M276.13,45.84a9.65,9.65,0,0,0-9.65-9.65v9.65Z"></path><path class="cls-14" d="M256.83,45.84a9.65,9.65,0,0,0,9.65,9.65A9.7,9.7,0,0,1,256.83,45.84Z"></path><path class="cls-14" d="M266.48,36.19a9.65,9.65,0,0,0-9.65,9.65A9.7,9.7,0,0,1,266.48,36.19Z"></path><path class="cls-14" d="M266.48,55.49a9.65,9.65,0,0,0,9.65-9.65A9.7,9.7,0,0,1,266.48,55.49Z"></path><circle class="cls-14" cx="147.72" cy="27.63" r="0.86"></circle><circle class="cls-16" cx="134.99" cy="39.31" r="0.86"></circle><circle class="cls-16" cx="153.15" cy="33.37" r="0.86"></circle><circle class="cls-16" cx="165.01" cy="33.37" r="0.86"></circle><circle class="cls-14" cx="176.88" cy="33.37" r="0.86"></circle><circle class="cls-3" cx="90.54" cy="41.9" r="4.62"></circle><path class="cls-17" d="M90.08,43.51h0a.26.26,0,0,1-.18-.09L88.63,42a.26.26,0,0,1,.39-.34l1.07,1.22,2.48-2.43a.26.26,0,0,1,.36.37l-2.68,2.62A.26.26,0,0,1,90.08,43.51Z"></path><rect class="cls-16" x="25.3" y="14.1" width="3.07" height="16.77"></rect><rect class="cls-16" x="38.32" y="18.98" width="3.07" height="11.89"></rect><rect class="cls-16" x="44.84" y="14.1" width="3.07" height="16.77"></rect><rect class="cls-16" x="51.35" y="24.92" width="3.07" height="5.94"></rect><rect class="cls-16" x="31.81" y="8.99" width="3.07" height="21.87"></rect><rect class="cls-16" x="57.88" y="18.98" width="3.07" height="11.89"></rect><rect class="cls-16" x="214.41" y="15.62" width="3.07" height="8.89"></rect><rect class="cls-16" x="253.81" y="18.51" width="3.07" height="6"></rect><rect class="cls-16" x="227.44" y="3.7" width="3.07" height="20.81"></rect><rect class="cls-16" x="233.95" y="15.16" width="3.07" height="9.35"></rect><rect class="cls-16" x="240.46" y="12.51" width="3.07" height="12"></rect><rect class="cls-16" x="220.92" y="9.75" width="3.07" height="14.76"></rect><rect class="cls-16" x="247" y="6.32" width="3.07" height="18.19"></rect><g class="cls-19"><path class="cls-2" d="M26.55,66.33,15.5,59.57l-2,12.8A13,13,0,0,0,26.55,66.33Z"></path><path class="cls-3" d="M26.56,66.31l.07-.11a13,13,0,0,0,.29-12.75c-3.91,2-1.58.8-11.42,6.12C26.57,66.34,24.85,65.3,26.56,66.31Z"></path><path class="cls-16" d="M3.35,55.09,15.5,59.57l11.4-6.16A13,13,0,0,0,3.35,55.09Z"></path><path class="cls-14" d="M13.5,72.37l2-12.8L3.35,55.09A13,13,0,0,0,13.5,72.37Z"></path><path class="cls-20" d="M27.13,66.18a13.44,13.44,0,0,0,.34-12.6h0l-.2-.38v0l-.17-.31h0a13.23,13.23,0,0,0-5.34-5.18A13.5,13.5,0,0,0,3.1,54.54h0l-.15.4-.15.4h0A13.22,13.22,0,0,0,3.93,66.27,13.4,13.4,0,0,0,13,72.72h0l.42.07.43.07h0a13.4,13.4,0,0,0,12.84-6h0l.08-.14.14-.22.06-.1v0h0l.14-.22ZM25.84,54.5l.89-.47a12.58,12.58,0,0,1-.32,11.7l-.08,0-1.55-.93-8.42-5.15,7-3.78Zm-21.93.35a12.45,12.45,0,0,1,10.78-7.75A12.33,12.33,0,0,1,26.3,53.24l-3.37,1.82-3.29,1.78-4,2.18-.1.06-.34-.21,0,.12L9.83,57Zm.77,11A12.36,12.36,0,0,1,3.61,55.65l8,2.95L15,59.85l-1.88,12A12.54,12.54,0,0,1,4.67,65.84ZM14,72l1.83-11.73,4.77,2.92,3.72,2.27,1.65,1A12.48,12.48,0,0,1,14,72Z"></path></g><circle class="cls-16" cx="3.86" cy="87.42" r="3.86"></circle><circle class="cls-17" cx="4.76" cy="87.59" r="1.94"></circle><rect class="cls-16" x="256.04" y="72.69" width="14.67" height="14.67" rx="7.34" ry="7.34"></rect><path class="cls-17" d="M272.62,90H263a3,3,0,0,1-3-3V77.48a3,3,0,0,1,3-3h9.58a3,3,0,0,1,3,3v9.58A3,3,0,0,1,272.62,90ZM263,75.37a2.12,2.12,0,0,0-2.12,2.12v9.58A2.12,2.12,0,0,0,263,89.18h9.58a2.12,2.12,0,0,0,2.12-2.12V77.48a2.12,2.12,0,0,0-2.12-2.12Z"></path><rect class="cls-16" x="97.56" y="81.7" width="5.79" height="5.79" rx="1.03" ry="1.03" transform="translate(-30.86 86.49) rotate(-40.93)"></rect><circle class="cls-16" cx="112.01" cy="90.26" r="2.16"></circle><circle class="cls-16" cx="296.74" cy="83.57" r="2.15"></circle><circle class="cls-16" cx="241.11" cy="39.72" r="2.15"></circle><circle class="cls-16" cx="282.58" cy="66.36" r="1.68"></circle><rect class="cls-16" x="188.01" y="28.91" width="37.05" height="16.74" rx="8.17" ry="8.17"></rect><rect class="cls-17" x="189.02" y="33.31" width="35.02" height="11.56" rx="5.78" ry="5.78"></rect><rect class="cls-17" x="189.53" y="30.15" width="1.45" height="1.31" rx="0.65" ry="0.65"></rect><rect class="cls-17" x="192.17" y="30.15" width="1.45" height="1.31" rx="0.65" ry="0.65"></rect><rect class="cls-17" x="194.81" y="30.15" width="1.45" height="1.31" rx="0.65" ry="0.65"></rect><path class="cls-16" d="M222.62,35.85H204.09a.55.55,0,0,1,0-1.11h18.53a.55.55,0,0,1,0,1.11Z"></path><path class="cls-16" d="M208.68,44.4H190.16a.55.55,0,0,1,0-1.11h18.53a.55.55,0,0,1,0,1.11Z"></path><rect class="cls-16" x="209.99" y="43.29" width="2.3" height="1.11" rx="0.55" ry="0.55"></rect><rect class="cls-16" x="212.88" y="43.29" width="2.3" height="1.11" rx="0.55" ry="0.55"></rect><path class="cls-16" d="M222.8,38.26H192.12a.38.38,0,1,1,0-.75H222.8a.38.38,0,1,1,0,.75Z"></path><path class="cls-16" d="M222.8,39.88H192.12a.38.38,0,1,1,0-.75H222.8a.38.38,0,1,1,0,.75Z"></path><circle class="cls-16" cx="4.76" cy="28.49" r="4.26"></circle><path class="cls-16" d="M64.13,41H33.55a.57.57,0,0,1,0-1.14H64.13a.57.57,0,1,1,0,1.14Z"></path><path class="cls-16" d="M64.13,43.86H33.55a.57.57,0,0,1,0-1.14H64.13a.57.57,0,1,1,0,1.14Z"></path><path class="cls-16" d="M179,84.39a21.49,21.49,0,0,0,.13-2.39c0-.43,0-.85,0-1.27l-3.95-1.28a17.35,17.35,0,0,0-1.4-4.73l2.62-3.22a21.32,21.32,0,0,0-2.07-3l-3.95,1.29a17.54,17.54,0,0,0-3.91-3l.22-4.15a21.12,21.12,0,0,0-3.45-1.22l-2.44,3.36a17.55,17.55,0,0,0-4.93-.13l-2.26-3.49a21.11,21.11,0,0,0-3.51,1v4.15A17.51,17.51,0,0,0,146,69.13l-3.87-1.49a21.36,21.36,0,0,0-2.23,2.9l2.44,3.36a17.35,17.35,0,0,0-1.65,4.65l-4,1.07a21.49,21.49,0,0,0-.13,2.39c0,.43,0,.85,0,1.27l3.95,1.28a17.35,17.35,0,0,0,1.4,4.73l-2.62,3.22a21.32,21.32,0,0,0,2.07,3l3.95-1.29a17.54,17.54,0,0,0,3.91,3l-.22,4.15a21.11,21.11,0,0,0,3.45,1.22l2.44-3.36a17.56,17.56,0,0,0,4.93.13l2.26,3.49a21.11,21.11,0,0,0,3.51-1V97.66a17.51,17.51,0,0,0,4.06-2.79l3.87,1.49a21.36,21.36,0,0,0,2.23-2.9L173.3,90.1A17.35,17.35,0,0,0,175,85.45Zm-21.14,6A8.34,8.34,0,1,1,166.16,82,8.34,8.34,0,0,1,157.82,90.34Z"></path><path class="cls-17" d="M169.2,91.63a.43.43,0,0,1-.33-.7,14,14,0,0,0,2.47-13.48.43.43,0,1,1,.81-.28,14.86,14.86,0,0,1-2.62,14.31A.43.43,0,0,1,169.2,91.63Z"></path><path class="cls-17" d="M168,71.94a.43.43,0,0,1-.29-.12,13.9,13.9,0,0,0-4.81-3,.43.43,0,0,1,.29-.81,14.75,14.75,0,0,1,5.11,3.15.43.43,0,0,1-.29.74Z"></path><path class="cls-17" d="M154.58,68.46a.43.43,0,0,1-.1-.85,14.89,14.89,0,0,1,3.64-.45.43.43,0,1,1,0,.86,14,14,0,0,0-3.43.42Z"></path></svg>