<svg xmlns="http://www.w3.org/2000/svg" xmlns:xlink="http://www.w3.org/1999/xlink" id="Layer_1" data-name="Layer 1" viewBox="0 0 450.23 309.56"><defs><style>.cls-1,.cls-2{fill:none;}.cls-1{clip-rule:evenodd;}.cls-15,.cls-3{fill:#a1a7ff;}.cls-10,.cls-11,.cls-16,.cls-17,.cls-19,.cls-20,.cls-21,.cls-22,.cls-23,.cls-24,.cls-25,.cls-26,.cls-27,.cls-3,.cls-5,.cls-6,.cls-8,.cls-9{fill-rule:evenodd;}.cls-4{fill:#879fdd;}.cls-5{fill:#ffb91f;}.cls-6{fill:#f7cccf;}.cls-7{fill:#000446;}.cls-8{fill:#092978;}.cls-9{fill:#dd7577;}.cls-10,.cls-13{fill:#12348e;}.cls-11{fill:#e8f5fc;}.cls-12{clip-path:url(#clip-path);}.cls-14{clip-path:url(#clip-path-2);}.cls-16{fill:url(#Gradiente_sem_nome_69);}.cls-17{fill:#fa3e6a;}.cls-18{fill:#254fb9;}.cls-19{fill:#000c4f;}.cls-20{fill:#f4b1b1;}.cls-21{fill:#e98385;}.cls-22{fill:#00a0e8;}.cls-23{fill:#e8546b;}.cls-24{fill:#e50013;}.cls-25{fill:#1e2187;}.cls-26{fill:#e3effd;}.cls-27{fill:#e17a00;}</style><clipPath id="clip-path"><path class="cls-1" d="M288,41.41H178.26A18.34,18.34,0,0,0,160,59.7V286.84a18.35,18.35,0,0,0,18.29,18.3H288a18.35,18.35,0,0,0,18.29-18.3V59.7A18.34,18.34,0,0,0,288,41.41"></path></clipPath><clipPath id="clip-path-2"><rect class="cls-2" x="168.69" y="56.8" width="128.9" height="206.72" rx="9.57"></rect></clipPath><linearGradient id="Gradiente_sem_nome_69" y1="307.41" x2="450.23" y2="307.41" gradientUnits="userSpaceOnUse"><stop offset="0.16" stop-color="#e08197"></stop><stop offset="1" stop-color="#e08197" stop-opacity="0"></stop></linearGradient></defs><title>Streamlined Operations</title><path class="cls-3" d="M192,75.34l-4.76-2.08a4.84,4.84,0,0,1-2.87-5.1,50,50,0,0,0,.23-12.39,4.83,4.83,0,0,1,3.06-5l4.83-1.9a4.88,4.88,0,0,0,2.77-6.32l-3.64-9.26a4.89,4.89,0,0,0-6.33-2.76l-4.83,1.9a4.84,4.84,0,0,1-5.64-1.58,50.07,50.07,0,0,0-8.6-8.93,4.82,4.82,0,0,1-1.36-5.69l2.07-4.76a4.87,4.87,0,0,0-2.52-6.42l-9.11-4a4.87,4.87,0,0,0-6.42,2.52l-2.08,4.76a4.83,4.83,0,0,1-5.1,2.87A50,50,0,0,0,129.29,11a4.84,4.84,0,0,1-5-3.06l-1.9-4.83A4.87,4.87,0,0,0,116.07.34L106.81,4a4.87,4.87,0,0,0-2.75,6.33L106,15.13a4.82,4.82,0,0,1-1.58,5.64,50.07,50.07,0,0,0-8.93,8.6,4.84,4.84,0,0,1-5.69,1.37L85,28.66a4.87,4.87,0,0,0-6.42,2.52l-4,9.11a4.9,4.9,0,0,0,2.52,6.43l4.76,2.07a4.84,4.84,0,0,1,2.87,5.11,49.87,49.87,0,0,0-.23,12.38,4.81,4.81,0,0,1-3.05,5l-4.84,1.9a4.87,4.87,0,0,0-2.76,6.32l3.63,9.26a4.89,4.89,0,0,0,6.33,2.76l4.83-1.9a4.81,4.81,0,0,1,5.64,1.59,49.63,49.63,0,0,0,8.6,8.91,4.84,4.84,0,0,1,1.37,5.7l-2.08,4.76A4.87,4.87,0,0,0,104.7,117l9.12,4a4.89,4.89,0,0,0,6.42-2.52l2.07-4.76a4.84,4.84,0,0,1,5.11-2.87,49.88,49.88,0,0,0,12.38.23,4.84,4.84,0,0,1,5,3.06l1.89,4.83a4.88,4.88,0,0,0,6.33,2.76l9.26-3.63a4.88,4.88,0,0,0,2.76-6.33l-1.9-4.83a4.85,4.85,0,0,1,1.58-5.65,49.34,49.34,0,0,0,8.93-8.59,4.81,4.81,0,0,1,5.69-1.36l4.76,2.07a4.87,4.87,0,0,0,6.42-2.52l4-9.12A4.86,4.86,0,0,0,192,75.34m-34.86.52A27,27,0,1,1,141,34.8,27,27,0,0,1,157.12,75.86Z"></path><path class="cls-3" d="M99.36,126.68l-3.46-.33A3.25,3.25,0,0,1,93,123.69a34,34,0,0,0-2.43-7.94,3.22,3.22,0,0,1,.91-3.82l2.68-2.22a3.27,3.27,0,0,0,.45-4.6L90.38,100a3.27,3.27,0,0,0-4.61-.44l-2.68,2.21a3.26,3.26,0,0,1-3.93.17A33.44,33.44,0,0,0,71.83,98a3.22,3.22,0,0,1-2-3.34l.33-3.46a3.27,3.27,0,0,0-2.94-3.57L60.54,87A3.27,3.27,0,0,0,57,89.93l-.34,3.47A3.24,3.24,0,0,1,54,96.29,33.51,33.51,0,0,0,46,98.71a3.23,3.23,0,0,1-3.82-.91L40,95.12a3.27,3.27,0,0,0-4.6-.44l-5.15,4.24a3.27,3.27,0,0,0-.44,4.6L32,106.21a3.23,3.23,0,0,1,.17,3.92,33.63,33.63,0,0,0-3.9,7.33A3.26,3.26,0,0,1,25,119.52l-3.47-.34a3.26,3.26,0,0,0-3.56,2.94l-.64,6.64a3.26,3.26,0,0,0,2.94,3.56l3.46.34a3.24,3.24,0,0,1,2.89,2.65A33.53,33.53,0,0,0,29,143.25a3.24,3.24,0,0,1-.91,3.82l-2.69,2.22a3.27,3.27,0,0,0-.44,4.6L29.21,159a3.26,3.26,0,0,0,4.6.44l2.69-2.21a3.23,3.23,0,0,1,3.92-.16A33.18,33.18,0,0,0,47.75,161a3.25,3.25,0,0,1,2.06,3.35l-.33,3.46a3.26,3.26,0,0,0,2.94,3.57l6.63.64a3.29,3.29,0,0,0,3.57-2.94L63,165.6a3.24,3.24,0,0,1,2.66-2.89,33.14,33.14,0,0,0,7.93-2.43,3.25,3.25,0,0,1,3.82.91l2.22,2.69a3.27,3.27,0,0,0,4.6.44l5.14-4.24a3.26,3.26,0,0,0,.45-4.6l-2.22-2.69a3.24,3.24,0,0,1-.16-3.92,33.63,33.63,0,0,0,3.9-7.33,3.23,3.23,0,0,1,3.34-2l3.47.33a3.27,3.27,0,0,0,3.56-2.94l.64-6.64a3.26,3.26,0,0,0-2.94-3.56m-22.1,7.58a18.1,18.1,0,1,1-18.81-22.81A18.07,18.07,0,0,1,77.26,134.26Z"></path><path class="cls-3" d="M375.55,87.1l-2.81-1.26a2.88,2.88,0,0,1-1.67-3,29.18,29.18,0,0,0,.22-7.34,2.88,2.88,0,0,1,1.85-2.94l2.88-1.1a2.9,2.9,0,0,0,1.69-3.73l-2.1-5.51a2.9,2.9,0,0,0-3.73-1.68L369,61.58a2.86,2.86,0,0,1-3.33-1,29.64,29.64,0,0,0-5-5.36,2.84,2.84,0,0,1-.77-3.38l1.26-2.81a2.88,2.88,0,0,0-1.45-3.82l-5.38-2.42a2.88,2.88,0,0,0-3.82,1.45l-1.27,2.8a2.85,2.85,0,0,1-3,1.67,29.65,29.65,0,0,0-7.34-.22,2.87,2.87,0,0,1-2.95-1.85l-1.09-2.88a2.88,2.88,0,0,0-3.72-1.68l-5.52,2.09a2.9,2.9,0,0,0-1.68,3.73L325,50.81a2.84,2.84,0,0,1-1,3.33,30.34,30.34,0,0,0-5.35,5,2.86,2.86,0,0,1-3.38.77l-2.81-1.26a2.88,2.88,0,0,0-3.82,1.45l-2.42,5.37a2.89,2.89,0,0,0,1.45,3.83l2.8,1.26a2.86,2.86,0,0,1,1.67,3.05A29.15,29.15,0,0,0,311.9,81a2.87,2.87,0,0,1-1.85,2.94L307.17,85a2.9,2.9,0,0,0-1.68,3.73l2.09,5.51a2.89,2.89,0,0,0,3.73,1.68l2.88-1.09a2.86,2.86,0,0,1,3.33,1,29.64,29.64,0,0,0,5,5.35,2.87,2.87,0,0,1,.77,3.39l-1.26,2.8a2.9,2.9,0,0,0,1.44,3.83l5.38,2.42a2.91,2.91,0,0,0,3.83-1.45l1.26-2.81a2.89,2.89,0,0,1,3-1.67,29.56,29.56,0,0,0,7.33.23,2.88,2.88,0,0,1,2.95,1.84l1.09,2.88a2.9,2.9,0,0,0,3.73,1.69l5.51-2.1a2.88,2.88,0,0,0,1.68-3.73l-1.09-2.88a2.86,2.86,0,0,1,1-3.33,29.25,29.25,0,0,0,5.35-5,2.85,2.85,0,0,1,3.38-.77l2.81,1.26a2.89,2.89,0,0,0,3.83-1.45L377,90.92a2.9,2.9,0,0,0-1.45-3.82m-20.67.07a16,16,0,1,1-9.28-24.45A16,16,0,0,1,354.88,87.17Z"></path><path class="cls-4" d="M322,101.11h-7.23V103H322a6.53,6.53,0,0,1,4.62,1.92h0a6.51,6.51,0,0,1,1.92,4.61V305.42h1.88V109.53a8.38,8.38,0,0,0-2.48-5.94h0a8.39,8.39,0,0,0-5.95-2.48"></path><path class="cls-4" d="M314.27,76.84h-7.72v2h7.72a7,7,0,0,1,4.94,2.05h0a6.93,6.93,0,0,1,2.05,4.93v219.3h2V85.84a9,9,0,0,0-2.65-6.35h0a9,9,0,0,0-6.36-2.64"></path><path class="cls-3" d="M.88,244.65c-1.29-6.55,14-18.06,28-18.88,8.37-.49,17.17-.11,22.57,2.31,12.81,5.74,26.42,20.63,26.42,20.63H231.47s13.61-14.89,26.42-20.63c5.4-2.42,14.21-2.8,22.57-2.31,14,.82,29.33,12.33,28,18.88H268.08L261.43,255l-6.65,10.33,6.65,10.34L268.08,286H309c1,6.48-16.3,18.89-33.94,19.14-6.68.09-13.17-.49-17.46-2.45-12.49-5.74-26.1-21.33-26.1-21.33H77.9s-13.61,15.59-26.1,21.33c-4.28,2-10.78,2.54-17.45,2.45C16.7,304.88-.64,292.47.4,286H37.92l6.66-10.33,6.65-10.34L44.58,255l-6.66-10.34H.88Z"></path><path class="cls-5" d="M107.09,206.59H89.59c-2.19,0-7.57,4.13-8.51,9.53h0c-1.78,8.67-1,27.77,5.16,34.58l7-.09,21.35-5.29v-36a11.6,11.6,0,0,0-7.46-2.7"></path><path class="cls-5" d="M89.59,206.64c-8.65.85-9.45,11.71-9.34,18.49h9.33Z"></path><path class="cls-6" d="M88.74,225.2l-8.49-.07A8,8,0,0,0,83.74,231L98.5,242.1h12.36s-2.63-3.37-6.09-3.65-3.6.19-3.6.19c-.67-1.76-8.64-9.7-12.43-13.44"></path><path class="cls-7" d="M77.81,294.68,77,300.77l-2.17,2s-1.7-.08-1.89.51a5.42,5.42,0,0,0,0,1.85H84A50,50,0,0,0,85.31,295Z"></path><path class="cls-8" d="M128.5,242.1h-37a7.12,7.12,0,0,0-1.23.11h0C80,242.16,78.68,248.84,78,256.13L73.78,298h14l4.62-42.6H128.5a6.64,6.64,0,0,0,0-13.28"></path><path class="cls-7" d="M118.4,280.36l-5.08,11.37A9.11,9.11,0,0,0,114.5,295c.85,1.17.94,2,.4,2.73l-.67.89-8.63-9L110.12,279Z"></path><path class="cls-8" d="M125,244a9.1,9.1,0,0,0-3.67,3.29c-3,4.61-16.86,35.75-16.86,35.75h15.88l11.57-25.37c.48-1.06,2.87-5.46,3.09-7.46.71-6.44-4.65-8.67-10-6.21"></path><path class="cls-6" d="M108.94,197.84c1.83,3.27-1.31,7.82-5.18,7.49v1l2.11,3-2.08,3.09-2.16.79-5.23-1.35v-9.41c-.19-.06-.2.29-.58,0a4.41,4.41,0,0,1-1.1-2.89c.16-.9,1.32-1.41,1.32-1.41h0c-1.09-2.68-2-3.1.85-4.59s8.44-1.37,8.44-1.37l2.57.86c.11,2.48-.24,2.43,1,4.7"></path><path class="cls-9" d="M104.33,205.34a3.62,3.62,0,0,1-.57,0,13.39,13.39,0,0,1-4.68-1,4.94,4.94,0,0,0,2.56,2.74,8.45,8.45,0,0,0,3.28.89l-1.15-1.63v-1Z"></path><path class="cls-10" d="M111.42,186.77c.68,3.49-.72,6.61-4.16,7.18-2.16.36-3.9.05-5.22.21a3.76,3.76,0,0,0-1.9.91c-1.24,1-2.2,3.47-2.48,5.11,0,0-1.45-.61-1.92-.3s-.18,1-.11,1.32.74.62,1,.8c.64.56-1,1.58-2.81.14-1.26-1-4.44-4-4.21-8.5s2-5.5,2.69-5.9c.45-.26,4-1.35,6.69-2.26,3.27-1.12,3.54-2,5.63-2.94,2.69-1.23,6.29,1.46,6.84,4.23"></path><path class="cls-5" d="M114.36,209.14c4.76,4.24,7.52,10.09,9.21,16.24-3.11-.21-6.37-.19-9.46-.29Z"></path><path class="cls-3" d="M101.56,218.51a.58.58,0,0,0,0,1.15.58.58,0,0,0,0-1.15m0-3.32a.58.58,0,0,0,0,1.15.58.58,0,0,0,0-1.15Zm2.21-8.83c2,3.39-.18,5.8-2.13,6.89-2.75-1.79-5.23-3.53-5.23-6.89,0,0-1,0-1.56,1.49-1,2.44.68,7.92.68,7.92s1.92-2.47,3.5-2.61a5.61,5.61,0,0,1,2.62.35c2-1.49,3.42.44,4.78,1.86.43-3.61.37-6.21-2.33-9Z"></path><path class="cls-11" d="M105.8,220.81h26.77c1,0,2.1.87,1.87,1.88l-4,17.69c-.23,1-.84,1.88-1.87,1.88H101.8c-1,0-2.1-.87-1.88-1.88l4-17.69c.23-1,.85-1.88,1.88-1.88"></path><path class="cls-3" d="M107,220.81h26.76c1,0,2.11.87,1.88,1.88l-4,17.69c-.23,1-.84,1.88-1.88,1.88H103c-1,0-2.1-.87-1.88-1.88l4-17.69c.23-1,.85-1.88,1.88-1.88"></path><path class="cls-10" d="M119,229.78a1.87,1.87,0,1,1-2,1.29,1.72,1.72,0,0,1,2-1.29"></path><path class="cls-11" d="M87.22,240.5h13.6v1.76H86.35v-.88a.88.88,0,0,1,.87-.88"></path><path class="cls-4" d="M159.4,76.84h7.72v2H159.4a7,7,0,0,0-4.94,2.05h0a7,7,0,0,0-2,4.93V282.93a4.37,4.37,0,0,1,.06.72v9.76a4.42,4.42,0,0,1-4.42,4.41h0a4.42,4.42,0,0,1-4.42-4.41v-9.76a4.42,4.42,0,0,1,1.3-3.12,4.88,4.88,0,0,1,.75-.61v3.29a3.27,3.27,0,0,0,0,.44v9.76a2.42,2.42,0,0,0,2.41,2.4h0a2.42,2.42,0,0,0,2.41-2.4v-1.78h-.06V85.84A9,9,0,0,1,153,79.49h0a9,9,0,0,1,6.36-2.64"></path><path class="cls-4" d="M136.67,240.36H129v2h7.72a7,7,0,0,1,4.94,2.05h0a7,7,0,0,1,2,4.94v43.1h2v-43.1A9,9,0,0,0,143,243h0a9,9,0,0,0-6.36-2.65"></path><path class="cls-8" d="M297.41,41.41H187.65a18.35,18.35,0,0,0-18.3,18.29V286.84a18.36,18.36,0,0,0,18.3,18.3H297.41a18.35,18.35,0,0,0,18.29-18.3V59.7a18.34,18.34,0,0,0-18.29-18.29"></path><g class="cls-12"><rect class="cls-13" x="159.97" y="41.41" width="146.35" height="263.73"></rect></g><g class="cls-14"><rect class="cls-15" x="168.69" y="56.8" width="128.9" height="206.72"></rect></g><path class="cls-3" d="M241.41,50.74a1.16,1.16,0,0,0,0-2.31H220a1.16,1.16,0,0,0,0,2.31Zm3.85-2.31a1.16,1.16,0,1,0,0,2.31h1a1.16,1.16,0,1,0,0-2.31Z"></path><path class="cls-3" d="M226.8,278.65h14.34a6.77,6.77,0,1,1,0,13.53H226.8a6.77,6.77,0,1,1,0-13.53"></path><path class="cls-16" d="M2.14,305.27h446a2.15,2.15,0,0,1,0,4.29H2.14a2.15,2.15,0,0,1,0-4.29"></path><path class="cls-3" d="M182.79,115.14,186,118a4,4,0,0,1,.9,4.78,41.23,41.23,0,0,0-3.48,9.68,4,4,0,0,1-3.74,3.11l-4.31.22a4,4,0,0,0-3.86,4.23l.4,8.25a4,4,0,0,0,4.24,3.85l4.31-.2a4,4,0,0,1,4,2.75,41.4,41.4,0,0,0,4.39,9.31,4,4,0,0,1-.45,4.84l-2.9,3.19a4,4,0,0,0,.27,5.72l6.11,5.55a4,4,0,0,0,5.72-.26l2.9-3.19a4,4,0,0,1,4.78-.91,41.58,41.58,0,0,0,9.68,3.49,4,4,0,0,1,3.12,3.74l.21,4.3a4,4,0,0,0,4.23,3.85l8.25-.38a4.06,4.06,0,0,0,3.86-4.24l-.21-4.31a4,4,0,0,1,2.75-4,42.08,42.08,0,0,0,9.31-4.39,4,4,0,0,1,4.84.44l3.19,2.9a4,4,0,0,0,5.72-.27l5.56-6.11a4.06,4.06,0,0,0-.27-5.72l-3.19-2.9a4,4,0,0,1-.9-4.78,41.23,41.23,0,0,0,3.48-9.68,4,4,0,0,1,3.74-3.12l4.31-.2a4.05,4.05,0,0,0,3.85-4.24l-.39-8.25a4,4,0,0,0-4.24-3.85l-4.3.21a4,4,0,0,1-4-2.76,41.32,41.32,0,0,0-4.38-9.3,4,4,0,0,1,.44-4.85l2.9-3.19a4,4,0,0,0-.27-5.72l-6.11-5.56a4.07,4.07,0,0,0-5.73.27l-2.89,3.2a4,4,0,0,1-4.79.89,41.77,41.77,0,0,0-9.67-3.48,4,4,0,0,1-3.12-3.73L230,92.9A4.06,4.06,0,0,0,225.79,89l-8.25.39a4.05,4.05,0,0,0-3.86,4.24l.21,4.31a4,4,0,0,1-2.75,4,40.74,40.74,0,0,0-9.31,4.38,4,4,0,0,1-4.84-.44L193.8,103a4,4,0,0,0-5.72.27l-5.56,6.11a4,4,0,0,0,.27,5.72M210.35,124a22.43,22.43,0,1,1,1.74,36.59A22.42,22.42,0,0,1,210.35,124Z"></path><path class="cls-3" d="M297.59,115.66a14,14,0,1,1,0-27.84V70a2.44,2.44,0,0,0-.51,1.09l-.53,2.64a2.51,2.51,0,0,1-2.27,2A26.14,26.14,0,0,0,288,77a2.51,2.51,0,0,1-2.87-1l-1.49-2.24A2.53,2.53,0,0,0,280.1,73l-4.29,2.86a2.53,2.53,0,0,0-.71,3.51l1.49,2.24a2.54,2.54,0,0,1-.18,3A25.67,25.67,0,0,0,272.82,90a2.48,2.48,0,0,1-2.74,1.31l-2.63-.53a2.55,2.55,0,0,0-3,2l-1,5.06a2.53,2.53,0,0,0,2,3l2.64.53a2.52,2.52,0,0,1,2,2.27,25.67,25.67,0,0,0,1.24,6.31,2.51,2.51,0,0,1-1,2.87l-2.24,1.49a2.53,2.53,0,0,0-.7,3.51l2.85,4.29a2.53,2.53,0,0,0,3.51.71l2.24-1.49a2.48,2.48,0,0,1,3,.19,26.37,26.37,0,0,0,5.34,3.58,2.5,2.5,0,0,1,1.32,2.74l-.54,2.64a2.53,2.53,0,0,0,2,3l5.06,1a2.53,2.53,0,0,0,3-2l.53-2.64a2.52,2.52,0,0,1,1.92-2Z"></path><path class="cls-15" d="M237.45,113.36a31.31,31.31,0,1,0,16.14,17.7,31.2,31.2,0,0,0-16.14-17.7m-23.6-.19a30.33,30.33,0,1,1-17.15,15.64A30.25,30.25,0,0,1,213.85,113.17Z"></path><path class="cls-15" d="M289.48,83.51h0l0,0a19.47,19.47,0,0,1,8.07-1.1V81.9A19.88,19.88,0,0,0,289.4,83h0a19.9,19.9,0,0,0-12,25.42h0v0a19.93,19.93,0,0,0,20.19,13.09v-.49a19.43,19.43,0,0,1-19.71-12.72l0,0a19.41,19.41,0,0,1,11.62-24.82"></path><path class="cls-15" d="M202.34,168.49a34.4,34.4,0,0,1-10.68-15.06c-.09-.24-.17-.48-.25-.72l-1,.56.19.53a35.49,35.49,0,0,0,10.85,15.41Zm55.59-34.06a34.46,34.46,0,0,1-1.7,20.07l1.07.32A35.55,35.55,0,0,0,259,134.18Zm-29-26.95a34.75,34.75,0,0,1,9.86,2.94c.68.32,1.34.66,2,1l.53-1c-.67-.37-1.36-.73-2.06-1a35.52,35.52,0,0,0-10.07-3Z"></path><path class="cls-17" d="M185.2,210.27h99a5,5,0,0,1,5,5h0a5,5,0,0,1-5,5h-99a5,5,0,0,1-5-5h0a5,5,0,0,1,5-5"></path><path class="cls-8" d="M244.29,210.27h39.9a5,5,0,0,1,5,5h0a5,5,0,0,1-5,5h-39.9Z"></path><path class="cls-3" d="M399.26,156.08l1,1.88a2,2,0,0,1-.39,2.37,20.85,20.85,0,0,0-3.25,3.91,2,2,0,0,1-2.26.81l-2-.62a2,2,0,0,0-2.5,1.31l-1.21,3.89a2,2,0,0,0,1.32,2.51l2,.63a2,2,0,0,1,1.4,1.95,20.65,20.65,0,0,0,.46,5.06,2,2,0,0,1-1,2.17l-1.88,1a2,2,0,0,0-.84,2.7l1.9,3.61a2,2,0,0,0,2.7.84l1.88-1a2,2,0,0,1,2.37.39,20.85,20.85,0,0,0,3.91,3.25,2,2,0,0,1,.81,2.26l-.63,2a2,2,0,0,0,1.32,2.5l3.89,1.21a2,2,0,0,0,2.51-1.32l.63-2a2,2,0,0,1,1.95-1.4,21.15,21.15,0,0,0,5.06-.46,2,2,0,0,1,2.17,1l1,1.88a2,2,0,0,0,2.7.84l3.61-1.9a2,2,0,0,0,.84-2.7l-1-1.88a2,2,0,0,1,.39-2.37,20.85,20.85,0,0,0,3.25-3.91,2,2,0,0,1,2.26-.82l2,.64a2,2,0,0,0,2.5-1.32l1.21-3.89a2,2,0,0,0-1.32-2.51l-2-.63a2,2,0,0,1-1.4-1.95,20.65,20.65,0,0,0-.46-5.06,2,2,0,0,1,1-2.17l1.88-1a2,2,0,0,0,.84-2.7l-1.9-3.61a2,2,0,0,0-2.7-.83l-1.88,1a2,2,0,0,1-2.37-.39,20.85,20.85,0,0,0-3.91-3.25,2,2,0,0,1-.81-2.26l.63-2a2,2,0,0,0-1.32-2.51l-3.89-1.2a2,2,0,0,0-2.51,1.31l-.63,2a2,2,0,0,1-1.95,1.4,20.17,20.17,0,0,0-5.06.46,2,2,0,0,1-2.17-1l-1-1.88a2,2,0,0,0-2.69-.84l-3.61,1.9a2,2,0,0,0-.84,2.7m11.29,8.76a11.07,11.07,0,1,1-5.36,17.27A11.06,11.06,0,0,1,410.55,164.84Z"></path><rect class="cls-18" x="328.92" y="183.29" width="5.77" height="6.98"></rect><path class="cls-19" d="M342.54,305.76h20.35a1.88,1.88,0,0,0,1.87-1.63,1.77,1.77,0,0,0,0-.4L364,293a12,12,0,0,0-2-.67,2.06,2.06,0,0,1-1.5-1.37c0-.05,0-.1-.05-.15-.46-2.06-3.43-2.71-4-.7q-.11.39-.18.75a1.16,1.16,0,0,0,0,.18c-.09.43-.15.83-.2,1.18v0a11.43,11.43,0,0,0-.1,1.45l-.78,1-.38.49-.78,1-.36.45c-.28.36-.56.69-.83,1l-.38.42a5.91,5.91,0,0,1-3.36,2c-2.21.3-5.81.54-7.56,3.78a1.8,1.8,0,0,0-.08.21,1.25,1.25,0,0,0,1.19,1.63"></path><path class="cls-7" d="M342.54,305.76h20.35a1.88,1.88,0,0,0,1.87-1.63H341.35a1.25,1.25,0,0,0,1.19,1.63"></path><path class="cls-8" d="M387.24,221.67v12.52c0,13.89-2.45,44.38-3.34,61.23l-9.32-.19-7.65-60.77-14.4,2.07-.41-16.62h0c.65-57.45,30.31-44.14,27.75-11.64-.29,3.58,8.74,9.47,7.37,13.4"></path><polygon class="cls-8" points="352.24 225.04 370.33 225.04 364.14 295.49 354.31 295.74 352.24 225.04"></polygon><path class="cls-19" d="M371.33,304.76c.17,3,10.69,1.94,12.37,1.05a2,2,0,0,0,1-1.81,12.76,12.76,0,0,0-.81-4.2c-.68-2.09-.58-2.05-1.05-3.48,0,0,.12-2.33-3.33-3.22s-4.71,4.9-5.3,6-2.63,2.41-2.85,4.92a4.3,4.3,0,0,0,0,.72"></path><path class="cls-7" d="M371.33,304.76c.17,3,10.69,1.94,12.37,1.05a2,2,0,0,0,1-1.81,13.72,13.72,0,0,1-6,1.3,16,16,0,0,1-7.37-1.26,4.3,4.3,0,0,0,0,.72"></path><path class="cls-17" d="M363.21,184.23c-3.2,7-7.16,15.05-16.31,16.41-7.42,1.11-18.28-12.86-19.34-15.14s3-8.23,4.29-7.54,12.07,9,13,8.93c1.14-.07,5.06-12.53,12.16-16.63,1.11-.64,7.52,11,6.15,14"></path><path class="cls-17" d="M380.92,166.93c4.51,0,9.05,2.29,11,5.23,3.05,4.55-6,32.7-3.42,55.78h-38c-.24-9.56.95-38.5,3.11-54.69,4.73-7.44,20-6.32,27.26-6.32"></path><path class="cls-3" d="M366.63,167.27c-5.6,3-6.88,26.21-8.42,60.68H372.4c.61-33.85,6.1-55.25,8.22-61a57.05,57.05,0,0,0-14,.34"></path><path class="cls-20" d="M363.83,161.9a9.56,9.56,0,0,0,4.77,3.47v1.85l-.33.44c-1.2,2.1-.55,6.32,1.45,7.35,3.13-1.12,7.36-3.89,8.21-7.77l-.56-.52-.76-.54-.38-4.6c.24-.07,1.75-1.46,2.23-1.74a2.75,2.75,0,0,0,.81-2.52c-.19-1.07-1.74-.35-1.74-.35h0c1.34-3.15,3.06-5.88-.4-7.63s-10.44-1.62-10.44-1.62l-4.32-.46c.83,1.26.69,5.46.33,8.58-.32,2.79-.79,3.75,1.13,6.06"></path><path class="cls-21" d="M374.48,162.57s-1.36,4.41-3.14,5.2a6.31,6.31,0,0,1-2.74.76v-3.16c1.33-.09,3.09-.54,5.88-2.8"></path><path class="cls-17" d="M383.75,178.79c-1.65-3.4-1.34-6.43,1.82-8.54h0c3.16-2.11,5.86.46,7.51,3.85,3.23,6.66,5.6,21.5,2.18,25.72-2.8,3.45-19.79,3.3-22.14,2.66-.55-.14-4.47-3.89-3.38-7.09.12-.34.82-.48,1.37-.48,3.2,0,13.48-1.31,14.9-2.07,2.24-1.21-1.11-11.68-2.26-14.05"></path><path class="cls-22" d="M371,195.67a8,8,0,0,1,2.93,4.15c.64,1.91.9,2.87-1.25,2.19-1.51-.48-3.46-1.13-3.46-1.13a6.61,6.61,0,0,1-1.72-5.68Z"></path><path class="cls-22" d="M331.48,178.77c.34,2.15-1.66,5.62-3.19,6.24-.17-.3-1.19-1.62-1.87-2.63-1.45-2.17,2-6.7,3-5.69Z"></path><path class="cls-20" d="M327.44,175.36c-.21-1-1.11-4.9-1.84-5.55-.37-.34-.46-.19-.63,0a1.79,1.79,0,0,0-.22,1,13.73,13.73,0,0,0,.25,1.78c-2.21-1.15-4.32-3.86-5.93-5.71-.66-.76-1.7-.68-1.07.67a28.16,28.16,0,0,0,2.55,3.56l-3,.55c-.77-.42-.77.53-.4.93.6.66,3.38,1.39,3.38,1.39l-2.17-.31c-.78-.29-.37.67-.17.84a12.16,12.16,0,0,0,2.93.76l-1.61.1c-1-.34.29,1,.6,1.11a7.81,7.81,0,0,1,2.21.54c1.58.95,3.24,3.22,4.36,4.54a7.23,7.23,0,0,0,2.36-4.43Z"></path><polygon class="cls-23" points="341.21 184.28 358.55 184.28 365.1 206.22 347.76 206.22 341.21 184.28"></polygon><path class="cls-20" d="M367.64,195.53l-2.43-.4-2.78-1.84s-1.1-1.22-1.5-1c-.08,0,.65,2.3.56,2.36-.72.56-5.37-.15-5.34-.07,2.22,7.43,7.09,3.83,12.4,5.52.78.25.93.16.88-.51a7.42,7.42,0,0,0-1.79-4"></path><path class="cls-24" d="M345.68,183.67h1.94a.09.09,0,0,1,0,0c0-.28.59-.51,1.31-.51s1.3.23,1.3.51a.09.09,0,0,1,0,0h2.29l.48,1.61h-6.69Z"></path><path class="cls-8" d="M366.86,138.28c-10.23,3.17-6.33,13-.78,13.63,2.87.48,6.24-2.42,8.48-.31,1.11,1,.92,3.83.11,6.53-.23.79-.6,1.39.61.66.55-.34,1.48-.83,1.84-.6a1.53,1.53,0,0,1,0,2.27c-.24.21-.71.53-.71.53a2.91,2.91,0,0,0,3-.74c6.57-7.25,4.77-16.76-8-19.36-2.05-.42-2.27-3.32-4.57-2.61"></path><path class="cls-25" d="M318.58,164.67c.93,1.3,9,10.39,9,10.39l-1.73,5-.55.29-9.91-10.26,2.54-5.13Z"></path><polygon class="cls-26" points="319.22 166.67 326.27 174.69 325.09 178.13 317.42 170.09 319.22 166.67"></polygon><path class="cls-5" d="M346,121.3h-24.7a10.13,10.13,0,0,0-10.13,10.13v6.75a10.14,10.14,0,0,0,10.13,10.13h19.3l5.4,5v-5a10.14,10.14,0,0,0,10.14-10.13v-6.75A10.13,10.13,0,0,0,346,121.3"></path><path class="cls-8" d="M342.87,134.78a2.1,2.1,0,1,0,2.1,2.09,2.09,2.09,0,0,0-2.1-2.09"></path><path class="cls-8" d="M333.34,134.78a2.1,2.1,0,1,0,2.09,2.09,2.09,2.09,0,0,0-2.09-2.09"></path><path class="cls-8" d="M323.8,134.78a2.1,2.1,0,1,0,2.1,2.09,2.09,2.09,0,0,0-2.1-2.09"></path><path class="cls-5" d="M106.76,112.4a27.12,27.12,0,1,1-27.12,27.12,27.12,27.12,0,0,1,27.12-27.12"></path><path class="cls-27" d="M106.76,116.81a22.71,22.71,0,1,1-22.71,22.71,22.71,22.71,0,0,1,22.71-22.71"></path><path class="cls-3" d="M106.76,118.28a21.24,21.24,0,1,1-21.24,21.24,21.24,21.24,0,0,1,21.24-21.24"></path><path class="cls-25" d="M88.6,138.15a1.37,1.37,0,1,1-1.36,1.37,1.37,1.37,0,0,1,1.36-1.37"></path><path class="cls-25" d="M124.8,138.15a1.37,1.37,0,1,1-1.36,1.37,1.36,1.36,0,0,1,1.36-1.37"></path><path class="cls-25" d="M106.76,156.29a1.36,1.36,0,1,1-1.36,1.36,1.36,1.36,0,0,1,1.36-1.36"></path><path class="cls-25" d="M106.76,119.65A1.37,1.37,0,1,1,105.4,121a1.36,1.36,0,0,1,1.36-1.36"></path><path class="cls-10" d="M94.61,151.14h0a.73.73,0,0,1,0,1l-.49.5a.75.75,0,0,1-1,0,.73.73,0,0,1,0-1l.5-.5a.74.74,0,0,1,1,0M120,125.75h0a.74.74,0,0,1,0,1l-.5.5a.73.73,0,0,1-1,0h0a.75.75,0,0,1,0-1l.5-.49A.73.73,0,0,1,120,125.75Z"></path><path class="cls-10" d="M118.9,151.14h0a.73.73,0,0,0,0,1l.5.5a.73.73,0,0,0,1-1l-.49-.5a.75.75,0,0,0-1,0M93.5,125.75h0a.74.74,0,0,0,0,1l.5.5a.73.73,0,0,0,1,0h0a.75.75,0,0,0,0-1l-.5-.49A.73.73,0,0,0,93.5,125.75Z"></path><path class="cls-10" d="M101.9,125.64h0a.6.6,0,0,1,.77.36l4.89,13.62a.6.6,0,0,1-.36.77h0a.6.6,0,0,1-.77-.36l-4.89-13.62a.6.6,0,0,1,.36-.77"></path><path class="cls-10" d="M117.67,143.21h0a.6.6,0,0,1-.75.4l-10-3.13a.61.61,0,0,1-.4-.76h0a.6.6,0,0,1,.76-.39l10,3.13a.6.6,0,0,1,.39.75"></path><path class="cls-5" d="M140,170.35H162.8a9.35,9.35,0,0,1,9.35,9.35v6.23a9.35,9.35,0,0,1-9.35,9.35H145l-5,4.58v-4.58a9.35,9.35,0,0,1-9.35-9.35V179.7a9.35,9.35,0,0,1,9.35-9.35"></path><path class="cls-8" d="M142.87,182.79a1.94,1.94,0,1,1-1.93,1.94,1.94,1.94,0,0,1,1.93-1.94"></path><path class="cls-8" d="M151.67,182.79a1.94,1.94,0,1,1-1.93,1.94,1.94,1.94,0,0,1,1.93-1.94"></path><path class="cls-8" d="M160.47,182.79a1.94,1.94,0,1,1-1.93,1.94,1.94,1.94,0,0,1,1.93-1.94"></path><rect class="cls-4" x="315.7" y="73.55" width="1.91" height="9.18"></rect><rect class="cls-4" x="315.7" y="97.36" width="1.91" height="9.18"></rect><rect class="cls-4" x="158.05" y="72.85" width="1.91" height="9.18"></rect></svg>