<svg xmlns="http://www.w3.org/2000/svg" xmlns:xlink="http://www.w3.org/1999/xlink" id="Layer_1" x="0px" y="0px" width="292.588px" height="293.239px" viewBox="0 0 292.588 293.239" style="enable-background:new 0 0 292.588 293.239;" xml:space="preserve">
<style type="text/css">
	.st0{fill:url(#SVGID_1_);}
	.st1{fill:#9FA5FD;}
	.st2{fill:#868FE2;}
	.st3{fill:#37639A;}
	.st4{fill:#13348C;}
	.st5{fill:#030303;}
	.st6{fill:#E0935F;}
	.st7{fill:#F2B78B;}
	.st8{fill:#0C3265;}
	.st9{fill:#2E5990;}
	.st10{fill:#00001C;}
	.st11{fill:#14142E;}
	.st12{fill:#A7D4C6;}
	.st13{fill:#1A47B6;}
	.st14{fill:#4272D3;}
	.st15{fill:#003A61;}
	.st16{fill:#00527C;}
	.st17{fill:url(#SVGID_2_);}
	.st18{fill:url(#SVGID_3_);}
	.st19{fill:#5B79CE;}
	.st20{fill:url(#SVGID_4_);}
	.st21{fill:#0D2B6D;}
	.st22{fill:#DB9E16;}
	.st23{fill:#FEC230;}
</style>
<g>
	<linearGradient id="SVGID_1_" gradientUnits="userSpaceOnUse" x1="0.457" y1="171.6356" x2="286.6195" y2="171.6356">
		<stop offset="0.1584" style="stop-color:#E08197"></stop>
		<stop offset="1" style="stop-color:#E08197;stop-opacity:0"></stop>
	</linearGradient>
	<path class="st0" d="M156.329,293.239c22.326,0,52.053-12.993,59.596-40.153c7.489-26.967-18.959-44.358-15.254-69.612   c2.459-16.762,34.322-17.259,54.678-26.604c28.274-12.98,48.837-76.758,9.397-98.587C220.01,33.523,192.65,88.88,155.965,88.88   c-32.388,0-73.664-62.333-127.506-29.084C-18.637,88.88-5.856,162.587,63.259,164.949c64.093,2.19-0.185,45.538-1.033,68.609   C60.972,267.653,82.777,293.239,156.329,293.239z"></path>
	<g>
		<g>
			<path class="st1" d="M266.722,187.266c-0.145-0.367-0.288-0.734-0.432-1.1c-42.986,17.153-79.562,47.632-104.19,87.203     c0.285,0.178,0.57,0.355,0.855,0.533C187.511,234.559,223.938,204.278,266.722,187.266z"></path>
			<path class="st1" d="M284.599,180.419c-1.003-3.78-14.438-2.033-19.23,6.755C274.624,189.988,285.549,184.059,284.599,180.419z"></path>
			<path class="st1" d="M256.157,191.153c3.014,9.211,14.99,13.409,17.16,10.328C275.64,198.282,266.765,188.859,256.157,191.153z"></path>
			<path class="st1" d="M239.922,199.459c4.435,10.486,18.898,14.307,21.171,10.548     C263.572,206.065,252.342,195.612,239.922,199.459z"></path>
			<path class="st1" d="M170.524,261.702c9.009,8.251,25.769,4.527,26.637-0.38C198.194,256.06,181.99,250.902,170.524,261.702z"></path>
			<path class="st1" d="M221.796,210.932c6.397,11.709,23.811,14.6,26.094,10.035C250.448,216.113,236.195,204.788,221.796,210.932z     "></path>
			<path class="st1" d="M185.168,243.492c9.268,10.458,28.315,8.88,29.789,3.607C216.685,241.411,199.173,233.044,185.168,243.492z"></path>
			<path class="st1" d="M203.219,225.594c8.529,12.189,28.407,13.287,30.484,8.008C236.105,227.915,218.884,216.679,203.219,225.594     z"></path>
			<path class="st1" d="M261.565,171.212c-4.467-0.649-10.748,11.693-5.408,19.941C264.603,184.801,265.87,171.959,261.565,171.212z     "></path>
			<path class="st1" d="M244.754,175.337c-5.447-0.32-11.948,15.001-4.832,24.122C249.361,191.11,249.975,175.809,244.754,175.337z"></path>
			<path class="st1" d="M165.737,234.176c-5.964,2.598-6.505,22.1,4.787,27.526C176.951,247.984,171.504,231.906,165.737,234.176z"></path>
			<path class="st1" d="M225.294,181.798c-6.623,0.288-12.959,19.339-3.498,29.134C232.105,199.926,231.616,181.759,225.294,181.798     z"></path>
			<path class="st1" d="M182.866,211.891c-7.052,2.075-9.828,23.969,2.303,31.601C193.773,229.125,189.624,210.186,182.866,211.891z     "></path>
			<path class="st1" d="M204.275,192.283c-7.586,1.202-12.864,23.666-1.056,33.31C213.665,211.856,211.498,191.444,204.275,192.283z     "></path>
		</g>
		<g>
			<g>
				<path class="st2" d="M270.225,222.777c-0.125-0.463-0.25-0.926-0.375-1.39c-38.991,10.801-73.969,33.264-100.078,64.637      c0.316,0.264,0.632,0.527,0.948,0.79C196.709,255.692,231.487,233.437,270.225,222.777z"></path>
			</g>
			<g>
				<path class="st2" d="M269.344,221.746c-0.142,0.216-0.284,0.431-0.425,0.648c0.231,0.111,0.462,0.222,0.693,0.334      c6.924,3.304,20.288-4.244,21.055-4.479c0.637-0.338,1.277-0.673,1.92-1.005c-0.714-0.123-1.428-0.242-2.144-0.356      C289.873,216.57,273.768,214.846,269.344,221.746z"></path>
			</g>
			<path class="st2" d="M180.675,274.868c-0.191,0.196-0.383,0.393-0.574,0.59c0.15,0.147,0.3,0.293,0.45,0.44     c11.355,10.104,32.858,6.147,33.732,6.598c0.523-0.058,1.045-0.112,1.567-0.163c-0.371-0.33-0.743-0.658-1.115-0.986     C214.099,280.513,192.855,262.51,180.675,274.868z"></path>
			<path class="st2" d="M199.48,257.909c-0.213,0.169-0.427,0.339-0.64,0.509c0.134,0.17,0.268,0.341,0.402,0.512     c8.959,10.561,28.351,9.485,29.096,9.906c0.534,0.003,1.068,0.01,1.601,0.018c-0.339-0.381-0.679-0.761-1.02-1.141     C228.408,266.902,211.36,248.57,199.48,257.909z"></path>
			<path class="st2" d="M219.255,244.104c-0.232,0.142-0.463,0.284-0.695,0.427c0.115,0.192,0.231,0.383,0.346,0.575     c6.696,10.365,23.634,11.425,24.264,11.807c0.541,0.061,1.081,0.126,1.62,0.193c-0.304-0.426-0.609-0.852-0.914-1.278     C243.48,255.068,230.338,237.377,219.255,244.104z"></path>
			<path class="st2" d="M239.546,233.259c-0.247,0.114-0.493,0.229-0.739,0.344c0.095,0.21,0.191,0.419,0.286,0.629     c4.669,9.61,18.93,12.088,19.452,12.423c0.544,0.117,1.086,0.237,1.627,0.361c-0.266-0.466-0.533-0.931-0.8-1.396     C259.079,244.936,249.433,228.717,239.546,233.259z"></path>
			<path class="st2" d="M257.902,225.861c-0.258,0.09-0.515,0.179-0.773,0.269c0.077,0.224,0.153,0.447,0.229,0.67     c3.033,8.326,14.515,11.408,14.939,11.685c0.544,0.164,1.086,0.331,1.627,0.501c-0.231-0.496-0.463-0.992-0.695-1.487     C273.018,236.914,266.256,222.988,257.902,225.861z"></path>
			<path class="st2" d="M179.946,237.894c-0.217-0.455-0.434-0.909-0.65-1.365c-0.283,0.603-0.562,1.205-0.84,1.808     c-0.957,1.051-10.603,26.06,1.187,36.674c0.15,0.147,0.301,0.293,0.451,0.44c0.191-0.197,0.382-0.394,0.573-0.591     C192.113,263.542,180.406,239.238,179.946,237.894z"></path>
			<path class="st2" d="M202.208,225.106c-0.173-0.487-0.345-0.975-0.517-1.463c-0.338,0.567-0.672,1.133-1.005,1.7     c-0.874,0.837-11.511,21.576-2.255,32.553c0.134,0.171,0.268,0.342,0.402,0.512c0.213-0.17,0.426-0.34,0.64-0.509     C210.691,249.294,202.502,226.317,202.208,225.106z"></path>
			<path class="st2" d="M224.44,215.855c-0.127-0.515-0.253-1.029-0.379-1.544c-0.387,0.527-0.771,1.056-1.151,1.585     c-0.77,0.649-11.588,17.355-4.702,28.049c0.115,0.192,0.231,0.384,0.347,0.576c0.231-0.143,0.462-0.285,0.694-0.427     C229.777,237.855,224.604,216.914,224.44,215.855z"></path>
			<path class="st2" d="M246.202,209.788c-0.08-0.535-0.16-1.071-0.239-1.607c-0.429,0.488-0.856,0.976-1.279,1.465     c-0.655,0.489-10.952,13.468-6.169,23.317c0.095,0.21,0.191,0.42,0.286,0.629c0.246-0.115,0.493-0.23,0.74-0.344     C249.001,229.012,246.269,210.683,246.202,209.788z"></path>
			<path class="st2" d="M264.884,207.212c-0.039-0.55-0.079-1.099-0.117-1.65c-0.461,0.45-0.92,0.902-1.375,1.354     c-0.525,0.36-9.592,10.045-6.497,18.531c0.076,0.223,0.153,0.447,0.229,0.67c0.257-0.09,0.515-0.18,0.772-0.269     C265.951,223.149,264.891,207.932,264.884,207.212z"></path>
		</g>
		<g>
			<g>
				<path class="st1" d="M25.982,207.014c0.145-0.538,0.29-1.076,0.435-1.615c45.303,12.514,85.953,38.58,116.308,75.003      c-0.367,0.306-0.734,0.613-1.101,0.919C111.409,245.189,70.991,219.366,25.982,207.014z"></path>
			</g>
			<g>
				<path class="st1" d="M27.005,205.816c0.165,0.251,0.33,0.501,0.494,0.752c-0.269,0.129-0.537,0.258-0.804,0.388      c-8.041,3.844-23.572-4.913-24.463-5.185c-0.74-0.392-1.484-0.78-2.232-1.166c0.829-0.144,1.659-0.282,2.491-0.416      C3.153,199.82,21.86,197.804,27.005,205.816z"></path>
			</g>
			<path class="st1" d="M130.051,267.452c0.223,0.228,0.445,0.456,0.667,0.685c-0.174,0.17-0.348,0.341-0.523,0.511     c-13.182,11.747-38.164,7.168-39.179,7.693c-0.607-0.067-1.214-0.13-1.821-0.188c0.431-0.383,0.863-0.765,1.295-1.147     C91.228,274.037,115.892,253.106,130.051,267.452z"></path>
			<path class="st1" d="M108.192,247.767c0.248,0.196,0.496,0.393,0.743,0.591c-0.155,0.198-0.311,0.397-0.466,0.596     c-10.399,12.275-32.926,11.042-33.791,11.532c-0.621,0.004-1.241,0.012-1.86,0.023c0.394-0.443,0.789-0.885,1.184-1.326     C74.595,258.238,94.384,236.929,108.192,247.767z"></path>
			<path class="st1" d="M85.209,231.747c0.269,0.165,0.538,0.329,0.807,0.495c-0.134,0.223-0.268,0.446-0.402,0.669     c-7.77,12.046-27.445,13.292-28.176,13.735c-0.628,0.071-1.256,0.147-1.882,0.226c0.353-0.496,0.706-0.991,1.061-1.485     C57.077,244.503,72.329,223.941,85.209,231.747z"></path>
			<path class="st1" d="M61.629,219.166c0.286,0.132,0.573,0.265,0.859,0.399c-0.11,0.244-0.221,0.487-0.332,0.731     c-5.416,11.168-21.98,14.057-22.586,14.447c-0.632,0.137-1.261,0.277-1.89,0.42c0.308-0.541,0.618-1.082,0.928-1.622     C38.948,232.746,50.14,213.897,61.629,219.166z"></path>
			<path class="st1" d="M40.3,210.586c0.3,0.104,0.599,0.208,0.898,0.312c-0.089,0.26-0.177,0.519-0.266,0.778     c-3.517,9.675-16.852,13.264-17.344,13.586c-0.631,0.191-1.261,0.385-1.889,0.583c0.268-0.576,0.537-1.152,0.807-1.728     C22.749,223.439,30.593,207.257,40.3,210.586z"></path>
			<path class="st1" d="M130.867,224.5c0.252-0.529,0.503-1.056,0.754-1.586c0.329,0.7,0.654,1.4,0.977,2.1     c1.113,1.221,12.338,30.264-1.349,42.603c-0.175,0.171-0.349,0.341-0.523,0.511c-0.222-0.229-0.444-0.458-0.666-0.685     C116.755,254.305,130.333,226.062,130.867,224.5z"></path>
			<path class="st1" d="M104.996,209.664c0.201-0.566,0.4-1.133,0.599-1.7c0.393,0.658,0.782,1.316,1.169,1.974     c1.016,0.972,13.389,25.054,2.647,37.814c-0.156,0.199-0.311,0.398-0.466,0.596c-0.247-0.197-0.496-0.395-0.743-0.591     C95.162,237.769,104.655,211.071,104.996,209.664z"></path>
			<path class="st1" d="M79.162,198.935c0.148-0.598,0.294-1.195,0.439-1.794c0.45,0.612,0.896,1.226,1.339,1.84     c0.895,0.753,13.476,20.151,5.485,32.58c-0.134,0.223-0.268,0.446-0.402,0.669c-0.269-0.166-0.538-0.331-0.807-0.495     C72.981,224.496,78.973,200.166,79.162,198.935z"></path>
			<path class="st1" d="M53.877,191.906c0.093-0.622,0.185-1.245,0.277-1.867c0.499,0.567,0.995,1.133,1.487,1.701     c0.762,0.568,12.733,15.636,7.186,27.081c-0.11,0.244-0.221,0.488-0.332,0.731c-0.286-0.134-0.573-0.266-0.86-0.398     C50.642,214.239,53.8,192.945,53.877,191.906z"></path>
			<path class="st1" d="M32.174,188.929c0.045-0.639,0.09-1.277,0.134-1.917c0.536,0.523,1.069,1.047,1.599,1.572     c0.611,0.418,11.15,11.661,7.562,21.521c-0.088,0.259-0.177,0.519-0.266,0.779c-0.299-0.105-0.598-0.209-0.897-0.312     C30.948,207.443,32.166,189.765,32.174,188.929z"></path>
		</g>
		<g>
			
				<rect x="138.727" y="120.065" transform="matrix(0.9838 -0.1791 0.1791 0.9838 -31.753 28.0271)" class="st1" width="1.299" height="139.682"></rect>
			<path class="st1" d="M123.422,102.241c-4.022,0.732-4.412,13.811,3.671,20.169C132.417,113.612,127.444,101.509,123.422,102.241z     "></path>
			<path class="st1" d="M128.909,132.387c10.869-0.688,18.388-12.328,15.32-15.383C141.161,113.949,129.552,121.515,128.909,132.387     z"></path>
			<path class="st1" d="M132.22,150.583c13.051-0.826,22.078-14.802,18.395-18.47C146.932,128.444,132.993,137.529,132.22,150.583z"></path>
			<path class="st1" d="M149.298,244.421c15.701-0.994,26.563-17.809,22.132-22.222     C166.998,217.785,150.227,228.715,149.298,244.421z"></path>
			<path class="st1" d="M136.127,172.053c15.715-0.994,26.585-17.824,22.15-22.241C153.842,145.395,137.057,156.334,136.127,172.053     z"></path>
			<path class="st1" d="M145.068,221.176c17.476-1.106,29.565-19.821,24.633-24.734C164.768,191.53,146.102,203.695,145.068,221.176     z"></path>
			<path class="st1" d="M140.442,195.76c18.054-1.143,30.543-20.477,25.448-25.552C160.794,165.133,141.511,177.701,140.442,195.76z     "></path>
			<path class="st1" d="M109.151,123.388c-1.795,3.94,9.343,12.185,19.758,8.999C124.476,122.439,110.945,119.448,109.151,123.388z"></path>
			<path class="st1" d="M108.497,139.778c-2.155,4.731,11.218,14.63,23.723,10.805C126.898,138.638,110.652,135.047,108.497,139.778     z"></path>
			<path class="st1" d="M120.756,231.421c-2.592,5.692,13.497,17.602,28.542,13C142.895,230.05,123.349,225.729,120.756,231.421z"></path>
			<path class="st1" d="M107.562,159.042c-2.595,5.697,13.509,17.617,28.566,13.011     C129.719,157.669,110.156,153.345,107.562,159.042z"></path>
			<path class="st1" d="M113.3,206.707c-2.885,6.335,15.023,19.591,31.768,14.469C137.941,205.181,116.185,200.372,113.3,206.707z"></path>
			<path class="st1" d="M107.623,180.812c-2.981,6.544,15.52,20.239,32.819,14.948C133.08,179.235,110.604,174.267,107.623,180.812z     "></path>
		</g>
		<g>
			<g>
				<path class="st2" d="M97.425,236.202c16.731,24.404,38.559,36.654,42.787,39.069c1.792-3.003,14.883-30.482-5.89-64.021      c-26.125-42.032-78.626-52.002-87.11-51.153C54.064,168.085,77.921,205.675,97.425,236.202z"></path>
			</g>
			<g>
				<path class="st3" d="M139.189,274.714c-0.004-0.012-0.008-0.024-0.012-0.037c0.413,0.238,0.762,0.437,1.035,0.593      c0.127-0.213,0.315-0.561,0.539-1.012C144.297,285.703,142.723,286.071,139.189,274.714z"></path>
				<path class="st3" d="M139.177,274.678c-4.726-15.178-11.245-29.655-19.365-43.144c-9.859-3.207-19.781-5.406-29.608-6.64      c-0.399-0.625-0.8-1.252-1.2-1.879c9.738,1.1,19.578,3.142,29.37,6.166c-11.674-18.794-26.486-35.602-43.9-49.626      c-4.282,0.221-8.607,0.626-12.796,1.154c-0.379-0.573-0.754-1.14-1.124-1.696c3.843-0.515,7.813-0.933,11.736-1.192      c-7.407-5.794-15.273-11.087-23.551-15.827c-0.574-0.746-1.086-1.385-1.525-1.897c0.463-0.046,1.08-0.054,1.793-0.032      c18.74,10.742,35.868,24.61,49.924,40.324c-0.128-7.894-0.723-15.993-1.825-24.251c0.689,0.398,1.377,0.815,2.066,1.23      c1.06,8.562,1.579,16.95,1.603,25.112c14.666,16.865,26.423,36.115,34.73,56.942c3.044-9.473,5.496-19.488,7.259-29.969      c0.438,1.394,0.808,2.762,1.145,4.114c-1.871,9.944-4.362,19.452-7.385,28.461c1.535,4.01,2.942,8.077,4.218,12.194      c0.004,0.012,0.007,0.024,0.011,0.036c-0.224,0.451-0.412,0.8-0.539,1.012C139.939,275.115,139.591,274.916,139.177,274.678z"></path>
			</g>
		</g>
		<g>
			<path class="st2" d="M188.852,179.864c-1.759-10.639-8.681-6.102-2.99-16.854c8.257-15.598,4.394-23.042-2.815-24.879     c-7.209-1.836-14.163,2.852-14.375,20.5c-0.146,12.164-4.054,4.869-10.689,13.369c-5.766,7.387-1.764,24.165-8.149,30.446     c-15.758,15.499-1.669,35.466,7.218,37.729c8.887,2.264,30.812-8.528,24.389-29.678     C178.839,201.928,190.381,189.11,188.852,179.864z"></path>
			<path class="st3" d="M161.426,226.202l9.308-36.538l17.956-10.665c-0.12-0.579-0.257-1.106-0.407-1.591l-16.999,10.097     l9.027-35.435l10.062-5.977c-0.084-0.572-0.206-1.11-0.359-1.619l-9.152,5.436l2.945-11.559c-0.248-0.08-0.5-0.154-0.757-0.22     c-0.257-0.065-0.514-0.12-0.77-0.169l-2.945,11.559l-5.436-9.153c-0.379,0.373-0.743,0.788-1.09,1.25l5.976,10.062l-9.027,35.435     l-10.097-17c-0.363,0.355-0.736,0.752-1.118,1.203l10.665,17.957l-9.308,36.538l-12.362-20.812     c-0.361,0.455-0.701,0.913-1.017,1.373l12.829,21.598l-2.781,10.918l-0.268,1.053l-4.879,19.152l1.527,0.389l4.879-19.153     l0.268-1.053l2.781-10.918l21.598-12.829c-0.058-0.555-0.137-1.12-0.236-1.692L161.426,226.202z"></path>
		</g>
		<g>
			<g>
				<g>
					<circle class="st4" cx="155.006" cy="264.39" r="28.848"></circle>
				</g>
				<g>
					<g>
						<path class="st4" d="M241.389,188.59c-2.708,0-5.417-1.033-7.482-3.099c-21.075-21.075-49.096-32.681-78.9-32.681        c-29.805,0-57.825,11.607-78.899,32.681c-4.132,4.132-10.832,4.132-14.965,0c-4.133-4.133-4.133-10.832,0-14.965        c25.071-25.072,58.406-38.88,93.864-38.88c35.458,0,68.793,13.808,93.865,38.88c4.133,4.133,4.133,10.832,0,14.965        C246.805,187.557,244.097,188.59,241.389,188.59z"></path>
					</g>
					<g>
						<path class="st4" d="M277.131,152.848c-2.708,0-5.417-1.033-7.483-3.099c-30.622-30.622-71.336-47.486-114.642-47.486        c-43.306,0-84.02,16.864-114.642,47.486c-4.132,4.132-10.833,4.132-14.965,0c-4.133-4.133-4.133-10.832,0-14.965        C60.019,100.165,106.048,81.1,155.006,81.1c48.959,0,94.988,19.066,129.607,53.685c4.133,4.133,4.133,10.832,0,14.965        C282.547,151.815,279.839,152.848,277.131,152.848z"></path>
					</g>
					<g>
						<path class="st4" d="M104.367,224.332c-2.708,0-5.416-1.033-7.482-3.099c-4.133-4.132-4.133-10.832,0-14.965        c15.524-15.525,36.166-24.075,58.122-24.075c21.956,0,42.598,8.55,58.123,24.075c4.133,4.133,4.133,10.832,0,14.965        c-4.132,4.132-10.833,4.132-14.965,0c-11.528-11.528-26.855-17.877-43.158-17.877c-16.303,0-31.63,6.348-43.157,17.877        C109.783,223.299,107.075,224.332,104.367,224.332z"></path>
					</g>
				</g>
			</g>
		</g>
		<g>
			<g>
				<g>
					<path class="st5" d="M147.847,0.246c-2.165,0.948-8.248,9.749-2.803,14.423C149.9,18.838,156.69,8.07,156.69,8.07       s2.107-0.526,2.157-2.486C158.89,3.877,151.067-1.164,147.847,0.246z"></path>
					<path class="st6" d="M146.287,12.569c-0.529,3.863-2.92,5.813-2.92,5.813s0,2.249,2.845,3.599       c2.845,1.349,4.353-0.741,4.353-0.741l0.926-4.895C151.491,16.344,149.251,12.834,146.287,12.569z"></path>
					<path class="st7" d="M151.321,6.772c-1.998,3.172-2.988,3.677-2.988,3.677s-0.854-2.27-2.456-1.459       c-1.456,0.737-1.44,2.837,0.118,4.095c1.306,5.56,6.129,6.873,7.184,5.967c3.673-3.155,3.511-10.983,3.511-10.983       L151.321,6.772z"></path>
					<path class="st6" d="M170.231,59.577c-1.085-0.613-4.855-1.091-4.855-1.091l-7.502-4.719l-1.908,3.379l7.799,4.144       c0,0,1.051,1.055,2.257,1.885c2.193,1.509,3.336,0.608,4.486-0.836c0.847,0.479,1.075,4.007,1.597,4.302       C173.495,67.426,172.808,61.032,170.231,59.577z"></path>
					<g>
						<path class="st8" d="M149.128,44.058c-1.314-5.221,0.86-17.236-4.949-17.272c-6.237-0.039-4.643,16.01-1.937,20.544        c3.728,6.247,13.723,10.543,19.575,13.678l2.825-3.992C160.699,54.434,150.147,48.109,149.128,44.058z"></path>
					</g>
					<path class="st9" d="M159.299,32.353c-1.092-5.003-8.734-11.114-8.734-11.114s-3.149,0.529-7.197-2.858       c-4.657,4.075-6.675,8.643-3.974,23.054c1.359,7.25,4.9,16.942,1.116,23.729c0,0,15.184,0,17.464,0       c0-0.625-1.855-20.059-1.2-22.179C158.154,38.513,160.16,36.302,159.299,32.353z"></path>
					<path class="st5" d="M141.49,14.806c-3.31,5.477-2.363,7.488-3.051,10.981c-0.66,3.351-1.275,6.668-0.259,6.668       c0.682,0,6.98-7.621,7.721-13.654c0.359-2.923,3.134-2.487,2.54-6.88c-0.531-3.924,8.249-3.851,8.249-3.851l-7.847-8.056       C140.672,0.649,144.133,10.432,141.49,14.806z"></path>
					<g>
						<g>
							<path class="st8" d="M143.764,46.637c-1.339-2.243-2.355-7.396-2.315-11.729c0.002-0.273-0.217-0.496-0.489-0.499         c-0.002,0-0.003,0-0.005,0c-0.271,0-0.492,0.218-0.494,0.489c-0.043,4.565,1.012,9.829,2.455,12.245         c2.809,4.706,9.128,8.348,14.494,11.139c-0.031-0.381-0.061-0.77-0.092-1.164C152.187,54.423,146.348,50.966,143.764,46.637z         "></path>
						</g>
						<g>
							<path class="st8" d="M156.662,49.865c-2.962-2.234-5.506-4.574-5.957-6.368c-0.39-1.551-0.464-3.752-0.541-6.082         c-0.036-1.068-0.072-2.174-0.142-3.242c-0.017-0.272-0.249-0.47-0.525-0.461c-0.273,0.018-0.479,0.253-0.461,0.525         c0.069,1.053,0.105,2.151,0.14,3.212c0.079,2.384,0.154,4.636,0.57,6.29c0.557,2.212,3.619,4.943,7.053,7.462         c0.043,0.031,0.069,0.051,0.098,0.073c-0.028-0.437-0.054-0.869-0.078-1.292C156.767,49.944,156.713,49.904,156.662,49.865z"></path>
						</g>
					</g>
					<g>
						<g>
							<g>
								<g>
									<g>
										<path class="st7" d="M180.303,113.229c-0.715-0.886-1.165-2.463-1.165-2.463h-4.032l0.78,2.215l2.192,2.491l3.759,1.065            l1.898-1.284C183.736,115.252,181.018,114.115,180.303,113.229z"></path>
									</g>
									<path class="st5" d="M183.736,115.252c-1.852,0.384-3.437,0.141-4.688-0.305c-2.014-0.719-3.162-1.966-3.162-1.966           s-0.579,0.904-0.579,2.757c0,0.607,0.059,1.36,0.326,2.09c0.569,0,1.177,0,1.177,0s0-0.774,0-1.524           c1.65,0.406,3.763,1.524,6.079,1.524C188.228,117.828,188.037,116.097,183.736,115.252z"></path>
								</g>
							</g>
						</g>
						<g>
							<g>
								<path class="st10" d="M157.974,65.164H140.51c0,9.561,7.413,13.451,16.152,13.451c3.296,0,8.522,0.428,8.522,0.428          l9.019,31.722h5.72c0-11.788-4.049-33.301-6.43-36.238C169.744,69.904,157.974,65.164,157.974,65.164z"></path>
							</g>
						</g>
					</g>
					<g>
						<g>
							<g>
								<g>
									<path class="st7" d="M162.052,115.06c-0.715-0.886,0.18-2.463,0.18-2.463H158.2l-0.565,2.215l2.192,2.491l3.759,1.065           l1.898-1.284C165.485,117.083,162.767,115.946,162.052,115.06z"></path>
								</g>
								<path class="st5" d="M165.485,117.083c-1.852,0.384-3.437,0.141-4.688-0.305c-2.014-0.719-3.162-1.966-3.162-1.966          s-0.579,0.904-0.579,2.757c0,0.607,0.059,1.36,0.326,2.09c0.569,0,1.177,0,1.177,0s0-0.774,0-1.524          c1.65,0.406,3.763,1.524,6.079,1.524C169.977,119.659,169.785,117.928,165.485,117.083z"></path>
							</g>
						</g>
					</g>
					<g>
						<g>
							<g>
								<path class="st11" d="M178.468,68.388c-3.859-1.665-20.493-3.224-20.493-3.224H140.51c-2.177,3.092-3.529,8.579-2.33,11.797          c1.676,4.498,6.914,5.358,12.034,5.028c2.602-0.168,19.895-2.945,19.895-2.945s-11.551,22.573-12.806,33.553h5.801          C165.246,106.176,187.904,72.461,178.468,68.388z"></path>
							</g>
						</g>
					</g>
				</g>
			</g>
			<g>
				<path class="st7" d="M171.329,59.137c-1.085-0.613-4.855-1.091-4.855-1.091l-7.502-4.719l-1.908,3.379l7.799,4.144      c0,0,1.051,1.055,2.257,1.885c2.193,1.509,3.336,0.608,4.486-0.836c0.847,0.479,1.075,4.007,1.597,4.302      C174.594,66.986,173.906,60.592,171.329,59.137z"></path>
				<g>
					<g>
						<path class="st12" d="M178.318,67.011l-20.697-2.436c-0.062,0.405,0.215,0.783,0.62,0.845l20.644,3.178l13.958-15.538        c0.274-0.305,0.248-0.773-0.056-1.046L178.318,67.011z"></path>
					</g>
				</g>
			</g>
			<g>
				<path class="st9" d="M150.226,43.618c-1.314-5.221,0.86-17.236-4.949-17.272c-6.237-0.039-4.643,16.01-1.937,20.544      c3.728,6.247,13.723,10.543,19.575,13.678l2.825-3.992C161.797,53.994,151.245,47.669,150.226,43.618z"></path>
			</g>
		</g>
		<g>
			<polygon class="st5" points="105.317,222.545 116.96,222.545 117.489,239.85 103.194,239.85    "></polygon>
			<g>
				<g>
					<g>
						<path class="st6" d="M113.456,234.167H107.8c0,0-0.136,2.861-0.749,5.085c1.108,0.633,0.927,1.432,3.577,1.432        c2.651,0,2.47-0.799,3.577-1.432C113.591,237.028,113.456,234.167,113.456,234.167z"></path>
						<path class="st5" d="M116.131,220.006c-1.317-1.181-3.083-2.074-5.504-2.074c-2.42,0-4.187,0.893-5.504,2.074        c-5.431,4.868-2.788,17.525-2.575,21.274c0.847,0.582,4.606,2.011,4.606,2.011s-1.894-6.245-1.512-11.874        c0.381-5.63,2.305-6.067,4.985-6.067c2.68,0,6.169-1.309,6.55,4.321c0.381,5.63-3.077,13.62-3.077,13.62        s3.759-1.429,4.606-2.011C118.919,237.531,121.563,224.874,116.131,220.006z"></path>
						<path class="st7" d="M116.683,224.012h-12.111c-0.466,8.117,2.114,13.413,6.055,13.413        C114.569,237.425,117.149,232.129,116.683,224.012z"></path>
					</g>
					<g>
						<g>
							<g>
								<path class="st13" d="M129.238,257.385c0-5.676-3.656-14.44-8.282-16.977c-1.497-0.821-3.792-1.466-6.234,0.043          c-5.191,3.206,0.196,7.394,5.166,11.404c2.11,1.703,2.386,5.992,2.386,6.914c0,3.362-3.615,8.661-8.047,10.811          c0.311,1.734,0.853,3.482,1.787,4.842C122.916,272.686,129.238,262.067,129.238,257.385z"></path>
							</g>
						</g>
					</g>
					<g>
						<g>
							<g>
								<path class="st13" d="M92.017,257.385c0-5.676,3.656-14.44,8.282-16.977c1.498-0.821,3.792-1.466,6.234,0.043          c5.191,3.206-0.196,7.394-5.166,11.404c-2.11,1.703-2.386,5.992-2.386,6.914c0,3.362,3.615,8.661,8.047,10.811          c-0.311,1.734-0.853,3.482-1.786,4.842C98.339,272.686,92.017,262.067,92.017,257.385z"></path>
							</g>
						</g>
					</g>
					<g>
						<path class="st14" d="M119.659,251.36c0.357-0.99,0.672-1.929,0.963-2.87c0.081-0.261-0.065-0.537-0.326-0.618        c-0.261-0.082-0.537,0.065-0.618,0.326c-0.278,0.9-0.581,1.8-0.92,2.745c0.253,0.205,0.507,0.41,0.761,0.615        C119.579,251.505,119.631,251.441,119.659,251.36z"></path>
						<path class="st14" d="M100.959,247.873c-0.26,0.081-0.406,0.357-0.326,0.618c0.291,0.941,0.606,1.88,0.963,2.87        c0.029,0.08,0.08,0.144,0.14,0.197c0.254-0.205,0.508-0.41,0.761-0.615c-0.339-0.945-0.642-1.845-0.92-2.745        C101.496,247.938,101.219,247.791,100.959,247.873z"></path>
					</g>
					<path class="st13" d="M121.123,275.017c-1.164-5.142-4.152-17.651-1.928-23.824c2.717-7.541,2.43-10.314,1.933-10.667       c-0.588-0.418-3.043-1.958-7.197-2.455c-0.004,0.509-0.25,2.084-3.302,2.084v0l0,0l0,0v0c-3.052,0-3.299-1.575-3.302-2.084       c-4.155,0.497-6.609,2.037-7.197,2.455c-0.498,0.354-0.784,3.126,1.932,10.667c2.223,6.172-0.764,18.682-1.928,23.824       c-1.382,6.105-1.707,7.511-1.707,7.511h12.203h0h0h12.203C122.831,282.527,122.505,281.122,121.123,275.017z"></path>
				</g>
				<path class="st10" d="M122.319,262.415H98.937c-0.318,0-0.604,0.137-0.801,0.356c-0.173,0.192-0.279,0.446-0.279,0.724v16.451      c0,0.596,0.484,1.08,1.08,1.08h23.382c0.596,0,1.08-0.484,1.08-1.08v-16.451c0-0.266-0.096-0.51-0.256-0.698      C122.945,262.563,122.649,262.415,122.319,262.415z"></path>
				<path class="st5" d="M95.474,290.915c0,1.75-1.843,2.298-3.827,2.166c-0.538-0.036-1.102-0.06-1.759-0.047      c-0.519,0.01-1.097,0.044-1.766,0.113c-3.85,0.398-5.525-1.007-5.525-1.496s2.171-2.326,5.485-1.68      c1.61,0.314,1.687-0.401,3.404-0.569C93.927,289.163,95.474,289.436,95.474,290.915z"></path>
				<path class="st5" d="M126.331,290.915c0,1.75,1.843,2.298,3.827,2.166c0.538-0.036,1.102-0.06,1.759-0.047      c0.519,0.01,1.097,0.044,1.766,0.113c3.85,0.398,5.525-1.007,5.525-1.496s-2.171-2.326-5.485-1.68      c-1.61,0.314-1.687-0.401-3.404-0.569C127.878,289.163,126.331,289.436,126.331,290.915z"></path>
				<path class="st7" d="M129.274,289.674c0,0,1.01,0.362,0.87,1.5c-0.167,1.358-1.28,1.287-1.28,1.287l-5.583-0.539l1.055-4.742      L129.274,289.674z"></path>
				<g>
					<path class="st15" d="M91.384,284.753c6.099,2.247,32.97,8.486,32.97,8.486l1.911-6.714c0,0-29.397-11.77-36.557-14.418       C82.548,269.459,75.526,281.153,91.384,284.753z"></path>
				</g>
				<path class="st7" d="M92.53,289.674c0,0-1.01,0.362-0.87,1.5c0.167,1.358,1.28,1.287,1.28,1.287l5.583-0.539l-1.055-4.742      L92.53,289.674z"></path>
				<g>
					<path class="st16" d="M130.421,284.753c-6.099,2.247-32.97,8.486-32.97,8.486l-1.911-6.714c0,0,29.397-11.77,36.557-14.418       C139.257,269.459,146.278,281.153,130.421,284.753z"></path>
				</g>
				<path class="st9" d="M114.747,272.502h-8.238c-0.234,0-0.444-0.103-0.587-0.265c-0.122-0.138-0.195-0.319-0.195-0.517l0,0      c0-0.26,0.126-0.49,0.321-0.632c0.129-0.094,0.289-0.15,0.461-0.15h8.238c0.189,0,0.362,0.067,0.497,0.178      c0.174,0.143,0.285,0.361,0.285,0.604l0,0c0,0.193-0.07,0.37-0.186,0.507C115.199,272.395,114.985,272.502,114.747,272.502z"></path>
			</g>
			<path class="st7" d="M115.96,227.711l-0.968,5.252c0,0,2.65-0.711,3.06-3.701C118.461,226.272,115.96,227.711,115.96,227.711z"></path>
			<path class="st5" d="M118.481,227.943c-0.132-0.212-1.336-4.71-1.336-4.71H104.11c0,0-0.212,4.71-0.344,4.922     c-0.132,0.212,1.529,1.402,1.529,1.402s0-0.644,0-1.846c0-1.752,2.357-3.618,2.787-3.618c2.776,0,6.976,4.691,6.976,10.174     c0,1.202,3.039-2.395,3.039-2.395S118.614,228.155,118.481,227.943z"></path>
			<g>
				<path class="st7" d="M103.204,229.262c0.41,2.99,3.06,3.701,3.06,3.701l-0.968-5.252      C105.295,227.711,102.794,226.272,103.204,229.262z"></path>
			</g>
		</g>
		<g>
			<path class="st6" d="M236.811,215.226c-1.114,0.413-3.541,0.097-3.258-0.82c0.177-0.574,2.328-0.488,3.854-1.128     c1.147-0.48,2.996-0.011,2.996-0.011l7.132-5.262l2.153,3.229l-7.471,4.71c0,0-0.513,0.984-1.382,2.045     c-0.414,0.505-4.146,1.235-6.859,0.474c-0.787-0.221-0.332-0.908-0.096-1.072C234.945,216.654,236.249,215.94,236.811,215.226z"></path>
			<g>
				<g>
					<g>
						<linearGradient id="SVGID_2_" gradientUnits="userSpaceOnUse" x1="245.7402" y1="194.718" x2="252.1264" y2="196.6999">
							<stop offset="0" style="stop-color:#C2CEFF"></stop>
							<stop offset="1" style="stop-color:#95AAFF"></stop>
						</linearGradient>
						<path class="st17" d="M257.464,194.723c1.47-5.016-2.145-16.384,4.302-16.431c6.921-0.05,5.473,14.713,2.764,19.148        c-3.732,6.11-14.675,14.834-20.791,18.272l-3.092-3.836C244.277,209.387,256.323,198.614,257.464,194.723z"></path>
					</g>
				</g>
			</g>
			<path class="st5" d="M254.539,155.72c2.231,0.78,8.968,9.091,3.896,14.167c-4.524,4.528-12.116-5.69-12.116-5.69     s-2.141-0.364-2.34-2.315C243.805,160.183,251.22,154.56,254.539,155.72z"></path>
			<g>
				<path class="st6" d="M257.034,167.888c0.823,3.812,3.355,5.573,3.355,5.573s0.172,2.243-2.561,3.805      c-2.733,1.563-4.397-0.406-4.397-0.406l-1.297-4.81C252.134,172.049,254.1,168.378,257.034,167.888z"></path>
			</g>
			<g>
				<path class="st7" d="M251.573,162.493c2.235,3.01,3.26,3.438,3.26,3.438s0.678-2.329,2.338-1.642      c1.508,0.624,1.653,2.719,0.195,4.092c-0.878,5.644-5.587,7.321-6.708,6.498c-3.903-2.865-4.339-10.682-4.339-10.682      L251.573,162.493z"></path>
			</g>
			<g>
				<path class="st5" d="M252.112,171.768c2.792-1.846-0.539-9.275-0.539-9.275l1.361-0.104l1.899,3.543      c0,0,2.739,4.623,1.582,6.622c-1.157,1.999-4.107,3.327-5.329,3.659c-0.646,0.176-1.46,0.111-1.805-0.646      c-0.594-1.307-1.13-3.93-1.13-3.93C249.451,170.735,250.015,173.154,252.112,171.768z"></path>
			</g>
			<g>
				<g>
					<linearGradient id="SVGID_3_" gradientUnits="userSpaceOnUse" x1="247.996" y1="196.7273" x2="268.5876" y2="196.7273">
						<stop offset="0" style="stop-color:#C2CEFF"></stop>
						<stop offset="1" style="stop-color:#95AAFF"></stop>
					</linearGradient>
					<path class="st18" d="M248.158,188.409c0.706-5.072,5.273-11.55,5.273-11.55s3.18,0.287,6.958-3.399       c4.955,3.708,8.667,7.918,8.15,22.57c-0.301,8.542-2.069,19.531-1.729,23.963h-17.413c0,0-0.179-5.377,0.102-12.686       C249.925,196.235,247.336,194.311,248.158,188.409z"></path>
				</g>
			</g>
			<g>
				<g>
					<path class="st7" d="M238.292,208.829c1.035-0.694,4.758-1.459,4.758-1.459l7.12-5.278l2.161,3.224l-7.46,4.728       c0,0-0.968,1.132-2.107,2.052c-2.071,1.672-3.28,0.861-4.537-0.491c-0.808,0.542-0.766,4.077-1.264,4.411       C235.636,216.904,235.833,210.477,238.292,208.829z"></path>
				</g>
				<g>
					<path class="st8" d="M227.312,215.139l20.712,2.31c-0.031,0.408-0.387,0.714-0.795,0.683l-20.828-1.576l-10.081-18.294       c-0.198-0.359-0.067-0.809,0.291-1.007L227.312,215.139z"></path>
				</g>
			</g>
			<g>
				<path class="st19" d="M255.978,194.263c0.47-1.603,0.395-3.912,0.315-6.356c-0.034-1.036-0.068-2.107-0.058-3.127      c0.003-0.273,0.222-0.498,0.499-0.489c0.273,0.003,0.492,0.226,0.489,0.499c-0.01,0.999,0.025,2.06,0.058,3.085      c0.082,2.525,0.16,4.911-0.355,6.666c-0.748,2.55-4.071,5.404-7.441,7.859c0,0,0,0,0,0c-0.01-0.197-0.02-0.393-0.032-0.583      c-0.012-0.203-0.025-0.401-0.04-0.595C252.434,198.975,255.35,196.406,255.978,194.263z"></path>
				<path class="st19" d="M263.096,196.862c1.235-2.021,2.375-6.779,2.146-11.242c-0.014-0.268,0.189-0.497,0.455-0.518      c0.004,0,0.009-0.001,0.013-0.001c0.272-0.014,0.505,0.195,0.519,0.468c0.217,4.239-0.767,9.315-2.289,11.808      c-3.22,5.271-8.686,8.218-13.973,11.068c-0.174,0.094-0.343,0.189-0.516,0.282c0-0.003,0-0.006,0-0.008      c0.012-0.376,0.025-0.756,0.039-1.137c0-0.001,0-0.001,0-0.002c0.003-0.001,0.005-0.003,0.008-0.004      C254.669,204.787,260.016,201.905,263.096,196.862z"></path>
			</g>
			<g>
				<g>
					<g>
						<linearGradient id="SVGID_4_" gradientUnits="userSpaceOnUse" x1="243.7376" y1="193.7837" x2="265.7644" y2="193.7837">
							<stop offset="0" style="stop-color:#C2CEFF"></stop>
							<stop offset="1" style="stop-color:#95AAFF"></stop>
						</linearGradient>
						<path class="st20" d="M256.452,194.402c1.47-5.016-2.145-16.384,4.302-16.431c6.921-0.05,5.473,14.713,2.764,19.148        c-3.732,6.11-10.571,9.039-16.688,12.477l-3.092-3.836C247.369,203.271,255.312,198.293,256.452,194.402z"></path>
					</g>
				</g>
			</g>
			<g>
				<g>
					<polygon class="st7" points="248.079,288.392 245.886,290.882 244.288,288.265 244.254,286.176 248.286,286.176      "></polygon>
					<path class="st5" d="M240.822,290.406c1.843-0.811,3.466-2.142,3.466-2.142s1.487,1.414,3.79,0.127       c0,0,1.113,2.114,0.254,4.847c-2.48,0-3.48,0-3.48,0v-0.733c0,0-2.846,0.733-5.692,0.733c-2.846,0-3.362-0.793-3.043-1.24       C236.435,291.551,238.356,291.491,240.822,290.406z"></path>
				</g>
				<g>
					<g>
						<polygon class="st7" points="272.483,288.392 270.29,290.882 268.692,288.265 268.164,286.176 272.196,286.176       "></polygon>
						<path class="st5" d="M265.226,290.406c1.843-0.811,3.466-2.142,3.466-2.142s1.487,1.414,3.79,0.127        c0,0,1.113,2.114,0.254,4.847c-2.48,0-3.48,0-3.48,0v-0.733c0,0-2.846,0.733-5.692,0.733c-2.846,0-3.362-0.793-3.043-1.24        C260.839,291.551,262.76,291.491,265.226,290.406z"></path>
					</g>
					<g>
						<path class="st21" d="M268.984,258.579c1.45,9.006,3.027,18.579,4.385,27.597h-6.322c-2.871-10.731-6.228-19.613-9.307-30.647        c-3.08-11.034-5.092-23.823-6.012-35.535h15.082C269.134,232.758,267.46,245.732,268.984,258.579z"></path>
					</g>
				</g>
				<g>
					<g>
						<path class="st4" d="M249.417,219.994h15.137c1.79,14.309-9.412,24.695-13.614,37.462c-1.682,9.836-1.552,18.798-1.5,28.72        h-6.273c-1.821-12.099-3.506-23.432-1.36-35.126C243.951,239.355,249.417,219.994,249.417,219.994z"></path>
					</g>
				</g>
			</g>
		</g>
		<g>
			<path class="st5" d="M47.523,161.39c-2.12-0.266-0.076-2.541-2.497-4.779c-2.421-2.239-5.416-1.336-6.678,0.385     c-1.42,1.937-4.247,0.537-6.263,2.527c-1.85,1.826-1.477,4.177-0.823,6.64c0.865,3.259,6.196,6.71,6.47,6.495     c-0.179-0.428,8.271-7.672,8.271-7.672c0.363,0.068,0.734,0.115,1.113,0.124C50.639,165.193,50.344,161.743,47.523,161.39z"></path>
			<g>
				<path class="st6" d="M35.53,167.888c-0.823,3.812-3.355,5.573-3.355,5.573s-0.172,2.243,2.562,3.805      c2.733,1.563,4.397-0.406,4.397-0.406l1.297-4.81C40.431,172.049,38.465,168.378,35.53,167.888z"></path>
			</g>
			<g>
				<g>
					<path class="st7" d="M40.626,162.081c-1.923,3.218-2.901,3.746-2.901,3.746s-0.907-2.25-2.49-1.401       c-1.438,0.771-1.374,2.87,0.214,4.091c1.436,5.528,6.289,6.727,7.322,5.797c2.533-2.281,3.112-6.834,3.232-9.329       C44.709,164.771,42.329,163.912,40.626,162.081z"></path>
				</g>
			</g>
			<g>
				<g>
					<path class="st6" d="M64.971,195.346c-1.245-0.059-4.883,0.963-4.883,0.963l-8.769-1.288l-0.381,3.862l8.808,0.642       c0,0,1.388,0.541,2.826,0.813c2.616,0.495,3.298-0.791,3.767-2.576C66.421,197.32,66.948,195.439,64.971,195.346z"></path>
				</g>
				<g>
					<g>
						<g>
							<path class="st22" d="M42.41,191.695c-3.759-3.632-6.243-15.299-11.868-12.15c-6.039,3.382,2.524,15.493,7.073,18.007         c6.267,3.463,13.659,2.624,20.675,2.585l0.789-4.864C54.692,194.908,45.327,194.513,42.41,191.695z"></path>
						</g>
					</g>
				</g>
				<g>
					<g>
						<path class="st23" d="M44.406,188.409c-0.706-5.072-5.273-11.55-5.273-11.55s-3.18,0.287-6.958-3.399        c-4.955,3.708-8.667,7.918-8.15,22.57c0.301,8.542,2.069,19.531,1.73,23.963c3.984,0.305,15.599-0.137,17.393,0        c0,0,0.199-5.377-0.083-12.686C42.639,196.235,45.228,194.311,44.406,188.409z"></path>
					</g>
				</g>
				<g>
					
						<rect x="65.175" y="188.821" transform="matrix(0.9177 0.3972 -0.3972 0.9177 82.2429 -10.1954)" class="st10" width="1.119" height="9.248"></rect>
					<g>
						<path class="st7" d="M64.794,194.305c-1.245-0.059-4.883,0.963-4.883,0.963l-8.769-1.288l-0.381,3.862l8.808,0.642        c0,0,1.388,0.541,2.826,0.813c2.616,0.495,3.298-0.791,3.767-2.576C66.244,196.279,66.771,194.398,64.794,194.305z"></path>
					</g>
					<g>
						<path class="st22" d="M37.677,196.08c-2.171-1.2-5.719-5.056-7.664-9.193c-0.116-0.247-0.411-0.354-0.657-0.237        c-0.247,0.116-0.353,0.41-0.237,0.657c1.842,3.918,5.391,8.151,8.08,9.637c1.966,1.086,4.038,1.755,6.167,2.164        c0.044-0.341,0.09-0.668,0.137-0.984C41.481,197.731,39.521,197.098,37.677,196.08z"></path>
						<path class="st22" d="M39.158,184.932c-0.773-1.467-1.572-2.983-2.436-4.246c-0.153-0.225-0.461-0.282-0.686-0.129        c-0.225,0.154-0.283,0.461-0.129,0.686c0.832,1.216,1.618,2.707,2.378,4.149c1.178,2.235,2.291,4.346,3.606,5.617        c0.627,0.606,1.515,1.102,2.568,1.513c0.039-0.338,0.069-0.679,0.087-1.027c-0.811-0.339-1.489-0.734-1.969-1.197        C41.375,189.138,40.298,187.095,39.158,184.932z"></path>
					</g>
					<g>
						<g>
							<g>
								<path class="st23" d="M42.233,190.655c-3.759-3.632-6.243-15.299-11.868-12.15c-6.039,3.382,2.524,15.493,7.073,18.007          c6.267,3.463,13.659,2.624,20.675,2.585l0.789-4.864C54.515,193.868,45.15,193.472,42.233,190.655z"></path>
							</g>
						</g>
					</g>
				</g>
			</g>
			<g>
				<g>
					<polygon class="st7" points="44.486,288.392 46.678,290.882 48.276,288.265 48.31,286.176 44.279,286.176      "></polygon>
					<path class="st5" d="M51.742,290.406c-1.843-0.811-3.466-2.142-3.466-2.142s-1.487,1.414-3.79,0.127       c0,0-1.113,2.114-0.254,4.847c2.48,0,3.48,0,3.48,0v-0.733c0,0,2.846,0.733,5.692,0.733c2.846,0,3.362-0.793,3.043-1.24       C56.13,291.551,54.208,291.491,51.742,290.406z"></path>
				</g>
				<g>
					<g>
						<polygon class="st7" points="20.082,288.392 22.274,290.882 23.872,288.265 24.4,286.176 20.369,286.176       "></polygon>
						<path class="st5" d="M27.338,290.406c-1.843-0.811-3.466-2.142-3.466-2.142s-1.487,1.414-3.79,0.127        c0,0-1.113,2.114-0.254,4.847c2.48,0,3.48,0,3.48,0v-0.733c0,0,2.846,0.733,5.692,0.733c2.846,0,3.362-0.793,3.043-1.24        C31.726,291.551,29.804,291.491,27.338,290.406z"></path>
					</g>
					<g>
						<path class="st21" d="M23.581,258.579c-1.45,9.006-3.027,18.579-4.385,27.597h6.322c2.871-10.731,6.228-19.613,9.307-30.647        c3.08-11.034,5.092-23.823,6.012-35.535H25.755C23.431,232.758,25.105,245.732,23.581,258.579z"></path>
					</g>
				</g>
				<g>
					<g>
						<path class="st4" d="M43.148,219.994H28.011c-1.79,14.309,9.412,24.695,13.614,37.462c1.682,9.836,1.552,18.798,1.5,28.72        h6.273c1.821-12.099,3.506-23.432,1.36-35.126C48.613,239.355,43.148,219.994,43.148,219.994z"></path>
					</g>
				</g>
			</g>
		</g>
	</g>
</g>
</svg>