<svg xmlns="http://www.w3.org/2000/svg" xmlns:xlink="http://www.w3.org/1999/xlink" id="Layer_1" x="0px" y="0px" width="264.262px" height="242.108px" viewBox="0 0 264.262 242.108" style="enable-background:new 0 0 264.262 242.108;" xml:space="preserve">
<style type="text/css">
	.st0{fill:#1A47B6;}
	.st1{fill:#9FA5FD;}
	.st2{fill:#BBD070;}
	.st3{fill:#8992E8;}
	.st4{fill:#868FE2;}
	.st5{fill:#DFEAF0;}
	.st6{fill:#E2D2CA;}
	.st7{fill:#706865;}
	.st8{fill:#CCBDB7;}
	.st9{fill:#4667A8;}
	.st10{fill:#B59074;}
	.st11{fill:url(#SVGID_1_);}
	.st12{fill:#EAD8CF;}
	.st13{fill:#DA9B5B;}
	.st14{fill:#424773;}
	.st15{fill:#292C47;}
	.st16{fill:#EEA886;}
	.st17{fill:#3A3F47;}
	.st18{fill:#323657;}
	.st19{fill:#918783;}
	.st20{fill:#5E5854;}
	.st21{fill:#BFB2AC;}
	.st22{fill:#5F8BE3;}
	.st23{fill:#F5F7FF;}
	.st24{fill:#2C4069;}
	.st25{fill:url(#SVGID_2_);}
	.st26{fill:#0E1E2B;}
	.st27{fill:#595C59;}
	.st28{fill:#EDDAD3;}
	.st29{fill:#1D3B54;}
	.st30{fill:#D6C5BE;}
	.st31{fill:#252E3B;}
	.st32{fill:#FAE6DE;}
	.st33{fill:#A77860;}
	.st34{fill:#27356E;}
	.st35{fill:#DB9C7C;}
	.st36{fill:url(#SVGID_3_);}
	.st37{fill:#202338;}
	.st38{fill:#81807E;}
	.st39{fill:#D8D5E0;}
	.st40{fill:#5D676C;}
	.st41{fill:#7F827F;}
	.st42{fill:#B4B1BA;}
	.st43{fill:url(#SVGID_4_);}
	.st44{fill:url(#SVGID_5_);}
	.st45{fill:url(#SVGID_6_);}
	.st46{fill:#EAE6F2;}
	.st47{fill:url(#SVGID_7_);}
	.st48{fill:#FFB91F;}
	.st49{fill:#FFFFFF;}
	.st50{fill:#F8BB66;}
	.st51{fill:#F89829;}
	.st52{fill:#F8C681;}
	.st53{fill:#F8F8F8;}
	.st54{fill:#1C264F;}
</style>
<g>
	<g>
		<g>
			<path class="st0" d="M141.857,215.044h7.741c32.346,0,58.567-26.221,58.567-58.567v-48.083c0-32.346-26.221-58.567-58.567-58.567     h-7.742c-32.346,0-58.567,26.221-58.567,58.567v48.082C83.29,188.823,109.511,215.044,141.857,215.044z"></path>
		</g>
		<g>
			<g>
				<g>
					<path class="st1" d="M182.061,114.43l-0.087-0.38c0.08-0.018,8.163-1.859,18.195-3.274c9.266-1.307,22.138-2.507,30.843-0.803       l0.016,0.004c0.042,0.012,4.322,1.203,10.474,0.407c5.674-0.734,14.149-3.358,22.298-11.691l0.278,0.272       c-3.635,3.717-7.638,6.628-11.899,8.654c-3.411,1.622-6.993,2.683-10.647,3.153c-6.091,0.784-10.38-0.358-10.603-0.419       C214.36,107.116,182.382,114.357,182.061,114.43z"></path>
				</g>
				<g>
					<path class="st1" d="M237.191,123.67c-2.815,0-5.467-0.828-7.803-2.455c-2.899-2.019-5.077-5.101-6.133-8.68       c-1.739-5.889-0.183-13.044,7.212-15.75c7.313-2.676,11.834-0.7,16.207,1.212c4.761,2.081,9.258,4.047,17.19,0.654l0.399-0.171       l-0.138,0.412c-0.017,0.052-1.766,5.216-5.516,10.769c-2.204,3.264-4.658,6.024-7.295,8.203       c-3.302,2.729-6.9,4.549-10.695,5.411C239.456,123.539,238.31,123.67,237.191,123.67z M237.216,95.877       c-1.947,0-4.116,0.359-6.616,1.274c-7.158,2.619-8.659,9.559-6.972,15.274c1.967,6.664,8.406,12.4,16.904,10.47       c8.461-1.922,14.322-8.372,17.748-13.444c3.112-4.608,4.836-8.944,5.327-10.27c-7.84,3.217-12.541,1.161-17.09-0.827       C243.715,97.129,240.851,95.877,237.216,95.877z"></path>
				</g>
				<g>
					
						<rect x="235.189" y="104.706" transform="matrix(0.5598 -0.8286 0.8286 0.5598 7.7565 245.9679)" class="st1" width="0.39" height="21.955"></rect>
				</g>
				<g>
					
						<rect x="230.225" y="103.948" transform="matrix(0.7042 -0.71 0.71 0.7042 -3.1676 200.6823)" class="st1" width="18.035" height="0.39"></rect>
				</g>
			</g>
			<g>
				<g>
					<path class="st1" d="M221.546,138.755l0.171-1.095c0.029-0.187,0.655-4.594-4.425-6.501c-3.085-1.158-8.612-4.371-9.752-9.062       c-0.675-2.779,0.278-5.622,2.833-8.449c2.63-2.91,6.07-3.315,9.203-1.083c2.743,1.954,4.79,5.663,5.475,9.922       c0.563,3.493,0.503,8.983-2.972,15.298L221.546,138.755z M215.482,111.537c-1.725,0-3.397,0.799-4.82,2.373       c-2.463,2.726-3.387,5.45-2.744,8.096c1.102,4.534,6.496,7.658,9.51,8.79c4,1.502,4.64,4.568,4.701,6.066       c5.642-10.981,1.752-20.75-2.78-23.979C218.087,111.982,216.77,111.537,215.482,111.537z"></path>
				</g>
				<g>
					<path class="st1" d="M222.096,137.747l-0.373-0.112c0.009-0.03,0.885-3.003,0.609-7.008c-0.255-3.688-1.568-9.033-6.38-13.556       c-4.212-3.96-7.648-4.32-11.627-4.737c-4.747-0.498-10.128-1.062-17.97-8.22l0.263-0.288c7.748,7.071,13.061,7.629,17.748,8.12       c3.88,0.407,7.546,0.792,11.853,4.841c4.908,4.614,6.245,10.066,6.503,13.828C223,134.688,222.105,137.717,222.096,137.747z"></path>
				</g>
				<g>
					
						<rect x="205.598" y="120.446" transform="matrix(0.1971 -0.9804 0.9804 0.1971 51.7774 304.505)" class="st1" width="12.405" height="0.39"></rect>
				</g>
				<g>
					
						<rect x="220.072" y="114.651" transform="matrix(0.02 -0.9998 0.9998 0.02 97.9788 335.7808)" class="st1" width="0.39" height="6.523"></rect>
				</g>
				<g>
					
						<rect x="214.47" y="126.551" transform="matrix(0.2122 -0.9772 0.9772 0.2122 48.7775 314.0004)" class="st1" width="9.357" height="0.39"></rect>
				</g>
				<g>
					
						<rect x="223.254" y="128.234" transform="matrix(0.6515 -0.7587 0.7587 0.6515 -20.5425 214.7286)" class="st1" width="0.39" height="2.98"></rect>
				</g>
			</g>
			<g>
				<g>
					<g>
						<g>
							<path class="st2" d="M181.856,64.991c0,0,20.942,17.33,12.396,32.548c-8.546,15.218-13.903,2.78-13.903,2.78         s-6.327,2.399,2.019-16.212C186.302,75.335,181.856,64.991,181.856,64.991z"></path>
						</g>
					</g>
				</g>
				<g>
					<g>
						<g>
							<path class="st1" d="M216.77,42.203c0,0,16.23,16.593-2.137,42.407c-18.367,25.814-14.361,38.506-14.361,38.506         S169.397,82.598,216.77,42.203z"></path>
						</g>
					</g>
				</g>
				<g>
					<g>
						<g>
							<path class="st3" d="M194.623,115.653c-9.205,2.536-2.922-24.729,10.504-33.978c13.426-9.249,25.896-10.924,33.184-19.44         C238.311,62.235,239.953,103.164,194.623,115.653z"></path>
						</g>
					</g>
				</g>
			</g>
		</g>
		<path class="st4" d="M228.149,26.544c-27.232,1.76-27.75,32.72-27.75,32.72v147.448H91.056V59.264c0,0-0.124-30.856,27.887-32.72    H228.149z"></path>
		<rect x="105.414" y="65.063" class="st5" width="75.105" height="6.627"></rect>
		<rect x="105.414" y="80.387" class="st5" width="64.129" height="4.694"></rect>
		<rect x="105.414" y="92.778" class="st5" width="32.237" height="6.972"></rect>
		<rect x="147.177" y="92.778" class="st5" width="33.342" height="6.972"></rect>
		<rect x="105.414" y="106.205" class="st5" width="51.358" height="4.97"></rect>
		<rect x="105.414" y="118.63" class="st5" width="57.864" height="2.761"></rect>
		<rect x="105.414" y="131.055" class="st5" width="69.582" height="2.761"></rect>
		<g>
			<path class="st5" d="M137.871,158.888h-32.678V143.26h32.678V158.888z M105.634,158.447h31.796v-14.746h-31.796V158.447z"></path>
		</g>
		<rect x="145.727" y="143.481" class="st5" width="29.269" height="3.59"></rect>
		<rect x="145.727" y="151.074" class="st5" width="20.745" height="3.59"></rect>
		<rect x="105.414" y="168.332" class="st5" width="57.347" height="2.761"></rect>
		<rect x="105.414" y="180.757" class="st5" width="32.962" height="2.761"></rect>
		<g>
			<path class="st0" d="M189.264,188.054h-20.605v-20.605h20.605V188.054z M170.591,186.123h16.741v-16.741h-16.741V186.123z"></path>
		</g>
		<g>
			<polygon class="st0" points="179.285,182.065 172.041,175.236 174.25,172.893 179.431,177.778 190.761,168.468 192.806,170.956         "></polygon>
		</g>
		<g>
			<g>
				
					<rect x="218.61" y="190.465" transform="matrix(-1 -1.224647e-16 1.224647e-16 -1 454.4112 381.9509)" class="st6" width="17.192" height="1.021"></rect>
			</g>
			<g>
				<rect x="231.991" y="194.142" class="st7" width="1.506" height="46.412"></rect>
			</g>
			<g>
				
					<rect x="209.35" y="190.176" transform="matrix(-1 -1.224647e-16 1.224647e-16 -1 430.6506 381.8092)" class="st8" width="11.95" height="1.457"></rect>
			</g>
			<g>
				
					<rect x="213.063" y="177.741" transform="matrix(-1 -1.224647e-16 1.224647e-16 -1 430.6504 369.2269)" class="st9" width="4.525" height="13.745"></rect>
			</g>
			<g>
				
					<rect x="175.758" y="191.503" transform="matrix(-1 -1.224647e-16 1.224647e-16 -1 417.7266 385.6443)" class="st10" width="66.21" height="2.639"></rect>
			</g>
			<g>
				<linearGradient id="SVGID_1_" gradientUnits="userSpaceOnUse" x1="247.3606" y1="183.0472" x2="260.0535" y2="183.0472">
					<stop offset="0" style="stop-color:#C2CEFF"></stop>
					<stop offset="1" style="stop-color:#95AAFF"></stop>
				</linearGradient>
				<path class="st11" d="M254.676,175.53c0,0,0.724,10.155-1.26,11.371c-1.243,0.761-6.199,3.329-6.052,3.811      c0.147,0.482,2.798,4.285,2.798,4.285s9.52-6.269,9.827-8.245c0.3-1.93-0.469-14.869-1.777-15.465      c-0.98-0.446-1.497-0.077-2.733,0.84C253.746,173.414,254.676,175.53,254.676,175.53z"></path>
			</g>
			<g>
				<g>
					<g>
						<path class="st12" d="M237.326,178.43l-0.839-0.31c0,0,1.046-2.456,1.503-2.396c0.526,0.069,1.183,0.242,1.183,0.242        L237.326,178.43z"></path>
					</g>
				</g>
			</g>
			<g>
				<g>
					<g>
						<path class="st13" d="M237.134,178.854c0.107-0.08,1.783-3.296,1.783-3.296l3.582,0.487l-1.935,3.809L237.134,178.854z"></path>
					</g>
				</g>
			</g>
			<g>
				<g>
					<g>
						<path class="st14" d="M242.963,234.217c0,0,0.296,2.055,0.333,2.363c0.037,0.309,3.293-0.182,3.293-0.182l0.264-2.446        C246.853,233.952,243.37,233.927,242.963,234.217z"></path>
					</g>
				</g>
			</g>
			<g>
				<g>
					<g>
						<path class="st15" d="M243.262,236.319c0,0-1.032,1.238-2.029,1.778c-0.998,0.54-2.566,0.753-3.156,1.312        c-0.426,0.403-1.551,2.139,2.593,2.104c4.144-0.035,6.142,0.245,6.586-0.42c0.444-0.666-0.643-4.913-0.643-4.913        S245.632,236.533,243.262,236.319z"></path>
					</g>
				</g>
			</g>
			<g>
				<g>
					<g>
						<path class="st14" d="M222.101,234.236c0,0,0.296,2.055,0.333,2.363c0.037,0.309,3.293-0.182,3.293-0.182l0.264-2.446        C225.991,233.972,222.508,233.946,222.101,234.236z"></path>
					</g>
				</g>
			</g>
			<g>
				<g>
					<g>
						<path class="st15" d="M222.4,236.338c0,0-1.032,1.238-2.03,1.778c-0.998,0.54-4.67,0.983-5.26,1.542        c-0.426,0.403-1.134,2.027,4.697,1.875c4.143-0.108,6.142,0.245,6.586-0.42c0.444-0.666-0.642-4.913-0.642-4.913        S224.827,236.576,222.4,236.338z"></path>
					</g>
				</g>
			</g>
			<g>
				<g>
					<g>
						<path class="st15" d="M253.466,198.722c0,0-11.838,2.003-14.512,2.423c-2.674,0.42-17.171,4.027-18.984,5.127        c-1.443,0.875,0.757,21.89,1.271,29.908h5.71l0.414-24.051c6.852,0.171,11.742-1.603,16.732-0.845        c4.99,0.758,9.15,1.835,12.321-2.418C256.417,208.866,256.535,199.651,253.466,198.722z"></path>
					</g>
				</g>
			</g>
			<g>
				<g>
					<g>
						<path class="st15" d="M241.797,236.199l5.565-0.344l0.542-23.726c2.95,0.074,3.961-0.113,6.348-0.403l4.493-10.443        c-3.937,0.787-16.553,3.969-18.236,4.989C239.067,207.147,241.283,228.181,241.797,236.199z"></path>
					</g>
				</g>
			</g>
			<g>
				<g>
					<g>
						<path class="st16" d="M248.016,154.349c0,0-4.34-1.199-5.995,2.169c-1.656,3.369-0.905,9.755,1.282,10.356        c2.187,0.601,5.332-0.091,6.24-2.188c0.908-2.097,1.632-5.076,1.415-7.005C250.741,155.752,249.169,154.81,248.016,154.349z"></path>
					</g>
				</g>
			</g>
			<g>
				<g>
					<g>
						<path class="st16" d="M244.437,166.202c0,0,0.048,2.562-0.235,3.108c-0.282,0.546,6.043,0.409,6.043,0.409        s-0.997-3.077-0.431-5.698C250.373,161.428,244.437,166.202,244.437,166.202z"></path>
					</g>
				</g>
			</g>
			<g>
				<g>
					<g>
						<path class="st17" d="M250.154,163.052c0,0-0.338,0.688-1.975,0.576c-1.637-0.111-3.797-2.086-4.492-2.263        c-0.695-0.177-0.736-0.572-0.736-0.572l-0.368,0.654l-0.712,0.108c0,0,0.484-1.979-0.57-2.677        c-1.055-0.697,0.475-6.311,5.814-4.957c0,0,4.074,0.746,4.129,3.021C251.298,159.219,250.945,161.847,250.154,163.052z"></path>
					</g>
				</g>
			</g>
			<g>
				<g>
					<g>
						<path class="st6" d="M243.87,169.245c0,0,0.018-1.043,0.491-1.144c0.473-0.1,4.972-0.719,5.553-0.491l0.249,1.378        C250.162,168.988,249.043,169.677,243.87,169.245z"></path>
					</g>
				</g>
			</g>
			<g>
				<g>
					<g>
						<path class="st16" d="M242.568,160.327c0.121-0.855,1.094-1.838,1.651-0.505c0.557,1.332-0.376,3.272-1.001,3.168        C242.593,162.886,242.403,161.488,242.568,160.327z"></path>
					</g>
				</g>
			</g>
			<g>
				<g>
					<g>
						<path class="st18" d="M225.025,181.575c0.002-0.001,0.005-0.001,0.008-0.001C225.001,181.588,224.996,181.59,225.025,181.575z        "></path>
					</g>
				</g>
			</g>
			<g>
				<g>
					<g>
						<path class="st17" d="M249.282,154.96c0,0,5.291-0.249,0.923,8.011L249.282,154.96z"></path>
					</g>
				</g>
			</g>
			<g>
				<g>
					<polygon class="st19" points="261.071,239.014 260.677,240.121 244.047,234.968 244.844,232.726      "></polygon>
				</g>
			</g>
			<g>
				<g>
					
						<rect x="243.476" y="216.098" transform="matrix(-1 -1.224647e-16 1.224647e-16 -1 488.8426 450.2765)" class="st19" width="1.89" height="18.081"></rect>
				</g>
			</g>
			<g>
				<g>
					
						<rect x="238.847" y="215.137" transform="matrix(-1 -1.224647e-16 1.224647e-16 -1 488.8423 431.3392)" class="st20" width="11.149" height="1.065"></rect>
				</g>
			</g>
			<g>
				<g>
					<polygon class="st19" points="227.625,239.014 228.019,240.121 244.65,234.968 243.919,232.585      "></polygon>
				</g>
			</g>
			<g>
				<g>
					<polygon class="st19" points="239.343,240.002 239.343,241.29 244.65,234.968 243.919,232.585      "></polygon>
				</g>
			</g>
			<g>
				<g>
					<path class="st21" d="M226.071,240.554c0,0.858,0.696,1.554,1.554,1.554s1.554-0.696,1.554-1.554s-0.696-1.554-1.554-1.554       S226.071,239.695,226.071,240.554z"></path>
				</g>
			</g>
			<g>
				<g>
					<circle class="st21" cx="240.765" cy="240.554" r="1.554"></circle>
				</g>
			</g>
			<g>
				<g>
					
						<ellipse transform="matrix(0.9732 -0.2298 0.2298 0.9732 -48.2838 66.4166)" class="st21" cx="261.071" cy="240.554" rx="1.554" ry="1.554"></ellipse>
				</g>
			</g>
			<g>
				<path class="st6" d="M233.035,215.137h22.627c1.045,0,1.893-0.847,1.893-1.893v-0.25c0-1.045-0.847-1.893-1.893-1.893h-22.627      c-1.045,0-1.893,0.847-1.893,1.893v0.25C231.142,214.289,231.989,215.137,233.035,215.137z"></path>
			</g>
			<g>
				
					<rect x="184.229" y="194.142" transform="matrix(-1 -1.224647e-16 1.224647e-16 -1 369.9651 434.6953)" class="st7" width="1.506" height="46.412"></rect>
			</g>
			<g>
				<polygon class="st22" points="195.789,184.362 234.863,184.362 234.863,184.362 234.863,156.797 195.789,156.797       195.788,156.798 195.788,184.361     "></polygon>
			</g>
			<g>
				
					<rect x="197.318" y="158.286" transform="matrix(-1 -1.224647e-16 1.224647e-16 -1 430.6504 338.3288)" class="st23" width="36.014" height="21.756"></rect>
			</g>
			<g>
				<path class="st24" d="M207.236,191.538v-0.491c0,0,0.69-3.051,5.568-3.051c4.878,0,4.779,3.542,4.779,3.542H207.236z"></path>
			</g>
			<g>
				<g>
					<path class="st16" d="M217.642,188.45c0,0-1.06-0.082-1.448-0.317c-0.388-0.234-2.711-1.796-3.257-1.546       s-4.177,1.362-4.05,1.893c0.126,0.531,0.462,0.48,0.718,0.386c0.256-0.094,2.893-0.647,3.126-0.554c0,0-2.59,0.945-2.6,1.634       c-0.01,0.689,0.542,0.857,0.788,1.118c0.246,0.261,0.54,0.908,1.208,0.958c0.667,0.05,3.924-1.084,4.594-1.135       c0.671-0.052,1.911,0.041,1.996-0.068C218.8,190.71,217.642,188.45,217.642,188.45z"></path>
				</g>
			</g>
			<g>
				<g>
					<g>
						<linearGradient id="SVGID_2_" gradientUnits="userSpaceOnUse" x1="216.5464" y1="189.2915" x2="259.0208" y2="189.2915">
							<stop offset="0" style="stop-color:#C2CEFF"></stop>
							<stop offset="1" style="stop-color:#95AAFF"></stop>
						</linearGradient>
						<path class="st25" d="M236.934,170.691c3.379-0.594,6.935-1.446,6.935-1.446l6.293-0.256c0,0,5.775,1.271,8.05,2.299        c0.216,0.097,0.217,5.152,0.809,6.478l-1.886,3.978c0,0-1.089,7.881-1.315,11.385c-0.104,1.609,0.293,15.549,0.293,15.549        s-0.565,0.279-4.86,0.752c-4.295,0.473-15.025-0.171-15.093-0.678c-0.068-0.507,2.078-18.888,2.173-19.84        c0.146-1.461-0.422-8.211-0.422-8.211c-0.809,1.087-2.872,5.995-5.022,8.331c-1.265,1.374-7.528,2.216-8.708,2.255        c-2.57,0.086-7.257,0.597-7.394,0.347c-0.109-0.15-0.408-4.161-0.115-4.259c0.257-0.086,8.962-0.587,11.192-1.77        c0.816-0.433,3.255-5.751,3.255-5.751S235.07,171.529,236.934,170.691z"></path>
					</g>
				</g>
			</g>
			<g>
				<path class="st6" d="M254.053,208.275h1.13c4.718,0,8.542-3.825,8.542-8.542v-8.142c0-4.718-3.825-8.543-8.543-8.543h-1.129      c-4.718,0-8.543,3.825-8.543,8.543v8.142C245.51,204.45,249.335,208.275,254.053,208.275z"></path>
			</g>
			<g>
				<path class="st6" d="M248.738,214.132c2.685,0,4.863-0.902,6.474-2.681c3.641-4.02,2.987-11.087,2.957-11.386      c-0.055-0.557-0.553-0.964-1.108-0.909c-0.557,0.055-0.963,0.551-0.909,1.108c0.008,0.081,0.588,6.486-2.446,9.83      c-1.227,1.353-2.853,2.01-4.968,2.01c-0.56,0-1.013,0.454-1.013,1.013C247.724,213.679,248.178,214.132,248.738,214.132z"></path>
			</g>
		</g>
		<g>
			<g>
				<g>
					<g>
						<path class="st16" d="M98.743,183.638c0,0,0.448,0.428,0.603,0.828c0.122,0.316,0.532,0.735,0.726,0.974        c0.194,0.239,0.917,1.358,1.02,1.669c0.042,0.127-0.014,1.007,0.101,1.256c0.114,0.25,0.409,0.728,0.186,0.818        c-0.223,0.09-0.607-0.269-0.607-0.269s0.09,0.234-0.081,0.372c-0.332,0.269-0.579,0.161-0.579,0.161s-0.066,0.296-0.234,0.374        c-0.369,0.171-0.605,0.06-0.605,0.06s-0.13,0.188-0.402,0.247c-0.347,0.076-0.578-0.188-0.578-0.188s-0.412,0.193-0.597,0.019        c-0.185-0.174-0.225-0.397-0.33-0.57c-0.105-0.173-0.541-1.854-0.317-3.194c0.225-1.339-0.821-2.344-0.821-2.344        L98.743,183.638z"></path>
					</g>
				</g>
			</g>
			<g>
				<path class="st26" d="M102.44,193.936h-5.783c-0.587,0-1.065-0.478-1.065-1.065v-3.647c0-0.587,0.478-1.065,1.065-1.065h5.783      c0.587,0,1.065,0.478,1.065,1.065v3.647C103.505,193.459,103.027,193.936,102.44,193.936z M96.657,188.874      c-0.193,0-0.35,0.157-0.35,0.35v3.647c0,0.193,0.157,0.35,0.35,0.35h5.783c0.193,0,0.35-0.157,0.35-0.35v-3.647      c0-0.193-0.157-0.35-0.35-0.35H96.657z"></path>
			</g>
			<g>
				<rect x="88.7" y="192.371" class="st27" width="21.697" height="15.545"></rect>
			</g>
			<g>
				<path class="st16" d="M90.333,150.774c0,0-1.111,0.016-1.585,3.339c-0.474,3.323,0.424,4.712,0.531,6.095      c0.107,1.383,1.729,10.314,1.773,10.709c0.044,0.395,0.262,5.148,0.894,6.409c0.633,1.261,5.282,8.411,5.345,8.768      c0.062,0.357,2.258-1.245,2.258-1.245s-3.653-7.647-3.865-8.519c-0.212-0.873-1.682-5.328-1.45-6.688      c0.232-1.36-0.651-8.862-0.566-9.697C93.754,159.109,92.462,151.281,90.333,150.774z"></path>
			</g>
			<g>
				<path class="st0" d="M90.333,150.774c0,0-1.111,0.016-1.585,3.339c-0.474,3.323-0.046,4.52,0.241,5.96      c0.271,1.36,1.193,9.682,1.237,10.077c0.044,0.395,1.147,5.412,1.721,7.176c0.436,1.342,4.583,8.368,4.645,8.725      c0.062,0.357,3.223-1.642,3.223-1.642s-4.054-7.909-4.266-8.782c-0.212-0.873-0.898-3.893-0.92-5.273      c-0.026-1.621-1.045-9.576-0.96-10.411C93.754,159.109,93.434,151.91,90.333,150.774z"></path>
			</g>
			<path class="st28" d="M81.035,228.277c0,0,1.935,2.874,2.715,3.567c0,0,1.795,0.628,1.907,1.849     c0.073,0.798,0.003,2.08-2.048,2.138c-2.051,0.058-3.367-0.658-3.743-1.9c-0.376-1.242-1.084-1.797-1.084-1.797v2.6H78.32     c0,0-0.116-2.513-0.144-2.975c-0.029-0.462-0.332-2.239,0.643-3.026C79.793,227.945,81.035,228.277,81.035,228.277z"></path>
			<path class="st28" d="M94.164,225.98c0,0,0.335,0.792,0.968,1.618c0.464,0.605,1.907,3.091,2.542,3.264     c0.636,0.173,2.6,0.52,2.773,1.618c0.173,1.098,0.26,1.878-1.675,1.964c-1.935,0.087-3.206,0.202-4.131-1.155     c-0.924-1.358-2.398-2.34-2.398-2.34v3.542h-0.751c0,0-0.347-3.687-0.549-3.947c-0.202-0.26-0.722-3.091,1.069-4.564     C93.803,224.507,94.164,225.98,94.164,225.98z"></path>
			<path class="st16" d="M79.735,172.801c0,0-2.444,3.177-3.107,6.947c-0.663,3.77,0.391,16.422,0.363,18.285     c-0.029,1.863-1.762,6.499-1.415,10.009c0.347,3.51,3.243,20.689,3.243,20.689l2.217-0.455c0,0-0.217-17.808,0-19.282     c0.217-1.473,0.652-6.843,0.738-7.45c0.087-0.606,5.501-16.535,5.501-19.253C87.275,179.575,85.628,168.367,79.735,172.801z"></path>
			<path class="st16" d="M92.012,174.043c0,0,4.015,15.324,4.492,17.447c0.477,2.123,1.167,3.874,1.167,4.776     c0,2.092-0.777,5.45-0.777,5.45l-2.73,24.264h-2.152c0,0-1.358-14.169-1.574-17.028c-0.217-2.86,1.56-7.279,1.127-8.492     c-0.433-1.213-6.976-15.208-6.976-15.208S79.634,169.595,92.012,174.043z"></path>
			<path class="st16" d="M84.084,231.991c0,0-1.686,0.866-3.217-0.278c-1.531-1.144-2.048-2.982-2.048-2.982l2.217-0.455     L84.084,231.991z"></path>
			<path class="st16" d="M97.674,230.862c0,0-1.733,0.433-2.398,0c-0.664-0.433-2.923-4.251-3.671-4.48c0,0,0.725-1.471,2.559-0.402     C94.164,225.98,97.182,230.227,97.674,230.862z"></path>
			<path class="st29" d="M97.151,193.934c0,0-7.377,4.342-21.205,4.342c0,0-0.783-16.038,1.227-20.549     c2.01-4.512,15.356-1.706,15.356-1.706S96.676,190.617,97.151,193.934z"></path>
			<g>
				<path class="st28" d="M87.072,149.576c0,0,2.144,1.012,2.889,1.161c0.745,0.149,3.633,3.901,4.14,5.271      c0.506,1.37,0,3.425-1.042,5.837c-1.042,2.412-0.06,3.217-0.536,5.629c-0.477,2.412-0.893,7.52-0.804,8.86      c0.089,1.34-12.046,1.593-14.816-0.849c0,0,2.784-4.169,3.141-4.765c0.357-0.596,0.06-3.842-0.268-4.676      c-0.328-0.834-2.508-7.925-2.508-7.925s-1.784-5.446-0.172-6.698c1.4-1.087,5.215-1.475,5.9-1.713      C83.679,149.472,85.672,149.368,87.072,149.576z"></path>
			</g>
			<g>
				<path class="st30" d="M87.757,154.356l1.303-1.526l-1.131-4.017C87.928,148.813,87.548,151.05,87.757,154.356z"></path>
			</g>
			<g>
				<path class="st16" d="M84.366,134.358c1.274-0.448,5.956-1.549,7.058,4.437c1.102,5.986-2.204,10.245-5.242,9.113      c-3.038-1.132-4.914-5.271-5.093-8.428C80.911,136.323,82.757,134.924,84.366,134.358z"></path>
			</g>
			<g>
				<path class="st31" d="M91.424,138.795c0,0,0.229-5.122-4.863-5.301c-5.093-0.179-6.463,4.014-6.046,7.07      c0.417,3.056,2.525,4.668,2.525,4.668s-0.183-2.472,0.805-3.114c0.988-0.642,4.949-1.922,6.676-4.901      C90.521,137.217,91.322,138.156,91.424,138.795z"></path>
			</g>
			<g>
				<path class="st31" d="M85.074,138.253c-0.671,2.04-2.66,3.218-4.443,2.632c-1.783-0.587-2.685-2.716-2.014-4.755      c0.671-2.04,2.66-3.218,4.443-2.631C84.844,134.084,85.745,136.213,85.074,138.253z"></path>
			</g>
			<g>
				<path class="st16" d="M88.095,147.102c0,0-0.428,3.934-0.338,5.214c0,0-2.228,2.233-4.762-2.606c0,0,1.066-1.994,0.264-4.712      C82.456,142.28,88.095,147.102,88.095,147.102z"></path>
			</g>
			<g>
				<polygon class="st16" points="87.757,152.316 87.757,154.356 85.192,152.44     "></polygon>
			</g>
			<g>
				<polygon class="st30" points="87.757,154.356 86.692,153.038 83.106,149.464 81.946,150.581     "></polygon>
			</g>
			<g>
				<path class="st0" d="M82.608,149.806c0,0,3.01,4.568,3.153,6.578c0.144,2.01-1.119,17.048-2.129,21.882      c-1.011,4.834-8.315-0.545-8.315-0.545s4.908-7.944,3.024-14.305c-1.884-6.361-2.569-8.904-2.569-8.904s0.648-3.542,2.945-4.041      C80.732,150.033,82.608,149.806,82.608,149.806z"></path>
			</g>
			<g>
				<path class="st0" d="M94.331,156.618c0,0,0.51,1.922-1.605,6.168c0,0,0.034,5.434,0.093,7.131      c0.06,1.697,0.462,8.116,0.462,8.116l-2.091,1.225c-0.421,0.247-0.943-0.095-0.884-0.58c0.592-4.885,2.519-23.415-1.643-28.396      l1.67,0.493C90.333,150.774,93.333,153.2,94.331,156.618z"></path>
			</g>
			<g>
				<path class="st16" d="M84.357,141.035c-0.185-0.47-0.804-0.602-1.161-0.333c-0.357,0.268-0.566,1.072,0,2.115      C83.761,143.858,85.756,144.585,84.357,141.035z"></path>
			</g>
			<g>
				<polygon class="st32" points="89.06,152.83 90.701,153.284 87.928,148.813     "></polygon>
			</g>
			<g>
				<polygon class="st32" points="86.692,153.038 85.192,155.004 82.113,149.872 83.106,149.464     "></polygon>
			</g>
			<g>
				<path class="st33" d="M88.007,147.968l-0.074,0.789c0,0-1.771,0.331-4.088-2.495C83.845,146.261,85.488,148.265,88.007,147.968z      "></path>
			</g>
			<g>
				<g>
					<g>
						<path class="st16" d="M97.12,172.05c0,0,1.041,0.671,1.641,0.296c0.51-0.319,1.399-0.363,1.672-0.377        c0.366-0.019,1.468-0.495,1.496-0.034c0.028,0.461-1.779,0.873-2.14,1.035c-0.362,0.162,1.231,0.94,1.41,1.311        c0.179,0.371-1.258,2.936-2.29,2.276c-1.031-0.66-1.697-2.046-1.902-2.126c-0.204-0.08-0.769-0.451-0.769-0.451L97.12,172.05z        "></path>
					</g>
				</g>
			</g>
			<g>
				<path class="st16" d="M77.34,151.186c0,0,1.446-0.359,2.696,0.981c1.251,1.34,1.876,3.544,2.204,4.259      c0.328,0.715,4.467,7.326,4.706,7.475c0.238,0.149,4.445,3.544,6.351,5.36c1.906,1.817,5.621,3.842,5.621,3.842l-1.4,1.966      c0,0-11.287-6.016-12.717-8.22c-1.43-2.204-7.137-8.309-7.137-8.309S74.257,153.406,77.34,151.186z"></path>
			</g>
			<g>
				<g>
					<g>
						<path class="st16" d="M100.994,174.069c0,0,3.023,2.231,3.1,2.548c0.077,0.317-0.054,0.474-0.345,0.277        c-0.291-0.197-2.983-2.071-2.983-2.071s3.134,3.242,3.254,3.488c0.07,0.144-0.165,0.462-0.33,0.372        c-0.166-0.091-3.456-3.126-3.456-3.126s2.921,3.032,2.96,3.268c0.034,0.206-0.255,0.444-0.487,0.235        c-0.232-0.21-3.102-2.871-3.102-2.871s1.987,2.34,1.902,2.559c-0.052,0.134-0.242,0.418-0.736-0.202        c-0.494-0.62-1.813-1.96-1.813-1.96L100.994,174.069z"></path>
					</g>
				</g>
			</g>
			<path class="st34" d="M93.224,161.721c0,0,0.1,6.783-0.314,10.055l-0.184-8.989L93.224,161.721z"></path>
			<g>
				<path class="st0" d="M78.085,150.688c0,0,0.823,0.139,2.074,1.479s1.876,3.544,2.204,4.259s4.467,7.326,4.706,7.475      c0.238,0.149,3.685,2.516,5.591,4.333c1.906,1.817,5.454,3.987,5.454,3.987l-1.82,2.703c0,0-9.954-5.513-11.533-7.613      c-1.686-2.243-7.699-8.827-7.699-8.827S73.164,152.487,78.085,150.688z"></path>
			</g>
			<g>
				<g>
					<path class="st35" d="M100.789,188.744c0,0-0.388-1.51-0.874-1.735c-0.485-0.225-0.376,0.327-0.376,0.327       s-0.099-0.548-0.55-0.517c-0.452,0.031-0.289,0.671-0.289,0.671s-0.188-0.396-0.617-0.203       c-0.429,0.193-0.171,0.694-0.171,0.694s-0.579-0.413-0.719,0.15c-0.235,0.95,0.477,1.846,0.477,1.846s0.225,0.205,0.625-0.009       c0,0,0.463,0.532,0.989-0.039c0,0,0.772,0.202,0.846-0.438C100.131,189.49,101.002,189.596,100.789,188.744z"></path>
				</g>
			</g>
			<path class="st34" d="M84.875,168.899l-3.408-5.498c0,0,2.905,3.431,3.208,3.799c0.303,0.368,0.328,0.395,0.328,0.395     S84.916,168.712,84.875,168.899z"></path>
		</g>
		<g>
			<path class="st16" d="M125.97,181.923c0,0,0.237,1.072,0.652,2.164c0.203,0.533,0.303,4.029,0.282,4.482     c-0.017,0.379-0.269,0.155-0.397-0.095c-0.074-0.143-0.303-1.352-0.526-1.995c-0.188-0.54-0.35-0.741-0.445-0.567     c-0.095,0.175-0.268,2.422-0.062,3.382c0.206,0.96-0.009,3.172-0.514,2.852c-0.505-0.32-1.688-4.32-1.588-5.827     c0.099-1.507,0.638-3.395,0.638-3.395L125.97,181.923z"></path>
			<g>
				<linearGradient id="SVGID_3_" gradientUnits="userSpaceOnUse" x1="122.8381" y1="168.0417" x2="129.6079" y2="168.0417">
					<stop offset="0" style="stop-color:#C2CEFF"></stop>
					<stop offset="1" style="stop-color:#95AAFF"></stop>
				</linearGradient>
				<path class="st36" d="M125.496,183.948c0,0,1.649-10.964,2.086-13.048c0.198-0.944,0.743-3.292,1.088-5.22      c0.114-0.635,0.21-1.289,0.291-1.93c0-0.001,0-0.002,0-0.002c0.324-2.557,0.407-4.89,0.407-4.89s1.43-6.552-2.704-6.956      c0,0-1.108,0.346-1.173,0.801c-0.25,1.751-0.821,5.537-0.845,6.434c-0.02,0.729-1.089,8.08-1.105,8.34      c-0.03,0.505-0.278,3.91-0.379,5.405c-0.236,3.491-0.325,11.298-0.325,11.298L125.496,183.948z"></path>
			</g>
			<g>
				<path class="st37" d="M124.177,230.681c0,0-1.596,1.782-3.216,2.155c-1.62,0.373-2.754,0.849-2.766,1.872      c-0.012,1.022,4.663,1.696,6.517,0.665c2.767-1.538,3.049-1.075,3.355-1.844c0.307-0.769-0.368-2.825-0.349-3.07      C127.744,230.158,124.177,230.681,124.177,230.681z"></path>
			</g>
			<g>
				<path class="st37" d="M140.46,231.146c0,0-1.174,1.736-2.744,2.136c-1.548,0.395-2.552,1.146-2.628,2.14      c-0.076,0.994,3.651,2.295,6.269,0.549c1.72-1.147,2.362-1.082,2.709-1.81c0.347-0.729-0.181-2.771-0.147-3.008      C143.962,230.86,140.46,231.146,140.46,231.146z"></path>
			</g>
			<g>
				<path class="st38" d="M124.357,229.828c0,0-0.211,0.835-0.179,0.853c0.031,0.018,3.651,0.449,3.542-0.221      c-0.089-0.543-0.216-1.134-0.216-1.134L124.357,229.828z"></path>
			</g>
			<g>
				<path class="st38" d="M140.508,230.288c0,0-0.077,0.839-0.048,0.858c0.029,0.019,3.479,0.668,3.459,0.007      c-0.016-0.525-0.219-1.179-0.219-1.179L140.508,230.288z"></path>
			</g>
			<g>
				<path class="st15" d="M127.648,179.857c0,0-1.317,12.785-2.001,17.161c-0.8,5.117-1.072,9.345-1.295,11.994      c-0.281,3.331-0.335,19.718-0.532,20.692c-0.197,0.974,4.361,0.269,4.361,0.269s2.242-21.412,3.078-24.959      c0.779-3.303,3.669-17.526,4.379-16.624c0.71,0.902,1.592,16.597,2.118,19.203c0.526,2.605,2.127,23.003,2.127,23.003      s3.627,0.722,4.592-0.094c0,0,0.439-17.578,0.104-22.463c-0.128-1.862,2.181-22.321-0.779-30.557      C142.234,173.129,127.648,179.857,127.648,179.857z"></path>
			</g>
			<g>
				<path class="st39" d="M150.211,181.672c0,0-2.22,0.674-3.149,0.504c-0.931-0.171-0.46-11.577-0.496-13.95      c-0.028-1.925-1.082-7.008-1.082-7.008s0,0.003-0.001,0.008c-0.001,0.001-0.001,0.004-0.001,0.006      c0,0.003-0.001,0.006-0.001,0.008c-0.104,0.381-1.526,5.655-1.575,8.189c-0.052,2.63,0.343,12.691,0.343,12.691l-3.533,1.664      l-12.216,0.351l-1.78,0.027c0,0,0.281-5.964,0.385-8.008c0.065-1.299,0.317-3.624,0.252-5.889c0,0,0.041-2.388-0.196-3.416      c-0.025-4.538-0.3-9.033-0.3-9.033c-0.152-2.058-0.258-3.981-0.319-5.777c0.496-0.262,1.093-0.57,1.571-0.797      c1.478-0.704,3.537-1.651,4.858-2.258c0.774-0.355,1.532-0.615,1.532-0.615s5.281-0.506,5.71-0.479      c0.135,0.008,0.795,0.238,1.661,0.568c1.873,0.711,5.483,2.158,6.058,2.571c0.843,0.604,2.626,14.949,2.706,15.953      C150.784,168.794,150.211,181.672,150.211,181.672z"></path>
			</g>
			<g>
				<path class="st16" d="M140.186,147.881c-0.388,3.559-4.341,3.559-4.341,3.559s-1.636-1.431-1.584-2.49      c0.001-0.023,0.003-0.047,0.006-0.069c0.024-0.195,0.245-0.437,0.268-0.828c0.003-0.053,0.004-0.108,0.006-0.162      c0.001-0.053,0.001-0.106,0.001-0.159c-0.001-0.27-0.017-0.537-0.032-0.723c-0.006-0.065-0.011-0.121-0.016-0.165      c-0.006-0.066-0.011-0.103-0.011-0.103s0.638-0.671,1.447-1.471c1.415-1.399,3.361-3.191,3.364-2.479      c0,0.038-0.006,0.083-0.017,0.135C138.935,144.532,140.186,147.881,140.186,147.881z"></path>
			</g>
			<g>
				<path class="st40" d="M139.816,177.278c0,0,0.32,2.018,0.348,2.544l0.678-0.135c0,0-0.187-2.135-0.297-2.493L139.816,177.278z"></path>
			</g>
			<g>
				<path class="st41" d="M150.913,189.029c0,0-0.207-2.829-0.964-3.257c-0.757-0.428-0.31,0.441-0.31,0.441s0.452,2.048,0.558,2.88      C150.203,189.133,150.913,189.029,150.913,189.029z"></path>
			</g>
			<g>
				<g>
					<polygon class="st41" points="143.439,191.026 153.408,188.035 153.564,200.367 143.69,206.488      "></polygon>
				</g>
			</g>
			<g>
				<polygon class="st41" points="143.69,206.488 144.948,206.701 154.549,200.528 154.241,188.079 153.408,188.035     "></polygon>
			</g>
			<path class="st42" d="M137.49,149.976l-1.645,1.464c0,0,1.899-0.126,2.254-0.443L137.49,149.976z"></path>
			<path class="st15" d="M127.058,182.245c0,0,7.729,0.658,14.498,0v2.221c0,0-10.166,1.468-14.837-0.424L127.058,182.245z"></path>
			<g>
				<linearGradient id="SVGID_4_" gradientUnits="userSpaceOnUse" x1="124.4862" y1="169.2196" x2="133.6503" y2="169.2196">
					<stop offset="0" style="stop-color:#C2CEFF"></stop>
					<stop offset="1" style="stop-color:#95AAFF"></stop>
				</linearGradient>
				<path class="st43" d="M132.971,148.987c-0.427,0.196-0.932,0.427-1.468,0.675c-1.124,0.519-2.39,1.107-3.39,1.582      c-0.53,0.252-1.187,0.549-1.694,0.764c0.059,1.825,0.148,3.782,0.303,5.878c0,0,0.146,5.118,0.441,9.973      c0.1,0.695,0.151,1.406,0.095,2.134c-0.073,0.949-0.176,1.986-0.3,3.067c-0.001,0.014-0.003,0.028-0.004,0.041      c-0.03,0.257-0.061,0.515-0.092,0.776c0,0.004-0.001,0.007-0.001,0.011c-0.657,5.408-1.77,11.614-2.351,13.491      c-0.123,0.392,0.3,0.754,0.602,1.034l2.114,1.333c0,0,0.872-8.023,1.161-10.746c0.279-2.629,1.158-6.153,1.543-9.587v-0.001      c0.488-4.356,1.16-8.625,1.522-11.16c0.944-6.601,2.201-9.555,2.201-9.555L132.971,148.987z"></path>
			</g>
			<g>
				<linearGradient id="SVGID_5_" gradientUnits="userSpaceOnUse" x1="137.1918" y1="169.1024" x2="151.2317" y2="169.1024">
					<stop offset="0" style="stop-color:#C2CEFF"></stop>
					<stop offset="1" style="stop-color:#95AAFF"></stop>
				</linearGradient>
				<path class="st44" d="M146.405,168.334c0.164,2.203-0.768,14.39,0.162,14.562c0.93,0.171,4.347-0.58,4.347-0.58      s0.429-13.143,0.291-14.521c-0.1-1.003-1.697-16.045-2.54-16.649c-0.487-0.349-4.094-1.628-5.864-2.326      c-0.324-0.128-0.637-0.249-0.927-0.359c-0.376,0.418-4.358,7.785-4.669,13.772c-0.095,1.823,0.332,5.67,0.657,8.814      c0.347,3.354,0.731,5.971,1.012,8.776c0.554,5.526,0.942,9.923,0.942,9.923l5.499-2.448c0.89-0.445,2.122-2.272,1.788-3.209      c-1.271-3.561-2.872-9.645-2.874-12.769c0,0,0.613-7.651,1.1-9.333C145.329,161.985,146.196,165.533,146.405,168.334z"></path>
			</g>
			<g>
				<path class="st16" d="M147.429,182.752c0,0-0.272,1.228-0.638,2.458c-0.366,1.23-0.714,1.625-0.55,2.324      c0.124,0.527,0.729,0.916,0.878,0.744c0.149-0.172,0.191-2.231,1.044-2.234c0.853-0.003-0.217,2.552,0.288,2.358      c0.505-0.194,2.442-1.294,2.304-2.329c-0.139-1.035-0.931-1.773-0.905-3.323c0.025-1.407-0.422-1.987-0.422-1.987      L147.429,182.752z"></path>
			</g>
			<g>
				<g>
					<path class="st41" d="M148.077,185.958c0,0-1.131,0.307-1.006,4.147l1.282-0.234c0,0-0.056-2.123,0.311-3.285       C148.665,186.586,148.588,185.835,148.077,185.958z"></path>
				</g>
			</g>
			<g>
				<linearGradient id="SVGID_6_" gradientUnits="userSpaceOnUse" x1="146.2597" y1="176.8165" x2="151.0981" y2="176.8165">
					<stop offset="0" style="stop-color:#C2CEFF"></stop>
					<stop offset="1" style="stop-color:#95AAFF"></stop>
				</linearGradient>
				<path class="st45" d="M146.26,174.495l0.056,9.686c0,0,1.933-0.086,4.597-1.07l0.185-13.659L146.26,174.495z"></path>
			</g>
			<path class="st39" d="M134.047,150.235c0,0-0.141,2.021,1.569,2.068c1.71,0.047,3.067-1.595,3.067-1.595l-2.838,0.732     l-1.727-1.464L134.047,150.235z"></path>
			<path class="st46" d="M139.957,147.215c0,0-1.621,2.08-2.467,2.761l1.387,2.327l2.392-4.069L139.957,147.215z"></path>
			<path class="st42" d="M134.382,150.358l1.463,1.082c0,0-1.285-2.344-1.31-3.388L134.382,150.358z"></path>
			<polygon class="st46" points="134.535,148.053 133.595,148.717 132.549,151.839 134.382,150.358    "></polygon>
			<linearGradient id="SVGID_7_" gradientUnits="userSpaceOnUse" x1="127.2713" y1="171.9161" x2="126.6947" y2="171.9161">
				<stop offset="0" style="stop-color:#C2CEFF"></stop>
				<stop offset="1" style="stop-color:#95AAFF"></stop>
			</linearGradient>
			<path class="st47" d="M126.966,164.197c0,0,0.416,3.604,0.196,6.892c-0.219,3.288-1.118,8.547-1.118,8.547     S126.036,168.097,126.966,164.197z"></path>
			<g>
				<path class="st16" d="M129.88,137.633c0,0-1.032,2.511-0.358,2.814c0.557,0.25-0.338,2.702-0.447,3.099      c-0.109,0.397,1.02,0.558,1.279,0.778s1.269,3.165,2.185,3.161c0.916-0.004,4.848-1.853,5.838-3.126      c0.99-1.272,1.353-6.588,0.38-8.712C137.784,133.524,131.706,133.244,129.88,137.633z"></path>
			</g>
			<g>
				<path class="st18" d="M129.679,138.175c0,0-1.578-2.429,0.598-4.582c2.176-2.154,6.91,0.727,7.417,0.802      c0.507,0.076,3.481,0.711,2.492,5.235c-0.88,4.028-0.965,4.134-0.965,4.134s-1.181-2.13-1.734-2.449      c-0.864-0.498-2.608-0.173-2.608-0.173s0.604-2.314-0.739-2.491C132.796,138.472,130.952,137.543,129.679,138.175z"></path>
			</g>
			<g>
				<path class="st16" d="M136.14,139.72c0.083-0.317,0.319-1.669,1.526-1.017c1.207,0.652-0.361,3.317-0.554,3.37      C136.92,142.126,135.438,142.391,136.14,139.72z"></path>
			</g>
			<path class="st33" d="M138.222,144.541c-0.027,0.068-0.925,2.25-3.681,3.351c0.001-0.053,0.001-0.106,0.001-0.159     c-0.001-0.27-0.017-0.537-0.032-0.723c-0.006-0.065-0.011-0.121-0.016-0.165C134.494,146.845,137.454,145.454,138.222,144.541z"></path>
		</g>
		<polygon class="st48" points="167.737,101.088 136.51,101.088 136.51,124.53 136.51,129.467 141.277,124.53 167.737,124.53   "></polygon>
		<polygon class="st48" points="38.904,101.088 70.131,101.088 70.131,124.53 70.131,129.467 65.363,124.53 38.904,124.53   "></polygon>
		<g>
			<g>
				<path class="st49" d="M151.753,120.555c-0.638-0.048-1.232-0.286-1.69-0.68c-0.52-0.447-0.804-1.041-0.803-1.673      c-0.088-1.245-0.476-2.532-0.796-3.415c-1.525-1.216-2.346-3.094-2.198-5.039c0.245-3.23,3.072-5.658,6.301-5.413      c3.23,0.245,5.658,3.072,5.413,6.302c-0.133,1.758-1.034,3.342-2.476,4.358c-0.438,1.192-0.702,2.283-0.782,3.244      c-0.015,1.293-1.245,2.336-2.747,2.326C151.901,120.563,151.826,120.56,151.753,120.555z M152.531,104.814      c-2.965-0.225-5.561,2.005-5.786,4.97c-0.137,1.807,0.636,3.551,2.069,4.667l0.054,0.042l0.024,0.065      c0.336,0.914,0.755,2.284,0.848,3.619l0.001,0.018c-0.003,0.493,0.222,0.96,0.636,1.315c0.425,0.365,0.994,0.569,1.602,0.573      c1.241,0.008,2.256-0.825,2.263-1.858l0-0.009l0.001-0.009c0.085-1.026,0.367-2.187,0.838-3.451l0.026-0.071l0.063-0.043      c1.358-0.931,2.208-2.404,2.332-4.042C157.727,107.634,155.497,105.039,152.531,104.814z"></path>
			</g>
			<g>
				<polygon class="st49" points="150.664,118.551 149.894,112.15 151.229,113.254 152.057,112.335 152.772,113.197 154.02,112.14       153.261,118.552 152.784,118.495 153.399,113.296 152.713,113.877 152.042,113.07 151.278,113.918 150.515,113.287       151.141,118.494     "></polygon>
			</g>
			<g>
				
					<rect x="149.886" y="119.978" transform="matrix(1 0.0067 -0.0067 1 0.815 -1.0181)" class="st49" width="4.167" height="1.679"></rect>
			</g>
			<g>
				
					<rect x="149.225" y="118.262" transform="matrix(1 0.0067 -0.0067 1 0.8081 -1.0197)" class="st49" width="5.507" height="2.703"></rect>
			</g>
		</g>
		<g>
			<path class="st49" d="M58.369,109.601c-0.116-0.129-0.287-0.269-0.512-0.418c-0.226-0.149-0.487-0.292-0.783-0.429     c-0.297-0.137-0.622-0.254-0.977-0.352c-0.355-0.098-0.72-0.16-1.094-0.188l-0.013,4.01l0.368,0.079     c0.697,0.17,1.326,0.36,1.887,0.568c0.561,0.209,1.035,0.462,1.422,0.76c0.386,0.299,0.686,0.664,0.897,1.098     c0.212,0.434,0.316,0.96,0.314,1.58c-0.002,0.685-0.127,1.269-0.374,1.752c-0.247,0.484-0.587,0.886-1.021,1.208     c-0.434,0.322-0.938,0.562-1.514,0.721c-0.575,0.159-1.192,0.245-1.851,0.256l-0.007,2.034l-1.007-0.003l0.007-2.073     c-0.93-0.068-1.814-0.254-2.652-0.561c-0.839-0.306-1.606-0.732-2.301-1.276l0.994-1.857c0.141,0.155,0.348,0.324,0.618,0.506     c0.271,0.182,0.586,0.357,0.948,0.526c0.361,0.169,0.758,0.319,1.19,0.449c0.432,0.131,0.881,0.223,1.346,0.276l0.013-4.01     c-0.077-0.026-0.158-0.049-0.242-0.069c-0.084-0.02-0.165-0.042-0.242-0.069c-0.684-0.183-1.281-0.375-1.79-0.577     c-0.51-0.202-0.932-0.445-1.267-0.731c-0.335-0.285-0.589-0.619-0.762-1c-0.173-0.381-0.259-0.844-0.257-1.386     c0.002-0.633,0.113-1.194,0.335-1.684c0.221-0.49,0.532-0.912,0.934-1.266c0.401-0.354,0.871-0.63,1.407-0.829     c0.536-0.198,1.128-0.322,1.774-0.372l0.006-1.957l1.007,0.003l-0.006,1.957c0.839,0.054,1.614,0.225,2.323,0.511     c0.709,0.287,1.335,0.631,1.876,1.033L58.369,109.601z M51.974,110.084c-0.002,0.542,0.187,0.95,0.567,1.222     c0.38,0.273,0.957,0.513,1.732,0.722l0.012-3.816c-0.788,0.036-1.37,0.218-1.745,0.546     C52.164,109.087,51.976,109.529,51.974,110.084z M57.552,116.534c0.002-0.568-0.223-0.998-0.674-1.29     c-0.451-0.292-1.083-0.556-1.896-0.791l-0.013,3.836c0.827-0.01,1.463-0.163,1.91-0.459     C57.326,117.534,57.55,117.103,57.552,116.534z"></path>
		</g>
		<g>
			<polygon class="st48" points="159.958,15.246 152.939,11.194 152.939,13.866 142.505,13.866 142.505,16.626 152.939,16.626      152.939,19.298    "></polygon>
			<polygon class="st48" points="142.505,6.357 149.524,10.41 149.524,7.738 159.958,7.738 159.958,4.977 149.524,4.977      149.524,2.305    "></polygon>
		</g>
		<g>
			<g>
				<path class="st48" d="M242.954,52.333c-0.855-0.065-1.65-0.383-2.264-0.911c-0.696-0.599-1.078-1.394-1.076-2.242      c-0.118-1.669-0.638-3.393-1.067-4.575c-2.043-1.629-3.143-4.146-2.945-6.751c0.328-4.327,4.116-7.581,8.443-7.253      c4.327,0.328,7.581,4.116,7.253,8.443c-0.179,2.356-1.386,4.478-3.318,5.839c-0.587,1.597-0.94,3.059-1.048,4.346      c-0.02,1.733-1.667,3.129-3.68,3.116C243.152,52.344,243.052,52.34,242.954,52.333z M243.997,31.243      c-3.973-0.301-7.451,2.686-7.752,6.659c-0.184,2.421,0.853,4.758,2.772,6.252l0.073,0.057l0.032,0.086      c0.45,1.225,1.012,3.061,1.137,4.849l0.001,0.025c-0.004,0.66,0.298,1.286,0.852,1.762c0.569,0.489,1.332,0.762,2.147,0.767      c1.663,0.011,3.023-1.105,3.032-2.489V49.2l0.001-0.012c0.114-1.374,0.492-2.93,1.122-4.623l0.036-0.096l0.084-0.058      c1.819-1.247,2.958-3.221,3.125-5.416C250.957,35.022,247.97,31.545,243.997,31.243z"></path>
			</g>
			<g>
				<polygon class="st48" points="241.495,49.649 240.464,41.072 242.252,42.551 243.361,41.321 244.319,42.475 245.991,41.059       244.974,49.65 244.335,49.574 245.159,42.607 244.24,43.387 243.341,42.305 242.317,43.441 241.295,42.595 242.134,49.572           "></polygon>
			</g>
			<g>
				<rect x="240.453" y="51.56" transform="matrix(1 0.0067 -0.0067 1 0.3598 -1.6347)" class="st48" width="5.582" height="2.25"></rect>
			</g>
			<g>
				
					<rect x="239.566" y="49.262" transform="matrix(1 0.0067 -0.0067 1 0.3483 -1.6317)" class="st48" width="7.378" height="3.621"></rect>
			</g>
		</g>
		<g>
			<path class="st48" d="M209.558,6.51c-0.056-0.164-0.158-0.36-0.307-0.586c-0.149-0.226-0.333-0.46-0.552-0.702     c-0.219-0.242-0.473-0.478-0.761-0.707c-0.288-0.23-0.599-0.43-0.933-0.602l-1.586,3.683l0.307,0.217     c0.574,0.43,1.078,0.851,1.513,1.263c0.434,0.412,0.771,0.831,1.009,1.257c0.238,0.426,0.37,0.88,0.395,1.362     c0.025,0.482-0.086,1.007-0.331,1.577c-0.271,0.629-0.615,1.117-1.031,1.465c-0.417,0.348-0.888,0.585-1.413,0.71     c-0.525,0.125-1.084,0.149-1.675,0.07c-0.592-0.079-1.193-0.243-1.803-0.491l-0.804,1.868l-0.925-0.398l0.82-1.904     c-0.828-0.427-1.569-0.946-2.219-1.557c-0.651-0.611-1.19-1.303-1.616-2.077l1.643-1.318c0.069,0.198,0.193,0.435,0.37,0.708     c0.177,0.274,0.399,0.559,0.665,0.856c0.265,0.297,0.571,0.591,0.918,0.88c0.346,0.29,0.723,0.55,1.13,0.782l1.586-3.684     c-0.061-0.054-0.126-0.107-0.196-0.158c-0.069-0.051-0.135-0.104-0.196-0.158c-0.557-0.437-1.031-0.848-1.42-1.234     c-0.39-0.386-0.682-0.775-0.878-1.169c-0.196-0.394-0.299-0.8-0.308-1.219c-0.009-0.419,0.093-0.877,0.308-1.376     c0.25-0.581,0.573-1.054,0.969-1.418c0.395-0.364,0.847-0.63,1.356-0.798c0.508-0.168,1.048-0.238,1.62-0.21     c0.571,0.028,1.164,0.146,1.778,0.354L207.763,0l0.925,0.398l-0.774,1.797c0.751,0.379,1.396,0.84,1.936,1.382     c0.54,0.542,0.98,1.104,1.32,1.686L209.558,6.51z M203.487,4.445c-0.214,0.498-0.2,0.947,0.042,1.347     c0.242,0.4,0.679,0.848,1.309,1.344l1.509-3.505c-0.739-0.276-1.346-0.337-1.82-0.182C204.053,3.602,203.707,3.935,203.487,4.445     z M206.086,12.566c0.225-0.522,0.187-1.006-0.113-1.451c-0.3-0.446-0.778-0.936-1.433-1.472l-1.517,3.523     c0.764,0.315,1.41,0.424,1.936,0.328C205.486,13.398,205.861,13.089,206.086,12.566z"></path>
		</g>
		<g>
			
				<ellipse transform="matrix(0.6475 -0.762 0.762 0.6475 -128.3566 92.0729)" class="st50" cx="35.353" cy="184.79" rx="29.754" ry="29.754"></ellipse>
			<path class="st50" d="M42.233,213.738l-10.266-58.509c15.531-1.794,29.956,8.82,32.693,24.419     C67.396,195.246,57.446,210.138,42.233,213.738z"></path>
			<path class="st50" d="M6.047,189.932c-2.407-13.719,4.998-26.89,17.167-32.315l9.976,56.855     C19.901,213.514,8.454,203.651,6.047,189.932z"></path>
			
				<ellipse transform="matrix(0.4269 -0.9043 0.9043 0.4269 -146.8469 137.8806)" class="st51" cx="35.353" cy="184.79" rx="22.614" ry="22.614"></ellipse>
			<g>
				<path class="st52" d="M36.402,176.941c-0.294-0.035-0.67-0.022-1.126,0.041c-0.457,0.063-0.952,0.174-1.486,0.332      c-0.534,0.159-1.083,0.375-1.647,0.649c-0.565,0.274-1.102,0.604-1.612,0.991l4.496,5.15l0.56-0.313      c1.084-0.566,2.103-1.032,3.056-1.396c0.953-0.364,1.845-0.573,2.676-0.626c0.831-0.053,1.626,0.079,2.384,0.396      c0.759,0.317,1.486,0.873,2.181,1.669c0.768,0.879,1.265,1.768,1.493,2.664c0.228,0.897,0.245,1.796,0.051,2.695      c-0.194,0.9-0.569,1.776-1.126,2.627c-0.557,0.852-1.252,1.655-2.083,2.41l2.281,2.613l-1.294,1.129l-2.324-2.662      c-1.267,0.959-2.609,1.715-4.028,2.267c-1.419,0.552-2.88,0.87-4.384,0.955l-0.816-3.496c0.356,0.04,0.81,0.024,1.361-0.048      c0.551-0.072,1.153-0.202,1.806-0.393c0.653-0.189,1.329-0.444,2.03-0.763c0.7-0.319,1.378-0.706,2.033-1.161l-4.496-5.15      c-0.128,0.054-0.258,0.115-0.387,0.184c-0.13,0.069-0.258,0.131-0.387,0.184c-1.082,0.536-2.063,0.961-2.942,1.275      c-0.88,0.315-1.694,0.478-2.444,0.49c-0.75,0.012-1.45-0.129-2.101-0.423c-0.651-0.294-1.281-0.789-1.889-1.486      c-0.709-0.813-1.199-1.657-1.467-2.534c-0.268-0.876-0.344-1.767-0.228-2.672c0.116-0.905,0.406-1.786,0.87-2.645      c0.464-0.858,1.081-1.682,1.853-2.473l-2.194-2.513l1.294-1.129l2.194,2.513c1.136-0.875,2.32-1.528,3.551-1.96      c1.231-0.431,2.419-0.694,3.565-0.788L36.402,176.941z M28.756,184.756c0.608,0.697,1.309,1.006,2.102,0.927      c0.793-0.079,1.804-0.42,3.031-1.024l-4.279-4.902c-0.969,0.933-1.509,1.821-1.62,2.664      C27.878,183.265,28.134,184.043,28.756,184.756z M43.158,186.739c-0.637-0.73-1.409-1.028-2.315-0.894      c-0.907,0.134-2.012,0.507-3.318,1.121l4.301,4.926c1.047-0.943,1.691-1.855,1.93-2.737      C43.994,188.275,43.796,187.469,43.158,186.739z"></path>
			</g>
			<path class="st53" d="M46.896,212.22c12.522-5.256,20.209-18.631,17.763-32.572c-2.446-13.941-14.228-23.9-27.791-24.579     L46.896,212.22z"></path>
			<path class="st53" d="M33.19,214.472l-9.976-56.855c2.188-0.975,4.53-1.701,6.997-2.133c0.587-0.103,1.172-0.188,1.756-0.255     l10.266,58.509c-0.572,0.136-1.151,0.255-1.738,0.358C38.028,214.529,35.579,214.645,33.19,214.472z"></path>
			<g>
				<g>
					<g>
						<g>
							<g>
								<path class="st16" d="M38.37,154.646c0,0,0.025,0.424-0.054,0.614c0,0-0.171,0.336-0.278,0.582          c-0.034,0.078-0.061,0.147-0.074,0.193c-0.055,0.194-0.119,0.635-0.382,1.063c-0.263,0.427-1.872,1.98-1.872,1.98          l-1.086-0.631l-1.101-0.446c0,0,0.028-3.075,0.227-3.502c0.02-0.042,0.041-0.082,0.063-0.118          c0.203-0.345,0.5-0.516,0.627-0.685c0.047-0.062,0.557-0.644,0.789-0.638c0.321,0.009,0.54,0.145,0.656,0.332          c0,0,0.628,0.045,0.936,0.336c0,0,0.58,0.023,0.86,0.494C37.681,154.221,38.267,154.31,38.37,154.646z"></path>
							</g>
						</g>
					</g>
				</g>
			</g>
			<g>
				<path class="st14" d="M4.379,226.439c0,0-0.295,2.045-0.332,2.353c-0.037,0.307-3.278-0.181-3.278-0.181l-0.262-2.435      C0.507,226.176,3.974,226.151,4.379,226.439z"></path>
			</g>
			<g>
				<path class="st15" d="M4.082,228.532c0,0,1.027,1.233,2.02,1.77c0.993,0.537,2.554,0.75,3.142,1.306      c0.424,0.402,1.544,2.13-2.581,2.095c-4.126-0.035-6.115,0.244-6.557-0.418c-0.442-0.663,0.64-4.891,0.64-4.891      S1.723,228.745,4.082,228.532z"></path>
			</g>
			<g>
				<path class="st14" d="M27.605,226.439c0,0-0.295,2.045-0.332,2.353c-0.037,0.307-3.278-0.181-3.278-0.181l-0.262-2.435      C23.733,226.176,27.2,226.151,27.605,226.439z"></path>
			</g>
			<g>
				<path class="st15" d="M27.308,228.532c0,0,1.027,1.233,2.02,1.77c0.993,0.537,4.649,0.979,5.236,1.535      c0.424,0.401,1.129,2.017-4.676,1.866c-4.124-0.107-6.115,0.244-6.557-0.418c-0.442-0.663,0.64-4.891,0.64-4.891      S24.892,228.769,27.308,228.532z"></path>
			</g>
			<g>
				<path class="st15" d="M7.063,173.878c0,0-3.046,4.839-2.819,9.213c0.227,4.374-1.104,9.15-1.562,13.72      c-0.51,5.094-2.597,17.154-2.673,19.879c-0.076,2.725,0.324,11.426,0.324,11.426l4.179,0.096c0,0,3.509-21.084,4.418-23.235      s5.416-17.488,5.568-19.209C14.65,184.047,7.063,173.878,7.063,173.878z"></path>
			</g>
			<g>
				<path class="st15" d="M23.097,174.534c0,0,1.284,5.823,1.587,8.501c0.303,2.677,1.516,19.122,1.667,20.795      c0.152,1.673,1.01,21.896,1.818,24.382h-5.342c0,0-4.101-14.702-4.101-21.657c0-6.956-3.168-15.122-5.213-19.711      c-2.045-4.589-6.726-4.698-7.983-13.213C5.53,173.63,21.395,171.833,23.097,174.534z"></path>
			</g>
			<g>
				<path class="st16" d="M12.146,133.193c0,0,4.088-1.527,5.973,1.585c1.885,3.112,1.703,9.342-0.357,10.108      c-2.061,0.766-5.156,0.366-6.211-1.582c-1.055-1.947-2.008-4.763-1.962-6.644C9.635,134.78,11.072,133.736,12.146,133.193z"></path>
			</g>
			<g>
				<path class="st16" d="M17.318,145.029c0,0-0.17,1.104,0.111,1.648c0.281,0.544-5.296,0.558-5.296,0.558      s-0.453-2.957-1.311-5.456C9.963,139.279,17.318,145.029,17.318,145.029z"></path>
			</g>
			<g>
				<path class="st17" d="M10.821,141.778c0,0,0.385,0.635,1.956,0.389c1.571-0.246,3.489-2.337,4.145-2.567      c0.656-0.23,0.662-0.615,0.662-0.615l0.411,0.6l0.697,0.044c0,0-0.636-1.87,0.323-2.633c0.959-0.763-0.995-6.053-6.035-4.292      c0,0-3.871,1.067-3.73,3.268C9.391,138.174,9.955,140.681,10.821,141.778z"></path>
			</g>
			<g>
				<path class="st6" d="M17.76,146.611c0,0-0.018-1.039-0.488-1.139c-0.471-0.1-5.198-0.554-5.776-0.327v1.21      C11.496,146.356,12.609,147.041,17.76,146.611z"></path>
			</g>
			<g>
				<path class="st16" d="M17.48,138.184c-0.088-0.369-1.027-1.424-1.387-0.295c-0.36,1.13,0.543,2.649,1.047,2.519      S17.704,139.121,17.48,138.184z"></path>
			</g>
			<g>
				<path class="st18" d="M36.52,158.886c-0.002-0.001-0.005-0.001-0.008-0.001C36.545,158.899,36.549,158.9,36.52,158.886z"></path>
			</g>
			<g>
				<path class="st0" d="M4.233,182.637c0,0,2.565,1.598,6.84,2.069c4.275,0.471,13.544-1.167,13.611-1.672      c0.068-0.505-1.647-13.026-1.512-13.969c0.135-0.942-0.199-7.761-0.199-7.761c0.053,0.92,1.495,5.263,2.627,7.312      c0.409,0.74,1.781,3.061,2.442,2.533c3.2-2.555,7.94-11.641,8.254-11.722c-0.264-0.115-2.573-2.623-2.866-2.72      c-0.256-0.085-2.124,3.364-3.523,4.879c-0.624,0.676-1.067,1.166-1.067,1.166c-0.404-0.909-2.226-6.382-2.753-8.346      c-1.276-4.75-1.622-5.042-1.622-5.042c-0.294-1.133-6.705-2.754-6.705-2.754l-6.264-0.255c0,0-5.749,1.266-8.013,2.288      c-0.215,0.097-0.216,5.129-0.805,6.449l1.877,3.96c0,0,0.245,7.717,0.47,11.206C5.127,171.861,4.233,182.637,4.233,182.637z"></path>
			</g>
			<g>
				<path class="st0" d="M1.925,162.926c0.182,0.588,0.642,1.758,1.179,1.975c0.344,0.139,1.328,0.18,1.771,0.159l0.442-0.078l0,0      l4.682-1.404c0,0,1.046-12.048-6.532-14.934C3.267,148.709,0.251,157.532,1.925,162.926z"></path>
			</g>
			<g>
				<path class="st54" d="M28.84,162.753l0.534,3.267c0,0,0.56-3.275,0.533-4.433C29.283,162.263,28.84,162.753,28.84,162.753z"></path>
			</g>
			<g>
				<path class="st17" d="M10.982,133.56c0,0-4.843,1.039-0.092,8.331L10.982,133.56z"></path>
			</g>
		</g>
	</g>
</g>
</svg>