<svg xmlns="http://www.w3.org/2000/svg" xmlns:xlink="http://www.w3.org/1999/xlink" viewBox="0 0 773.4 243.32"><defs><style>.cls-1{isolation:isolate;}.cls-2,.cls-3,.cls-4,.cls-5{mix-blend-mode:overlay;}.cls-2{fill:url(#linear-gradient);}.cls-3{fill:url(#linear-gradient-2);}.cls-4{fill:url(#linear-gradient-3);}.cls-5{fill:url(#linear-gradient-4);}.cls-6{fill:#6e6f71;}</style><linearGradient id="linear-gradient" x1="5542.54" y1="-1941.9" x2="5542.54" y2="-2125.48" gradientTransform="translate(2125.48 5708.92) rotate(-90)" gradientUnits="userSpaceOnUse"><stop offset="0" stop-color="#a2dadb"/><stop offset="0.16" stop-color="#79cfd0"/><stop offset="0.34" stop-color="#51c4c5"/><stop offset="0.52" stop-color="#32bcbc"/><stop offset="0.69" stop-color="#1cb6b6"/><stop offset="0.85" stop-color="#0fb2b2"/><stop offset="1" stop-color="#0ab1b1"/></linearGradient><linearGradient id="linear-gradient-2" x1="2204.97" y1="-1941.9" x2="2204.97" y2="-2125.48" gradientTransform="matrix(0, 1, 1, 0, 2125.48, -2128.02)" gradientUnits="userSpaceOnUse"><stop offset="0" stop-color="#893494"/><stop offset="1" stop-color="#0ab1b1"/></linearGradient><linearGradient id="linear-gradient-3" x1="2202.47" y1="4999.04" x2="2202.47" y2="5182.62" gradientTransform="translate(5772.41 -2125.48) rotate(90)" gradientUnits="userSpaceOnUse"><stop offset="0.01" stop-color="#fbb034"/><stop offset="0.17" stop-color="#faab35"/><stop offset="0.37" stop-color="#f79d37"/><stop offset="0.58" stop-color="#f2863a"/><stop offset="0.8" stop-color="#eb653f"/><stop offset="1" stop-color="#e44145"/></linearGradient><linearGradient id="linear-gradient-4" x1="5545.12" y1="4999.01" x2="5545.12" y2="5182.59" gradientTransform="matrix(0, -1, -1, 0, 5772.41, 5711.45)" gradientUnits="userSpaceOnUse"><stop offset="0" stop-color="#fbb034"/><stop offset="0.22" stop-color="#b4b059"/><stop offset="0.42" stop-color="#77b178"/><stop offset="0.61" stop-color="#48b191"/><stop offset="0.77" stop-color="#26b1a2"/><stop offset="0.91" stop-color="#11b1ad"/><stop offset="1" stop-color="#0ab1b1"/></linearGradient></defs><title>Cnetric Old Logo</title><g class="cls-1"><g id="Layer_1" data-name="Layer 1"><polygon class="cls-2" points="183.58 178.78 183.58 243.32 0 153.96 0 89.42 183.58 178.78"/><polygon class="cls-3" points="183.58 64.54 183.58 0 0 89.36 0 153.9 183.58 64.54"/><polygon class="cls-4" points="589.79 64.58 589.79 0.04 773.37 89.39 773.37 153.93 589.79 64.58"/><polygon class="cls-5" points="589.82 178.75 589.82 243.29 773.4 153.92 773.4 89.39 589.82 178.75"/><path class="cls-6" d="M226.3,129.54c-3,10-12.38,17.16-23.71,17.16a25.15,25.15,0,1,1-.06-50.3,24.7,24.7,0,0,1,23.77,17.42H216A15.08,15.08,0,0,0,202.46,105c-9.43,0-15.52,7.92-15.52,16.5,0,8.84,6.35,16.64,15.59,16.64,8.64,0,12.57-6.81,13.49-8.58Z"/><path class="cls-6" d="M283,130.91l-.19-33.59h9.36v48.46h-8.64l-22.34-33.53.2,33.53H252V97.32h8.71Z"/><path class="cls-6" d="M323,97.32h27.18v8.58H332.73v11h17.09v8.58H332.73V137.2h17.42v8.58H323Z"/><path class="cls-6" d="M393.83,105.9H381.17V97.32h35v8.58H403.59v39.88h-9.76Z"/><path class="cls-6" d="M441.83,97.32H456.5c7.54,0,11.86,1.18,14.48,3.07,4,2.89,6.15,7.8,6.15,13.17a15.83,15.83,0,0,1-2.62,9,12.69,12.69,0,0,1-8,5.24l10.81,17.94H467.11l-13-22.53H456c3.21,0,6.68-.19,8.71-1.77a9.06,9.06,0,0,0,3.08-7.07,8.33,8.33,0,0,0-3.6-7,13,13,0,0,0-6.88-1.5h-5.7v39.88h-9.76Z"/><path class="cls-6" d="M508.7,97.32h9.76v48.46H508.7Z"/><path class="cls-6" d="M594.89,129.54c-2.95,10-12.38,17.16-23.71,17.16a25.15,25.15,0,1,1-.07-50.3,24.71,24.71,0,0,1,23.78,17.42H584.6A15.05,15.05,0,0,0,571.05,105c-9.43,0-15.52,7.92-15.52,16.5,0,8.84,6.35,16.64,15.58,16.64,8.65,0,12.58-6.81,13.49-8.58Z"/></g></g></svg>